M48
;Layer_Color=9474304
;FILE_FORMAT=2:5
INCH,LZ
;TYPE=PLATED
T1F00S00C0.00787
T2F00S00C0.01200
T3F00S00C0.01968
T4F00S00C0.02953
%
T01
X0499984Y0199
X05Y02015
X05025Y0207909
X04935Y0217
X0516Y0215
X0524929Y0218
X05365Y0229
X0547555Y02285
X0548Y0223
X0556Y022
X0551Y02145
X05495Y02045
Y0201
X0547Y0203
X0549575Y0193
X05325Y0192624
X0515286Y0186175
X050891Y023
X0510309Y023624
X0507371Y0238
X0525Y02445
X05555Y0233
X05585Y0229
X05655Y02255
X0566Y0213
X057Y0214
Y02055
X0571Y020178
X05725Y0193563
X0572Y01895
X0585Y0192624
X0584Y0196683
X05885Y0201092
X0559366Y0206743
X059Y02385
T02
X0521Y0244
X0515Y02515
X05305Y02355
X0534Y02375
T03
X0523748Y0251
X0538449
X0548449
X0558449
T04
X05095Y0182732
X05195
X0555366Y0184
X05665
X05765
X0573524Y02425
X0583524
X04905Y0238
Y0228
M30
