M48
;Layer_Color=9474304
;FILE_FORMAT=2:5
INCH,LZ
;TYPE=PLATED
T1F00S00C0.00787
T2F00S00C0.01200
T3F00S00C0.01500
T5F00S00C0.02756
T6F00S00C0.02953
%
T01
X-0047516Y0008569
X-0040846Y0003964
X-0059239Y-0002355
X-0059679Y-000522
X-0058104Y-0008137
X-0049924Y-00127
X-0063071Y0006648
X-0081643Y0007745
X-0088896Y001
X-0091338Y001063
X-0084646Y0015733
X-0074455Y0017581
X-0072573Y0021225
Y0027928
X-0101117Y0016713
X-0121349Y0015343
X-0123803
X-0126241Y0015288
X-0143003Y0013871
X-0150787Y0013644
Y0021745
X-0149261Y0031349
X-0146643Y0030297
X-01634Y004
X-01881Y0036
X-02037Y00371
X-018859Y0004056
Y-0020289
X-01915Y-00375
X-0146329Y-0026974
X-014632Y-0024404
Y-0021688
X-0147791Y-0017323
X-0145743Y-0011423
X-0140949Y-0009409
X-0137861Y-0008947
X-0134712Y-000955
X-0125984Y-0021391
X-0128347Y-0025591
X-0136286Y-002874
Y-0032308
X-0152756Y0000787
X-0160236Y0011024
X-0107859Y-0003744
X-0088174Y0001832
X-00878Y-00112
X-00846Y-00113
T02
X-0042246Y-0033366
X-0022174Y-0018895
X-0035039Y0020545
X-0037955Y0020556
X-0040871Y0020545
X-0081643Y-000955
X-00799Y-00222
X-0077753Y-0036588
X-0072993
X-0082634
X-0100069Y-0010447
X-0117255Y-0023733
X-0150556Y-0020289
X-0138776Y0041339
T03
X-0183465Y-0035827
X-0169095Y-0030577
T05
X-0172047Y0003801
X-0166142Y0001832
Y0009707
Y0017581
Y0025455
Y0033329
X-0172047Y003136
Y0021518
Y0013644
T06
X-0047955Y-004568
X-011Y-00425
X-012
X-0115Y-0035
X-0105
X-0125
X-012081Y-0017947
X-011081
X-0105512Y0041339
X-0093307
X-0058104Y0042126
M30
