G04*
G04 #@! TF.GenerationSoftware,Altium Limited,Altium Designer,20.1.14 (287)*
G04*
G04 Layer_Color=255*
%FSLAX25Y25*%
%MOIN*%
G70*
G04*
G04 #@! TF.SameCoordinates,2AB0D3F0-F82E-4911-9630-DE43A68CCE8E*
G04*
G04*
G04 #@! TF.FilePolarity,Positive*
G04*
G01*
G75*
%ADD18R,0.01968X0.01772*%
%ADD25R,0.16000X0.06000*%
%ADD105O,0.06299X0.03543*%
%ADD106O,0.07874X0.03543*%
%ADD107C,0.04724*%
%ADD108R,0.04724X0.04724*%
%ADD113R,0.05118X0.05906*%
%ADD114R,0.10236X0.07087*%
%ADD115R,0.04724X0.02362*%
%ADD116R,0.07087X0.10236*%
%ADD117R,0.02362X0.04724*%
%ADD118R,0.07480X0.11024*%
G54D18*
X-78518Y-27384D02*
D03*
X-81471D02*
D03*
G54D25*
X-12048Y-10000D02*
D03*
Y10000D02*
D03*
G54D105*
X-202559Y42777D02*
D03*
Y-7616D02*
D03*
G54D106*
X-169095Y42777D02*
D03*
Y-7616D02*
D03*
G54D107*
X-166142Y1832D02*
D03*
Y9707D02*
D03*
Y17581D02*
D03*
Y25455D02*
D03*
Y33329D02*
D03*
X-172047Y21518D02*
D03*
Y31360D02*
D03*
Y13644D02*
D03*
Y3801D02*
D03*
X-105000Y-35000D02*
D03*
X-110000Y-42500D02*
D03*
X-115000Y-35000D02*
D03*
X-125000D02*
D03*
X-105512Y41339D02*
D03*
X-120000Y-42500D02*
D03*
X-93307Y41339D02*
D03*
X-47955Y-45680D02*
D03*
X-58104Y42126D02*
D03*
X-120810Y-17947D02*
D03*
G54D108*
X-110810D02*
D03*
G54D113*
X-177416Y-36851D02*
D03*
X-169936D02*
D03*
G54D114*
X-201000Y-39300D02*
D03*
Y-14300D02*
D03*
G54D115*
X-189583Y-29261D02*
D03*
Y-24339D02*
D03*
G54D116*
X-157964Y36525D02*
D03*
X-132964D02*
D03*
G54D117*
X-147924Y25108D02*
D03*
X-143003D02*
D03*
X-82753Y-32630D02*
D03*
X-67989D02*
D03*
X-72910D02*
D03*
X-77832D02*
D03*
G54D118*
X-57950Y-44047D02*
D03*
X-92792D02*
D03*
M02*
