G04*
G04 #@! TF.GenerationSoftware,Altium Limited,Altium Designer,18.1.6 (161)*
G04*
G04 Layer_Color=128*
%FSLAX25Y25*%
%MOIN*%
G70*
G01*
G75*
%ADD105C,0.00200*%
G54D105*
X582047Y242500D02*
X585000D01*
X583524Y241024D02*
Y243976D01*
X572047Y242500D02*
X575000D01*
X573524Y241024D02*
Y243976D01*
X575024Y184000D02*
X577976D01*
X576500Y182524D02*
Y185476D01*
X553890Y184000D02*
X556842D01*
X555366Y182524D02*
Y185476D01*
X522764Y251000D02*
X524733D01*
X523748Y250016D02*
Y251984D01*
X537465Y251000D02*
X539433D01*
X538449Y250016D02*
Y251984D01*
X565024Y184000D02*
X567976D01*
X566500Y182524D02*
Y185476D01*
X489024Y228000D02*
X491976D01*
X490500Y226524D02*
Y229476D01*
X489024Y238000D02*
X491976D01*
X490500Y236524D02*
Y239476D01*
X508024Y182732D02*
X510976D01*
X509500Y181255D02*
Y184208D01*
X518024Y182732D02*
X520976D01*
X519500Y181255D02*
Y184208D01*
X547465Y251000D02*
X549433D01*
X548449Y250016D02*
Y251984D01*
X557465Y251000D02*
X559433D01*
X558449Y250016D02*
Y251984D01*
X583606Y196683D02*
X584394D01*
X584000Y196289D02*
Y197076D01*
X584606Y192624D02*
X585394D01*
X585000Y192230D02*
Y193017D01*
X588106Y201092D02*
X588894D01*
X588500Y200698D02*
Y201485D01*
X569606Y205500D02*
X570394D01*
X570000Y205106D02*
Y205894D01*
X570606Y201780D02*
X571394D01*
X571000Y201386D02*
Y202174D01*
X569606Y214000D02*
X570394D01*
X570000Y213606D02*
Y214394D01*
X565606Y213000D02*
X566394D01*
X566000Y212606D02*
Y213394D01*
X558972Y206743D02*
X559760D01*
X559366Y206349D02*
Y207136D01*
X509915Y236240D02*
X510703D01*
X510309Y235846D02*
Y236634D01*
X515606Y215000D02*
X516394D01*
X516000Y214606D02*
Y215394D01*
X508516Y230000D02*
X509304D01*
X508910Y229606D02*
Y230394D01*
X502106Y207909D02*
X502894D01*
X502500Y207516D02*
Y208303D01*
X550606Y214500D02*
X551394D01*
X551000Y214106D02*
Y214894D01*
X555606Y220000D02*
X556394D01*
X556000Y219606D02*
Y220394D01*
X549106Y204500D02*
X549894D01*
X549500Y204106D02*
Y204894D01*
X565106Y225500D02*
X565894D01*
X565500Y225106D02*
Y225894D01*
X558106Y229000D02*
X558894D01*
X558500Y228606D02*
Y229394D01*
X547161Y228500D02*
X547949D01*
X547555Y228106D02*
Y228894D01*
X547606Y223000D02*
X548394D01*
X548000Y222606D02*
Y223394D01*
X549106Y201000D02*
X549894D01*
X549500Y200606D02*
Y201394D01*
X546606Y203000D02*
X547394D01*
X547000Y202606D02*
Y203394D01*
X549181Y193000D02*
X549968D01*
X549575Y192606D02*
Y193394D01*
X493106Y217000D02*
X493894D01*
X493500Y216606D02*
Y217394D01*
X589606Y238500D02*
X590394D01*
X590000Y238106D02*
Y238894D01*
X571606Y189500D02*
X572394D01*
X572000Y189106D02*
Y189894D01*
X532106Y192624D02*
X532894D01*
X532500Y192230D02*
Y193017D01*
X524535Y218000D02*
X525323D01*
X524929Y217606D02*
Y218394D01*
X536106Y229000D02*
X536894D01*
X536500Y228606D02*
Y229394D01*
X524606Y244500D02*
X525394D01*
X525000Y244106D02*
Y244894D01*
X520400Y244000D02*
X521600D01*
X521000Y243400D02*
Y244600D01*
X514400Y251500D02*
X515600D01*
X515000Y250900D02*
Y252100D01*
X572106Y193563D02*
X572894D01*
X572500Y193169D02*
Y193957D01*
X529900Y235500D02*
X531100D01*
X530500Y234900D02*
Y236100D01*
X533400Y237500D02*
X534600D01*
X534000Y236900D02*
Y238100D01*
X499590Y199000D02*
X500377D01*
X499984Y198606D02*
Y199394D01*
X499606Y201500D02*
X500394D01*
X500000Y201106D02*
Y201894D01*
X514892Y186175D02*
X515679D01*
X515286Y185781D02*
Y186569D01*
X555106Y233000D02*
X555894D01*
X555500Y232606D02*
Y233394D01*
X506977Y238000D02*
X507765D01*
X507371Y237606D02*
Y238394D01*
M02*
