G04*
G04 #@! TF.GenerationSoftware,Altium Limited,Altium Designer,18.1.6 (161)*
G04*
G04 Layer_Color=16777215*
%FSLAX25Y25*%
%MOIN*%
G70*
G01*
G75*
%ADD11C,0.00984*%
%ADD12C,0.00787*%
%ADD13C,0.00500*%
%ADD57C,0.01000*%
%ADD99C,0.00394*%
G54D11*
X540028Y208035D02*
X539289Y208461D01*
Y207609D01*
X540028Y208035D01*
X503538Y225512D02*
X502800Y225938D01*
Y225086D01*
X503538Y225512D01*
X500817Y189626D02*
X500079Y190052D01*
Y189200D01*
X500817Y189626D01*
X570968Y200035D02*
X570230Y200462D01*
Y199609D01*
X570968Y200035D01*
G54D12*
X610252Y191568D02*
X625606D01*
X610252Y220717D02*
X625606D01*
X610252Y210717D02*
Y211568D01*
Y200717D02*
Y201568D01*
X542095Y220830D02*
X542882D01*
X542095Y220043D02*
Y220830D01*
X554693D02*
X555480D01*
Y220043D02*
Y220830D01*
Y207445D02*
Y208232D01*
X554693Y207445D02*
X555480D01*
X542095D02*
X542882D01*
X542095D02*
Y208232D01*
X510231Y226398D02*
Y238602D01*
X506294Y226398D02*
Y238602D01*
X510231D01*
X506294Y226398D02*
X510231D01*
X502884Y209902D02*
X505345D01*
X502884Y207441D02*
Y209902D01*
X521290D02*
X523750D01*
Y207441D02*
Y209902D01*
Y189035D02*
Y191496D01*
X521290Y189035D02*
X523750D01*
X502884D02*
X505345D01*
X502884D02*
Y191496D01*
X576402Y221567D02*
X589000D01*
X576402D02*
Y234953D01*
X592937D01*
Y222354D02*
Y234953D01*
X592150Y221567D02*
X592937Y222354D01*
X589000Y221567D02*
X592150D01*
X573035Y199445D02*
Y201905D01*
Y199445D02*
X575496D01*
X587504D02*
X589965D01*
Y201905D01*
Y213913D02*
Y216374D01*
X587504D02*
X589965D01*
X573035Y213913D02*
Y216374D01*
X575496D01*
G54D13*
X497372Y239480D02*
Y252079D01*
X509183D01*
Y239480D02*
Y252079D01*
X497372Y239480D02*
X509183D01*
X568500Y191499D02*
Y188000D01*
Y189749D01*
X566167D01*
Y191499D01*
Y188000D01*
X565001D02*
Y191499D01*
X563252D01*
X562669Y190916D01*
Y189749D01*
X563252Y189166D01*
X565001D01*
X529500Y181500D02*
Y184999D01*
X527751D01*
X527167Y184416D01*
Y183249D01*
X527751Y182666D01*
X529500D01*
X528334D02*
X527167Y181500D01*
X526001Y184999D02*
X523668Y181500D01*
Y184999D02*
X526001Y181500D01*
X578667Y190916D02*
X579251Y191499D01*
X580417D01*
X581000Y190916D01*
Y188583D01*
X580417Y188000D01*
X579251D01*
X578667Y188583D01*
Y189749D01*
X579834D01*
X577501Y188000D02*
Y191499D01*
X575169Y188000D01*
Y191499D01*
X574002D02*
Y188000D01*
X572253D01*
X571670Y188583D01*
Y190916D01*
X572253Y191499D01*
X574002D01*
X557500D02*
Y188000D01*
X555167D01*
X554001D02*
Y191499D01*
X552252D01*
X551669Y190916D01*
Y189749D01*
X552252Y189166D01*
X554001D01*
X550502Y188000D02*
X548170Y190333D01*
X547003Y191499D02*
X545837D01*
X546420D01*
Y188000D01*
X547003D01*
X545837D01*
X544088D02*
Y191499D01*
X541755Y188000D01*
Y191499D01*
X485999Y236500D02*
X483666D01*
X482500Y237666D01*
X483666Y238833D01*
X485999D01*
Y239999D02*
X482500D01*
Y241748D01*
X483083Y242331D01*
X483666D01*
X484249Y241748D01*
Y239999D01*
Y241748D01*
X484833Y242331D01*
X485416D01*
X485999Y241748D01*
Y239999D01*
X482500Y243498D02*
X484833D01*
X485999Y244664D01*
X484833Y245830D01*
X482500D01*
X484249D01*
Y243498D01*
X485999Y246997D02*
Y249329D01*
Y248163D01*
X482500D01*
X505794Y184999D02*
X503461D01*
X504627D01*
Y181500D01*
X502295Y184999D02*
X499962Y181500D01*
Y184999D02*
X502295Y181500D01*
X485416Y223333D02*
X485999Y222749D01*
Y221583D01*
X485416Y221000D01*
X483083D01*
X482500Y221583D01*
Y222749D01*
X483083Y223333D01*
X484249D01*
Y222166D01*
X482500Y224499D02*
X485999D01*
X482500Y226831D01*
X485999D01*
Y227998D02*
X482500D01*
Y229747D01*
X483083Y230330D01*
X485416D01*
X485999Y229747D01*
Y227998D01*
G54D57*
X496585Y238299D02*
X495797D01*
X496585D01*
G54D99*
X593528Y221173D02*
D03*
M02*
