G04*
G04 #@! TF.GenerationSoftware,Altium Limited,Altium Designer,20.0.14 (345)*
G04*
G04 Layer_Color=8388736*
%FSLAX25Y25*%
%MOIN*%
G70*
G01*
G75*
%ADD34R,0.03950X0.03950*%
%ADD35R,0.02769X0.02572*%
%ADD36O,0.01784X0.05524*%
%ADD37O,0.05524X0.01784*%
%ADD38R,0.03950X0.03950*%
%ADD39R,0.02375X0.02769*%
%ADD40R,0.16800X0.06800*%
%ADD41R,0.02769X0.02375*%
%ADD42R,0.05524X0.03162*%
%ADD43R,0.11036X0.07887*%
%ADD44R,0.03950X0.03950*%
%ADD45R,0.05918X0.07296*%
%ADD46R,0.08280X0.04737*%
%ADD47R,0.08280X0.07887*%
%ADD48R,0.06902X0.06410*%
%ADD49R,0.06233X0.02572*%
%ADD50R,0.07887X0.11036*%
%ADD51R,0.03162X0.05524*%
%ADD52R,0.04068X0.02257*%
%ADD53R,0.04068X0.03438*%
%ADD54C,0.05524*%
%ADD55R,0.05524X0.05524*%
%ADD56O,0.04737X0.06706*%
G54D34*
X519000Y236406D02*
D03*
Y230500D02*
D03*
Y217910D02*
D03*
Y212004D02*
D03*
G54D35*
X514476Y230000D02*
D03*
X511524D02*
D03*
Y218500D02*
D03*
X514476D02*
D03*
X589047Y224500D02*
D03*
X592000D02*
D03*
X589047Y221000D02*
D03*
X592000D02*
D03*
X589047Y217500D02*
D03*
X592000D02*
D03*
G54D36*
X537713Y240784D02*
D03*
X539681D02*
D03*
X541650D02*
D03*
X543618D02*
D03*
X545587D02*
D03*
X547555D02*
D03*
X549524D02*
D03*
X551492D02*
D03*
X553461D02*
D03*
X555429D02*
D03*
X557398D02*
D03*
X559366D02*
D03*
X561335D02*
D03*
X563303D02*
D03*
X565272D02*
D03*
X567240D02*
D03*
Y196689D02*
D03*
X565272D02*
D03*
X563303D02*
D03*
X561335D02*
D03*
X559366D02*
D03*
X557398D02*
D03*
X555429D02*
D03*
X553461D02*
D03*
X551492D02*
D03*
X549524D02*
D03*
X547555D02*
D03*
X545587D02*
D03*
X543618D02*
D03*
X541650D02*
D03*
X539681D02*
D03*
X537713D02*
D03*
G54D37*
X574524Y233500D02*
D03*
Y231532D02*
D03*
Y229563D02*
D03*
Y227594D02*
D03*
Y225626D02*
D03*
Y223657D02*
D03*
Y221689D02*
D03*
Y219721D02*
D03*
Y217752D02*
D03*
Y215784D02*
D03*
Y213815D02*
D03*
Y211846D02*
D03*
Y209878D02*
D03*
Y207909D02*
D03*
Y205941D02*
D03*
Y203972D02*
D03*
X530429D02*
D03*
Y205941D02*
D03*
Y207909D02*
D03*
Y209878D02*
D03*
Y211846D02*
D03*
Y213815D02*
D03*
Y215784D02*
D03*
Y217752D02*
D03*
Y219721D02*
D03*
Y221689D02*
D03*
Y223657D02*
D03*
Y225626D02*
D03*
Y227594D02*
D03*
Y229563D02*
D03*
Y231532D02*
D03*
Y233500D02*
D03*
G54D38*
X574571Y196689D02*
D03*
X580476D02*
D03*
X562571Y191500D02*
D03*
X568476D02*
D03*
X505809Y207500D02*
D03*
X511715D02*
D03*
X528071Y241500D02*
D03*
X533976D02*
D03*
G54D39*
X538449Y192500D02*
D03*
X541598D02*
D03*
X575449D02*
D03*
X578598D02*
D03*
X540024Y244500D02*
D03*
X536874D02*
D03*
G54D40*
X618000Y196143D02*
D03*
Y216143D02*
D03*
G54D41*
X525524Y222425D02*
D03*
Y225575D02*
D03*
X524929Y209425D02*
D03*
Y212575D02*
D03*
X579024Y235150D02*
D03*
Y232000D02*
D03*
G54D42*
X495262Y231039D02*
D03*
Y235961D02*
D03*
G54D43*
X483845Y221000D02*
D03*
Y246000D02*
D03*
G54D44*
X501262Y236453D02*
D03*
Y230547D02*
D03*
G54D45*
X484000Y212760D02*
D03*
Y186185D02*
D03*
G54D46*
Y193370D02*
D03*
G54D47*
Y204000D02*
D03*
G54D48*
X494138Y209266D02*
D03*
Y189679D02*
D03*
G54D49*
X494472Y194354D02*
D03*
Y196913D02*
D03*
Y199472D02*
D03*
Y202031D02*
D03*
Y204591D02*
D03*
G54D50*
X502000Y185232D02*
D03*
X527000D02*
D03*
G54D51*
X512039Y196649D02*
D03*
X516961D02*
D03*
G54D52*
X585386Y221000D02*
D03*
X580661Y221000D02*
D03*
G54D53*
X585386Y217961D02*
D03*
Y224039D02*
D03*
X580661Y217961D02*
D03*
Y224039D02*
D03*
G54D54*
X583524Y242500D02*
D03*
X576500Y184000D02*
D03*
X555366D02*
D03*
X566500D02*
D03*
X490500Y228000D02*
D03*
Y238000D02*
D03*
X509500Y182732D02*
D03*
X519500D02*
D03*
G54D55*
X573524Y242500D02*
D03*
G54D56*
X523748Y251000D02*
D03*
X538449D02*
D03*
X548449D02*
D03*
X558449D02*
D03*
M02*
