G04*
G04 #@! TF.GenerationSoftware,Altium Limited,Altium Designer,20.1.14 (287)*
G04*
G04 Layer_Color=32768*
%FSLAX25Y25*%
%MOIN*%
G70*
G04*
G04 #@! TF.SameCoordinates,2E25AB4E-2253-42FB-919D-FDFC0A88D39C*
G04*
G04*
G04 #@! TF.FilePolarity,Positive*
G04*
G01*
G75*
%ADD102C,0.00800*%
%ADD126C,0.00394*%
%ADD127C,0.00197*%
%ADD128C,0.00300*%
%ADD129C,0.00600*%
G54D102*
X-56424Y-25972D02*
X-52487D01*
Y-19279D01*
X-56424D02*
X-52487D01*
X-56424Y-25972D02*
Y-19279D01*
X-36924D02*
X-32987D01*
X-36924Y-25972D02*
Y-19279D01*
Y-25972D02*
X-32987D01*
Y-19279D01*
X-32329Y-7779D02*
X-28392D01*
X-32329Y-14472D02*
Y-7779D01*
Y-14472D02*
X-28392D01*
Y-7779D01*
X-39424D02*
X-35487D01*
X-39424Y-14472D02*
Y-7779D01*
Y-14472D02*
X-35487D01*
Y-7779D01*
X-36424Y2666D02*
X-32487D01*
Y9359D01*
X-36424D02*
X-32487D01*
X-36424Y2666D02*
Y9359D01*
X-39924Y2603D02*
X-35987D01*
Y9296D01*
X-39924D02*
X-35987D01*
X-39924Y2603D02*
Y9296D01*
X-48896Y6331D02*
Y10268D01*
X-55589D02*
X-48896D01*
X-55589Y6331D02*
Y10268D01*
Y6331D02*
X-48896D01*
X-26349Y1528D02*
X-22412D01*
Y8221D01*
X-26349D02*
X-22412D01*
X-26349Y1528D02*
Y8221D01*
X-29302Y-2125D02*
Y1812D01*
Y-2125D02*
X-22609D01*
Y1812D01*
X-29302D02*
X-22609D01*
X-184195Y21124D02*
Y32147D01*
X-189707Y21124D02*
X-184195D01*
X-189707Y32147D02*
X-184195D01*
X-189707Y21124D02*
Y32147D01*
X-164026Y-4724D02*
X-153003D01*
Y-10236D02*
Y-4724D01*
X-164026Y-10236D02*
Y-4724D01*
Y-10236D02*
X-153003D01*
X-160244Y-26194D02*
X-149220D01*
Y-31706D02*
Y-26194D01*
X-160244Y-31706D02*
Y-26194D01*
Y-31706D02*
X-149220D01*
X-195283Y-23635D02*
Y-12611D01*
X-189771D01*
X-195283Y-23635D02*
X-189771D01*
Y-12611D01*
X-185047Y-10052D02*
X-174023D01*
X-185047D02*
Y-4541D01*
X-174023Y-10052D02*
Y-4541D01*
X-185047D02*
X-174023D01*
X-182094Y-51391D02*
Y-40367D01*
X-176582D01*
X-182094Y-51391D02*
X-176582D01*
Y-40367D01*
X-178746Y-38969D02*
X-172054D01*
X-178746D02*
Y-35032D01*
X-172054D01*
Y-38969D02*
Y-35032D01*
X-176976Y-51391D02*
Y-40367D01*
X-171464D01*
X-176976Y-51391D02*
X-171464D01*
Y-40367D01*
X-110039Y30573D02*
X-99015D01*
X-110039D02*
Y36084D01*
X-99015Y30573D02*
Y36084D01*
X-110039D02*
X-99015D01*
X-134905Y-25997D02*
X-130968D01*
X-134905Y-32690D02*
Y-25997D01*
Y-32690D02*
X-130968D01*
Y-25997D01*
X-137590Y-33206D02*
Y-29269D01*
X-144282D02*
X-137590D01*
X-144282Y-33206D02*
Y-29269D01*
Y-33206D02*
X-137590D01*
Y-29737D02*
Y-25800D01*
X-144282D02*
X-137590D01*
X-144282Y-29737D02*
Y-25800D01*
Y-29737D02*
X-137590D01*
X-80657Y34021D02*
X-73964D01*
Y30084D02*
Y34021D01*
X-80657Y30084D02*
X-73964D01*
X-80657D02*
Y34021D01*
X-94488Y-32874D02*
X-90551D01*
Y-26181D01*
X-94488D02*
X-90551D01*
X-94488Y-32874D02*
Y-26181D01*
X-64932Y-483D02*
X-60995D01*
Y6210D01*
X-64932D02*
X-60995D01*
X-64932Y-483D02*
Y6210D01*
X-64184Y16899D02*
X-60247D01*
X-64184Y10206D02*
Y16899D01*
Y10206D02*
X-60247D01*
Y16899D01*
X-120322Y30619D02*
X-109299D01*
Y25108D02*
Y30619D01*
X-120322Y25108D02*
Y30619D01*
Y25108D02*
X-109299D01*
X-110964Y30084D02*
Y34021D01*
X-117657D02*
X-110964D01*
X-117657Y30084D02*
Y34021D01*
Y30084D02*
X-110964D01*
X-118279Y-12369D02*
X-114342D01*
Y-5676D01*
X-118279D02*
X-114342D01*
X-118279Y-12369D02*
Y-5676D01*
X-73822Y-14191D02*
X-62799D01*
Y-19703D02*
Y-14191D01*
X-73822Y-19703D02*
Y-14191D01*
Y-19703D02*
X-62799D01*
G54D126*
X-148792Y17581D02*
X-144854D01*
X-146823Y15612D02*
Y19549D01*
X-135958Y5290D02*
X-133793D01*
X-134875Y4207D02*
Y6372D01*
X-147119Y2311D02*
X-144954D01*
X-146037Y1228D02*
Y3393D01*
X-151232Y2152D02*
X-149067D01*
X-150150Y1069D02*
Y3235D01*
X-129594Y32892D02*
Y36829D01*
X-131562Y34861D02*
X-127625D01*
X-200401Y25553D02*
Y27718D01*
X-201484Y26636D02*
X-199319D01*
X-200426Y-21655D02*
X-198261D01*
X-199344Y-22738D02*
Y-20572D01*
X-195975Y29377D02*
Y31542D01*
X-197057Y30459D02*
X-194892D01*
X-156441Y-24285D02*
X-154276D01*
X-155358Y-25368D02*
Y-23203D01*
X-189533Y3230D02*
X-185596D01*
X-187564Y1261D02*
Y5198D01*
X-12048Y-1969D02*
Y1969D01*
X-14017Y0D02*
X-10080D01*
X-44786Y-24444D02*
Y-20507D01*
X-46754Y-22476D02*
X-42817D01*
X-47955Y-4094D02*
Y-157D01*
X-49924Y-2125D02*
X-45987D01*
X-39955Y9375D02*
Y11540D01*
X-41038Y10458D02*
X-38873D01*
X-31861Y-6302D02*
Y-4137D01*
X-32943Y-5220D02*
X-30778D01*
X-37538Y-3625D02*
X-35372D01*
X-36455Y-4708D02*
Y-2543D01*
X-31955Y-1239D02*
Y926D01*
X-33038Y-157D02*
X-30872D01*
X-190952Y29493D02*
Y31659D01*
X-192035Y30576D02*
X-189869D01*
X-155682Y-15171D02*
X-151745D01*
X-153713Y-17139D02*
Y-13202D01*
X-184850Y-25951D02*
X-180913D01*
X-182882Y-27919D02*
Y-23982D01*
X-166388Y-22442D02*
Y-18505D01*
X-168357Y-20473D02*
X-164420D01*
X-193494Y11357D02*
X-191329D01*
X-192411Y10274D02*
Y12440D01*
X-174437Y-32053D02*
X-172272D01*
X-173355Y-33136D02*
Y-30970D01*
X-181897Y-12808D02*
X-177961D01*
X-179929Y-14777D02*
Y-10840D01*
X-147791Y-13982D02*
Y-11817D01*
X-148873Y-12900D02*
X-146708D01*
X-147791Y-8133D02*
Y-5968D01*
X-148873Y-7051D02*
X-146708D01*
X-167077Y-37467D02*
X-163140D01*
X-165109Y-39435D02*
Y-35498D01*
X-153945Y-39435D02*
X-150008D01*
X-151976Y-41404D02*
Y-37467D01*
X-179244Y6486D02*
X-177078D01*
X-178161Y5403D02*
Y7568D01*
X-190952Y-41647D02*
Y-37710D01*
X-192921Y-39678D02*
X-188984D01*
X-199614Y-28163D02*
X-195677D01*
X-197645Y-30131D02*
Y-26194D01*
X-43307Y-15570D02*
Y-13405D01*
X-44390Y-14487D02*
X-42224D01*
X-135499Y-20643D02*
Y-16706D01*
X-137468Y-18675D02*
X-133531D01*
X-59303Y21025D02*
X-57138D01*
X-58220Y19943D02*
Y22108D01*
X-59303Y15120D02*
X-57138D01*
X-58220Y14037D02*
Y16203D01*
X-91732Y5816D02*
X-87795D01*
X-89763Y3848D02*
Y7785D01*
X-128552Y-1711D02*
Y455D01*
X-129634Y-628D02*
X-127469D01*
X-128552Y1790D02*
Y3955D01*
X-129634Y2872D02*
X-127469D01*
X-128552Y5289D02*
Y7455D01*
X-129634Y6372D02*
X-127469D01*
X-81077Y-27384D02*
X-78912D01*
X-79994Y-28467D02*
Y-26302D01*
X-82042Y-35526D02*
X-78105D01*
X-80073Y-37494D02*
Y-33557D01*
G54D127*
X-157945Y6459D02*
Y28703D01*
X-135701Y6459D02*
Y28703D01*
X-157945D02*
X-135701D01*
X-157945Y6459D02*
X-135701D01*
X-137828Y3715D02*
Y6864D01*
X-131923Y3715D02*
Y6864D01*
X-137828D02*
X-131923D01*
X-137828Y3715D02*
X-131923D01*
X-144462Y-642D02*
Y5263D01*
X-147612Y-642D02*
Y5263D01*
X-144462D01*
X-147612Y-642D02*
X-144462D01*
X-148575Y-801D02*
Y5105D01*
X-151724Y-801D02*
Y5105D01*
X-148575D01*
X-151724Y-801D02*
X-148575D01*
X-136483Y28365D02*
X-122704D01*
X-136483Y41357D02*
X-122704D01*
Y28365D02*
Y41357D01*
X-136483Y28365D02*
Y41357D01*
X-201976Y29588D02*
X-198827D01*
X-201976Y23683D02*
X-198827D01*
Y29588D01*
X-201976Y23683D02*
Y29588D01*
X-202296Y-23230D02*
Y-20080D01*
X-196391Y-23230D02*
Y-20080D01*
X-202296D02*
X-196391D01*
X-202296Y-23230D02*
X-196391D01*
X-197549Y33412D02*
X-194400D01*
X-197549Y27507D02*
X-194400D01*
Y33412D01*
X-197549Y27507D02*
Y33412D01*
X-152406Y-25860D02*
Y-22711D01*
X-158311Y-25860D02*
Y-22711D01*
Y-25860D02*
X-152406D01*
X-158311Y-22711D02*
X-152406D01*
X-194848Y-3266D02*
Y9726D01*
X-180281Y-3266D02*
Y9726D01*
X-194848D02*
X-180281D01*
X-194848Y-3266D02*
X-180281D01*
X-54235Y-14995D02*
X-35337D01*
X-54235Y-29956D02*
X-35337D01*
X-54235D02*
Y-14995D01*
X-35337Y-29956D02*
Y-14995D01*
X-57109Y-11279D02*
X-38802D01*
X-57109Y7028D02*
X-38802D01*
Y-11279D02*
Y7028D01*
X-57109Y-11279D02*
Y7028D01*
X-42908Y12032D02*
X-37002D01*
X-42908Y8883D02*
X-37002D01*
X-42908D02*
Y12032D01*
X-37002Y8883D02*
Y12032D01*
X-34813Y-6795D02*
X-28908D01*
X-34813Y-3645D02*
X-28908D01*
Y-6795D02*
Y-3645D01*
X-34813Y-6795D02*
Y-3645D01*
X-34880Y-6578D02*
Y-672D01*
X-38030Y-6578D02*
Y-672D01*
X-34880D01*
X-38030Y-6578D02*
X-34880D01*
X-34908Y-1732D02*
X-29002D01*
X-34908Y1418D02*
X-29002D01*
Y-1732D02*
Y1418D01*
X-34908Y-1732D02*
Y1418D01*
X-192527Y33529D02*
X-189377D01*
X-192527Y27623D02*
X-189377D01*
Y33529D01*
X-192527Y27623D02*
Y33529D01*
X-156863Y-21273D02*
Y-9068D01*
X-150564Y-21273D02*
Y-9068D01*
X-156863Y-21273D02*
X-150564D01*
X-156863Y-9068D02*
X-150564D01*
X-189968Y-35026D02*
Y-16876D01*
X-175795Y-35026D02*
Y-16876D01*
X-189968Y-35026D02*
X-175795D01*
X-189968Y-16876D02*
X-175795D01*
X-173475Y-29548D02*
X-159302D01*
X-173475Y-11398D02*
X-159302D01*
X-173475Y-29548D02*
Y-11398D01*
X-159302Y-29548D02*
Y-11398D01*
X-189459Y9782D02*
Y12932D01*
X-195364Y9782D02*
Y12932D01*
Y9782D02*
X-189459D01*
X-195364Y12932D02*
X-189459D01*
X-174930Y-35006D02*
Y-29100D01*
X-171780Y-35006D02*
Y-29100D01*
X-174930Y-35006D02*
X-171780D01*
X-174930Y-29100D02*
X-171780D01*
X-186031Y-15958D02*
Y-9659D01*
X-173827Y-15958D02*
Y-9659D01*
X-186031D02*
X-173827D01*
X-186031Y-15958D02*
X-173827D01*
X-149366Y-15853D02*
X-146216D01*
X-149366Y-9947D02*
X-146216D01*
X-149366Y-15853D02*
Y-9947D01*
X-146216Y-15853D02*
Y-9947D01*
X-149366Y-10003D02*
X-146216D01*
X-149366Y-4098D02*
X-146216D01*
X-149366Y-10003D02*
Y-4098D01*
X-146216Y-10003D02*
Y-4098D01*
X-157806Y-43963D02*
Y-30971D01*
X-172412Y-43963D02*
Y-30971D01*
Y-43963D02*
X-157806D01*
X-172412Y-30971D02*
X-157806D01*
X-157685Y-47112D02*
Y-31758D01*
X-146268Y-47112D02*
Y-31758D01*
X-157685Y-47112D02*
X-146268D01*
X-157685Y-31758D02*
X-146268D01*
X-179736Y3533D02*
Y9438D01*
X-176586Y3533D02*
Y9438D01*
X-179736Y3533D02*
X-176586D01*
X-179736Y9438D02*
X-176586D01*
X-197448Y-46568D02*
X-184456D01*
X-197448Y-32789D02*
X-184456D01*
X-197448Y-46568D02*
Y-32789D01*
X-184456Y-46568D02*
Y-32789D01*
X-203354Y-32887D02*
Y-23438D01*
X-191937Y-32887D02*
Y-23438D01*
X-203354D02*
X-191937D01*
X-203354Y-32887D02*
X-191937D01*
X-46260Y-12912D02*
X-40354D01*
X-46260Y-16062D02*
X-40354D01*
X-46260D02*
Y-12912D01*
X-40354Y-16062D02*
Y-12912D01*
X-143767Y-26942D02*
X-127231D01*
X-143767Y-10407D02*
X-127231D01*
Y-26942D02*
Y-10407D01*
X-143767Y-26942D02*
Y-10407D01*
X-59795Y18073D02*
Y23978D01*
X-56646Y18073D02*
Y23978D01*
X-59795Y18073D02*
X-56646D01*
X-59795Y23978D02*
X-56646D01*
X-59795Y12167D02*
Y18073D01*
X-56646Y12167D02*
Y18073D01*
X-59795Y12167D02*
X-56646D01*
X-59795Y18073D02*
X-56646D01*
X-64960Y-18987D02*
Y30619D01*
X-114566Y-18987D02*
Y30619D01*
Y-18987D02*
X-64960D01*
X-114566Y30619D02*
X-64960D01*
X-131504Y947D02*
X-125599D01*
X-131504Y-2203D02*
X-125599D01*
X-131504D02*
Y947D01*
X-125599Y-2203D02*
Y947D01*
X-131504Y4447D02*
X-125599D01*
X-131504Y1297D02*
X-125599D01*
X-131504D02*
Y4447D01*
X-125599Y1297D02*
Y4447D01*
X-131504Y7947D02*
X-125599D01*
X-131504Y4797D02*
X-125599D01*
X-131504D02*
Y7947D01*
X-125599Y4797D02*
Y7947D01*
X-77042Y-28959D02*
Y-25809D01*
X-82947Y-28959D02*
Y-25809D01*
X-77042D01*
X-82947Y-28959D02*
X-77042D01*
X-90310Y-48715D02*
Y-22336D01*
X-69837Y-48715D02*
Y-22336D01*
X-90310Y-48715D02*
X-69837D01*
X-90310Y-22336D02*
X-69837D01*
G54D128*
X-54751Y-24515D02*
X-54967Y-24731D01*
Y-25164D01*
X-54751Y-25381D01*
X-53884D01*
X-53668Y-25164D01*
Y-24731D01*
X-53884Y-24515D01*
X-53668Y-24081D02*
Y-23648D01*
Y-23865D01*
X-54967D01*
X-54751Y-24081D01*
X-54967Y-22132D02*
X-54751Y-22565D01*
X-54317Y-22998D01*
X-53884D01*
X-53668Y-22782D01*
Y-22349D01*
X-53884Y-22132D01*
X-54101D01*
X-54317Y-22349D01*
Y-22998D01*
X-34660Y-20736D02*
X-34443Y-20519D01*
Y-20086D01*
X-34660Y-19869D01*
X-35526D01*
X-35743Y-20086D01*
Y-20519D01*
X-35526Y-20736D01*
X-35743Y-21169D02*
Y-21602D01*
Y-21385D01*
X-34443D01*
X-34660Y-21169D01*
X-34443Y-23118D02*
Y-22252D01*
X-35093D01*
X-34876Y-22685D01*
Y-22902D01*
X-35093Y-23118D01*
X-35526D01*
X-35743Y-22902D01*
Y-22468D01*
X-35526Y-22252D01*
X-30065Y-9236D02*
X-29849Y-9019D01*
Y-8586D01*
X-30065Y-8369D01*
X-30931D01*
X-31148Y-8586D01*
Y-9019D01*
X-30931Y-9236D01*
X-31148Y-9669D02*
Y-10102D01*
Y-9885D01*
X-29849D01*
X-30065Y-9669D01*
X-31148Y-11402D02*
X-29849D01*
X-30498Y-10752D01*
Y-11618D01*
X-37160Y-9236D02*
X-36943Y-9019D01*
Y-8586D01*
X-37160Y-8369D01*
X-38026D01*
X-38243Y-8586D01*
Y-9019D01*
X-38026Y-9236D01*
X-38243Y-9669D02*
Y-10102D01*
Y-9885D01*
X-36943D01*
X-37160Y-9669D01*
Y-10752D02*
X-36943Y-10968D01*
Y-11402D01*
X-37160Y-11618D01*
X-37376D01*
X-37593Y-11402D01*
Y-11185D01*
Y-11402D01*
X-37809Y-11618D01*
X-38026D01*
X-38243Y-11402D01*
Y-10968D01*
X-38026Y-10752D01*
X-34751Y4123D02*
X-34967Y3906D01*
Y3473D01*
X-34751Y3257D01*
X-33884D01*
X-33668Y3473D01*
Y3906D01*
X-33884Y4123D01*
X-33668Y4556D02*
Y4989D01*
Y4773D01*
X-34967D01*
X-34751Y4556D01*
X-33668Y6506D02*
Y5639D01*
X-34534Y6506D01*
X-34751D01*
X-34967Y6289D01*
Y5856D01*
X-34751Y5639D01*
X-38251Y4060D02*
X-38467Y3844D01*
Y3410D01*
X-38251Y3194D01*
X-37384D01*
X-37168Y3410D01*
Y3844D01*
X-37384Y4060D01*
X-37168Y4493D02*
Y4927D01*
Y4710D01*
X-38467D01*
X-38251Y4493D01*
X-37168Y5576D02*
Y6010D01*
Y5793D01*
X-38467D01*
X-38251Y5576D01*
X-50353Y8004D02*
X-50136Y7788D01*
X-49703D01*
X-49487Y8004D01*
Y8871D01*
X-49703Y9087D01*
X-50136D01*
X-50353Y8871D01*
X-50786Y9087D02*
X-51219D01*
X-51003D01*
Y7788D01*
X-50786Y8004D01*
X-51869D02*
X-52086Y7788D01*
X-52519D01*
X-52736Y8004D01*
Y8871D01*
X-52519Y9087D01*
X-52086D01*
X-51869Y8871D01*
Y8004D01*
X-24676Y2985D02*
X-24893Y2769D01*
Y2335D01*
X-24676Y2119D01*
X-23810D01*
X-23593Y2335D01*
Y2769D01*
X-23810Y2985D01*
Y3418D02*
X-23593Y3635D01*
Y4068D01*
X-23810Y4285D01*
X-24676D01*
X-24893Y4068D01*
Y3635D01*
X-24676Y3418D01*
X-24459D01*
X-24243Y3635D01*
Y4285D01*
X-27845Y139D02*
X-28061Y356D01*
X-28495D01*
X-28711Y139D01*
Y-728D01*
X-28495Y-944D01*
X-28061D01*
X-27845Y-728D01*
X-27411Y139D02*
X-27195Y356D01*
X-26762D01*
X-26545Y139D01*
Y-78D01*
X-26762Y-294D01*
X-26545Y-511D01*
Y-728D01*
X-26762Y-944D01*
X-27195D01*
X-27411Y-728D01*
Y-511D01*
X-27195Y-294D01*
X-27411Y-78D01*
Y139D01*
X-27195Y-294D02*
X-26762D01*
X-173511Y-37296D02*
X-173294Y-37512D01*
X-172861D01*
X-172644Y-37296D01*
Y-36429D01*
X-172861Y-36213D01*
X-173294D01*
X-173511Y-36429D01*
X-174810Y-36213D02*
X-173944D01*
X-174810Y-37079D01*
Y-37296D01*
X-174593Y-37512D01*
X-174160D01*
X-173944Y-37296D01*
X-175243D02*
X-175460Y-37512D01*
X-175893D01*
X-176110Y-37296D01*
Y-37079D01*
X-175893Y-36862D01*
X-176110Y-36646D01*
Y-36429D01*
X-175893Y-36213D01*
X-175460D01*
X-175243Y-36429D01*
Y-36646D01*
X-175460Y-36862D01*
X-175243Y-37079D01*
Y-37296D01*
X-175460Y-36862D02*
X-175893D01*
X-132641Y-27454D02*
X-132424Y-27238D01*
Y-26805D01*
X-132641Y-26588D01*
X-133507D01*
X-133723Y-26805D01*
Y-27238D01*
X-133507Y-27454D01*
X-133723Y-28754D02*
Y-27887D01*
X-132857Y-28754D01*
X-132641D01*
X-132424Y-28537D01*
Y-28104D01*
X-132641Y-27887D01*
X-133723Y-29837D02*
X-132424D01*
X-133074Y-29187D01*
Y-30053D01*
X-139047Y-31533D02*
X-138830Y-31750D01*
X-138397D01*
X-138180Y-31533D01*
Y-30667D01*
X-138397Y-30450D01*
X-138830D01*
X-139047Y-30667D01*
X-140346Y-30450D02*
X-139480D01*
X-140346Y-31317D01*
Y-31533D01*
X-140129Y-31750D01*
X-139696D01*
X-139480Y-31533D01*
X-140779D02*
X-140996Y-31750D01*
X-141429D01*
X-141646Y-31533D01*
Y-31317D01*
X-141429Y-31100D01*
X-141212D01*
X-141429D01*
X-141646Y-30883D01*
Y-30667D01*
X-141429Y-30450D01*
X-140996D01*
X-140779Y-30667D01*
X-139047Y-28065D02*
X-138830Y-28281D01*
X-138397D01*
X-138180Y-28065D01*
Y-27198D01*
X-138397Y-26982D01*
X-138830D01*
X-139047Y-27198D01*
X-140346Y-26982D02*
X-139480D01*
X-140346Y-27848D01*
Y-28065D01*
X-140129Y-28281D01*
X-139696D01*
X-139480Y-28065D01*
X-141646Y-26982D02*
X-140779D01*
X-141646Y-27848D01*
Y-28065D01*
X-141429Y-28281D01*
X-140996D01*
X-140779Y-28065D01*
X-79200Y32348D02*
X-79417Y32565D01*
X-79850D01*
X-80066Y32348D01*
Y31482D01*
X-79850Y31265D01*
X-79417D01*
X-79200Y31482D01*
X-77900Y31265D02*
X-78767D01*
X-77900Y32131D01*
Y32348D01*
X-78117Y32565D01*
X-78550D01*
X-78767Y32348D01*
X-76601Y32565D02*
X-77034Y32348D01*
X-77467Y31915D01*
Y31482D01*
X-77251Y31265D01*
X-76817D01*
X-76601Y31482D01*
Y31698D01*
X-76817Y31915D01*
X-77467D01*
X-92815Y-31417D02*
X-93032Y-31634D01*
Y-32067D01*
X-92815Y-32283D01*
X-91949D01*
X-91732Y-32067D01*
Y-31634D01*
X-91949Y-31417D01*
X-93032Y-30117D02*
Y-30984D01*
X-92382D01*
X-92599Y-30551D01*
Y-30334D01*
X-92382Y-30117D01*
X-91949D01*
X-91732Y-30334D01*
Y-30767D01*
X-91949Y-30984D01*
X-63260Y974D02*
X-63476Y758D01*
Y324D01*
X-63260Y108D01*
X-62393D01*
X-62177Y324D01*
Y758D01*
X-62393Y974D01*
X-62177Y1407D02*
Y1840D01*
Y1624D01*
X-63476D01*
X-63260Y1407D01*
X-61920Y15442D02*
X-61704Y15659D01*
Y16092D01*
X-61920Y16308D01*
X-62787D01*
X-63003Y16092D01*
Y15659D01*
X-62787Y15442D01*
X-63003Y14142D02*
Y15009D01*
X-62137Y14142D01*
X-61920D01*
X-61704Y14359D01*
Y14792D01*
X-61920Y15009D01*
X-61704Y12843D02*
Y13709D01*
X-62354D01*
X-62137Y13276D01*
Y13059D01*
X-62354Y12843D01*
X-62787D01*
X-63003Y13059D01*
Y13493D01*
X-62787Y13709D01*
X-112421Y31757D02*
X-112204Y31540D01*
X-111771D01*
X-111555Y31757D01*
Y32623D01*
X-111771Y32840D01*
X-112204D01*
X-112421Y32623D01*
X-112854Y31540D02*
X-113721D01*
Y31757D01*
X-112854Y32623D01*
Y32840D01*
X-116606Y-10912D02*
X-116823Y-11128D01*
Y-11562D01*
X-116606Y-11778D01*
X-115740D01*
X-115523Y-11562D01*
Y-11128D01*
X-115740Y-10912D01*
X-116823Y-9612D02*
X-116606Y-10045D01*
X-116173Y-10479D01*
X-115740D01*
X-115523Y-10262D01*
Y-9829D01*
X-115740Y-9612D01*
X-115956D01*
X-116173Y-9829D01*
Y-10479D01*
G54D129*
X-186443Y29694D02*
X-186027Y30110D01*
Y30944D01*
X-186443Y31360D01*
X-188110D01*
X-188526Y30944D01*
Y30110D01*
X-188110Y29694D01*
X-188526Y27195D02*
Y28861D01*
X-186860Y27195D01*
X-186443D01*
X-186027Y27611D01*
Y28444D01*
X-186443Y28861D01*
X-188110Y26362D02*
X-188526Y25945D01*
Y25112D01*
X-188110Y24696D01*
X-186443D01*
X-186027Y25112D01*
Y25945D01*
X-186443Y26362D01*
X-186860D01*
X-187276Y25945D01*
Y24696D01*
X-161573Y-6972D02*
X-161989Y-6556D01*
X-162822D01*
X-163239Y-6972D01*
Y-8639D01*
X-162822Y-9055D01*
X-161989D01*
X-161573Y-8639D01*
X-159073Y-9055D02*
X-160740D01*
X-159073Y-7389D01*
Y-6972D01*
X-159490Y-6556D01*
X-160323D01*
X-160740Y-6972D01*
X-158240D02*
X-157824Y-6556D01*
X-156991D01*
X-156574Y-6972D01*
Y-8639D01*
X-156991Y-9055D01*
X-157824D01*
X-158240Y-8639D01*
Y-6972D01*
X-151674Y-29458D02*
X-151257Y-29875D01*
X-150424D01*
X-150008Y-29458D01*
Y-27792D01*
X-150424Y-27375D01*
X-151257D01*
X-151674Y-27792D01*
X-154173Y-27375D02*
X-152507D01*
X-154173Y-29041D01*
Y-29458D01*
X-153756Y-29875D01*
X-152924D01*
X-152507Y-29458D01*
X-155006Y-29875D02*
X-156672D01*
Y-29458D01*
X-155006Y-27792D01*
Y-27375D01*
X-192020Y-15065D02*
X-191603Y-14649D01*
Y-13815D01*
X-192020Y-13399D01*
X-193686D01*
X-194102Y-13815D01*
Y-14649D01*
X-193686Y-15065D01*
X-194102Y-17564D02*
Y-15898D01*
X-192436Y-17564D01*
X-192020D01*
X-191603Y-17148D01*
Y-16315D01*
X-192020Y-15898D01*
X-194102Y-18397D02*
Y-19230D01*
Y-18814D01*
X-191603D01*
X-192020Y-18397D01*
X-176477Y-7804D02*
X-176060Y-8221D01*
X-175227D01*
X-174811Y-7804D01*
Y-6138D01*
X-175227Y-5722D01*
X-176060D01*
X-176477Y-6138D01*
X-177310Y-5722D02*
X-178143D01*
X-177727D01*
Y-8221D01*
X-177310Y-7804D01*
X-179393D02*
X-179809Y-8221D01*
X-180642D01*
X-181059Y-7804D01*
Y-7388D01*
X-180642Y-6971D01*
X-181059Y-6555D01*
Y-6138D01*
X-180642Y-5722D01*
X-179809D01*
X-179393Y-6138D01*
Y-6555D01*
X-179809Y-6971D01*
X-179393Y-7388D01*
Y-7804D01*
X-179809Y-6971D02*
X-180642D01*
X-179846Y-48937D02*
X-180262Y-49354D01*
Y-50187D01*
X-179846Y-50604D01*
X-178180D01*
X-177763Y-50187D01*
Y-49354D01*
X-178180Y-48937D01*
X-177763Y-48104D02*
Y-47271D01*
Y-47688D01*
X-180262D01*
X-179846Y-48104D01*
X-178180Y-46022D02*
X-177763Y-45605D01*
Y-44772D01*
X-178180Y-44356D01*
X-179846D01*
X-180262Y-44772D01*
Y-45605D01*
X-179846Y-46022D01*
X-179429D01*
X-179013Y-45605D01*
Y-44356D01*
X-174728Y-48937D02*
X-175144Y-49354D01*
Y-50187D01*
X-174728Y-50604D01*
X-173062D01*
X-172645Y-50187D01*
Y-49354D01*
X-173062Y-48937D01*
X-172645Y-48104D02*
Y-47271D01*
Y-47688D01*
X-175144D01*
X-174728Y-48104D01*
X-175144Y-46022D02*
Y-44356D01*
X-174728D01*
X-173062Y-46022D01*
X-172645D01*
X-107585Y33836D02*
X-108002Y34253D01*
X-108835D01*
X-109251Y33836D01*
Y32170D01*
X-108835Y31754D01*
X-108002D01*
X-107585Y32170D01*
X-105086Y31754D02*
X-106752D01*
X-105086Y33420D01*
Y33836D01*
X-105503Y34253D01*
X-106336D01*
X-106752Y33836D01*
X-117869Y28371D02*
X-118285Y28788D01*
X-119118D01*
X-119535Y28371D01*
Y26705D01*
X-119118Y26289D01*
X-118285D01*
X-117869Y26705D01*
X-117036Y28371D02*
X-116619Y28788D01*
X-115786D01*
X-115369Y28371D01*
Y27955D01*
X-115786Y27538D01*
X-116203D01*
X-115786D01*
X-115369Y27122D01*
Y26705D01*
X-115786Y26289D01*
X-116619D01*
X-117036Y26705D01*
X-65252Y-17455D02*
X-64836Y-17872D01*
X-64003D01*
X-63586Y-17455D01*
Y-15789D01*
X-64003Y-15373D01*
X-64836D01*
X-65252Y-15789D01*
X-67335Y-15373D02*
Y-17872D01*
X-66085Y-16622D01*
X-67751D01*
M02*
