G04*
G04 #@! TF.GenerationSoftware,Altium Limited,Altium Designer,20.1.14 (287)*
G04*
G04 Layer_Color=32896*
%FSLAX25Y25*%
%MOIN*%
G70*
G04*
G04 #@! TF.SameCoordinates,2E25AB4E-2253-42FB-919D-FDFC0A88D39C*
G04*
G04*
G04 #@! TF.FilePolarity,Positive*
G04*
G01*
G75*
%ADD102C,0.00800*%
%ADD126C,0.00394*%
G54D102*
X-189707Y21124D02*
X-184195D01*
Y32147D01*
X-189707Y21124D02*
Y32147D01*
X-184195D01*
X-153003Y-10236D02*
Y-4724D01*
X-164026D02*
X-153003D01*
X-164026Y-10236D02*
X-153003D01*
X-164026D02*
Y-4724D01*
X-149220Y-31706D02*
Y-26194D01*
X-160244D02*
X-149220D01*
X-160244Y-31706D02*
X-149220D01*
X-160244D02*
Y-26194D01*
X-195283Y-12611D02*
X-189771D01*
X-195283Y-23635D02*
Y-12611D01*
X-189771Y-23635D02*
Y-12611D01*
X-195283Y-23635D02*
X-189771D01*
X-185047Y-10052D02*
Y-4541D01*
Y-10052D02*
X-174023D01*
X-185047Y-4541D02*
X-174023D01*
Y-10052D02*
Y-4541D01*
X-182094Y-40367D02*
X-176582D01*
X-182094Y-51391D02*
Y-40367D01*
X-176582Y-51391D02*
Y-40367D01*
X-182094Y-51391D02*
X-176582D01*
X-176976Y-40367D02*
X-171464D01*
X-176976Y-51391D02*
Y-40367D01*
X-171464Y-51391D02*
Y-40367D01*
X-176976Y-51391D02*
X-171464D01*
X-110039Y30573D02*
Y36084D01*
Y30573D02*
X-99015D01*
X-110039Y36084D02*
X-99015D01*
Y30573D02*
Y36084D01*
X-109299Y25108D02*
Y30619D01*
X-120322D02*
X-109299D01*
X-120322Y25108D02*
X-109299D01*
X-120322D02*
Y30619D01*
X-62799Y-19703D02*
Y-14191D01*
X-73822D02*
X-62799D01*
X-73822Y-19703D02*
X-62799D01*
X-73822D02*
Y-14191D01*
G54D126*
X-54455Y-23625D02*
Y-21625D01*
X-55455Y-22625D02*
X-53455D01*
X-34955Y-23625D02*
Y-21625D01*
X-35955Y-22625D02*
X-33955D01*
X-30361Y-12125D02*
Y-10125D01*
X-31361Y-11125D02*
X-29361D01*
X-37455Y-12125D02*
Y-10125D01*
X-38455Y-11125D02*
X-36455D01*
X-34455Y5013D02*
Y7013D01*
X-35455Y6013D02*
X-33455D01*
X-37955Y4950D02*
Y6950D01*
X-38955Y5950D02*
X-36955D01*
X-53242Y8300D02*
X-51242D01*
X-52242Y7300D02*
Y9300D01*
X-24380Y3875D02*
Y5875D01*
X-25380Y4875D02*
X-23380D01*
X-26955Y-157D02*
X-24955D01*
X-25955Y-1157D02*
Y843D01*
X-188451Y26636D02*
X-185451D01*
X-186951Y25136D02*
Y28136D01*
X-158514Y-8980D02*
Y-5980D01*
X-160014Y-7480D02*
X-157014D01*
X-156232Y-28950D02*
X-153232D01*
X-154732Y-30450D02*
Y-27450D01*
X-192527Y-19623D02*
Y-16623D01*
X-194027Y-18123D02*
X-191027D01*
X-179535Y-8796D02*
Y-5796D01*
X-181035Y-7297D02*
X-178035D01*
X-180838Y-45879D02*
X-177838D01*
X-179338Y-47379D02*
Y-44379D01*
X-175400Y-38000D02*
Y-36000D01*
X-176400Y-37000D02*
X-174400D01*
X-175720Y-45879D02*
X-172720D01*
X-174220Y-47379D02*
Y-44379D01*
X-106027Y33329D02*
X-103027D01*
X-104527Y31829D02*
Y34829D01*
X-132936Y-30344D02*
Y-28344D01*
X-133936Y-29344D02*
X-131936D01*
X-141936Y-31238D02*
X-139936D01*
X-140936Y-32237D02*
Y-30237D01*
X-141936Y-27769D02*
X-139936D01*
X-140936Y-28769D02*
Y-26769D01*
X-77311Y31053D02*
Y33053D01*
X-78311Y32053D02*
X-76310D01*
X-92520Y-30528D02*
Y-28528D01*
X-93520Y-29528D02*
X-91520D01*
X-62964Y1864D02*
Y3864D01*
X-63964Y2864D02*
X-61964D01*
X-62216Y12552D02*
Y14552D01*
X-63216Y13553D02*
X-61216D01*
X-114810Y26364D02*
Y29364D01*
X-116310Y27864D02*
X-113310D01*
X-115310Y32053D02*
X-113310D01*
X-114310Y31053D02*
Y33053D01*
X-116310Y-10022D02*
Y-8022D01*
X-117310Y-9022D02*
X-115310D01*
X-69810Y-16948D02*
X-66811D01*
X-68310Y-18448D02*
Y-15448D01*
M02*
