G04*
G04 #@! TF.GenerationSoftware,Altium Limited,Altium Designer,20.1.14 (287)*
G04*
G04 Layer_Color=255*
%FSLAX25Y25*%
%MOIN*%
G70*
G04*
G04 #@! TF.SameCoordinates,B4ACC901-58E3-418A-A1C3-F6E1E6CBF67F*
G04*
G04*
G04 #@! TF.FilePolarity,Positive*
G04*
G01*
G75*
%ADD15O,0.03347X0.00984*%
%ADD16O,0.00984X0.03347*%
%ADD17R,0.12323X0.12323*%
%ADD18R,0.01968X0.01772*%
%ADD19R,0.01772X0.01968*%
%ADD20R,0.03150X0.03150*%
%ADD21R,0.03150X0.02165*%
%ADD22R,0.03150X0.03150*%
%ADD23R,0.05512X0.03937*%
%ADD24R,0.03347X0.02165*%
%ADD25R,0.16000X0.06000*%
%ADD26R,0.05512X0.04724*%
%ADD27R,0.10236X0.10236*%
%ADD28O,0.00984X0.02953*%
%ADD29O,0.02953X0.00984*%
%ADD30R,0.01929X0.02047*%
%ADD31R,0.02047X0.01929*%
%ADD32R,0.01968X0.01575*%
%ADD33R,0.01575X0.01968*%
%ADD34R,0.03150X0.03150*%
%ADD35R,0.03150X0.03150*%
%ADD36R,0.01378X0.02953*%
%ADD37R,0.01181X0.03347*%
%ADD38R,0.02953X0.01378*%
G04:AMPARAMS|DCode=39|XSize=9.45mil|YSize=23.62mil|CornerRadius=2.36mil|HoleSize=0mil|Usage=FLASHONLY|Rotation=270.000|XOffset=0mil|YOffset=0mil|HoleType=Round|Shape=RoundedRectangle|*
%AMROUNDEDRECTD39*
21,1,0.00945,0.01890,0,0,270.0*
21,1,0.00472,0.02362,0,0,270.0*
1,1,0.00472,-0.00945,-0.00236*
1,1,0.00472,-0.00945,0.00236*
1,1,0.00472,0.00945,0.00236*
1,1,0.00472,0.00945,-0.00236*
%
%ADD39ROUNDEDRECTD39*%
%ADD40R,0.05866X0.09449*%
G04:AMPARAMS|DCode=41|XSize=9.84mil|YSize=31.5mil|CornerRadius=2.46mil|HoleSize=0mil|Usage=FLASHONLY|Rotation=0.000|XOffset=0mil|YOffset=0mil|HoleType=Round|Shape=RoundedRectangle|*
%AMROUNDEDRECTD41*
21,1,0.00984,0.02657,0,0,0.0*
21,1,0.00492,0.03150,0,0,0.0*
1,1,0.00492,0.00246,-0.01329*
1,1,0.00492,-0.00246,-0.01329*
1,1,0.00492,-0.00246,0.01329*
1,1,0.00492,0.00246,0.01329*
%
%ADD41ROUNDEDRECTD41*%
%ADD42R,0.10315X0.04291*%
%ADD43R,0.02165X0.02953*%
%ADD44R,0.02559X0.01575*%
%ADD45O,0.04724X0.00984*%
%ADD46O,0.00984X0.04724*%
%ADD47R,0.06063X0.06693*%
%ADD48O,0.00787X0.02362*%
%ADD49O,0.02362X0.00787*%
%ADD50R,0.03268X0.01457*%
%ADD51R,0.03268X0.02638*%
%ADD52O,0.02165X0.04921*%
%ADD105O,0.06299X0.03543*%
%ADD106O,0.07874X0.03543*%
%ADD107C,0.04724*%
%ADD108R,0.04724X0.04724*%
G54D15*
X-155878Y23486D02*
D03*
Y21518D02*
D03*
Y19549D02*
D03*
Y17581D02*
D03*
Y15612D02*
D03*
Y13644D02*
D03*
Y11675D02*
D03*
X-137768D02*
D03*
Y13644D02*
D03*
Y15612D02*
D03*
Y17581D02*
D03*
Y19549D02*
D03*
Y21518D02*
D03*
Y23486D02*
D03*
G54D16*
X-152728Y8525D02*
D03*
X-150760D02*
D03*
X-148792D02*
D03*
X-146823D02*
D03*
X-144854D02*
D03*
X-142886D02*
D03*
X-140917D02*
D03*
Y26636D02*
D03*
X-142886D02*
D03*
X-144854D02*
D03*
X-146823D02*
D03*
X-148792D02*
D03*
X-150760D02*
D03*
X-152728D02*
D03*
G54D17*
X-146823Y17581D02*
D03*
G54D18*
X-136352Y5290D02*
D03*
X-133399D02*
D03*
X-200820Y-21655D02*
D03*
X-197867D02*
D03*
X-153882Y-24285D02*
D03*
X-156835D02*
D03*
X-41431Y10458D02*
D03*
X-38479D02*
D03*
X-190935Y11357D02*
D03*
X-193888D02*
D03*
X-44783Y-14487D02*
D03*
X-41831D02*
D03*
X-130028Y-628D02*
D03*
X-127075D02*
D03*
X-130028Y2872D02*
D03*
X-127075D02*
D03*
X-130028Y6372D02*
D03*
X-127075D02*
D03*
G54D19*
X-146037Y3787D02*
D03*
Y834D02*
D03*
X-150150Y3628D02*
D03*
Y675D02*
D03*
X-200401Y28112D02*
D03*
Y25159D02*
D03*
X-195975Y31936D02*
D03*
Y28983D02*
D03*
X-190952Y32053D02*
D03*
Y29100D02*
D03*
X-173355Y-33530D02*
D03*
Y-30577D02*
D03*
X-147791Y-14376D02*
D03*
Y-11423D02*
D03*
Y-8527D02*
D03*
Y-5574D02*
D03*
X-178161Y5009D02*
D03*
Y7962D02*
D03*
X-58220Y19549D02*
D03*
Y22502D02*
D03*
Y13644D02*
D03*
Y16596D02*
D03*
G54D20*
X-136352Y462D02*
D03*
X-142258D02*
D03*
X-186951Y12216D02*
D03*
X-181045D02*
D03*
G54D21*
X-124574Y38601D02*
D03*
Y31121D02*
D03*
X-134613D02*
D03*
Y34861D02*
D03*
Y38601D02*
D03*
G54D22*
X-200401Y37767D02*
D03*
Y31861D02*
D03*
G54D23*
X-180125Y36815D02*
D03*
Y42524D02*
D03*
X-194299D02*
D03*
Y36815D02*
D03*
G54D24*
X-192781Y6970D02*
D03*
Y3230D02*
D03*
Y-510D02*
D03*
X-182348D02*
D03*
Y6970D02*
D03*
G54D25*
X-12048Y0D02*
D03*
Y-10000D02*
D03*
Y10000D02*
D03*
G54D26*
X-49117Y-25625D02*
D03*
Y-19326D02*
D03*
X-40455Y-25625D02*
D03*
Y-19326D02*
D03*
G54D27*
X-47955Y-2125D02*
D03*
G54D28*
X-51892Y5158D02*
D03*
X-49924D02*
D03*
X-47955D02*
D03*
X-45987D02*
D03*
X-44018D02*
D03*
Y-9409D02*
D03*
X-45987D02*
D03*
X-47955D02*
D03*
X-49924D02*
D03*
X-51892D02*
D03*
G54D29*
X-40672Y1812D02*
D03*
Y-157D02*
D03*
Y-2125D02*
D03*
Y-4094D02*
D03*
Y-6062D02*
D03*
X-55239D02*
D03*
Y-4094D02*
D03*
Y-2125D02*
D03*
Y-157D02*
D03*
Y1812D02*
D03*
G54D30*
X-30266Y-5220D02*
D03*
X-33455D02*
D03*
X-30361Y-157D02*
D03*
X-33550D02*
D03*
G54D31*
X-36455Y-2031D02*
D03*
Y-5220D02*
D03*
G54D32*
X-54455Y-21050D02*
D03*
Y-24200D02*
D03*
X-34955D02*
D03*
Y-21050D02*
D03*
X-30361Y-12700D02*
D03*
Y-9550D02*
D03*
X-37455Y-12700D02*
D03*
Y-9550D02*
D03*
X-34455Y7587D02*
D03*
Y4438D02*
D03*
X-37955Y7524D02*
D03*
Y4375D02*
D03*
X-24380Y6450D02*
D03*
Y3300D02*
D03*
X-132936Y-30919D02*
D03*
Y-27769D02*
D03*
X-92520Y-27953D02*
D03*
Y-31102D02*
D03*
X-62964Y4438D02*
D03*
Y1289D02*
D03*
X-62216Y11978D02*
D03*
Y15127D02*
D03*
X-116310Y-7447D02*
D03*
Y-10597D02*
D03*
G54D33*
X-53817Y8300D02*
D03*
X-50668D02*
D03*
X-24380Y-157D02*
D03*
X-27530D02*
D03*
X-173825Y-37000D02*
D03*
X-176975D02*
D03*
X-142511Y-31238D02*
D03*
X-139361D02*
D03*
X-142511Y-27769D02*
D03*
X-139361D02*
D03*
X-78885Y32053D02*
D03*
X-75736D02*
D03*
X-115885D02*
D03*
X-112736D02*
D03*
G54D34*
X-186951Y29588D02*
D03*
Y23683D02*
D03*
X-192527Y-21076D02*
D03*
Y-15171D02*
D03*
X-179338Y-48832D02*
D03*
Y-42926D02*
D03*
X-174220Y-48832D02*
D03*
Y-42926D02*
D03*
G54D35*
X-161467Y-7480D02*
D03*
X-155562D02*
D03*
X-157685Y-28950D02*
D03*
X-151779D02*
D03*
X-176583Y-7297D02*
D03*
X-182488D02*
D03*
X-101574Y33329D02*
D03*
X-107480D02*
D03*
X-117763Y27864D02*
D03*
X-111858D02*
D03*
X-71263Y-16948D02*
D03*
X-65358D02*
D03*
G54D36*
X-153713Y-19403D02*
D03*
Y-10938D02*
D03*
G54D37*
X-186720Y-32329D02*
D03*
X-184161D02*
D03*
X-181602D02*
D03*
X-179043D02*
D03*
X-186720Y-19573D02*
D03*
X-184161D02*
D03*
X-181602D02*
D03*
X-179043D02*
D03*
X-170227Y-26851D02*
D03*
X-167668D02*
D03*
X-165109D02*
D03*
X-162550D02*
D03*
X-170227Y-14095D02*
D03*
X-167668D02*
D03*
X-165109D02*
D03*
X-162550D02*
D03*
G54D38*
X-184161Y-12808D02*
D03*
X-175697D02*
D03*
G54D39*
X-159597Y-41404D02*
D03*
Y-39435D02*
D03*
Y-37467D02*
D03*
Y-35498D02*
D03*
Y-33530D02*
D03*
X-170621Y-41404D02*
D03*
Y-39435D02*
D03*
Y-37467D02*
D03*
Y-35498D02*
D03*
Y-33530D02*
D03*
G54D40*
X-165109Y-37467D02*
D03*
G54D41*
X-164125Y-42585D02*
D03*
X-166093D02*
D03*
Y-32348D02*
D03*
X-164125D02*
D03*
G54D42*
X-151976Y-44573D02*
D03*
Y-34297D02*
D03*
G54D43*
X-194692Y-44698D02*
D03*
X-187212D02*
D03*
X-190952Y-34659D02*
D03*
G54D44*
X-201681Y-25604D02*
D03*
Y-28163D02*
D03*
Y-30722D02*
D03*
X-193610D02*
D03*
Y-25604D02*
D03*
G54D45*
X-111810Y10738D02*
D03*
X-67716Y-6979D02*
D03*
Y895D02*
D03*
Y8769D02*
D03*
X-111810Y-3042D02*
D03*
X-67716Y4832D02*
D03*
X-111810Y20580D02*
D03*
Y18612D02*
D03*
X-67716Y-8947D02*
D03*
Y-5010D02*
D03*
Y-3042D02*
D03*
Y-1073D02*
D03*
Y2864D02*
D03*
Y6801D02*
D03*
Y10738D02*
D03*
Y12706D02*
D03*
Y14675D02*
D03*
Y16643D02*
D03*
Y18612D02*
D03*
Y20580D02*
D03*
X-111810Y16643D02*
D03*
Y14675D02*
D03*
Y12706D02*
D03*
Y8769D02*
D03*
Y6801D02*
D03*
Y4832D02*
D03*
Y2864D02*
D03*
Y895D02*
D03*
Y-1073D02*
D03*
Y-5010D02*
D03*
Y-6979D02*
D03*
Y-8947D02*
D03*
G54D46*
X-98621Y-16231D02*
D03*
X-88779Y27864D02*
D03*
X-74999D02*
D03*
X-76968D02*
D03*
X-78936D02*
D03*
X-80905D02*
D03*
X-82873D02*
D03*
X-84842D02*
D03*
X-86810D02*
D03*
X-90747D02*
D03*
X-92716D02*
D03*
X-94684D02*
D03*
X-96653D02*
D03*
X-98621D02*
D03*
X-100590D02*
D03*
X-102559D02*
D03*
X-104527D02*
D03*
Y-16231D02*
D03*
X-102559D02*
D03*
X-100590D02*
D03*
X-96653D02*
D03*
X-94684D02*
D03*
X-92716D02*
D03*
X-90747D02*
D03*
X-88779D02*
D03*
X-86810D02*
D03*
X-84842D02*
D03*
X-82873D02*
D03*
X-80905D02*
D03*
X-78936D02*
D03*
X-76968D02*
D03*
X-74999D02*
D03*
G54D47*
X-135499Y-18675D02*
D03*
G54D48*
X-139436Y-12769D02*
D03*
X-137861D02*
D03*
X-136286D02*
D03*
X-134712D02*
D03*
X-133137D02*
D03*
X-131562D02*
D03*
Y-24580D02*
D03*
X-133137D02*
D03*
X-134712D02*
D03*
X-136286D02*
D03*
X-137861D02*
D03*
X-139436D02*
D03*
G54D49*
X-129594Y-14738D02*
D03*
Y-16312D02*
D03*
Y-17887D02*
D03*
Y-19462D02*
D03*
Y-21037D02*
D03*
Y-22612D02*
D03*
X-141405D02*
D03*
Y-21037D02*
D03*
Y-19462D02*
D03*
Y-17887D02*
D03*
Y-16312D02*
D03*
Y-14738D02*
D03*
G54D50*
X-118690Y2872D02*
D03*
X-123414Y2872D02*
D03*
G54D51*
X-118690Y-167D02*
D03*
Y5912D02*
D03*
X-123414Y-167D02*
D03*
Y5912D02*
D03*
G54D52*
X-87573Y-45860D02*
D03*
X-82573D02*
D03*
X-77573D02*
D03*
X-72573D02*
D03*
X-87573Y-25191D02*
D03*
X-82573D02*
D03*
X-77573D02*
D03*
X-72573D02*
D03*
G54D105*
X-202559Y42777D02*
D03*
Y-7616D02*
D03*
G54D106*
X-169095Y42777D02*
D03*
Y-7616D02*
D03*
G54D107*
X-166142Y1832D02*
D03*
Y9707D02*
D03*
Y17581D02*
D03*
Y25455D02*
D03*
Y33329D02*
D03*
X-172047Y21518D02*
D03*
Y31360D02*
D03*
Y13644D02*
D03*
Y3801D02*
D03*
X-105000Y-35000D02*
D03*
X-110000Y-42500D02*
D03*
X-115000Y-35000D02*
D03*
X-125000D02*
D03*
X-105512Y41339D02*
D03*
X-120000Y-42500D02*
D03*
X-93307Y41339D02*
D03*
X-47955Y-45680D02*
D03*
X-58104Y42126D02*
D03*
X-120810Y-17947D02*
D03*
G54D108*
X-110810D02*
D03*
M02*
