G04*
G04 #@! TF.GenerationSoftware,Altium Limited,Altium Designer,18.1.6 (161)*
G04*
G04 Layer_Color=255*
%FSLAX25Y25*%
%MOIN*%
G70*
G01*
G75*
%ADD15R,0.01968X0.01772*%
%ADD18R,0.03150X0.03150*%
%ADD19R,0.01575X0.01968*%
%ADD20R,0.16000X0.06000*%
%ADD21R,0.01968X0.01575*%
%ADD31R,0.02362X0.04724*%
%ADD60C,0.04724*%
%ADD61R,0.04724X0.04724*%
%ADD62O,0.03937X0.05906*%
%ADD67R,0.01772X0.01968*%
%ADD68R,0.07480X0.11024*%
%ADD69R,0.06063X0.06693*%
%ADD70O,0.00787X0.02362*%
%ADD71O,0.02362X0.00787*%
%ADD72R,0.04331X0.07480*%
%ADD73R,0.03347X0.02165*%
%ADD74R,0.12323X0.12323*%
%ADD75O,0.00984X0.03347*%
%ADD76O,0.03347X0.00984*%
%ADD77R,0.01929X0.02047*%
%ADD78R,0.02047X0.01929*%
%ADD79R,0.05512X0.04724*%
%ADD80O,0.02953X0.00984*%
%ADD81O,0.00984X0.02953*%
%ADD82R,0.10236X0.10236*%
G54D15*
X546547Y232000D02*
D03*
X549500D02*
D03*
X502739Y224500D02*
D03*
X499786D02*
D03*
X513430Y244500D02*
D03*
X510477D02*
D03*
X514254Y247732D02*
D03*
X517207D02*
D03*
X590976Y195326D02*
D03*
X588024D02*
D03*
X586453Y219409D02*
D03*
X583500D02*
D03*
G54D18*
X489165Y250732D02*
D03*
X495071D02*
D03*
X487547Y245000D02*
D03*
X493453D02*
D03*
G54D19*
X511156Y241232D02*
D03*
X514305D02*
D03*
X541776Y223232D02*
D03*
X544925D02*
D03*
X541776Y226701D02*
D03*
X544925D02*
D03*
X578788Y197484D02*
D03*
X575638D02*
D03*
X601925Y205941D02*
D03*
X605075D02*
D03*
G54D20*
X618000Y196143D02*
D03*
Y216143D02*
D03*
Y206143D02*
D03*
G54D21*
X499144Y241941D02*
D03*
Y244500D02*
D03*
Y247059D02*
D03*
Y249618D02*
D03*
X507412Y241941D02*
D03*
Y244500D02*
D03*
Y247059D02*
D03*
Y249618D02*
D03*
X551350Y226382D02*
D03*
Y223232D02*
D03*
X575000Y229984D02*
D03*
Y226835D02*
D03*
X605075Y202484D02*
D03*
Y199335D02*
D03*
X599094Y215335D02*
D03*
Y218484D02*
D03*
X592000Y215335D02*
D03*
Y218484D02*
D03*
X595000Y201346D02*
D03*
Y198197D02*
D03*
X591500Y201409D02*
D03*
Y198260D02*
D03*
X594500Y226835D02*
D03*
Y229984D02*
D03*
G54D31*
X555429Y237000D02*
D03*
X540665D02*
D03*
X545587D02*
D03*
X550508D02*
D03*
G54D60*
X583524Y242500D02*
D03*
X576500Y184000D02*
D03*
X555366D02*
D03*
X566500D02*
D03*
X490500Y228000D02*
D03*
Y238000D02*
D03*
X509500Y182732D02*
D03*
X519500D02*
D03*
G54D61*
X573524Y242500D02*
D03*
G54D62*
X523748Y251000D02*
D03*
X538449D02*
D03*
X548449D02*
D03*
X558449D02*
D03*
G54D67*
X559000Y234476D02*
D03*
Y231524D02*
D03*
X511278Y247779D02*
D03*
Y250732D02*
D03*
X509380Y215000D02*
D03*
Y212047D02*
D03*
X513317Y214976D02*
D03*
Y212024D02*
D03*
G54D68*
X530626Y248417D02*
D03*
X565469D02*
D03*
G54D69*
X548787Y214138D02*
D03*
G54D70*
X544850Y208232D02*
D03*
X546425D02*
D03*
X548000D02*
D03*
X549575D02*
D03*
X551150D02*
D03*
X552724D02*
D03*
Y220043D02*
D03*
X551150D02*
D03*
X549575D02*
D03*
X548000D02*
D03*
X546425D02*
D03*
X544850D02*
D03*
G54D71*
X554693Y210201D02*
D03*
Y211775D02*
D03*
Y213350D02*
D03*
Y214925D02*
D03*
Y216500D02*
D03*
Y218075D02*
D03*
X542882D02*
D03*
Y216500D02*
D03*
Y214925D02*
D03*
Y213350D02*
D03*
Y211775D02*
D03*
Y210201D02*
D03*
G54D72*
X503278Y245779D02*
D03*
G54D73*
X513479Y228760D02*
D03*
Y236240D02*
D03*
X503046D02*
D03*
Y232500D02*
D03*
Y228760D02*
D03*
G54D74*
X513317Y199469D02*
D03*
G54D75*
X507412Y190413D02*
D03*
X509380D02*
D03*
X511349D02*
D03*
X513317D02*
D03*
X515286D02*
D03*
X517254D02*
D03*
X519223D02*
D03*
Y208524D02*
D03*
X517254D02*
D03*
X515286D02*
D03*
X513317D02*
D03*
X511349D02*
D03*
X509380D02*
D03*
X507412D02*
D03*
G54D76*
X522372Y193563D02*
D03*
Y195531D02*
D03*
Y197500D02*
D03*
Y199469D02*
D03*
Y201437D02*
D03*
Y203405D02*
D03*
Y205374D02*
D03*
X504262D02*
D03*
Y203405D02*
D03*
Y201437D02*
D03*
Y199469D02*
D03*
Y197500D02*
D03*
Y195531D02*
D03*
Y193563D02*
D03*
G54D77*
X596000Y211004D02*
D03*
X599189D02*
D03*
X595905Y205941D02*
D03*
X599094D02*
D03*
G54D78*
X593000Y211004D02*
D03*
Y207815D02*
D03*
G54D79*
X589000Y225110D02*
D03*
Y231409D02*
D03*
X580339Y225110D02*
D03*
Y231409D02*
D03*
G54D80*
X574217Y203972D02*
D03*
Y205941D02*
D03*
Y207909D02*
D03*
Y209878D02*
D03*
Y211846D02*
D03*
X588784D02*
D03*
Y209878D02*
D03*
Y207909D02*
D03*
Y205941D02*
D03*
Y203972D02*
D03*
G54D81*
X577563Y215193D02*
D03*
X579531D02*
D03*
X581500D02*
D03*
X583468D02*
D03*
X585437D02*
D03*
Y200626D02*
D03*
X583468D02*
D03*
X581500D02*
D03*
X579531D02*
D03*
X577563D02*
D03*
G54D82*
X581500Y207909D02*
D03*
M02*
