G04*
G04 #@! TF.GenerationSoftware,Altium Limited,Altium Designer,20.0.14 (345)*
G04*
G04 Layer_Color=32896*
%FSLAX25Y25*%
%MOIN*%
G70*
G01*
G75*
%ADD58C,0.00800*%
%ADD100C,0.00394*%
G54D58*
X583035Y193933D02*
Y199445D01*
X572012D02*
X583035D01*
X572012Y193933D02*
X583035D01*
X572012D02*
Y199445D01*
X571035Y188744D02*
Y194256D01*
X560012D02*
X571035D01*
X560012Y188744D02*
X571035D01*
X560012D02*
Y194256D01*
X497630Y247976D02*
Y253488D01*
X486606Y247976D02*
X497630D01*
X486606Y253488D02*
X497630D01*
X486606Y247976D02*
Y253488D01*
X496012Y242244D02*
Y247756D01*
X484988Y242244D02*
X496012D01*
X484988Y247756D02*
X496012D01*
X484988Y242244D02*
Y247756D01*
X514274Y204744D02*
Y210256D01*
X503250D02*
X514274D01*
X503250Y204744D02*
X514274D01*
X503250D02*
Y210256D01*
X498506Y227988D02*
X504018D01*
Y239012D01*
X498506Y227988D02*
Y239012D01*
X504018D01*
X536535Y238744D02*
Y244256D01*
X525512D02*
X536535D01*
X525512Y238744D02*
X536535D01*
X525512D02*
Y244256D01*
G54D100*
X576024Y196689D02*
X579024D01*
X577524Y195189D02*
Y198189D01*
X564024Y191500D02*
X567024D01*
X565524Y190000D02*
Y193000D01*
X539024Y192500D02*
X541024D01*
X540024Y191500D02*
Y193500D01*
X577024Y191500D02*
Y193500D01*
X576024Y192500D02*
X578024D01*
X537449Y244500D02*
X539449D01*
X538449Y243500D02*
Y245500D01*
X524524Y224000D02*
X526524D01*
X525524Y223000D02*
Y225000D01*
X523929Y211000D02*
X525929D01*
X524929Y210000D02*
Y212000D01*
X492118Y249232D02*
Y252232D01*
X490618Y250732D02*
X493618D01*
X490500Y243500D02*
Y246500D01*
X489000Y245000D02*
X492000D01*
X512731Y240232D02*
Y242232D01*
X511731Y241232D02*
X513731D01*
X542350Y223232D02*
X544350D01*
X543350Y222232D02*
Y224232D01*
X542350Y226701D02*
X544350D01*
X543350Y225701D02*
Y227701D01*
X551350Y223807D02*
Y225807D01*
X550350Y224807D02*
X552350D01*
X507262Y207500D02*
X510262D01*
X508762Y206000D02*
Y209000D01*
X501262Y232000D02*
Y235000D01*
X499762Y233500D02*
X502762D01*
X577213Y196484D02*
Y198484D01*
X576213Y197484D02*
X578213D01*
X574000Y228409D02*
X576000D01*
X575000Y227409D02*
Y229409D01*
X604075Y200909D02*
X606075D01*
X605075Y199909D02*
Y201909D01*
X603500Y204941D02*
Y206941D01*
X602500Y205941D02*
X604500D01*
X598095Y216909D02*
X600095D01*
X599094Y215909D02*
Y217909D01*
X591000Y216909D02*
X593000D01*
X592000Y215909D02*
Y217909D01*
X594000Y199772D02*
X596000D01*
X595000Y198772D02*
Y200772D01*
X590500Y199835D02*
X592500D01*
X591500Y198835D02*
Y200835D01*
X593500Y228409D02*
X595500D01*
X594500Y227409D02*
Y229409D01*
X578024Y233575D02*
X580024D01*
X579024Y232575D02*
Y234575D01*
X531024Y240000D02*
Y243000D01*
X529524Y241500D02*
X532524D01*
M02*
