G04*
G04 #@! TF.GenerationSoftware,Altium Limited,Altium Designer,20.1.14 (287)*
G04*
G04 Layer_Color=128*
%FSLAX25Y25*%
%MOIN*%
G70*
G04*
G04 #@! TF.SameCoordinates,B4ACC901-58E3-418A-A1C3-F6E1E6CBF67F*
G04*
G04*
G04 #@! TF.FilePolarity,Positive*
G04*
G01*
G75*
%ADD125C,0.00200*%
G54D125*
X-203740Y42777D02*
X-201378D01*
X-202559Y41596D02*
Y43959D01*
X-203740Y-7616D02*
X-201378D01*
X-202559Y-8797D02*
Y-6435D01*
X-170276Y42777D02*
X-167913D01*
X-169095Y41596D02*
Y43959D01*
X-170276Y-7616D02*
X-167913D01*
X-169095Y-8797D02*
Y-6435D01*
X-167520Y1832D02*
X-164764D01*
X-166142Y454D02*
Y3210D01*
X-167520Y9707D02*
X-164764D01*
X-166142Y8329D02*
Y11084D01*
X-167520Y17581D02*
X-164764D01*
X-166142Y16203D02*
Y18959D01*
X-167520Y25455D02*
X-164764D01*
X-166142Y24077D02*
Y26833D01*
X-167520Y33329D02*
X-164764D01*
X-166142Y31951D02*
Y34707D01*
X-173425Y21518D02*
X-170669D01*
X-172047Y20140D02*
Y22896D01*
X-173425Y31360D02*
X-170669D01*
X-172047Y29982D02*
Y32738D01*
X-173425Y13644D02*
X-170669D01*
X-172047Y12266D02*
Y15021D01*
X-173425Y3801D02*
X-170669D01*
X-172047Y2423D02*
Y5179D01*
X-106476Y-35000D02*
X-103524D01*
X-105000Y-36476D02*
Y-33524D01*
X-111476Y-42500D02*
X-108524D01*
X-110000Y-43976D02*
Y-41024D01*
X-116476Y-35000D02*
X-113524D01*
X-115000Y-36476D02*
Y-33524D01*
X-126476Y-35000D02*
X-123524D01*
X-125000Y-36476D02*
Y-33524D01*
X-106988Y41339D02*
X-104035D01*
X-105512Y39862D02*
Y42815D01*
X-121476Y-42500D02*
X-118524D01*
X-120000Y-43976D02*
Y-41024D01*
X-94784Y41339D02*
X-91831D01*
X-93307Y39862D02*
Y42815D01*
X-49431Y-45680D02*
X-46479D01*
X-47955Y-47157D02*
Y-44204D01*
X-59581Y42126D02*
X-56628D01*
X-58104Y40650D02*
Y43602D01*
X-112287Y-17947D02*
X-109334D01*
X-110810Y-19424D02*
Y-16471D01*
X-122287Y-17947D02*
X-119334D01*
X-120810Y-19424D02*
Y-16471D01*
X-41471Y20545D02*
X-40271D01*
X-40871Y19945D02*
Y21145D01*
X-38555Y20556D02*
X-37355D01*
X-37955Y19956D02*
Y21156D01*
X-121742Y15343D02*
X-120955D01*
X-121349Y14950D02*
Y15737D01*
X-124197Y15343D02*
X-123410D01*
X-123803Y14950D02*
Y15737D01*
X-126634Y15288D02*
X-125847D01*
X-126241Y14894D02*
Y15681D01*
X-146714Y-21688D02*
X-145926D01*
X-146320Y-22081D02*
Y-21294D01*
X-146714Y-24404D02*
X-145926D01*
X-146320Y-24798D02*
Y-24010D01*
X-146722Y-26974D02*
X-145935D01*
X-146329Y-27368D02*
Y-26580D01*
X-139376Y41339D02*
X-138176D01*
X-138776Y40739D02*
Y41939D01*
X-204094Y37100D02*
X-203306D01*
X-203700Y36706D02*
Y37494D01*
X-188494Y36000D02*
X-187706D01*
X-188100Y35606D02*
Y36394D01*
X-163794Y40000D02*
X-163006D01*
X-163400Y39606D02*
Y40394D01*
X-80500Y-22200D02*
X-79300D01*
X-79900Y-22800D02*
Y-21600D01*
X-191894Y-37500D02*
X-191106D01*
X-191500Y-37894D02*
Y-37106D01*
X-184215Y-35827D02*
X-182715D01*
X-183465Y-36577D02*
Y-35077D01*
X-84994Y-11300D02*
X-84206D01*
X-84600Y-11694D02*
Y-10906D01*
X-88194Y-11200D02*
X-87406D01*
X-87800Y-11594D02*
Y-10806D01*
X-117855Y-23733D02*
X-116655D01*
X-117255Y-24333D02*
Y-23133D01*
X-188984Y4056D02*
X-188197D01*
X-188590Y3662D02*
Y4449D01*
X-59633Y-2355D02*
X-58845D01*
X-59239Y-2749D02*
Y-1962D01*
X-60073Y-5220D02*
X-59285D01*
X-59679Y-5613D02*
Y-4826D01*
X-58498Y-8137D02*
X-57710D01*
X-58104Y-8531D02*
Y-7744D01*
X-50317Y-12700D02*
X-49530D01*
X-49924Y-13094D02*
Y-12306D01*
X-41240Y3964D02*
X-40452D01*
X-40846Y3571D02*
Y4358D01*
X-47910Y8569D02*
X-47122D01*
X-47516Y8176D02*
Y8963D01*
X-148185Y-17323D02*
X-147397D01*
X-147791Y-17717D02*
Y-16929D01*
X-169844Y-30577D02*
X-168344D01*
X-169095Y-31327D02*
Y-29827D01*
X-151156Y-20289D02*
X-149956D01*
X-150556Y-20889D02*
Y-19689D01*
X-146137Y-11423D02*
X-145350D01*
X-145743Y-11817D02*
Y-11030D01*
X-188984Y-20289D02*
X-188197D01*
X-188590Y-20682D02*
Y-19895D01*
X-160630Y11024D02*
X-159843D01*
X-160236Y10630D02*
Y11417D01*
X-153150Y787D02*
X-152362D01*
X-152756Y394D02*
Y1181D01*
X-151181Y13644D02*
X-150394D01*
X-150787Y13250D02*
Y14037D01*
X-101511Y16713D02*
X-100724D01*
X-101117Y16319D02*
Y17106D01*
X-42845Y-33366D02*
X-41646D01*
X-42246Y-33966D02*
Y-32766D01*
X-35639Y20545D02*
X-34439D01*
X-35039Y19945D02*
Y21145D01*
X-22774Y-18895D02*
X-21574D01*
X-22174Y-19495D02*
Y-18295D01*
X-151181Y21745D02*
X-150394D01*
X-150787Y21352D02*
Y22139D01*
X-143397Y13871D02*
X-142609D01*
X-143003Y13477D02*
Y14265D01*
X-74849Y17581D02*
X-74061D01*
X-74455Y17187D02*
Y17974D01*
X-91732Y10630D02*
X-90945D01*
X-91338Y10236D02*
Y11024D01*
X-82036Y7745D02*
X-81249D01*
X-81643Y7351D02*
Y8139D01*
X-88567Y1832D02*
X-87780D01*
X-88174Y1439D02*
Y2226D01*
X-89290Y10000D02*
X-88502D01*
X-88896Y9606D02*
Y10394D01*
X-85039Y15733D02*
X-84252D01*
X-84646Y15339D02*
Y16126D01*
X-63464Y6648D02*
X-62677D01*
X-63071Y6254D02*
Y7041D01*
X-82243Y-9550D02*
X-81042D01*
X-81643Y-10150D02*
Y-8950D01*
X-100669Y-10447D02*
X-99469D01*
X-100069Y-11047D02*
Y-9847D01*
X-108253Y-3744D02*
X-107466D01*
X-107859Y-4138D02*
Y-3350D01*
X-141343Y-9409D02*
X-140556D01*
X-140949Y-9802D02*
Y-9015D01*
X-138255Y-8947D02*
X-137468D01*
X-137861Y-9341D02*
Y-8554D01*
X-135105Y-9550D02*
X-134318D01*
X-134712Y-9944D02*
Y-9157D01*
X-126378Y-21391D02*
X-125591D01*
X-125984Y-21785D02*
Y-20997D01*
X-73593Y-36588D02*
X-72393D01*
X-72993Y-37188D02*
Y-35988D01*
X-72967Y21225D02*
X-72180D01*
X-72573Y20831D02*
Y21618D01*
X-72967Y27928D02*
X-72180D01*
X-72573Y27534D02*
Y28322D01*
X-149654Y31349D02*
X-148867D01*
X-149261Y30955D02*
Y31743D01*
X-147037Y30297D02*
X-146249D01*
X-146643Y29903D02*
Y30690D01*
X-136680Y-28740D02*
X-135893D01*
X-136286Y-29134D02*
Y-28346D01*
X-136680Y-32308D02*
X-135893D01*
X-136286Y-32702D02*
Y-31914D01*
X-128740Y-25591D02*
X-127953D01*
X-128347Y-25984D02*
Y-25197D01*
X-83234Y-36588D02*
X-82034D01*
X-82634Y-37188D02*
Y-35988D01*
X-78353Y-36588D02*
X-77153D01*
X-77753Y-37188D02*
Y-35988D01*
M02*
