G04*
G04 #@! TF.GenerationSoftware,Altium Limited,Altium Designer,20.0.14 (345)*
G04*
G04 Layer_Physical_Order=1*
G04 Layer_Color=255*
%FSLAX25Y25*%
%MOIN*%
G70*
G01*
G75*
%ADD14R,0.03150X0.03150*%
%ADD15R,0.01968X0.01772*%
%ADD16O,0.00984X0.04724*%
%ADD17O,0.04724X0.00984*%
%ADD18R,0.03150X0.03150*%
%ADD19R,0.01575X0.01968*%
%ADD20R,0.16000X0.06000*%
%ADD21R,0.01968X0.01575*%
%ADD22R,0.04724X0.02362*%
%ADD23R,0.10236X0.07087*%
%ADD24R,0.03150X0.03150*%
%ADD25R,0.05118X0.06496*%
%ADD26R,0.07480X0.03937*%
%ADD27R,0.07480X0.07087*%
%ADD28R,0.06102X0.05610*%
%ADD29R,0.05433X0.01772*%
%ADD30R,0.07087X0.10236*%
%ADD31R,0.02362X0.04724*%
%ADD32R,0.03268X0.01457*%
%ADD33R,0.03268X0.02638*%
%ADD57C,0.01000*%
%ADD58C,0.00800*%
%ADD59C,0.01500*%
%ADD60C,0.04724*%
%ADD61R,0.04724X0.04724*%
%ADD62O,0.03937X0.05906*%
%ADD63C,0.01772*%
%ADD64C,0.02400*%
G36*
X516025Y250854D02*
X515997Y250756D01*
X515984Y250655D01*
Y250550D01*
X515997Y250442D01*
X516025Y250330D01*
X516066Y250215D01*
X516121Y250097D01*
X516189Y249975D01*
X516272Y249850D01*
X514679Y249611D01*
X514290Y250532D01*
X516066Y250949D01*
X516025Y250854D01*
D02*
G37*
G36*
X537991Y248115D02*
X537912Y248177D01*
X537837Y248207D01*
X537765Y248205D01*
X537698Y248171D01*
X537634Y248106D01*
X537575Y248009D01*
X537519Y247880D01*
X537467Y247719D01*
X537419Y247526D01*
X537375Y247301D01*
X536453Y248159D01*
X536489Y248370D01*
X536578Y249171D01*
X536578Y249280D01*
X536572Y249372D01*
X536560Y249447D01*
X536543Y249505D01*
X537991Y248115D01*
D02*
G37*
G36*
X537377Y246282D02*
X537399Y245962D01*
X537418Y245832D01*
X537443Y245722D01*
X537473Y245632D01*
X537509Y245562D01*
X537550Y245512D01*
X537597Y245482D01*
X537649Y245472D01*
X536099D01*
X536151Y245482D01*
X536198Y245512D01*
X536239Y245562D01*
X536275Y245632D01*
X536305Y245722D01*
X536330Y245832D01*
X536349Y245962D01*
X536363Y246112D01*
X536374Y246472D01*
X537374D01*
X537377Y246282D01*
D02*
G37*
G36*
X521001Y245200D02*
X519800Y243999D01*
X519783Y244043D01*
X519732Y244117D01*
X519648Y244223D01*
X519192Y244725D01*
X518110Y245829D01*
X519171Y246890D01*
X521001Y245200D01*
D02*
G37*
G36*
X537597Y243521D02*
X537550Y243499D01*
X537509Y243463D01*
X537473Y243413D01*
X537443Y243348D01*
X537418Y243269D01*
X537399Y243175D01*
X537385Y243067D01*
X537377Y242945D01*
X537374Y242808D01*
X537360D01*
X537353Y242624D01*
X537341Y242671D01*
X537331Y242733D01*
X537325Y242790D01*
X537325Y242808D01*
X536374D01*
X536371Y242945D01*
X536349Y243175D01*
X536330Y243269D01*
X536305Y243348D01*
X536275Y243413D01*
X536239Y243463D01*
X536198Y243499D01*
X536151Y243521D01*
X536099Y243528D01*
X537649D01*
X537597Y243521D01*
D02*
G37*
G36*
X537376Y242532D02*
X537400Y242456D01*
X537345Y242374D01*
X537223Y238913D01*
X537218Y239096D01*
X537201Y239294D01*
X537136Y239734D01*
X537027Y240232D01*
X536897Y240690D01*
X536790Y240762D01*
X536653Y240836D01*
X536498Y240905D01*
X536326Y240969D01*
X536263Y241987D01*
X536447Y241930D01*
X536613Y241890D01*
X536759Y241869D01*
X536885Y241865D01*
X536992Y241880D01*
X537007Y241885D01*
X537235Y242215D01*
X537235Y242218D01*
Y242216D01*
X537345Y242374D01*
X537353Y242624D01*
X537376Y242532D01*
D02*
G37*
G36*
X535532Y242405D02*
X535545Y242320D01*
X535568Y242245D01*
X535600Y242180D01*
X535641Y242125D01*
X535691Y242080D01*
X535750Y242045D01*
X535819Y242020D01*
X535896Y242005D01*
X535983Y242000D01*
Y241000D01*
X535896Y240995D01*
X535819Y240980D01*
X535750Y240955D01*
X535691Y240920D01*
X535641Y240875D01*
X535600Y240820D01*
X535568Y240755D01*
X535545Y240680D01*
X535532Y240595D01*
X535527Y240500D01*
Y240983D01*
X534478Y240942D01*
Y242058D01*
X534504Y242047D01*
X534558Y242037D01*
X534640Y242028D01*
X535050Y242009D01*
X535527Y242004D01*
Y242500D01*
X535532Y242405D01*
D02*
G37*
G36*
X534786Y239937D02*
X535500D01*
X535358Y239922D01*
X535230Y239877D01*
X535117Y239802D01*
X535020Y239697D01*
X534937Y239562D01*
X534870Y239397D01*
X534818Y239202D01*
X534816Y239190D01*
X534849Y238348D01*
X533151D01*
X533170Y238391D01*
X533187Y238479D01*
X533202Y238614D01*
X533219Y238982D01*
X533182Y239202D01*
X533130Y239397D01*
X533063Y239562D01*
X532980Y239697D01*
X532882Y239802D01*
X532770Y239877D01*
X532643Y239922D01*
X532500Y239937D01*
X533241D01*
X533250Y240837D01*
X534750D01*
X534786Y239937D01*
D02*
G37*
G36*
X492833Y238537D02*
X492966Y238259D01*
X493103Y238013D01*
X493245Y237800D01*
X493391Y237619D01*
X493541Y237470D01*
X493697Y237355D01*
X493856Y237272D01*
X494021Y237221D01*
X494189Y237203D01*
X494118Y237084D01*
X494337Y237033D01*
X494681Y236979D01*
X494979Y236960D01*
X495229Y236977D01*
X495432Y237029D01*
X495589Y237118D01*
X492924Y234996D01*
X493024Y235100D01*
X493070Y235212D01*
X493062Y235330D01*
X493001Y235456D01*
X492886Y235588D01*
X492717Y235728D01*
X492545Y235841D01*
X492397Y235844D01*
X491933Y235829D01*
X491702Y235808D01*
X491243Y235741D01*
X491014Y235694D01*
X491649Y236880D01*
X491916Y237841D01*
X492120Y237759D01*
X492705Y238848D01*
X492833Y238537D01*
D02*
G37*
G36*
X535216Y237391D02*
X535265Y237258D01*
X535346Y237103D01*
X535460Y236925D01*
X535606Y236725D01*
X535995Y236257D01*
X536514Y235698D01*
X536822Y235385D01*
X536115Y234678D01*
X535802Y234986D01*
X534775Y235894D01*
X534575Y236040D01*
X534397Y236154D01*
X534242Y236235D01*
X534109Y236284D01*
X533999Y236300D01*
X534229Y236530D01*
X533999Y236750D01*
X534750Y237501D01*
X534761Y237482D01*
X534792Y237442D01*
X534920Y237303D01*
X534961Y237261D01*
X535200Y237501D01*
X535216Y237391D01*
D02*
G37*
G36*
X517437Y235406D02*
X517427Y235501D01*
X517397Y235586D01*
X517347Y235661D01*
X517277Y235726D01*
X517187Y235781D01*
X517077Y235826D01*
X516947Y235861D01*
X516797Y235886D01*
X516627Y235901D01*
X516437Y235906D01*
Y236906D01*
X516627Y236911D01*
X516797Y236926D01*
X516947Y236951D01*
X517077Y236986D01*
X517187Y237031D01*
X517277Y237086D01*
X517347Y237151D01*
X517397Y237226D01*
X517427Y237311D01*
X517437Y237406D01*
Y235406D01*
D02*
G37*
G36*
X510951Y235625D02*
X510921Y235584D01*
X510895Y235542D01*
X510872Y235500D01*
X510853Y235458D01*
X510837Y235416D01*
X510825Y235374D01*
X510816Y235332D01*
X510811Y235289D01*
X510809Y235246D01*
X509809D01*
X509807Y235289D01*
X509802Y235332D01*
X509793Y235374D01*
X509781Y235416D01*
X509765Y235458D01*
X509746Y235500D01*
X509723Y235542D01*
X509697Y235584D01*
X509667Y235625D01*
X509634Y235666D01*
X510984D01*
X510951Y235625D01*
D02*
G37*
G36*
X499711Y234953D02*
X499696Y235095D01*
X499651Y235223D01*
X499575Y235335D01*
X499469Y235433D01*
X499333Y235515D01*
X499167Y235583D01*
X498970Y235635D01*
X498744Y235673D01*
X498656Y235680D01*
X498569Y235673D01*
X498343Y235635D01*
X498147Y235583D01*
X497980Y235515D01*
X497844Y235433D01*
X497738Y235335D01*
X497662Y235223D01*
X497616Y235095D01*
X497600Y234953D01*
X497612Y237130D01*
X497627Y237144D01*
X497672Y237156D01*
X497747Y237167D01*
X497852Y237176D01*
X498199Y237188D01*
Y237203D01*
X498487Y237210D01*
X498744Y237233D01*
X498970Y237270D01*
X499167Y237323D01*
X499333Y237390D01*
X499469Y237473D01*
X499575Y237570D01*
X499651Y237683D01*
X499696Y237810D01*
X499711Y237953D01*
Y234953D01*
D02*
G37*
G36*
X530934Y234797D02*
X530938Y234747D01*
X531416Y234725D01*
X531323Y234609D01*
X531241Y234492D01*
X531168Y234373D01*
X531104Y234253D01*
X531077Y234192D01*
X531109Y234139D01*
X531174Y234069D01*
X531249Y234018D01*
X531334Y233988D01*
X531429Y233978D01*
X530999D01*
X530973Y233883D01*
X530949Y233757D01*
X530934Y233629D01*
X530929Y233500D01*
X529929D01*
X529925Y233643D01*
X529913Y233783D01*
X529892Y233921D01*
X529880Y233978D01*
X529429D01*
X529524Y233988D01*
X529609Y234018D01*
X529684Y234069D01*
X529749Y234139D01*
X529804Y234230D01*
X529808Y234240D01*
X529780Y234319D01*
X529726Y234446D01*
X529664Y234572D01*
X529594Y234694D01*
X529515Y234814D01*
X529924Y234795D01*
X529924Y234797D01*
X529929Y234990D01*
X530929D01*
X530934Y234797D01*
D02*
G37*
G36*
X510551Y230511D02*
X511413Y230500D01*
Y229500D01*
X511079Y229499D01*
X510551Y229468D01*
Y229126D01*
X510541Y229197D01*
X510511Y229261D01*
X510461Y229317D01*
X510391Y229365D01*
X510301Y229406D01*
X510191Y229440D01*
X510165Y229446D01*
X509649Y229415D01*
X509574Y229393D01*
X509530Y229368D01*
Y230632D01*
X509574Y230607D01*
X509649Y230585D01*
X509756Y230565D01*
X509896Y230548D01*
X510078Y230537D01*
X510191Y230560D01*
X510301Y230593D01*
X510391Y230635D01*
X510461Y230683D01*
X510511Y230739D01*
X510541Y230803D01*
X510551Y230874D01*
Y230511D01*
D02*
G37*
G36*
X515459Y230803D02*
X515489Y230739D01*
X515539Y230683D01*
X515609Y230635D01*
X515699Y230593D01*
X515809Y230560D01*
X515939Y230534D01*
X516089Y230515D01*
X516259Y230504D01*
X516449Y230500D01*
Y229500D01*
X516259Y229496D01*
X515939Y229466D01*
X515809Y229440D01*
X515699Y229406D01*
X515609Y229365D01*
X515539Y229317D01*
X515489Y229261D01*
X515459Y229197D01*
X515449Y229126D01*
Y230874D01*
X515459Y230803D01*
D02*
G37*
G36*
X517437Y229005D02*
X517436Y229100D01*
X517424Y229260D01*
X517414Y229325D01*
X517401Y229379D01*
X517385Y229424D01*
X517366Y229458D01*
X517345Y229482D01*
X517320Y229496D01*
X517293Y229500D01*
Y230500D01*
X517320Y230506D01*
X517345Y230522D01*
X517366Y230548D01*
X517385Y230584D01*
X517401Y230630D01*
X517414Y230685D01*
X517424Y230751D01*
X517431Y230826D01*
X517437Y231007D01*
Y229005D01*
D02*
G37*
G36*
X526504Y222736D02*
X526528Y222645D01*
X526568Y222561D01*
X526625Y222485D01*
X526697Y222417D01*
X526786Y222356D01*
X526890Y222303D01*
X527011Y222257D01*
X527148Y222219D01*
X527301Y222189D01*
X526618Y221267D01*
X526595Y221275D01*
X526574Y221289D01*
X526556Y221310D01*
X526540Y221338D01*
X526526Y221373D01*
X526515Y221415D01*
X526507Y221463D01*
X526501Y221519D01*
X526496Y221650D01*
Y222835D01*
X526504Y222736D01*
D02*
G37*
G36*
X517449Y217500D02*
X517438Y217595D01*
X517408Y217680D01*
X517357Y217755D01*
X517286Y217820D01*
X517195Y217875D01*
X517083Y217920D01*
X516952Y217955D01*
X516800Y217980D01*
X516629Y217995D01*
X516442Y218000D01*
X516259Y217996D01*
X515939Y217966D01*
X515809Y217940D01*
X515699Y217906D01*
X515609Y217865D01*
X515539Y217817D01*
X515489Y217761D01*
X515459Y217697D01*
X515449Y217626D01*
Y219374D01*
X515459Y219303D01*
X515489Y219239D01*
X515539Y219183D01*
X515609Y219135D01*
X515699Y219093D01*
X515809Y219060D01*
X515939Y219034D01*
X516089Y219015D01*
X516259Y219004D01*
X516442Y219000D01*
X516627Y219005D01*
X516797Y219019D01*
X516947Y219043D01*
X517077Y219076D01*
X517187Y219118D01*
X517277Y219170D01*
X517347Y219232D01*
X517397Y219303D01*
X517427Y219383D01*
X517437Y219473D01*
X517449Y217500D01*
D02*
G37*
G36*
X516622Y214367D02*
X516553Y214278D01*
X516537Y214251D01*
X516523Y214226D01*
X516513Y214203D01*
X516506Y214181D01*
X516502Y214160D01*
X516502Y214141D01*
X515503Y214087D01*
X515500Y214118D01*
X515494Y214149D01*
X515486Y214180D01*
X515475Y214211D01*
X515461Y214242D01*
X515445Y214273D01*
X515426Y214304D01*
X515404Y214335D01*
X515379Y214365D01*
X515352Y214396D01*
X516651Y214400D01*
X516622Y214367D01*
D02*
G37*
G36*
X517449Y211131D02*
X517440Y211243D01*
X517414Y211355D01*
X517370Y211468D01*
X517308Y211582D01*
X517229Y211697D01*
X517132Y211812D01*
X517018Y211928D01*
X516886Y212045D01*
X516736Y212163D01*
X516569Y212281D01*
X516854Y213354D01*
X516967Y213283D01*
X517068Y213233D01*
X517157Y213202D01*
X517235Y213191D01*
X517300Y213200D01*
X517354Y213229D01*
X517395Y213278D01*
X517425Y213346D01*
X517443Y213435D01*
X517449Y213543D01*
Y211131D01*
D02*
G37*
G36*
X506314Y209873D02*
X506329Y209703D01*
X506354Y209553D01*
X506389Y209423D01*
X506434Y209313D01*
X506489Y209223D01*
X506554Y209153D01*
X506629Y209103D01*
X506714Y209073D01*
X506809Y209063D01*
X504809D01*
X504904Y209073D01*
X504989Y209103D01*
X505064Y209153D01*
X505129Y209223D01*
X505184Y209313D01*
X505229Y209423D01*
X505264Y209553D01*
X505289Y209703D01*
X505304Y209873D01*
X505309Y210063D01*
X506309D01*
X506314Y209873D01*
D02*
G37*
G36*
X526022Y209378D02*
X525999Y209372D01*
X525979Y209356D01*
X525961Y209331D01*
X525945Y209295D01*
X525932Y209249D01*
X525921Y209194D01*
X525912Y209128D01*
X525903Y208968D01*
X525901Y208873D01*
Y210201D01*
X525903Y210233D01*
X525906Y210263D01*
X525912Y210289D01*
X525921Y210312D01*
X525932Y210331D01*
X525945Y210347D01*
X525961Y210360D01*
X525979Y210369D01*
X525999Y210375D01*
X526022Y210378D01*
Y209378D01*
D02*
G37*
G36*
X504258Y208419D02*
X505003Y208409D01*
Y207409D01*
X504669Y207408D01*
X504264Y207381D01*
X505727Y205949D01*
X505644Y206006D01*
X505539Y206039D01*
X505410Y206047D01*
X505258Y206030D01*
X505083Y205988D01*
X504885Y205922D01*
X504664Y205831D01*
X504153Y205575D01*
X503863Y205410D01*
X503402Y206297D01*
X503632Y206439D01*
X503996Y206699D01*
X504130Y206819D01*
X504231Y206932D01*
X504253Y206964D01*
X504248Y207004D01*
X504218Y207089D01*
X504168Y207164D01*
X504097Y207229D01*
X504005Y207284D01*
X503894Y207329D01*
X503815Y207350D01*
X503168Y207307D01*
X503126Y207283D01*
Y208536D01*
X503168Y208512D01*
X503242Y208491D01*
X503348Y208472D01*
X503487Y208455D01*
X503696Y208443D01*
X503763Y208454D01*
X503894Y208489D01*
X504005Y208534D01*
X504097Y208589D01*
X504168Y208654D01*
X504218Y208729D01*
X504248Y208814D01*
X504258Y208909D01*
Y208419D01*
D02*
G37*
G36*
X497187Y205393D02*
X497217Y205330D01*
X497267Y205274D01*
X497337Y205225D01*
X497427Y205184D01*
X497537Y205150D01*
X497667Y205124D01*
X497817Y205105D01*
X497987Y205094D01*
X498177Y205090D01*
Y204091D01*
X497987Y204087D01*
X497667Y204057D01*
X497537Y204031D01*
X497427Y203997D01*
X497337Y203956D01*
X497267Y203907D01*
X497217Y203851D01*
X497187Y203788D01*
X497177Y203717D01*
Y205464D01*
X497187Y205393D01*
D02*
G37*
G36*
X531569Y203495D02*
X531413Y203491D01*
X531254Y203474D01*
X531093Y203442D01*
X530928Y203397D01*
X530761Y203338D01*
X530591Y203265D01*
X530418Y203178D01*
X530243Y203077D01*
X529884Y202833D01*
X528233Y202954D01*
X528378Y203067D01*
X528493Y203169D01*
X528578Y203259D01*
X528632Y203338D01*
X528657Y203405D01*
X528651Y203460D01*
X528615Y203504D01*
X528549Y203536D01*
X528452Y203556D01*
X528326Y203565D01*
X531569Y203495D01*
D02*
G37*
G36*
X499150Y201252D02*
X499138Y201295D01*
X499124Y201367D01*
X499122Y201395D01*
X499124Y201417D01*
X499129Y201433D01*
X499137Y201445D01*
X499149Y201451D01*
X499163Y201451D01*
X499182Y201447D01*
X499739Y202293D01*
X499725Y202301D01*
X499717Y202309D01*
X499712Y202317D01*
X499713Y202324D01*
X499718Y202332D01*
X499728Y202339D01*
X499743Y202346D01*
X499763Y202353D01*
X499787Y202360D01*
X499816Y202367D01*
X499150Y201252D01*
D02*
G37*
G36*
X497187Y202834D02*
X497217Y202771D01*
X497267Y202715D01*
X497337Y202666D01*
X497427Y202625D01*
X497537Y202591D01*
X497667Y202565D01*
X497817Y202547D01*
X497987Y202535D01*
X498177Y202532D01*
Y201532D01*
X497987Y201528D01*
X497667Y201498D01*
X497537Y201472D01*
X497427Y201438D01*
X497337Y201397D01*
X497267Y201348D01*
X497217Y201292D01*
X497187Y201229D01*
X497177Y201158D01*
Y202905D01*
X497187Y202834D01*
D02*
G37*
G36*
X514224Y199353D02*
X513964Y199086D01*
X513394Y198412D01*
X513274Y198229D01*
X513189Y198067D01*
X513138Y197926D01*
X513123Y197807D01*
X513142Y197708D01*
X513197Y197630D01*
X511749Y198987D01*
X511832Y198937D01*
X511935Y198923D01*
X512059Y198943D01*
X512204Y198997D01*
X512370Y199087D01*
X512558Y199212D01*
X512766Y199372D01*
X513246Y199796D01*
X513517Y200060D01*
X514224Y199353D01*
D02*
G37*
G36*
X499854Y199554D02*
X499315Y199015D01*
X499152Y198696D01*
X499136Y198739D01*
X499111Y198830D01*
X499108Y198848D01*
X499110Y198860D01*
X499114Y198866D01*
X499121Y198866D01*
X499132Y198859D01*
X499147Y198847D01*
X499315Y199015D01*
X499743Y199853D01*
X499854Y199554D01*
D02*
G37*
G36*
X497187Y200275D02*
X497217Y200212D01*
X497267Y200156D01*
X497337Y200107D01*
X497427Y200066D01*
X497537Y200032D01*
X497667Y200006D01*
X497817Y199987D01*
X497987Y199976D01*
X498177Y199972D01*
Y198972D01*
X497987Y198969D01*
X497667Y198939D01*
X497537Y198913D01*
X497427Y198879D01*
X497337Y198838D01*
X497267Y198789D01*
X497217Y198733D01*
X497187Y198670D01*
X497177Y198599D01*
Y200346D01*
X497187Y200275D01*
D02*
G37*
G36*
X537235Y195649D02*
X537225Y195744D01*
X537195Y195829D01*
X537144Y195904D01*
X537073Y195969D01*
X536982Y196024D01*
X536871Y196069D01*
X536739Y196104D01*
X536587Y196129D01*
X536415Y196144D01*
X536223Y196149D01*
Y197149D01*
X536415Y197154D01*
X536587Y197169D01*
X536739Y197194D01*
X536871Y197229D01*
X536982Y197274D01*
X537073Y197329D01*
X537144Y197394D01*
X537195Y197469D01*
X537225Y197554D01*
X537235Y197649D01*
Y195649D01*
D02*
G37*
G36*
X518140Y197554D02*
X518170Y197469D01*
X518220Y197394D01*
X518290Y197329D01*
X518380Y197274D01*
X518490Y197229D01*
X518620Y197194D01*
X518770Y197169D01*
X518940Y197154D01*
X519130Y197149D01*
Y196149D01*
X518940Y196144D01*
X518770Y196129D01*
X518620Y196104D01*
X518490Y196069D01*
X518380Y196024D01*
X518290Y195969D01*
X518220Y195904D01*
X518170Y195829D01*
X518140Y195744D01*
X518130Y195649D01*
Y197649D01*
X518140Y197554D01*
D02*
G37*
G36*
X540027Y194473D02*
X540055Y194484D01*
X540071Y194474D01*
X540076Y194442D01*
X540070Y194389D01*
X540053Y194315D01*
X540025Y194218D01*
X539873Y193801D01*
X539799Y193618D01*
X539623Y193628D01*
X539740Y193485D01*
X539642Y193231D01*
X539353Y192345D01*
X539307Y192156D01*
X539245Y191816D01*
X539229Y191665D01*
X539224Y191528D01*
X538098Y193472D01*
X538167Y193378D01*
X538241Y193325D01*
X538320Y193313D01*
X538404Y193342D01*
X538493Y193412D01*
X538587Y193523D01*
X538686Y193675D01*
X538791Y193868D01*
X538793Y193872D01*
X538861Y194045D01*
X539167Y194991D01*
X539226Y195254D01*
X539264Y195490D01*
X539281Y195701D01*
X539276Y195886D01*
X539251Y196044D01*
X539204Y196176D01*
X540027Y194473D01*
D02*
G37*
G36*
X542152Y194282D02*
X542185Y193832D01*
X542206Y193722D01*
X542230Y193632D01*
X542260Y193562D01*
X542293Y193512D01*
X542331Y193482D01*
X542374Y193472D01*
X540823D01*
X540885Y193482D01*
X540941Y193512D01*
X540990Y193562D01*
X541032Y193632D01*
X541068Y193722D01*
X541097Y193832D01*
X541120Y193962D01*
X541137Y194112D01*
X541150Y194472D01*
X542150D01*
X542152Y194282D01*
D02*
G37*
G36*
X517866Y194301D02*
X517781Y194271D01*
X517706Y194220D01*
X517641Y194149D01*
X517586Y194058D01*
X517541Y193947D01*
X517506Y193815D01*
X517481Y193663D01*
X517466Y193491D01*
X517461Y193299D01*
X516461D01*
X516456Y193491D01*
X516441Y193663D01*
X516416Y193815D01*
X516381Y193947D01*
X516336Y194058D01*
X516281Y194149D01*
X516216Y194220D01*
X516141Y194271D01*
X516056Y194301D01*
X515961Y194311D01*
X517961D01*
X517866Y194301D01*
D02*
G37*
G36*
X512944D02*
X512859Y194271D01*
X512784Y194220D01*
X512719Y194149D01*
X512664Y194058D01*
X512619Y193947D01*
X512584Y193815D01*
X512559Y193663D01*
X512544Y193491D01*
X512539Y193299D01*
X511539D01*
X511534Y193491D01*
X511519Y193663D01*
X511494Y193815D01*
X511459Y193947D01*
X511414Y194058D01*
X511359Y194149D01*
X511294Y194220D01*
X511219Y194271D01*
X511134Y194301D01*
X511039Y194311D01*
X513039D01*
X512944Y194301D01*
D02*
G37*
G36*
X514811Y185427D02*
X514690Y185488D01*
X514553Y185529D01*
X514401Y185548D01*
X514234Y185547D01*
X514051Y185524D01*
X513854Y185480D01*
X513640Y185415D01*
X513412Y185329D01*
X513168Y185222D01*
X512909Y185094D01*
X512822Y186160D01*
X514533Y186642D01*
X514811Y185427D01*
D02*
G37*
G36*
X517487Y188268D02*
X517568Y187719D01*
X517703Y187217D01*
X517891Y186761D01*
X518133Y186352D01*
X518429Y185990D01*
X518778Y185673D01*
X519181Y185403D01*
X519639Y185180D01*
X520150Y185003D01*
X517289Y183564D01*
X516461Y188766D01*
X517461Y188862D01*
X517487Y188268D01*
D02*
G37*
G36*
X512539Y188766D02*
X511806Y184160D01*
X511839Y184075D01*
X511865Y183939D01*
X511882Y183758D01*
X511890Y183531D01*
X511877Y182942D01*
X511857Y182579D01*
X510024Y184413D01*
X508850Y185003D01*
X509361Y185180D01*
X509819Y185403D01*
X510222Y185673D01*
X510571Y185990D01*
X510867Y186352D01*
X511109Y186761D01*
X511297Y187217D01*
X511432Y187719D01*
X511513Y188268D01*
X511539Y188862D01*
X512539Y188766D01*
D02*
G37*
G36*
X549348Y248315D02*
X549264Y248280D01*
X549190Y248221D01*
X549126Y248139D01*
X549072Y248034D01*
X549028Y247905D01*
X548993Y247753D01*
X548969Y247577D01*
X548954Y247378D01*
X548949Y247156D01*
X547949D01*
X547944Y247378D01*
X547904Y247753D01*
X547870Y247905D01*
X547826Y248034D01*
X547772Y248139D01*
X547707Y248221D01*
X547634Y248280D01*
X547550Y248315D01*
X547456Y248326D01*
X549441D01*
X549348Y248315D01*
D02*
G37*
G36*
X544495Y243645D02*
X544360Y243389D01*
X544152Y242930D01*
X544081Y242727D01*
X544030Y242541D01*
X544001Y242372D01*
X543993Y242220D01*
X544006Y242086D01*
X544040Y241969D01*
X544096Y241870D01*
X543272Y243000D01*
X543211Y242969D01*
X543175Y242975D01*
X543164Y243018D01*
X543178Y243098D01*
X543217Y243215D01*
X543281Y243368D01*
X543484Y243786D01*
X543787Y244351D01*
X544495Y243645D01*
D02*
G37*
G36*
X571173Y240150D02*
X571164Y240226D01*
X571134Y240289D01*
X571085Y240339D01*
X571017Y240377D01*
X570929Y240402D01*
X570822Y240414D01*
X570694Y240414D01*
X570548Y240401D01*
X570382Y240375D01*
X570196Y240336D01*
X570205Y241348D01*
X570391Y241395D01*
X570557Y241449D01*
X570704Y241509D01*
X570831Y241574D01*
X570939Y241646D01*
X571027Y241723D01*
X571096Y241806D01*
X571145Y241895D01*
X571175Y241990D01*
X571185Y242091D01*
X571173Y240150D01*
D02*
G37*
G36*
X567728Y241688D02*
X567758Y241603D01*
X567809Y241529D01*
X567880Y241463D01*
X567971Y241408D01*
X568082Y241364D01*
X568214Y241329D01*
X568365Y241303D01*
X568537Y241288D01*
X568730Y241283D01*
Y240283D01*
X568537Y240279D01*
X568365Y240264D01*
X568214Y240238D01*
X568082Y240203D01*
X567971Y240159D01*
X567880Y240104D01*
X567809Y240038D01*
X567758Y239964D01*
X567728Y239879D01*
X567718Y239784D01*
Y241783D01*
X567728Y241688D01*
D02*
G37*
G36*
X584388Y240302D02*
X584034Y240155D01*
X583437Y239866D01*
X583195Y239722D01*
X582990Y239579D01*
X582822Y239438D01*
X582691Y239297D01*
X582598Y239156D01*
X582542Y239017D01*
X582524Y238879D01*
X581528Y239097D01*
X581535Y239387D01*
X581508Y240246D01*
X581483Y240528D01*
X581359Y241365D01*
X581301Y241640D01*
X581235Y241914D01*
X584388Y240302D01*
D02*
G37*
G36*
X579996Y234374D02*
X579830Y234369D01*
X579659Y234352D01*
X579482Y234323D01*
X579300Y234284D01*
X578918Y234171D01*
X578718Y234097D01*
X578302Y233917D01*
X578086Y233809D01*
X577588Y234177D01*
X577741Y233627D01*
X576740Y233154D01*
X574738Y233978D01*
X574880Y233937D01*
X575051Y233919D01*
X575251Y233925D01*
X575480Y233953D01*
X575739Y234005D01*
X576026Y234080D01*
X576689Y234298D01*
X577389Y234578D01*
X577450Y234611D01*
X577856Y234866D01*
X578001Y234981D01*
X578107Y235088D01*
X578176Y235187D01*
X578205Y235277D01*
X578196Y235359D01*
X578149Y235432D01*
X578063Y235497D01*
X579996Y234374D01*
D02*
G37*
G36*
X555356Y233874D02*
X554627Y232850D01*
X554593Y232970D01*
X554534Y233092D01*
X554449Y233213D01*
X554338Y233336D01*
X554202Y233458D01*
X554039Y233582D01*
X553851Y233706D01*
X553637Y233830D01*
X553132Y234081D01*
X553843Y234849D01*
X555356Y233874D01*
D02*
G37*
G36*
X578051Y231225D02*
X578050Y231189D01*
X578045Y231158D01*
X578037Y231129D01*
X578026Y231105D01*
X578012Y231084D01*
X577994Y231066D01*
X577974Y231052D01*
X577950Y231042D01*
X577923Y231035D01*
X577892Y231031D01*
Y232031D01*
X577923Y232038D01*
X577950Y232054D01*
X577974Y232081D01*
X577994Y232117D01*
X578012Y232163D01*
X578026Y232219D01*
X578037Y232284D01*
X578045Y232360D01*
X578051Y232541D01*
Y231225D01*
D02*
G37*
G36*
X558355Y228126D02*
X556850Y227154D01*
X556126Y227925D01*
X556391Y228041D01*
X556845Y228278D01*
X557033Y228398D01*
X557196Y228520D01*
X557333Y228643D01*
X557445Y228768D01*
X557531Y228894D01*
X557592Y229022D01*
X557627Y229151D01*
X558355Y228126D01*
D02*
G37*
G36*
X548463Y228567D02*
X548533Y228440D01*
X548629Y228319D01*
X548751Y228204D01*
X548899Y228096D01*
X549073Y227993D01*
X549272Y227897D01*
X549498Y227807D01*
X549749Y227723D01*
X550026Y227645D01*
X549334Y226810D01*
X547777Y227642D01*
X548418Y228701D01*
X548463Y228567D01*
D02*
G37*
G36*
X572466Y225174D02*
X572443Y225184D01*
X572406Y225192D01*
X572354Y225200D01*
X572207Y225213D01*
X571741Y225225D01*
X571588Y225226D01*
Y226026D01*
X571741Y226027D01*
X572443Y226068D01*
X572466Y226078D01*
Y225174D01*
D02*
G37*
G36*
X588087Y223700D02*
X588079Y223776D01*
X588055Y223844D01*
X588014Y223904D01*
X587957Y223956D01*
X587884Y224000D01*
X587795Y224036D01*
X587689Y224064D01*
X587567Y224084D01*
X587543Y224086D01*
X587520Y224084D01*
X587400Y224064D01*
X587296Y224036D01*
X587208Y224000D01*
X587136Y223956D01*
X587080Y223904D01*
X587040Y223844D01*
X587016Y223776D01*
X587008Y223700D01*
Y225300D01*
X587016Y225224D01*
X587040Y225156D01*
X587080Y225096D01*
X587136Y225044D01*
X587208Y225000D01*
X587296Y224964D01*
X587400Y224936D01*
X587520Y224916D01*
X587543Y224914D01*
X587567Y224916D01*
X587689Y224936D01*
X587795Y224964D01*
X587884Y225000D01*
X587957Y225044D01*
X588014Y225096D01*
X588055Y225156D01*
X588079Y225224D01*
X588087Y225300D01*
Y223700D01*
D02*
G37*
G36*
X566140Y226132D02*
X566216Y226110D01*
X566325Y226090D01*
X566466Y226073D01*
X567081Y226038D01*
X567984Y226026D01*
X568114Y225226D01*
X567795Y225223D01*
X566792Y225145D01*
X566609Y225110D01*
X566455Y225068D01*
X566327Y225019D01*
X566227Y224964D01*
X566154Y224903D01*
X566095Y226156D01*
X566140Y226132D01*
D02*
G37*
G36*
X579040Y222732D02*
X579030Y222813D01*
X579000Y222885D01*
X578950Y222949D01*
X578880Y223005D01*
X578790Y223051D01*
X578680Y223090D01*
X578550Y223119D01*
X578400Y223141D01*
X578230Y223153D01*
X578040Y223158D01*
Y224158D01*
X578230Y224163D01*
X578400Y224178D01*
X578550Y224202D01*
X578680Y224237D01*
X578790Y224283D01*
X578880Y224338D01*
X578950Y224402D01*
X579000Y224478D01*
X579030Y224563D01*
X579040Y224658D01*
Y222732D01*
D02*
G37*
G36*
X588087Y220200D02*
X588079Y220276D01*
X588055Y220344D01*
X588014Y220404D01*
X587957Y220456D01*
X587884Y220500D01*
X587795Y220536D01*
X587689Y220564D01*
X587567Y220584D01*
X587545Y220586D01*
X587400Y220571D01*
X587296Y220549D01*
X587208Y220521D01*
X587136Y220486D01*
X587080Y220445D01*
X587040Y220397D01*
X587016Y220344D01*
X587008Y220284D01*
Y221716D01*
X587016Y221656D01*
X587040Y221603D01*
X587080Y221555D01*
X587136Y221514D01*
X587208Y221479D01*
X587296Y221451D01*
X587400Y221428D01*
X587520Y221413D01*
X587525Y221412D01*
X587567Y221416D01*
X587689Y221436D01*
X587795Y221464D01*
X587884Y221500D01*
X587957Y221544D01*
X588014Y221596D01*
X588055Y221656D01*
X588079Y221724D01*
X588087Y221800D01*
Y220200D01*
D02*
G37*
G36*
X548898Y222927D02*
X548934Y222837D01*
X548995Y222728D01*
X549079Y222602D01*
X549188Y222458D01*
X549478Y222116D01*
X550095Y221471D01*
X549529Y220905D01*
X549296Y221135D01*
X548398Y221921D01*
X548272Y222005D01*
X548163Y222066D01*
X548072Y222102D01*
X547999Y222114D01*
X548886Y223001D01*
X548898Y222927D01*
D02*
G37*
G36*
X556502Y221905D02*
X556564Y220928D01*
X556587Y220803D01*
X556613Y220703D01*
X556643Y220625D01*
X556677Y220572D01*
X555323D01*
X555357Y220625D01*
X555387Y220703D01*
X555413Y220803D01*
X555436Y220928D01*
X555472Y221248D01*
X555493Y221662D01*
X555500Y222172D01*
X556500D01*
X556502Y221905D01*
D02*
G37*
G36*
X579040Y220284D02*
X579037Y220325D01*
X579027Y220361D01*
X579012Y220394D01*
X578990Y220422D01*
X578962Y220446D01*
X578928Y220465D01*
X578888Y220480D01*
X578842Y220491D01*
X578789Y220498D01*
X578731Y220500D01*
Y221500D01*
X578789Y221502D01*
X578842Y221509D01*
X578888Y221519D01*
X578928Y221535D01*
X578962Y221554D01*
X578990Y221578D01*
X579012Y221606D01*
X579027Y221638D01*
X579037Y221675D01*
X579040Y221716D01*
Y220284D01*
D02*
G37*
G36*
Y217005D02*
X579030Y217108D01*
X579002Y217210D01*
X578956Y217309D01*
X578891Y217406D01*
X578807Y217501D01*
X578705Y217594D01*
X578584Y217685D01*
X578445Y217774D01*
X578287Y217861D01*
X578110Y217946D01*
X578164Y219101D01*
X578330Y219030D01*
X578479Y218978D01*
X578611Y218943D01*
X578724Y218927D01*
X578821Y218928D01*
X578899Y218946D01*
X578961Y218983D01*
X579004Y219038D01*
X579031Y219110D01*
X579040Y219200D01*
Y217005D01*
D02*
G37*
G36*
X576802Y220107D02*
X576877Y220069D01*
X576977Y220011D01*
X577421Y219720D01*
X577618Y219584D01*
X577170Y218647D01*
X576925Y218812D01*
X576482Y219072D01*
X576285Y219167D01*
X576105Y219239D01*
X575941Y219286D01*
X575793Y219311D01*
X575661Y219312D01*
X575546Y219289D01*
X575447Y219243D01*
X576740Y220067D01*
X576719Y220106D01*
X576722Y220126D01*
X576750Y220126D01*
X576802Y220107D01*
D02*
G37*
G36*
X588087Y216700D02*
X588079Y216776D01*
X588055Y216844D01*
X588014Y216904D01*
X587957Y216956D01*
X587884Y217000D01*
X587795Y217036D01*
X587689Y217064D01*
X587567Y217084D01*
X587543Y217086D01*
X587520Y217084D01*
X587400Y217064D01*
X587296Y217036D01*
X587208Y217000D01*
X587136Y216956D01*
X587080Y216904D01*
X587040Y216844D01*
X587016Y216776D01*
X587008Y216700D01*
Y218300D01*
X587016Y218224D01*
X587040Y218156D01*
X587080Y218096D01*
X587136Y218044D01*
X587208Y218000D01*
X587296Y217964D01*
X587400Y217936D01*
X587520Y217916D01*
X587543Y217914D01*
X587567Y217916D01*
X587689Y217936D01*
X587795Y217964D01*
X587884Y218000D01*
X587957Y218044D01*
X588014Y218096D01*
X588055Y218156D01*
X588079Y218224D01*
X588087Y218300D01*
Y216700D01*
D02*
G37*
G36*
X570745Y214512D02*
X570849Y214450D01*
X570979Y214395D01*
X571136Y214347D01*
X571318Y214307D01*
X571528Y214274D01*
X572007Y214231D01*
X572443Y214257D01*
X572466Y214267D01*
Y214219D01*
X572631Y214215D01*
X572466Y213536D01*
Y213363D01*
X572443Y213373D01*
X572406Y213382D01*
X572354Y213389D01*
X572207Y213402D01*
X572173Y213403D01*
X570579Y213330D01*
X570668Y214582D01*
X570745Y214512D01*
D02*
G37*
G36*
X565374Y212373D02*
X565314Y212416D01*
X565224Y212455D01*
X565104Y212489D01*
X564955Y212518D01*
X564777Y212543D01*
X564330Y212580D01*
X563438Y212600D01*
Y213400D01*
X563765Y213402D01*
X564955Y213482D01*
X565104Y213511D01*
X565224Y213545D01*
X565314Y213584D01*
X565374Y213627D01*
Y212373D01*
D02*
G37*
G36*
X558740Y206116D02*
X558680Y206159D01*
X558590Y206198D01*
X558471Y206231D01*
X558321Y206261D01*
X558143Y206286D01*
X557696Y206322D01*
X556804Y206343D01*
Y207143D01*
X557131Y207145D01*
X558321Y207224D01*
X558471Y207254D01*
X558590Y207288D01*
X558680Y207326D01*
X558740Y207369D01*
Y206116D01*
D02*
G37*
G36*
X570466Y205907D02*
X570307Y206184D01*
X570229Y206356D01*
X570466Y205907D01*
D02*
G37*
G36*
X572466Y205489D02*
X572443Y205499D01*
X572406Y205507D01*
X572354Y205515D01*
X572207Y205528D01*
X571741Y205540D01*
X571588Y205541D01*
Y206341D01*
X571741Y206342D01*
X572443Y206383D01*
X572466Y206393D01*
Y205489D01*
D02*
G37*
G36*
X570711Y205483D02*
X570757Y205495D01*
X570796Y205499D01*
X570827Y205494D01*
X570851Y205480D01*
X570868Y205456D01*
X570877Y205424D01*
X570878Y205384D01*
X570871Y205334D01*
X570858Y205275D01*
X570836Y205208D01*
X570466Y205907D01*
X570711Y205483D01*
D02*
G37*
G36*
X547403Y204375D02*
X547412Y204271D01*
X547428Y204170D01*
X547449Y204071D01*
X547477Y203975D01*
X547511Y203881D01*
X547551Y203790D01*
X547598Y203701D01*
X547650Y203615D01*
X547709Y203532D01*
X546291D01*
X546350Y203615D01*
X546403Y203701D01*
X546449Y203790D01*
X546489Y203881D01*
X546523Y203975D01*
X546551Y204071D01*
X546572Y204170D01*
X546588Y204271D01*
X546597Y204375D01*
X546600Y204482D01*
X547400D01*
X547403Y204375D01*
D02*
G37*
G36*
X575055Y203489D02*
X574943Y203472D01*
X574831Y203443D01*
X574719Y203402D01*
X574606Y203350D01*
X574492Y203287D01*
X574378Y203212D01*
X574264Y203125D01*
X574149Y203027D01*
X574034Y202917D01*
X572990Y203004D01*
X573077Y203098D01*
X573143Y203181D01*
X573188Y203255D01*
X573211Y203318D01*
X573213Y203372D01*
X573194Y203416D01*
X573153Y203451D01*
X573091Y203475D01*
X573008Y203490D01*
X572903Y203495D01*
X575166D01*
X575055Y203489D01*
D02*
G37*
G36*
X573202Y202129D02*
X571792Y201383D01*
X571429Y202555D01*
X571573Y202488D01*
X571720Y202447D01*
X571870Y202429D01*
X572022Y202437D01*
X572177Y202469D01*
X572334Y202527D01*
X572494Y202609D01*
X572657Y202716D01*
X572822Y202848D01*
X572990Y203004D01*
X573202Y202129D01*
D02*
G37*
G36*
X551335Y202763D02*
X550722Y202172D01*
X550610Y202426D01*
X550493Y202656D01*
X550371Y202861D01*
X550243Y203043D01*
X550110Y203200D01*
X549972Y203333D01*
X549829Y203442D01*
X549680Y203527D01*
X549526Y203588D01*
X549367Y203624D01*
X550377Y204373D01*
X551335Y202763D01*
D02*
G37*
G36*
X547130Y202124D02*
X546966Y202088D01*
X546813Y202031D01*
X546673Y201954D01*
X546545Y201856D01*
X546430Y201737D01*
X546327Y201598D01*
X546237Y201437D01*
X546159Y201256D01*
X546093Y201055D01*
X546040Y200832D01*
X545379Y201441D01*
X546122Y202880D01*
X547130Y202124D01*
D02*
G37*
G36*
X549060Y201339D02*
X548982Y200671D01*
X549178Y200175D01*
X549118Y200199D01*
X549024Y200246D01*
X548988Y200268D01*
X548961Y200289D01*
X548943Y200309D01*
X548932Y200329D01*
X548930Y200348D01*
X548935Y200366D01*
X548949Y200383D01*
X548982Y200671D01*
X548701Y201383D01*
X549060Y201339D01*
D02*
G37*
G36*
X551893Y199472D02*
X551934Y198769D01*
X551944Y198746D01*
X551040D01*
X551050Y198769D01*
X551059Y198807D01*
X551066Y198858D01*
X551079Y199005D01*
X551092Y199472D01*
X551092Y199625D01*
X551892D01*
X551893Y199472D01*
D02*
G37*
G36*
X545987D02*
X546029Y198769D01*
X546039Y198746D01*
X545134D01*
X545144Y198769D01*
X545153Y198807D01*
X545161Y198858D01*
X545174Y199005D01*
X545186Y199472D01*
X545187Y199625D01*
X545987D01*
X545987Y199472D01*
D02*
G37*
G36*
X548264Y199504D02*
X548213Y199371D01*
X548074Y198925D01*
X548055Y198835D01*
X548043Y198753D01*
X548037Y198680D01*
X548037Y198615D01*
X548045Y198559D01*
X547209Y198905D01*
X547198Y198904D01*
X547196Y198920D01*
X547201Y198954D01*
X547214Y199005D01*
X547264Y199159D01*
X547461Y199676D01*
X548264Y199504D01*
D02*
G37*
G36*
X589087Y200428D02*
X588824Y198354D01*
X587841Y198536D01*
X587895Y198847D01*
X587984Y199630D01*
X587990Y199839D01*
X587983Y200024D01*
X587964Y200183D01*
X587933Y200317D01*
X587890Y200425D01*
X587834Y200507D01*
X589087Y200428D01*
D02*
G37*
G36*
X573020Y195689D02*
X573010Y195784D01*
X572980Y195869D01*
X572929Y195944D01*
X572858Y196009D01*
X572767Y196064D01*
X572656Y196109D01*
X572524Y196144D01*
X572372Y196169D01*
X572200Y196184D01*
X572008Y196189D01*
Y197189D01*
X572200Y197194D01*
X572372Y197209D01*
X572524Y197234D01*
X572656Y197269D01*
X572767Y197314D01*
X572858Y197369D01*
X572929Y197434D01*
X572980Y197509D01*
X573010Y197594D01*
X573020Y197689D01*
Y195689D01*
D02*
G37*
G36*
X567728Y197594D02*
X567758Y197509D01*
X567809Y197434D01*
X567880Y197369D01*
X567971Y197314D01*
X568082Y197269D01*
X568214Y197234D01*
X568365Y197209D01*
X568537Y197194D01*
X568730Y197189D01*
Y196189D01*
X568537Y196184D01*
X568365Y196169D01*
X568214Y196144D01*
X568082Y196109D01*
X567971Y196064D01*
X567880Y196009D01*
X567809Y195944D01*
X567758Y195869D01*
X567728Y195784D01*
X567718Y195689D01*
Y197689D01*
X567728Y197594D01*
D02*
G37*
G36*
X573584Y195129D02*
X574463Y195134D01*
X574392Y195138D01*
X574807Y195135D01*
X575369Y195138D01*
X575252Y195132D01*
X576134Y195126D01*
X576089Y195121D01*
X576050Y195104D01*
X576018Y195076D01*
X575990Y195037D01*
X575969Y194987D01*
X575953Y194926D01*
X575944Y194853D01*
X575940Y194770D01*
X575941Y194675D01*
X575949Y194569D01*
X574949D01*
X574934Y194677D01*
X574910Y194773D01*
X574876Y194858D01*
X574834Y194932D01*
X574783Y194994D01*
X574775Y195001D01*
X574741Y194985D01*
X574623Y194919D01*
X574508Y194841D01*
X574396Y194751D01*
X574286Y194648D01*
X574178Y194534D01*
X573584Y195129D01*
Y195129D01*
X574178Y194534D01*
X574033Y194387D01*
X573598Y193885D01*
X573526Y193781D01*
X573467Y193687D01*
X573424Y193601D01*
X573394Y193525D01*
X573379Y193457D01*
X572394Y194442D01*
X572462Y194457D01*
X572538Y194487D01*
X572624Y194530D01*
X572718Y194589D01*
X572822Y194661D01*
X573055Y194850D01*
X573323Y195096D01*
X573356Y195128D01*
X573008Y195126D01*
X573078Y195127D01*
X573202Y195136D01*
X573256Y195145D01*
X573305Y195155D01*
X573348Y195168D01*
X573387Y195183D01*
X573420Y195200D01*
X573448Y195220D01*
X573471Y195241D01*
X573584Y195129D01*
D02*
G37*
G36*
X549926Y195262D02*
X549966Y194632D01*
X549976D01*
X549967Y194612D01*
X549990Y194253D01*
X550019Y194072D01*
X550054Y193921D01*
X550094Y193798D01*
X550139Y193703D01*
X550189Y193638D01*
X548936Y193614D01*
X548972Y193668D01*
X549004Y193753D01*
X549032Y193869D01*
X549056Y194015D01*
X549094Y194399D01*
X549094Y194400D01*
X549081Y194609D01*
X549071Y194632D01*
X549104D01*
X549116Y194905D01*
X549124Y195534D01*
X549924Y195586D01*
X549926Y195262D01*
D02*
G37*
G36*
X575952Y194282D02*
X575974Y193962D01*
X575993Y193832D01*
X576018Y193722D01*
X576048Y193632D01*
X576084Y193562D01*
X576125Y193512D01*
X576172Y193482D01*
X576224Y193472D01*
X574673D01*
X574726Y193482D01*
X574773Y193512D01*
X574814Y193562D01*
X574850Y193632D01*
X574880Y193722D01*
X574905Y193832D01*
X574924Y193962D01*
X574938Y194112D01*
X574949Y194472D01*
X575949D01*
X575952Y194282D01*
D02*
G37*
G36*
X563805Y193229D02*
X563814Y193194D01*
X563829Y193163D01*
X563852Y193137D01*
X563882Y193114D01*
X563918Y193096D01*
X563962Y193081D01*
X564012Y193071D01*
X564069Y193065D01*
X564134Y193063D01*
X562294D01*
X562389Y193065D01*
X562550Y193081D01*
X562616Y193096D01*
X562672Y193114D01*
X562718Y193137D01*
X562754Y193163D01*
X562780Y193194D01*
X562796Y193229D01*
X562803Y193268D01*
X563803D01*
X563805Y193229D01*
D02*
G37*
G36*
X587164Y194333D02*
X585884Y192679D01*
X584942Y193508D01*
X585039Y193527D01*
X585146Y193573D01*
X585263Y193646D01*
X585389Y193745D01*
X585524Y193871D01*
X585668Y194023D01*
X585985Y194407D01*
X586339Y194898D01*
X587164Y194333D01*
D02*
G37*
G36*
X564456Y182816D02*
X564417Y182865D01*
X564330Y182960D01*
X561910Y185383D01*
X562586Y186121D01*
X562782Y185954D01*
X562999Y185824D01*
X563237Y185731D01*
X563496Y185676D01*
X563775Y185658D01*
X564074Y185678D01*
X564395Y185735D01*
X564736Y185829D01*
X565098Y185961D01*
X565480Y186131D01*
X564456Y182816D01*
D02*
G37*
G36*
X557633Y184664D02*
X554639Y186247D01*
X555068Y186406D01*
X555452Y186588D01*
X555791Y186794D01*
X556084Y187024D01*
X556333Y187277D01*
X556536Y187555D01*
X556694Y187857D01*
X556807Y188182D01*
X556875Y188532D01*
X556898Y188905D01*
X557898D01*
X557633Y184664D01*
D02*
G37*
%LPC*%
G36*
X504263Y207381D02*
X504258Y207380D01*
Y206973D01*
X504301Y207037D01*
X504338Y207135D01*
X504344Y207226D01*
X504317Y207310D01*
X504263Y207381D01*
D02*
G37*
%LPD*%
G54D14*
X519000Y236406D02*
D03*
Y230500D02*
D03*
Y217910D02*
D03*
Y212004D02*
D03*
G54D15*
X514476Y230000D02*
D03*
X511524D02*
D03*
Y218500D02*
D03*
X514476D02*
D03*
X589047Y224500D02*
D03*
X592000D02*
D03*
X589047Y221000D02*
D03*
X592000D02*
D03*
X589047Y217500D02*
D03*
X592000D02*
D03*
G54D16*
X537713Y240784D02*
D03*
X539681D02*
D03*
X541650D02*
D03*
X543618D02*
D03*
X545587D02*
D03*
X547555D02*
D03*
X549524D02*
D03*
X551492D02*
D03*
X553461D02*
D03*
X555429D02*
D03*
X557398D02*
D03*
X559366D02*
D03*
X561335D02*
D03*
X563303D02*
D03*
X565272D02*
D03*
X567240D02*
D03*
Y196689D02*
D03*
X565272D02*
D03*
X563303D02*
D03*
X561335D02*
D03*
X559366D02*
D03*
X557398D02*
D03*
X555429D02*
D03*
X553461D02*
D03*
X551492D02*
D03*
X549524D02*
D03*
X547555D02*
D03*
X545587D02*
D03*
X543618D02*
D03*
X541650D02*
D03*
X539681D02*
D03*
X537713D02*
D03*
G54D17*
X574524Y233500D02*
D03*
Y231532D02*
D03*
Y229563D02*
D03*
Y227594D02*
D03*
Y225626D02*
D03*
Y223657D02*
D03*
Y221689D02*
D03*
Y219721D02*
D03*
Y217752D02*
D03*
Y215784D02*
D03*
Y213815D02*
D03*
Y211846D02*
D03*
Y209878D02*
D03*
Y207909D02*
D03*
Y205941D02*
D03*
Y203972D02*
D03*
X530429D02*
D03*
Y205941D02*
D03*
Y207909D02*
D03*
Y209878D02*
D03*
Y211846D02*
D03*
Y213815D02*
D03*
Y215784D02*
D03*
Y217752D02*
D03*
Y219721D02*
D03*
Y221689D02*
D03*
Y223657D02*
D03*
Y225626D02*
D03*
Y227594D02*
D03*
Y229563D02*
D03*
Y231532D02*
D03*
Y233500D02*
D03*
G54D18*
X574571Y196689D02*
D03*
X580476D02*
D03*
X562571Y191500D02*
D03*
X568476D02*
D03*
X505809Y207500D02*
D03*
X511715D02*
D03*
X528071Y241500D02*
D03*
X533976D02*
D03*
G54D19*
X538449Y192500D02*
D03*
X541598D02*
D03*
X575449D02*
D03*
X578598D02*
D03*
X540024Y244500D02*
D03*
X536874D02*
D03*
G54D20*
X618000Y196143D02*
D03*
Y216143D02*
D03*
G54D21*
X525524Y222425D02*
D03*
Y225575D02*
D03*
X524929Y209425D02*
D03*
Y212575D02*
D03*
X579024Y235150D02*
D03*
Y232000D02*
D03*
G54D22*
X495262Y231039D02*
D03*
Y235961D02*
D03*
G54D23*
X483845Y221000D02*
D03*
Y246000D02*
D03*
G54D24*
X501262Y236453D02*
D03*
Y230547D02*
D03*
G54D25*
X484000Y212760D02*
D03*
Y186185D02*
D03*
G54D26*
Y193370D02*
D03*
G54D27*
Y204000D02*
D03*
G54D28*
X494138Y209266D02*
D03*
Y189679D02*
D03*
G54D29*
X494472Y194354D02*
D03*
Y196913D02*
D03*
Y199472D02*
D03*
Y202031D02*
D03*
Y204591D02*
D03*
G54D30*
X502000Y185232D02*
D03*
X527000D02*
D03*
G54D31*
X512039Y196649D02*
D03*
X516961D02*
D03*
G54D32*
X585386Y221000D02*
D03*
X580661Y221000D02*
D03*
G54D33*
X585386Y217961D02*
D03*
Y224039D02*
D03*
X580661Y217961D02*
D03*
Y224039D02*
D03*
G54D57*
X585571Y193195D02*
X586230Y193922D01*
X586815Y194710D01*
X587319Y195552D01*
X587739Y196439D01*
X588069Y197363D01*
X588308Y198315D01*
X588452Y199285D01*
X588500Y200266D01*
X573825Y194888D02*
X574377Y195714D01*
X574571Y196689D01*
X564008Y207492D02*
X563280Y208152D01*
X562492Y208736D01*
X561650Y209241D01*
X560763Y209660D01*
X559839Y209991D01*
X558887Y210229D01*
X557917Y210373D01*
X556936Y210421D01*
X567240Y201092D02*
X567175Y202090D01*
X566980Y203071D01*
X566658Y204019D01*
X566216Y204916D01*
X565660Y205748D01*
X565000Y206500D01*
X537713Y240784D02*
X536919Y241314D01*
X535983Y241500D01*
X536874Y242808D02*
X537092Y241712D01*
X537713Y240784D01*
X538449Y251000D02*
X537780Y250185D01*
X537283Y249256D01*
X536977Y248247D01*
X536874Y247198D01*
X556311Y227000D02*
X557291Y227048D01*
X558261Y227192D01*
X559213Y227431D01*
X560137Y227761D01*
X561025Y228181D01*
X561866Y228685D01*
X562654Y229270D01*
X563382Y229929D01*
X554000Y227000D02*
X554944Y227074D01*
X555865Y227295D01*
X556740Y227658D01*
X557548Y228153D01*
X558268Y228768D01*
X545350Y244500D02*
X544143Y244000D01*
X547568Y248872D02*
X548220Y249849D01*
X548449Y251000D01*
X545793Y244500D02*
X546809Y244702D01*
X547671Y245278D01*
X548247Y246140D01*
X548449Y247156D01*
X519000Y217910D02*
X518347Y218347D01*
X517577Y218500D01*
X517293Y230000D02*
X518500Y230500D01*
X514602Y236406D02*
X513584Y236326D01*
X512592Y236088D01*
X511649Y235698D01*
X510779Y235165D01*
X510003Y234503D01*
X510003Y234503D02*
X510309Y235246D01*
X510000Y234500D02*
X510003Y234503D01*
X507796Y232296D02*
X507105Y231487D01*
X506549Y230579D01*
X506141Y229596D01*
X505893Y228561D01*
X505809Y227500D01*
X498785Y204591D02*
X499759Y204638D01*
X500723Y204781D01*
X501669Y205018D01*
X502587Y205347D01*
X503468Y205764D01*
X504304Y206265D01*
X505087Y206845D01*
X505809Y207500D01*
X505400Y207909D02*
X505809Y208898D01*
X516000Y214207D02*
X516500Y213000D01*
X517204Y212460D01*
X518024Y212120D01*
X518904Y212004D01*
X575041Y233500D02*
X576140Y233608D01*
X577196Y233929D01*
X578170Y234449D01*
X579024Y235150D01*
X555366Y184000D02*
X556073Y184828D01*
X556642Y185756D01*
X557058Y186761D01*
X557312Y187820D01*
X557398Y188905D01*
X562232Y185768D02*
X562952Y185153D01*
X563760Y184658D01*
X564635Y184295D01*
X565556Y184074D01*
X566500Y184000D01*
X559366Y189530D02*
X559531Y188702D01*
X560000Y188000D01*
X577892Y231532D02*
X579024Y232000D01*
X555365Y225047D02*
X554769Y226083D01*
X554000Y227000D01*
X556000Y222172D02*
X555929Y223157D01*
X555715Y224122D01*
X555365Y225047D01*
X547555Y228500D02*
X548331Y227863D01*
X549217Y227390D01*
X550177Y227098D01*
X551176Y227000D01*
X549922D02*
X548833Y226914D01*
X547771Y226659D01*
X546762Y226241D01*
X545830Y225671D01*
X545000Y224961D01*
X547096Y211000D02*
X547737Y210572D01*
X548492Y210421D01*
X541650Y217493D02*
X541842Y216526D01*
X542389Y215706D01*
X530500Y235500D02*
X530429Y235329D01*
X575449Y194569D02*
X575221Y195717D01*
X574571Y196689D01*
X543496Y223457D02*
X542853Y222705D01*
X542337Y221862D01*
X541958Y220948D01*
X541727Y219986D01*
X541650Y219000D01*
X571095Y233500D02*
X570115Y233452D01*
X569144Y233308D01*
X568192Y233069D01*
X567268Y232739D01*
X566381Y232319D01*
X565539Y231815D01*
X564751Y231230D01*
X564024Y230571D01*
X541650Y225708D02*
X541602Y226688D01*
X541457Y227659D01*
X541219Y228611D01*
X540888Y229535D01*
X540469Y230422D01*
X539964Y231264D01*
X539380Y232052D01*
X538721Y232779D01*
X579739Y223657D02*
X580661Y224039D01*
X577524Y221500D02*
X577067Y221689D01*
X577524Y221500D02*
X578731Y221000D01*
X577524Y219000D02*
X578259Y218436D01*
X579114Y218082D01*
X580033Y217961D01*
X577524Y219000D02*
X576726Y219533D01*
X575784Y219721D01*
X562571Y191500D02*
X563113Y192311D01*
X563303Y193268D01*
X538449Y192500D02*
X539117Y193371D01*
X539538Y194386D01*
X539681Y195475D01*
X541598Y192500D02*
X541650Y192624D01*
X526022Y209878D02*
X524929Y209425D01*
X525524Y222425D02*
X526339Y221880D01*
X527301Y221689D01*
X541650Y201500D02*
X541586Y202468D01*
X541397Y203419D01*
X541085Y204337D01*
X540656Y205207D01*
X540118Y206013D01*
X539478Y206743D01*
X538721Y207500D02*
X537922Y208200D01*
X537039Y208790D01*
X536087Y209260D01*
X535081Y209601D01*
X534039Y209808D01*
X532980Y209878D01*
X499500Y199200D02*
X498843Y199472D01*
X500000Y201500D02*
X498717Y202031D01*
X524460Y201500D02*
X525405Y201553D01*
X526338Y201712D01*
X527248Y201974D01*
X528123Y202336D01*
X528951Y202794D01*
X529723Y203342D01*
X530429Y203972D01*
X512906Y198742D02*
X512264Y197782D01*
X512039Y196649D01*
X518017Y201500D02*
X516909Y201391D01*
X515843Y201067D01*
X514861Y200542D01*
X514000Y199836D01*
X509502Y182734D02*
X510150Y183459D01*
X510712Y184252D01*
X511182Y185102D01*
X511553Y186000D01*
X511822Y186934D01*
X511985Y187892D01*
X512039Y188862D01*
X515286Y186175D02*
X514182Y186066D01*
X513121Y185744D01*
X512144Y185222D01*
X511287Y184519D01*
X516961Y188862D02*
X517015Y187892D01*
X517178Y186933D01*
X517447Y185999D01*
X517819Y185101D01*
X518290Y184250D01*
X518852Y183457D01*
X519500Y182732D01*
X555366Y233134D02*
X554545Y233835D01*
X553624Y234400D01*
X552627Y234813D01*
X551577Y235065D01*
X550500Y235150D01*
X543101Y236080D02*
X544132Y235391D01*
X545348Y235150D01*
X541650Y239585D02*
X541745Y238618D01*
X542027Y237688D01*
X542485Y236831D01*
X543101Y236080D01*
X544143Y244000D02*
X543618Y242733D01*
X569380Y240784D02*
X570296Y240856D01*
X571191Y241070D01*
X572040Y241422D01*
X572824Y241903D01*
X573524Y242500D01*
X583524D02*
X582887Y241724D01*
X582413Y240839D01*
X582122Y239878D01*
X582024Y238879D01*
X580469Y229563D02*
X581524Y230000D01*
X582024Y231207D01*
X499500Y199200D02*
X499984Y199000D01*
X572500Y193563D02*
X573825Y194888D01*
X575449Y192500D02*
Y194569D01*
X585000Y192624D02*
X585571Y193195D01*
X588500Y200266D02*
Y201092D01*
X548492Y210421D02*
X556936D01*
X567240Y196689D02*
Y201092D01*
Y196689D02*
X574571D01*
X564008Y207492D02*
X565000Y206500D01*
X533976Y241500D02*
X535983D01*
X536874Y244500D02*
Y247198D01*
Y242808D02*
Y244500D01*
X538497Y251000D02*
Y251467D01*
X558268Y228768D02*
X558500Y229000D01*
X545350Y244500D02*
X545793D01*
X548449Y247156D02*
Y251000D01*
X514476Y218500D02*
X517577D01*
X514476Y230000D02*
X517293D01*
X514602Y236406D02*
X519000D01*
X507796Y232296D02*
X510000Y234500D01*
X510309Y235246D02*
Y236240D01*
X505809Y208898D02*
Y227500D01*
X516000Y214207D02*
Y215000D01*
X508910Y230000D02*
X511524D01*
X502500Y207909D02*
X505400D01*
X505809Y207500D01*
X518904Y212004D02*
X519000D01*
X571095Y233500D02*
X574524D01*
X575041D01*
X557398Y188905D02*
Y196689D01*
X560000Y188000D02*
X562232Y185768D01*
X559366Y189530D02*
Y196689D01*
X556000Y220000D02*
Y222172D01*
X574524Y231532D02*
X577892D01*
X551176Y227000D02*
X554000D01*
X556311D01*
X549922D02*
X551176D01*
X542389Y215706D02*
X547096Y211000D01*
X541650Y217493D02*
Y219000D01*
Y201500D02*
Y217493D01*
X543496Y223457D02*
X545000Y224961D01*
X530429Y233500D02*
Y235329D01*
X541650Y219000D02*
Y225708D01*
X563382Y229929D02*
X564024Y230571D01*
X534000Y237500D02*
X538721Y232779D01*
X574524Y223657D02*
X579739D01*
X578731Y221000D02*
X580661D01*
X574524Y221689D02*
X577067D01*
X574524Y219721D02*
X575784D01*
X563303Y193268D02*
Y196689D01*
X539681Y195475D02*
Y196689D01*
X541650D02*
Y201500D01*
Y192624D02*
Y196689D01*
X530429Y209878D02*
X532980D01*
X526022D02*
X530429D01*
X527301Y221689D02*
X530429D01*
X538721Y207500D02*
X539478Y206743D01*
X494472Y204591D02*
X498785D01*
X494472Y199472D02*
X498843D01*
X494472Y202031D02*
X498717D01*
X518017Y201500D02*
X524460D01*
X512906Y198742D02*
X514000Y199836D01*
X512039Y188862D02*
Y196649D01*
X516961Y188862D02*
Y196649D01*
X537713D01*
Y196689D01*
X509502Y182734D02*
X511287Y184519D01*
X509500Y182732D02*
X509502Y182734D01*
X555366Y233134D02*
X555500Y233000D01*
X541650Y239585D02*
Y240784D01*
X545348Y235150D02*
X550500D01*
X543618Y240784D02*
Y242733D01*
X567240Y240784D02*
X569380D01*
X574524Y229563D02*
X580469D01*
X582024Y231207D02*
Y238879D01*
X580033Y217961D02*
X580661D01*
G54D58*
X571065Y205941D02*
X570000Y205500D01*
X571000Y201780D02*
X571832Y201890D01*
X572607Y202211D01*
X573273Y202721D01*
X570000Y214000D02*
X570447Y213815D01*
X549164Y206740D02*
X548075Y206406D01*
X547287Y205584D01*
X547000Y204482D01*
X549261Y206743D02*
X549164Y206740D01*
X546500Y202500D02*
X545824Y201488D01*
X545587Y200295D01*
X549524Y193124D02*
X549575Y193000D01*
X555071Y215929D02*
X555798Y215270D01*
X556586Y214685D01*
X557428Y214181D01*
X558315Y213761D01*
X559239Y213431D01*
X560191Y213192D01*
X561162Y213048D01*
X562142Y213000D01*
X551492Y200295D02*
X551390Y201337D01*
X551085Y202339D01*
X550592Y203263D01*
X549927Y204073D01*
X548500Y200500D02*
X547987Y199832D01*
X547665Y199054D01*
X547555Y198219D01*
X565804Y225626D02*
X565500Y225500D01*
X549500Y201000D02*
X548646Y200646D01*
X586498Y224500D02*
X585386Y224039D01*
Y217961D02*
X586498Y217500D01*
X571065Y205941D02*
X574524D01*
X573273Y202721D02*
X574524Y203972D01*
X549261Y206743D02*
X559366D01*
X562142Y213000D02*
X566000D01*
X570447Y213815D02*
X574524D01*
X547000Y203000D02*
Y204482D01*
X546500Y202500D02*
X547000Y203000D01*
X549524Y193124D02*
Y196689D01*
X548000Y223000D02*
X555071Y215929D01*
X548500Y200500D02*
X548646Y200646D01*
X551492Y196689D02*
Y200295D01*
X549500Y204500D02*
X549927Y204073D01*
X565804Y225626D02*
X574524D01*
X547555Y196689D02*
Y198219D01*
X545587Y196689D02*
Y200295D01*
X586498Y224500D02*
X589047D01*
X585386Y221000D02*
X589047D01*
X586498Y217500D02*
X589047D01*
G54D59*
X490500Y238000D02*
X491300Y237343D01*
X492214Y236855D01*
X493205Y236554D01*
X494235Y236453D01*
X515000Y251500D02*
X515123Y250563D01*
X515485Y249689D01*
X516061Y248939D01*
X494235Y236453D02*
X501262D01*
X516061Y248939D02*
X521000Y244000D01*
X533976Y241500D02*
X534000Y241476D01*
Y237500D02*
Y241476D01*
G54D60*
X583524Y242500D02*
D03*
X576500Y184000D02*
D03*
X555366D02*
D03*
X566500D02*
D03*
X490500Y228000D02*
D03*
Y238000D02*
D03*
X509500Y182732D02*
D03*
X519500D02*
D03*
G54D61*
X573524Y242500D02*
D03*
G54D62*
X523748Y251000D02*
D03*
X538449D02*
D03*
X548449D02*
D03*
X558449D02*
D03*
G54D63*
X584000Y196683D02*
D03*
X585000Y192624D02*
D03*
X588500Y201092D02*
D03*
X570000Y205500D02*
D03*
X571000Y201780D02*
D03*
X570000Y214000D02*
D03*
X566000Y213000D02*
D03*
X559366Y206743D02*
D03*
X510309Y236240D02*
D03*
X516000Y215000D02*
D03*
X508910Y230000D02*
D03*
X502500Y207909D02*
D03*
X551000Y214500D02*
D03*
X556000Y220000D02*
D03*
X549500Y204500D02*
D03*
X565500Y225500D02*
D03*
X558500Y229000D02*
D03*
X547555Y228500D02*
D03*
X548000Y223000D02*
D03*
X549500Y201000D02*
D03*
X547000Y203000D02*
D03*
X549575Y193000D02*
D03*
X493500Y217000D02*
D03*
X590000Y238500D02*
D03*
X572000Y189500D02*
D03*
X532500Y192624D02*
D03*
X524929Y218000D02*
D03*
X536500Y229000D02*
D03*
X525000Y244500D02*
D03*
X572500Y193563D02*
D03*
X499984Y199000D02*
D03*
X500000Y201500D02*
D03*
X515286Y186175D02*
D03*
X555500Y233000D02*
D03*
X507371Y238000D02*
D03*
G54D64*
X521000Y244000D02*
D03*
X515000Y251500D02*
D03*
X530500Y235500D02*
D03*
X534000Y237500D02*
D03*
M02*
