G04*
G04 #@! TF.GenerationSoftware,Altium Limited,Altium Designer,20.1.14 (287)*
G04*
G04 Layer_Color=32896*
%FSLAX25Y25*%
%MOIN*%
G70*
G04*
G04 #@! TF.SameCoordinates,2E25AB4E-2253-42FB-919D-FDFC0A88D39C*
G04*
G04*
G04 #@! TF.FilePolarity,Positive*
G04*
G01*
G75*
%ADD125C,0.00400*%
G36*
X-199712Y36389D02*
X-198826D01*
Y34814D01*
X-199712D01*
Y36389D01*
D02*
G37*
G36*
X-182423Y11527D02*
Y10641D01*
X-183998D01*
Y11527D01*
X-182423D01*
D02*
G37*
G36*
X-140880Y1151D02*
Y2037D01*
X-139305D01*
Y1151D01*
X-140880D01*
D02*
G37*
G54D125*
X-142258Y1840D02*
X-136352D01*
Y-916D02*
Y1840D01*
X-142258Y-916D02*
X-136352D01*
X-142258D02*
Y1840D01*
X-141077Y-719D02*
Y1643D01*
X-137533Y-719D02*
Y1643D01*
X-201582Y33042D02*
X-199220D01*
X-201582Y36586D02*
X-199220D01*
X-201779Y37767D02*
X-199023D01*
X-201779Y31861D02*
Y37767D01*
Y31861D02*
X-199023D01*
Y37767D01*
X-186951Y10838D02*
X-181045D01*
X-186951D02*
Y13594D01*
X-181045D01*
Y10838D02*
Y13594D01*
X-182226Y11035D02*
Y13397D01*
X-185770Y11035D02*
Y13397D01*
M02*
