G04*
G04 #@! TF.GenerationSoftware,Altium Limited,Altium Designer,18.1.6 (161)*
G04*
G04 Layer_Physical_Order=2*
G04 Layer_Color=36540*
%FSLAX25Y25*%
%MOIN*%
G70*
G01*
G75*
%ADD57C,0.01000*%
%ADD60C,0.04724*%
%ADD62O,0.03937X0.05906*%
%ADD63C,0.01772*%
%ADD65C,0.00787*%
G36*
X611000Y179712D02*
X521215D01*
X521142Y179855D01*
X521082Y180212D01*
X521613Y180619D01*
X522087Y181238D01*
X522386Y181958D01*
X522488Y182732D01*
X522386Y183505D01*
X522087Y184226D01*
X521613Y184845D01*
X520994Y185319D01*
X520273Y185618D01*
X519500Y185720D01*
X518727Y185618D01*
X518006Y185319D01*
X517387Y184845D01*
X516913Y184226D01*
X516614Y183505D01*
X516512Y182732D01*
X516614Y181958D01*
X516913Y181238D01*
X517387Y180619D01*
X517918Y180212D01*
X517858Y179855D01*
X517785Y179712D01*
X511215D01*
X511142Y179855D01*
X511082Y180212D01*
X511613Y180619D01*
X512087Y181238D01*
X512386Y181958D01*
X512488Y182732D01*
X512386Y183505D01*
X512087Y184226D01*
X511613Y184845D01*
X510994Y185319D01*
X510273Y185618D01*
X509500Y185720D01*
X508727Y185618D01*
X508006Y185319D01*
X507387Y184845D01*
X506913Y184226D01*
X506614Y183505D01*
X506512Y182732D01*
X506614Y181958D01*
X506913Y181238D01*
X507387Y180619D01*
X507918Y180212D01*
X507858Y179855D01*
X507785Y179712D01*
X482795D01*
X478712Y183795D01*
Y199000D01*
Y251205D01*
X481795Y254288D01*
X536410D01*
X536574Y253915D01*
X536595Y253788D01*
X536205Y253280D01*
X535946Y252655D01*
X535858Y251984D01*
Y250016D01*
X535946Y249345D01*
X536205Y248720D01*
X536617Y248184D01*
X537153Y247772D01*
X537778Y247513D01*
X538449Y247425D01*
X539119Y247513D01*
X539744Y247772D01*
X540281Y248184D01*
X540692Y248720D01*
X540951Y249345D01*
X541040Y250016D01*
Y251984D01*
X540951Y252655D01*
X540692Y253280D01*
X540302Y253788D01*
X540324Y253915D01*
X540487Y254288D01*
X546410D01*
X546574Y253915D01*
X546595Y253788D01*
X546205Y253280D01*
X545946Y252655D01*
X545858Y251984D01*
Y250016D01*
X545946Y249345D01*
X546205Y248720D01*
X546617Y248184D01*
X547154Y247772D01*
X547778Y247513D01*
X548449Y247425D01*
X549119Y247513D01*
X549744Y247772D01*
X550281Y248184D01*
X550692Y248720D01*
X550951Y249345D01*
X551040Y250016D01*
Y251984D01*
X550951Y252655D01*
X550692Y253280D01*
X550302Y253788D01*
X550324Y253915D01*
X550487Y254288D01*
X556410D01*
X556574Y253915D01*
X556595Y253788D01*
X556205Y253280D01*
X555946Y252655D01*
X555858Y251984D01*
Y250016D01*
X555946Y249345D01*
X556205Y248720D01*
X556617Y248184D01*
X557154Y247772D01*
X557778Y247513D01*
X558449Y247425D01*
X559119Y247513D01*
X559744Y247772D01*
X560281Y248184D01*
X560692Y248720D01*
X560951Y249345D01*
X561039Y250016D01*
Y251984D01*
X560951Y252655D01*
X560692Y253280D01*
X560302Y253788D01*
X560324Y253915D01*
X560487Y254288D01*
X611000D01*
Y179712D01*
D02*
G37*
%LPC*%
G36*
X515000Y252724D02*
X514532Y252630D01*
X514135Y252365D01*
X513870Y251968D01*
X513776Y251500D01*
X513870Y251032D01*
X514135Y250635D01*
X514532Y250370D01*
X515000Y250276D01*
X515468Y250370D01*
X515865Y250635D01*
X516130Y251032D01*
X516223Y251500D01*
X516130Y251968D01*
X515865Y252365D01*
X515468Y252630D01*
X515000Y252724D01*
D02*
G37*
G36*
X521000Y245223D02*
X520532Y245130D01*
X520135Y244865D01*
X519870Y244468D01*
X519776Y244000D01*
X519870Y243532D01*
X520135Y243135D01*
X520532Y242870D01*
X521000Y242776D01*
X521468Y242870D01*
X521865Y243135D01*
X522130Y243532D01*
X522224Y244000D01*
X522130Y244468D01*
X521865Y244865D01*
X521468Y245130D01*
X521000Y245223D01*
D02*
G37*
G36*
X576486Y245462D02*
X570561D01*
Y239538D01*
X576486D01*
Y245462D01*
D02*
G37*
G36*
X583524Y245488D02*
X582750Y245386D01*
X582030Y245088D01*
X581411Y244613D01*
X580936Y243994D01*
X580638Y243273D01*
X580536Y242500D01*
X580638Y241727D01*
X580936Y241006D01*
X581411Y240387D01*
X582030Y239913D01*
X582750Y239614D01*
X583524Y239512D01*
X584297Y239614D01*
X585017Y239913D01*
X585636Y240387D01*
X586111Y241006D01*
X586410Y241727D01*
X586511Y242500D01*
X586410Y243273D01*
X586111Y243994D01*
X585636Y244613D01*
X585017Y245088D01*
X584297Y245386D01*
X583524Y245488D01*
D02*
G37*
G36*
X534000Y238723D02*
X533532Y238630D01*
X533135Y238365D01*
X532870Y237968D01*
X532776Y237500D01*
X532870Y237032D01*
X533135Y236635D01*
X533532Y236370D01*
X534000Y236277D01*
X534468Y236370D01*
X534865Y236635D01*
X535130Y237032D01*
X535223Y237500D01*
X535130Y237968D01*
X534865Y238365D01*
X534468Y238630D01*
X534000Y238723D01*
D02*
G37*
G36*
X510309Y237253D02*
X509921Y237176D01*
X509593Y236957D01*
X509373Y236628D01*
X509296Y236240D01*
X509373Y235852D01*
X509593Y235524D01*
X509921Y235304D01*
X510309Y235227D01*
X510697Y235304D01*
X511025Y235524D01*
X511245Y235852D01*
X511322Y236240D01*
X511245Y236628D01*
X511025Y236957D01*
X510697Y237176D01*
X510309Y237253D01*
D02*
G37*
G36*
X490500Y240988D02*
X489727Y240886D01*
X489006Y240587D01*
X488387Y240113D01*
X487913Y239494D01*
X487614Y238773D01*
X487512Y238000D01*
X487614Y237227D01*
X487913Y236506D01*
X488387Y235887D01*
X489006Y235413D01*
X489727Y235114D01*
X490500Y235012D01*
X491273Y235114D01*
X491994Y235413D01*
X492613Y235887D01*
X493087Y236506D01*
X493386Y237227D01*
X493488Y238000D01*
X493386Y238773D01*
X493087Y239494D01*
X492613Y240113D01*
X491994Y240587D01*
X491273Y240886D01*
X490500Y240988D01*
D02*
G37*
G36*
X530500Y236723D02*
X530032Y236630D01*
X529635Y236365D01*
X529370Y235968D01*
X529277Y235500D01*
X529370Y235032D01*
X529635Y234635D01*
X530032Y234370D01*
X530500Y234277D01*
X530968Y234370D01*
X531365Y234635D01*
X531630Y235032D01*
X531723Y235500D01*
X531630Y235968D01*
X531365Y236365D01*
X530968Y236630D01*
X530500Y236723D01*
D02*
G37*
G36*
X555500Y234013D02*
X555112Y233936D01*
X554784Y233716D01*
X554564Y233388D01*
X554487Y233000D01*
X554564Y232612D01*
X554784Y232284D01*
X555112Y232064D01*
X555500Y231987D01*
X555888Y232064D01*
X556216Y232284D01*
X556436Y232612D01*
X556513Y233000D01*
X556436Y233388D01*
X556216Y233716D01*
X555888Y233936D01*
X555500Y234013D01*
D02*
G37*
G36*
X508910Y231515D02*
X508330Y231400D01*
X507839Y231071D01*
X507510Y230580D01*
X507395Y230000D01*
X507510Y229420D01*
X507839Y228929D01*
X508330Y228600D01*
X508910Y228485D01*
X509490Y228600D01*
X509981Y228929D01*
X510310Y229420D01*
X510425Y230000D01*
X510310Y230580D01*
X509981Y231071D01*
X509490Y231400D01*
X508910Y231515D01*
D02*
G37*
G36*
X558500Y230013D02*
X558112Y229936D01*
X557784Y229716D01*
X557564Y229388D01*
X557487Y229000D01*
X557564Y228612D01*
X557784Y228284D01*
X558112Y228064D01*
X558500Y227987D01*
X558888Y228064D01*
X559216Y228284D01*
X559436Y228612D01*
X559513Y229000D01*
X559436Y229388D01*
X559216Y229716D01*
X558888Y229936D01*
X558500Y230013D01*
D02*
G37*
G36*
X547555Y229513D02*
X547167Y229436D01*
X546839Y229216D01*
X546619Y228888D01*
X546542Y228500D01*
X546619Y228112D01*
X546839Y227784D01*
X547167Y227564D01*
X547555Y227487D01*
X547943Y227564D01*
X548272Y227784D01*
X548491Y228112D01*
X548568Y228500D01*
X548491Y228888D01*
X548272Y229216D01*
X547943Y229436D01*
X547555Y229513D01*
D02*
G37*
G36*
X565500Y226513D02*
X565112Y226436D01*
X564784Y226216D01*
X564564Y225888D01*
X564487Y225500D01*
X564564Y225112D01*
X564784Y224784D01*
X565112Y224564D01*
X565500Y224487D01*
X565888Y224564D01*
X566216Y224784D01*
X566436Y225112D01*
X566513Y225500D01*
X566436Y225888D01*
X566216Y226216D01*
X565888Y226436D01*
X565500Y226513D01*
D02*
G37*
G36*
X556000Y221013D02*
X555612Y220936D01*
X555284Y220716D01*
X555064Y220388D01*
X554987Y220000D01*
X555064Y219612D01*
X555284Y219284D01*
X555612Y219064D01*
X556000Y218987D01*
X556388Y219064D01*
X556716Y219284D01*
X556936Y219612D01*
X557013Y220000D01*
X556936Y220388D01*
X556716Y220716D01*
X556388Y220936D01*
X556000Y221013D01*
D02*
G37*
G36*
X516000Y216013D02*
X515612Y215936D01*
X515284Y215716D01*
X515064Y215388D01*
X514987Y215000D01*
X515064Y214612D01*
X515284Y214284D01*
X515612Y214064D01*
X516000Y213987D01*
X516388Y214064D01*
X516716Y214284D01*
X516936Y214612D01*
X517013Y215000D01*
X516936Y215388D01*
X516716Y215716D01*
X516388Y215936D01*
X516000Y216013D01*
D02*
G37*
G36*
X570000Y215013D02*
X569612Y214936D01*
X569284Y214716D01*
X569064Y214388D01*
X568987Y214000D01*
X569064Y213612D01*
X569284Y213284D01*
X569612Y213064D01*
X570000Y212987D01*
X570388Y213064D01*
X570716Y213284D01*
X570936Y213612D01*
X571013Y214000D01*
X570936Y214388D01*
X570716Y214716D01*
X570388Y214936D01*
X570000Y215013D01*
D02*
G37*
G36*
X566000Y214013D02*
X565612Y213936D01*
X565284Y213716D01*
X565064Y213388D01*
X564987Y213000D01*
X565064Y212612D01*
X565284Y212284D01*
X565612Y212064D01*
X566000Y211987D01*
X566388Y212064D01*
X566716Y212284D01*
X566936Y212612D01*
X567013Y213000D01*
X566936Y213388D01*
X566716Y213716D01*
X566388Y213936D01*
X566000Y214013D01*
D02*
G37*
G36*
X502500Y208923D02*
X502112Y208845D01*
X501784Y208626D01*
X501564Y208297D01*
X501487Y207909D01*
X501564Y207522D01*
X501784Y207193D01*
X502112Y206973D01*
X502500Y206896D01*
X502888Y206973D01*
X503216Y207193D01*
X503436Y207522D01*
X503513Y207909D01*
X503436Y208297D01*
X503216Y208626D01*
X502888Y208845D01*
X502500Y208923D01*
D02*
G37*
G36*
X559366Y207756D02*
X558978Y207679D01*
X558650Y207459D01*
X558430Y207130D01*
X558353Y206743D01*
X558430Y206355D01*
X558650Y206026D01*
X558978Y205807D01*
X559366Y205730D01*
X559754Y205807D01*
X560083Y206026D01*
X560302Y206355D01*
X560379Y206743D01*
X560302Y207130D01*
X560083Y207459D01*
X559754Y207679D01*
X559366Y207756D01*
D02*
G37*
G36*
X548000Y224515D02*
X547420Y224400D01*
X546929Y224071D01*
X546600Y223580D01*
X546485Y223000D01*
X546600Y222420D01*
X546756Y222187D01*
X546849Y220808D01*
X546851Y220495D01*
X546878Y220428D01*
Y216036D01*
X546853D01*
X547039Y214147D01*
X547590Y212330D01*
X548485Y210656D01*
X549689Y209189D01*
X549689Y209189D01*
X549989Y208813D01*
X550219Y208469D01*
X550386Y207626D01*
X550378Y207586D01*
Y205710D01*
X549888Y205436D01*
X549500Y205513D01*
X549112Y205436D01*
X548784Y205216D01*
X548564Y204888D01*
X548487Y204500D01*
X548564Y204112D01*
X548784Y203784D01*
X549112Y203564D01*
X549500Y203487D01*
X549888Y203564D01*
X550378Y203291D01*
Y203222D01*
X550207Y202793D01*
X549858Y202444D01*
X549500Y202515D01*
X548920Y202400D01*
X548429Y202071D01*
X548100Y201580D01*
X547985Y201000D01*
X548100Y200420D01*
X548429Y199929D01*
X548920Y199600D01*
X549500Y199485D01*
X550080Y199600D01*
X550571Y199929D01*
X550689Y200106D01*
X550706Y200111D01*
X550715Y200118D01*
X550754Y200194D01*
X550821Y200236D01*
X551163Y200544D01*
X551501Y200914D01*
X551795Y201205D01*
X551795Y201205D01*
X552245Y201791D01*
X552528Y202474D01*
X552624Y203207D01*
X552622D01*
Y207586D01*
X552639D01*
X552484Y208764D01*
X552029Y209862D01*
X551305Y210805D01*
X551305Y210805D01*
X550975Y211169D01*
X550365Y211912D01*
X549679Y213195D01*
X549257Y214588D01*
X549117Y216011D01*
X549122Y216036D01*
Y220424D01*
X549149Y220489D01*
X549161Y221379D01*
X549193Y221956D01*
X549205Y222056D01*
X549214Y222110D01*
X549226Y222151D01*
X549225Y222159D01*
X549400Y222420D01*
X549515Y223000D01*
X549400Y223580D01*
X549071Y224071D01*
X548580Y224400D01*
X548000Y224515D01*
D02*
G37*
G36*
X570000Y206513D02*
X569612Y206436D01*
X569284Y206216D01*
X569064Y205888D01*
X568987Y205500D01*
X569064Y205112D01*
X569284Y204784D01*
X569612Y204564D01*
X570000Y204487D01*
X570388Y204564D01*
X570716Y204784D01*
X570936Y205112D01*
X571013Y205500D01*
X570936Y205888D01*
X570716Y206216D01*
X570388Y206436D01*
X570000Y206513D01*
D02*
G37*
G36*
X547000Y204013D02*
X546612Y203936D01*
X546284Y203716D01*
X546064Y203388D01*
X545987Y203000D01*
X546064Y202612D01*
X546284Y202284D01*
X546612Y202064D01*
X547000Y201987D01*
X547388Y202064D01*
X547716Y202284D01*
X547936Y202612D01*
X548013Y203000D01*
X547936Y203388D01*
X547716Y203716D01*
X547388Y203936D01*
X547000Y204013D01*
D02*
G37*
G36*
X571000Y202793D02*
X570612Y202716D01*
X570284Y202497D01*
X570064Y202168D01*
X569987Y201780D01*
X570064Y201392D01*
X570284Y201064D01*
X570612Y200844D01*
X571000Y200767D01*
X571388Y200844D01*
X571716Y201064D01*
X571936Y201392D01*
X572013Y201780D01*
X571936Y202168D01*
X571716Y202497D01*
X571388Y202716D01*
X571000Y202793D01*
D02*
G37*
G36*
X588500Y202105D02*
X588112Y202028D01*
X587784Y201808D01*
X587564Y201480D01*
X587487Y201092D01*
X587564Y200704D01*
X587784Y200375D01*
X588112Y200156D01*
X588500Y200079D01*
X588888Y200156D01*
X589216Y200375D01*
X589436Y200704D01*
X589513Y201092D01*
X589436Y201480D01*
X589216Y201808D01*
X588888Y202028D01*
X588500Y202105D01*
D02*
G37*
G36*
X500000Y202513D02*
X499612Y202436D01*
X499284Y202216D01*
X499064Y201888D01*
X498987Y201500D01*
X499064Y201112D01*
X499284Y200784D01*
X499547Y200607D01*
X499612Y200564D01*
X499598Y199938D01*
X499596Y199936D01*
X499536Y199896D01*
X499267Y199716D01*
X499048Y199388D01*
X498970Y199000D01*
X499048Y198612D01*
X499267Y198284D01*
X499596Y198064D01*
X499984Y197987D01*
X500371Y198064D01*
X500700Y198284D01*
X500920Y198612D01*
X500997Y199000D01*
X500920Y199388D01*
X500700Y199716D01*
X500436Y199893D01*
X500371Y199936D01*
X500386Y200562D01*
X500388Y200564D01*
X500448Y200604D01*
X500716Y200784D01*
X500936Y201112D01*
X501013Y201500D01*
X500936Y201888D01*
X500716Y202216D01*
X500388Y202436D01*
X500000Y202513D01*
D02*
G37*
G36*
X572500Y194576D02*
X572112Y194499D01*
X571784Y194279D01*
X571564Y193951D01*
X571487Y193563D01*
X571564Y193175D01*
X571784Y192847D01*
X572112Y192627D01*
X572500Y192550D01*
X572888Y192627D01*
X573216Y192847D01*
X573436Y193175D01*
X573513Y193563D01*
X573436Y193951D01*
X573216Y194279D01*
X572888Y194499D01*
X572500Y194576D01*
D02*
G37*
G36*
X549575Y194013D02*
X549187Y193936D01*
X548858Y193716D01*
X548639Y193388D01*
X548562Y193000D01*
X548639Y192612D01*
X548858Y192284D01*
X549187Y192064D01*
X549575Y191987D01*
X549963Y192064D01*
X550291Y192284D01*
X550511Y192612D01*
X550588Y193000D01*
X550511Y193388D01*
X550291Y193716D01*
X549963Y193936D01*
X549575Y194013D01*
D02*
G37*
G36*
X585000Y193637D02*
X584612Y193560D01*
X584284Y193340D01*
X584064Y193011D01*
X583987Y192624D01*
X584064Y192236D01*
X584284Y191907D01*
X584612Y191688D01*
X585000Y191610D01*
X585388Y191688D01*
X585716Y191907D01*
X585936Y192236D01*
X586013Y192624D01*
X585936Y193011D01*
X585716Y193340D01*
X585388Y193560D01*
X585000Y193637D01*
D02*
G37*
G36*
X515286Y187188D02*
X514898Y187111D01*
X514569Y186891D01*
X514350Y186563D01*
X514272Y186175D01*
X514350Y185787D01*
X514569Y185459D01*
X514898Y185239D01*
X515286Y185162D01*
X515673Y185239D01*
X516002Y185459D01*
X516222Y185787D01*
X516299Y186175D01*
X516222Y186563D01*
X516002Y186891D01*
X515673Y187111D01*
X515286Y187188D01*
D02*
G37*
G36*
X566500Y186988D02*
X565727Y186886D01*
X565006Y186588D01*
X564387Y186113D01*
X563912Y185494D01*
X563614Y184773D01*
X563512Y184000D01*
X563614Y183227D01*
X563912Y182506D01*
X564387Y181887D01*
X565006Y181412D01*
X565727Y181114D01*
X566500Y181012D01*
X567273Y181114D01*
X567994Y181412D01*
X568613Y181887D01*
X569088Y182506D01*
X569386Y183227D01*
X569488Y184000D01*
X569386Y184773D01*
X569088Y185494D01*
X568613Y186113D01*
X567994Y186588D01*
X567273Y186886D01*
X566500Y186988D01*
D02*
G37*
G36*
X555366D02*
X554593Y186886D01*
X553872Y186588D01*
X553253Y186113D01*
X552778Y185494D01*
X552480Y184773D01*
X552378Y184000D01*
X552480Y183227D01*
X552778Y182506D01*
X553253Y181887D01*
X553872Y181412D01*
X554593Y181114D01*
X555366Y181012D01*
X556139Y181114D01*
X556860Y181412D01*
X557479Y181887D01*
X557953Y182506D01*
X558252Y183227D01*
X558354Y184000D01*
X558252Y184773D01*
X557953Y185494D01*
X557479Y186113D01*
X556860Y186588D01*
X556139Y186886D01*
X555366Y186988D01*
D02*
G37*
%LPD*%
G36*
X548603Y222332D02*
X548581Y222258D01*
X548562Y222152D01*
X548546Y222013D01*
X548511Y221401D01*
X548500Y220497D01*
X547500D01*
X547499Y220831D01*
X547397Y222332D01*
X547373Y222374D01*
X548627D01*
X548603Y222332D01*
D02*
G37*
G36*
X549862Y201809D02*
X549927Y201778D01*
X549951Y201763D01*
X549970Y201749D01*
X549983Y201736D01*
X549991Y201724D01*
X549994Y201712D01*
X549991Y201701D01*
X549983Y201690D01*
X549942Y201521D01*
X549822Y201825D01*
X549862Y201809D01*
D02*
G37*
G36*
X550299Y200617D02*
X550289Y200609D01*
X549811Y200525D01*
X549700Y200512D01*
X549942Y201521D01*
X550299Y200617D01*
D02*
G37*
G54D57*
X508910Y230000D02*
X508738Y229929D01*
X548000Y216036D02*
X548054Y215080D01*
X548214Y214136D01*
X548479Y213216D01*
X548845Y212332D01*
X549308Y211494D01*
X549862Y210714D01*
X550500Y210000D01*
X551000Y202000D02*
X551500Y203207D01*
Y207586D02*
X551384Y208470D01*
X551043Y209293D01*
X550500Y210000D01*
X549500Y201000D02*
X550354Y201354D01*
X548000Y216036D02*
Y223000D01*
X550353Y201354D02*
X551000Y202000D01*
X551500Y203207D02*
Y207586D01*
G54D60*
X576500Y184000D02*
D03*
X490500Y228000D02*
D03*
G54D62*
X523748Y251000D02*
D03*
G54D63*
X508910Y230000D02*
D03*
X548000Y223000D02*
D03*
X549500Y201000D02*
D03*
G54D65*
X584000Y196683D02*
D03*
X551000Y214500D02*
D03*
X493500Y217000D02*
D03*
X590000Y238500D02*
D03*
X572000Y189500D02*
D03*
X532500Y192624D02*
D03*
X524929Y218000D02*
D03*
X536500Y229000D02*
D03*
X525000Y244500D02*
D03*
X507371Y238000D02*
D03*
M02*
