G04*
G04 #@! TF.GenerationSoftware,Altium Limited,Altium Designer,20.1.14 (287)*
G04*
G04 Layer_Physical_Order=2*
G04 Layer_Color=16711680*
%FSLAX25Y25*%
%MOIN*%
G70*
G04*
G04 #@! TF.SameCoordinates,B4ACC901-58E3-418A-A1C3-F6E1E6CBF67F*
G04*
G04*
G04 #@! TF.FilePolarity,Positive*
G04*
G01*
G75*
%ADD18R,0.01968X0.01772*%
%ADD25R,0.16000X0.06000*%
%ADD97C,0.02400*%
%ADD98C,0.01500*%
%ADD99C,0.01200*%
%ADD100C,0.01000*%
%ADD102C,0.00800*%
%ADD105O,0.06299X0.03543*%
%ADD106O,0.07874X0.03543*%
%ADD107C,0.04724*%
%ADD108R,0.04724X0.04724*%
%ADD109C,0.02400*%
%ADD110C,0.01772*%
%ADD111C,0.03000*%
%ADD112C,0.02500*%
%ADD113R,0.05118X0.05906*%
%ADD114R,0.10236X0.07087*%
%ADD115R,0.04724X0.02362*%
%ADD116R,0.07087X0.10236*%
%ADD117R,0.02362X0.04724*%
%ADD118R,0.07480X0.11024*%
G36*
X-18898Y29123D02*
Y13400D01*
X-20448D01*
Y10750D01*
X-12048D01*
Y9250D01*
X-20448D01*
Y6600D01*
X-18898D01*
Y-6600D01*
X-20448D01*
Y-9250D01*
X-12048D01*
Y-10750D01*
X-20448D01*
Y-13400D01*
X-18898D01*
X-18898Y-29123D01*
X-40622Y-50847D01*
X-198875D01*
X-206040Y-43743D01*
X-205835Y-43243D01*
X-201750D01*
Y-39300D01*
Y-35357D01*
X-206253D01*
X-206518Y-35357D01*
X-206752Y-34954D01*
Y-18646D01*
X-206518Y-18243D01*
X-206253Y-18243D01*
X-201750D01*
Y-14300D01*
Y-10357D01*
X-206253D01*
X-206518Y-10357D01*
X-206752Y-9954D01*
Y43019D01*
X-206590Y43134D01*
X-206138Y42842D01*
X-206151Y42777D01*
X-205983Y41930D01*
X-205503Y41212D01*
X-204784Y40732D01*
X-203937Y40563D01*
X-203309D01*
Y42777D01*
Y44992D01*
X-203937D01*
X-204378Y44904D01*
X-204624Y45365D01*
X-203866Y46123D01*
X-35898D01*
X-18898Y29123D01*
D02*
G37*
%LPC*%
G36*
X-166929Y44992D02*
X-168344D01*
Y43527D01*
X-164864D01*
X-164883Y43625D01*
X-165363Y44343D01*
X-166082Y44823D01*
X-166929Y44992D01*
D02*
G37*
G36*
X-169844D02*
X-171260D01*
X-172107Y44823D01*
X-172826Y44343D01*
X-173305Y43625D01*
X-173325Y43527D01*
X-169844D01*
Y44992D01*
D02*
G37*
G36*
X-201181D02*
X-201809D01*
Y43527D01*
X-199116D01*
X-199135Y43625D01*
X-199615Y44343D01*
X-200334Y44823D01*
X-201181Y44992D01*
D02*
G37*
G36*
X-138776Y43174D02*
X-139478Y43034D01*
X-140073Y42636D01*
X-140123Y42562D01*
X-142195D01*
Y42571D01*
X-143825Y42442D01*
X-145415Y42061D01*
X-146927Y41435D01*
X-148321Y40580D01*
X-149565Y39518D01*
X-150627Y38274D01*
X-151482Y36880D01*
X-152108Y35368D01*
X-152489Y33778D01*
X-152536Y33186D01*
X-152560Y33005D01*
X-152886Y32218D01*
X-153405Y31542D01*
X-153572Y31414D01*
X-154020Y31635D01*
Y35775D01*
X-157964D01*
X-161907D01*
Y31007D01*
X-162101Y30587D01*
X-164027D01*
X-164197Y31087D01*
X-164029Y31216D01*
X-163554Y31835D01*
X-163256Y32555D01*
X-163154Y33329D01*
X-163256Y34102D01*
X-163554Y34822D01*
X-164029Y35441D01*
X-164648Y35916D01*
X-165368Y36215D01*
X-166142Y36316D01*
X-166915Y36215D01*
X-167636Y35916D01*
X-168254Y35441D01*
X-168729Y34822D01*
X-169028Y34102D01*
X-169130Y33329D01*
X-169028Y32555D01*
X-169490Y32403D01*
X-169634Y32753D01*
X-170077Y33330D01*
X-170654Y33773D01*
X-171297Y34039D01*
Y31360D01*
X-172047D01*
Y30610D01*
X-174726D01*
X-174460Y29967D01*
X-174017Y29390D01*
X-173440Y28947D01*
X-172768Y28669D01*
X-172047Y28574D01*
X-171675Y28623D01*
X-171349Y28162D01*
X-171440Y27984D01*
X-172124Y27700D01*
X-172997Y27586D01*
X-173005Y27587D01*
X-175798D01*
Y27598D01*
X-177555Y27460D01*
X-179269Y27048D01*
X-180898Y26374D01*
X-182401Y25453D01*
X-183742Y24308D01*
X-183734Y24300D01*
X-186714Y21320D01*
X-187214Y21527D01*
Y34805D01*
X-187029Y34929D01*
X-186700Y35420D01*
X-186585Y36000D01*
X-186700Y36580D01*
X-186899Y36876D01*
X-186654Y37376D01*
X-166780D01*
Y37371D01*
X-165608Y37486D01*
X-164480Y37828D01*
X-163442Y38384D01*
X-163292Y38507D01*
X-162820Y38600D01*
X-162407Y38877D01*
X-162108Y38788D01*
X-161907Y38660D01*
Y37275D01*
X-158714D01*
Y42043D01*
X-161907D01*
Y41340D01*
X-162108Y41212D01*
X-162407Y41124D01*
X-162820Y41400D01*
X-163400Y41515D01*
X-163980Y41400D01*
X-164471Y41071D01*
X-164800Y40580D01*
X-164830Y40427D01*
X-165000Y40297D01*
X-165858Y39941D01*
X-166768Y39821D01*
X-166780Y39823D01*
X-199754D01*
Y39836D01*
X-201194Y39694D01*
X-202579Y39274D01*
X-203855Y38592D01*
X-203867Y38582D01*
X-204280Y38500D01*
X-204771Y38171D01*
X-205100Y37680D01*
X-205215Y37100D01*
X-205100Y36520D01*
X-204771Y36029D01*
X-204280Y35700D01*
X-203700Y35585D01*
X-203120Y35700D01*
X-202629Y36029D01*
X-202300Y36520D01*
X-202265Y36699D01*
X-202223Y36731D01*
X-201032Y37224D01*
X-199802Y37386D01*
X-199754Y37376D01*
X-189546D01*
X-189301Y36876D01*
X-189500Y36580D01*
X-189543Y36360D01*
X-189558Y36341D01*
X-189863Y35605D01*
X-189966Y34821D01*
X-189967Y34816D01*
Y14103D01*
Y4670D01*
X-189990Y4635D01*
X-190105Y4056D01*
X-189990Y3476D01*
X-189662Y2984D01*
X-189170Y2656D01*
X-188590Y2541D01*
X-188011Y2656D01*
X-187519Y2984D01*
X-187191Y3476D01*
X-187075Y4056D01*
X-187191Y4635D01*
X-187214Y4670D01*
Y14103D01*
Y15627D01*
X-186806Y16974D01*
X-186112Y18270D01*
X-185488Y19031D01*
X-185173Y19400D01*
X-184826Y19747D01*
X-182004Y22569D01*
X-181973Y22615D01*
X-180682Y23674D01*
X-179162Y24487D01*
X-177513Y24987D01*
X-175851Y25151D01*
X-175798Y25140D01*
X-173005D01*
Y25135D01*
X-171863Y25248D01*
X-170765Y25581D01*
X-169753Y26122D01*
X-169504Y26326D01*
X-169051Y26052D01*
X-169130Y25455D01*
X-169028Y24681D01*
X-168729Y23961D01*
X-168254Y23342D01*
X-167636Y22867D01*
X-166915Y22569D01*
X-166142Y22467D01*
X-165368Y22569D01*
X-164648Y22867D01*
X-164029Y23342D01*
X-163554Y23961D01*
X-163256Y24681D01*
X-163154Y25455D01*
X-163256Y26228D01*
X-163554Y26948D01*
X-164029Y27567D01*
X-164124Y27640D01*
X-163954Y28140D01*
X-155713D01*
Y28115D01*
X-154229Y28310D01*
X-152846Y28883D01*
X-151657Y29795D01*
X-151086Y30540D01*
X-150483Y30504D01*
X-150332Y30278D01*
X-149840Y29949D01*
X-149261Y29834D01*
X-149148Y29856D01*
X-148789Y29418D01*
X-148905Y29137D01*
X-149046Y28070D01*
X-149705D01*
Y22145D01*
X-148403D01*
X-148403Y22145D01*
X-148321Y22109D01*
X-148208Y22047D01*
X-148076Y21961D01*
X-147726Y21690D01*
X-147528Y21517D01*
X-147432Y21485D01*
X-147362Y21412D01*
X-147327Y21411D01*
X-146779Y20991D01*
X-145677Y20534D01*
X-144494Y20379D01*
Y20396D01*
X-74050D01*
X-73989Y20369D01*
X-73824Y20363D01*
X-73785Y20358D01*
X-73781Y20358D01*
X-73645Y20153D01*
X-73153Y19825D01*
X-72573Y19710D01*
X-71994Y19825D01*
X-71502Y20153D01*
X-71174Y20645D01*
X-71058Y21225D01*
X-71174Y21804D01*
X-71502Y22296D01*
X-71994Y22624D01*
X-72573Y22740D01*
X-72955Y22664D01*
X-72966Y22669D01*
X-73942Y22667D01*
X-74009Y22639D01*
X-76536D01*
X-76634Y23130D01*
X-76471Y23197D01*
X-74981Y24110D01*
X-73653Y25244D01*
X-73662Y25253D01*
X-72729Y26186D01*
X-72665Y26211D01*
X-72544Y26327D01*
X-72456Y26400D01*
X-72435Y26415D01*
X-72422Y26423D01*
X-72410Y26428D01*
X-72406Y26431D01*
X-72395Y26437D01*
X-72384Y26451D01*
X-71994Y26528D01*
X-71502Y26857D01*
X-71174Y27348D01*
X-71058Y27928D01*
X-71174Y28508D01*
X-71502Y28999D01*
X-71994Y29328D01*
X-72573Y29443D01*
X-73153Y29328D01*
X-73645Y28999D01*
X-73973Y28508D01*
X-74051Y28117D01*
X-74064Y28106D01*
X-74070Y28095D01*
X-74073Y28092D01*
X-74079Y28079D01*
X-74086Y28067D01*
X-74098Y28051D01*
X-74229Y27899D01*
X-74285Y27842D01*
X-74311Y27777D01*
X-75248Y26840D01*
X-75275Y26799D01*
X-76585Y25723D01*
X-78123Y24902D01*
X-79791Y24396D01*
X-81478Y24229D01*
X-81526Y24239D01*
X-111464D01*
X-138173Y24239D01*
X-138666Y24274D01*
X-138681Y24280D01*
X-139162Y24328D01*
X-139634Y24390D01*
X-140642Y24808D01*
X-140654Y24822D01*
X-140802Y24907D01*
X-140915Y24981D01*
X-141006Y25051D01*
X-141077Y25114D01*
X-141128Y25169D01*
X-141161Y25214D01*
X-141180Y25248D01*
X-141190Y25272D01*
X-141193Y25289D01*
X-141198Y25354D01*
X-141222Y25400D01*
Y28070D01*
X-143096D01*
X-143118Y28087D01*
X-143137Y28084D01*
X-143152Y28095D01*
X-143198Y28086D01*
X-143267Y28280D01*
X-143361Y28616D01*
X-143367Y28624D01*
X-143376Y28690D01*
X-143372Y28707D01*
Y30084D01*
X-143366D01*
X-143479Y30942D01*
X-143810Y31742D01*
X-144337Y32429D01*
X-144342Y32424D01*
X-144829Y32911D01*
X-144826Y32914D01*
X-145437Y33383D01*
X-146149Y33678D01*
X-146913Y33778D01*
Y33784D01*
X-147858Y33660D01*
X-148739Y33295D01*
X-148749Y33287D01*
X-148801Y33279D01*
X-148804Y33274D01*
X-148810Y33274D01*
X-149566Y32803D01*
X-149608Y32795D01*
X-149740Y32845D01*
X-150039Y33122D01*
X-150066Y33174D01*
X-149978Y33844D01*
X-149567Y35201D01*
X-148829Y36581D01*
X-147837Y37790D01*
X-146628Y38782D01*
X-145248Y39520D01*
X-143751Y39974D01*
X-142235Y40123D01*
X-142195Y40115D01*
X-140123D01*
X-140073Y40041D01*
X-139478Y39643D01*
X-138776Y39503D01*
X-138073Y39643D01*
X-137478Y40041D01*
X-137407Y40147D01*
X-136907Y39996D01*
Y37275D01*
X-133714D01*
Y42043D01*
X-136571D01*
X-136907Y42043D01*
X-137283Y42344D01*
X-137478Y42636D01*
X-138073Y43034D01*
X-138776Y43174D01*
D02*
G37*
G36*
X-164864Y42027D02*
X-168344D01*
Y40563D01*
X-166929D01*
X-166082Y40732D01*
X-165363Y41212D01*
X-164883Y41930D01*
X-164864Y42027D01*
D02*
G37*
G36*
X-169844D02*
X-173325D01*
X-173305Y41930D01*
X-172826Y41212D01*
X-172107Y40732D01*
X-171260Y40563D01*
X-169844D01*
Y42027D01*
D02*
G37*
G36*
X-199116D02*
X-201809D01*
Y40563D01*
X-201181D01*
X-200334Y40732D01*
X-199615Y41212D01*
X-199135Y41930D01*
X-199116Y42027D01*
D02*
G37*
G36*
X-58104Y45114D02*
X-58877Y45012D01*
X-59598Y44714D01*
X-60217Y44239D01*
X-60692Y43620D01*
X-60990Y42899D01*
X-61092Y42126D01*
X-60990Y41353D01*
X-60692Y40632D01*
X-60217Y40013D01*
X-59598Y39538D01*
X-58877Y39240D01*
X-58104Y39138D01*
X-57331Y39240D01*
X-56610Y39538D01*
X-55992Y40013D01*
X-55517Y40632D01*
X-55218Y41353D01*
X-55116Y42126D01*
X-55218Y42899D01*
X-55517Y43620D01*
X-55992Y44239D01*
X-56610Y44714D01*
X-57331Y45012D01*
X-58104Y45114D01*
D02*
G37*
G36*
X-93307Y44326D02*
X-94080Y44225D01*
X-94801Y43926D01*
X-95420Y43451D01*
X-95895Y42832D01*
X-96193Y42112D01*
X-96295Y41339D01*
X-96193Y40565D01*
X-95895Y39845D01*
X-95420Y39226D01*
X-94801Y38751D01*
X-94080Y38453D01*
X-93307Y38351D01*
X-92534Y38453D01*
X-91813Y38751D01*
X-91194Y39226D01*
X-90720Y39845D01*
X-90421Y40565D01*
X-90319Y41339D01*
X-90421Y42112D01*
X-90720Y42832D01*
X-91194Y43451D01*
X-91813Y43926D01*
X-92534Y44225D01*
X-93307Y44326D01*
D02*
G37*
G36*
X-105512D02*
X-106285Y44225D01*
X-107006Y43926D01*
X-107624Y43451D01*
X-108099Y42832D01*
X-108398Y42112D01*
X-108500Y41339D01*
X-108398Y40565D01*
X-108099Y39845D01*
X-107624Y39226D01*
X-107006Y38751D01*
X-106285Y38453D01*
X-105512Y38351D01*
X-104738Y38453D01*
X-104018Y38751D01*
X-103399Y39226D01*
X-102924Y39845D01*
X-102626Y40565D01*
X-102524Y41339D01*
X-102626Y42112D01*
X-102924Y42832D01*
X-103399Y43451D01*
X-104018Y43926D01*
X-104738Y44225D01*
X-105512Y44326D01*
D02*
G37*
G36*
X-132214Y42043D02*
Y37275D01*
X-129020D01*
Y42043D01*
X-132214D01*
D02*
G37*
G36*
X-154020D02*
X-157214D01*
Y37275D01*
X-154020D01*
Y42043D01*
D02*
G37*
G36*
X-172797Y34039D02*
X-173440Y33773D01*
X-174017Y33330D01*
X-174460Y32753D01*
X-174726Y32110D01*
X-172797D01*
Y34039D01*
D02*
G37*
G36*
X-129020Y35775D02*
X-132214D01*
Y31007D01*
X-129020D01*
Y35775D01*
D02*
G37*
G36*
X-133714D02*
X-136907D01*
Y31007D01*
X-133714D01*
Y35775D01*
D02*
G37*
G36*
X-74455Y19095D02*
X-75035Y18980D01*
X-75366Y18759D01*
X-75383Y18761D01*
X-75395Y18757D01*
X-75400Y18757D01*
X-75412Y18752D01*
X-75427Y18749D01*
X-75446Y18745D01*
X-75647Y18731D01*
X-75726Y18730D01*
X-75791Y18702D01*
X-83237Y18702D01*
X-83703Y18724D01*
X-83748Y18743D01*
X-84229Y18790D01*
X-84646Y18845D01*
X-85063Y18790D01*
X-85543Y18743D01*
X-85588Y18724D01*
X-85605Y18702D01*
X-88325Y18702D01*
Y18712D01*
X-89595Y18587D01*
X-90815Y18216D01*
X-91940Y17615D01*
X-92926Y16806D01*
X-93735Y15820D01*
X-94337Y14695D01*
X-94707Y13474D01*
X-94832Y12205D01*
X-94822D01*
Y9649D01*
X-94810Y9590D01*
X-94994Y8195D01*
X-95556Y6840D01*
X-96153Y6061D01*
X-96462Y5690D01*
X-96805Y5347D01*
X-96832Y5306D01*
X-98142Y4231D01*
X-99680Y3409D01*
X-101348Y2903D01*
X-103035Y2737D01*
X-103083Y2747D01*
X-128552D01*
Y2764D01*
X-130545Y2608D01*
X-131954Y2269D01*
X-132428Y2156D01*
X-132434Y2171D01*
X-132434D01*
X-132434Y2171D01*
X-132435Y2171D01*
X-132901Y2014D01*
X-132915Y2009D01*
X-132919Y2008D01*
X-134533Y1339D01*
X-136023Y427D01*
X-137352Y-708D01*
X-137352Y-708D01*
X-137696Y-1071D01*
X-146028Y-9402D01*
X-146028Y-9402D01*
X-146030Y-9400D01*
X-146484Y-9993D01*
X-146539Y-10124D01*
X-146540Y-10126D01*
X-146547Y-10141D01*
X-146556Y-10155D01*
X-146578Y-10166D01*
X-146582Y-10171D01*
X-146592Y-10202D01*
X-146594Y-10205D01*
X-146815Y-10352D01*
X-147143Y-10844D01*
X-147258Y-11423D01*
X-147143Y-12003D01*
X-146815Y-12495D01*
X-146323Y-12823D01*
X-145743Y-12938D01*
X-145164Y-12823D01*
X-144672Y-12495D01*
X-144344Y-12003D01*
X-144228Y-11423D01*
X-144336Y-10883D01*
X-142954Y-9500D01*
X-142413Y-9667D01*
X-142349Y-9988D01*
X-142021Y-10480D01*
X-141529Y-10808D01*
X-140949Y-10924D01*
X-140370Y-10808D01*
X-139878Y-10480D01*
X-139550Y-9988D01*
X-139020Y-9888D01*
X-138933Y-10019D01*
X-138441Y-10347D01*
X-137861Y-10462D01*
X-137282Y-10347D01*
X-136790Y-10019D01*
X-136677Y-9849D01*
X-136146Y-9955D01*
X-136111Y-10130D01*
X-135783Y-10622D01*
X-135291Y-10950D01*
X-134712Y-11065D01*
X-134132Y-10950D01*
X-133640Y-10622D01*
X-133312Y-10130D01*
X-133218Y-9658D01*
X-133177Y-9570D01*
X-133176Y-9546D01*
X-133174Y-9539D01*
X-133167Y-9524D01*
X-133154Y-9502D01*
X-133141Y-9482D01*
X-133070Y-9394D01*
X-133024Y-9347D01*
X-132998Y-9278D01*
X-130519Y-6799D01*
X-130494Y-6763D01*
X-129165Y-5672D01*
X-127610Y-4841D01*
X-125923Y-4329D01*
X-124212Y-4161D01*
X-124169Y-4169D01*
X-109290D01*
X-109259Y-4324D01*
X-108930Y-4815D01*
X-108439Y-5144D01*
X-108165Y-5198D01*
X-108214Y-5698D01*
X-121474D01*
Y-5685D01*
X-123215Y-5822D01*
X-124914Y-6230D01*
X-126529Y-6899D01*
X-128018Y-7812D01*
X-129347Y-8946D01*
X-129347Y-8946D01*
X-129691Y-9309D01*
X-134151Y-13768D01*
X-134160Y-13759D01*
X-135294Y-15088D01*
X-136207Y-16578D01*
X-136876Y-18192D01*
X-137284Y-19891D01*
X-137421Y-21632D01*
X-137408D01*
Y-27399D01*
X-137436Y-27461D01*
X-137440Y-27629D01*
X-137450Y-27743D01*
X-137454Y-27768D01*
X-137458Y-27783D01*
X-137463Y-27795D01*
X-137463Y-27800D01*
X-137467Y-27812D01*
X-137465Y-27829D01*
X-137686Y-28160D01*
X-137801Y-28740D01*
X-137686Y-29320D01*
X-137358Y-29811D01*
X-136866Y-30140D01*
X-136286Y-30255D01*
X-135707Y-30140D01*
X-135215Y-29811D01*
X-134887Y-29320D01*
X-134772Y-28740D01*
X-134887Y-28160D01*
X-135108Y-27829D01*
X-135106Y-27812D01*
X-135110Y-27800D01*
X-135110Y-27795D01*
X-135115Y-27783D01*
X-135118Y-27768D01*
X-135122Y-27749D01*
X-135136Y-27548D01*
X-135137Y-27470D01*
X-135165Y-27405D01*
Y-21632D01*
X-135175Y-21584D01*
X-135008Y-19898D01*
X-134502Y-18229D01*
X-133681Y-16692D01*
X-132605Y-15382D01*
X-132564Y-15355D01*
X-127752Y-10542D01*
X-127752Y-10542D01*
X-127384Y-10222D01*
X-126414Y-9426D01*
X-124877Y-8604D01*
X-123208Y-8098D01*
X-121522Y-7932D01*
X-121474Y-7941D01*
X-71053D01*
X-70891Y-7954D01*
Y-7941D01*
X-63381D01*
Y-7954D01*
X-63062Y-8017D01*
X-62791Y-8198D01*
X-62789Y-8196D01*
X-62031Y-8778D01*
X-61147Y-9144D01*
X-60199Y-9269D01*
Y-9259D01*
X-59446D01*
X-59383Y-9287D01*
X-59215Y-9291D01*
X-59102Y-9301D01*
X-59076Y-9306D01*
X-59062Y-9309D01*
X-59049Y-9314D01*
X-59044Y-9314D01*
X-59032Y-9317D01*
X-59015Y-9316D01*
X-58684Y-9537D01*
X-58104Y-9652D01*
X-57524Y-9537D01*
X-57033Y-9209D01*
X-56705Y-8717D01*
X-56589Y-8137D01*
X-56705Y-7558D01*
X-57033Y-7066D01*
X-57524Y-6738D01*
X-58104Y-6622D01*
X-58300Y-6661D01*
X-58400Y-6540D01*
X-58548Y-6201D01*
X-58279Y-5799D01*
X-58164Y-5220D01*
X-58279Y-4640D01*
X-58549Y-4237D01*
X-58587Y-4068D01*
X-58478Y-3634D01*
X-58168Y-3427D01*
X-57840Y-2935D01*
X-57724Y-2355D01*
X-57840Y-1776D01*
X-58168Y-1284D01*
X-58659Y-956D01*
X-59239Y-840D01*
X-59819Y-956D01*
X-60150Y-1177D01*
X-60167Y-1175D01*
X-60179Y-1179D01*
X-60184Y-1179D01*
X-60197Y-1184D01*
X-60211Y-1187D01*
X-60230Y-1190D01*
X-60431Y-1205D01*
X-60510Y-1206D01*
X-60575Y-1234D01*
X-70077D01*
X-70125Y-1243D01*
X-71812Y-1077D01*
X-73480Y-571D01*
X-75017Y250D01*
X-75797Y890D01*
X-75797Y890D01*
X-75797Y890D01*
X-75828Y889D01*
X-79534Y4594D01*
X-79534Y4594D01*
X-79536Y4596D01*
X-80070Y5292D01*
X-80406Y6105D01*
X-80457Y6488D01*
X-80476Y6658D01*
X-80478Y6710D01*
X-80478Y6755D01*
X-80475Y6783D01*
X-80475Y6788D01*
X-80471Y6799D01*
X-80471Y6806D01*
X-80467Y6822D01*
X-80468Y6829D01*
X-80243Y7165D01*
X-80128Y7745D01*
X-80243Y8325D01*
X-80571Y8816D01*
X-81063Y9144D01*
X-81643Y9260D01*
X-82222Y9144D01*
X-82388Y9034D01*
X-82393Y9032D01*
X-82977Y9241D01*
X-83368Y10527D01*
X-83534Y12214D01*
X-83524Y12262D01*
Y14391D01*
X-83496Y14454D01*
X-83492Y14621D01*
X-83482Y14735D01*
X-83478Y14761D01*
X-83474Y14775D01*
X-83469Y14788D01*
X-83469Y14793D01*
X-83466Y14805D01*
X-83467Y14822D01*
X-83246Y15153D01*
X-83131Y15733D01*
X-83176Y15959D01*
X-82788Y16459D01*
X-75796Y16459D01*
X-75734Y16431D01*
X-75566Y16427D01*
X-75452Y16417D01*
X-75427Y16412D01*
X-75412Y16409D01*
X-75400Y16404D01*
X-75395Y16404D01*
X-75383Y16400D01*
X-75366Y16402D01*
X-75035Y16181D01*
X-74455Y16066D01*
X-73875Y16181D01*
X-73384Y16509D01*
X-73055Y17001D01*
X-72940Y17581D01*
X-73055Y18160D01*
X-73384Y18652D01*
X-73875Y18980D01*
X-74455Y19095D01*
D02*
G37*
G36*
X-172047Y24505D02*
X-172820Y24404D01*
X-173541Y24105D01*
X-174160Y23630D01*
X-174635Y23011D01*
X-174933Y22291D01*
X-175035Y21518D01*
X-174933Y20744D01*
X-174635Y20024D01*
X-174160Y19405D01*
X-173541Y18930D01*
X-172820Y18632D01*
X-172047Y18530D01*
X-171274Y18632D01*
X-170553Y18930D01*
X-169935Y19405D01*
X-169460Y20024D01*
X-169161Y20744D01*
X-169060Y21518D01*
X-169161Y22291D01*
X-169460Y23011D01*
X-169935Y23630D01*
X-170553Y24105D01*
X-171274Y24404D01*
X-172047Y24505D01*
D02*
G37*
G36*
X-166142Y20568D02*
X-166915Y20467D01*
X-167636Y20168D01*
X-168254Y19693D01*
X-168729Y19074D01*
X-169028Y18354D01*
X-169130Y17581D01*
X-169028Y16807D01*
X-168729Y16087D01*
X-168254Y15468D01*
X-167636Y14993D01*
X-166915Y14695D01*
X-166142Y14593D01*
X-165368Y14695D01*
X-164648Y14993D01*
X-164029Y15468D01*
X-163554Y16087D01*
X-163256Y16807D01*
X-163154Y17581D01*
X-163256Y18354D01*
X-163554Y19074D01*
X-164029Y19693D01*
X-164648Y20168D01*
X-165368Y20467D01*
X-166142Y20568D01*
D02*
G37*
G36*
X-172047Y16631D02*
X-172820Y16530D01*
X-173541Y16231D01*
X-174160Y15756D01*
X-174635Y15137D01*
X-174933Y14417D01*
X-175035Y13644D01*
X-174933Y12870D01*
X-174635Y12150D01*
X-174160Y11531D01*
X-173541Y11056D01*
X-172820Y10758D01*
X-172047Y10656D01*
X-171274Y10758D01*
X-170553Y11056D01*
X-169935Y11531D01*
X-169460Y12150D01*
X-169161Y12870D01*
X-169060Y13644D01*
X-169161Y14417D01*
X-169460Y15137D01*
X-169935Y15756D01*
X-170553Y16231D01*
X-171274Y16530D01*
X-172047Y16631D01*
D02*
G37*
G36*
X-166142Y12694D02*
X-166915Y12593D01*
X-167636Y12294D01*
X-168254Y11819D01*
X-168729Y11200D01*
X-169028Y10480D01*
X-169130Y9707D01*
X-169028Y8933D01*
X-168729Y8213D01*
X-168254Y7594D01*
X-167636Y7119D01*
X-166915Y6821D01*
X-166142Y6719D01*
X-165368Y6821D01*
X-164648Y7119D01*
X-164029Y7594D01*
X-163554Y8213D01*
X-163256Y8933D01*
X-163154Y9707D01*
X-163256Y10480D01*
X-163554Y11200D01*
X-164029Y11819D01*
X-164648Y12294D01*
X-165368Y12593D01*
X-166142Y12694D01*
D02*
G37*
G36*
X-47516Y10084D02*
X-48096Y9969D01*
X-48587Y9641D01*
X-48916Y9149D01*
X-49031Y8569D01*
X-48916Y7990D01*
X-48695Y7659D01*
X-48696Y7641D01*
X-48693Y7630D01*
X-48693Y7625D01*
X-48687Y7612D01*
X-48684Y7598D01*
X-48681Y7578D01*
X-48667Y7378D01*
X-48665Y7299D01*
X-48638Y7234D01*
Y-6888D01*
X-48634Y-6907D01*
X-48768Y-8274D01*
X-49173Y-9606D01*
X-49829Y-10835D01*
X-49925Y-10951D01*
X-49954Y-10965D01*
X-49965Y-10997D01*
X-49995Y-11015D01*
X-50041Y-11076D01*
X-50122Y-11174D01*
X-50143Y-11195D01*
X-50159Y-11209D01*
X-50164Y-11212D01*
X-50167Y-11215D01*
X-50185Y-11227D01*
X-50193Y-11239D01*
X-50503Y-11300D01*
X-50995Y-11629D01*
X-51323Y-12120D01*
X-51439Y-12700D01*
X-51323Y-13280D01*
X-50995Y-13771D01*
X-50503Y-14100D01*
X-49924Y-14215D01*
X-49344Y-14100D01*
X-48852Y-13771D01*
X-48524Y-13280D01*
X-48430Y-12807D01*
X-48422Y-12799D01*
X-48420Y-12796D01*
X-48417Y-12792D01*
X-48411Y-12775D01*
X-48409Y-12770D01*
X-48404Y-12761D01*
X-48256Y-12532D01*
X-48207Y-12464D01*
X-48186Y-12379D01*
X-47949Y-12091D01*
X-47084Y-10471D01*
X-46551Y-8715D01*
X-46371Y-6888D01*
X-46395D01*
Y5209D01*
X-45933Y5400D01*
X-45518Y4985D01*
X-45170Y4626D01*
X-45170Y4626D01*
X-44243Y3866D01*
X-43186Y3300D01*
X-42387Y3058D01*
X-42294Y2988D01*
X-42111Y2942D01*
X-41982Y2904D01*
X-41900Y2874D01*
X-41895Y2872D01*
X-41878Y2863D01*
X-41871Y2863D01*
X-41425Y2565D01*
X-40846Y2450D01*
X-40266Y2565D01*
X-39775Y2893D01*
X-39446Y3385D01*
X-39331Y3964D01*
X-39446Y4544D01*
X-39775Y5036D01*
X-40266Y5364D01*
X-40846Y5479D01*
X-41425Y5364D01*
X-41644Y5218D01*
X-41644Y5218D01*
X-41652Y5220D01*
X-41671Y5217D01*
X-41686Y5217D01*
X-41707Y5219D01*
X-41823Y5241D01*
X-41893Y5259D01*
X-41942Y5252D01*
X-42780Y5600D01*
X-43201Y5922D01*
X-43578Y6218D01*
X-43924Y6563D01*
X-45774Y8414D01*
X-45799Y8478D01*
X-45915Y8599D01*
X-45988Y8687D01*
X-46003Y8708D01*
X-46011Y8721D01*
X-46016Y8733D01*
X-46020Y8737D01*
X-46025Y8748D01*
X-46039Y8759D01*
X-46117Y9149D01*
X-46445Y9641D01*
X-46936Y9969D01*
X-47516Y10084D01*
D02*
G37*
G36*
X-160236Y12539D02*
X-160816Y12423D01*
X-161307Y12095D01*
X-161636Y11603D01*
X-161751Y11024D01*
X-161636Y10444D01*
X-161415Y10113D01*
X-161416Y10095D01*
X-161413Y10084D01*
X-161413Y10079D01*
X-161407Y10066D01*
X-161404Y10052D01*
X-161401Y10032D01*
X-161387Y9832D01*
X-161386Y9753D01*
X-161358Y9688D01*
Y8268D01*
X-161378D01*
X-161212Y6586D01*
X-160721Y4968D01*
X-159925Y3478D01*
X-158853Y2171D01*
X-157546Y1099D01*
X-156055Y302D01*
X-154438Y-189D01*
X-154207Y-211D01*
X-154147Y-249D01*
X-154056Y-265D01*
X-153907Y-295D01*
X-153804Y-322D01*
X-153784Y-328D01*
X-153777Y-331D01*
X-153761Y-338D01*
X-153757Y-339D01*
X-153753Y-340D01*
X-153743Y-340D01*
X-153336Y-612D01*
X-152756Y-728D01*
X-152176Y-612D01*
X-151685Y-284D01*
X-151356Y208D01*
X-151241Y787D01*
X-151356Y1367D01*
X-151685Y1859D01*
X-152176Y2187D01*
X-152756Y2302D01*
X-153336Y2187D01*
X-153592Y2016D01*
X-153605Y2018D01*
X-153627Y2014D01*
X-153632Y2014D01*
X-153636Y2013D01*
X-153655Y2012D01*
X-153683Y2013D01*
X-153808Y2026D01*
X-153884Y2038D01*
X-153921Y2029D01*
X-153955Y2046D01*
X-154000Y2030D01*
X-155190Y2391D01*
X-156290Y2979D01*
X-157254Y3770D01*
X-158045Y4734D01*
X-158633Y5833D01*
X-158995Y7027D01*
X-159116Y8260D01*
X-159115Y8268D01*
Y9682D01*
X-159087Y9744D01*
X-159083Y9912D01*
X-159072Y10026D01*
X-159068Y10052D01*
X-159065Y10066D01*
X-159060Y10079D01*
X-159060Y10084D01*
X-159056Y10095D01*
X-159058Y10113D01*
X-158837Y10444D01*
X-158721Y11024D01*
X-158837Y11603D01*
X-159165Y12095D01*
X-159657Y12423D01*
X-160236Y12539D01*
D02*
G37*
G36*
X-172047Y6789D02*
X-172820Y6687D01*
X-173541Y6389D01*
X-174160Y5914D01*
X-174635Y5295D01*
X-174933Y4574D01*
X-175035Y3801D01*
X-174933Y3028D01*
X-174635Y2307D01*
X-174160Y1688D01*
X-173541Y1213D01*
X-172820Y915D01*
X-172047Y813D01*
X-171274Y915D01*
X-170553Y1213D01*
X-169935Y1688D01*
X-169594Y2132D01*
X-169116Y1933D01*
X-169130Y1832D01*
X-169028Y1059D01*
X-168729Y339D01*
X-168254Y-280D01*
X-167636Y-755D01*
X-166915Y-1053D01*
X-166142Y-1155D01*
X-165368Y-1053D01*
X-164648Y-755D01*
X-164029Y-280D01*
X-163554Y339D01*
X-163256Y1059D01*
X-163154Y1832D01*
X-163256Y2606D01*
X-163554Y3326D01*
X-164029Y3945D01*
X-164648Y4420D01*
X-165368Y4718D01*
X-166142Y4820D01*
X-166915Y4718D01*
X-167636Y4420D01*
X-168254Y3945D01*
X-168595Y3502D01*
X-169073Y3700D01*
X-169060Y3801D01*
X-169161Y4574D01*
X-169460Y5295D01*
X-169935Y5914D01*
X-170553Y6389D01*
X-171274Y6687D01*
X-172047Y6789D01*
D02*
G37*
G36*
X-166929Y-5402D02*
X-168344D01*
Y-6866D01*
X-164864D01*
X-164883Y-6769D01*
X-165363Y-6051D01*
X-166082Y-5571D01*
X-166929Y-5402D01*
D02*
G37*
G36*
X-169844D02*
X-171260D01*
X-172107Y-5571D01*
X-172826Y-6051D01*
X-173305Y-6769D01*
X-173325Y-6866D01*
X-169844D01*
Y-5402D01*
D02*
G37*
G36*
X-201181D02*
X-201809D01*
Y-6866D01*
X-199116D01*
X-199135Y-6769D01*
X-199615Y-6051D01*
X-200334Y-5571D01*
X-201181Y-5402D01*
D02*
G37*
G36*
X-203309D02*
X-203937D01*
X-204784Y-5571D01*
X-205503Y-6051D01*
X-205983Y-6769D01*
X-206002Y-6866D01*
X-203309D01*
Y-5402D01*
D02*
G37*
G36*
X-164864Y-8366D02*
X-168344D01*
Y-9831D01*
X-166929D01*
X-166082Y-9662D01*
X-165363Y-9182D01*
X-164883Y-8464D01*
X-164864Y-8366D01*
D02*
G37*
G36*
X-169844D02*
X-173325D01*
X-173305Y-8464D01*
X-172826Y-9182D01*
X-172107Y-9662D01*
X-171260Y-9831D01*
X-169844D01*
Y-8366D01*
D02*
G37*
G36*
X-199116D02*
X-201809D01*
Y-9831D01*
X-201181D01*
X-200334Y-9662D01*
X-199615Y-9182D01*
X-199135Y-8464D01*
X-199116Y-8366D01*
D02*
G37*
G36*
X-203309D02*
X-206002D01*
X-205983Y-8464D01*
X-205503Y-9182D01*
X-204784Y-9662D01*
X-203937Y-9831D01*
X-203309D01*
Y-8366D01*
D02*
G37*
G36*
X-87800Y-9685D02*
X-88380Y-9800D01*
X-88432Y-9835D01*
X-88836Y-10066D01*
X-90578Y-10203D01*
X-92277Y-10611D01*
X-93891Y-11279D01*
X-95381Y-12192D01*
X-96709Y-13327D01*
X-96709Y-13327D01*
X-97054Y-13689D01*
X-108675Y-25310D01*
X-108684Y-25301D01*
X-109818Y-26630D01*
X-110731Y-28119D01*
X-111400Y-29734D01*
X-111808Y-31433D01*
X-111945Y-33174D01*
X-112020Y-33235D01*
X-112654Y-33192D01*
X-112887Y-32887D01*
X-113506Y-32412D01*
X-114227Y-32114D01*
X-115000Y-32012D01*
X-115773Y-32114D01*
X-116494Y-32412D01*
X-117113Y-32887D01*
X-117587Y-33506D01*
X-117886Y-34227D01*
X-117988Y-35000D01*
X-117886Y-35773D01*
X-117587Y-36494D01*
X-117113Y-37113D01*
X-116494Y-37587D01*
X-115773Y-37886D01*
X-115000Y-37988D01*
X-114227Y-37886D01*
X-114004Y-37794D01*
X-113377Y-38075D01*
X-113353Y-38142D01*
X-113654Y-38507D01*
X-113965Y-38879D01*
X-114333Y-39197D01*
X-115251Y-39951D01*
X-116582Y-40662D01*
X-116634Y-40659D01*
X-116764Y-40703D01*
X-116853Y-40718D01*
X-116952Y-40721D01*
X-117067Y-40709D01*
X-117200Y-40677D01*
X-117352Y-40624D01*
X-117521Y-40545D01*
X-117708Y-40440D01*
X-117909Y-40306D01*
X-118137Y-40134D01*
X-118259Y-40102D01*
X-118506Y-39913D01*
X-119227Y-39614D01*
X-120000Y-39512D01*
X-120773Y-39614D01*
X-121494Y-39913D01*
X-122113Y-40387D01*
X-122588Y-41006D01*
X-122886Y-41727D01*
X-122988Y-42500D01*
X-122886Y-43273D01*
X-122588Y-43994D01*
X-122113Y-44613D01*
X-121494Y-45088D01*
X-120773Y-45386D01*
X-120000Y-45488D01*
X-119227Y-45386D01*
X-118506Y-45088D01*
X-117887Y-44613D01*
X-117725Y-44402D01*
X-117619Y-44344D01*
X-117236Y-43872D01*
X-117069Y-43686D01*
X-116727Y-43350D01*
X-116579Y-43224D01*
X-116433Y-43115D01*
X-116298Y-43026D01*
X-116173Y-42957D01*
X-116032Y-42894D01*
X-115952Y-42810D01*
X-115101Y-42457D01*
X-113658Y-41572D01*
X-113202Y-41183D01*
X-112786Y-41486D01*
X-112886Y-41727D01*
X-112988Y-42500D01*
X-112886Y-43273D01*
X-112587Y-43994D01*
X-112113Y-44613D01*
X-111494Y-45088D01*
X-110773Y-45386D01*
X-110000Y-45488D01*
X-109227Y-45386D01*
X-108506Y-45088D01*
X-107887Y-44613D01*
X-107413Y-43994D01*
X-107114Y-43273D01*
X-107012Y-42500D01*
X-107114Y-41727D01*
X-107284Y-41317D01*
X-107290Y-41187D01*
X-107584Y-40560D01*
X-107805Y-40034D01*
X-107958Y-39598D01*
X-108006Y-39430D01*
X-108039Y-39286D01*
X-108056Y-39177D01*
X-108062Y-39065D01*
X-108089Y-39010D01*
Y-36590D01*
X-107589Y-36490D01*
X-107588Y-36494D01*
X-107113Y-37113D01*
X-106494Y-37587D01*
X-105773Y-37886D01*
X-105000Y-37988D01*
X-104227Y-37886D01*
X-103506Y-37587D01*
X-102887Y-37113D01*
X-102412Y-36494D01*
X-102114Y-35773D01*
X-102012Y-35000D01*
X-102114Y-34227D01*
X-102412Y-33506D01*
X-102887Y-32887D01*
X-103506Y-32412D01*
X-104227Y-32114D01*
X-105000Y-32012D01*
X-105773Y-32114D01*
X-106494Y-32412D01*
X-107113Y-32887D01*
X-107588Y-33506D01*
X-107589Y-33509D01*
X-108089Y-33410D01*
Y-33174D01*
X-108093Y-33152D01*
X-107956Y-31753D01*
X-107541Y-30386D01*
X-106868Y-29127D01*
X-105976Y-28040D01*
X-105957Y-28028D01*
X-95114Y-17185D01*
X-95114Y-17185D01*
X-94746Y-16867D01*
X-93846Y-16129D01*
X-92391Y-15350D01*
X-90811Y-14871D01*
X-89472Y-14739D01*
X-88976Y-14730D01*
Y-14730D01*
X-87778Y-14612D01*
X-86626Y-14262D01*
X-85564Y-13694D01*
X-84633Y-12931D01*
X-84213Y-12738D01*
X-84020Y-12700D01*
X-83529Y-12371D01*
X-83200Y-11880D01*
X-83085Y-11300D01*
X-83200Y-10720D01*
X-83529Y-10229D01*
X-84020Y-9900D01*
X-84600Y-9785D01*
X-85180Y-9900D01*
X-85671Y-10229D01*
X-85900Y-10572D01*
X-86136Y-10594D01*
X-86417Y-10565D01*
X-86444Y-10554D01*
X-86729Y-10129D01*
X-87220Y-9800D01*
X-87800Y-9685D01*
D02*
G37*
G36*
X-200250Y-10357D02*
Y-13550D01*
X-195482D01*
Y-10357D01*
X-200250D01*
D02*
G37*
G36*
X-195482Y-15050D02*
X-200250D01*
Y-18243D01*
X-195482D01*
Y-15050D01*
D02*
G37*
G36*
X-150556Y-18453D02*
X-151065Y-18555D01*
X-151575Y-18453D01*
X-152277Y-18593D01*
X-152873Y-18991D01*
X-159970Y-26088D01*
X-159970Y-26088D01*
X-160147Y-26265D01*
X-161193Y-27124D01*
X-162609Y-27881D01*
X-164146Y-28347D01*
X-165660Y-28496D01*
X-165743Y-28480D01*
X-168873D01*
X-169095Y-28436D01*
X-169914Y-28599D01*
X-170608Y-29063D01*
X-171073Y-29757D01*
X-171236Y-30577D01*
X-171073Y-31396D01*
X-170608Y-32091D01*
X-169914Y-32555D01*
X-169095Y-32718D01*
X-168275Y-32555D01*
X-167669Y-32150D01*
X-166685D01*
X-166494Y-32612D01*
X-167180Y-33298D01*
X-173095D01*
Y-40404D01*
X-166777D01*
Y-37785D01*
X-166507Y-37640D01*
X-165956Y-37188D01*
X-165567Y-36877D01*
X-165567Y-36877D01*
Y-36877D01*
X-165226Y-36536D01*
X-157728Y-29037D01*
X-157385Y-28695D01*
X-157374Y-28685D01*
X-157021Y-28330D01*
X-150772Y-22081D01*
X-150556Y-22124D01*
X-149854Y-21984D01*
X-149258Y-21586D01*
X-148860Y-20991D01*
X-148721Y-20289D01*
X-148860Y-19586D01*
X-149258Y-18991D01*
X-149854Y-18593D01*
X-150556Y-18453D01*
D02*
G37*
G36*
X-163181Y-15401D02*
X-164922Y-15538D01*
X-166621Y-15946D01*
X-168236Y-16615D01*
X-169725Y-17528D01*
X-171054Y-18662D01*
X-171054Y-18662D01*
X-171398Y-19025D01*
X-177912Y-25539D01*
X-177939Y-25580D01*
X-179250Y-26655D01*
X-180787Y-27477D01*
X-182455Y-27983D01*
X-183647Y-28100D01*
X-183995Y-27956D01*
X-185808Y-27520D01*
X-187668Y-27374D01*
Y-27374D01*
X-189559D01*
X-189583Y-27372D01*
Y-27374D01*
X-190111Y-27479D01*
X-192478D01*
Y-26365D01*
X-192345Y-25921D01*
X-190333D01*
Y-24339D01*
Y-22758D01*
X-191299D01*
X-191454Y-22443D01*
X-191457Y-22258D01*
X-190881Y-21816D01*
X-190155Y-21516D01*
X-189854Y-21476D01*
X-189854Y-21476D01*
X-189672Y-21455D01*
X-189621Y-21452D01*
X-189579Y-21452D01*
X-189552Y-21454D01*
X-189549Y-21455D01*
X-189540Y-21459D01*
X-189532Y-21459D01*
X-189515Y-21463D01*
X-189509Y-21462D01*
X-189170Y-21688D01*
X-188590Y-21804D01*
X-188011Y-21688D01*
X-187519Y-21360D01*
X-187191Y-20868D01*
X-187075Y-20289D01*
X-187191Y-19709D01*
X-187519Y-19217D01*
X-188011Y-18889D01*
X-188590Y-18774D01*
X-189170Y-18889D01*
X-189400Y-19042D01*
X-190210Y-19206D01*
X-190297Y-19265D01*
X-190742Y-19323D01*
X-192016Y-19851D01*
X-193110Y-20690D01*
X-193112Y-20688D01*
X-193999Y-21845D01*
X-194557Y-23193D01*
X-194748Y-24638D01*
X-194722D01*
Y-32430D01*
X-194740Y-32430D01*
X-194712Y-32797D01*
X-194701Y-32854D01*
X-194701Y-32854D01*
X-194696Y-32879D01*
X-194692Y-32918D01*
X-194692Y-32918D01*
X-194580Y-34051D01*
X-194107Y-35610D01*
X-193340Y-37047D01*
X-193230Y-37180D01*
X-193216Y-37242D01*
X-193163Y-37319D01*
X-193079Y-37446D01*
X-193026Y-37539D01*
X-193016Y-37558D01*
X-193013Y-37565D01*
X-193007Y-37582D01*
X-193004Y-37585D01*
X-193003Y-37589D01*
X-192996Y-37595D01*
X-192900Y-38080D01*
X-192571Y-38571D01*
X-192080Y-38900D01*
X-191500Y-39015D01*
X-190920Y-38900D01*
X-190429Y-38571D01*
X-190100Y-38080D01*
X-189985Y-37500D01*
X-190100Y-36920D01*
X-190429Y-36429D01*
X-190920Y-36100D01*
X-191218Y-36041D01*
X-191221Y-36037D01*
X-191221Y-36037D01*
X-191222Y-36037D01*
X-191226Y-36030D01*
X-191245Y-36018D01*
X-191248Y-36014D01*
X-191251Y-36013D01*
X-191264Y-36000D01*
X-191283Y-35980D01*
X-191361Y-35882D01*
X-191405Y-35820D01*
X-191439Y-35799D01*
X-191453Y-35761D01*
X-191483Y-35746D01*
X-192019Y-34745D01*
X-192363Y-33610D01*
X-192479Y-32432D01*
X-192478Y-32430D01*
Y-31042D01*
X-190111D01*
X-189583Y-31147D01*
X-189411D01*
X-188481Y-31269D01*
X-187455Y-31694D01*
X-186574Y-32370D01*
X-185898Y-33252D01*
X-185473Y-34278D01*
X-185388Y-34925D01*
X-185443Y-35007D01*
X-185606Y-35827D01*
X-185443Y-36646D01*
X-184979Y-37341D01*
X-184284Y-37805D01*
X-183465Y-37968D01*
X-182645Y-37805D01*
X-181951Y-37341D01*
X-181486Y-36646D01*
X-181323Y-35827D01*
X-181486Y-35007D01*
X-181522Y-34954D01*
X-181471Y-34690D01*
X-180930Y-34524D01*
X-180575Y-34878D01*
Y-40404D01*
X-174257D01*
Y-33298D01*
X-176879D01*
X-177122Y-32982D01*
X-177130Y-32989D01*
X-179263Y-30856D01*
X-179263Y-30856D01*
X-180177Y-30074D01*
X-180099Y-29581D01*
X-179135Y-29181D01*
X-177646Y-28269D01*
X-176317Y-27134D01*
X-176326Y-27125D01*
X-169459Y-20257D01*
X-169459Y-20257D01*
X-169091Y-19937D01*
X-168121Y-19141D01*
X-166584Y-18319D01*
X-164916Y-17813D01*
X-163229Y-17647D01*
X-163181Y-17657D01*
X-149692D01*
X-149688Y-17656D01*
X-149341Y-17725D01*
X-149270Y-17744D01*
X-149228Y-17758D01*
X-149218Y-17762D01*
X-149190Y-17903D01*
X-148862Y-18394D01*
X-148371Y-18722D01*
X-147791Y-18838D01*
X-147211Y-18722D01*
X-146720Y-18394D01*
X-146391Y-17903D01*
X-146276Y-17323D01*
X-146391Y-16743D01*
X-146720Y-16252D01*
X-147211Y-15923D01*
X-147791Y-15808D01*
X-147809Y-15811D01*
X-148337Y-15634D01*
X-148442Y-15641D01*
X-148703Y-15533D01*
X-149692Y-15403D01*
Y-15414D01*
X-163181D01*
Y-15401D01*
D02*
G37*
G36*
X-107848Y-14985D02*
X-113773D01*
Y-20910D01*
X-107848D01*
Y-14985D01*
D02*
G37*
G36*
X-120810Y-14960D02*
X-121584Y-15062D01*
X-122304Y-15360D01*
X-122923Y-15835D01*
X-123398Y-16454D01*
X-123696Y-17174D01*
X-123798Y-17947D01*
X-123696Y-18721D01*
X-123398Y-19441D01*
X-122923Y-20060D01*
X-122304Y-20535D01*
X-121584Y-20833D01*
X-120810Y-20935D01*
X-120037Y-20833D01*
X-119317Y-20535D01*
X-118698Y-20060D01*
X-118223Y-19441D01*
X-117924Y-18721D01*
X-117823Y-17947D01*
X-117924Y-17174D01*
X-118223Y-16454D01*
X-118698Y-15835D01*
X-119317Y-15360D01*
X-120037Y-15062D01*
X-120810Y-14960D01*
D02*
G37*
G36*
X-186820Y-22758D02*
X-188833D01*
Y-23589D01*
X-186820D01*
Y-22758D01*
D02*
G37*
G36*
X-125984Y-19876D02*
X-126564Y-19991D01*
X-127056Y-20320D01*
X-127384Y-20811D01*
X-127499Y-21391D01*
X-127384Y-21971D01*
X-127163Y-22302D01*
X-127164Y-22319D01*
X-127161Y-22331D01*
X-127161Y-22336D01*
X-127155Y-22349D01*
X-127152Y-22363D01*
X-127149Y-22382D01*
X-127135Y-22583D01*
X-127134Y-22662D01*
X-127106Y-22727D01*
Y-23228D01*
X-127111D01*
X-127205Y-23701D01*
X-127349Y-23918D01*
X-127767Y-24191D01*
X-128347Y-24076D01*
X-128926Y-24191D01*
X-129418Y-24519D01*
X-129746Y-25011D01*
X-129861Y-25591D01*
X-129746Y-26170D01*
X-129418Y-26662D01*
X-128926Y-26990D01*
X-128347Y-27106D01*
X-127767Y-26990D01*
X-127275Y-26662D01*
X-127251Y-26626D01*
X-126795Y-26378D01*
X-126741Y-26311D01*
X-126600Y-26253D01*
X-125877Y-25698D01*
X-125322Y-24974D01*
X-124973Y-24132D01*
X-124854Y-23228D01*
X-124863D01*
Y-22733D01*
X-124835Y-22670D01*
X-124831Y-22502D01*
X-124820Y-22388D01*
X-124816Y-22363D01*
X-124813Y-22349D01*
X-124808Y-22336D01*
X-124808Y-22331D01*
X-124804Y-22319D01*
X-124806Y-22302D01*
X-124585Y-21971D01*
X-124469Y-21391D01*
X-124585Y-20811D01*
X-124913Y-20320D01*
X-125405Y-19991D01*
X-125984Y-19876D01*
D02*
G37*
G36*
X-82420Y-25427D02*
X-82595Y-25469D01*
X-82630Y-25469D01*
X-82695Y-25455D01*
X-82719Y-25470D01*
X-82774Y-25470D01*
X-82836Y-25496D01*
X-82876Y-25537D01*
X-82904Y-25543D01*
X-82905Y-25545D01*
X-82939Y-25600D01*
X-82963Y-25624D01*
X-83115Y-25721D01*
X-83194Y-25833D01*
X-83213Y-25917D01*
X-83271Y-25979D01*
X-83764Y-27294D01*
X-83763Y-27315D01*
X-83777Y-27332D01*
X-83944Y-27877D01*
X-83930Y-28025D01*
X-84034Y-28547D01*
X-84034Y-28547D01*
X-84038Y-28986D01*
X-84039Y-29045D01*
X-84053Y-29261D01*
X-84075Y-29445D01*
X-84102Y-29587D01*
X-84126Y-29668D01*
X-84534D01*
Y-30190D01*
X-84571Y-30280D01*
X-84552Y-30326D01*
X-84565Y-30374D01*
X-84534Y-30426D01*
Y-34835D01*
X-84565Y-34886D01*
X-84553Y-34934D01*
X-84571Y-34980D01*
X-84534Y-35071D01*
Y-35592D01*
X-84534D01*
X-84371Y-36092D01*
X-84469Y-36588D01*
X-84330Y-37290D01*
X-83932Y-37886D01*
X-83337Y-38284D01*
X-82634Y-38423D01*
X-81932Y-38284D01*
X-81336Y-37886D01*
X-80939Y-37290D01*
X-80799Y-36588D01*
X-80903Y-36064D01*
X-80972Y-35592D01*
X-80972Y-35592D01*
X-80972Y-35592D01*
Y-35071D01*
X-80934Y-34980D01*
X-80967Y-34901D01*
X-80956Y-34815D01*
X-80972Y-34794D01*
Y-30466D01*
X-80956Y-30445D01*
X-80967Y-30360D01*
X-80934Y-30280D01*
X-80972Y-30190D01*
Y-29668D01*
X-80972D01*
X-81029Y-29275D01*
X-80685Y-28870D01*
X-79549D01*
X-79347Y-29237D01*
X-79506Y-29529D01*
X-79613Y-29668D01*
X-79613D01*
Y-30190D01*
X-79650Y-30280D01*
X-79630Y-30330D01*
X-79642Y-30382D01*
X-79613Y-30430D01*
Y-34831D01*
X-79642Y-34879D01*
X-79630Y-34931D01*
X-79650Y-34980D01*
X-79613Y-35071D01*
Y-35592D01*
X-79613D01*
X-79490Y-36092D01*
X-79588Y-36588D01*
X-79448Y-37290D01*
X-79051Y-37886D01*
X-78455Y-38284D01*
X-77753Y-38423D01*
X-77051Y-38284D01*
X-76455Y-37886D01*
X-76057Y-37290D01*
X-75918Y-36588D01*
X-76019Y-36079D01*
X-76051Y-35592D01*
X-76051Y-35592D01*
X-76051Y-35592D01*
Y-35071D01*
X-76013Y-34980D01*
X-76043Y-34909D01*
X-76030Y-34834D01*
X-76051Y-34805D01*
Y-30456D01*
X-76030Y-30427D01*
X-76043Y-30351D01*
X-76013Y-30280D01*
X-76051Y-30190D01*
Y-29668D01*
X-76301D01*
X-76304Y-29656D01*
X-76350Y-29037D01*
X-76354Y-28772D01*
X-76376Y-28719D01*
Y-28149D01*
X-76362D01*
X-76526Y-27324D01*
X-76934Y-26713D01*
Y-25898D01*
X-81914D01*
X-81919Y-25891D01*
X-81923Y-25871D01*
X-81924Y-25817D01*
X-81940Y-25801D01*
X-81953Y-25748D01*
X-81997Y-25688D01*
X-82083Y-25635D01*
X-82107Y-25596D01*
X-82158Y-25585D01*
X-82277Y-25468D01*
X-82354Y-25468D01*
X-82418Y-25429D01*
X-82419Y-25429D01*
X-82420Y-25427D01*
D02*
G37*
G36*
X-186820Y-25089D02*
X-188833D01*
Y-25921D01*
X-186820D01*
Y-25089D01*
D02*
G37*
G36*
X-66408Y-29868D02*
X-67239D01*
Y-31880D01*
X-66408D01*
Y-29868D01*
D02*
G37*
G36*
X-68739D02*
X-69570D01*
Y-31880D01*
X-68739D01*
Y-29868D01*
D02*
G37*
G36*
X-66408Y-33380D02*
X-67239D01*
Y-35392D01*
X-66408D01*
Y-33380D01*
D02*
G37*
G36*
X-68739D02*
X-69570D01*
Y-35392D01*
X-68739D01*
Y-33380D01*
D02*
G37*
G36*
X-125000Y-32012D02*
X-125773Y-32114D01*
X-126494Y-32412D01*
X-127113Y-32887D01*
X-127587Y-33506D01*
X-127886Y-34227D01*
X-127988Y-35000D01*
X-127886Y-35773D01*
X-127587Y-36494D01*
X-127113Y-37113D01*
X-126494Y-37587D01*
X-125773Y-37886D01*
X-125000Y-37988D01*
X-124227Y-37886D01*
X-123506Y-37587D01*
X-122887Y-37113D01*
X-122413Y-36494D01*
X-122114Y-35773D01*
X-122012Y-35000D01*
X-122114Y-34227D01*
X-122413Y-33506D01*
X-122887Y-32887D01*
X-123506Y-32412D01*
X-124227Y-32114D01*
X-125000Y-32012D01*
D02*
G37*
G36*
X-71129Y-29668D02*
X-74692D01*
Y-34824D01*
X-74719Y-34867D01*
X-74706Y-34925D01*
X-74729Y-34980D01*
X-74692Y-35071D01*
Y-35592D01*
X-74692Y-35592D01*
X-74727Y-36078D01*
X-74828Y-36588D01*
X-74689Y-37290D01*
X-74291Y-37886D01*
X-73695Y-38284D01*
X-72993Y-38423D01*
X-72291Y-38284D01*
X-71695Y-37886D01*
X-71298Y-37290D01*
X-71158Y-36588D01*
X-71256Y-36092D01*
X-71129Y-35592D01*
X-71129D01*
Y-35071D01*
X-71092Y-34980D01*
X-71115Y-34925D01*
X-71102Y-34867D01*
X-71129Y-34824D01*
Y-29668D01*
D02*
G37*
G36*
X-200250Y-35357D02*
Y-38550D01*
X-195482D01*
Y-35357D01*
X-200250D01*
D02*
G37*
G36*
X-195482Y-40050D02*
X-200250D01*
Y-43243D01*
X-195482D01*
Y-40050D01*
D02*
G37*
G36*
X-53810Y-38136D02*
X-57200D01*
Y-43297D01*
X-53810D01*
Y-38136D01*
D02*
G37*
G36*
X-58700D02*
X-62090D01*
Y-43297D01*
X-58700D01*
Y-38136D01*
D02*
G37*
G36*
X-88652D02*
X-92042D01*
Y-43297D01*
X-88652D01*
Y-38136D01*
D02*
G37*
G36*
X-93542D02*
X-96933D01*
Y-43297D01*
X-93542D01*
Y-38136D01*
D02*
G37*
G36*
X-47205Y-43001D02*
Y-44930D01*
X-45276D01*
X-45542Y-44287D01*
X-45985Y-43711D01*
X-46562Y-43268D01*
X-47205Y-43001D01*
D02*
G37*
G36*
X-48705Y-43001D02*
X-49348Y-43268D01*
X-49925Y-43711D01*
X-50368Y-44287D01*
X-50634Y-44930D01*
X-48705D01*
Y-43001D01*
D02*
G37*
G36*
Y-46431D02*
X-50634D01*
X-50368Y-47074D01*
X-49925Y-47651D01*
X-49348Y-48093D01*
X-48705Y-48360D01*
Y-46431D01*
D02*
G37*
G36*
X-45276D02*
X-47205D01*
Y-48360D01*
X-46562Y-48093D01*
X-45985Y-47651D01*
X-45542Y-47074D01*
X-45276Y-46431D01*
D02*
G37*
G36*
X-53810Y-44798D02*
X-57200D01*
Y-49959D01*
X-53810D01*
Y-44798D01*
D02*
G37*
G36*
X-58700D02*
X-62090D01*
Y-49959D01*
X-58700D01*
Y-44798D01*
D02*
G37*
G36*
X-88652D02*
X-92042D01*
Y-49959D01*
X-88652D01*
Y-44798D01*
D02*
G37*
G36*
X-93542D02*
X-96933D01*
Y-49959D01*
X-93542D01*
Y-44798D01*
D02*
G37*
%LPD*%
G36*
X-147952Y31865D02*
X-148033Y31814D01*
X-148169Y31712D01*
X-148224Y31661D01*
X-148270Y31610D01*
X-148308Y31559D01*
X-148338Y31508D01*
X-148359Y31458D01*
X-148371Y31407D01*
X-148375Y31356D01*
X-149250Y32234D01*
X-148467Y32722D01*
X-147952Y31865D01*
D02*
G37*
G36*
X-146829Y29431D02*
X-146872Y29435D01*
X-146915Y29429D01*
X-146956Y29412D01*
X-146997Y29385D01*
X-147037Y29348D01*
X-147077Y29300D01*
X-147115Y29242D01*
X-147153Y29174D01*
X-147190Y29095D01*
X-147226Y29006D01*
X-147817Y30055D01*
X-147518Y30434D01*
X-146829Y29431D01*
D02*
G37*
G36*
X-72582Y27042D02*
X-72618Y27039D01*
X-72657Y27028D01*
X-72701Y27011D01*
X-72748Y26985D01*
X-72799Y26953D01*
X-72854Y26913D01*
X-72975Y26812D01*
X-73113Y26682D01*
X-73820Y27389D01*
X-73751Y27459D01*
X-73588Y27648D01*
X-73549Y27703D01*
X-73516Y27754D01*
X-73491Y27801D01*
X-73473Y27844D01*
X-73462Y27884D01*
X-73459Y27919D01*
X-72582Y27042D01*
D02*
G37*
G36*
X-141837Y25190D02*
X-141811Y25078D01*
X-141768Y24968D01*
X-141707Y24860D01*
X-141629Y24755D01*
X-141533Y24651D01*
X-141420Y24550D01*
X-141290Y24451D01*
X-141142Y24354D01*
X-140977Y24259D01*
X-140937Y23144D01*
X-141110Y23231D01*
X-141264Y23296D01*
X-141401Y23340D01*
X-141519Y23361D01*
X-141619Y23361D01*
X-141700Y23340D01*
X-141764Y23296D01*
X-141810Y23231D01*
X-141837Y23143D01*
X-141846Y23034D01*
Y25305D01*
X-141837Y25190D01*
D02*
G37*
G36*
X-143887Y28084D02*
X-143627Y27355D01*
X-143553Y27227D01*
X-143485Y27158D01*
X-143425Y27146D01*
X-143370Y27192D01*
X-143322Y27296D01*
X-143280Y27458D01*
X-144172Y23032D01*
X-144136Y23271D01*
X-144117Y23538D01*
X-144117Y23834D01*
X-144134Y24157D01*
X-144223Y24888D01*
X-144294Y25295D01*
X-144615Y26684D01*
X-143986Y28442D01*
X-143887Y28084D01*
D02*
G37*
G36*
X-146839Y23701D02*
X-146878Y23629D01*
X-146884Y23539D01*
X-146857Y23433D01*
X-146797Y23309D01*
X-146704Y23168D01*
X-146578Y23010D01*
X-146418Y22836D01*
X-146001Y22435D01*
X-147101Y22007D01*
X-147314Y22192D01*
X-147700Y22490D01*
X-147872Y22603D01*
X-148031Y22692D01*
X-148177Y22756D01*
X-148309Y22795D01*
X-148427Y22811D01*
X-148532Y22802D01*
X-148624Y22770D01*
X-146767Y23757D01*
X-146839Y23701D01*
D02*
G37*
G36*
X-73375Y20849D02*
X-73396Y20881D01*
X-73424Y20909D01*
X-73462Y20935D01*
X-73508Y20957D01*
X-73563Y20975D01*
X-73626Y20990D01*
X-73698Y21002D01*
X-73779Y21011D01*
X-73966Y21017D01*
X-73941Y22017D01*
X-72965Y22019D01*
X-73375Y20849D01*
D02*
G37*
G36*
X-75087Y16961D02*
X-75115Y16983D01*
X-75150Y17004D01*
X-75194Y17022D01*
X-75245Y17037D01*
X-75304Y17051D01*
X-75371Y17061D01*
X-75528Y17076D01*
X-75718Y17081D01*
Y18080D01*
X-75619Y18082D01*
X-75371Y18100D01*
X-75304Y18111D01*
X-75245Y18124D01*
X-75194Y18139D01*
X-75150Y18157D01*
X-75115Y18178D01*
X-75087Y18201D01*
X-75087Y16961D01*
D02*
G37*
G36*
X-84048Y15073D02*
X-84069Y15037D01*
X-84087Y14994D01*
X-84102Y14943D01*
X-84116Y14884D01*
X-84127Y14817D01*
X-84141Y14659D01*
X-84146Y14470D01*
X-85146D01*
X-85147Y14569D01*
X-85165Y14817D01*
X-85176Y14884D01*
X-85189Y14943D01*
X-85204Y14994D01*
X-85223Y15037D01*
X-85243Y15073D01*
X-85266Y15100D01*
X-84026D01*
X-84048Y15073D01*
D02*
G37*
G36*
X-90140Y11176D02*
X-90200Y11110D01*
X-90342Y10930D01*
X-90377Y10876D01*
X-90405Y10824D01*
X-90426Y10776D01*
X-90442Y10731D01*
X-90450Y10688D01*
X-90453Y10649D01*
X-91340Y11516D01*
X-91310Y11520D01*
X-91276Y11531D01*
X-91237Y11551D01*
X-91193Y11578D01*
X-91144Y11613D01*
X-91031Y11707D01*
X-90899Y11832D01*
X-90826Y11906D01*
X-90140Y11176D01*
D02*
G37*
G36*
X-88197Y9448D02*
X-88213Y9407D01*
X-88223Y9359D01*
X-88229Y9305D01*
X-88230Y9244D01*
X-88226Y9177D01*
X-88217Y9103D01*
X-88185Y8936D01*
X-88162Y8843D01*
X-89153Y8679D01*
X-89179Y8777D01*
X-89279Y9083D01*
X-89304Y9138D01*
X-89328Y9184D01*
X-89352Y9222D01*
X-89376Y9251D01*
X-89399Y9271D01*
X-88177Y9482D01*
X-88197Y9448D01*
D02*
G37*
G36*
X-81051Y7078D02*
X-81076Y7034D01*
X-81096Y6983D01*
X-81111Y6924D01*
X-81121Y6857D01*
X-81127Y6782D01*
X-81128Y6699D01*
X-81123Y6608D01*
X-81101Y6402D01*
X-82090Y6258D01*
X-82261Y7111D01*
X-81021Y7113D01*
X-81051Y7078D01*
D02*
G37*
G36*
X-88153Y947D02*
X-88483Y573D01*
X-89330Y1141D01*
X-89265Y1206D01*
X-89002Y1506D01*
X-89001Y1515D01*
X-88153Y947D01*
D02*
G37*
G36*
X-59872Y-2975D02*
X-59899Y-2953D01*
X-59935Y-2932D01*
X-59978Y-2914D01*
X-60029Y-2899D01*
X-60088Y-2885D01*
X-60155Y-2875D01*
X-60313Y-2860D01*
X-60502Y-2855D01*
Y-1855D01*
X-60403Y-1854D01*
X-60155Y-1836D01*
X-60088Y-1825D01*
X-60029Y-1812D01*
X-59978Y-1797D01*
X-59935Y-1778D01*
X-59899Y-1758D01*
X-59872Y-1735D01*
Y-2975D01*
D02*
G37*
G36*
X-108097Y-2830D02*
X-108006Y-2853D01*
X-107985Y-2856D01*
X-107948Y-2860D01*
X-107930Y-2860D01*
X-107913Y-2860D01*
X-108744Y-3781D01*
X-108744Y-3737D01*
X-108740Y-3697D01*
X-108732Y-3663D01*
X-108720Y-3633D01*
X-108703Y-3607D01*
X-108683Y-3587D01*
X-108658Y-3570D01*
X-108630Y-3559D01*
X-108597Y-3552D01*
X-108561Y-3550D01*
X-108122Y-2822D01*
X-108097Y-2830D01*
D02*
G37*
G36*
X-60312Y-5840D02*
X-60339Y-5817D01*
X-60374Y-5796D01*
X-60418Y-5779D01*
X-60469Y-5763D01*
X-60528Y-5750D01*
X-60595Y-5739D01*
X-60752Y-5725D01*
X-60942Y-5720D01*
Y-4720D01*
X-60843Y-4719D01*
X-60595Y-4701D01*
X-60528Y-4690D01*
X-60469Y-4676D01*
X-60418Y-4661D01*
X-60374Y-4643D01*
X-60339Y-4622D01*
X-60312Y-4600D01*
Y-5840D01*
D02*
G37*
G36*
X-58737Y-8758D02*
X-58764Y-8735D01*
X-58800Y-8714D01*
X-58843Y-8696D01*
X-58894Y-8681D01*
X-58953Y-8667D01*
X-59020Y-8657D01*
X-59178Y-8642D01*
X-59367Y-8637D01*
Y-7637D01*
X-59268Y-7636D01*
X-59020Y-7618D01*
X-58953Y-7607D01*
X-58894Y-7594D01*
X-58843Y-7579D01*
X-58800Y-7561D01*
X-58764Y-7540D01*
X-58737Y-7517D01*
Y-8758D01*
D02*
G37*
G36*
X-140150Y-8262D02*
X-140194Y-8344D01*
X-140229Y-8422D01*
X-140257Y-8494D01*
X-140277Y-8563D01*
X-140290Y-8627D01*
X-140295Y-8686D01*
X-140292Y-8742D01*
X-140282Y-8792D01*
X-140264Y-8838D01*
X-140238Y-8880D01*
X-141463Y-8687D01*
X-141452Y-8675D01*
X-141437Y-8653D01*
X-141418Y-8621D01*
X-141370Y-8527D01*
X-141190Y-8117D01*
X-140150Y-8262D01*
D02*
G37*
G36*
X-136615Y-8408D02*
X-136684Y-8479D01*
X-136846Y-8667D01*
X-136886Y-8722D01*
X-136919Y-8773D01*
X-136944Y-8820D01*
X-136962Y-8864D01*
X-136972Y-8903D01*
X-136976Y-8939D01*
X-137852Y-8062D01*
X-137817Y-8058D01*
X-137777Y-8048D01*
X-137734Y-8030D01*
X-137687Y-8005D01*
X-137636Y-7972D01*
X-137581Y-7933D01*
X-137459Y-7831D01*
X-137322Y-7701D01*
X-136615Y-8408D01*
D02*
G37*
G36*
X-133494Y-8899D02*
X-133558Y-8965D01*
X-133665Y-9097D01*
X-133708Y-9162D01*
X-133745Y-9227D01*
X-133774Y-9291D01*
X-133797Y-9354D01*
X-133814Y-9417D01*
X-133823Y-9480D01*
X-133826Y-9542D01*
X-134703Y-8665D01*
X-134641Y-8662D01*
X-134579Y-8652D01*
X-134516Y-8636D01*
X-134452Y-8613D01*
X-134388Y-8583D01*
X-134323Y-8547D01*
X-134258Y-8503D01*
X-134193Y-8453D01*
X-134126Y-8396D01*
X-134060Y-8333D01*
X-133494Y-8899D01*
D02*
G37*
G36*
X-145074Y-10798D02*
X-145074Y-10802D01*
X-145072Y-10808D01*
X-145068Y-10818D01*
X-145054Y-10846D01*
X-144982Y-10970D01*
X-146181Y-10654D01*
X-146163Y-10643D01*
X-146098Y-10600D01*
X-146090Y-10594D01*
X-146084Y-10588D01*
X-146080Y-10583D01*
X-146078Y-10579D01*
X-145074Y-10798D01*
D02*
G37*
G36*
X-135785Y-27576D02*
X-135767Y-27824D01*
X-135756Y-27891D01*
X-135743Y-27950D01*
X-135728Y-28001D01*
X-135710Y-28045D01*
X-135689Y-28080D01*
X-135666Y-28108D01*
X-136907D01*
X-136884Y-28080D01*
X-136863Y-28045D01*
X-136845Y-28001D01*
X-136830Y-27950D01*
X-136817Y-27891D01*
X-136806Y-27824D01*
X-136791Y-27667D01*
X-136786Y-27477D01*
X-135786D01*
X-135785Y-27576D01*
D02*
G37*
G36*
X-46627Y8525D02*
X-46617Y8486D01*
X-46599Y8442D01*
X-46573Y8395D01*
X-46541Y8344D01*
X-46501Y8289D01*
X-46400Y8167D01*
X-46270Y8030D01*
X-46977Y7323D01*
X-47015Y7360D01*
X-47016Y7307D01*
X-48016D01*
X-48017Y7405D01*
X-48035Y7654D01*
X-48046Y7721D01*
X-48059Y7780D01*
X-48075Y7831D01*
X-48093Y7874D01*
X-48113Y7909D01*
X-48136Y7937D01*
X-47254D01*
X-46630Y8561D01*
X-46627Y8525D01*
D02*
G37*
G36*
X-41531Y3403D02*
X-41550Y3421D01*
X-41578Y3439D01*
X-41615Y3459D01*
X-41661Y3479D01*
X-41782Y3522D01*
X-41939Y3568D01*
X-42133Y3618D01*
X-42056Y4631D01*
X-41965Y4607D01*
X-41801Y4576D01*
X-41728Y4569D01*
X-41662Y4567D01*
X-41601Y4570D01*
X-41547Y4579D01*
X-41499Y4593D01*
X-41457Y4613D01*
X-41421Y4638D01*
X-41531Y3403D01*
D02*
G37*
G36*
X-48732Y-12082D02*
X-48792Y-12164D01*
X-48967Y-12435D01*
X-48994Y-12489D01*
X-49016Y-12536D01*
X-49030Y-12578D01*
X-49038Y-12614D01*
X-49040Y-12643D01*
X-49962Y-11815D01*
X-49922Y-11809D01*
X-49880Y-11796D01*
X-49836Y-11774D01*
X-49790Y-11745D01*
X-49742Y-11708D01*
X-49692Y-11662D01*
X-49640Y-11609D01*
X-49531Y-11480D01*
X-49474Y-11403D01*
X-48732Y-12082D01*
D02*
G37*
G36*
X-159639Y10363D02*
X-159659Y10328D01*
X-159677Y10285D01*
X-159693Y10234D01*
X-159706Y10175D01*
X-159717Y10108D01*
X-159731Y9950D01*
X-159736Y9761D01*
X-160736D01*
X-160737Y9859D01*
X-160755Y10108D01*
X-160766Y10175D01*
X-160779Y10234D01*
X-160795Y10285D01*
X-160813Y10328D01*
X-160834Y10363D01*
X-160856Y10391D01*
X-159616D01*
X-159639Y10363D01*
D02*
G37*
G36*
X-153424Y206D02*
X-153446Y226D01*
X-153476Y245D01*
X-153516Y264D01*
X-153564Y283D01*
X-153621Y302D01*
X-153761Y338D01*
X-153936Y374D01*
X-154037Y391D01*
X-153988Y1397D01*
X-153893Y1382D01*
X-153725Y1364D01*
X-153651Y1362D01*
X-153584Y1365D01*
X-153524Y1372D01*
X-153470Y1383D01*
X-153424Y1399D01*
X-153384Y1419D01*
X-153351Y1444D01*
X-153424Y206D01*
D02*
G37*
G36*
X-108710Y-39103D02*
X-108702Y-39245D01*
X-108677Y-39408D01*
X-108635Y-39591D01*
X-108577Y-39796D01*
X-108411Y-40267D01*
X-108177Y-40823D01*
X-107878Y-41463D01*
X-110995Y-40357D01*
X-110751Y-40234D01*
X-110532Y-40102D01*
X-110340Y-39961D01*
X-110173Y-39812D01*
X-110031Y-39655D01*
X-109916Y-39488D01*
X-109826Y-39314D01*
X-109762Y-39130D01*
X-109723Y-38939D01*
X-109710Y-38738D01*
X-108710Y-39103D01*
D02*
G37*
G36*
X-118284Y-40836D02*
X-118047Y-40993D01*
X-117818Y-41123D01*
X-117597Y-41226D01*
X-117383Y-41301D01*
X-117177Y-41350D01*
X-116978Y-41372D01*
X-116787Y-41366D01*
X-116603Y-41333D01*
X-116426Y-41274D01*
X-116297Y-42301D01*
X-116463Y-42375D01*
X-116634Y-42469D01*
X-116807Y-42583D01*
X-116985Y-42717D01*
X-117166Y-42871D01*
X-117538Y-43237D01*
X-117730Y-43450D01*
X-118123Y-43935D01*
X-118528Y-40652D01*
X-118284Y-40836D01*
D02*
G37*
G36*
X-147945Y-16451D02*
X-148666Y-17460D01*
X-148678Y-17412D01*
X-148699Y-17366D01*
X-148728Y-17323D01*
X-148766Y-17283D01*
X-148812Y-17246D01*
X-148867Y-17211D01*
X-148930Y-17179D01*
X-149002Y-17149D01*
X-149083Y-17122D01*
X-149172Y-17098D01*
X-148544Y-16249D01*
X-147945Y-16451D01*
D02*
G37*
G36*
X-189222Y-20910D02*
X-189258Y-20879D01*
X-189302Y-20854D01*
X-189353Y-20834D01*
X-189412Y-20819D01*
X-189479Y-20809D01*
X-189553Y-20803D01*
X-189636Y-20803D01*
X-189726Y-20807D01*
X-189929Y-20831D01*
X-190081Y-19843D01*
X-189224Y-19669D01*
X-189222Y-20910D01*
D02*
G37*
G36*
X-191880Y-36274D02*
X-191774Y-36405D01*
X-191724Y-36459D01*
X-191675Y-36505D01*
X-191628Y-36543D01*
X-191582Y-36573D01*
X-191538Y-36595D01*
X-191495Y-36609D01*
X-191454Y-36615D01*
X-192384Y-37436D01*
X-192385Y-37407D01*
X-192393Y-37372D01*
X-192407Y-37331D01*
X-192427Y-37284D01*
X-192454Y-37230D01*
X-192527Y-37105D01*
X-192625Y-36955D01*
X-192684Y-36871D01*
X-191935Y-36196D01*
X-191880Y-36274D01*
D02*
G37*
G36*
X-125387Y-22051D02*
X-125407Y-22086D01*
X-125425Y-22130D01*
X-125441Y-22181D01*
X-125454Y-22240D01*
X-125465Y-22307D01*
X-125479Y-22465D01*
X-125484Y-22654D01*
X-126484D01*
X-126485Y-22555D01*
X-126504Y-22307D01*
X-126514Y-22240D01*
X-126528Y-22181D01*
X-126543Y-22130D01*
X-126561Y-22086D01*
X-126582Y-22051D01*
X-126604Y-22024D01*
X-125364D01*
X-125387Y-22051D01*
D02*
G37*
G36*
X-127105Y-25807D02*
X-127609Y-26081D01*
X-127841Y-24863D01*
X-127799Y-24887D01*
X-127754Y-24904D01*
X-127706Y-24913D01*
X-127655Y-24914D01*
X-127601Y-24907D01*
X-127544Y-24893D01*
X-127484Y-24871D01*
X-127421Y-24841D01*
X-127355Y-24804D01*
X-127285Y-24759D01*
X-127105Y-25807D01*
D02*
G37*
G36*
X-82478Y-26130D02*
X-82452Y-26277D01*
X-82443Y-26510D01*
X-81852Y-28246D01*
X-81846Y-28265D01*
X-81843Y-28287D01*
X-81842Y-28311D01*
X-81842Y-28337D01*
X-81845Y-28366D01*
X-81849Y-28398D01*
X-81863Y-28468D01*
X-81884Y-28547D01*
X-83323Y-28067D01*
X-83156Y-27522D01*
X-82663Y-26207D01*
X-82584Y-26095D01*
X-82522Y-26069D01*
X-82478Y-26130D01*
D02*
G37*
G36*
X-77546Y-28258D02*
X-77357Y-28780D01*
X-77003D01*
X-77000Y-29065D01*
X-76948Y-29740D01*
X-76918Y-29905D01*
X-76880Y-30040D01*
X-76836Y-30145D01*
X-76785Y-30220D01*
X-76727Y-30265D01*
X-76663Y-30280D01*
X-79001D01*
X-78906Y-30265D01*
X-78822Y-30220D01*
X-78747Y-30145D01*
X-78682Y-30040D01*
X-78627Y-29905D01*
X-78583Y-29740D01*
X-78548Y-29545D01*
X-78523Y-29324D01*
X-78533Y-29215D01*
X-78570Y-28989D01*
X-78623Y-28793D01*
X-78690Y-28627D01*
X-78773Y-28490D01*
X-78870Y-28384D01*
X-78983Y-28308D01*
X-79110Y-28262D01*
X-79253Y-28246D01*
X-77546Y-28258D01*
D02*
G37*
G36*
X-81881Y-29065D02*
X-81836Y-29740D01*
X-81809Y-29905D01*
X-81776Y-30040D01*
X-81737Y-30145D01*
X-81692Y-30220D01*
X-81641Y-30265D01*
X-81584Y-30280D01*
X-83922D01*
X-83820Y-30265D01*
X-83728Y-30220D01*
X-83648Y-30145D01*
X-83578Y-30040D01*
X-83519Y-29905D01*
X-83470Y-29740D01*
X-83433Y-29545D01*
X-83406Y-29320D01*
X-83390Y-29065D01*
X-83384Y-28780D01*
X-81884D01*
X-81881Y-29065D01*
D02*
G37*
G36*
X-77003Y-34980D02*
X-76663D01*
X-76727Y-34995D01*
X-76785Y-35040D01*
X-76836Y-35115D01*
X-76880Y-35220D01*
X-76918Y-35355D01*
X-76948Y-35520D01*
X-76960Y-35616D01*
X-76959Y-35622D01*
X-76945Y-35671D01*
X-76930Y-35707D01*
X-76913Y-35731D01*
X-76973D01*
X-77000Y-36195D01*
X-77003Y-36480D01*
X-78503D01*
X-78508Y-36195D01*
X-78547Y-35731D01*
X-78593D01*
X-78576Y-35707D01*
X-78561Y-35671D01*
X-78558Y-35660D01*
X-78583Y-35520D01*
X-78627Y-35355D01*
X-78682Y-35220D01*
X-78747Y-35115D01*
X-78822Y-35040D01*
X-78906Y-34995D01*
X-79001Y-34980D01*
X-78504D01*
X-78503Y-34931D01*
X-77003D01*
X-77003Y-34980D01*
D02*
G37*
G36*
X-81884D02*
X-81584D01*
X-81641Y-34995D01*
X-81692Y-35040D01*
X-81737Y-35115D01*
X-81776Y-35220D01*
X-81809Y-35355D01*
X-81836Y-35520D01*
X-81845Y-35599D01*
X-81840Y-35622D01*
X-81827Y-35671D01*
X-81811Y-35707D01*
X-81794Y-35731D01*
X-81858D01*
X-81881Y-36195D01*
X-81884Y-36480D01*
X-83384D01*
X-83390Y-36195D01*
X-83431Y-35731D01*
X-83474D01*
X-83457Y-35707D01*
X-83442Y-35671D01*
X-83442Y-35670D01*
X-83470Y-35520D01*
X-83519Y-35355D01*
X-83578Y-35220D01*
X-83648Y-35115D01*
X-83728Y-35040D01*
X-83820Y-34995D01*
X-83922Y-34980D01*
X-83385D01*
X-83384Y-34931D01*
X-81884D01*
X-81884Y-34980D01*
D02*
G37*
G36*
X-72426D02*
X-71741D01*
X-71821Y-34995D01*
X-71892Y-35037D01*
X-71955Y-35107D01*
X-72010Y-35206D01*
X-72056Y-35333D01*
X-72093Y-35487D01*
X-72123Y-35670D01*
X-72123Y-35676D01*
X-72119Y-35736D01*
X-72108Y-35770D01*
X-72096Y-35791D01*
X-72134Y-35788D01*
X-72144Y-35882D01*
X-72161Y-36389D01*
X-73660D01*
X-73665Y-36121D01*
X-73697Y-35680D01*
X-73772Y-35675D01*
X-73751Y-35650D01*
X-73732Y-35613D01*
X-73715Y-35563D01*
X-73728Y-35487D01*
X-73765Y-35333D01*
X-73811Y-35206D01*
X-73866Y-35107D01*
X-73929Y-35037D01*
X-74000Y-34995D01*
X-74080Y-34980D01*
X-73661D01*
X-73660Y-34871D01*
X-72426Y-34980D01*
D02*
G37*
G54D18*
X-78518Y-27384D02*
D03*
X-81471D02*
D03*
G54D25*
X-12048Y-10000D02*
D03*
Y10000D02*
D03*
G54D97*
X-165743Y-30315D02*
X-164763Y-30267D01*
X-163792Y-30123D01*
X-162840Y-29884D01*
X-161916Y-29554D01*
X-161029Y-29134D01*
X-160187Y-28630D01*
X-159399Y-28045D01*
X-158672Y-27386D01*
X-169936Y-36851D02*
X-168812Y-36703D01*
X-167765Y-36269D01*
X-166865Y-35579D01*
X-158672Y-27386D02*
X-151575Y-20289D01*
X-169095Y-30315D02*
X-165743D01*
X-166865Y-35579D02*
X-158672Y-27386D01*
X-169095Y-30577D02*
Y-30315D01*
G54D98*
X-188100Y36000D02*
X-188590Y34816D01*
X-72993Y-36588D02*
X-72910Y-36389D01*
X-77753Y-28149D02*
X-78518Y-27384D01*
X-81471D02*
X-82293Y-27725D01*
X-82634Y-28547D01*
X-188590Y14103D02*
Y34816D01*
Y4056D02*
Y14103D01*
X-72910Y-36389D02*
Y-32630D01*
X-77753Y-36588D02*
Y-28149D01*
X-82634Y-36588D02*
Y-28547D01*
G54D99*
X-166780Y38600D02*
X-165847Y38692D01*
X-164951Y38964D01*
X-164124Y39406D01*
X-163400Y40000D01*
X-151367Y32738D02*
X-151226Y33851D01*
X-155713Y29364D02*
X-154734Y29472D01*
X-153802Y29791D01*
X-152962Y30306D01*
X-152255Y30992D01*
X-151714Y31816D01*
X-151367Y32738D01*
X-142195Y41339D02*
X-143182Y41285D01*
X-144157Y41127D01*
X-145110Y40864D01*
X-146030Y40500D01*
X-146905Y40040D01*
X-147725Y39489D01*
X-148482Y38852D01*
X-149165Y38138D01*
X-149768Y37355D01*
X-150284Y36511D01*
X-150706Y35617D01*
X-151029Y34683D01*
X-151250Y33719D01*
X-151367Y32738D01*
X-186038Y20265D02*
X-186689Y19537D01*
X-187255Y18740D01*
X-187727Y17884D01*
X-188101Y16982D01*
X-188372Y16042D01*
X-188536Y15079D01*
X-188590Y14103D01*
X-175798Y26364D02*
X-176778Y26315D01*
X-177749Y26171D01*
X-178700Y25933D01*
X-179624Y25602D01*
X-180512Y25183D01*
X-181353Y24678D01*
X-182142Y24094D01*
X-182869Y23435D01*
X-165763Y29364D02*
X-166859Y29256D01*
X-167912Y28936D01*
X-168884Y28417D01*
X-169735Y27718D01*
X-173005Y26364D02*
X-172103Y26452D01*
X-171235Y26716D01*
X-170436Y27143D01*
X-169735Y27718D01*
X-199754Y38600D02*
X-200854Y38501D01*
X-201919Y38206D01*
X-202913Y37726D01*
X-203806Y37076D01*
X-203700Y37100D02*
X-203806Y37076D01*
X-142195Y41339D02*
X-138776D01*
X-165763Y29364D02*
X-155713D01*
X-186038Y20266D02*
X-182869Y23435D01*
X-175798Y26364D02*
X-173005D01*
X-199754Y38600D02*
X-166780D01*
G54D100*
X-184190Y-29261D02*
X-183210Y-29212D01*
X-182239Y-29068D01*
X-181287Y-28830D01*
X-180363Y-28499D01*
X-179476Y-28080D01*
X-178635Y-27575D01*
X-177846Y-26991D01*
X-177119Y-26332D01*
X-88911Y12262D02*
X-89699Y12105D01*
X-90367Y11659D01*
X-86522Y10616D02*
X-87069Y11478D01*
X-87910Y12058D01*
X-88911Y12262D01*
X-90436Y11590D02*
X-91104Y10590D01*
X-91339Y9410D01*
X-88896Y10000D02*
X-88733Y9074D01*
X-88484Y8167D01*
X-88151Y7288D01*
X-87737Y6443D01*
X-87245Y5642D01*
X-86680Y4890D01*
X-86048Y4195D01*
X-193591Y-32797D02*
X-193460Y-33841D01*
X-193178Y-34854D01*
X-192751Y-35815D01*
X-192187Y-36704D01*
X-191500Y-37500D01*
X-193600Y-32430D02*
X-193591Y-32797D01*
X-163181Y-16535D02*
X-164161Y-16584D01*
X-165132Y-16728D01*
X-166084Y-16966D01*
X-167008Y-17297D01*
X-167895Y-17716D01*
X-168736Y-18221D01*
X-169525Y-18805D01*
X-170252Y-19464D01*
X-189376Y-20289D02*
X-190446Y-20430D01*
X-191444Y-20843D01*
X-192300Y-21500D01*
X-193005Y-22419D01*
X-193449Y-23490D01*
X-193600Y-24638D01*
X-95903Y-16388D02*
X-95907Y-16392D01*
X-89168Y-13600D02*
X-90234Y-13660D01*
X-91287Y-13839D01*
X-92313Y-14134D01*
X-93300Y-14543D01*
X-94235Y-15059D01*
X-95107Y-15677D01*
X-95903Y-16388D01*
X-88976Y-13600D02*
X-87998Y-13504D01*
X-87058Y-13218D01*
X-86191Y-12755D01*
X-85432Y-12132D01*
X-88836Y-11200D02*
X-89816Y-11248D01*
X-90787Y-11392D01*
X-91739Y-11631D01*
X-92663Y-11961D01*
X-93550Y-12381D01*
X-94392Y-12885D01*
X-95180Y-13470D01*
X-95907Y-14129D01*
X-110000Y-42500D02*
X-109416Y-41625D01*
X-109210Y-40594D01*
X-110000Y-42500D02*
X-109416Y-41625D01*
X-109210Y-40594D01*
X-106750Y-27235D02*
X-107378Y-27937D01*
X-107923Y-28705D01*
X-108379Y-29530D01*
X-108739Y-30400D01*
X-109000Y-31305D01*
X-109158Y-32234D01*
X-109210Y-33174D01*
X-113169Y-39669D02*
X-112474Y-38876D01*
X-111889Y-38000D01*
X-111423Y-37054D01*
X-111085Y-36057D01*
X-110879Y-35023D01*
X-110810Y-33971D01*
X-113172Y-39672D02*
X-113169Y-39669D01*
X-107881Y-26103D02*
X-108541Y-26830D01*
X-109125Y-27619D01*
X-109630Y-28460D01*
X-110049Y-29348D01*
X-110380Y-30271D01*
X-110618Y-31223D01*
X-110762Y-32194D01*
X-110810Y-33174D01*
X-120000Y-42500D02*
X-119053Y-42454D01*
X-118116Y-42314D01*
X-117197Y-42084D01*
X-116305Y-41765D01*
X-115448Y-41360D01*
X-114635Y-40872D01*
X-113874Y-40308D01*
X-113172Y-39672D01*
X-147793Y-17321D02*
X-148664Y-16739D01*
X-149692Y-16535D01*
X-147791Y-17323D02*
X-147793Y-17321D01*
X-132129Y1061D02*
X-133111Y736D01*
X-134053Y311D01*
X-134947Y-209D01*
X-135782Y-818D01*
X-136550Y-1510D01*
X-145235Y-10195D02*
X-145743Y-11423D01*
X-160236Y8268D02*
X-160172Y7291D01*
X-159981Y6332D01*
X-159667Y5405D01*
X-159234Y4528D01*
X-158690Y3714D01*
X-158045Y2978D01*
X-157310Y2333D01*
X-156496Y1790D01*
X-155619Y1357D01*
X-154692Y1042D01*
X-153732Y851D01*
X-152756Y787D01*
X-84049Y17627D02*
X-83748Y17581D01*
X-84049Y17627D02*
X-85242Y17627D01*
X-85543Y17581D02*
X-85242Y17627D01*
X-88325Y17581D02*
X-89374Y17477D01*
X-90382Y17171D01*
X-91312Y16675D01*
X-92126Y16006D01*
X-92795Y15191D01*
X-93292Y14262D01*
X-93598Y13253D01*
X-93701Y12205D01*
X-95669Y4897D02*
X-94984Y5699D01*
X-94433Y6598D01*
X-94030Y7572D01*
X-93783Y8598D01*
X-93701Y9649D01*
X-103083Y1625D02*
X-102103Y1673D01*
X-101132Y1817D01*
X-100180Y2056D01*
X-99256Y2386D01*
X-98369Y2806D01*
X-97527Y3311D01*
X-96739Y3895D01*
X-96012Y4554D01*
X-132129Y1061D02*
X-132083Y1075D01*
X-128552Y1625D02*
X-129448Y1591D01*
X-130339Y1487D01*
X-131219Y1315D01*
X-132083Y1075D01*
X-81643Y6977D02*
X-81556Y6101D01*
X-81300Y5258D01*
X-80885Y4482D01*
X-80327Y3801D01*
X-84646Y12262D02*
X-84597Y11282D01*
X-84453Y10311D01*
X-84215Y9359D01*
X-83885Y8435D01*
X-83465Y7548D01*
X-82960Y6706D01*
X-82376Y5918D01*
X-81717Y5191D01*
X-94679Y-1575D02*
X-93626Y-1506D01*
X-92592Y-1300D01*
X-91593Y-961D01*
X-90647Y-494D01*
X-89770Y92D01*
X-88976Y787D01*
X-88345Y1419D02*
X-88174Y1832D01*
X-88345Y1419D02*
X-88345Y1419D01*
X-99581Y25D02*
X-98588Y85D01*
X-97609Y265D01*
X-96658Y561D01*
X-95751Y969D01*
X-94899Y1484D01*
X-94115Y2098D01*
X-93411Y2802D01*
X-92798Y3585D01*
X-92283Y4437D01*
X-91874Y5345D01*
X-91578Y6295D01*
X-91399Y7274D01*
X-91339Y8268D01*
X-86522Y10616D02*
X-86318Y9553D01*
X-86000Y8518D01*
X-85572Y7524D01*
X-85040Y6582D01*
X-84408Y5702D01*
X-83685Y4897D01*
X-86355Y9707D02*
X-86522Y10616D01*
X-77962Y-3891D02*
X-77235Y-4550D01*
X-76447Y-5134D01*
X-75605Y-5639D01*
X-74718Y-6058D01*
X-73794Y-6389D01*
X-72842Y-6628D01*
X-71871Y-6771D01*
X-70891Y-6820D01*
X-121474D02*
X-122454Y-6868D01*
X-123424Y-7012D01*
X-124376Y-7250D01*
X-125300Y-7581D01*
X-126188Y-8000D01*
X-127029Y-8505D01*
X-127817Y-9090D01*
X-128545Y-9749D01*
X-61989Y-7396D02*
X-62628Y-6969D01*
X-63381Y-6820D01*
X-61989Y-7396D02*
X-61168Y-7945D01*
X-60199Y-8137D01*
X-133358Y-14561D02*
X-134017Y-15289D01*
X-134601Y-16077D01*
X-135106Y-16918D01*
X-135525Y-17806D01*
X-135856Y-18730D01*
X-136094Y-19682D01*
X-136238Y-20652D01*
X-136286Y-21632D01*
X-128552Y25D02*
X-129533Y-23D01*
X-130503Y-167D01*
X-131455Y-405D01*
X-132379Y-736D01*
X-133266Y-1156D01*
X-134108Y-1660D01*
X-134896Y-2245D01*
X-135624Y-2904D01*
X-140116Y-7396D02*
X-140733Y-8319D01*
X-140949Y-9409D01*
X-126347Y-1575D02*
X-127327Y-1623D01*
X-128297Y-1767D01*
X-129249Y-2005D01*
X-130173Y-2336D01*
X-131060Y-2756D01*
X-131902Y-3260D01*
X-132690Y-3845D01*
X-133418Y-4504D01*
X-76539Y13D02*
X-75742Y-596D01*
X-74888Y-1122D01*
X-73985Y-1560D01*
X-73043Y-1905D01*
X-72071Y-2155D01*
X-71079Y-2305D01*
X-70077Y-2355D01*
X-76498Y-2291D02*
X-75771Y-2950D01*
X-74983Y-3534D01*
X-74141Y-4039D01*
X-73254Y-4459D01*
X-72330Y-4789D01*
X-71378Y-5028D01*
X-70407Y-5172D01*
X-69427Y-5220D01*
X-128347Y-25591D02*
X-127443Y-25411D01*
X-126676Y-24899D01*
X-126164Y-24132D01*
X-125984Y-23228D01*
X-44372Y5425D02*
X-43616Y4805D01*
X-42754Y4344D01*
X-41818Y4060D01*
X-40846Y3964D01*
X-49924Y-12700D02*
X-49215Y-11892D01*
X-48617Y-10998D01*
X-48142Y-10033D01*
X-47796Y-9015D01*
X-47587Y-7961D01*
X-47516Y-6888D01*
X-81526Y23118D02*
X-80546Y23166D01*
X-79575Y23310D01*
X-78623Y23548D01*
X-77699Y23879D01*
X-76812Y24298D01*
X-75970Y24803D01*
X-75182Y25387D01*
X-74455Y26046D01*
X-144494Y28707D02*
X-144396Y27714D01*
X-144106Y26759D01*
X-143636Y25879D01*
X-143003Y25108D01*
X-142285Y24483D01*
X-141487Y23963D01*
X-140625Y23558D01*
X-139716Y23276D01*
X-138776Y23122D01*
Y23122D02*
X-138681Y23118D01*
X-147924Y24948D02*
X-147756Y23888D01*
X-147269Y22932D01*
X-146510Y22173D01*
X-145554Y21685D01*
X-144494Y21518D01*
X-72573Y21225D02*
X-73280Y21518D01*
X-146913Y32653D02*
X-147877Y32461D01*
X-148695Y31914D01*
X-144494Y30084D02*
X-144660Y30921D01*
X-145135Y31631D01*
X-145622Y32118D02*
X-146913Y32653D01*
X-146890Y30425D02*
X-147451Y29694D01*
X-147804Y28842D01*
X-147924Y27928D01*
X-187668Y-29261D02*
X-184190D01*
X-91339Y8268D02*
Y9410D01*
X-90436Y11590D02*
X-90367Y11659D01*
X-193600Y-32430D02*
Y-24638D01*
X-177119Y-26332D02*
X-170252Y-19464D01*
X-189376Y-20289D02*
X-188590D01*
X-106750Y-27235D02*
X-95907Y-16392D01*
X-89168Y-13600D02*
X-88976D01*
X-85432Y-12132D02*
X-84600Y-11300D01*
X-107881Y-26103D02*
X-95907Y-14129D01*
X-88836Y-11200D02*
X-87800D01*
X-109210Y-40594D02*
Y-33174D01*
X-110810Y-33971D02*
Y-33174D01*
X-163181Y-16535D02*
X-149692D01*
X-145235Y-10195D02*
X-136550Y-1510D01*
X-160236Y8268D02*
Y11024D01*
X-83748Y17581D02*
X-74455Y17581D01*
X-84049Y17627D02*
Y17627D01*
X-85242Y17627D02*
Y17627D01*
X-88325Y17581D02*
X-85543Y17581D01*
X-88325Y17581D02*
X-88325D01*
X-93701Y9649D02*
Y12205D01*
X-96012Y4554D02*
X-95669Y4897D01*
X-132129Y1061D02*
Y1061D01*
X-132083Y1075D02*
Y1075D01*
X-128552Y1625D02*
X-103083D01*
X-81643Y6977D02*
Y7745D01*
X-80327Y3801D02*
X-76539Y13D01*
X-81717Y5191D02*
X-80327Y3801D01*
X-88345Y1419D02*
X-88345Y1419D01*
X-88976Y787D02*
X-88345Y1419D01*
X-128552Y25D02*
X-99581D01*
X-84646Y12262D02*
Y15733D01*
X-86048Y4195D02*
X-77962Y-3891D01*
X-121474Y-6820D02*
X-70891D01*
X-63381D01*
X-133358Y-14561D02*
X-128545Y-9749D01*
X-60199Y-8137D02*
X-58104D01*
X-136286Y-28740D02*
Y-21632D01*
X-140116Y-7396D02*
X-135624Y-2904D01*
X-137861Y-8947D02*
X-133418Y-4504D01*
X-126347Y-1575D02*
X-94679D01*
X-70077Y-2355D02*
X-59239D01*
X-69427Y-5220D02*
X-59679D01*
X-83685Y4897D02*
X-76498Y-2291D01*
X-125984Y-23228D02*
Y-21391D01*
X-47516Y8569D02*
X-44372Y5425D01*
X-47516Y-6888D02*
Y8569D01*
X-74455Y26046D02*
X-72573Y27928D01*
X-111464Y23118D02*
X-81526D01*
X-138681Y23118D02*
X-111464Y23118D01*
X-144494Y21518D02*
X-73280D01*
X-147924Y24948D02*
Y25108D01*
Y27928D01*
X-144494Y28707D02*
Y30084D01*
X-145622Y32118D02*
X-145135Y31631D01*
X-149261Y31349D02*
X-148695Y31914D01*
G54D102*
X-107874Y-3434D02*
X-108561Y-3150D01*
X-124169D02*
X-125149Y-3198D01*
X-126120Y-3342D01*
X-127072Y-3580D01*
X-127996Y-3911D01*
X-128883Y-4330D01*
X-129725Y-4835D01*
X-130513Y-5420D01*
X-131240Y-6078D01*
X-107874Y-3434D02*
X-107859Y-3449D01*
X-124169Y-3150D02*
X-108561D01*
X-107859Y-3744D02*
Y-3449D01*
X-134712Y-9550D02*
X-131240Y-6078D01*
G54D105*
X-202559Y42777D02*
D03*
Y-7616D02*
D03*
G54D106*
X-169095Y42777D02*
D03*
Y-7616D02*
D03*
G54D107*
X-166142Y1832D02*
D03*
Y9707D02*
D03*
Y17581D02*
D03*
Y25455D02*
D03*
Y33329D02*
D03*
X-172047Y21518D02*
D03*
Y31360D02*
D03*
Y13644D02*
D03*
Y3801D02*
D03*
X-105000Y-35000D02*
D03*
X-110000Y-42500D02*
D03*
X-115000Y-35000D02*
D03*
X-125000D02*
D03*
X-105512Y41339D02*
D03*
X-120000Y-42500D02*
D03*
X-93307Y41339D02*
D03*
X-47955Y-45680D02*
D03*
X-58104Y42126D02*
D03*
X-120810Y-17947D02*
D03*
G54D108*
X-110810D02*
D03*
G54D109*
X-40871Y20545D02*
D03*
X-37955Y20556D02*
D03*
X-138776Y41339D02*
D03*
X-79900Y-22200D02*
D03*
X-117255Y-23733D02*
D03*
X-150556Y-20289D02*
D03*
X-42246Y-33366D02*
D03*
X-35039Y20545D02*
D03*
X-22174Y-18895D02*
D03*
X-81643Y-9550D02*
D03*
X-100069Y-10447D02*
D03*
X-72993Y-36588D02*
D03*
X-82634D02*
D03*
X-77753D02*
D03*
G54D110*
X-121349Y15343D02*
D03*
X-123803D02*
D03*
X-126241Y15288D02*
D03*
X-146320Y-21688D02*
D03*
Y-24404D02*
D03*
X-146329Y-26974D02*
D03*
X-203700Y37100D02*
D03*
X-188100Y36000D02*
D03*
X-163400Y40000D02*
D03*
X-191500Y-37500D02*
D03*
X-84600Y-11300D02*
D03*
X-87800Y-11200D02*
D03*
X-188590Y4056D02*
D03*
X-59239Y-2355D02*
D03*
X-59679Y-5220D02*
D03*
X-58104Y-8137D02*
D03*
X-49924Y-12700D02*
D03*
X-40846Y3964D02*
D03*
X-47516Y8569D02*
D03*
X-147791Y-17323D02*
D03*
X-145743Y-11423D02*
D03*
X-188590Y-20289D02*
D03*
X-160236Y11024D02*
D03*
X-152756Y787D02*
D03*
X-150787Y13644D02*
D03*
X-101117Y16713D02*
D03*
X-150787Y21745D02*
D03*
X-143003Y13871D02*
D03*
X-74455Y17581D02*
D03*
X-91338Y10630D02*
D03*
X-81643Y7745D02*
D03*
X-88174Y1832D02*
D03*
X-88896Y10000D02*
D03*
X-84646Y15733D02*
D03*
X-63071Y6648D02*
D03*
X-107859Y-3744D02*
D03*
X-140949Y-9409D02*
D03*
X-137861Y-8947D02*
D03*
X-134712Y-9550D02*
D03*
X-125984Y-21391D02*
D03*
X-72573Y21225D02*
D03*
Y27928D02*
D03*
X-149261Y31349D02*
D03*
X-146643Y30297D02*
D03*
X-136286Y-28740D02*
D03*
Y-32308D02*
D03*
X-128347Y-25591D02*
D03*
G54D111*
X-183465Y-35827D02*
D03*
X-169095Y-30577D02*
D03*
G54D112*
X-177416Y-36851D02*
X-177538Y-35926D01*
X-177895Y-35063D01*
X-178464Y-34323D01*
X-183465Y-35379D02*
X-183540Y-34422D01*
X-183764Y-33488D01*
X-184131Y-32601D01*
X-184633Y-31783D01*
X-185257Y-31053D01*
X-185987Y-30429D01*
X-186805Y-29928D01*
X-187692Y-29560D01*
X-188626Y-29336D01*
X-189583Y-29261D01*
X-180597Y-32190D02*
X-181324Y-31530D01*
X-182112Y-30946D01*
X-182954Y-30441D01*
X-183841Y-30022D01*
X-184765Y-29691D01*
X-185717Y-29453D01*
X-186688Y-29309D01*
X-187668Y-29261D01*
X-180597Y-32190D02*
X-178464Y-34323D01*
X-189583Y-29261D02*
X-187668D01*
X-183465Y-35827D02*
Y-35379D01*
G54D113*
X-177416Y-36851D02*
D03*
X-169936D02*
D03*
G54D114*
X-201000Y-39300D02*
D03*
Y-14300D02*
D03*
G54D115*
X-189583Y-29261D02*
D03*
Y-24339D02*
D03*
G54D116*
X-157964Y36525D02*
D03*
X-132964D02*
D03*
G54D117*
X-147924Y25108D02*
D03*
X-143003D02*
D03*
X-82753Y-32630D02*
D03*
X-67989D02*
D03*
X-72910D02*
D03*
X-77832D02*
D03*
G54D118*
X-57950Y-44047D02*
D03*
X-92792D02*
D03*
M02*
