G04*
G04 #@! TF.GenerationSoftware,Altium Limited,Altium Designer,18.1.6 (161)*
G04*
G04 Layer_Physical_Order=1*
G04 Layer_Color=255*
%FSLAX25Y25*%
%MOIN*%
G70*
G01*
G75*
%ADD14R,0.03150X0.03150*%
%ADD15R,0.01968X0.01772*%
%ADD16O,0.00984X0.04724*%
%ADD17O,0.04724X0.00984*%
%ADD18R,0.03150X0.03150*%
%ADD19R,0.01575X0.01968*%
%ADD20R,0.16000X0.06000*%
%ADD21R,0.01968X0.01575*%
%ADD22R,0.04724X0.02362*%
%ADD23R,0.10236X0.07087*%
%ADD24R,0.03150X0.03150*%
%ADD25R,0.05118X0.06496*%
%ADD26R,0.07480X0.03937*%
%ADD27R,0.07480X0.07087*%
%ADD28R,0.06102X0.05610*%
%ADD29R,0.05433X0.01772*%
%ADD30R,0.07087X0.10236*%
%ADD31R,0.02362X0.04724*%
%ADD32R,0.03268X0.01457*%
%ADD33R,0.03268X0.02638*%
%ADD57C,0.01000*%
%ADD58C,0.00800*%
%ADD59C,0.01500*%
%ADD60C,0.04724*%
%ADD61R,0.04724X0.04724*%
%ADD62O,0.03937X0.05906*%
%ADD63C,0.01772*%
%ADD64C,0.02400*%
G36*
X537991Y248115D02*
X537912Y248177D01*
X537837Y248207D01*
X537765Y248205D01*
X537698Y248171D01*
X537634Y248106D01*
X537575Y248009D01*
X537519Y247880D01*
X537467Y247719D01*
X537419Y247526D01*
X537375Y247301D01*
X536453Y248159D01*
X536489Y248370D01*
X536578Y249171D01*
X536578Y249280D01*
X536572Y249372D01*
X536560Y249447D01*
X536543Y249505D01*
X537991Y248115D01*
D02*
G37*
G36*
X611000Y179712D02*
X521215D01*
X521142Y179855D01*
X521082Y180212D01*
X521613Y180619D01*
X522087Y181238D01*
X522386Y181958D01*
X522488Y182732D01*
X522386Y183505D01*
X522087Y184226D01*
X521613Y184845D01*
X520994Y185319D01*
X520437Y185550D01*
X520362Y185617D01*
X519888Y185781D01*
X519506Y185968D01*
X519179Y186187D01*
X518901Y186438D01*
X518667Y186725D01*
X518473Y187052D01*
X518319Y187426D01*
X518205Y187851D01*
X518135Y188330D01*
X518109Y188892D01*
X518102Y188908D01*
X518107Y188925D01*
X518082Y188972D01*
Y193220D01*
X518110Y193282D01*
X518114Y193455D01*
X518125Y193582D01*
X518141Y193678D01*
X518144Y193687D01*
X518742D01*
Y195464D01*
X518758Y195469D01*
X518852Y195484D01*
X518977Y195495D01*
X519147Y195500D01*
X519209Y195528D01*
X536144D01*
X536206Y195500D01*
X536379Y195495D01*
X536506Y195484D01*
X536599Y195469D01*
Y194819D01*
X536684Y194393D01*
X536925Y194032D01*
X537287Y193790D01*
X537713Y193705D01*
X538139Y193790D01*
X538500Y194032D01*
X538741Y194393D01*
X538826Y194819D01*
Y196609D01*
X538834Y196649D01*
Y196689D01*
X538826Y196729D01*
Y198559D01*
X538741Y198985D01*
X538500Y199346D01*
X538139Y199588D01*
X537713Y199673D01*
X537287Y199588D01*
X536925Y199346D01*
X536684Y198985D01*
X536599Y198559D01*
Y197829D01*
X536506Y197814D01*
X536379Y197803D01*
X536206Y197798D01*
X536144Y197771D01*
X519209D01*
X519147Y197798D01*
X518977Y197803D01*
X518852Y197814D01*
X518758Y197829D01*
X518742Y197834D01*
Y199611D01*
X517087D01*
X516867Y200111D01*
X516999Y200255D01*
X517985Y200385D01*
X518017Y200378D01*
X524460D01*
Y200354D01*
X526331Y200538D01*
X528129Y201084D01*
X529787Y201970D01*
X530162Y202278D01*
X530249Y202296D01*
X530588Y202526D01*
X530727Y202606D01*
X530866Y202676D01*
X530998Y202733D01*
X531123Y202777D01*
X531241Y202810D01*
X531352Y202831D01*
X531456Y202843D01*
X531584Y202846D01*
X531614Y202859D01*
X532299D01*
X532725Y202944D01*
X533087Y203185D01*
X533328Y203546D01*
X533413Y203972D01*
X533328Y204399D01*
X533087Y204760D01*
Y205154D01*
X533328Y205515D01*
X533413Y205941D01*
X533328Y206367D01*
X533087Y206728D01*
Y207122D01*
X533328Y207483D01*
X533413Y207909D01*
X533350Y208223D01*
X533560Y208563D01*
X533691Y208692D01*
X534346Y208627D01*
X535660Y208229D01*
X536870Y207581D01*
X537918Y206722D01*
X537928Y206707D01*
X538685Y205950D01*
X538690Y205946D01*
X539469Y204997D01*
X540051Y203909D01*
X540409Y202728D01*
X540528Y201519D01*
Y196689D01*
Y194556D01*
X540501Y194496D01*
X540488Y194159D01*
X540480Y194084D01*
X540211D01*
Y193563D01*
X540174Y193472D01*
X540194Y193422D01*
X540182Y193369D01*
X540211Y193322D01*
Y190916D01*
X542986D01*
Y193296D01*
X543006Y193324D01*
X543001Y193357D01*
X543008Y193374D01*
X543138Y193543D01*
X543394Y193701D01*
X543486Y193732D01*
X543618Y193705D01*
X544044Y193790D01*
X544406Y194032D01*
X544799D01*
X545160Y193790D01*
X545587Y193705D01*
X546013Y193790D01*
X546231Y193936D01*
X546571Y193996D01*
X546911Y193936D01*
X547129Y193790D01*
X547555Y193705D01*
X547726Y193739D01*
X548126Y193331D01*
X548060Y193000D01*
X548175Y192420D01*
X548504Y191929D01*
X548995Y191600D01*
X549575Y191485D01*
X550154Y191600D01*
X550646Y191929D01*
X550974Y192420D01*
X551090Y193000D01*
X551033Y193287D01*
X551439Y193716D01*
X551492Y193705D01*
X551918Y193790D01*
X552280Y194032D01*
X552673D01*
X553034Y193790D01*
X553461Y193705D01*
X553887Y193790D01*
X554105Y193936D01*
X554445Y193996D01*
X554785Y193936D01*
X555003Y193790D01*
X555429Y193705D01*
X555776Y193774D01*
X556040Y193649D01*
X556276Y193470D01*
Y188999D01*
X556249Y188944D01*
X556229Y188613D01*
X556179Y188351D01*
X556097Y188115D01*
X555983Y187900D01*
X555836Y187698D01*
X555650Y187509D01*
X555421Y187329D01*
X555143Y187160D01*
X554816Y187005D01*
X554414Y186857D01*
X554326Y186776D01*
X553872Y186588D01*
X553253Y186113D01*
X552778Y185494D01*
X552480Y184773D01*
X552378Y184000D01*
X552480Y183227D01*
X552778Y182506D01*
X553253Y181887D01*
X553872Y181412D01*
X554593Y181114D01*
X555366Y181012D01*
X556139Y181114D01*
X556860Y181412D01*
X557479Y181887D01*
X557953Y182506D01*
X558252Y183227D01*
X558354Y184000D01*
X558274Y184608D01*
X558281Y184624D01*
X558452Y187359D01*
X558962Y187515D01*
X559202Y187202D01*
X559207Y187207D01*
X561422Y184992D01*
X561432Y184968D01*
X561430Y184966D01*
X561435Y184962D01*
X561450Y184925D01*
X563861Y182511D01*
X563923Y182443D01*
X563948Y182411D01*
X564013Y182376D01*
X564387Y181887D01*
X565006Y181412D01*
X565727Y181114D01*
X566500Y181012D01*
X567273Y181114D01*
X567994Y181412D01*
X568613Y181887D01*
X569088Y182506D01*
X569386Y183227D01*
X569488Y184000D01*
X569386Y184773D01*
X569088Y185494D01*
X568613Y186113D01*
X567994Y186588D01*
X567273Y186886D01*
X566500Y186988D01*
X565727Y186886D01*
X565344Y186727D01*
X565217Y186724D01*
X564855Y186564D01*
X564538Y186448D01*
X564251Y186369D01*
X563996Y186324D01*
X563774Y186309D01*
X563585Y186321D01*
X563424Y186355D01*
X563286Y186409D01*
X563162Y186483D01*
X563007Y186616D01*
X562953Y186633D01*
X560793Y188793D01*
X560799Y188799D01*
X560782Y188825D01*
X561049Y189325D01*
X564746D01*
Y192960D01*
X564783Y193042D01*
X564779Y193052D01*
X564783Y193063D01*
X564746Y193153D01*
Y193675D01*
X564425D01*
Y196689D01*
X564417Y196729D01*
Y198559D01*
X564332Y198985D01*
X564090Y199346D01*
X563729Y199588D01*
X563303Y199673D01*
X562877Y199588D01*
X562516Y199346D01*
X562122D01*
X561761Y199588D01*
X561335Y199673D01*
X560909Y199588D01*
X560547Y199346D01*
X560153D01*
X559792Y199588D01*
X559366Y199673D01*
X558940Y199588D01*
X558579Y199346D01*
X558185D01*
X557824Y199588D01*
X557398Y199673D01*
X556972Y199588D01*
X556610Y199346D01*
X556216D01*
X555855Y199588D01*
X555429Y199673D01*
X555003Y199588D01*
X554642Y199346D01*
X554248D01*
X553887Y199588D01*
X553461Y199673D01*
X553034Y199588D01*
X552881Y199600D01*
X552813Y199618D01*
X552555Y199808D01*
X552523Y200295D01*
X552523D01*
X552400Y201538D01*
X552038Y202734D01*
X551911Y202971D01*
X551893Y203095D01*
X550994Y204606D01*
X550900Y205080D01*
X550804Y205223D01*
X551071Y205723D01*
X556722D01*
X556789Y205693D01*
X557662Y205673D01*
X558071Y205640D01*
X558214Y205620D01*
X558318Y205600D01*
X558372Y205584D01*
X558424Y205562D01*
X558459Y205562D01*
X558786Y205343D01*
X559366Y205228D01*
X559946Y205343D01*
X560437Y205671D01*
X560766Y206163D01*
X560881Y206743D01*
X560766Y207322D01*
X560437Y207814D01*
X559946Y208142D01*
X559366Y208258D01*
X558786Y208142D01*
X558459Y207924D01*
X558424Y207923D01*
X558372Y207901D01*
X558318Y207886D01*
X558237Y207870D01*
X557107Y207794D01*
X556800Y207792D01*
X556729Y207762D01*
X549261D01*
X549261Y207771D01*
X549164Y207760D01*
X549132Y207754D01*
X548783Y207708D01*
X548783Y207708D01*
X548410Y207659D01*
X547616Y207330D01*
X546935Y206807D01*
X546413Y206126D01*
X546084Y205333D01*
X545984Y204575D01*
X545951Y204501D01*
X545948Y204414D01*
X545943Y204349D01*
X545933Y204288D01*
X545921Y204231D01*
X545905Y204176D01*
X545886Y204123D01*
X545863Y204071D01*
X545837Y204021D01*
X545806Y203971D01*
X545760Y203905D01*
X545731Y203775D01*
X545600Y203580D01*
X545505Y203100D01*
X545172Y202455D01*
X545108Y202372D01*
X545023Y202168D01*
X544802Y201740D01*
X544790Y201606D01*
X544693Y201370D01*
X544551Y200295D01*
X544551D01*
X544522Y199807D01*
X544266Y199618D01*
X544198Y199600D01*
X544044Y199588D01*
X543618Y199673D01*
X543271Y199604D01*
X543007Y199728D01*
X542771Y199908D01*
Y201500D01*
X542791D01*
X542771Y201699D01*
Y213085D01*
X543233Y213277D01*
X546303Y210207D01*
X546299Y210203D01*
X546942Y209711D01*
X547690Y209401D01*
X548492Y209295D01*
Y209300D01*
X556936D01*
X556985Y209310D01*
X558671Y209143D01*
X560339Y208637D01*
X561877Y207816D01*
X563187Y206740D01*
X563214Y206699D01*
X563861Y206053D01*
X564207Y205707D01*
X564516Y205335D01*
X565021Y204720D01*
X565625Y203591D01*
X565996Y202366D01*
X566121Y201102D01*
X566119Y201092D01*
Y196689D01*
X566127Y196649D01*
Y194819D01*
X566211Y194393D01*
X566453Y194032D01*
X566814Y193790D01*
X567240Y193705D01*
X567666Y193790D01*
X568027Y194032D01*
X568269Y194393D01*
X568354Y194819D01*
Y195509D01*
X568446Y195524D01*
X568574Y195535D01*
X568747Y195540D01*
X568809Y195567D01*
X571599D01*
X571957Y195079D01*
X571920Y194963D01*
X571429Y194634D01*
X571100Y194143D01*
X570985Y193563D01*
X571100Y192983D01*
X571429Y192492D01*
X571920Y192163D01*
X572500Y192048D01*
X573080Y192163D01*
X573561Y192485D01*
X573624Y192474D01*
X574061Y192325D01*
Y190916D01*
X576836D01*
Y193311D01*
X576862Y193350D01*
X576849Y193413D01*
X576874Y193472D01*
X576836Y193563D01*
Y194084D01*
X576836Y194084D01*
X576746Y194514D01*
X576746Y194514D01*
Y195033D01*
X576783Y195122D01*
X576766Y195163D01*
X576778Y195207D01*
X576746Y195264D01*
Y198864D01*
X572396D01*
Y197872D01*
X572388Y197870D01*
X572291Y197854D01*
X572164Y197843D01*
X571991Y197838D01*
X571929Y197810D01*
X568809D01*
X568747Y197838D01*
X568574Y197843D01*
X568446Y197854D01*
X568362Y197868D01*
Y201092D01*
X568383D01*
X568214Y202807D01*
X567713Y204456D01*
X566901Y205976D01*
X565808Y207308D01*
X565808Y207308D01*
X565440Y207647D01*
X564801Y208286D01*
X564810Y208295D01*
X563481Y209429D01*
X561991Y210342D01*
X560377Y211011D01*
X558678Y211419D01*
X556936Y211556D01*
Y211543D01*
X548492D01*
Y211555D01*
X548171Y211619D01*
X547897Y211802D01*
X547889Y211793D01*
X543183Y216499D01*
X543184Y216500D01*
X542879Y216956D01*
X542773Y217493D01*
X542771D01*
Y219122D01*
X542932Y220345D01*
X543451Y221599D01*
X544248Y222637D01*
X544289Y222664D01*
X545439Y223815D01*
X545793Y224168D01*
X546678Y224894D01*
X547687Y225434D01*
X548783Y225766D01*
X549922Y225878D01*
Y225879D01*
X551090D01*
X551176Y225870D01*
Y225879D01*
X553485D01*
X554132Y225035D01*
X554704Y223654D01*
X554887Y222265D01*
X554851Y222181D01*
X554844Y221684D01*
X554824Y221300D01*
X554793Y221023D01*
X554779Y220945D01*
X554768Y220903D01*
X554751Y220861D01*
X554753Y220808D01*
X554600Y220580D01*
X554485Y220000D01*
X554600Y219420D01*
X554929Y218929D01*
X555420Y218600D01*
X556000Y218485D01*
X556580Y218600D01*
X557071Y218929D01*
X557400Y219420D01*
X557515Y220000D01*
X557400Y220580D01*
X557247Y220808D01*
X557248Y220861D01*
X557232Y220903D01*
X557221Y220945D01*
X557209Y221008D01*
X557151Y221928D01*
X557149Y222176D01*
X557134Y222211D01*
X556985Y223726D01*
X556532Y225220D01*
X556449Y225375D01*
X556548Y225694D01*
X556563Y225720D01*
X556736Y225899D01*
X558052Y226003D01*
X559751Y226411D01*
X561366Y227079D01*
X562855Y227992D01*
X564184Y229127D01*
X564184Y229127D01*
X564528Y229489D01*
X564817Y229778D01*
X565184Y230098D01*
X566154Y230894D01*
X567692Y231716D01*
X569360Y232222D01*
X571047Y232388D01*
X571095Y232379D01*
X575041D01*
Y232367D01*
X575235Y232386D01*
X576394D01*
X576820Y232471D01*
X576944Y232554D01*
X576990Y232554D01*
X577001Y232566D01*
X577017Y232566D01*
X578018Y233039D01*
X578108Y233138D01*
X578169Y233170D01*
X578182Y233167D01*
X578271Y233220D01*
X578374Y233227D01*
X578576Y233328D01*
X578960Y233494D01*
X579122Y233554D01*
X579461Y233654D01*
X579602Y233685D01*
X579742Y233707D01*
X579873Y233720D01*
X580018Y233725D01*
X580087Y233756D01*
X580162Y233746D01*
X580608Y233762D01*
X580902Y233384D01*
Y231222D01*
X580823Y231026D01*
X580469Y230685D01*
X580468Y230684D01*
X574524D01*
X574483Y230677D01*
X572653D01*
X572227Y230592D01*
X571866Y230350D01*
X571625Y229989D01*
X571540Y229563D01*
X571625Y229137D01*
X571866Y228776D01*
Y228382D01*
X571625Y228021D01*
X571540Y227594D01*
X571625Y227168D01*
X571613Y227015D01*
X571594Y226947D01*
X571373Y226646D01*
X568062D01*
X567993Y226675D01*
X567104Y226687D01*
X566524Y226720D01*
X566422Y226732D01*
X566364Y226743D01*
X566320Y226756D01*
X566299Y226753D01*
X566080Y226900D01*
X565500Y227015D01*
X564920Y226900D01*
X564429Y226571D01*
X564100Y226080D01*
X563985Y225500D01*
X564100Y224920D01*
X564429Y224429D01*
X564920Y224100D01*
X565500Y223985D01*
X566080Y224100D01*
X566506Y224385D01*
X566535Y224394D01*
X566539Y224395D01*
X566544Y224397D01*
X566573Y224407D01*
X566597Y224426D01*
X566600Y224428D01*
X566655Y224449D01*
X566757Y224477D01*
X566879Y224501D01*
X567823Y224574D01*
X568121Y224577D01*
X568168Y224597D01*
X568218Y224585D01*
X568253Y224606D01*
X571373D01*
X571594Y224305D01*
X571613Y224237D01*
X571625Y224084D01*
X571540Y223657D01*
X571625Y223231D01*
X571866Y222870D01*
Y222476D01*
X571625Y222115D01*
X571540Y221689D01*
X571625Y221263D01*
X571866Y220902D01*
Y220508D01*
X571625Y220147D01*
X571540Y219721D01*
X571625Y219294D01*
X571866Y218933D01*
Y218539D01*
X571625Y218178D01*
X571540Y217752D01*
X571625Y217326D01*
X571866Y216965D01*
Y216571D01*
X571625Y216210D01*
X571540Y215784D01*
X571611Y215424D01*
X571572Y215315D01*
X571537Y215265D01*
X571103Y215064D01*
X571058Y215080D01*
X570580Y215400D01*
X570000Y215515D01*
X569420Y215400D01*
X568929Y215071D01*
X568600Y214580D01*
X568485Y214000D01*
X568600Y213420D01*
X568929Y212929D01*
X569420Y212600D01*
X570000Y212485D01*
X570580Y212600D01*
X570707Y212685D01*
X571318Y212713D01*
X571600Y212309D01*
X571616Y212227D01*
X571540Y211846D01*
X571625Y211420D01*
X571866Y211059D01*
Y210665D01*
X571625Y210304D01*
X571540Y209878D01*
X571625Y209452D01*
X571866Y209091D01*
Y208697D01*
X571625Y208336D01*
X571540Y207909D01*
X571625Y207483D01*
X571613Y207330D01*
X571594Y207262D01*
X571390Y206984D01*
X571065Y206990D01*
Y206990D01*
X570587Y206895D01*
X570580Y206900D01*
X570511Y206913D01*
X570457Y206964D01*
X570436Y206963D01*
X570420Y206977D01*
X570266Y206962D01*
X570000Y207015D01*
X569420Y206900D01*
X568929Y206571D01*
X568600Y206080D01*
X568485Y205500D01*
X568600Y204920D01*
X568929Y204429D01*
X569420Y204100D01*
X570000Y203985D01*
X570580Y204100D01*
X571071Y204429D01*
X571197Y204618D01*
X571625Y204399D01*
X571540Y203972D01*
X571597Y203686D01*
X571349Y203345D01*
X571221Y203251D01*
X571000Y203295D01*
X570420Y203180D01*
X569929Y202851D01*
X569600Y202360D01*
X569485Y201780D01*
X569600Y201200D01*
X569929Y200709D01*
X570420Y200380D01*
X571000Y200265D01*
X571580Y200380D01*
X572071Y200709D01*
X572162Y200844D01*
X572774Y201168D01*
X573125Y201313D01*
X573293Y201442D01*
X573506Y201554D01*
X573617Y201688D01*
X573757Y201791D01*
X574006Y201989D01*
X573994Y202000D01*
X574396Y202403D01*
X574454Y202421D01*
X574463Y202439D01*
X574482Y202447D01*
X574585Y202545D01*
X574672Y202619D01*
X574754Y202681D01*
X574830Y202732D01*
X574901Y202771D01*
X574965Y202801D01*
X575023Y202822D01*
X575074Y202835D01*
X575121Y202842D01*
X575199Y202846D01*
X575226Y202859D01*
X576394D01*
X576820Y202944D01*
X577181Y203185D01*
X577423Y203546D01*
X577507Y203972D01*
X577423Y204399D01*
X577181Y204760D01*
Y205154D01*
X577423Y205515D01*
X577507Y205941D01*
X577423Y206367D01*
X577181Y206728D01*
Y207122D01*
X577423Y207483D01*
X577507Y207909D01*
X577423Y208336D01*
X577181Y208697D01*
Y209091D01*
X577423Y209452D01*
X577507Y209878D01*
X577423Y210304D01*
X577181Y210665D01*
Y211059D01*
X577423Y211420D01*
X577507Y211846D01*
X577423Y212273D01*
X577181Y212634D01*
Y213028D01*
X577423Y213389D01*
X577507Y213815D01*
X577423Y214241D01*
X577181Y214602D01*
Y214996D01*
X577423Y215357D01*
X577507Y215784D01*
X577423Y216210D01*
X577181Y216571D01*
Y216965D01*
X577288Y217125D01*
X577450Y217256D01*
X577677Y217319D01*
X577930Y217312D01*
X577989Y217284D01*
X578113Y217216D01*
X578213Y217151D01*
X578290Y217094D01*
X578343Y217045D01*
X578375Y217009D01*
X578389Y216988D01*
X578389Y216988D01*
X578393Y216947D01*
X578428Y216880D01*
Y216042D01*
X582652D01*
X583152Y216042D01*
X583395Y216042D01*
X587463D01*
Y216014D01*
X590631D01*
Y218986D01*
X587620D01*
Y219514D01*
X590631D01*
Y222486D01*
X587620D01*
Y223014D01*
X590631D01*
Y225986D01*
X587463D01*
Y225958D01*
X583395D01*
X582895Y225958D01*
X582652Y225958D01*
X578428D01*
Y224842D01*
X578411Y224838D01*
X578318Y224822D01*
X578193Y224811D01*
X578022Y224807D01*
X577960Y224779D01*
X577743D01*
X577563Y225015D01*
X577438Y225279D01*
X577507Y225626D01*
X577423Y226052D01*
X577181Y226413D01*
Y226807D01*
X577423Y227168D01*
X577507Y227594D01*
X577438Y227941D01*
X577563Y228205D01*
X577743Y228441D01*
X580469D01*
Y228441D01*
X581145Y228530D01*
X581776Y228791D01*
X582317Y229206D01*
X582319Y229205D01*
X582768Y229791D01*
X583051Y230474D01*
X583148Y231207D01*
X583145D01*
Y238721D01*
X583158Y238740D01*
X583153Y238768D01*
X583167Y238792D01*
X583175Y238850D01*
X583176Y238852D01*
X583203Y238894D01*
X583272Y238967D01*
X583386Y239064D01*
X583546Y239176D01*
X583745Y239293D01*
X584300Y239563D01*
X584636Y239701D01*
X584727Y239792D01*
X585017Y239913D01*
X585636Y240387D01*
X586111Y241006D01*
X586410Y241727D01*
X586511Y242500D01*
X586410Y243273D01*
X586111Y243994D01*
X585636Y244613D01*
X585017Y245088D01*
X584297Y245386D01*
X583524Y245488D01*
X582750Y245386D01*
X582030Y245088D01*
X581411Y244613D01*
X580936Y243994D01*
X580638Y243273D01*
X580536Y242500D01*
X580620Y241863D01*
X580604Y241762D01*
X580667Y241498D01*
X580719Y241251D01*
X580838Y240452D01*
X580860Y240207D01*
X580885Y239385D01*
X580879Y239113D01*
X580894Y238879D01*
X580902Y238382D01*
Y236915D01*
X580608Y236537D01*
X580402Y236537D01*
X577439D01*
Y235484D01*
X577420Y235410D01*
X577007Y235125D01*
X576466Y234909D01*
X575913Y234726D01*
X575072Y234615D01*
X575041Y234622D01*
X571095D01*
Y234634D01*
X569353Y234497D01*
X567654Y234089D01*
X566040Y233421D01*
X564550Y232508D01*
X563222Y231373D01*
X563222Y231373D01*
X562877Y231011D01*
X562589Y230722D01*
X562561Y230681D01*
X561251Y229606D01*
X560486Y229197D01*
X559923Y229463D01*
X559900Y229580D01*
X559571Y230071D01*
X559080Y230400D01*
X558500Y230515D01*
X557920Y230400D01*
X557429Y230071D01*
X557100Y229580D01*
X557066Y229406D01*
X557000Y229322D01*
X556981Y229248D01*
X556967Y229219D01*
X556933Y229170D01*
X556873Y229103D01*
X556783Y229023D01*
X556663Y228932D01*
X556519Y228840D01*
X556110Y228627D01*
X555896Y228533D01*
X555275Y228276D01*
X554104Y228121D01*
X551132D01*
X550242Y228239D01*
X550201Y228271D01*
X549939Y228344D01*
X549828Y228381D01*
X549375Y228569D01*
X549257Y228638D01*
X549168Y228704D01*
X549108Y228760D01*
X549075Y228802D01*
X549059Y228830D01*
X549034Y228907D01*
X548976Y228973D01*
X548955Y229080D01*
X548626Y229571D01*
X548135Y229900D01*
X547555Y230015D01*
X546975Y229900D01*
X546484Y229571D01*
X546156Y229080D01*
X546040Y228500D01*
X546156Y227920D01*
X546248Y227782D01*
X546094Y227133D01*
X545422Y226774D01*
X544195Y225767D01*
X544195Y225767D01*
X543853Y225401D01*
X543233Y224781D01*
X542771Y224972D01*
Y225708D01*
X542784D01*
X542647Y227450D01*
X542239Y229149D01*
X541570Y230763D01*
X540657Y232253D01*
X539523Y233581D01*
X539523Y233581D01*
X539160Y233926D01*
X537312Y235774D01*
X537285Y235841D01*
X536983Y236147D01*
X536483Y236686D01*
X536118Y237124D01*
X535996Y237292D01*
X535909Y237429D01*
X535860Y237522D01*
X535849Y237552D01*
X535843Y237596D01*
X535803Y237661D01*
X535696Y238202D01*
X535493Y238506D01*
X535477Y238889D01*
X535883Y239325D01*
X536151D01*
X536564Y239116D01*
X536569Y239060D01*
X536574Y238894D01*
X536626Y238778D01*
X536684Y238487D01*
X536925Y238126D01*
X537287Y237885D01*
X537713Y237800D01*
X538139Y237885D01*
X538500Y238126D01*
X538741Y238487D01*
X538826Y238913D01*
Y240743D01*
X538834Y240784D01*
X538826Y240824D01*
Y242653D01*
X538741Y243080D01*
X538500Y243441D01*
X538285Y243585D01*
X538293Y243616D01*
X538261Y243670D01*
Y245311D01*
X538287Y245350D01*
X538274Y245413D01*
X538299Y245472D01*
X538261Y245563D01*
Y246084D01*
X538041D01*
X538026Y246309D01*
X538023Y246482D01*
X537996Y246546D01*
Y246988D01*
X538378Y247434D01*
X538449Y247425D01*
X539119Y247513D01*
X539744Y247772D01*
X540281Y248184D01*
X540692Y248720D01*
X540951Y249345D01*
X541040Y250016D01*
Y251984D01*
X540951Y252655D01*
X540692Y253280D01*
X540302Y253788D01*
X540324Y253915D01*
X540487Y254288D01*
X546410D01*
X546574Y253915D01*
X546595Y253788D01*
X546205Y253280D01*
X545946Y252655D01*
X545858Y251984D01*
Y250016D01*
X545946Y249345D01*
X546205Y248720D01*
X546617Y248184D01*
X546942Y247935D01*
X546944Y247928D01*
X546971Y247912D01*
X546982Y247904D01*
X546997Y247867D01*
X547068Y247838D01*
X547154Y247772D01*
X547241Y247736D01*
X547244Y247727D01*
X547263Y247647D01*
X547295Y247337D01*
X547299Y247142D01*
X547317Y247101D01*
X547211Y246568D01*
X546879Y246070D01*
X546381Y245737D01*
X545847Y245631D01*
X545350Y245624D01*
Y245624D01*
X544617Y245528D01*
X543934Y245245D01*
X543414Y244846D01*
X543327Y244810D01*
X543291Y244721D01*
X543288Y244718D01*
X543215Y244658D01*
X543151Y244539D01*
X542884Y244191D01*
X542734Y243828D01*
X542131Y243646D01*
X542076Y243682D01*
X541650Y243767D01*
X541223Y243682D01*
X540862Y243441D01*
X540621Y243080D01*
X540536Y242653D01*
Y240824D01*
X540528Y240784D01*
Y239585D01*
X540520D01*
X540536Y239425D01*
Y238913D01*
X540621Y238487D01*
X540630Y238474D01*
X540637Y238398D01*
X540984Y237256D01*
X541546Y236204D01*
X542303Y235282D01*
X542298Y235276D01*
X543191Y234591D01*
X544232Y234160D01*
X545348Y234013D01*
Y234028D01*
X550500D01*
X550564Y234041D01*
X551996Y233852D01*
X552842Y233502D01*
X552844Y233500D01*
X553329Y233259D01*
X553509Y233154D01*
X553663Y233052D01*
X553787Y232958D01*
X553879Y232875D01*
X553940Y232808D01*
X553973Y232761D01*
X553984Y232739D01*
X554001Y232676D01*
X554066Y232593D01*
X554100Y232420D01*
X554429Y231929D01*
X554920Y231600D01*
X555500Y231485D01*
X556080Y231600D01*
X556571Y231929D01*
X556900Y232420D01*
X557015Y233000D01*
X556900Y233580D01*
X556571Y234071D01*
X556080Y234400D01*
X555588Y234497D01*
X555136Y234789D01*
X554956Y234937D01*
X554667Y235091D01*
X554195Y235395D01*
X554048Y235422D01*
X553569Y235678D01*
X552065Y236134D01*
X550500Y236288D01*
Y236271D01*
X545348D01*
X545320Y236265D01*
X544557Y236417D01*
X544282Y236601D01*
X543894Y236873D01*
X543599Y237251D01*
X543550Y237315D01*
X543565Y237422D01*
X543783Y237833D01*
X544044Y237885D01*
X544406Y238126D01*
X544647Y238487D01*
X544732Y238913D01*
Y240743D01*
X544740Y240784D01*
Y242642D01*
X544756Y242688D01*
X544943Y243104D01*
X545027Y243262D01*
X545322Y243384D01*
X545350Y243378D01*
X545793D01*
Y243368D01*
X546149Y243414D01*
X546278Y243300D01*
X546502Y242957D01*
X546442Y242653D01*
Y238913D01*
X546526Y238487D01*
X546768Y238126D01*
X547129Y237885D01*
X547555Y237800D01*
X547981Y237885D01*
X548343Y238126D01*
X548736D01*
X549097Y237885D01*
X549524Y237800D01*
X549950Y237885D01*
X550168Y238030D01*
X550508Y238091D01*
X550848Y238030D01*
X551066Y237885D01*
X551492Y237800D01*
X551918Y237885D01*
X552136Y238030D01*
X552476Y238091D01*
X552817Y238030D01*
X553034Y237885D01*
X553461Y237800D01*
X553887Y237885D01*
X554105Y238030D01*
X554445Y238091D01*
X554785Y238030D01*
X555003Y237885D01*
X555429Y237800D01*
X555855Y237885D01*
X556073Y238030D01*
X556413Y238091D01*
X556754Y238030D01*
X556972Y237885D01*
X557398Y237800D01*
X557824Y237885D01*
X558185Y238126D01*
X558579D01*
X558940Y237885D01*
X559366Y237800D01*
X559792Y237885D01*
X560010Y238030D01*
X560350Y238091D01*
X560691Y238030D01*
X560909Y237885D01*
X561335Y237800D01*
X561761Y237885D01*
X562122Y238126D01*
X562516D01*
X562877Y237885D01*
X563303Y237800D01*
X563729Y237885D01*
X563947Y238030D01*
X564287Y238091D01*
X564628Y238030D01*
X564846Y237885D01*
X565272Y237800D01*
X565698Y237885D01*
X565915Y238030D01*
X566256Y238091D01*
X566596Y238030D01*
X566814Y237885D01*
X567240Y237800D01*
X567666Y237885D01*
X568027Y238126D01*
X568269Y238487D01*
X568354Y238913D01*
Y239603D01*
X568446Y239619D01*
X568574Y239630D01*
X568747Y239634D01*
X568809Y239662D01*
X569380D01*
Y239650D01*
X570061Y239717D01*
X570130Y239704D01*
X570561Y239538D01*
X570561Y239538D01*
X571081D01*
X571169Y239500D01*
X571212Y239518D01*
X571256Y239506D01*
X571312Y239538D01*
X576486D01*
Y245462D01*
X570561D01*
Y242198D01*
X570542Y242161D01*
X570502Y242135D01*
X570432Y242099D01*
X570335Y242060D01*
X570210Y242019D01*
X570074Y241984D01*
X569416Y241898D01*
X569380Y241905D01*
X568809D01*
X568747Y241933D01*
X568574Y241937D01*
X568446Y241948D01*
X568354Y241964D01*
Y242653D01*
X568269Y243080D01*
X568027Y243441D01*
X567666Y243682D01*
X567240Y243767D01*
X566814Y243682D01*
X566596Y243537D01*
X566256Y243476D01*
X565915Y243537D01*
X565698Y243682D01*
X565272Y243767D01*
X564846Y243682D01*
X564628Y243537D01*
X564287Y243476D01*
X563947Y243537D01*
X563729Y243682D01*
X563303Y243767D01*
X562877Y243682D01*
X562516Y243441D01*
X562122D01*
X561761Y243682D01*
X561335Y243767D01*
X560909Y243682D01*
X560691Y243537D01*
X560350Y243476D01*
X560010Y243537D01*
X559792Y243682D01*
X559366Y243767D01*
X558940Y243682D01*
X558579Y243441D01*
X558185D01*
X557824Y243682D01*
X557398Y243767D01*
X556972Y243682D01*
X556754Y243537D01*
X556413Y243476D01*
X556073Y243537D01*
X555855Y243682D01*
X555429Y243767D01*
X555003Y243682D01*
X554785Y243537D01*
X554445Y243476D01*
X554105Y243537D01*
X553887Y243682D01*
X553461Y243767D01*
X553034Y243682D01*
X552817Y243537D01*
X552476Y243476D01*
X552136Y243537D01*
X551918Y243682D01*
X551492Y243767D01*
X551066Y243682D01*
X550848Y243537D01*
X550508Y243476D01*
X550168Y243537D01*
X549950Y243682D01*
X549524Y243767D01*
X549097Y243682D01*
X548736Y243441D01*
X548343D01*
X548129Y243584D01*
X548051Y244047D01*
X548076Y244173D01*
X548472Y244477D01*
X549074Y245262D01*
X549452Y246175D01*
X549571Y247081D01*
X549598Y247142D01*
X549603Y247347D01*
X549615Y247508D01*
X549633Y247636D01*
X549653Y247727D01*
X549656Y247736D01*
X549744Y247772D01*
X549830Y247838D01*
X549901Y247867D01*
X549916Y247904D01*
X549926Y247912D01*
X549954Y247928D01*
X549956Y247935D01*
X550281Y248184D01*
X550692Y248720D01*
X550951Y249345D01*
X551040Y250016D01*
Y251984D01*
X550951Y252655D01*
X550692Y253280D01*
X550302Y253788D01*
X550324Y253915D01*
X550487Y254288D01*
X556410D01*
X556574Y253915D01*
X556595Y253788D01*
X556205Y253280D01*
X555946Y252655D01*
X555858Y251984D01*
Y250016D01*
X555946Y249345D01*
X556205Y248720D01*
X556617Y248184D01*
X557154Y247772D01*
X557778Y247513D01*
X558449Y247425D01*
X559119Y247513D01*
X559744Y247772D01*
X560281Y248184D01*
X560692Y248720D01*
X560951Y249345D01*
X561039Y250016D01*
Y251984D01*
X560951Y252655D01*
X560692Y253280D01*
X560302Y253788D01*
X560324Y253915D01*
X560487Y254288D01*
X611000D01*
Y179712D01*
D02*
G37*
G36*
X549348Y248315D02*
X549264Y248280D01*
X549190Y248221D01*
X549126Y248139D01*
X549072Y248034D01*
X549028Y247905D01*
X548993Y247753D01*
X548969Y247577D01*
X548954Y247378D01*
X548949Y247156D01*
X547949D01*
X547944Y247378D01*
X547904Y247753D01*
X547870Y247905D01*
X547826Y248034D01*
X547772Y248139D01*
X547707Y248221D01*
X547634Y248280D01*
X547550Y248315D01*
X547456Y248326D01*
X549441D01*
X549348Y248315D01*
D02*
G37*
G36*
X537377Y246282D02*
X537399Y245962D01*
X537418Y245832D01*
X537443Y245722D01*
X537473Y245632D01*
X537509Y245562D01*
X537550Y245512D01*
X537597Y245482D01*
X537649Y245472D01*
X536099D01*
X536151Y245482D01*
X536198Y245512D01*
X536239Y245562D01*
X536275Y245632D01*
X536305Y245722D01*
X536330Y245832D01*
X536349Y245962D01*
X536363Y246112D01*
X536374Y246472D01*
X537374D01*
X537377Y246282D01*
D02*
G37*
G36*
X537597Y243521D02*
X537550Y243499D01*
X537509Y243463D01*
X537473Y243413D01*
X537443Y243348D01*
X537418Y243269D01*
X537399Y243175D01*
X537385Y243067D01*
X537377Y242945D01*
X537374Y242808D01*
X537360D01*
X537353Y242624D01*
X537341Y242671D01*
X537331Y242733D01*
X537325Y242790D01*
X537325Y242808D01*
X536374D01*
X536371Y242945D01*
X536349Y243175D01*
X536330Y243269D01*
X536305Y243348D01*
X536275Y243413D01*
X536239Y243463D01*
X536198Y243499D01*
X536151Y243521D01*
X536099Y243528D01*
X537649D01*
X537597Y243521D01*
D02*
G37*
G36*
X537376Y242532D02*
X537400Y242456D01*
X537345Y242374D01*
X537223Y238913D01*
X537218Y239096D01*
X537201Y239294D01*
X537136Y239734D01*
X537027Y240232D01*
X536897Y240690D01*
X536790Y240762D01*
X536653Y240836D01*
X536498Y240905D01*
X536326Y240969D01*
X536263Y241987D01*
X536447Y241930D01*
X536613Y241890D01*
X536759Y241869D01*
X536885Y241865D01*
X536992Y241880D01*
X537007Y241885D01*
X537235Y242215D01*
X537235Y242218D01*
Y242216D01*
X537345Y242374D01*
X537353Y242624D01*
X537376Y242532D01*
D02*
G37*
G36*
X535532Y242405D02*
X535545Y242320D01*
X535568Y242245D01*
X535600Y242180D01*
X535641Y242125D01*
X535691Y242080D01*
X535750Y242045D01*
X535819Y242020D01*
X535896Y242005D01*
X535983Y242000D01*
Y241000D01*
X535896Y240995D01*
X535819Y240980D01*
X535750Y240955D01*
X535691Y240920D01*
X535641Y240875D01*
X535600Y240820D01*
X535568Y240755D01*
X535545Y240680D01*
X535532Y240595D01*
X535527Y240500D01*
Y240983D01*
X534478Y240942D01*
Y242058D01*
X534504Y242047D01*
X534558Y242037D01*
X534640Y242028D01*
X535050Y242009D01*
X535527Y242004D01*
Y242500D01*
X535532Y242405D01*
D02*
G37*
G36*
X544495Y243645D02*
X544360Y243389D01*
X544152Y242930D01*
X544081Y242727D01*
X544030Y242541D01*
X544001Y242372D01*
X543993Y242220D01*
X544006Y242086D01*
X544040Y241969D01*
X544096Y241870D01*
X543272Y243000D01*
X543211Y242969D01*
X543175Y242975D01*
X543164Y243018D01*
X543178Y243098D01*
X543217Y243215D01*
X543281Y243368D01*
X543484Y243786D01*
X543787Y244351D01*
X544495Y243645D01*
D02*
G37*
G36*
X571173Y240150D02*
X571164Y240226D01*
X571134Y240289D01*
X571085Y240339D01*
X571017Y240377D01*
X570929Y240402D01*
X570822Y240414D01*
X570694Y240414D01*
X570548Y240401D01*
X570382Y240375D01*
X570196Y240336D01*
X570205Y241348D01*
X570391Y241395D01*
X570557Y241449D01*
X570704Y241509D01*
X570831Y241574D01*
X570939Y241646D01*
X571027Y241723D01*
X571096Y241806D01*
X571145Y241895D01*
X571175Y241990D01*
X571185Y242091D01*
X571173Y240150D01*
D02*
G37*
G36*
X567728Y241688D02*
X567758Y241603D01*
X567809Y241529D01*
X567880Y241463D01*
X567971Y241408D01*
X568082Y241364D01*
X568214Y241329D01*
X568365Y241303D01*
X568537Y241288D01*
X568730Y241283D01*
Y240283D01*
X568537Y240279D01*
X568365Y240264D01*
X568214Y240238D01*
X568082Y240203D01*
X567971Y240159D01*
X567880Y240104D01*
X567809Y240038D01*
X567758Y239964D01*
X567728Y239879D01*
X567718Y239784D01*
Y241783D01*
X567728Y241688D01*
D02*
G37*
G36*
X584388Y240302D02*
X584034Y240155D01*
X583437Y239866D01*
X583195Y239722D01*
X582990Y239579D01*
X582822Y239438D01*
X582691Y239297D01*
X582598Y239156D01*
X582542Y239017D01*
X582524Y238879D01*
X581528Y239097D01*
X581535Y239387D01*
X581508Y240246D01*
X581483Y240528D01*
X581359Y241365D01*
X581301Y241640D01*
X581235Y241914D01*
X584388Y240302D01*
D02*
G37*
G36*
X534786Y239937D02*
X535500D01*
X535358Y239922D01*
X535230Y239877D01*
X535117Y239802D01*
X535020Y239697D01*
X534937Y239562D01*
X534870Y239397D01*
X534818Y239202D01*
X534816Y239190D01*
X534849Y238348D01*
X533151D01*
X533170Y238391D01*
X533187Y238479D01*
X533202Y238614D01*
X533219Y238982D01*
X533182Y239202D01*
X533130Y239397D01*
X533063Y239562D01*
X532980Y239697D01*
X532882Y239802D01*
X532770Y239877D01*
X532643Y239922D01*
X532500Y239937D01*
X533241D01*
X533250Y240837D01*
X534750D01*
X534786Y239937D01*
D02*
G37*
G36*
X535216Y237391D02*
X535265Y237258D01*
X535346Y237103D01*
X535460Y236925D01*
X535606Y236725D01*
X535995Y236257D01*
X536514Y235698D01*
X536822Y235385D01*
X536115Y234678D01*
X535802Y234986D01*
X534775Y235894D01*
X534575Y236040D01*
X534397Y236154D01*
X534242Y236235D01*
X534109Y236284D01*
X533999Y236300D01*
X534229Y236530D01*
X533999Y236750D01*
X534750Y237501D01*
X534761Y237482D01*
X534792Y237442D01*
X534920Y237303D01*
X534961Y237261D01*
X535200Y237501D01*
X535216Y237391D01*
D02*
G37*
G36*
X536574Y253915D02*
X536595Y253788D01*
X536205Y253280D01*
X535946Y252655D01*
X535858Y251984D01*
Y250016D01*
X535919Y249556D01*
X535893Y249492D01*
X535930Y249408D01*
X535928Y249386D01*
X535919Y249347D01*
X535922Y249325D01*
X535921Y249317D01*
X535925Y249302D01*
X535926Y249302D01*
X535928Y249260D01*
X535928Y249207D01*
X535845Y248460D01*
X535813Y248266D01*
X535828Y248199D01*
X535804Y248135D01*
X535829Y248079D01*
X535743Y247198D01*
X535752D01*
Y246553D01*
X535725Y246492D01*
X535714Y246152D01*
X535708Y246084D01*
X535487D01*
Y245563D01*
X535449Y245472D01*
X535474Y245413D01*
X535461Y245350D01*
X535487Y245311D01*
Y243675D01*
X531802D01*
Y239325D01*
X532263D01*
X532565Y238906D01*
X532554Y238665D01*
X532544Y238576D01*
X532540Y238555D01*
X532304Y238202D01*
X532165Y237500D01*
X532264Y236999D01*
X531812Y236804D01*
X531794Y236800D01*
X531202Y237196D01*
X530500Y237335D01*
X529798Y237196D01*
X529202Y236798D01*
X528804Y236202D01*
X528665Y235500D01*
X528742Y235114D01*
X528683Y234952D01*
X528401Y234589D01*
X528377Y234577D01*
X528133Y234529D01*
X527772Y234287D01*
X527530Y233926D01*
X527446Y233500D01*
X527530Y233074D01*
X527772Y232713D01*
Y232319D01*
X527530Y231958D01*
X527446Y231532D01*
X527530Y231105D01*
X527772Y230744D01*
Y230350D01*
X527530Y229989D01*
X527446Y229563D01*
X527530Y229137D01*
X527772Y228776D01*
Y228382D01*
X527530Y228021D01*
X527446Y227594D01*
X527530Y227168D01*
X527772Y226807D01*
Y226413D01*
X527530Y226052D01*
X527446Y225626D01*
X527530Y225200D01*
X527772Y224839D01*
Y224445D01*
X527530Y224084D01*
X527519Y224027D01*
X527108Y223813D01*
X523939D01*
Y221038D01*
X525499D01*
X526358Y220682D01*
X526368Y220681D01*
X526397Y220656D01*
X526420Y220649D01*
X526501Y220655D01*
X526529Y220641D01*
X526568Y220654D01*
X526629Y220646D01*
X526714Y220625D01*
X526728Y220633D01*
X527212Y220570D01*
X527416Y220298D01*
X527515Y220067D01*
X527446Y219721D01*
X527530Y219294D01*
X527772Y218933D01*
Y218539D01*
X527530Y218178D01*
X527446Y217752D01*
X527530Y217326D01*
X527772Y216965D01*
Y216571D01*
X527530Y216210D01*
X527446Y215784D01*
X527530Y215357D01*
X527772Y214996D01*
Y214602D01*
X527530Y214241D01*
X527446Y213815D01*
X527530Y213389D01*
X527772Y213028D01*
X528133Y212786D01*
X528559Y212701D01*
X532299D01*
X532725Y212786D01*
X533087Y213028D01*
X533328Y213389D01*
X533413Y213815D01*
X533328Y214241D01*
X533087Y214602D01*
Y214996D01*
X533328Y215357D01*
X533413Y215784D01*
X533328Y216210D01*
X533087Y216571D01*
Y216965D01*
X533328Y217326D01*
X533413Y217752D01*
X533328Y218178D01*
X533087Y218539D01*
Y218933D01*
X533328Y219294D01*
X533413Y219721D01*
X533328Y220147D01*
X533087Y220508D01*
Y220902D01*
X533328Y221263D01*
X533413Y221689D01*
X533328Y222115D01*
X533182Y222333D01*
X533122Y222673D01*
X533182Y223014D01*
X533328Y223231D01*
X533413Y223657D01*
X533328Y224084D01*
X533087Y224445D01*
Y224839D01*
X533328Y225200D01*
X533413Y225626D01*
X533328Y226052D01*
X533087Y226413D01*
Y226807D01*
X533328Y227168D01*
X533413Y227594D01*
X533328Y228021D01*
X533087Y228382D01*
Y228776D01*
X533328Y229137D01*
X533413Y229563D01*
X533328Y229989D01*
X533087Y230350D01*
Y230744D01*
X533328Y231105D01*
X533413Y231532D01*
X533328Y231958D01*
X533087Y232319D01*
Y232713D01*
X533328Y233074D01*
X533413Y233500D01*
X533328Y233926D01*
X533087Y234287D01*
X532725Y234529D01*
X532617Y234550D01*
X532578Y234573D01*
X532263Y235056D01*
X532258Y235114D01*
X532335Y235500D01*
X532236Y236001D01*
X532688Y236196D01*
X532706Y236200D01*
X533298Y235804D01*
X533839Y235697D01*
X533904Y235658D01*
X533948Y235651D01*
X533978Y235640D01*
X534071Y235592D01*
X534208Y235504D01*
X534368Y235388D01*
X535359Y234511D01*
X535659Y234215D01*
X535725Y234188D01*
X537928Y231986D01*
X537928Y231986D01*
X538248Y231619D01*
X539044Y230649D01*
X539865Y229111D01*
X540372Y227443D01*
X540538Y225757D01*
X540528Y225708D01*
Y219145D01*
X540514Y219000D01*
X540528D01*
Y217493D01*
X540518D01*
X540528Y217419D01*
Y207986D01*
X540034Y207781D01*
X539918Y207889D01*
X539514Y208293D01*
X539530Y208309D01*
X538126Y209461D01*
X536525Y210317D01*
X534787Y210845D01*
X532980Y211023D01*
Y210999D01*
X526089D01*
X526022Y211027D01*
X525986Y211012D01*
X525948Y211023D01*
X525926Y211021D01*
X525875Y210993D01*
X525817Y210999D01*
X525797Y210993D01*
X525765Y210967D01*
X525331Y210910D01*
X525097Y210813D01*
X523345D01*
Y208038D01*
X526513D01*
Y208756D01*
X527210D01*
X527390Y208520D01*
X527515Y208256D01*
X527446Y207909D01*
X527530Y207483D01*
X527772Y207122D01*
Y206728D01*
X527530Y206367D01*
X527446Y205941D01*
X527530Y205515D01*
X527772Y205154D01*
Y204760D01*
X527530Y204399D01*
X527446Y203972D01*
X527530Y203546D01*
X527193Y203151D01*
X525889Y202755D01*
X524483Y202617D01*
X524460Y202622D01*
X518017D01*
Y202633D01*
X516688Y202502D01*
X515410Y202114D01*
X514232Y201484D01*
X513199Y200637D01*
X513199Y200637D01*
X513064Y200525D01*
X513064Y200525D01*
X512804Y200272D01*
X512353Y199873D01*
X512180Y199741D01*
X512036Y199644D01*
X511974Y199611D01*
X511795D01*
X511728Y199636D01*
X511673Y199611D01*
X511638D01*
X511594Y199618D01*
X511585Y199611D01*
X510258D01*
Y193687D01*
X510856D01*
X510859Y193678D01*
X510875Y193582D01*
X510886Y193455D01*
X510890Y193282D01*
X510918Y193220D01*
Y188972D01*
X510893Y188925D01*
X510898Y188908D01*
X510891Y188892D01*
X510865Y188330D01*
X510795Y187851D01*
X510681Y187426D01*
X510527Y187052D01*
X510333Y186725D01*
X510099Y186438D01*
X509821Y186187D01*
X509494Y185968D01*
X509112Y185781D01*
X508638Y185617D01*
X508563Y185550D01*
X508006Y185319D01*
X507387Y184845D01*
X506913Y184226D01*
X506614Y183505D01*
X506512Y182732D01*
X506614Y181958D01*
X506913Y181238D01*
X507387Y180619D01*
X507918Y180212D01*
X507858Y179855D01*
X507785Y179712D01*
X482795D01*
X478712Y183795D01*
Y199000D01*
Y251205D01*
X481795Y254288D01*
X536410D01*
X536574Y253915D01*
D02*
G37*
G36*
X530934Y234797D02*
X530938Y234747D01*
X531416Y234725D01*
X531323Y234609D01*
X531241Y234492D01*
X531168Y234373D01*
X531104Y234253D01*
X531077Y234192D01*
X531109Y234139D01*
X531174Y234069D01*
X531249Y234018D01*
X531334Y233988D01*
X531429Y233978D01*
X530999D01*
X530973Y233883D01*
X530949Y233757D01*
X530934Y233629D01*
X530929Y233500D01*
X529929D01*
X529925Y233643D01*
X529913Y233783D01*
X529892Y233921D01*
X529880Y233978D01*
X529429D01*
X529524Y233988D01*
X529609Y234018D01*
X529684Y234069D01*
X529749Y234139D01*
X529804Y234230D01*
X529808Y234240D01*
X529780Y234319D01*
X529726Y234446D01*
X529664Y234572D01*
X529594Y234694D01*
X529515Y234814D01*
X529924Y234795D01*
X529924Y234797D01*
X529929Y234990D01*
X530929D01*
X530934Y234797D01*
D02*
G37*
G36*
X579996Y234374D02*
X579830Y234369D01*
X579659Y234352D01*
X579482Y234323D01*
X579300Y234284D01*
X578918Y234171D01*
X578718Y234097D01*
X578302Y233917D01*
X578086Y233809D01*
X577588Y234177D01*
X577741Y233627D01*
X576740Y233154D01*
X574738Y233978D01*
X574880Y233937D01*
X575051Y233919D01*
X575251Y233925D01*
X575480Y233953D01*
X575739Y234005D01*
X576026Y234080D01*
X576689Y234298D01*
X577389Y234578D01*
X577450Y234611D01*
X577856Y234866D01*
X578001Y234981D01*
X578107Y235088D01*
X578176Y235187D01*
X578205Y235277D01*
X578196Y235359D01*
X578149Y235432D01*
X578063Y235497D01*
X579996Y234374D01*
D02*
G37*
G36*
X555356Y233874D02*
X554627Y232850D01*
X554593Y232970D01*
X554534Y233092D01*
X554449Y233213D01*
X554338Y233336D01*
X554202Y233458D01*
X554039Y233582D01*
X553851Y233706D01*
X553637Y233830D01*
X553132Y234081D01*
X553843Y234849D01*
X555356Y233874D01*
D02*
G37*
G36*
X558355Y228126D02*
X556850Y227154D01*
X556126Y227925D01*
X556391Y228041D01*
X556845Y228278D01*
X557033Y228398D01*
X557196Y228520D01*
X557333Y228643D01*
X557445Y228768D01*
X557531Y228894D01*
X557592Y229022D01*
X557627Y229151D01*
X558355Y228126D01*
D02*
G37*
G36*
X548463Y228567D02*
X548533Y228440D01*
X548629Y228319D01*
X548751Y228204D01*
X548899Y228096D01*
X549073Y227993D01*
X549272Y227897D01*
X549498Y227807D01*
X549749Y227723D01*
X550026Y227645D01*
X549334Y226810D01*
X547777Y227642D01*
X548418Y228701D01*
X548463Y228567D01*
D02*
G37*
G36*
X572466Y225174D02*
X572443Y225184D01*
X572406Y225192D01*
X572354Y225200D01*
X572207Y225213D01*
X571741Y225225D01*
X571588Y225226D01*
Y226026D01*
X571741Y226027D01*
X572443Y226068D01*
X572466Y226078D01*
Y225174D01*
D02*
G37*
G36*
X588087Y223700D02*
X588079Y223776D01*
X588055Y223844D01*
X588014Y223904D01*
X587957Y223956D01*
X587884Y224000D01*
X587795Y224036D01*
X587689Y224064D01*
X587567Y224084D01*
X587543Y224086D01*
X587520Y224084D01*
X587400Y224064D01*
X587296Y224036D01*
X587208Y224000D01*
X587136Y223956D01*
X587080Y223904D01*
X587040Y223844D01*
X587016Y223776D01*
X587008Y223700D01*
Y225300D01*
X587016Y225224D01*
X587040Y225156D01*
X587080Y225096D01*
X587136Y225044D01*
X587208Y225000D01*
X587296Y224964D01*
X587400Y224936D01*
X587520Y224916D01*
X587543Y224914D01*
X587567Y224916D01*
X587689Y224936D01*
X587795Y224964D01*
X587884Y225000D01*
X587957Y225044D01*
X588014Y225096D01*
X588055Y225156D01*
X588079Y225224D01*
X588087Y225300D01*
Y223700D01*
D02*
G37*
G36*
X566140Y226132D02*
X566216Y226110D01*
X566325Y226090D01*
X566466Y226073D01*
X567081Y226038D01*
X567984Y226026D01*
X568114Y225226D01*
X567795Y225223D01*
X566792Y225145D01*
X566609Y225110D01*
X566455Y225068D01*
X566327Y225019D01*
X566227Y224964D01*
X566154Y224903D01*
X566095Y226156D01*
X566140Y226132D01*
D02*
G37*
G36*
X579040Y222732D02*
X579030Y222813D01*
X579000Y222885D01*
X578950Y222949D01*
X578880Y223005D01*
X578790Y223051D01*
X578680Y223090D01*
X578550Y223119D01*
X578400Y223141D01*
X578230Y223153D01*
X578040Y223158D01*
Y224158D01*
X578230Y224163D01*
X578400Y224178D01*
X578550Y224202D01*
X578680Y224237D01*
X578790Y224283D01*
X578880Y224338D01*
X578950Y224402D01*
X579000Y224478D01*
X579030Y224563D01*
X579040Y224658D01*
Y222732D01*
D02*
G37*
G36*
X588087Y220200D02*
X588079Y220276D01*
X588055Y220344D01*
X588014Y220404D01*
X587957Y220456D01*
X587884Y220500D01*
X587795Y220536D01*
X587689Y220564D01*
X587567Y220584D01*
X587545Y220586D01*
X587400Y220571D01*
X587296Y220549D01*
X587208Y220521D01*
X587136Y220486D01*
X587080Y220445D01*
X587040Y220397D01*
X587016Y220344D01*
X587008Y220284D01*
Y221716D01*
X587016Y221656D01*
X587040Y221603D01*
X587080Y221555D01*
X587136Y221514D01*
X587208Y221479D01*
X587296Y221451D01*
X587400Y221428D01*
X587520Y221413D01*
X587525Y221412D01*
X587567Y221416D01*
X587689Y221436D01*
X587795Y221464D01*
X587884Y221500D01*
X587957Y221544D01*
X588014Y221596D01*
X588055Y221656D01*
X588079Y221724D01*
X588087Y221800D01*
Y220200D01*
D02*
G37*
G36*
X526504Y222736D02*
X526528Y222645D01*
X526568Y222561D01*
X526625Y222485D01*
X526697Y222417D01*
X526786Y222356D01*
X526890Y222303D01*
X527011Y222257D01*
X527148Y222219D01*
X527301Y222189D01*
X526618Y221267D01*
X526595Y221275D01*
X526574Y221289D01*
X526556Y221310D01*
X526540Y221338D01*
X526526Y221373D01*
X526515Y221415D01*
X526507Y221463D01*
X526501Y221519D01*
X526496Y221650D01*
Y222835D01*
X526504Y222736D01*
D02*
G37*
G36*
X556502Y221905D02*
X556564Y220928D01*
X556587Y220803D01*
X556613Y220703D01*
X556643Y220625D01*
X556677Y220572D01*
X555323D01*
X555357Y220625D01*
X555387Y220703D01*
X555413Y220803D01*
X555436Y220928D01*
X555472Y221248D01*
X555493Y221662D01*
X555500Y222172D01*
X556500D01*
X556502Y221905D01*
D02*
G37*
G36*
X579040Y220284D02*
X579037Y220325D01*
X579027Y220361D01*
X579012Y220394D01*
X578990Y220422D01*
X578962Y220446D01*
X578928Y220465D01*
X578888Y220480D01*
X578842Y220491D01*
X578789Y220498D01*
X578731Y220500D01*
Y221500D01*
X578789Y221502D01*
X578842Y221509D01*
X578888Y221519D01*
X578928Y221535D01*
X578962Y221554D01*
X578990Y221578D01*
X579012Y221606D01*
X579027Y221638D01*
X579037Y221675D01*
X579040Y221716D01*
Y220284D01*
D02*
G37*
G36*
Y217005D02*
X579030Y217108D01*
X579002Y217210D01*
X578956Y217309D01*
X578891Y217406D01*
X578807Y217501D01*
X578705Y217594D01*
X578584Y217685D01*
X578445Y217774D01*
X578287Y217861D01*
X578110Y217946D01*
X578164Y219101D01*
X578330Y219030D01*
X578479Y218978D01*
X578611Y218943D01*
X578724Y218927D01*
X578821Y218928D01*
X578899Y218946D01*
X578961Y218983D01*
X579004Y219038D01*
X579031Y219110D01*
X579040Y219200D01*
Y217005D01*
D02*
G37*
G36*
X576802Y220107D02*
X576877Y220069D01*
X576977Y220011D01*
X577421Y219720D01*
X577618Y219584D01*
X577170Y218647D01*
X576925Y218812D01*
X576482Y219072D01*
X576285Y219167D01*
X576105Y219239D01*
X575941Y219286D01*
X575793Y219311D01*
X575661Y219312D01*
X575546Y219289D01*
X575447Y219243D01*
X576740Y220067D01*
X576719Y220106D01*
X576722Y220126D01*
X576750Y220126D01*
X576802Y220107D01*
D02*
G37*
G36*
X588087Y216700D02*
X588079Y216776D01*
X588055Y216844D01*
X588014Y216904D01*
X587957Y216956D01*
X587884Y217000D01*
X587795Y217036D01*
X587689Y217064D01*
X587567Y217084D01*
X587543Y217086D01*
X587520Y217084D01*
X587400Y217064D01*
X587296Y217036D01*
X587208Y217000D01*
X587136Y216956D01*
X587080Y216904D01*
X587040Y216844D01*
X587016Y216776D01*
X587008Y216700D01*
Y218300D01*
X587016Y218224D01*
X587040Y218156D01*
X587080Y218096D01*
X587136Y218044D01*
X587208Y218000D01*
X587296Y217964D01*
X587400Y217936D01*
X587520Y217916D01*
X587543Y217914D01*
X587567Y217916D01*
X587689Y217936D01*
X587795Y217964D01*
X587884Y218000D01*
X587957Y218044D01*
X588014Y218096D01*
X588055Y218156D01*
X588079Y218224D01*
X588087Y218300D01*
Y216700D01*
D02*
G37*
G36*
X570745Y214512D02*
X570849Y214450D01*
X570979Y214395D01*
X571136Y214347D01*
X571318Y214307D01*
X571528Y214274D01*
X572007Y214231D01*
X572443Y214257D01*
X572466Y214267D01*
Y214219D01*
X572631Y214215D01*
X572466Y213536D01*
Y213363D01*
X572443Y213373D01*
X572406Y213382D01*
X572354Y213389D01*
X572207Y213402D01*
X572173Y213403D01*
X570579Y213330D01*
X570668Y214582D01*
X570745Y214512D01*
D02*
G37*
G36*
X526022Y209378D02*
X525999Y209372D01*
X525979Y209356D01*
X525961Y209331D01*
X525945Y209295D01*
X525932Y209249D01*
X525921Y209194D01*
X525912Y209128D01*
X525903Y208968D01*
X525901Y208873D01*
Y210201D01*
X525903Y210233D01*
X525906Y210263D01*
X525912Y210289D01*
X525921Y210312D01*
X525932Y210331D01*
X525945Y210347D01*
X525961Y210360D01*
X525979Y210369D01*
X525999Y210375D01*
X526022Y210378D01*
Y209378D01*
D02*
G37*
G36*
X558740Y206116D02*
X558680Y206159D01*
X558590Y206198D01*
X558471Y206231D01*
X558321Y206261D01*
X558143Y206286D01*
X557696Y206322D01*
X556804Y206343D01*
Y207143D01*
X557131Y207145D01*
X558321Y207224D01*
X558471Y207254D01*
X558590Y207288D01*
X558680Y207326D01*
X558740Y207369D01*
Y206116D01*
D02*
G37*
G36*
X572466Y205489D02*
X572443Y205499D01*
X572406Y205507D01*
X572354Y205515D01*
X572207Y205528D01*
X571741Y205540D01*
X571588Y205541D01*
Y206341D01*
X571741Y206342D01*
X572443Y206383D01*
X572466Y206393D01*
Y205489D01*
D02*
G37*
G36*
X570466Y205907D02*
X570711Y205483D01*
X570757Y205495D01*
X570796Y205499D01*
X570827Y205494D01*
X570851Y205480D01*
X570868Y205456D01*
X570877Y205424D01*
X570878Y205384D01*
X570871Y205334D01*
X570858Y205275D01*
X570836Y205208D01*
X570466Y205907D01*
X570307Y206184D01*
X570229Y206356D01*
X570466Y205907D01*
D02*
G37*
G36*
X547403Y204375D02*
X547412Y204271D01*
X547428Y204170D01*
X547449Y204071D01*
X547477Y203975D01*
X547511Y203881D01*
X547551Y203790D01*
X547598Y203701D01*
X547650Y203615D01*
X547709Y203532D01*
X546291D01*
X546350Y203615D01*
X546403Y203701D01*
X546449Y203790D01*
X546489Y203881D01*
X546523Y203975D01*
X546551Y204071D01*
X546572Y204170D01*
X546588Y204271D01*
X546597Y204375D01*
X546600Y204482D01*
X547400D01*
X547403Y204375D01*
D02*
G37*
G36*
X575055Y203489D02*
X574943Y203472D01*
X574831Y203443D01*
X574719Y203402D01*
X574606Y203350D01*
X574492Y203287D01*
X574378Y203212D01*
X574264Y203125D01*
X574149Y203027D01*
X574034Y202917D01*
X572990Y203004D01*
X573077Y203098D01*
X573143Y203181D01*
X573188Y203255D01*
X573211Y203318D01*
X573213Y203372D01*
X573194Y203416D01*
X573153Y203451D01*
X573091Y203475D01*
X573008Y203490D01*
X572903Y203495D01*
X575166D01*
X575055Y203489D01*
D02*
G37*
G36*
X531569Y203495D02*
X531413Y203491D01*
X531254Y203474D01*
X531093Y203442D01*
X530928Y203397D01*
X530761Y203338D01*
X530591Y203265D01*
X530418Y203178D01*
X530243Y203077D01*
X529884Y202833D01*
X528233Y202954D01*
X528378Y203067D01*
X528493Y203169D01*
X528578Y203259D01*
X528632Y203338D01*
X528657Y203405D01*
X528651Y203460D01*
X528615Y203504D01*
X528549Y203536D01*
X528452Y203556D01*
X528326Y203565D01*
X531569Y203495D01*
D02*
G37*
G36*
X573202Y202129D02*
X571792Y201383D01*
X571429Y202555D01*
X571573Y202488D01*
X571720Y202447D01*
X571870Y202429D01*
X572022Y202437D01*
X572177Y202469D01*
X572334Y202527D01*
X572494Y202609D01*
X572657Y202716D01*
X572822Y202848D01*
X572990Y203004D01*
X573202Y202129D01*
D02*
G37*
G36*
X551335Y202763D02*
X550722Y202172D01*
X550610Y202426D01*
X550493Y202656D01*
X550371Y202861D01*
X550243Y203043D01*
X550110Y203200D01*
X549972Y203333D01*
X549829Y203442D01*
X549680Y203527D01*
X549526Y203588D01*
X549367Y203624D01*
X550377Y204373D01*
X551335Y202763D01*
D02*
G37*
G36*
X547130Y202124D02*
X546966Y202088D01*
X546813Y202031D01*
X546673Y201954D01*
X546545Y201856D01*
X546430Y201737D01*
X546327Y201598D01*
X546237Y201437D01*
X546159Y201256D01*
X546093Y201055D01*
X546040Y200832D01*
X545379Y201441D01*
X546122Y202880D01*
X547130Y202124D01*
D02*
G37*
G36*
X549060Y201339D02*
X548982Y200671D01*
X549178Y200175D01*
X549118Y200199D01*
X549024Y200246D01*
X548988Y200268D01*
X548961Y200289D01*
X548943Y200309D01*
X548932Y200329D01*
X548930Y200348D01*
X548935Y200366D01*
X548949Y200383D01*
X548982Y200671D01*
X548701Y201383D01*
X549060Y201339D01*
D02*
G37*
G36*
X514224Y199353D02*
X513964Y199086D01*
X513394Y198412D01*
X513274Y198229D01*
X513189Y198067D01*
X513138Y197926D01*
X513123Y197807D01*
X513142Y197708D01*
X513197Y197630D01*
X511749Y198987D01*
X511832Y198937D01*
X511935Y198923D01*
X512059Y198943D01*
X512204Y198997D01*
X512370Y199087D01*
X512558Y199212D01*
X512766Y199372D01*
X513246Y199796D01*
X513517Y200060D01*
X514224Y199353D01*
D02*
G37*
G36*
X551893Y199472D02*
X551934Y198769D01*
X551944Y198746D01*
X551040D01*
X551050Y198769D01*
X551059Y198807D01*
X551066Y198858D01*
X551079Y199005D01*
X551092Y199472D01*
X551092Y199625D01*
X551892D01*
X551893Y199472D01*
D02*
G37*
G36*
X545987D02*
X546029Y198769D01*
X546039Y198746D01*
X545134D01*
X545144Y198769D01*
X545153Y198807D01*
X545161Y198858D01*
X545174Y199005D01*
X545186Y199472D01*
X545187Y199625D01*
X545987D01*
X545987Y199472D01*
D02*
G37*
G36*
X548264Y199504D02*
X548213Y199371D01*
X548074Y198925D01*
X548055Y198835D01*
X548043Y198753D01*
X548037Y198680D01*
X548037Y198615D01*
X548045Y198559D01*
X547209Y198905D01*
X547198Y198904D01*
X547196Y198920D01*
X547201Y198954D01*
X547214Y199005D01*
X547264Y199159D01*
X547461Y199676D01*
X548264Y199504D01*
D02*
G37*
G36*
X573020Y195689D02*
X573010Y195784D01*
X572980Y195869D01*
X572929Y195944D01*
X572858Y196009D01*
X572767Y196064D01*
X572656Y196109D01*
X572524Y196144D01*
X572372Y196169D01*
X572200Y196184D01*
X572008Y196189D01*
Y197189D01*
X572200Y197194D01*
X572372Y197209D01*
X572524Y197234D01*
X572656Y197269D01*
X572767Y197314D01*
X572858Y197369D01*
X572929Y197434D01*
X572980Y197509D01*
X573010Y197594D01*
X573020Y197689D01*
Y195689D01*
D02*
G37*
G36*
X567728Y197594D02*
X567758Y197509D01*
X567809Y197434D01*
X567880Y197369D01*
X567971Y197314D01*
X568082Y197269D01*
X568214Y197234D01*
X568365Y197209D01*
X568537Y197194D01*
X568730Y197189D01*
Y196189D01*
X568537Y196184D01*
X568365Y196169D01*
X568214Y196144D01*
X568082Y196109D01*
X567971Y196064D01*
X567880Y196009D01*
X567809Y195944D01*
X567758Y195869D01*
X567728Y195784D01*
X567718Y195689D01*
Y197689D01*
X567728Y197594D01*
D02*
G37*
G36*
X537235Y195649D02*
X537225Y195744D01*
X537195Y195829D01*
X537144Y195904D01*
X537073Y195969D01*
X536982Y196024D01*
X536871Y196069D01*
X536739Y196104D01*
X536587Y196129D01*
X536415Y196144D01*
X536223Y196149D01*
Y197149D01*
X536415Y197154D01*
X536587Y197169D01*
X536739Y197194D01*
X536871Y197229D01*
X536982Y197274D01*
X537073Y197329D01*
X537144Y197394D01*
X537195Y197469D01*
X537225Y197554D01*
X537235Y197649D01*
Y195649D01*
D02*
G37*
G36*
X518140Y197554D02*
X518170Y197469D01*
X518220Y197394D01*
X518290Y197329D01*
X518380Y197274D01*
X518490Y197229D01*
X518620Y197194D01*
X518770Y197169D01*
X518940Y197154D01*
X519130Y197149D01*
Y196149D01*
X518940Y196144D01*
X518770Y196129D01*
X518620Y196104D01*
X518490Y196069D01*
X518380Y196024D01*
X518290Y195969D01*
X518220Y195904D01*
X518170Y195829D01*
X518140Y195744D01*
X518130Y195649D01*
Y197649D01*
X518140Y197554D01*
D02*
G37*
G36*
X573584Y195129D02*
X574463Y195134D01*
X574392Y195138D01*
X574807Y195135D01*
X575369Y195138D01*
X575252Y195132D01*
X576134Y195126D01*
X576089Y195121D01*
X576050Y195104D01*
X576018Y195076D01*
X575990Y195037D01*
X575969Y194987D01*
X575953Y194926D01*
X575944Y194853D01*
X575940Y194770D01*
X575941Y194675D01*
X575949Y194569D01*
X574949D01*
X574934Y194677D01*
X574910Y194773D01*
X574876Y194858D01*
X574834Y194932D01*
X574783Y194994D01*
X574775Y195001D01*
X574741Y194985D01*
X574623Y194919D01*
X574508Y194841D01*
X574396Y194751D01*
X574286Y194648D01*
X574178Y194534D01*
X573584Y195129D01*
Y195129D01*
X574178Y194534D01*
X574033Y194387D01*
X573598Y193885D01*
X573526Y193781D01*
X573467Y193687D01*
X573424Y193601D01*
X573394Y193525D01*
X573379Y193457D01*
X572394Y194442D01*
X572462Y194457D01*
X572538Y194487D01*
X572624Y194530D01*
X572718Y194589D01*
X572822Y194661D01*
X573055Y194850D01*
X573323Y195096D01*
X573356Y195128D01*
X573008Y195126D01*
X573078Y195127D01*
X573202Y195136D01*
X573256Y195145D01*
X573305Y195155D01*
X573348Y195168D01*
X573387Y195183D01*
X573420Y195200D01*
X573448Y195220D01*
X573471Y195241D01*
X573584Y195129D01*
D02*
G37*
G36*
X549926Y195262D02*
X549966Y194632D01*
X549976D01*
X549967Y194612D01*
X549990Y194253D01*
X550019Y194072D01*
X550054Y193921D01*
X550094Y193798D01*
X550139Y193703D01*
X550189Y193638D01*
X548936Y193614D01*
X548972Y193668D01*
X549004Y193753D01*
X549032Y193869D01*
X549056Y194015D01*
X549094Y194399D01*
X549094Y194400D01*
X549081Y194609D01*
X549071Y194632D01*
X549104D01*
X549116Y194905D01*
X549124Y195534D01*
X549924Y195586D01*
X549926Y195262D01*
D02*
G37*
G36*
X575952Y194282D02*
X575974Y193962D01*
X575993Y193832D01*
X576018Y193722D01*
X576048Y193632D01*
X576084Y193562D01*
X576125Y193512D01*
X576172Y193482D01*
X576224Y193472D01*
X574673D01*
X574726Y193482D01*
X574773Y193512D01*
X574814Y193562D01*
X574850Y193632D01*
X574880Y193722D01*
X574905Y193832D01*
X574924Y193962D01*
X574938Y194112D01*
X574949Y194472D01*
X575949D01*
X575952Y194282D01*
D02*
G37*
G36*
X542152D02*
X542185Y193832D01*
X542206Y193722D01*
X542230Y193632D01*
X542260Y193562D01*
X542293Y193512D01*
X542331Y193482D01*
X542374Y193472D01*
X540823D01*
X540885Y193482D01*
X540941Y193512D01*
X540990Y193562D01*
X541032Y193632D01*
X541068Y193722D01*
X541097Y193832D01*
X541120Y193962D01*
X541137Y194112D01*
X541150Y194472D01*
X542150D01*
X542152Y194282D01*
D02*
G37*
G36*
X517866Y194301D02*
X517781Y194271D01*
X517706Y194220D01*
X517641Y194149D01*
X517586Y194058D01*
X517541Y193947D01*
X517506Y193815D01*
X517481Y193663D01*
X517466Y193491D01*
X517461Y193299D01*
X516461D01*
X516456Y193491D01*
X516441Y193663D01*
X516416Y193815D01*
X516381Y193947D01*
X516336Y194058D01*
X516281Y194149D01*
X516216Y194220D01*
X516141Y194271D01*
X516056Y194301D01*
X515961Y194311D01*
X517961D01*
X517866Y194301D01*
D02*
G37*
G36*
X512944D02*
X512859Y194271D01*
X512784Y194220D01*
X512719Y194149D01*
X512664Y194058D01*
X512619Y193947D01*
X512584Y193815D01*
X512559Y193663D01*
X512544Y193491D01*
X512539Y193299D01*
X511539D01*
X511534Y193491D01*
X511519Y193663D01*
X511494Y193815D01*
X511459Y193947D01*
X511414Y194058D01*
X511359Y194149D01*
X511294Y194220D01*
X511219Y194271D01*
X511134Y194301D01*
X511039Y194311D01*
X513039D01*
X512944Y194301D01*
D02*
G37*
G36*
X563805Y193229D02*
X563814Y193194D01*
X563829Y193163D01*
X563852Y193137D01*
X563882Y193114D01*
X563918Y193096D01*
X563962Y193081D01*
X564012Y193071D01*
X564069Y193065D01*
X564134Y193063D01*
X562294D01*
X562389Y193065D01*
X562550Y193081D01*
X562616Y193096D01*
X562672Y193114D01*
X562718Y193137D01*
X562754Y193163D01*
X562780Y193194D01*
X562796Y193229D01*
X562803Y193268D01*
X563803D01*
X563805Y193229D01*
D02*
G37*
G36*
X564456Y182816D02*
X564417Y182865D01*
X564330Y182960D01*
X561910Y185383D01*
X562586Y186121D01*
X562782Y185954D01*
X562999Y185824D01*
X563237Y185731D01*
X563496Y185676D01*
X563775Y185658D01*
X564074Y185678D01*
X564395Y185735D01*
X564736Y185829D01*
X565098Y185961D01*
X565480Y186131D01*
X564456Y182816D01*
D02*
G37*
G36*
X514811Y185427D02*
X514690Y185488D01*
X514553Y185529D01*
X514401Y185548D01*
X514234Y185547D01*
X514051Y185524D01*
X513854Y185480D01*
X513640Y185415D01*
X513412Y185329D01*
X513168Y185222D01*
X512909Y185094D01*
X512822Y186160D01*
X514533Y186642D01*
X514811Y185427D01*
D02*
G37*
G36*
X557633Y184664D02*
X554639Y186247D01*
X555068Y186406D01*
X555452Y186588D01*
X555791Y186794D01*
X556084Y187024D01*
X556333Y187277D01*
X556536Y187555D01*
X556694Y187857D01*
X556807Y188182D01*
X556875Y188532D01*
X556898Y188905D01*
X557898D01*
X557633Y184664D01*
D02*
G37*
G36*
X517487Y188268D02*
X517568Y187719D01*
X517703Y187217D01*
X517891Y186761D01*
X518133Y186352D01*
X518429Y185990D01*
X518778Y185673D01*
X519181Y185403D01*
X519639Y185180D01*
X520150Y185003D01*
X517289Y183564D01*
X516461Y188766D01*
X517461Y188862D01*
X517487Y188268D01*
D02*
G37*
G36*
X512539Y188766D02*
X511806Y184160D01*
X511839Y184075D01*
X511865Y183939D01*
X511882Y183758D01*
X511890Y183531D01*
X511877Y182942D01*
X511857Y182579D01*
X510024Y184413D01*
X508850Y185003D01*
X509361Y185180D01*
X509819Y185403D01*
X510222Y185673D01*
X510571Y185990D01*
X510867Y186352D01*
X511109Y186761D01*
X511297Y187217D01*
X511432Y187719D01*
X511513Y188268D01*
X511539Y188862D01*
X512539Y188766D01*
D02*
G37*
%LPC*%
G36*
X548000Y224515D02*
X547420Y224400D01*
X546929Y224071D01*
X546600Y223580D01*
X546485Y223000D01*
X546600Y222420D01*
X546929Y221929D01*
X547420Y221600D01*
X547806Y221524D01*
X547831Y221499D01*
X547884Y221478D01*
X547932Y221451D01*
X548002Y221404D01*
X548854Y220659D01*
X549073Y220443D01*
X549144Y220414D01*
X554350Y215208D01*
X554340Y215198D01*
X555656Y214073D01*
X557133Y213169D01*
X558732Y212506D01*
X560416Y212102D01*
X562142Y211966D01*
Y211980D01*
X563356D01*
X563423Y211951D01*
X564296Y211931D01*
X564705Y211897D01*
X564847Y211878D01*
X564952Y211857D01*
X565006Y211842D01*
X565058Y211820D01*
X565093Y211819D01*
X565420Y211600D01*
X566000Y211485D01*
X566580Y211600D01*
X567071Y211929D01*
X567400Y212420D01*
X567515Y213000D01*
X567400Y213580D01*
X567071Y214071D01*
X566580Y214400D01*
X566000Y214515D01*
X565420Y214400D01*
X565093Y214181D01*
X565058Y214180D01*
X565006Y214158D01*
X564952Y214143D01*
X564870Y214127D01*
X563741Y214052D01*
X563434Y214049D01*
X563363Y214020D01*
X562142D01*
X562099Y214011D01*
X560388Y214179D01*
X558701Y214691D01*
X557146Y215522D01*
X555817Y216613D01*
X555792Y216650D01*
X550591Y221851D01*
X550564Y221920D01*
X549961Y222551D01*
X549695Y222864D01*
X549609Y222978D01*
X549549Y223067D01*
X549522Y223116D01*
X549501Y223168D01*
X549476Y223194D01*
X549400Y223580D01*
X549071Y224071D01*
X548580Y224400D01*
X548000Y224515D01*
D02*
G37*
G36*
X588500Y202607D02*
X587920Y202491D01*
X587429Y202163D01*
X587100Y201672D01*
X586985Y201092D01*
X587100Y200512D01*
X587273Y200253D01*
X587287Y200186D01*
X587287Y200184D01*
X587288Y200181D01*
X587295Y200146D01*
X587312Y200121D01*
X587323Y200071D01*
X587335Y199974D01*
X587340Y199836D01*
X587336Y199691D01*
X587327Y199600D01*
X587252Y198940D01*
X587201Y198646D01*
X587224Y198547D01*
X587222Y198531D01*
X586716Y196863D01*
X585897Y195331D01*
X585812Y195278D01*
X585494Y194838D01*
X585163Y194434D01*
X585066Y194332D01*
X584965Y194238D01*
X584889Y194178D01*
X584845Y194150D01*
X584815Y194144D01*
X584785Y194124D01*
X584783Y194124D01*
X584781Y194122D01*
X584724Y194083D01*
X584420Y194023D01*
X583929Y193695D01*
X583600Y193203D01*
X583485Y192624D01*
X583600Y192044D01*
X583929Y191552D01*
X584420Y191224D01*
X585000Y191109D01*
X585580Y191224D01*
X586071Y191552D01*
X586400Y192044D01*
X586464Y192367D01*
X587677Y193936D01*
X587683Y193956D01*
X587699Y193966D01*
X587721Y194069D01*
X588421Y195211D01*
X589089Y196825D01*
X589407Y198150D01*
X589463Y198235D01*
X589459Y198255D01*
X589469Y198272D01*
X589717Y200239D01*
X589900Y200512D01*
X590015Y201092D01*
X589900Y201672D01*
X589571Y202163D01*
X589080Y202491D01*
X588500Y202607D01*
D02*
G37*
%LPD*%
G36*
X548898Y222927D02*
X548934Y222837D01*
X548995Y222728D01*
X549079Y222602D01*
X549188Y222458D01*
X549478Y222116D01*
X550095Y221471D01*
X549529Y220905D01*
X549296Y221135D01*
X548398Y221921D01*
X548272Y222005D01*
X548163Y222066D01*
X548072Y222102D01*
X547999Y222114D01*
X548886Y223001D01*
X548898Y222927D01*
D02*
G37*
G36*
X565374Y212373D02*
X565314Y212416D01*
X565224Y212455D01*
X565104Y212489D01*
X564955Y212518D01*
X564777Y212543D01*
X564330Y212580D01*
X563438Y212600D01*
Y213400D01*
X563765Y213402D01*
X564955Y213482D01*
X565104Y213511D01*
X565224Y213545D01*
X565314Y213584D01*
X565374Y213627D01*
Y212373D01*
D02*
G37*
G36*
X589087Y200428D02*
X588824Y198354D01*
X587841Y198536D01*
X587895Y198847D01*
X587984Y199630D01*
X587990Y199839D01*
X587983Y200024D01*
X587964Y200183D01*
X587933Y200317D01*
X587890Y200425D01*
X587834Y200507D01*
X589087Y200428D01*
D02*
G37*
G36*
X587164Y194333D02*
X585884Y192679D01*
X584942Y193508D01*
X585039Y193527D01*
X585146Y193573D01*
X585263Y193646D01*
X585389Y193745D01*
X585524Y193871D01*
X585668Y194023D01*
X585985Y194407D01*
X586339Y194898D01*
X587164Y194333D01*
D02*
G37*
%LPC*%
G36*
X515000Y253335D02*
X514298Y253196D01*
X513702Y252798D01*
X513304Y252202D01*
X513165Y251500D01*
X513304Y250798D01*
X513702Y250202D01*
X513733Y250181D01*
X514081Y249359D01*
X514159Y249281D01*
X514279Y248993D01*
X515076Y247954D01*
X515087Y247966D01*
X517625Y245429D01*
X517646Y245375D01*
X518719Y244280D01*
X519154Y243801D01*
X519210Y243731D01*
X519222Y243713D01*
X519304Y243298D01*
X519702Y242702D01*
X520298Y242304D01*
X521000Y242165D01*
X521702Y242304D01*
X522298Y242702D01*
X522696Y243298D01*
X522835Y244000D01*
X522696Y244702D01*
X522298Y245298D01*
X521702Y245696D01*
X521344Y245767D01*
X519612Y247367D01*
X519561Y247385D01*
X517034Y249913D01*
X516991Y249941D01*
X516815Y250206D01*
X516815Y250206D01*
X516744Y250313D01*
X516699Y250393D01*
X516668Y250462D01*
X516648Y250517D01*
X516637Y250560D01*
X516633Y250591D01*
Y250611D01*
X516635Y250624D01*
X516638Y250636D01*
X516662Y250690D01*
X516663Y250748D01*
X516696Y250798D01*
X516835Y251500D01*
X516696Y252202D01*
X516298Y252798D01*
X515702Y253196D01*
X515000Y253335D01*
D02*
G37*
G36*
X521175Y238581D02*
X516825D01*
Y237591D01*
X516809Y237586D01*
X516715Y237571D01*
X516590Y237560D01*
X516420Y237555D01*
X516358Y237528D01*
X514602D01*
Y237543D01*
X513110Y237396D01*
X511676Y236961D01*
X511631Y236937D01*
X511380Y237311D01*
X510889Y237640D01*
X510309Y237755D01*
X509729Y237640D01*
X509238Y237311D01*
X508909Y236820D01*
X508794Y236240D01*
X508909Y235660D01*
X509090Y235391D01*
X509128Y235259D01*
X509148Y235234D01*
X507003Y233089D01*
X507003Y233089D01*
X506991Y233101D01*
X506006Y231900D01*
X505274Y230531D01*
X504823Y229045D01*
X504671Y227500D01*
X504688D01*
Y210142D01*
X504660Y210080D01*
X504656Y209910D01*
X504645Y209785D01*
X504629Y209691D01*
X504625Y209675D01*
X503635D01*
Y209581D01*
X503606Y209512D01*
X503134Y209272D01*
X503080Y209309D01*
X502500Y209424D01*
X501920Y209309D01*
X501429Y208981D01*
X501100Y208489D01*
X500985Y207909D01*
X501100Y207330D01*
X501429Y206838D01*
X501602Y206722D01*
X501521Y206175D01*
X500507Y205868D01*
X498833Y205703D01*
X498785Y205712D01*
X498253D01*
X498190Y205740D01*
X498015Y205743D01*
X497879Y205752D01*
X497789Y205764D01*
Y206076D01*
X497267D01*
X497177Y206114D01*
X497133Y206096D01*
X497086Y206107D01*
X497034Y206076D01*
X491156D01*
Y203105D01*
Y200546D01*
Y197987D01*
Y195428D01*
X497789D01*
Y198298D01*
X498024Y198320D01*
X498190Y198323D01*
X498253Y198351D01*
X498630D01*
X498912Y197929D01*
X499404Y197600D01*
X499984Y197485D01*
X500563Y197600D01*
X501055Y197929D01*
X501383Y198420D01*
X501499Y199000D01*
X501383Y199580D01*
X501055Y200071D01*
Y200418D01*
X501071Y200429D01*
X501400Y200920D01*
X501515Y201500D01*
X501400Y202080D01*
X501071Y202571D01*
X500580Y202900D01*
X500000Y203015D01*
X499962Y203047D01*
X500127Y203562D01*
X500517Y203593D01*
X502205Y203998D01*
X503810Y204663D01*
X504076Y204826D01*
X504162Y204833D01*
X504171Y204843D01*
X504184Y204845D01*
X504459Y205002D01*
X504934Y205240D01*
X505112Y205313D01*
X505149Y205325D01*
X505671D01*
X505734Y205300D01*
X505787Y205322D01*
X505843Y205310D01*
X505866Y205325D01*
X507984D01*
Y209675D01*
X506994D01*
X506990Y209691D01*
X506974Y209785D01*
X506963Y209910D01*
X506959Y210080D01*
X506931Y210142D01*
Y227500D01*
X506919Y227561D01*
X507104Y228970D01*
X507145Y229067D01*
X507709Y229123D01*
X507839Y228929D01*
X508330Y228600D01*
X508910Y228485D01*
X509439Y228590D01*
X509939Y228514D01*
X509939Y228514D01*
X510461D01*
X510551Y228477D01*
X510596Y228495D01*
X510642Y228483D01*
X510695Y228514D01*
X515305D01*
X515358Y228483D01*
X515404Y228495D01*
X515449Y228477D01*
X515539Y228514D01*
X516061D01*
Y228514D01*
X516371Y228623D01*
X516825Y228325D01*
Y228325D01*
X521175D01*
Y232675D01*
X516825D01*
Y231694D01*
X516371Y231377D01*
X516061Y231486D01*
Y231486D01*
X515539D01*
X515449Y231523D01*
X515404Y231505D01*
X515358Y231517D01*
X515305Y231486D01*
X510695D01*
X510642Y231517D01*
X510596Y231505D01*
X510551Y231523D01*
X510461Y231486D01*
X509939D01*
Y231486D01*
X509439Y231410D01*
X509242Y231449D01*
X509078Y231991D01*
X510439Y233353D01*
X510808Y233692D01*
X510874Y233791D01*
X511900Y234578D01*
X513203Y235118D01*
X514548Y235295D01*
X514602Y235284D01*
X516358D01*
X516420Y235257D01*
X516590Y235252D01*
X516715Y235241D01*
X516809Y235226D01*
X516825Y235221D01*
Y234231D01*
X521175D01*
Y238581D01*
D02*
G37*
G36*
X490500Y240988D02*
X489727Y240886D01*
X489006Y240587D01*
X488387Y240113D01*
X487913Y239494D01*
X487614Y238773D01*
X487512Y238000D01*
X487614Y237227D01*
X487913Y236506D01*
X488387Y235887D01*
X489006Y235413D01*
X489727Y235114D01*
X490500Y235012D01*
X491024Y235081D01*
X491143Y235058D01*
X491355Y235101D01*
X491778Y235163D01*
X491800Y235165D01*
X491817Y235163D01*
X492000Y235090D01*
X492078Y235022D01*
X492300Y234691D01*
Y234179D01*
X498224D01*
Y234763D01*
X498655Y235007D01*
X499087Y234765D01*
Y234278D01*
X503437D01*
Y238628D01*
X499087D01*
Y238061D01*
X499065Y238021D01*
X499062Y237985D01*
X499041Y237972D01*
X498960Y237940D01*
X498833Y237906D01*
X498662Y237878D01*
X498450Y237859D01*
X498182Y237852D01*
X498146Y237836D01*
X497943Y237829D01*
X494294D01*
X494258Y237849D01*
X494152Y237860D01*
X494104Y237875D01*
X494043Y237907D01*
X493965Y237965D01*
X493872Y238056D01*
X493769Y238184D01*
X493658Y238351D01*
X493543Y238557D01*
X493427Y238801D01*
X493305Y239096D01*
X493215Y239187D01*
X493087Y239494D01*
X492613Y240113D01*
X491994Y240587D01*
X491273Y240886D01*
X490500Y240988D01*
D02*
G37*
G36*
X517433Y220123D02*
X517344Y220085D01*
X516825D01*
Y219992D01*
X516475Y219792D01*
X516061Y219986D01*
Y219986D01*
X515539D01*
X515449Y220023D01*
X515404Y220005D01*
X515358Y220017D01*
X515305Y219986D01*
X512892D01*
Y217014D01*
X515305D01*
X515358Y216983D01*
X515404Y216995D01*
X515449Y216977D01*
X515539Y217014D01*
X516061D01*
Y217014D01*
X516099Y217032D01*
X516536Y216792D01*
X516151Y216485D01*
X516000Y216515D01*
X515420Y216400D01*
X514929Y216071D01*
X514600Y215580D01*
X514485Y215000D01*
X514600Y214420D01*
X514825Y214084D01*
X514867Y213965D01*
X514881Y213948D01*
X514882Y213947D01*
X514883Y213946D01*
X514884Y213945D01*
X514888Y213937D01*
X514890Y213935D01*
X514893Y213930D01*
X514896Y213929D01*
X514896Y213928D01*
X514900Y213925D01*
X514914Y213916D01*
X514914Y213915D01*
X514972Y213474D01*
X515255Y212791D01*
X515705Y212205D01*
X515695Y212195D01*
X516007Y211955D01*
X516088Y211893D01*
X516119Y211870D01*
X516193Y211751D01*
X516348Y211642D01*
X516469Y211546D01*
X516571Y211456D01*
X516651Y211374D01*
X516712Y211302D01*
X516754Y211242D01*
X516779Y211195D01*
X516792Y211162D01*
X516797Y211142D01*
X516802Y211080D01*
X516825Y211034D01*
Y209829D01*
X521175D01*
Y214179D01*
X517823D01*
X517774Y214207D01*
X517448Y214651D01*
X517449Y214666D01*
X517515Y215000D01*
X517468Y215235D01*
X517851Y215735D01*
X521175D01*
Y220085D01*
X517569D01*
X517509Y220119D01*
X517470Y220108D01*
X517433Y220123D01*
D02*
G37*
%LPD*%
G36*
X516025Y250854D02*
X515997Y250756D01*
X515984Y250655D01*
Y250550D01*
X515997Y250442D01*
X516025Y250330D01*
X516066Y250215D01*
X516121Y250097D01*
X516189Y249975D01*
X516272Y249850D01*
X514679Y249611D01*
X514290Y250532D01*
X516066Y250949D01*
X516025Y250854D01*
D02*
G37*
G36*
X521001Y245200D02*
X519800Y243999D01*
X519783Y244043D01*
X519732Y244117D01*
X519648Y244223D01*
X519192Y244725D01*
X518110Y245829D01*
X519171Y246890D01*
X521001Y245200D01*
D02*
G37*
G36*
X517437Y235406D02*
X517427Y235501D01*
X517397Y235586D01*
X517347Y235661D01*
X517277Y235726D01*
X517187Y235781D01*
X517077Y235826D01*
X516947Y235861D01*
X516797Y235886D01*
X516627Y235901D01*
X516437Y235906D01*
Y236906D01*
X516627Y236911D01*
X516797Y236926D01*
X516947Y236951D01*
X517077Y236986D01*
X517187Y237031D01*
X517277Y237086D01*
X517347Y237151D01*
X517397Y237226D01*
X517427Y237311D01*
X517437Y237406D01*
Y235406D01*
D02*
G37*
G36*
X510951Y235625D02*
X510921Y235584D01*
X510895Y235542D01*
X510872Y235500D01*
X510853Y235458D01*
X510837Y235416D01*
X510825Y235374D01*
X510816Y235332D01*
X510811Y235289D01*
X510809Y235246D01*
X509809D01*
X509807Y235289D01*
X509802Y235332D01*
X509793Y235374D01*
X509781Y235416D01*
X509765Y235458D01*
X509746Y235500D01*
X509723Y235542D01*
X509697Y235584D01*
X509667Y235625D01*
X509634Y235666D01*
X510984D01*
X510951Y235625D01*
D02*
G37*
G36*
X510551Y230511D02*
X511413Y230500D01*
Y229500D01*
X511079Y229499D01*
X510551Y229468D01*
Y229126D01*
X510541Y229197D01*
X510511Y229261D01*
X510461Y229317D01*
X510391Y229365D01*
X510301Y229406D01*
X510191Y229440D01*
X510165Y229446D01*
X509649Y229415D01*
X509574Y229393D01*
X509530Y229368D01*
Y230632D01*
X509574Y230607D01*
X509649Y230585D01*
X509756Y230565D01*
X509896Y230548D01*
X510078Y230537D01*
X510191Y230560D01*
X510301Y230593D01*
X510391Y230635D01*
X510461Y230683D01*
X510511Y230739D01*
X510541Y230803D01*
X510551Y230874D01*
Y230511D01*
D02*
G37*
G36*
X515459Y230803D02*
X515489Y230739D01*
X515539Y230683D01*
X515609Y230635D01*
X515699Y230593D01*
X515809Y230560D01*
X515939Y230534D01*
X516089Y230515D01*
X516259Y230504D01*
X516449Y230500D01*
Y229500D01*
X516259Y229496D01*
X515939Y229466D01*
X515809Y229440D01*
X515699Y229406D01*
X515609Y229365D01*
X515539Y229317D01*
X515489Y229261D01*
X515459Y229197D01*
X515449Y229126D01*
Y230874D01*
X515459Y230803D01*
D02*
G37*
G36*
X517437Y229005D02*
X517436Y229100D01*
X517424Y229260D01*
X517414Y229325D01*
X517401Y229379D01*
X517385Y229424D01*
X517366Y229458D01*
X517345Y229482D01*
X517320Y229496D01*
X517293Y229500D01*
Y230500D01*
X517320Y230506D01*
X517345Y230522D01*
X517366Y230548D01*
X517385Y230584D01*
X517401Y230630D01*
X517414Y230685D01*
X517424Y230751D01*
X517431Y230826D01*
X517437Y231007D01*
Y229005D01*
D02*
G37*
G36*
X506314Y209873D02*
X506329Y209703D01*
X506354Y209553D01*
X506389Y209423D01*
X506434Y209313D01*
X506489Y209223D01*
X506554Y209153D01*
X506629Y209103D01*
X506714Y209073D01*
X506809Y209063D01*
X504809D01*
X504904Y209073D01*
X504989Y209103D01*
X505064Y209153D01*
X505129Y209223D01*
X505184Y209313D01*
X505229Y209423D01*
X505264Y209553D01*
X505289Y209703D01*
X505304Y209873D01*
X505309Y210063D01*
X506309D01*
X506314Y209873D01*
D02*
G37*
G36*
X504258Y208419D02*
X505003Y208409D01*
Y207409D01*
X504669Y207408D01*
X504264Y207381D01*
X505727Y205949D01*
X505644Y206006D01*
X505539Y206039D01*
X505410Y206047D01*
X505258Y206030D01*
X505083Y205988D01*
X504885Y205922D01*
X504664Y205831D01*
X504153Y205575D01*
X503863Y205410D01*
X503402Y206297D01*
X503632Y206439D01*
X503996Y206699D01*
X504130Y206819D01*
X504231Y206932D01*
X504253Y206964D01*
X504248Y207004D01*
X504218Y207089D01*
X504168Y207164D01*
X504097Y207229D01*
X504005Y207284D01*
X503894Y207329D01*
X503815Y207350D01*
X503168Y207307D01*
X503126Y207283D01*
Y208536D01*
X503168Y208512D01*
X503242Y208491D01*
X503348Y208472D01*
X503487Y208455D01*
X503696Y208443D01*
X503763Y208454D01*
X503894Y208489D01*
X504005Y208534D01*
X504097Y208589D01*
X504168Y208654D01*
X504218Y208729D01*
X504248Y208814D01*
X504258Y208909D01*
Y208419D01*
D02*
G37*
G36*
X497187Y205393D02*
X497217Y205330D01*
X497267Y205274D01*
X497337Y205225D01*
X497427Y205184D01*
X497537Y205150D01*
X497667Y205124D01*
X497817Y205105D01*
X497987Y205094D01*
X498177Y205090D01*
Y204091D01*
X497987Y204087D01*
X497667Y204057D01*
X497537Y204031D01*
X497427Y203997D01*
X497337Y203956D01*
X497267Y203907D01*
X497217Y203851D01*
X497187Y203788D01*
X497177Y203717D01*
Y205464D01*
X497187Y205393D01*
D02*
G37*
G36*
X499150Y201252D02*
X499138Y201295D01*
X499124Y201367D01*
X499122Y201395D01*
X499124Y201417D01*
X499129Y201433D01*
X499137Y201445D01*
X499149Y201451D01*
X499163Y201451D01*
X499182Y201447D01*
X499739Y202293D01*
X499725Y202301D01*
X499717Y202309D01*
X499712Y202317D01*
X499713Y202324D01*
X499718Y202332D01*
X499728Y202339D01*
X499743Y202346D01*
X499763Y202353D01*
X499787Y202360D01*
X499816Y202367D01*
X499150Y201252D01*
D02*
G37*
G36*
X497187Y202834D02*
X497217Y202771D01*
X497267Y202715D01*
X497337Y202666D01*
X497427Y202625D01*
X497537Y202591D01*
X497667Y202565D01*
X497817Y202547D01*
X497987Y202535D01*
X498177Y202532D01*
Y201532D01*
X497987Y201528D01*
X497667Y201498D01*
X497537Y201472D01*
X497427Y201438D01*
X497337Y201397D01*
X497267Y201348D01*
X497217Y201292D01*
X497187Y201229D01*
X497177Y201158D01*
Y202905D01*
X497187Y202834D01*
D02*
G37*
G36*
X499854Y199554D02*
X499315Y199015D01*
X499152Y198696D01*
X499136Y198739D01*
X499111Y198830D01*
X499108Y198848D01*
X499110Y198860D01*
X499114Y198866D01*
X499121Y198866D01*
X499132Y198859D01*
X499147Y198847D01*
X499315Y199015D01*
X499743Y199853D01*
X499854Y199554D01*
D02*
G37*
G36*
X497187Y200275D02*
X497217Y200212D01*
X497267Y200156D01*
X497337Y200107D01*
X497427Y200066D01*
X497537Y200032D01*
X497667Y200006D01*
X497817Y199987D01*
X497987Y199976D01*
X498177Y199972D01*
Y198972D01*
X497987Y198969D01*
X497667Y198939D01*
X497537Y198913D01*
X497427Y198879D01*
X497337Y198838D01*
X497267Y198789D01*
X497217Y198733D01*
X497187Y198670D01*
X497177Y198599D01*
Y200346D01*
X497187Y200275D01*
D02*
G37*
%LPC*%
G36*
X504263Y207381D02*
X504258Y207380D01*
Y206973D01*
X504301Y207037D01*
X504338Y207135D01*
X504344Y207226D01*
X504317Y207310D01*
X504263Y207381D01*
D02*
G37*
%LPD*%
G36*
X492833Y238537D02*
X492966Y238259D01*
X493103Y238013D01*
X493245Y237800D01*
X493391Y237619D01*
X493541Y237470D01*
X493697Y237355D01*
X493856Y237272D01*
X494021Y237221D01*
X494189Y237203D01*
X494118Y237084D01*
X494337Y237033D01*
X494681Y236979D01*
X494979Y236960D01*
X495229Y236977D01*
X495432Y237029D01*
X495589Y237118D01*
X492924Y234996D01*
X493024Y235100D01*
X493070Y235212D01*
X493062Y235330D01*
X493001Y235456D01*
X492886Y235588D01*
X492717Y235728D01*
X492545Y235841D01*
X492397Y235844D01*
X491933Y235829D01*
X491702Y235808D01*
X491243Y235741D01*
X491014Y235694D01*
X491649Y236880D01*
X491916Y237841D01*
X492120Y237759D01*
X492705Y238848D01*
X492833Y238537D01*
D02*
G37*
G36*
X499711Y234953D02*
X499696Y235095D01*
X499651Y235223D01*
X499575Y235335D01*
X499469Y235433D01*
X499333Y235515D01*
X499167Y235583D01*
X498970Y235635D01*
X498744Y235673D01*
X498656Y235680D01*
X498569Y235673D01*
X498343Y235635D01*
X498147Y235583D01*
X497980Y235515D01*
X497844Y235433D01*
X497738Y235335D01*
X497662Y235223D01*
X497616Y235095D01*
X497600Y234953D01*
X497612Y237130D01*
X497627Y237144D01*
X497672Y237156D01*
X497747Y237167D01*
X497852Y237176D01*
X498199Y237188D01*
Y237203D01*
X498487Y237210D01*
X498744Y237233D01*
X498970Y237270D01*
X499167Y237323D01*
X499333Y237390D01*
X499469Y237473D01*
X499575Y237570D01*
X499651Y237683D01*
X499696Y237810D01*
X499711Y237953D01*
Y234953D01*
D02*
G37*
G36*
X517449Y217500D02*
X517438Y217595D01*
X517408Y217680D01*
X517357Y217755D01*
X517286Y217820D01*
X517195Y217875D01*
X517083Y217920D01*
X516952Y217955D01*
X516800Y217980D01*
X516629Y217995D01*
X516442Y218000D01*
X516259Y217996D01*
X515939Y217966D01*
X515809Y217940D01*
X515699Y217906D01*
X515609Y217865D01*
X515539Y217817D01*
X515489Y217761D01*
X515459Y217697D01*
X515449Y217626D01*
Y219374D01*
X515459Y219303D01*
X515489Y219239D01*
X515539Y219183D01*
X515609Y219135D01*
X515699Y219093D01*
X515809Y219060D01*
X515939Y219034D01*
X516089Y219015D01*
X516259Y219004D01*
X516442Y219000D01*
X516627Y219005D01*
X516797Y219019D01*
X516947Y219043D01*
X517077Y219076D01*
X517187Y219118D01*
X517277Y219170D01*
X517347Y219232D01*
X517397Y219303D01*
X517427Y219383D01*
X517437Y219473D01*
X517449Y217500D01*
D02*
G37*
G36*
X516622Y214367D02*
X516553Y214278D01*
X516537Y214251D01*
X516523Y214226D01*
X516513Y214203D01*
X516506Y214181D01*
X516502Y214160D01*
X516502Y214141D01*
X515503Y214087D01*
X515500Y214118D01*
X515494Y214149D01*
X515486Y214180D01*
X515475Y214211D01*
X515461Y214242D01*
X515445Y214273D01*
X515426Y214304D01*
X515404Y214335D01*
X515379Y214365D01*
X515352Y214396D01*
X516651Y214400D01*
X516622Y214367D01*
D02*
G37*
G36*
X517449Y211131D02*
X517440Y211243D01*
X517414Y211355D01*
X517370Y211468D01*
X517308Y211582D01*
X517229Y211697D01*
X517132Y211812D01*
X517018Y211928D01*
X516886Y212045D01*
X516736Y212163D01*
X516569Y212281D01*
X516854Y213354D01*
X516967Y213283D01*
X517068Y213233D01*
X517157Y213202D01*
X517235Y213191D01*
X517300Y213200D01*
X517354Y213229D01*
X517395Y213278D01*
X517425Y213346D01*
X517443Y213435D01*
X517449Y213543D01*
Y211131D01*
D02*
G37*
G54D14*
X519000Y236406D02*
D03*
Y230500D02*
D03*
Y217910D02*
D03*
Y212004D02*
D03*
G54D15*
X514476Y230000D02*
D03*
X511524D02*
D03*
Y218500D02*
D03*
X514476D02*
D03*
X589047Y224500D02*
D03*
X592000D02*
D03*
X589047Y221000D02*
D03*
X592000D02*
D03*
X589047Y217500D02*
D03*
X592000D02*
D03*
G54D16*
X537713Y240784D02*
D03*
X539681D02*
D03*
X541650D02*
D03*
X543618D02*
D03*
X545587D02*
D03*
X547555D02*
D03*
X549524D02*
D03*
X551492D02*
D03*
X553461D02*
D03*
X555429D02*
D03*
X557398D02*
D03*
X559366D02*
D03*
X561335D02*
D03*
X563303D02*
D03*
X565272D02*
D03*
X567240D02*
D03*
Y196689D02*
D03*
X565272D02*
D03*
X563303D02*
D03*
X561335D02*
D03*
X559366D02*
D03*
X557398D02*
D03*
X555429D02*
D03*
X553461D02*
D03*
X551492D02*
D03*
X549524D02*
D03*
X547555D02*
D03*
X545587D02*
D03*
X543618D02*
D03*
X541650D02*
D03*
X539681D02*
D03*
X537713D02*
D03*
G54D17*
X574524Y233500D02*
D03*
Y231532D02*
D03*
Y229563D02*
D03*
Y227594D02*
D03*
Y225626D02*
D03*
Y223657D02*
D03*
Y221689D02*
D03*
Y219721D02*
D03*
Y217752D02*
D03*
Y215784D02*
D03*
Y213815D02*
D03*
Y211846D02*
D03*
Y209878D02*
D03*
Y207909D02*
D03*
Y205941D02*
D03*
Y203972D02*
D03*
X530429D02*
D03*
Y205941D02*
D03*
Y207909D02*
D03*
Y209878D02*
D03*
Y211846D02*
D03*
Y213815D02*
D03*
Y215784D02*
D03*
Y217752D02*
D03*
Y219721D02*
D03*
Y221689D02*
D03*
Y223657D02*
D03*
Y225626D02*
D03*
Y227594D02*
D03*
Y229563D02*
D03*
Y231532D02*
D03*
Y233500D02*
D03*
G54D18*
X574571Y196689D02*
D03*
X580476D02*
D03*
X562571Y191500D02*
D03*
X568476D02*
D03*
X505809Y207500D02*
D03*
X511715D02*
D03*
X528071Y241500D02*
D03*
X533976D02*
D03*
G54D19*
X538449Y192500D02*
D03*
X541598D02*
D03*
X575449D02*
D03*
X578598D02*
D03*
X540024Y244500D02*
D03*
X536874D02*
D03*
G54D20*
X618000Y196143D02*
D03*
Y216143D02*
D03*
G54D21*
X525524Y222425D02*
D03*
Y225575D02*
D03*
X524929Y209425D02*
D03*
Y212575D02*
D03*
X579024Y235150D02*
D03*
Y232000D02*
D03*
G54D22*
X495262Y231039D02*
D03*
Y235961D02*
D03*
G54D23*
X483845Y221000D02*
D03*
Y246000D02*
D03*
G54D24*
X501262Y236453D02*
D03*
Y230547D02*
D03*
G54D25*
X484000Y212760D02*
D03*
Y186185D02*
D03*
G54D26*
Y193370D02*
D03*
G54D27*
Y204000D02*
D03*
G54D28*
X494138Y209266D02*
D03*
Y189679D02*
D03*
G54D29*
X494472Y194354D02*
D03*
Y196913D02*
D03*
Y199472D02*
D03*
Y202031D02*
D03*
Y204591D02*
D03*
G54D30*
X502000Y185232D02*
D03*
X527000D02*
D03*
G54D31*
X512039Y196649D02*
D03*
X516961D02*
D03*
G54D32*
X585386Y221000D02*
D03*
X580661Y221000D02*
D03*
G54D33*
X585386Y217961D02*
D03*
Y224039D02*
D03*
X580661Y217961D02*
D03*
Y224039D02*
D03*
G54D57*
X585571Y193195D02*
X586230Y193922D01*
X586815Y194710D01*
X587319Y195552D01*
X587739Y196439D01*
X588069Y197363D01*
X588308Y198315D01*
X588452Y199285D01*
X588500Y200266D01*
X573825Y194888D02*
X574377Y195714D01*
X574571Y196689D01*
X564008Y207492D02*
X563280Y208152D01*
X562492Y208736D01*
X561650Y209241D01*
X560763Y209660D01*
X559839Y209991D01*
X558887Y210229D01*
X557917Y210373D01*
X556936Y210421D01*
X567240Y201092D02*
X567175Y202090D01*
X566980Y203071D01*
X566658Y204019D01*
X566216Y204916D01*
X565660Y205748D01*
X565000Y206500D01*
X537713Y240784D02*
X536919Y241314D01*
X535983Y241500D01*
X536874Y242808D02*
X537092Y241712D01*
X537713Y240784D01*
X538449Y251000D02*
X537780Y250185D01*
X537283Y249256D01*
X536977Y248247D01*
X536874Y247198D01*
X556311Y227000D02*
X557291Y227048D01*
X558261Y227192D01*
X559213Y227431D01*
X560137Y227761D01*
X561025Y228181D01*
X561866Y228685D01*
X562654Y229270D01*
X563382Y229929D01*
X554000Y227000D02*
X554944Y227074D01*
X555865Y227295D01*
X556740Y227658D01*
X557548Y228153D01*
X558268Y228768D01*
X545350Y244500D02*
X544143Y244000D01*
X547568Y248872D02*
X548220Y249849D01*
X548449Y251000D01*
X545793Y244500D02*
X546809Y244702D01*
X547671Y245278D01*
X548247Y246140D01*
X548449Y247156D01*
X519000Y217910D02*
X518347Y218347D01*
X517577Y218500D01*
X517293Y230000D02*
X518500Y230500D01*
X514602Y236406D02*
X513584Y236326D01*
X512592Y236088D01*
X511649Y235698D01*
X510779Y235165D01*
X510003Y234503D01*
X510003Y234503D02*
X510309Y235246D01*
X510000Y234500D02*
X510003Y234503D01*
X507796Y232296D02*
X507105Y231487D01*
X506549Y230579D01*
X506141Y229596D01*
X505893Y228561D01*
X505809Y227500D01*
X498785Y204591D02*
X499759Y204638D01*
X500723Y204781D01*
X501669Y205018D01*
X502587Y205347D01*
X503468Y205764D01*
X504304Y206265D01*
X505087Y206845D01*
X505809Y207500D01*
X505400Y207909D02*
X505809Y208898D01*
X516000Y214207D02*
X516500Y213000D01*
X517204Y212460D01*
X518024Y212120D01*
X518904Y212004D01*
X575041Y233500D02*
X576140Y233608D01*
X577196Y233929D01*
X578170Y234449D01*
X579024Y235150D01*
X555366Y184000D02*
X556073Y184828D01*
X556642Y185756D01*
X557058Y186761D01*
X557312Y187820D01*
X557398Y188905D01*
X562232Y185768D02*
X562952Y185153D01*
X563760Y184658D01*
X564635Y184295D01*
X565556Y184074D01*
X566500Y184000D01*
X559366Y189530D02*
X559531Y188702D01*
X560000Y188000D01*
X577892Y231532D02*
X579024Y232000D01*
X555365Y225047D02*
X554769Y226083D01*
X554000Y227000D01*
X556000Y222172D02*
X555929Y223157D01*
X555715Y224122D01*
X555365Y225047D01*
X547555Y228500D02*
X548331Y227863D01*
X549217Y227390D01*
X550177Y227098D01*
X551176Y227000D01*
X549922D02*
X548833Y226914D01*
X547771Y226659D01*
X546762Y226241D01*
X545830Y225671D01*
X545000Y224961D01*
X547096Y211000D02*
X547737Y210572D01*
X548492Y210421D01*
X541650Y217493D02*
X541842Y216526D01*
X542389Y215706D01*
X530500Y235500D02*
X530429Y235329D01*
X575449Y194569D02*
X575221Y195717D01*
X574571Y196689D01*
X543496Y223457D02*
X542853Y222705D01*
X542337Y221862D01*
X541958Y220948D01*
X541727Y219986D01*
X541650Y219000D01*
X571095Y233500D02*
X570115Y233452D01*
X569144Y233308D01*
X568192Y233069D01*
X567268Y232739D01*
X566381Y232319D01*
X565539Y231815D01*
X564751Y231230D01*
X564024Y230571D01*
X541650Y225708D02*
X541602Y226688D01*
X541457Y227659D01*
X541219Y228611D01*
X540888Y229535D01*
X540469Y230422D01*
X539964Y231264D01*
X539380Y232052D01*
X538721Y232779D01*
X579739Y223657D02*
X580661Y224039D01*
X577524Y221500D02*
X577067Y221689D01*
X577524Y221500D02*
X578731Y221000D01*
X577524Y219000D02*
X578259Y218436D01*
X579114Y218082D01*
X580033Y217961D01*
X577524Y219000D02*
X576726Y219533D01*
X575784Y219721D01*
X562571Y191500D02*
X563113Y192311D01*
X563303Y193268D01*
X538449Y192500D02*
X539117Y193371D01*
X539538Y194386D01*
X539681Y195475D01*
X541598Y192500D02*
X541650Y192624D01*
X526022Y209878D02*
X524929Y209425D01*
X525524Y222425D02*
X526339Y221880D01*
X527301Y221689D01*
X541650Y201500D02*
X541586Y202468D01*
X541397Y203419D01*
X541085Y204337D01*
X540656Y205207D01*
X540118Y206013D01*
X539478Y206743D01*
X538721Y207500D02*
X537922Y208200D01*
X537039Y208790D01*
X536087Y209260D01*
X535081Y209601D01*
X534039Y209808D01*
X532980Y209878D01*
X499500Y199200D02*
X498843Y199472D01*
X500000Y201500D02*
X498717Y202031D01*
X524460Y201500D02*
X525405Y201553D01*
X526338Y201712D01*
X527248Y201974D01*
X528123Y202336D01*
X528951Y202794D01*
X529723Y203342D01*
X530429Y203972D01*
X512906Y198742D02*
X512264Y197782D01*
X512039Y196649D01*
X518017Y201500D02*
X516909Y201391D01*
X515843Y201067D01*
X514861Y200542D01*
X514000Y199836D01*
X509502Y182734D02*
X510150Y183459D01*
X510712Y184252D01*
X511182Y185102D01*
X511553Y186000D01*
X511822Y186934D01*
X511985Y187892D01*
X512039Y188862D01*
X515286Y186175D02*
X514182Y186066D01*
X513121Y185744D01*
X512144Y185222D01*
X511287Y184519D01*
X516961Y188862D02*
X517015Y187892D01*
X517178Y186933D01*
X517447Y185999D01*
X517819Y185101D01*
X518290Y184250D01*
X518852Y183457D01*
X519500Y182732D01*
X555366Y233134D02*
X554545Y233835D01*
X553624Y234400D01*
X552627Y234813D01*
X551577Y235065D01*
X550500Y235150D01*
X543101Y236080D02*
X544132Y235391D01*
X545348Y235150D01*
X541650Y239585D02*
X541745Y238618D01*
X542027Y237688D01*
X542485Y236831D01*
X543101Y236080D01*
X544143Y244000D02*
X543618Y242733D01*
X569380Y240784D02*
X570296Y240856D01*
X571191Y241070D01*
X572040Y241422D01*
X572824Y241903D01*
X573524Y242500D01*
X583524D02*
X582887Y241724D01*
X582413Y240839D01*
X582122Y239878D01*
X582024Y238879D01*
X580469Y229563D02*
X581524Y230000D01*
X582024Y231207D01*
X499500Y199200D02*
X499984Y199000D01*
X572500Y193563D02*
X573825Y194888D01*
X575449Y192500D02*
Y194569D01*
X585000Y192624D02*
X585571Y193195D01*
X588500Y200266D02*
Y201092D01*
X548492Y210421D02*
X556936D01*
X567240Y196689D02*
Y201092D01*
Y196689D02*
X574571D01*
X564008Y207492D02*
X565000Y206500D01*
X533976Y241500D02*
X535983D01*
X536874Y244500D02*
Y247198D01*
Y242808D02*
Y244500D01*
X538497Y251000D02*
Y251467D01*
X558268Y228768D02*
X558500Y229000D01*
X545350Y244500D02*
X545793D01*
X548449Y247156D02*
Y251000D01*
X514476Y218500D02*
X517577D01*
X514476Y230000D02*
X517293D01*
X514602Y236406D02*
X519000D01*
X507796Y232296D02*
X510000Y234500D01*
X510309Y235246D02*
Y236240D01*
X505809Y208898D02*
Y227500D01*
X516000Y214207D02*
Y215000D01*
X508910Y230000D02*
X511524D01*
X502500Y207909D02*
X505400D01*
X505809Y207500D01*
X518904Y212004D02*
X519000D01*
X571095Y233500D02*
X574524D01*
X575041D01*
X557398Y188905D02*
Y196689D01*
X560000Y188000D02*
X562232Y185768D01*
X559366Y189530D02*
Y196689D01*
X556000Y220000D02*
Y222172D01*
X574524Y231532D02*
X577892D01*
X551176Y227000D02*
X554000D01*
X556311D01*
X549922D02*
X551176D01*
X542389Y215706D02*
X547096Y211000D01*
X541650Y217493D02*
Y219000D01*
Y201500D02*
Y217493D01*
X543496Y223457D02*
X545000Y224961D01*
X530429Y233500D02*
Y235329D01*
X541650Y219000D02*
Y225708D01*
X563382Y229929D02*
X564024Y230571D01*
X534000Y237500D02*
X538721Y232779D01*
X574524Y223657D02*
X579739D01*
X578731Y221000D02*
X580661D01*
X574524Y221689D02*
X577067D01*
X574524Y219721D02*
X575784D01*
X563303Y193268D02*
Y196689D01*
X539681Y195475D02*
Y196689D01*
X541650D02*
Y201500D01*
Y192624D02*
Y196689D01*
X530429Y209878D02*
X532980D01*
X526022D02*
X530429D01*
X527301Y221689D02*
X530429D01*
X538721Y207500D02*
X539478Y206743D01*
X494472Y204591D02*
X498785D01*
X494472Y199472D02*
X498843D01*
X494472Y202031D02*
X498717D01*
X518017Y201500D02*
X524460D01*
X512906Y198742D02*
X514000Y199836D01*
X512039Y188862D02*
Y196649D01*
X516961Y188862D02*
Y196649D01*
X537713D01*
Y196689D01*
X509502Y182734D02*
X511287Y184519D01*
X509500Y182732D02*
X509502Y182734D01*
X555366Y233134D02*
X555500Y233000D01*
X541650Y239585D02*
Y240784D01*
X545348Y235150D02*
X550500D01*
X543618Y240784D02*
Y242733D01*
X567240Y240784D02*
X569380D01*
X574524Y229563D02*
X580469D01*
X582024Y231207D02*
Y238879D01*
X580033Y217961D02*
X580661D01*
G54D58*
X571065Y205941D02*
X570000Y205500D01*
X571000Y201780D02*
X571832Y201890D01*
X572607Y202211D01*
X573273Y202721D01*
X570000Y214000D02*
X570447Y213815D01*
X549164Y206740D02*
X548075Y206406D01*
X547287Y205584D01*
X547000Y204482D01*
X549261Y206743D02*
X549164Y206740D01*
X546500Y202500D02*
X545824Y201488D01*
X545587Y200295D01*
X549524Y193124D02*
X549575Y193000D01*
X555071Y215929D02*
X555798Y215270D01*
X556586Y214685D01*
X557428Y214181D01*
X558315Y213761D01*
X559239Y213431D01*
X560191Y213192D01*
X561162Y213048D01*
X562142Y213000D01*
X551492Y200295D02*
X551390Y201337D01*
X551085Y202339D01*
X550592Y203263D01*
X549927Y204073D01*
X548500Y200500D02*
X547987Y199832D01*
X547665Y199054D01*
X547555Y198219D01*
X565804Y225626D02*
X565500Y225500D01*
X549500Y201000D02*
X548646Y200646D01*
X586498Y224500D02*
X585386Y224039D01*
Y217961D02*
X586498Y217500D01*
X571065Y205941D02*
X574524D01*
X573273Y202721D02*
X574524Y203972D01*
X549261Y206743D02*
X559366D01*
X562142Y213000D02*
X566000D01*
X570447Y213815D02*
X574524D01*
X547000Y203000D02*
Y204482D01*
X546500Y202500D02*
X547000Y203000D01*
X549524Y193124D02*
Y196689D01*
X548000Y223000D02*
X555071Y215929D01*
X548500Y200500D02*
X548646Y200646D01*
X551492Y196689D02*
Y200295D01*
X549500Y204500D02*
X549927Y204073D01*
X565804Y225626D02*
X574524D01*
X547555Y196689D02*
Y198219D01*
X545587Y196689D02*
Y200295D01*
X586498Y224500D02*
X589047D01*
X585386Y221000D02*
X589047D01*
X586498Y217500D02*
X589047D01*
G54D59*
X490500Y238000D02*
X491300Y237343D01*
X492214Y236855D01*
X493205Y236554D01*
X494235Y236453D01*
X515000Y251500D02*
X515123Y250563D01*
X515485Y249689D01*
X516061Y248939D01*
X494235Y236453D02*
X501262D01*
X516061Y248939D02*
X521000Y244000D01*
X533976Y241500D02*
X534000Y241476D01*
Y237500D02*
Y241476D01*
G54D60*
X583524Y242500D02*
D03*
X576500Y184000D02*
D03*
X555366D02*
D03*
X566500D02*
D03*
X490500Y228000D02*
D03*
Y238000D02*
D03*
X509500Y182732D02*
D03*
X519500D02*
D03*
G54D61*
X573524Y242500D02*
D03*
G54D62*
X523748Y251000D02*
D03*
X538449D02*
D03*
X548449D02*
D03*
X558449D02*
D03*
G54D63*
X584000Y196683D02*
D03*
X585000Y192624D02*
D03*
X588500Y201092D02*
D03*
X570000Y205500D02*
D03*
X571000Y201780D02*
D03*
X570000Y214000D02*
D03*
X566000Y213000D02*
D03*
X559366Y206743D02*
D03*
X510309Y236240D02*
D03*
X516000Y215000D02*
D03*
X508910Y230000D02*
D03*
X502500Y207909D02*
D03*
X551000Y214500D02*
D03*
X556000Y220000D02*
D03*
X549500Y204500D02*
D03*
X565500Y225500D02*
D03*
X558500Y229000D02*
D03*
X547555Y228500D02*
D03*
X548000Y223000D02*
D03*
X549500Y201000D02*
D03*
X547000Y203000D02*
D03*
X549575Y193000D02*
D03*
X493500Y217000D02*
D03*
X590000Y238500D02*
D03*
X572000Y189500D02*
D03*
X532500Y192624D02*
D03*
X524929Y218000D02*
D03*
X536500Y229000D02*
D03*
X525000Y244500D02*
D03*
X572500Y193563D02*
D03*
X499984Y199000D02*
D03*
X500000Y201500D02*
D03*
X515286Y186175D02*
D03*
X555500Y233000D02*
D03*
X507371Y238000D02*
D03*
G54D64*
X521000Y244000D02*
D03*
X515000Y251500D02*
D03*
X530500Y235500D02*
D03*
X534000Y237500D02*
D03*
M02*
