G04*
G04 #@! TF.GenerationSoftware,Altium Limited,Altium Designer,20.1.14 (287)*
G04*
G04 Layer_Color=16777215*
%FSLAX25Y25*%
%MOIN*%
G70*
G04*
G04 #@! TF.SameCoordinates,2AB0D3F0-F82E-4911-9630-DE43A68CCE8E*
G04*
G04*
G04 #@! TF.FilePolarity,Positive*
G04*
G01*
G75*
%ADD10C,0.00984*%
%ADD11C,0.00394*%
%ADD12C,0.02362*%
%ADD13C,0.00787*%
%ADD14C,0.00500*%
G54D10*
X-159323Y27423D02*
X-160061Y27849D01*
Y26997D01*
X-159323Y27423D01*
X-134121Y41849D02*
X-134859Y42275D01*
Y41423D01*
X-134121Y41849D01*
X-192289Y10218D02*
X-193027Y10644D01*
Y9792D01*
X-192289Y10218D01*
X-58487Y5749D02*
X-59225Y6175D01*
Y5323D01*
X-58487Y5749D01*
X-197448Y-44698D02*
X-198186Y-44272D01*
Y-45124D01*
X-197448Y-44698D01*
X-201189Y-22651D02*
X-201927Y-22225D01*
Y-23077D01*
X-201189Y-22651D01*
X-144259Y-12572D02*
X-144997Y-12146D01*
Y-12998D01*
X-144259Y-12572D01*
X-67224Y-11605D02*
X-67962Y-11179D01*
Y-12031D01*
X-67224Y-11605D01*
X-68833Y-25191D02*
X-69571Y-24765D01*
Y-25617D01*
X-68833Y-25191D01*
G54D11*
X-35928Y-15389D02*
D03*
X-176090Y-16896D02*
D03*
X-172786Y-29528D02*
D03*
X-156644Y-44159D02*
D03*
G54D12*
X-74409Y-8357D02*
X-74854Y-7434D01*
X-75853Y-7205D01*
X-76654Y-7844D01*
Y-8869D01*
X-75853Y-9508D01*
X-74854Y-9280D01*
X-74409Y-8357D01*
X-72987Y-33163D02*
X-73431Y-32240D01*
X-74431Y-32012D01*
X-75232Y-32651D01*
Y-33676D01*
X-74431Y-34315D01*
X-73431Y-34087D01*
X-72987Y-33163D01*
G54D13*
X-157256Y25553D02*
Y28014D01*
X-154795D01*
X-138850D02*
X-136390D01*
Y25553D02*
Y28014D01*
Y7147D02*
Y9608D01*
X-138850Y7147D02*
X-136390D01*
X-157256D02*
Y9608D01*
Y7147D02*
X-154795D01*
X-127625Y28759D02*
Y40963D01*
X-131562Y28759D02*
Y40963D01*
Y28759D02*
X-127625D01*
X-131562Y40963D02*
X-127625D01*
X-189533Y9332D02*
X-185596D01*
X-189533Y-2872D02*
X-185596D01*
X-189533D02*
Y9332D01*
X-185596Y-2872D02*
Y9332D01*
X-19796Y4575D02*
Y5425D01*
Y-5425D02*
Y-4575D01*
Y-14575D02*
X-4442D01*
X-19796Y14575D02*
X-4442D01*
X-40455Y-15783D02*
X-37306D01*
X-36518Y-16570D01*
Y-29168D02*
Y-16570D01*
X-53054Y-29168D02*
X-36518D01*
X-53054D02*
Y-15783D01*
X-40455D01*
X-56420Y-10590D02*
X-53959D01*
X-56420D02*
Y-8129D01*
X-41951Y-10590D02*
X-39491D01*
Y-8129D01*
Y3879D02*
Y6339D01*
X-41951D02*
X-39491D01*
X-56420D02*
X-53959D01*
X-56420Y3879D02*
Y6339D01*
X-156469Y-18714D02*
X-155583D01*
X-156469Y-11627D02*
X-155583D01*
X-151843Y-18714D02*
X-150957D01*
X-151843Y-11627D02*
X-150957D01*
X-156469Y-18714D02*
Y-11627D01*
X-150957Y-18714D02*
Y-11627D01*
X-155288Y-16745D02*
X-152139D01*
X-189476Y-33431D02*
Y-18471D01*
X-176287Y-33431D02*
Y-18471D01*
X-189476Y-33431D02*
X-188886D01*
X-176878D02*
X-176287D01*
X-189476Y-18471D02*
X-188886D01*
X-176878D02*
X-176287D01*
X-172983Y-27953D02*
X-172392D01*
X-160385D02*
X-159794D01*
X-172983Y-12993D02*
X-172392D01*
X-160385D02*
X-159794D01*
X-172983Y-27953D02*
Y-12993D01*
X-159794Y-27953D02*
Y-12993D01*
X-178354Y-14383D02*
Y-11233D01*
X-183472Y-10052D02*
X-176386D01*
X-183472Y-15564D02*
X-176386D01*
X-183472Y-10938D02*
Y-10052D01*
X-176386Y-10938D02*
Y-10052D01*
X-183472Y-15564D02*
Y-14678D01*
X-176386Y-15564D02*
Y-14678D01*
X-158416Y-44159D02*
Y-43471D01*
Y-31463D02*
Y-30774D01*
X-171802Y-44159D02*
Y-43471D01*
Y-31463D02*
Y-30774D01*
X-160995Y-44159D02*
X-158416D01*
X-171802D02*
X-169223D01*
X-160995Y-30774D02*
X-158416D01*
X-171802D02*
X-169223D01*
X-156740Y-41010D02*
Y-37860D01*
X-147213Y-41010D02*
Y-37860D01*
X-197054Y-41647D02*
Y-36135D01*
X-193609D01*
X-184850Y-41647D02*
Y-36135D01*
X-188295D02*
X-184850D01*
X-198827Y-23832D02*
X-196464D01*
X-198827Y-32493D02*
X-196464D01*
X-198827D02*
Y-23832D01*
X-196464Y-32493D02*
Y-23832D01*
X-142192Y-25367D02*
X-141405D01*
X-142192D02*
Y-24580D01*
X-129594Y-25367D02*
X-128806D01*
Y-24580D01*
Y-12769D02*
Y-11982D01*
X-129594D02*
X-128806D01*
X-142192D02*
X-141405D01*
X-142192Y-12769D02*
Y-11982D01*
X-71653Y-12294D02*
Y23927D01*
X-107873Y-12294D02*
Y23927D01*
Y-12294D02*
X-71653D01*
X-107873Y23927D02*
X-71653D01*
X-89916Y-41825D02*
Y-29226D01*
X-70231Y-41825D02*
Y-29226D01*
X-89916Y-41825D02*
X-70231D01*
X-89916Y-29226D02*
X-70231D01*
G54D14*
X-120264Y9565D02*
X-119083Y11534D01*
X-120264Y9565D02*
X-119083Y9171D01*
X-120264Y11140D02*
X-119083Y9171D01*
X-120855Y10943D02*
X-120264Y11140D01*
X-120855Y10943D02*
X-119083Y9171D01*
X-120855Y9762D02*
X-119083Y9171D01*
X-120855Y9762D02*
X-119083Y11534D01*
X-122626Y10352D02*
X-118296D01*
X-120658Y9959D02*
X-119083Y10352D01*
X-120658Y10746D02*
X-119083Y10352D01*
X-122626Y10352D02*
X-120658Y10746D01*
X-122626Y10352D02*
X-120658Y9959D01*
Y10746D01*
X-126170Y10352D02*
X-122626D01*
X-119083Y10352D02*
X-115934Y10352D01*
X-122626D02*
X-119083Y11534D01*
X-122626Y10352D02*
X-119083Y9171D01*
Y11534D01*
X-126170Y-2640D02*
Y8384D01*
Y-2640D02*
X-115934D01*
Y8384D01*
X-126170D02*
X-115934D01*
X-193134Y18116D02*
X-193550Y18532D01*
X-194384D01*
X-194800Y18116D01*
Y16450D01*
X-194384Y16033D01*
X-193550D01*
X-193134Y16450D01*
X-192301Y18532D02*
Y16033D01*
Y17283D01*
X-191884Y17699D01*
X-191051D01*
X-190635Y17283D01*
Y16033D01*
X-189385Y17699D02*
X-188552D01*
X-188136Y17283D01*
Y16033D01*
X-189385D01*
X-189802Y16450D01*
X-189385Y16866D01*
X-188136D01*
X-187302Y17699D02*
Y16033D01*
Y16866D01*
X-186886Y17283D01*
X-186469Y17699D01*
X-186053D01*
X-183970Y15200D02*
X-183554D01*
X-183137Y15617D01*
Y17699D01*
X-184387D01*
X-184803Y17283D01*
Y16450D01*
X-184387Y16033D01*
X-183137D01*
X-182304D02*
X-181471D01*
X-181887D01*
Y17699D01*
X-182304D01*
X-180221Y16033D02*
Y17699D01*
X-178972D01*
X-178555Y17283D01*
Y16033D01*
X-176889Y15200D02*
X-176473D01*
X-176056Y15617D01*
Y17699D01*
X-177306D01*
X-177722Y17283D01*
Y16450D01*
X-177306Y16033D01*
X-176056D01*
X-56634Y-44717D02*
X-57050Y-44301D01*
X-57884D01*
X-58300Y-44717D01*
Y-46384D01*
X-57884Y-46800D01*
X-57050D01*
X-56634Y-46384D01*
Y-45550D01*
X-57467D01*
X-55801Y-46800D02*
Y-44301D01*
X-54135Y-46800D01*
Y-44301D01*
X-53302D02*
Y-46800D01*
X-52052D01*
X-51635Y-46384D01*
Y-44717D01*
X-52052Y-44301D01*
X-53302D01*
X-112601Y-22104D02*
X-113101Y-21604D01*
X-114100D01*
X-114600Y-22104D01*
Y-24103D01*
X-114100Y-24603D01*
X-113101D01*
X-112601Y-24103D01*
X-111601Y-21604D02*
Y-24603D01*
X-109602D01*
X-108602Y-21604D02*
Y-24603D01*
Y-23603D01*
X-106603Y-21604D01*
X-108102Y-23103D01*
X-106603Y-24603D01*
X-111034Y-46917D02*
X-111450Y-46501D01*
X-112284D01*
X-112700Y-46917D01*
Y-48583D01*
X-112284Y-49000D01*
X-111450D01*
X-111034Y-48583D01*
Y-47750D01*
X-111867D01*
X-110201Y-49000D02*
Y-46501D01*
X-108951D01*
X-108535Y-46917D01*
Y-47750D01*
X-108951Y-48167D01*
X-110201D01*
X-107702Y-49000D02*
X-106869D01*
X-107285D01*
Y-46501D01*
X-107702Y-46917D01*
X-125100Y-21604D02*
Y-24603D01*
X-123600D01*
X-123101Y-24103D01*
Y-22104D01*
X-123600Y-21604D01*
X-125100D01*
X-122101D02*
X-121101D01*
X-121601D01*
Y-24603D01*
X-122101D01*
X-121101D01*
X-118102Y-21604D02*
X-119102D01*
X-119602Y-22104D01*
Y-24103D01*
X-119102Y-24603D01*
X-118102D01*
X-117602Y-24103D01*
Y-22104D01*
X-118102Y-21604D01*
X-106734Y-28617D02*
X-107150Y-28201D01*
X-107984D01*
X-108400Y-28617D01*
Y-30283D01*
X-107984Y-30700D01*
X-107150D01*
X-106734Y-30283D01*
Y-29450D01*
X-107567D01*
X-105901Y-30700D02*
Y-28201D01*
X-104651D01*
X-104235Y-28617D01*
Y-29450D01*
X-104651Y-29867D01*
X-105901D01*
X-103402Y-28617D02*
X-102985Y-28201D01*
X-102152D01*
X-101735Y-28617D01*
Y-29034D01*
X-102152Y-29450D01*
X-102569D01*
X-102152D01*
X-101735Y-29867D01*
Y-30283D01*
X-102152Y-30700D01*
X-102985D01*
X-103402Y-30283D01*
X-114834Y42183D02*
X-115250Y42599D01*
X-116084D01*
X-116500Y42183D01*
Y40516D01*
X-116084Y40100D01*
X-115250D01*
X-114834Y40516D01*
Y41350D01*
X-115667D01*
X-114001Y40100D02*
Y42599D01*
X-112751D01*
X-112335Y42183D01*
Y41350D01*
X-112751Y40933D01*
X-114001D01*
X-109836Y42599D02*
X-110669Y42183D01*
X-111502Y41350D01*
Y40516D01*
X-111085Y40100D01*
X-110252D01*
X-109836Y40516D01*
Y40933D01*
X-110252Y41350D01*
X-111502D01*
X-53459Y43016D02*
Y40516D01*
Y41766D01*
X-51793D01*
Y43016D01*
Y40516D01*
X-50960Y43016D02*
Y41350D01*
X-50127Y40516D01*
X-49294Y41350D01*
Y43016D01*
X-48461Y40100D02*
X-46795D01*
X-45961Y43016D02*
Y40516D01*
X-44712D01*
X-44295Y40933D01*
Y41350D01*
X-44712Y41766D01*
X-45961D01*
X-44712D01*
X-44295Y42183D01*
Y42599D01*
X-44712Y43016D01*
X-45961D01*
X-43462Y40516D02*
Y42183D01*
X-42629Y43016D01*
X-41796Y42183D01*
Y40516D01*
Y41766D01*
X-43462D01*
X-40963Y43016D02*
X-39297D01*
X-40130D01*
Y40516D01*
X-38464Y43016D02*
X-36798D01*
X-37631D01*
Y40516D01*
X-86730Y42183D02*
X-87146Y42599D01*
X-87979D01*
X-88396Y42183D01*
Y40516D01*
X-87979Y40100D01*
X-87146D01*
X-86730Y40516D01*
Y41350D01*
X-87563D01*
X-85897Y40100D02*
Y42599D01*
X-84647D01*
X-84231Y42183D01*
Y41350D01*
X-84647Y40933D01*
X-85897D01*
X-83398Y42599D02*
X-81731D01*
Y42183D01*
X-83398Y40516D01*
Y40100D01*
X-143325Y-2177D02*
Y-4676D01*
X-142825Y-5176D01*
X-141826D01*
X-141326Y-4676D01*
Y-2177D01*
X-138327Y-2677D02*
X-138827Y-2177D01*
X-139826D01*
X-140326Y-2677D01*
Y-3176D01*
X-139826Y-3676D01*
X-138827D01*
X-138327Y-4176D01*
Y-4676D01*
X-138827Y-5176D01*
X-139826D01*
X-140326Y-4676D01*
X-137327Y-2177D02*
Y-5176D01*
X-135828D01*
X-135328Y-4676D01*
Y-4176D01*
X-135828Y-3676D01*
X-137327D01*
X-135828D01*
X-135328Y-3176D01*
Y-2677D01*
X-135828Y-2177D01*
X-137327D01*
X-116917Y-28617D02*
X-117334Y-28201D01*
X-118167D01*
X-118583Y-28617D01*
Y-30283D01*
X-118167Y-30700D01*
X-117334D01*
X-116917Y-30283D01*
Y-29450D01*
X-117750D01*
X-116084Y-30700D02*
Y-28201D01*
X-114834D01*
X-114418Y-28617D01*
Y-29450D01*
X-114834Y-29867D01*
X-116084D01*
X-112335Y-30700D02*
Y-28201D01*
X-113585Y-29450D01*
X-111919D01*
X-126640Y-28617D02*
X-127057Y-28201D01*
X-127890D01*
X-128306Y-28617D01*
Y-30283D01*
X-127890Y-30700D01*
X-127057D01*
X-126640Y-30283D01*
Y-29450D01*
X-127473D01*
X-125807Y-30700D02*
Y-28201D01*
X-124557D01*
X-124141Y-28617D01*
Y-29450D01*
X-124557Y-29867D01*
X-125807D01*
X-121642Y-28201D02*
X-123308D01*
Y-29450D01*
X-122475Y-29034D01*
X-122058D01*
X-121642Y-29450D01*
Y-30283D01*
X-122058Y-30700D01*
X-122891D01*
X-123308Y-30283D01*
X-122334Y-46917D02*
X-122750Y-46501D01*
X-123583D01*
X-124000Y-46917D01*
Y-48583D01*
X-123583Y-49000D01*
X-122750D01*
X-122334Y-48583D01*
Y-47750D01*
X-123167D01*
X-121501Y-49000D02*
Y-46501D01*
X-120251D01*
X-119835Y-46917D01*
Y-47750D01*
X-120251Y-48167D01*
X-121501D01*
X-117335Y-49000D02*
X-119002D01*
X-117335Y-47334D01*
Y-46917D01*
X-117752Y-46501D01*
X-118585D01*
X-119002Y-46917D01*
M02*
