G04*
G04 #@! TF.GenerationSoftware,Altium Limited,Altium Designer,18.1.6 (161)*
G04*
G04 Layer_Physical_Order=4*
G04 Layer_Color=16711680*
%FSLAX25Y25*%
%MOIN*%
G70*
G01*
G75*
%ADD15R,0.01968X0.01772*%
%ADD18R,0.03150X0.03150*%
%ADD19R,0.01575X0.01968*%
%ADD20R,0.16000X0.06000*%
%ADD21R,0.01968X0.01575*%
%ADD31R,0.02362X0.04724*%
%ADD57C,0.01000*%
%ADD58C,0.00800*%
%ADD59C,0.01500*%
%ADD60C,0.04724*%
%ADD61R,0.04724X0.04724*%
%ADD62O,0.03937X0.05906*%
%ADD63C,0.01772*%
%ADD64C,0.02400*%
%ADD66C,0.01600*%
%ADD67R,0.01772X0.01968*%
%ADD68R,0.07480X0.11024*%
%ADD69R,0.06063X0.06693*%
%ADD70O,0.00787X0.02362*%
%ADD71O,0.02362X0.00787*%
%ADD72R,0.04331X0.07480*%
%ADD73R,0.03347X0.02165*%
%ADD74R,0.12323X0.12323*%
%ADD75O,0.00984X0.03347*%
%ADD76O,0.03347X0.00984*%
%ADD77R,0.01929X0.02047*%
%ADD78R,0.02047X0.01929*%
%ADD79R,0.05512X0.04724*%
%ADD80O,0.02953X0.00984*%
%ADD81O,0.00984X0.02953*%
%ADD82R,0.10236X0.10236*%
G36*
X514663Y250494D02*
X513877Y251631D01*
X513860Y251625D01*
X513845Y251625D01*
X513834Y251630D01*
X513825Y251641D01*
X513820Y251657D01*
X513818Y251679D01*
X513820Y251706D01*
X513824Y251738D01*
X513832Y251775D01*
X513843Y251818D01*
X514663Y250494D01*
D02*
G37*
G36*
X507771Y251553D02*
X508173Y250623D01*
X508235Y250522D01*
X508291Y250451D01*
X508341Y250408D01*
X508384Y250394D01*
X506439D01*
X506435Y250423D01*
X506421Y250476D01*
X506325Y250778D01*
X505983Y251759D01*
X507672Y251825D01*
X507771Y251553D01*
D02*
G37*
G36*
X514740Y250383D02*
X514770Y250322D01*
X514663Y250494D01*
X514740Y250383D01*
D02*
G37*
G36*
X512162Y251662D02*
X512191Y251624D01*
X512241Y251591D01*
X512311Y251562D01*
X512400Y251538D01*
X512510Y251518D01*
X512639Y251502D01*
X512957Y251484D01*
X513147Y251482D01*
Y249982D01*
X512957Y249980D01*
X512510Y249947D01*
X512400Y249927D01*
X512311Y249902D01*
X512241Y249873D01*
X512191Y249840D01*
X512162Y249802D01*
X512152Y249760D01*
Y251705D01*
X512162Y251662D01*
D02*
G37*
G36*
X510247Y251892D02*
X510411Y251763D01*
X510429Y251742D01*
X510437Y251725D01*
X510435Y251714D01*
X510424Y251707D01*
X510404Y251705D01*
Y249760D01*
X510391Y249818D01*
X510353Y249887D01*
X510289Y249969D01*
X510200Y250062D01*
X510085Y250167D01*
X509779Y250412D01*
X509370Y250705D01*
X509128Y250869D01*
X510182Y251936D01*
X510247Y251892D01*
D02*
G37*
G36*
X496636Y252132D02*
X496680Y251996D01*
X496754Y251868D01*
X496857Y251748D01*
X496990Y251634D01*
X497152Y251528D01*
X497344Y251429D01*
X497565Y251338D01*
X497815Y251253D01*
X498096Y251176D01*
X498094Y251132D01*
X498129Y251163D01*
X498647Y251017D01*
X499428Y250749D01*
X499894D01*
X499896Y250682D01*
X499903Y250621D01*
X499911Y250584D01*
X500265Y250463D01*
X500286Y250424D01*
X500237Y250401D01*
X500116Y250394D01*
X498172Y248843D01*
X498158Y248986D01*
X498116Y249123D01*
X498046Y249252D01*
X497949Y249375D01*
X497823Y249491D01*
X497670Y249599D01*
X497643Y249615D01*
X497536Y249632D01*
X497321Y249650D01*
X497136Y249647D01*
X496979Y249623D01*
X496850Y249577D01*
X496750Y249510D01*
X496678Y249422D01*
X496636Y249313D01*
X496621Y249182D01*
Y252274D01*
X496636Y252132D01*
D02*
G37*
G36*
X557717Y248214D02*
X557650Y248292D01*
X557580Y248338D01*
X557507Y248351D01*
X557430Y248331D01*
X557350Y248279D01*
X557267Y248194D01*
X557181Y248076D01*
X557091Y247925D01*
X556998Y247742D01*
X556902Y247527D01*
X556175Y248456D01*
X556248Y248636D01*
X556364Y248980D01*
X556408Y249144D01*
X556468Y249456D01*
X556484Y249604D01*
X556491Y249746D01*
X556488Y249884D01*
X556475Y250016D01*
X557717Y248214D01*
D02*
G37*
G36*
X550363Y250284D02*
X550334Y250155D01*
X550323Y250009D01*
X550331Y249845D01*
X550358Y249665D01*
X550403Y249467D01*
X550466Y249253D01*
X550548Y249022D01*
X550767Y248507D01*
X550072Y247571D01*
X549963Y247792D01*
X549762Y248130D01*
X549669Y248248D01*
X549582Y248331D01*
X549500Y248381D01*
X549424Y248395D01*
X549353Y248376D01*
X549287Y248322D01*
X549226Y248233D01*
X550410Y250396D01*
X550363Y250284D01*
D02*
G37*
G36*
X611000Y209743D02*
X609400D01*
Y207649D01*
X609378Y207609D01*
X609372Y207549D01*
X609329Y207523D01*
X609237Y207486D01*
X609097Y207449D01*
X608911Y207418D01*
X608681Y207398D01*
X608395Y207390D01*
X608346Y207368D01*
X607513D01*
X607463Y207390D01*
X606664Y207405D01*
X606462Y207420D01*
X606462Y207525D01*
X606061Y207527D01*
X606025Y207525D01*
X605941Y207525D01*
X605850Y207563D01*
X605760Y207525D01*
X603813D01*
X603687Y207525D01*
X603313D01*
X603187Y207525D01*
X601240D01*
X601150Y207563D01*
X600659Y207565D01*
Y207565D01*
X600137D01*
X600047Y207602D01*
X599957Y207565D01*
X597530Y207565D01*
X597030Y207565D01*
X596431D01*
X596363Y207600D01*
X596322Y207587D01*
X596281Y207601D01*
X596202Y207565D01*
X595961D01*
X595961Y207565D01*
X595710Y207768D01*
X595564Y207908D01*
X595497Y207934D01*
X595330Y208062D01*
X595258Y208178D01*
X595106Y208288D01*
X594984Y208384D01*
X594883Y208473D01*
X594803Y208555D01*
X594743Y208626D01*
X594734Y208639D01*
X594752Y209169D01*
X595038Y209349D01*
X595115Y209358D01*
X595156Y209380D01*
X597565D01*
X597565Y209380D01*
X597624D01*
Y209380D01*
X598065Y209380D01*
X600753D01*
Y211881D01*
X600787Y211941D01*
X600776Y211979D01*
X600791Y212016D01*
X600753Y212106D01*
Y212628D01*
X600368D01*
X600368Y212631D01*
X600353Y212730D01*
X600342Y212859D01*
X600338Y213031D01*
X600311Y213094D01*
Y213483D01*
X600338Y213546D01*
X600342Y213721D01*
X600351Y213857D01*
X600362Y213947D01*
X600679D01*
Y214466D01*
X600716Y214555D01*
X600698Y214601D01*
X600710Y214649D01*
X600679Y214702D01*
Y216722D01*
X598283D01*
X598244Y216748D01*
X598181Y216735D01*
X598122Y216759D01*
X598032Y216722D01*
X597510D01*
Y216502D01*
X597285Y216487D01*
X597113Y216484D01*
X597048Y216456D01*
X594053D01*
X593992Y216484D01*
X593652Y216494D01*
X593584Y216500D01*
Y216722D01*
X593063D01*
X592972Y216759D01*
X592913Y216735D01*
X592850Y216748D01*
X592811Y216722D01*
X591133D01*
X591053Y216759D01*
X591040Y216754D01*
X591028Y216759D01*
X590937Y216722D01*
X590416D01*
Y216216D01*
X590379Y216135D01*
X590376Y216069D01*
X590372Y216031D01*
X590364Y215996D01*
X590354Y215962D01*
X590342Y215929D01*
X590325Y215895D01*
X590304Y215860D01*
X590278Y215823D01*
X590246Y215784D01*
X590193Y215728D01*
X590169Y215665D01*
X588589Y214085D01*
X588585Y214089D01*
X588260Y213664D01*
X588142Y213571D01*
X588048Y213403D01*
X587966Y213270D01*
X587895Y213170D01*
X587818Y213161D01*
X587468Y213162D01*
X587334Y213194D01*
X587218Y213327D01*
Y213628D01*
X586918D01*
X586534Y214128D01*
X586551Y214209D01*
Y215153D01*
X586559Y215193D01*
Y216957D01*
X586550Y217000D01*
X586637Y217435D01*
X586678Y217547D01*
X586730Y217664D01*
X586780Y217757D01*
X586825Y217825D01*
X586861Y217869D01*
X586885Y217892D01*
X586892Y217897D01*
X586935Y217901D01*
X586977Y217924D01*
X588037D01*
Y220144D01*
X588069Y220199D01*
X588057Y220244D01*
X588074Y220287D01*
X588037Y220376D01*
Y220895D01*
X588037Y220895D01*
X587914Y221395D01*
X587969Y221577D01*
X587978Y221585D01*
X588047Y221742D01*
X588109Y221861D01*
X588167Y221957D01*
X588219Y222028D01*
X588263Y222078D01*
X588295Y222106D01*
X588314Y222118D01*
X588319Y222121D01*
X588370Y222125D01*
X588413Y222148D01*
X592356D01*
Y224099D01*
X592390Y224164D01*
X592392Y224183D01*
X592413Y224204D01*
X592461Y224241D01*
X592534Y224288D01*
X592633Y224339D01*
X592758Y224393D01*
X592922Y224453D01*
X592965Y224493D01*
X593024Y224511D01*
X593657Y224849D01*
X593669Y224846D01*
X593759Y224902D01*
X593865Y224910D01*
X594061Y225011D01*
X594436Y225178D01*
X594594Y225238D01*
X594930Y225339D01*
X595071Y225369D01*
X595212Y225392D01*
X595346Y225405D01*
X595494Y225410D01*
X595563Y225441D01*
X595638Y225431D01*
X596084Y225447D01*
Y225550D01*
X596084D01*
X596097Y226016D01*
X596121Y226081D01*
X596090Y226150D01*
X596100Y226225D01*
X596084Y226246D01*
Y228222D01*
X592916D01*
Y227549D01*
X592856Y227513D01*
X592356Y227798D01*
Y228072D01*
X585644D01*
X585638Y228208D01*
X585624Y228702D01*
X585624D01*
X585528Y229435D01*
X585245Y230118D01*
X584795Y230704D01*
X584799Y230709D01*
X584466Y230999D01*
X584428Y231027D01*
X584374Y231066D01*
X584319Y231166D01*
X584174Y231282D01*
X584061Y231384D01*
X583966Y231480D01*
X583889Y231569D01*
X583830Y231649D01*
X583788Y231718D01*
X583760Y231778D01*
X583744Y231826D01*
X583736Y231865D01*
X583730Y231942D01*
X583695Y232014D01*
Y234372D01*
X576983D01*
Y231617D01*
X576584Y231372D01*
X576063D01*
X575972Y231409D01*
X575917Y231386D01*
X575859Y231399D01*
X575816Y231372D01*
X573416D01*
Y228597D01*
X575816D01*
X575859Y228569D01*
X575917Y228582D01*
X575972Y228559D01*
X576063Y228597D01*
X576584D01*
X576584Y228597D01*
X576983Y228447D01*
Y228447D01*
X577022Y228447D01*
X577502D01*
X577591Y228410D01*
X577618Y228421D01*
X577645Y228412D01*
X577715Y228447D01*
X583378D01*
Y223133D01*
X583205Y222704D01*
Y222704D01*
X582755Y222118D01*
X582472Y221435D01*
X582401Y220895D01*
X581916D01*
Y220374D01*
X581878Y220283D01*
X581884Y220268D01*
X581879Y220253D01*
X581916Y220175D01*
Y218671D01*
X581883Y218613D01*
X581894Y218571D01*
X581878Y218532D01*
X581916Y218443D01*
Y217924D01*
X582290D01*
X582290Y217923D01*
X582305Y217823D01*
X582315Y217693D01*
X582319Y217521D01*
X582347Y217458D01*
Y215193D01*
X582355Y215153D01*
Y214209D01*
X582371Y214128D01*
X581988Y213628D01*
X581012D01*
X580629Y214128D01*
X580645Y214209D01*
Y216177D01*
X580616Y216323D01*
X580633Y216365D01*
X580616Y216407D01*
X580622Y216426D01*
X580581Y217110D01*
X580581Y217245D01*
X580559Y217298D01*
X580426Y217966D01*
X580024Y218567D01*
X579423Y218969D01*
X578713Y219110D01*
Y219094D01*
X557737D01*
X557434Y219594D01*
X557515Y220000D01*
X557400Y220580D01*
X557071Y221071D01*
X556580Y221400D01*
X556288Y221458D01*
X556205Y221562D01*
X556134Y221998D01*
X557327Y222978D01*
X558882Y223809D01*
X560569Y224321D01*
X562280Y224489D01*
X562324Y224480D01*
X562856D01*
X562923Y224451D01*
X563796Y224431D01*
X564205Y224397D01*
X564347Y224378D01*
X564452Y224357D01*
X564506Y224342D01*
X564558Y224320D01*
X564593Y224319D01*
X564920Y224100D01*
X565500Y223985D01*
X566080Y224100D01*
X566571Y224429D01*
X566900Y224920D01*
X567015Y225500D01*
X566900Y226080D01*
X566571Y226571D01*
X566080Y226900D01*
X565500Y227015D01*
X564920Y226900D01*
X564593Y226681D01*
X564558Y226680D01*
X564506Y226658D01*
X564452Y226643D01*
X564370Y226627D01*
X563241Y226552D01*
X562933Y226549D01*
X562863Y226520D01*
X562324D01*
Y226534D01*
X560597Y226398D01*
X558914Y225994D01*
X557314Y225331D01*
X555838Y224427D01*
X554521Y223302D01*
X554531Y223292D01*
X553435Y222195D01*
X552935Y222402D01*
Y224620D01*
X549766D01*
Y224326D01*
X549408Y224026D01*
X549071Y224071D01*
X548580Y224400D01*
X548000Y224515D01*
X547420Y224400D01*
X546929Y224071D01*
X546396Y224171D01*
X546350Y224204D01*
X546313Y224295D01*
Y224816D01*
X546313D01*
X546313Y225116D01*
X546313Y225116D01*
Y225638D01*
X546350Y225728D01*
X546335Y225764D01*
X546346Y225801D01*
X546313Y225861D01*
Y226400D01*
X546334Y226439D01*
X546321Y226483D01*
X546338Y226526D01*
X546323Y226558D01*
X546519Y226689D01*
X546683Y226782D01*
X546726Y226836D01*
X547476Y226985D01*
X547500Y226980D01*
X547539Y226988D01*
X547555Y226985D01*
X548135Y227100D01*
X548626Y227429D01*
X548955Y227920D01*
X549070Y228500D01*
X548955Y229080D01*
X548626Y229571D01*
X548135Y229900D01*
X547555Y230015D01*
X546975Y229900D01*
X546484Y229571D01*
X546195Y229139D01*
X545318Y228446D01*
X545120Y228355D01*
X544973Y228298D01*
X544929Y228285D01*
X544534D01*
X544469Y228310D01*
X544415Y228286D01*
X544356Y228297D01*
X544337Y228285D01*
X543538D01*
Y225861D01*
X543504Y225801D01*
X543515Y225764D01*
X543500Y225728D01*
X543538Y225638D01*
Y225116D01*
X543538D01*
X543538Y224816D01*
X543538Y224816D01*
Y224295D01*
X543500Y224204D01*
X543515Y224169D01*
X543504Y224132D01*
X543538Y224071D01*
Y221648D01*
X543600D01*
X543826Y221339D01*
X543900Y221148D01*
X543837Y220830D01*
Y219564D01*
X543713Y219212D01*
X543361Y219088D01*
X542095D01*
X541707Y219011D01*
X541378Y218791D01*
X541158Y218462D01*
X541081Y218075D01*
X541158Y217687D01*
X541166Y217676D01*
X541345Y217287D01*
X541166Y216899D01*
X541158Y216887D01*
X541081Y216500D01*
X541158Y216112D01*
X541166Y216101D01*
X541345Y215712D01*
X541166Y215324D01*
X541158Y215313D01*
X541081Y214925D01*
X541158Y214537D01*
X541166Y214526D01*
X541345Y214138D01*
X541166Y213749D01*
X541158Y213738D01*
X541081Y213350D01*
X541158Y212962D01*
X541378Y212634D01*
Y212492D01*
X541158Y212163D01*
X541081Y211775D01*
X541158Y211388D01*
X541166Y211377D01*
X541345Y210988D01*
X541166Y210599D01*
X541158Y210588D01*
X541081Y210201D01*
X541158Y209813D01*
X541378Y209484D01*
X541707Y209264D01*
X542095Y209187D01*
X543361D01*
X543713Y209063D01*
X543837Y208711D01*
Y208264D01*
X543831Y208232D01*
Y201749D01*
X543816D01*
X543954Y200351D01*
X544361Y199007D01*
X545023Y197768D01*
X545914Y196683D01*
X545925Y196693D01*
X547743Y194875D01*
X547768Y194808D01*
X547941Y194624D01*
X548013Y194534D01*
X548206Y194246D01*
X548230Y194202D01*
X548270Y194098D01*
X548289Y194014D01*
X548294Y193947D01*
X548288Y193888D01*
X548272Y193830D01*
X548219Y193717D01*
X548215Y193639D01*
X548175Y193580D01*
X548060Y193000D01*
X548175Y192420D01*
X548504Y191929D01*
X548995Y191600D01*
X549575Y191485D01*
X550154Y191600D01*
X550646Y191929D01*
X550974Y192420D01*
X551090Y193000D01*
X550974Y193580D01*
X550909Y193678D01*
X550901Y193772D01*
X550850Y193869D01*
X550830Y193927D01*
X550818Y194000D01*
X550814Y194094D01*
X550825Y194209D01*
X550852Y194348D01*
X550899Y194509D01*
X550955Y194656D01*
X550981Y194719D01*
X551059Y194890D01*
X551181Y195122D01*
X551188Y195201D01*
X551571Y195700D01*
X551869Y196076D01*
X552288Y196495D01*
X552308D01*
X552308D01*
X553433Y197812D01*
X554337Y199288D01*
X554978Y200834D01*
X555000Y200888D01*
X555404Y202572D01*
X555540Y204298D01*
X555540Y204298D01*
X555580Y204781D01*
X555673Y205480D01*
X556129Y206582D01*
X556510Y207079D01*
X556510Y207079D01*
X556510Y207079D01*
X556883Y207397D01*
X557362Y207790D01*
X557853Y208053D01*
X558199Y207671D01*
X557967Y207322D01*
X557851Y206743D01*
X557967Y206163D01*
X558295Y205671D01*
X558786Y205343D01*
X559366Y205228D01*
X559946Y205343D01*
X560437Y205671D01*
X560766Y206163D01*
X560782Y206246D01*
X560838Y206309D01*
X560877Y206422D01*
X560906Y206477D01*
X560946Y206527D01*
X561002Y206579D01*
X561082Y206633D01*
X561191Y206688D01*
X561331Y206740D01*
X561504Y206786D01*
X561683Y206819D01*
X561775Y206831D01*
X561964Y206852D01*
X561973Y206857D01*
X562183Y206885D01*
Y206890D01*
X568574D01*
X568808Y206390D01*
X568600Y206080D01*
X568485Y205500D01*
X568600Y204920D01*
X568929Y204429D01*
X569420Y204100D01*
X570000Y203985D01*
X570580Y204100D01*
X571071Y204429D01*
X571400Y204920D01*
X571400Y204921D01*
X571951D01*
X572173Y204620D01*
X572191Y204552D01*
X572203Y204399D01*
X572119Y203972D01*
X572203Y203546D01*
X572065Y203345D01*
X571658Y203167D01*
X571597Y203168D01*
X571580Y203180D01*
X571000Y203295D01*
X570420Y203180D01*
X569929Y202851D01*
X569600Y202360D01*
X569485Y201780D01*
X569600Y201200D01*
X569929Y200709D01*
X570420Y200380D01*
X571000Y200265D01*
X571580Y200380D01*
X572071Y200709D01*
X572100Y200752D01*
X572100Y200752D01*
X572915Y201297D01*
X572981Y201396D01*
X573023Y201428D01*
X573093Y201474D01*
X573095Y201483D01*
X573477Y201776D01*
X573469Y201783D01*
X574107Y202421D01*
X574176Y202448D01*
X574289Y202556D01*
X574386Y202640D01*
X574474Y202707D01*
X574553Y202760D01*
X574621Y202799D01*
X574678Y202825D01*
X574722Y202840D01*
X574753Y202847D01*
X574774Y202849D01*
X574831Y202846D01*
X574866Y202859D01*
X575201D01*
X575282Y202875D01*
X575782Y202492D01*
Y202191D01*
X578051D01*
X578434Y201691D01*
X578418Y201610D01*
Y200666D01*
X578410Y200626D01*
Y199068D01*
X577400D01*
Y195900D01*
X579433D01*
X579680Y195400D01*
X579222Y194803D01*
X579207Y194793D01*
X579203Y194787D01*
X578467Y194223D01*
X577604Y193865D01*
X576693Y193745D01*
X574768D01*
X574751Y193742D01*
X574687Y193774D01*
X574497Y193789D01*
X574463Y193794D01*
X574207Y193845D01*
X574136Y193868D01*
X574069Y193898D01*
X574027Y193925D01*
X574003Y193944D01*
X573991Y193958D01*
X573984Y193970D01*
X573958Y194038D01*
X573910Y194090D01*
X573900Y194143D01*
X573571Y194634D01*
X573080Y194963D01*
X572500Y195078D01*
X571920Y194963D01*
X571429Y194634D01*
X571100Y194143D01*
X570985Y193563D01*
X571100Y192983D01*
X571429Y192492D01*
X571920Y192163D01*
X572500Y192048D01*
X572584Y192065D01*
X573148Y191840D01*
X573643Y191634D01*
X573671Y191631D01*
X573731Y191607D01*
X573841Y191608D01*
X573989Y191589D01*
X574074Y191569D01*
X574086Y191576D01*
X574768Y191486D01*
Y191502D01*
X576677D01*
Y191496D01*
X576743Y191502D01*
X582424D01*
X582489Y191474D01*
X583379Y191463D01*
X583956Y191431D01*
X584056Y191419D01*
X584110Y191409D01*
X584151Y191397D01*
X584159Y191398D01*
X584420Y191224D01*
X585000Y191109D01*
X585580Y191224D01*
X586071Y191552D01*
X586400Y192044D01*
X586515Y192624D01*
X586400Y193203D01*
X586257Y193416D01*
X586575Y193841D01*
X589608D01*
Y196812D01*
X588560D01*
X588532Y196830D01*
X588468Y196814D01*
X588406Y196837D01*
X588351Y196812D01*
X588259D01*
X588165Y196889D01*
X588030Y197016D01*
X587670Y197416D01*
X587462Y197672D01*
X587436Y197687D01*
X587270Y197903D01*
X586726Y199216D01*
X586604Y200145D01*
X586559Y200626D01*
X586559Y200626D01*
X586567Y200628D01*
X587100Y200512D01*
X587429Y200021D01*
X587920Y199692D01*
X588500Y199577D01*
X589080Y199692D01*
X589450Y199940D01*
X589916Y200022D01*
X589916Y200022D01*
X589916Y200022D01*
X592311D01*
X592350Y199996D01*
X592413Y200009D01*
X592472Y199985D01*
X592563Y200022D01*
X593084D01*
Y200022D01*
X593416Y199959D01*
X593416Y199959D01*
X593558Y199959D01*
X593937D01*
X594028Y199922D01*
X594076Y199942D01*
X594128Y199929D01*
X594176Y199959D01*
X596584D01*
Y202734D01*
X594209D01*
X594184Y202752D01*
X594103Y202740D01*
X594028Y202771D01*
X593937Y202734D01*
X593416D01*
Y202734D01*
X593084Y202797D01*
X593084Y202797D01*
X592942Y202797D01*
X592563D01*
X592472Y202834D01*
X592413Y202810D01*
X592350Y202823D01*
X592311Y202797D01*
X592111D01*
X592080Y202815D01*
X592042Y202806D01*
X592005Y202822D01*
X591939Y202797D01*
X591627D01*
X591551Y202853D01*
X591439Y202948D01*
X591302Y203079D01*
X591238Y203104D01*
X591146Y203196D01*
X591121Y203260D01*
X591011Y203375D01*
X590932Y203467D01*
X590872Y203545D01*
X590834Y203604D01*
X590817Y203637D01*
X590817Y203641D01*
X590816Y203644D01*
X590847Y203802D01*
X590865Y203864D01*
X590861Y203871D01*
X590881Y203972D01*
X590797Y204399D01*
X590555Y204760D01*
X590194Y205001D01*
X589768Y205086D01*
X588824D01*
X588784Y205094D01*
X588743Y205086D01*
X587799D01*
X587718Y205070D01*
X587218Y205453D01*
Y206429D01*
X587718Y206812D01*
X587799Y206796D01*
X588743D01*
X588784Y206788D01*
X590909D01*
X590971Y206760D01*
X591143Y206756D01*
X591270Y206745D01*
X591366Y206729D01*
X591376Y206726D01*
Y206250D01*
X593909D01*
X593991Y206213D01*
X594005Y206213D01*
X594092Y206122D01*
X594209Y205988D01*
X594297Y205873D01*
X594341Y205805D01*
Y205553D01*
X594304Y205452D01*
X594323Y205412D01*
X594313Y205368D01*
X594341Y205324D01*
Y204317D01*
X597030D01*
X597470Y204317D01*
X597970Y204317D01*
X599957D01*
X600047Y204280D01*
X600137Y204317D01*
X600659D01*
X600659Y204317D01*
X601150Y204319D01*
X601240Y204357D01*
X603116D01*
X603258Y204275D01*
X603490Y203872D01*
X603488Y203470D01*
X603490Y203434D01*
X603490Y203350D01*
X603453Y203260D01*
X603490Y203169D01*
Y201097D01*
X604874D01*
X605075Y201057D01*
X605276Y201097D01*
X606659D01*
Y203169D01*
X606697Y203260D01*
X606659Y203350D01*
X606659Y203435D01*
X606661Y203470D01*
X606659Y203872D01*
X606577D01*
X606536Y204444D01*
X607171Y204490D01*
X607454Y204491D01*
X607506Y204514D01*
X608346D01*
X608395Y204492D01*
X608681Y204484D01*
X608911Y204464D01*
X609097Y204433D01*
X609237Y204396D01*
X609329Y204359D01*
X609372Y204332D01*
X609378Y204273D01*
X609400Y204232D01*
Y202543D01*
X611000D01*
Y179712D01*
X521215D01*
X521142Y179855D01*
X521082Y180212D01*
X521613Y180619D01*
X522087Y181238D01*
X522386Y181958D01*
X522488Y182732D01*
X522386Y183505D01*
X522087Y184226D01*
X521613Y184845D01*
X520994Y185319D01*
X520273Y185618D01*
X519500Y185720D01*
X518727Y185618D01*
X518006Y185319D01*
X517900Y185238D01*
X517806Y185221D01*
X517422Y184978D01*
X517075Y184800D01*
X516743Y184672D01*
X516526Y184615D01*
X516325Y185063D01*
X516321Y185080D01*
X516357Y185104D01*
X516685Y185595D01*
X516801Y186175D01*
X516685Y186755D01*
X516357Y187246D01*
X515865Y187575D01*
X515489Y187649D01*
Y188159D01*
X515712Y188204D01*
X515930Y188349D01*
X516270Y188410D01*
X516610Y188349D01*
X516828Y188204D01*
X517254Y188119D01*
X517680Y188204D01*
X517898Y188349D01*
X518238Y188410D01*
X518579Y188349D01*
X518797Y188204D01*
X519223Y188119D01*
X519649Y188204D01*
X520010Y188445D01*
X520252Y188806D01*
X520336Y189232D01*
Y191595D01*
X520252Y192021D01*
X520010Y192382D01*
X519649Y192623D01*
X519223Y192708D01*
X518797Y192623D01*
X518579Y192478D01*
X518238Y192417D01*
X517898Y192478D01*
X517680Y192623D01*
X517254Y192708D01*
X516828Y192623D01*
X516610Y192478D01*
X516270Y192417D01*
X515930Y192478D01*
X515712Y192623D01*
X515286Y192708D01*
X514860Y192623D01*
X514642Y192478D01*
X514301Y192417D01*
X513961Y192478D01*
X513743Y192623D01*
X513317Y192708D01*
X512891Y192623D01*
X512673Y192478D01*
X512333Y192417D01*
X511993Y192478D01*
X511775Y192623D01*
X511349Y192708D01*
X510923Y192623D01*
X510705Y192478D01*
X510364Y192417D01*
X510024Y192478D01*
X509806Y192623D01*
X509380Y192708D01*
X508954Y192623D01*
X508736Y192478D01*
X508396Y192417D01*
X508056Y192478D01*
X507838Y192623D01*
X507412Y192708D01*
X506986Y192623D01*
X506624Y192382D01*
X506383Y192021D01*
X506298Y191595D01*
Y189232D01*
X506383Y188806D01*
X506624Y188445D01*
X506986Y188204D01*
X507412Y188119D01*
X507838Y188204D01*
X508056Y188349D01*
X508396Y188410D01*
X508736Y188349D01*
X508954Y188204D01*
X509380Y188119D01*
X509753Y188193D01*
X509844Y188181D01*
X510282Y187920D01*
X510338Y187361D01*
X510689Y186203D01*
X510837Y185925D01*
X510480Y185532D01*
X510273Y185618D01*
X509500Y185720D01*
X508727Y185618D01*
X508006Y185319D01*
X507387Y184845D01*
X506913Y184226D01*
X506614Y183505D01*
X506512Y182732D01*
X506614Y181958D01*
X506913Y181238D01*
X507387Y180619D01*
X507918Y180212D01*
X507858Y179855D01*
X507785Y179712D01*
X482795D01*
X478712Y183795D01*
Y199000D01*
Y251205D01*
X481795Y254288D01*
X499396D01*
X499500Y253790D01*
X498803Y253255D01*
X498802Y253256D01*
X498239Y252521D01*
X498147Y252301D01*
X497666Y252129D01*
X497483Y252226D01*
X497245Y252450D01*
Y252907D01*
X496661D01*
X496621Y252923D01*
X496589Y252910D01*
X496555Y252920D01*
X496531Y252907D01*
X492896D01*
Y248557D01*
X496513D01*
X496551Y248537D01*
X496587Y248547D01*
X496621Y248533D01*
X496681Y248557D01*
X497245D01*
X497560Y248231D01*
Y248231D01*
X498039D01*
X498099Y248197D01*
X498167Y248217D01*
X498235Y248196D01*
X498299Y248231D01*
X500728D01*
Y249984D01*
X500747Y250039D01*
X500896Y250202D01*
X500895Y250227D01*
X500911Y250247D01*
X500885Y250472D01*
X500875Y250699D01*
X500856Y250716D01*
X500853Y250740D01*
X500832Y250779D01*
X500728Y250861D01*
Y251006D01*
X500930Y251376D01*
X501180Y251487D01*
X501185Y251486D01*
X505377D01*
X505402Y251454D01*
X505709Y250573D01*
X505797Y250296D01*
X505806Y250260D01*
X505828Y250232D01*
Y245672D01*
Y243113D01*
Y240553D01*
X507406D01*
X508204Y240223D01*
X508264Y240215D01*
X508307Y240181D01*
X508332Y240173D01*
X508423Y240183D01*
X508457Y240168D01*
X508498Y240184D01*
X508595Y240171D01*
X508644Y240162D01*
X508652Y240161D01*
X509123Y240102D01*
X509364Y240083D01*
X509364Y240083D01*
X509486Y240080D01*
X509610Y240072D01*
X509663Y240068D01*
X509760Y240053D01*
X509768Y240051D01*
Y239648D01*
X510290D01*
X510380Y239611D01*
X510416Y239625D01*
X510452Y239615D01*
X510513Y239648D01*
X512543D01*
Y242816D01*
X512961Y243014D01*
X514280D01*
X514281Y243014D01*
X514282Y243014D01*
X514312D01*
X514402Y242977D01*
X514492Y243014D01*
X515014D01*
Y243082D01*
X515291Y243099D01*
X515476Y243101D01*
X515518Y243119D01*
X516216Y243027D01*
X516909Y242739D01*
X517125Y242574D01*
X517504Y242282D01*
X517849Y241936D01*
X520330Y239456D01*
X520324Y239450D01*
X521682Y238289D01*
X523206Y237356D01*
X524856Y236672D01*
X526593Y236255D01*
X528018Y236143D01*
X528164Y235924D01*
X528205Y235816D01*
X528404Y235607D01*
X528546Y235435D01*
X528592Y235371D01*
X528629Y235313D01*
X528653Y235269D01*
X528666Y235241D01*
X528669Y235232D01*
X528676Y235200D01*
X528744Y235100D01*
X528804Y234798D01*
X529202Y234202D01*
X529798Y233804D01*
X530500Y233665D01*
X531202Y233804D01*
X531798Y234202D01*
X532196Y234798D01*
X532335Y235500D01*
X532298Y235685D01*
X532625Y236064D01*
X532835Y236054D01*
X532924Y236044D01*
X532945Y236040D01*
X533298Y235804D01*
X534000Y235665D01*
X534702Y235804D01*
X535298Y236202D01*
X535696Y236798D01*
X535835Y237500D01*
X535696Y238202D01*
X535298Y238798D01*
X534702Y239196D01*
X534000Y239335D01*
X533298Y239196D01*
X532994Y238993D01*
X530637Y238899D01*
X530589Y238877D01*
X528374D01*
X528314Y238864D01*
X526688Y239024D01*
X525067Y239516D01*
X523573Y240315D01*
X523473Y240397D01*
X522968Y241055D01*
X522963Y241101D01*
X522787Y241410D01*
X522501Y242103D01*
X522418Y242731D01*
X522423Y242759D01*
X522452Y242836D01*
X522522Y242953D01*
X522539Y243063D01*
X522696Y243298D01*
X522835Y244000D01*
X522696Y244702D01*
X522298Y245298D01*
X521702Y245696D01*
X521000Y245835D01*
X520298Y245696D01*
X519702Y245298D01*
X519435Y244898D01*
X518838Y244726D01*
X518296Y245142D01*
X516934Y245706D01*
X516028Y245825D01*
X515838Y246247D01*
Y249218D01*
X515318D01*
X515268Y249718D01*
X515702Y249804D01*
X516298Y250202D01*
X516696Y250798D01*
X516835Y251500D01*
X516696Y252202D01*
X516298Y252798D01*
X515702Y253196D01*
X515000Y253335D01*
X514298Y253196D01*
X513702Y252798D01*
X513304Y252202D01*
X513199Y252152D01*
X512764Y252317D01*
Y252316D01*
X512242D01*
X512152Y252354D01*
X512080Y252324D01*
X512003Y252337D01*
X511975Y252316D01*
X510757D01*
X510648Y252402D01*
X510625Y252409D01*
X510611Y252430D01*
X510546Y252474D01*
X510526Y252478D01*
X509751Y253253D01*
X509753Y253255D01*
X509055Y253790D01*
X509159Y254288D01*
X536410D01*
X536574Y253915D01*
X536595Y253788D01*
X536205Y253280D01*
X535946Y252655D01*
X535858Y251984D01*
Y250016D01*
X535946Y249345D01*
X536205Y248720D01*
X536617Y248184D01*
X537153Y247772D01*
X537778Y247513D01*
X538241Y247452D01*
X538254Y247445D01*
X538329Y247387D01*
X538417Y247307D01*
X538662Y247036D01*
X538798Y246863D01*
X538916Y246796D01*
X539205Y246444D01*
X539212Y246451D01*
X542003Y243660D01*
X542003Y243660D01*
X542320Y243291D01*
X543058Y242392D01*
X543836Y240937D01*
X543980Y240462D01*
X543806Y239962D01*
X543806D01*
Y239424D01*
X543770Y239338D01*
X543784Y239305D01*
X543774Y239271D01*
X543806Y239212D01*
Y234038D01*
X544486D01*
X544592Y233235D01*
X544588Y233180D01*
X544721Y232781D01*
X544732Y232768D01*
X544732Y232752D01*
X544787Y232608D01*
X544801Y232594D01*
X544801Y232575D01*
X544849Y232468D01*
X544876Y232444D01*
X544881Y232408D01*
X544922Y232338D01*
X544958Y232311D01*
X544963Y232298D01*
Y230514D01*
X549372D01*
X549607Y230447D01*
X549889Y230190D01*
X549999Y230043D01*
X550014Y229968D01*
X550078Y229925D01*
X550147Y229818D01*
X550172Y229813D01*
X550187Y229792D01*
X550222Y229772D01*
X550334Y229756D01*
X550426Y229695D01*
X550428Y229693D01*
X550571Y229722D01*
X550623Y229714D01*
X550633Y229712D01*
X550634Y229713D01*
X550714Y229701D01*
X550805Y229769D01*
X550916Y229792D01*
X550916Y229793D01*
X550996Y229913D01*
X551112Y230000D01*
X551128Y230112D01*
X551190Y230206D01*
X551517Y231882D01*
X551514Y231901D01*
X551523Y231918D01*
X551606Y232517D01*
X551619Y232609D01*
X551649Y233008D01*
X551629D01*
Y233571D01*
X551657Y233633D01*
X551662Y233805D01*
X551673Y233933D01*
X551689Y234029D01*
X551691Y234038D01*
X552289D01*
Y239263D01*
X552326Y239355D01*
X552315Y239383D01*
X552323Y239411D01*
X552311Y239435D01*
X552289Y239779D01*
Y239962D01*
X552277D01*
X552263Y240182D01*
X552263Y240352D01*
X552235Y240419D01*
Y244567D01*
X552263D01*
X552066Y246566D01*
X551483Y248488D01*
X551365Y248708D01*
X551365Y248762D01*
X551153Y249258D01*
X551084Y249454D01*
X551031Y249632D01*
X551004Y249749D01*
X551040Y250016D01*
Y251984D01*
X550951Y252655D01*
X550692Y253280D01*
X550302Y253788D01*
X550324Y253915D01*
X550487Y254288D01*
X556410D01*
X556574Y253915D01*
X556595Y253788D01*
X556205Y253280D01*
X555946Y252655D01*
X555858Y251984D01*
Y250166D01*
X555837Y250133D01*
X555856Y250043D01*
X555829Y249955D01*
X555839Y249847D01*
X555841Y249755D01*
X555836Y249654D01*
X555825Y249552D01*
X555775Y249290D01*
X555742Y249169D01*
X555638Y248862D01*
X555573Y248699D01*
X555573Y248662D01*
X555539Y248551D01*
X555531Y248535D01*
X555533Y248528D01*
X555070Y247003D01*
X554889Y245172D01*
X554913D01*
Y240429D01*
X554885Y240367D01*
X554881Y240195D01*
X554870Y240069D01*
X554854Y239972D01*
X554851Y239962D01*
X553648D01*
Y234038D01*
X553805D01*
X554084Y233604D01*
X554092Y233538D01*
X553985Y233000D01*
X554100Y232420D01*
X554429Y231929D01*
X554920Y231600D01*
X555500Y231485D01*
X556080Y231600D01*
X556571Y231929D01*
X556900Y232420D01*
X557015Y233000D01*
X556993Y233111D01*
X557224Y233428D01*
X557514Y233166D01*
Y230695D01*
X557483Y230642D01*
X557495Y230596D01*
X557477Y230551D01*
X557514Y230461D01*
Y230128D01*
X557429Y230071D01*
X557100Y229580D01*
X556985Y229000D01*
X557100Y228420D01*
X557429Y227929D01*
X557920Y227600D01*
X558500Y227485D01*
X559080Y227600D01*
X559571Y227929D01*
X559900Y228420D01*
X559959Y228718D01*
X560004Y228786D01*
X560132Y229430D01*
X560132Y229430D01*
X560149Y229538D01*
X560149Y229539D01*
X560152Y229687D01*
X560170Y229914D01*
X560173Y229939D01*
X560486D01*
Y230461D01*
X560523Y230551D01*
X560505Y230596D01*
X560517Y230642D01*
X560486Y230695D01*
Y235262D01*
X560502Y235283D01*
X560493Y235351D01*
X560522Y235413D01*
X560495Y235492D01*
X560486Y235959D01*
D01*
Y236061D01*
X560039Y236077D01*
X559971Y236068D01*
X559909Y236097D01*
X559816Y236102D01*
X559753Y236112D01*
X559683Y236131D01*
X559605Y236160D01*
X559519Y236201D01*
X559426Y236255D01*
X559333Y236317D01*
X559244Y236390D01*
X558878Y236713D01*
X558878Y236713D01*
X557868Y237488D01*
X557837Y237501D01*
X557816Y237526D01*
X557654Y237610D01*
X557528Y237683D01*
X557425Y237752D01*
X557346Y237814D01*
X557290Y237867D01*
X557256Y237908D01*
X557240Y237932D01*
X557237Y237938D01*
X557233Y237982D01*
X557210Y238026D01*
Y239263D01*
X557248Y239355D01*
X557236Y239383D01*
X557245Y239411D01*
X557232Y239435D01*
X557210Y239779D01*
Y239962D01*
X557199D01*
X557185Y240182D01*
X557184Y240352D01*
X557156Y240419D01*
Y245172D01*
X557152Y245191D01*
X557287Y246562D01*
X557453Y247107D01*
X557778Y247513D01*
X558449Y247425D01*
X559119Y247513D01*
X559744Y247772D01*
X560281Y248184D01*
X560692Y248720D01*
X560951Y249345D01*
X561039Y250016D01*
Y251984D01*
X560951Y252655D01*
X560692Y253280D01*
X560302Y253788D01*
X560324Y253915D01*
X560487Y254288D01*
X611000D01*
Y209743D01*
D02*
G37*
G36*
X539924Y248807D02*
X539866Y248746D01*
X539832Y248670D01*
X539822Y248577D01*
X539836Y248469D01*
X539874Y248345D01*
X539937Y248204D01*
X540024Y248048D01*
X540134Y247876D01*
X540270Y247689D01*
X539310Y247263D01*
X539159Y247455D01*
X538877Y247767D01*
X538746Y247886D01*
X538620Y247983D01*
X538500Y248055D01*
X538387Y248102D01*
X538279Y248127D01*
X538178Y248127D01*
X538083Y248103D01*
X540007Y248852D01*
X539924Y248807D01*
D02*
G37*
G36*
X512162Y248662D02*
X512192Y248582D01*
X512242Y248511D01*
X512312Y248449D01*
X512402Y248398D01*
X512512Y248355D01*
X512642Y248322D01*
X512748Y248305D01*
X512792Y248309D01*
X512922Y248332D01*
X513032Y248361D01*
X513122Y248397D01*
X513192Y248440D01*
X513242Y248488D01*
X513272Y248544D01*
X513282Y248606D01*
Y246859D01*
X513272Y246938D01*
X513242Y247010D01*
X513192Y247073D01*
X513122Y247128D01*
X513032Y247174D01*
X512922Y247212D01*
X512792Y247242D01*
X512728Y247251D01*
X512642Y247237D01*
X512512Y247204D01*
X512402Y247162D01*
X512312Y247110D01*
X512242Y247048D01*
X512192Y246977D01*
X512162Y246897D01*
X512152Y246807D01*
Y248752D01*
X512162Y248662D01*
D02*
G37*
G36*
X510404Y246807D02*
X510400Y246897D01*
X510387Y246977D01*
X510366Y247048D01*
X510337Y247110D01*
X510299Y247162D01*
X510253Y247204D01*
X510199Y247237D01*
X510136Y247261D01*
X510065Y247275D01*
X509985Y247280D01*
Y248280D01*
X510065Y248284D01*
X510136Y248298D01*
X510199Y248322D01*
X510253Y248355D01*
X510299Y248398D01*
X510337Y248449D01*
X510366Y248511D01*
X510387Y248582D01*
X510400Y248662D01*
X510404Y248752D01*
Y246807D01*
D02*
G37*
G36*
X508384Y247792D02*
X508390Y247695D01*
X508394Y247673D01*
X508398Y247655D01*
X508404Y247642D01*
X508410Y247634D01*
X508417Y247631D01*
X508424Y247633D01*
X509131Y246926D01*
X508989Y246849D01*
X508653Y246634D01*
X508571Y246568D01*
X508503Y246506D01*
X508451Y246446D01*
X508414Y246389D01*
X508391Y246335D01*
X508384Y246284D01*
Y247834D01*
X508384Y247792D01*
D02*
G37*
G36*
X509505Y243626D02*
X509495Y243697D01*
X509465Y243761D01*
X509415Y243817D01*
X509345Y243865D01*
X509255Y243906D01*
X509145Y243940D01*
X509015Y243966D01*
X508919Y243978D01*
X508874Y243975D01*
X508744Y243956D01*
X508634Y243931D01*
X508544Y243901D01*
X508474Y243865D01*
X508424Y243824D01*
X508394Y243777D01*
X508384Y243725D01*
Y245275D01*
X508394Y245223D01*
X508424Y245176D01*
X508474Y245135D01*
X508544Y245099D01*
X508634Y245069D01*
X508744Y245044D01*
X508874Y245025D01*
X508897Y245023D01*
X509015Y245034D01*
X509145Y245060D01*
X509255Y245093D01*
X509345Y245135D01*
X509415Y245183D01*
X509465Y245239D01*
X509495Y245303D01*
X509505Y245374D01*
Y243626D01*
D02*
G37*
G36*
X514413Y245350D02*
X514445Y245329D01*
X514498Y245311D01*
X514573Y245295D01*
X514669Y245281D01*
X514926Y245261D01*
X515472Y245250D01*
Y243750D01*
X515269Y243749D01*
X514573Y243705D01*
X514498Y243689D01*
X514445Y243671D01*
X514413Y243650D01*
X514402Y243626D01*
Y245374D01*
X514413Y245350D01*
D02*
G37*
G36*
X508391Y242262D02*
X508414Y242171D01*
X508450Y242088D01*
X508502Y242014D01*
X508569Y241947D01*
X508650Y241888D01*
X508746Y241837D01*
X508857Y241794D01*
X508982Y241759D01*
X509123Y241732D01*
X508516Y240796D01*
X508491Y240803D01*
X508468Y240817D01*
X508449Y240838D01*
X508431Y240865D01*
X508417Y240899D01*
X508405Y240939D01*
X508396Y240986D01*
X508389Y241039D01*
X508385Y241099D01*
X508384Y241165D01*
Y242360D01*
X508391Y242262D01*
D02*
G37*
G36*
X521864Y243119D02*
X521795Y242932D01*
X521757Y242726D01*
X521752Y242503D01*
X521779Y242261D01*
X521838Y242002D01*
X521930Y241724D01*
X522053Y241428D01*
X522209Y241113D01*
X522398Y240781D01*
X520743Y240730D01*
X520323Y243009D01*
X521966Y243288D01*
X521864Y243119D01*
D02*
G37*
G36*
X510380Y240260D02*
X510370Y240350D01*
X510340Y240430D01*
X510290Y240501D01*
X510220Y240562D01*
X510130Y240614D01*
X510020Y240657D01*
X509890Y240690D01*
X509740Y240713D01*
X509570Y240728D01*
X509380Y240732D01*
Y241732D01*
X509570Y241737D01*
X509740Y241751D01*
X509890Y241775D01*
X510020Y241808D01*
X510130Y241850D01*
X510220Y241902D01*
X510290Y241964D01*
X510340Y242035D01*
X510370Y242115D01*
X510380Y242204D01*
Y240260D01*
D02*
G37*
G36*
X556535Y240160D02*
X556586Y239360D01*
X556598Y239350D01*
X555035Y239338D01*
X555130Y239349D01*
X555215Y239380D01*
X555290Y239431D01*
X555355Y239502D01*
X555410Y239593D01*
X555455Y239704D01*
X555490Y239836D01*
X555515Y239987D01*
X555530Y240159D01*
X555535Y240350D01*
X556535D01*
X556535Y240160D01*
D02*
G37*
G36*
X551614D02*
X551665Y239360D01*
X551677Y239350D01*
X550113Y239338D01*
X550208Y239349D01*
X550293Y239380D01*
X550368Y239431D01*
X550433Y239502D01*
X550488Y239593D01*
X550533Y239704D01*
X550568Y239836D01*
X550593Y239987D01*
X550608Y240159D01*
X550613Y240350D01*
X551613D01*
X551614Y240160D01*
D02*
G37*
G36*
X545788Y240139D02*
X545842Y239971D01*
X545901Y239823D01*
X545966Y239694D01*
X546036Y239585D01*
X546112Y239496D01*
X546194Y239427D01*
X546280Y239378D01*
X546373Y239348D01*
X546471Y239338D01*
X544419D01*
X544514Y239348D01*
X544593Y239377D01*
X544658Y239427D01*
X544708Y239496D01*
X544744Y239584D01*
X544765Y239692D01*
X544771Y239820D01*
X544763Y239968D01*
X544740Y240135D01*
X544702Y240322D01*
X545740Y240327D01*
X545788Y240139D01*
D02*
G37*
G36*
X533152Y236651D02*
X533109Y236670D01*
X533021Y236687D01*
X532886Y236701D01*
X532208Y236734D01*
X530663Y236750D01*
Y238250D01*
X533152Y238349D01*
Y236651D01*
D02*
G37*
G36*
X556596Y237820D02*
X556624Y237718D01*
X556670Y237617D01*
X556735Y237517D01*
X556819Y237419D01*
X556922Y237322D01*
X557043Y237227D01*
X557183Y237133D01*
X557341Y237040D01*
X557518Y236949D01*
X557460Y235783D01*
X557294Y235858D01*
X557146Y235915D01*
X557015Y235954D01*
X556901Y235974D01*
X556805Y235975D01*
X556726Y235957D01*
X556665Y235921D01*
X556621Y235866D01*
X556595Y235793D01*
X556586Y235701D01*
Y237924D01*
X556596Y237820D01*
D02*
G37*
G36*
X529852Y237211D02*
X530168Y236940D01*
X530263Y236871D01*
X530353Y236813D01*
X530439Y236766D01*
X530520Y236729D01*
X530595Y236703D01*
X530666Y236688D01*
X529312Y235334D01*
X529297Y235405D01*
X529271Y235480D01*
X529234Y235561D01*
X529187Y235647D01*
X529129Y235737D01*
X529060Y235832D01*
X528890Y236038D01*
X528677Y236263D01*
X529737Y237323D01*
X529852Y237211D01*
D02*
G37*
G36*
X558669Y236021D02*
X558946Y235795D01*
X559083Y235703D01*
X559218Y235625D01*
X559352Y235562D01*
X559484Y235512D01*
X559616Y235477D01*
X559745Y235456D01*
X559874Y235449D01*
X558138Y234436D01*
X558213Y234493D01*
X558262Y234563D01*
X558285Y234644D01*
X558282Y234738D01*
X558252Y234843D01*
X558197Y234961D01*
X558116Y235091D01*
X558009Y235232D01*
X557876Y235386D01*
X557717Y235552D01*
X558528Y236156D01*
X558669Y236021D01*
D02*
G37*
G36*
X546492Y234658D02*
X546407Y234648D01*
X546332Y234631D01*
X546267Y234607D01*
X546212Y234576D01*
X546167Y234539D01*
X546132Y234494D01*
X546107Y234442D01*
X546092Y234384D01*
X546087Y234319D01*
X545087D01*
X545082Y234384D01*
X545067Y234442D01*
X545042Y234494D01*
X545007Y234539D01*
X544962Y234576D01*
X544907Y234607D01*
X544842Y234631D01*
X544767Y234648D01*
X544682Y234658D01*
X544587Y234662D01*
X546587D01*
X546492Y234658D01*
D02*
G37*
G36*
X551413Y234652D02*
X551328Y234621D01*
X551253Y234571D01*
X551188Y234500D01*
X551133Y234409D01*
X551088Y234297D01*
X551053Y234166D01*
X551028Y234014D01*
X551013Y233842D01*
X551008Y233650D01*
X550008D01*
X550003Y233842D01*
X549988Y234014D01*
X549963Y234166D01*
X549928Y234297D01*
X549883Y234409D01*
X549828Y234500D01*
X549763Y234571D01*
X549688Y234621D01*
X549603Y234652D01*
X549508Y234662D01*
X551508D01*
X551413Y234652D01*
D02*
G37*
G36*
X556001Y235169D02*
X556036Y234662D01*
X556500D01*
X556405Y234652D01*
X556320Y234621D01*
X556245Y234571D01*
X556180Y234500D01*
X556125Y234409D01*
X556080Y234297D01*
X556064Y234238D01*
X556103Y233668D01*
X556127Y233626D01*
X554873D01*
X554897Y233668D01*
X554919Y233742D01*
X554938Y233848D01*
X554954Y233987D01*
X554962Y234123D01*
X554955Y234166D01*
X554920Y234297D01*
X554875Y234409D01*
X554820Y234500D01*
X554755Y234571D01*
X554680Y234621D01*
X554595Y234652D01*
X554500Y234662D01*
X554989D01*
X555000Y235503D01*
X556000D01*
X556001Y235169D01*
D02*
G37*
G36*
X546196Y233624D02*
X546262Y233465D01*
X546334Y233325D01*
X546410Y233203D01*
X546491Y233099D01*
X546577Y233014D01*
X546668Y232948D01*
X546764Y232901D01*
X546864Y232872D01*
X546970Y232862D01*
X545575Y232874D01*
X545571Y232758D01*
X545560Y232679D01*
X545542Y232638D01*
X545516Y232633D01*
X545482Y232666D01*
X545441Y232736D01*
X545393Y232843D01*
X545337Y232987D01*
X545204Y233386D01*
X546135Y233802D01*
X546196Y233624D01*
D02*
G37*
G36*
X550976Y232698D02*
X550880Y232007D01*
X550553Y230330D01*
X550518Y230351D01*
X550492Y230491D01*
X550477Y230749D01*
X550472Y231126D01*
X549481Y232862D01*
X549560Y232734D01*
X549634Y232638D01*
X549701Y232573D01*
X549762Y232540D01*
X549818Y232539D01*
X549868Y232569D01*
X549912Y232631D01*
X549950Y232725D01*
X549982Y232851D01*
X550008Y233008D01*
X550976Y232698D01*
D02*
G37*
G36*
X577595Y229059D02*
X577588Y229149D01*
X577567Y229228D01*
X577532Y229297D01*
X577483Y229355D01*
X577421Y229403D01*
X577344Y229440D01*
X577253Y229467D01*
X577149Y229483D01*
X577030Y229489D01*
X576898Y229484D01*
X576722Y229482D01*
X576426Y229460D01*
X576305Y229440D01*
X576204Y229415D01*
X576120Y229385D01*
X576056Y229349D01*
X576009Y229308D01*
X575982Y229261D01*
X575972Y229209D01*
Y230760D01*
X575982Y230707D01*
X576009Y230661D01*
X576056Y230619D01*
X576120Y230583D01*
X576204Y230553D01*
X576305Y230528D01*
X576426Y230509D01*
X576565Y230495D01*
X576898Y230484D01*
X577032Y230499D01*
X577152Y230523D01*
X577258Y230555D01*
X577350Y230597D01*
X577428Y230648D01*
X577492Y230708D01*
X577542Y230776D01*
X577577Y230854D01*
X577599Y230941D01*
X577607Y231037D01*
X577595Y229059D01*
D02*
G37*
G36*
X583091Y231777D02*
X583116Y231655D01*
X583157Y231533D01*
X583215Y231411D01*
X583290Y231287D01*
X583381Y231163D01*
X583489Y231038D01*
X583613Y230913D01*
X583754Y230787D01*
X583912Y230660D01*
X583646Y229556D01*
X583539Y229632D01*
X583443Y229687D01*
X583359Y229721D01*
X583286Y229735D01*
X583223Y229727D01*
X583173Y229699D01*
X583133Y229650D01*
X583105Y229580D01*
X583088Y229489D01*
X583082Y229378D01*
Y231897D01*
X583091Y231777D01*
D02*
G37*
G36*
X559500Y231503D02*
X559381Y230551D01*
X559874D01*
X559803Y230541D01*
X559739Y230511D01*
X559683Y230461D01*
X559635Y230391D01*
X559593Y230301D01*
X559560Y230191D01*
X559534Y230061D01*
X559515Y229911D01*
X559504Y229741D01*
X559500Y229551D01*
X559257D01*
X559247Y229476D01*
X559033Y229551D01*
X558500D01*
X558496Y229740D01*
X558215Y229839D01*
X558269Y229873D01*
X558318Y229937D01*
X558360Y230031D01*
X558397Y230155D01*
X558419Y230261D01*
X558406Y230301D01*
X558365Y230391D01*
X558317Y230461D01*
X558261Y230511D01*
X558197Y230541D01*
X558126Y230551D01*
X558459D01*
X558489Y230948D01*
X558500Y231524D01*
X559500Y231503D01*
D02*
G37*
G36*
X547363Y227635D02*
X547209Y227657D01*
X547050Y227657D01*
X546887Y227633D01*
X546719Y227586D01*
X546546Y227517D01*
X546369Y227424D01*
X546340Y227406D01*
X546364Y227347D01*
X546179Y227243D01*
X545887Y227047D01*
X545780Y226957D01*
X545699Y226871D01*
X545645Y226790D01*
X545616Y226713D01*
X545614Y226641D01*
X545638Y226573D01*
X545689Y226511D01*
X544484Y227661D01*
X544551Y227617D01*
X544637Y227592D01*
X544744Y227586D01*
X544871Y227599D01*
X545018Y227632D01*
X545185Y227684D01*
X545372Y227756D01*
X545660Y227888D01*
X546693Y228705D01*
X547363Y227635D01*
D02*
G37*
G36*
X595472Y226059D02*
X595303Y226054D01*
X595129Y226036D01*
X594950Y226008D01*
X594767Y225968D01*
X594386Y225854D01*
X594189Y225779D01*
X593780Y225596D01*
X593569Y225488D01*
X592680Y226137D01*
X592698Y225063D01*
X592517Y224996D01*
X592355Y224926D01*
X592211Y224852D01*
X592087Y224774D01*
X591983Y224692D01*
X591897Y224606D01*
X591830Y224517D01*
X591782Y224423D01*
X591753Y224326D01*
X591744Y224225D01*
Y226337D01*
X591753Y226243D01*
X591781Y226167D01*
X591828Y226107D01*
X591894Y226063D01*
X591978Y226035D01*
X592081Y226025D01*
X592202Y226030D01*
X592343Y226052D01*
X592502Y226091D01*
X592677Y226146D01*
X592930Y226286D01*
X593332Y226548D01*
X593476Y226665D01*
X593582Y226774D01*
X593650Y226873D01*
X593679Y226965D01*
X593671Y227047D01*
X593624Y227121D01*
X593540Y227185D01*
X595472Y226059D01*
D02*
G37*
G36*
X564874Y224873D02*
X564814Y224916D01*
X564724Y224955D01*
X564604Y224989D01*
X564455Y225018D01*
X564277Y225043D01*
X563830Y225080D01*
X562938Y225100D01*
Y225900D01*
X563265Y225902D01*
X564455Y225982D01*
X564604Y226011D01*
X564724Y226045D01*
X564814Y226084D01*
X564874Y226127D01*
Y224873D01*
D02*
G37*
G36*
X545629Y225720D02*
X545565Y225696D01*
X545509Y225656D01*
X545460Y225600D01*
X545419Y225528D01*
X545385Y225440D01*
X545359Y225336D01*
X545340Y225216D01*
X545329Y225080D01*
X545326Y224966D01*
X545329Y224852D01*
X545340Y224716D01*
X545359Y224596D01*
X545385Y224492D01*
X545419Y224404D01*
X545460Y224332D01*
X545509Y224276D01*
X545565Y224236D01*
X545629Y224212D01*
X545701Y224204D01*
X544150D01*
X544221Y224212D01*
X544285Y224236D01*
X544341Y224276D01*
X544390Y224332D01*
X544431Y224404D01*
X544465Y224492D01*
X544491Y224596D01*
X544510Y224716D01*
X544521Y224852D01*
X544524Y224966D01*
X544521Y225080D01*
X544510Y225216D01*
X544491Y225336D01*
X544465Y225440D01*
X544431Y225528D01*
X544390Y225600D01*
X544341Y225656D01*
X544285Y225696D01*
X544221Y225720D01*
X544150Y225728D01*
X545701D01*
X545629Y225720D01*
D02*
G37*
G36*
X550380Y222709D02*
X550012Y223078D01*
X550083Y223149D01*
X550147Y223224D01*
X550203Y223303D01*
X550252Y223386D01*
X550293Y223472D01*
X550328Y223563D01*
X550354Y223657D01*
X550374Y223755D01*
X550386Y223857D01*
X550390Y223963D01*
X550380Y222709D01*
D02*
G37*
G36*
X550578Y222512D02*
X550565Y222501D01*
X550551Y222492D01*
X550535Y222484D01*
X550517Y222477D01*
X550498Y222470D01*
X550477Y222465D01*
X550455Y222462D01*
X550405Y222457D01*
X550378Y222457D01*
X550380Y222709D01*
X550578Y222512D01*
D02*
G37*
G36*
X588203Y222762D02*
X588098Y222734D01*
X587997Y222688D01*
X587899Y222623D01*
X587805Y222539D01*
X587714Y222438D01*
X587626Y222318D01*
X587542Y222180D01*
X587461Y222023D01*
X587384Y221848D01*
X586321Y221826D01*
X586389Y222004D01*
X586441Y222162D01*
X586477Y222302D01*
X586495Y222424D01*
X586497Y222527D01*
X586482Y222611D01*
X586450Y222676D01*
X586402Y222723D01*
X586338Y222751D01*
X586256Y222760D01*
X588311Y222772D01*
X588203Y222762D01*
D02*
G37*
G36*
X553679Y220432D02*
X553559Y220306D01*
X553360Y220063D01*
X553281Y219945D01*
X553216Y219831D01*
X553165Y219719D01*
X553128Y219610D01*
X553106Y219504D01*
X553097Y219401D01*
X553102Y219301D01*
X552873Y221190D01*
X552928Y221162D01*
X552987Y221148D01*
X553052Y221148D01*
X553122Y221162D01*
X553197Y221190D01*
X553278Y221231D01*
X553364Y221287D01*
X553454Y221356D01*
X553550Y221439D01*
X553652Y221536D01*
X553679Y220432D01*
D02*
G37*
G36*
X548584Y222314D02*
X548545Y222224D01*
X548511Y222104D01*
X548482Y221955D01*
X548457Y221777D01*
X548420Y221330D01*
X548400Y220438D01*
X547600D01*
X547598Y220765D01*
X547518Y221955D01*
X547489Y222104D01*
X547455Y222224D01*
X547416Y222314D01*
X547373Y222374D01*
X548627D01*
X548584Y222314D01*
D02*
G37*
G36*
X584005Y220623D02*
X584019Y220551D01*
X584043Y220489D01*
X584076Y220434D01*
X584118Y220388D01*
X584170Y220350D01*
X584231Y220321D01*
X584302Y220300D01*
X584382Y220287D01*
X584472Y220283D01*
X582528D01*
X582618Y220287D01*
X582698Y220300D01*
X582769Y220321D01*
X582830Y220350D01*
X582882Y220388D01*
X582924Y220434D01*
X582958Y220489D01*
X582981Y220551D01*
X582995Y220623D01*
X583000Y220702D01*
X584000D01*
X584005Y220623D01*
D02*
G37*
G36*
X587199Y221264D02*
X587169Y221077D01*
X587144Y220764D01*
X587149Y220636D01*
X587166Y220528D01*
X587194Y220440D01*
X587234Y220372D01*
X587286Y220322D01*
X587350Y220293D01*
X587425Y220283D01*
X585487Y220271D01*
X585583Y220282D01*
X585674Y220312D01*
X585758Y220362D01*
X585836Y220432D01*
X585907Y220522D01*
X585972Y220632D01*
X586031Y220761D01*
X586083Y220910D01*
X586129Y221079D01*
X586169Y221268D01*
X587199Y221264D01*
D02*
G37*
G36*
X545658Y223920D02*
X545644Y223813D01*
X545649Y223690D01*
X545671Y223551D01*
X545710Y223395D01*
X545768Y223222D01*
X545843Y223033D01*
X546046Y222606D01*
X546175Y222368D01*
X545810Y221768D01*
X546438Y221864D01*
X546700Y221106D01*
X546048Y219597D01*
X546083Y219709D01*
X546101Y219844D01*
X546101Y220002D01*
X546083Y220182D01*
X546048Y220385D01*
X545996Y220610D01*
X545838Y221129D01*
X545638Y221667D01*
X545569Y221786D01*
X545349Y222116D01*
X545252Y222233D01*
X545162Y222318D01*
X545082Y222372D01*
X545010Y222395D01*
X544946Y222385D01*
X544890Y222344D01*
X544843Y222272D01*
X545689Y224010D01*
X545658Y223920D01*
D02*
G37*
G36*
X555628Y219485D02*
X556270Y219311D01*
X556441Y219232D01*
X555628Y219485D01*
X555490Y219522D01*
X555465Y219478D01*
X555439Y219445D01*
X555412Y219425D01*
X555385Y219416D01*
X555357Y219420D01*
X555327Y219435D01*
X555297Y219463D01*
X555266Y219502D01*
X555234Y219554D01*
X555201Y219618D01*
X555628Y219485D01*
D02*
G37*
G36*
X555846Y218662D02*
X555813Y218625D01*
X555788Y218587D01*
X555770Y218547D01*
X555759Y218506D01*
X555755Y218463D01*
X555758Y218418D01*
X555768Y218372D01*
X555785Y218324D01*
X555809Y218274D01*
X555840Y218224D01*
X553951Y218452D01*
X554051Y218447D01*
X554154Y218456D01*
X554260Y218479D01*
X554369Y218515D01*
X554481Y218566D01*
X554595Y218631D01*
X554713Y218710D01*
X554833Y218802D01*
X554956Y218909D01*
X555082Y219029D01*
X555846Y218662D01*
D02*
G37*
G36*
X547612Y218320D02*
X548000Y218243D01*
X548388Y218320D01*
X548399Y218327D01*
X548787Y218507D01*
X549176Y218327D01*
X549187Y218320D01*
X549575Y218243D01*
X549963Y218320D01*
X549974Y218327D01*
X550362Y218507D01*
X550751Y218327D01*
X550762Y218320D01*
X551150Y218243D01*
X551537Y218320D01*
X551548Y218327D01*
X551937Y218507D01*
X552326Y218327D01*
X552337Y218320D01*
X552724Y218243D01*
X552951Y217778D01*
X552970Y217687D01*
X552977Y217676D01*
X553156Y217287D01*
X552977Y216899D01*
X552970Y216887D01*
X552892Y216500D01*
X552970Y216112D01*
X552977Y216101D01*
X553156Y215712D01*
X552977Y215324D01*
X552970Y215313D01*
X552892Y214925D01*
X552970Y214537D01*
X552977Y214526D01*
X553156Y214138D01*
X552977Y213749D01*
X552970Y213738D01*
X552892Y213350D01*
X552970Y212962D01*
X553189Y212634D01*
Y212492D01*
X552970Y212163D01*
X552892Y211775D01*
X552970Y211388D01*
X553189Y211059D01*
X553518Y210839D01*
X553905Y210762D01*
X555480D01*
X555868Y210839D01*
X556197Y211059D01*
X556416Y211388D01*
X556494Y211775D01*
X556416Y212163D01*
X556197Y212492D01*
Y212634D01*
X556416Y212962D01*
X556494Y213350D01*
X556416Y213738D01*
X556409Y213749D01*
X556229Y214138D01*
X556409Y214526D01*
X556416Y214537D01*
X556494Y214925D01*
X556416Y215313D01*
X556409Y215324D01*
X556229Y215712D01*
X556409Y216101D01*
X556416Y216112D01*
X556494Y216500D01*
X556483Y216555D01*
X556860Y217055D01*
X576084D01*
X576429Y216638D01*
X576430Y216636D01*
X576301Y216312D01*
X576257Y216242D01*
X576190Y216213D01*
X572880D01*
Y216237D01*
X572085Y216132D01*
X572066Y216143D01*
X571956Y216115D01*
X571864Y216103D01*
X571740Y216106D01*
X571664Y216077D01*
X571556Y216062D01*
X570501Y215626D01*
X570143Y215487D01*
X570000Y215515D01*
X569420Y215400D01*
X568929Y215071D01*
X568600Y214580D01*
X568485Y214000D01*
X568583Y213506D01*
X568561Y213423D01*
X568449Y213257D01*
X568251Y213043D01*
X568196Y213050D01*
X568122Y213062D01*
X568010Y213088D01*
X567577Y213267D01*
X567546Y213292D01*
X567517Y213326D01*
X567500Y213355D01*
X567468Y213443D01*
X567415Y213502D01*
X567400Y213580D01*
X567071Y214071D01*
X566580Y214400D01*
X566000Y214515D01*
X565420Y214400D01*
X564929Y214071D01*
X564600Y213580D01*
X564485Y213000D01*
X564600Y212420D01*
X564929Y211929D01*
X565420Y211600D01*
X565879Y211509D01*
X565975Y211313D01*
X565700Y210897D01*
X560883D01*
Y210918D01*
X559245Y210757D01*
X557670Y210279D01*
X556218Y209503D01*
X555224Y208688D01*
X554945Y208459D01*
X554889Y208338D01*
X554588Y207971D01*
X554212Y207267D01*
X553736Y207437D01*
X553738Y207445D01*
Y209019D01*
X553660Y209407D01*
X553441Y209736D01*
X553112Y209956D01*
X552724Y210033D01*
X552337Y209956D01*
X552008Y209736D01*
X551788Y209407D01*
X551711Y209019D01*
Y207445D01*
X551788Y207057D01*
X552008Y206728D01*
X552337Y206509D01*
X552724Y206432D01*
X553112Y206509D01*
X553420Y206715D01*
X553464Y206704D01*
X553847Y206399D01*
X553601Y205588D01*
X553522Y204783D01*
X553500Y204556D01*
X553498Y204549D01*
X553498Y204549D01*
X553490Y204510D01*
X553474Y204298D01*
X553451Y203807D01*
X553326Y202543D01*
X553006Y201486D01*
X552815Y200856D01*
X551983Y199301D01*
X550893Y197972D01*
X550856Y197948D01*
X550427Y197518D01*
X550427Y197518D01*
X550419Y197526D01*
X549644Y196582D01*
X549608Y196553D01*
X549017Y196484D01*
X547367Y198135D01*
X547332Y198158D01*
X546543Y199187D01*
X546031Y200423D01*
X545910Y201340D01*
X546377Y201630D01*
X546420Y201600D01*
X547000Y201485D01*
X547580Y201600D01*
X547597Y201612D01*
X548047Y201311D01*
X547985Y201000D01*
X548100Y200420D01*
X548429Y199929D01*
X548920Y199600D01*
X549500Y199485D01*
X550080Y199600D01*
X550571Y199929D01*
X550900Y200420D01*
X551015Y201000D01*
X550900Y201580D01*
X550571Y202071D01*
X550080Y202400D01*
X549600Y202495D01*
Y203005D01*
X550080Y203100D01*
X550571Y203429D01*
X550900Y203920D01*
X551015Y204500D01*
X550900Y205080D01*
X550571Y205571D01*
X550080Y205900D01*
X550033Y206013D01*
X549963Y206509D01*
X550291Y206728D01*
X550511Y207057D01*
X550588Y207445D01*
Y209019D01*
X550511Y209407D01*
X550291Y209736D01*
X549963Y209956D01*
X549575Y210033D01*
X549187Y209956D01*
X549176Y209948D01*
X548787Y209769D01*
X548399Y209948D01*
X548388Y209956D01*
X548000Y210033D01*
X547612Y209956D01*
X547284Y209736D01*
X547142D01*
X546813Y209956D01*
X546425Y210033D01*
X546037Y209956D01*
X546026Y209948D01*
X545638Y209769D01*
X545249Y209948D01*
X545238Y209956D01*
X544850Y210033D01*
X544623Y210497D01*
X544605Y210588D01*
X544598Y210599D01*
X544418Y210988D01*
X544598Y211377D01*
X544605Y211388D01*
X544683Y211775D01*
X544605Y212163D01*
X544386Y212492D01*
Y212634D01*
X544605Y212962D01*
X544683Y213350D01*
X544605Y213738D01*
X544598Y213749D01*
X544418Y214138D01*
X544598Y214526D01*
X544605Y214537D01*
X544683Y214925D01*
X544605Y215313D01*
X544598Y215324D01*
X544418Y215712D01*
X544598Y216101D01*
X544605Y216112D01*
X544683Y216500D01*
X544605Y216887D01*
X544598Y216899D01*
X544418Y217287D01*
X544598Y217676D01*
X544605Y217687D01*
X544683Y218074D01*
X545147Y218302D01*
X545238Y218320D01*
X545249Y218327D01*
X545638Y218507D01*
X546026Y218327D01*
X546037Y218320D01*
X546425Y218243D01*
X546813Y218320D01*
X547142Y218539D01*
X547284D01*
X547612Y218320D01*
D02*
G37*
G36*
X585445Y218768D02*
X585465Y218727D01*
X585477Y218649D01*
X585480Y218536D01*
X586873Y218548D01*
X586766Y218537D01*
X586664Y218509D01*
X586566Y218462D01*
X586473Y218396D01*
X586385Y218312D01*
X586301Y218210D01*
X586221Y218089D01*
X586147Y217950D01*
X586076Y217792D01*
X586011Y217616D01*
X585089Y218044D01*
X585163Y218256D01*
X585339Y218675D01*
X585383Y218742D01*
X585418Y218773D01*
X585445Y218768D01*
D02*
G37*
G36*
X584374Y218537D02*
X584289Y218506D01*
X584213Y218455D01*
X584149Y218384D01*
X584094Y218293D01*
X584049Y218182D01*
X584014Y218050D01*
X583989Y217899D01*
X583974Y217727D01*
X583968Y217536D01*
X582969D01*
X582964Y217726D01*
X582951Y217896D01*
X582929Y218046D01*
X582898Y218176D01*
X582858Y218286D01*
X582810Y218376D01*
X582753Y218446D01*
X582686Y218496D01*
X582612Y218526D01*
X582528Y218536D01*
X584469Y218548D01*
X584374Y218537D01*
D02*
G37*
G36*
X579932Y217090D02*
X579974Y216387D01*
X579984Y216365D01*
X579079D01*
X579089Y216387D01*
X579098Y216425D01*
X579106Y216476D01*
X579118Y216623D01*
X579131Y217090D01*
X579132Y217243D01*
X579931D01*
X579932Y217090D01*
D02*
G37*
G36*
X598122Y214559D02*
X598112Y214612D01*
X598082Y214658D01*
X598032Y214700D01*
X597962Y214736D01*
X597872Y214766D01*
X597762Y214791D01*
X597632Y214810D01*
X597482Y214824D01*
X597122Y214835D01*
Y215835D01*
X597312Y215837D01*
X597632Y215859D01*
X597762Y215879D01*
X597872Y215903D01*
X597962Y215934D01*
X598032Y215970D01*
X598082Y216011D01*
X598112Y216058D01*
X598122Y216110D01*
Y214559D01*
D02*
G37*
G36*
X592982Y216058D02*
X593012Y216011D01*
X593062Y215970D01*
X593132Y215934D01*
X593222Y215903D01*
X593332Y215879D01*
X593462Y215859D01*
X593612Y215846D01*
X593972Y215835D01*
Y214835D01*
X593782Y214832D01*
X593462Y214810D01*
X593332Y214791D01*
X593222Y214766D01*
X593132Y214736D01*
X593062Y214700D01*
X593012Y214658D01*
X592982Y214612D01*
X592972Y214559D01*
Y216110D01*
X592982Y216058D01*
D02*
G37*
G36*
X591028Y214919D02*
X591372Y214575D01*
X591028Y214559D01*
Y214919D01*
X590665Y215282D01*
X590734Y215355D01*
X590796Y215430D01*
X590850Y215507D01*
X590897Y215587D01*
X590937Y215669D01*
X590970Y215752D01*
X590995Y215839D01*
X591013Y215927D01*
X591024Y216017D01*
X591028Y216110D01*
Y214919D01*
D02*
G37*
G36*
X577085Y214393D02*
X577077Y214469D01*
X577053Y214537D01*
X577012Y214597D01*
X576956Y214649D01*
X576883Y214693D01*
X576793Y214729D01*
X576688Y214757D01*
X576566Y214777D01*
X576428Y214789D01*
X576273Y214793D01*
Y215593D01*
X576428Y215597D01*
X576566Y215609D01*
X576688Y215629D01*
X576793Y215657D01*
X576883Y215693D01*
X576956Y215737D01*
X577012Y215789D01*
X577053Y215849D01*
X577077Y215917D01*
X577085Y215993D01*
Y214393D01*
D02*
G37*
G36*
X572519Y214775D02*
X572243Y214740D01*
X571991Y214690D01*
X571764Y214626D01*
X571561Y214548D01*
X571383Y214455D01*
X571229Y214349D01*
X571099Y214228D01*
X570995Y214093D01*
X570914Y213944D01*
X570858Y213780D01*
X570276Y214842D01*
X571974Y215500D01*
X572519Y214775D01*
D02*
G37*
G36*
X600067Y214559D02*
X599995Y214549D01*
X599931Y214519D01*
X599874Y214469D01*
X599825Y214399D01*
X599783Y214309D01*
X599749Y214199D01*
X599723Y214069D01*
X599704Y213919D01*
X599693Y213749D01*
X599689Y213559D01*
X598689D01*
X598684Y213751D01*
X598669Y213923D01*
X598644Y214074D01*
X598609Y214205D01*
X598564Y214317D01*
X598509Y214408D01*
X598444Y214479D01*
X598369Y214530D01*
X598284Y214561D01*
X598189Y214571D01*
X600067Y214559D01*
D02*
G37*
G36*
X589736Y212938D02*
X589676Y212815D01*
X589635Y212705D01*
X589611Y212609D01*
X589606Y212524D01*
X589618Y212453D01*
X589648Y212394D01*
X589697Y212349D01*
X589763Y212316D01*
X589847Y212296D01*
X589948Y212289D01*
X587704Y212305D01*
X587804Y212314D01*
X587904Y212342D01*
X588004Y212389D01*
X588105Y212455D01*
X588205Y212541D01*
X588306Y212645D01*
X588407Y212769D01*
X588507Y212912D01*
X588608Y213074D01*
X588709Y213255D01*
X589736Y212938D01*
D02*
G37*
G36*
X599693Y212826D02*
X599707Y212655D01*
X599730Y212506D01*
X599761Y212376D01*
X599802Y212265D01*
X599852Y212176D01*
X599911Y212105D01*
X599979Y212055D01*
X600056Y212026D01*
X600141Y212016D01*
X598236D01*
X598322Y212026D01*
X598399Y212055D01*
X598467Y212105D01*
X598526Y212176D01*
X598576Y212265D01*
X598617Y212376D01*
X598648Y212506D01*
X598671Y212655D01*
X598685Y212826D01*
X598689Y213016D01*
X599689D01*
X599693Y212826D01*
D02*
G37*
G36*
X595047Y210004D02*
X595037Y210099D01*
X595007Y210184D01*
X594957Y210259D01*
X594887Y210324D01*
X594797Y210379D01*
X594687Y210424D01*
X594557Y210459D01*
X594518Y210466D01*
X594502Y210463D01*
X594372Y210432D01*
X594262Y210391D01*
X594172Y210341D01*
X594102Y210282D01*
X594052Y210214D01*
X594022Y210137D01*
X594012Y210051D01*
Y211957D01*
X594022Y211871D01*
X594052Y211794D01*
X594102Y211726D01*
X594172Y211667D01*
X594262Y211617D01*
X594372Y211576D01*
X594502Y211545D01*
X594518Y211542D01*
X594557Y211549D01*
X594687Y211584D01*
X594797Y211629D01*
X594887Y211684D01*
X594957Y211749D01*
X595007Y211824D01*
X595037Y211909D01*
X595047Y212004D01*
Y210004D01*
D02*
G37*
G36*
X566910Y213077D02*
X566988Y212945D01*
X567092Y212825D01*
X567222Y212718D01*
X567377Y212625D01*
X567558Y212545D01*
X567765Y212478D01*
X567998Y212424D01*
X568256Y212383D01*
X568541Y212355D01*
X567855Y211445D01*
X566285Y212161D01*
X566857Y213223D01*
X566910Y213077D01*
D02*
G37*
G36*
X591354Y210056D02*
X591074Y209891D01*
X590196Y209441D01*
X590123Y209426D01*
X590086Y209436D01*
X590083Y209472D01*
X590114Y209532D01*
X588983Y210355D01*
X589080Y210301D01*
X589191Y210268D01*
X589319Y210257D01*
X589462Y210266D01*
X589621Y210296D01*
X589795Y210347D01*
X589984Y210420D01*
X590190Y210513D01*
X590647Y210763D01*
X591354Y210056D01*
D02*
G37*
G36*
X591988Y210051D02*
X591982Y210110D01*
X591963Y210156D01*
X591931Y210189D01*
X591887Y210208D01*
X591830Y210215D01*
X591760Y210209D01*
X591677Y210190D01*
X591582Y210158D01*
X591474Y210114D01*
X591354Y210056D01*
X591064Y211100D01*
X591240Y211193D01*
X591535Y211373D01*
X591656Y211461D01*
X591757Y211548D01*
X591841Y211633D01*
X591905Y211716D01*
X591951Y211798D01*
X591979Y211878D01*
X591988Y211957D01*
Y210051D01*
D02*
G37*
G36*
X573045Y209426D02*
X573022Y209436D01*
X572985Y209444D01*
X572933Y209452D01*
X572786Y209465D01*
X572320Y209477D01*
X572167Y209478D01*
Y210278D01*
X572320Y210279D01*
X573022Y210320D01*
X573045Y210330D01*
Y209426D01*
D02*
G37*
G36*
Y207457D02*
X573022Y207467D01*
X572985Y207476D01*
X572933Y207484D01*
X572786Y207496D01*
X572320Y207509D01*
X572167Y207509D01*
Y208309D01*
X572320Y208310D01*
X573022Y208352D01*
X573045Y208362D01*
Y207457D01*
D02*
G37*
G36*
X592000Y206909D02*
X591990Y207004D01*
X591959Y207089D01*
X591908Y207164D01*
X591837Y207229D01*
X591746Y207284D01*
X591635Y207329D01*
X591503Y207364D01*
X591352Y207389D01*
X591180Y207404D01*
X590988Y207409D01*
Y208409D01*
X591178Y208413D01*
X591498Y208442D01*
X591628Y208467D01*
X591738Y208499D01*
X591828Y208538D01*
X591898Y208585D01*
X591948Y208639D01*
X591978Y208699D01*
X591988Y208768D01*
X592000Y206909D01*
D02*
G37*
G36*
X594020Y208663D02*
X594046Y208556D01*
X594090Y208448D01*
X594150Y208339D01*
X594229Y208228D01*
X594324Y208115D01*
X594437Y208001D01*
X594567Y207886D01*
X594714Y207769D01*
X594879Y207651D01*
X594407Y206732D01*
X594369Y206757D01*
X594331Y206779D01*
X594292Y206799D01*
X594253Y206816D01*
X594213Y206830D01*
X594174Y206841D01*
X594134Y206851D01*
X594093Y206857D01*
X594053Y206861D01*
X594012Y206862D01*
Y208768D01*
X594020Y208663D01*
D02*
G37*
G36*
X561891Y207498D02*
X561615Y207467D01*
X561362Y207421D01*
X561134Y207360D01*
X560931Y207285D01*
X560752Y207194D01*
X560597Y207089D01*
X560467Y206969D01*
X560361Y206835D01*
X560280Y206685D01*
X560224Y206521D01*
X559648Y207582D01*
X561347Y208229D01*
X561891Y207498D01*
D02*
G37*
G36*
X573045Y205489D02*
X573022Y205499D01*
X572985Y205507D01*
X572933Y205515D01*
X572786Y205528D01*
X572320Y205540D01*
X572167Y205541D01*
Y206341D01*
X572320Y206342D01*
X573022Y206383D01*
X573045Y206393D01*
Y205489D01*
D02*
G37*
G36*
X595280Y207280D02*
X595581Y207036D01*
X595716Y206951D01*
X595840Y206890D01*
X595955Y206854D01*
X596058Y206842D01*
X596152Y206854D01*
X596235Y206891D01*
X596308Y206953D01*
X594953Y205479D01*
X595009Y205558D01*
X595040Y205647D01*
X595046Y205747D01*
X595028Y205856D01*
X594986Y205977D01*
X594919Y206107D01*
X594828Y206248D01*
X594712Y206399D01*
X594572Y206560D01*
X594407Y206732D01*
X595114Y207439D01*
X595280Y207280D01*
D02*
G37*
G36*
X570466Y205907D02*
X570711Y205483D01*
X570757Y205495D01*
X570796Y205499D01*
X570827Y205494D01*
X570851Y205480D01*
X570868Y205456D01*
X570877Y205424D01*
X570878Y205384D01*
X570871Y205334D01*
X570858Y205275D01*
X570836Y205208D01*
X570466Y205907D01*
X570307Y206184D01*
X570229Y206356D01*
X570466Y205907D01*
D02*
G37*
G36*
X605866Y206880D02*
X605914Y206851D01*
X605994Y206825D01*
X606106Y206803D01*
X606250Y206784D01*
X606634Y206756D01*
X607450Y206741D01*
Y205141D01*
X607146Y205139D01*
X605994Y205057D01*
X605914Y205031D01*
X605866Y205001D01*
X605850Y204969D01*
Y206913D01*
X605866Y206880D01*
D02*
G37*
G36*
X600063Y206912D02*
X600111Y206876D01*
X600191Y206845D01*
X600303Y206817D01*
X600447Y206794D01*
X600495Y206789D01*
X601006Y206825D01*
X601086Y206851D01*
X601134Y206880D01*
X601150Y206913D01*
Y206752D01*
X601343Y206743D01*
X601647Y206741D01*
Y205141D01*
X601343Y205139D01*
X601150Y205125D01*
Y204969D01*
X601134Y205001D01*
X601086Y205031D01*
X601006Y205057D01*
X600894Y205079D01*
X600756Y205097D01*
X600303Y205065D01*
X600191Y205037D01*
X600111Y205006D01*
X600063Y204970D01*
X600047Y204929D01*
Y205132D01*
X599550Y205141D01*
Y206741D01*
X599854Y206743D01*
X600047Y206756D01*
Y206953D01*
X600063Y206912D01*
D02*
G37*
G36*
X548498Y206639D02*
X548567Y206399D01*
X548650Y206184D01*
X548748Y205994D01*
X548859Y205828D01*
X548985Y205688D01*
X549125Y205573D01*
X549279Y205482D01*
X549447Y205417D01*
X549630Y205376D01*
X548632Y204675D01*
X547769Y206291D01*
X548444Y206904D01*
X548498Y206639D01*
D02*
G37*
G36*
X610024Y204341D02*
X610008Y204493D01*
X609960Y204629D01*
X609879Y204749D01*
X609766Y204853D01*
X609621Y204941D01*
X609444Y205013D01*
X609234Y205069D01*
X608992Y205109D01*
X608718Y205133D01*
X608412Y205141D01*
Y206741D01*
X608718Y206749D01*
X608992Y206773D01*
X609234Y206813D01*
X609444Y206869D01*
X609621Y206941D01*
X609766Y207029D01*
X609879Y207133D01*
X609960Y207253D01*
X610008Y207389D01*
X610024Y207541D01*
Y204341D01*
D02*
G37*
G36*
X574858Y203495D02*
X574757Y203499D01*
X574654Y203490D01*
X574547Y203466D01*
X574438Y203429D01*
X574327Y203378D01*
X574212Y203314D01*
X574095Y203235D01*
X573975Y203143D01*
X573852Y203037D01*
X573727Y202917D01*
X572607Y202929D01*
X572742Y203069D01*
X572937Y203309D01*
X572997Y203409D01*
X573033Y203495D01*
X573043Y203567D01*
X573029Y203626D01*
X572990Y203671D01*
X572926Y203703D01*
X572837Y203721D01*
X574858Y203495D01*
D02*
G37*
G36*
X605876Y204556D02*
X605959Y203404D01*
X605985Y203324D01*
X606014Y203276D01*
X606047Y203260D01*
X604103D01*
X604135Y203276D01*
X604165Y203324D01*
X604190Y203404D01*
X604213Y203516D01*
X604232Y203660D01*
X604259Y204044D01*
X604275Y204860D01*
X605875D01*
X605876Y204556D01*
D02*
G37*
G36*
X546852Y204120D02*
X546870Y204089D01*
X546896Y204058D01*
X546931Y204027D01*
X546974Y203995D01*
X547026Y203962D01*
X547086Y203929D01*
X547233Y203861D01*
X547320Y203826D01*
X546128Y203158D01*
X546139Y203224D01*
X546158Y203406D01*
X546160Y203461D01*
X546155Y203562D01*
X546149Y203608D01*
X546141Y203651D01*
X546130Y203692D01*
X546843Y204150D01*
X546852Y204120D01*
D02*
G37*
G36*
X590185Y203717D02*
X590168Y203642D01*
X590168Y203561D01*
X590185Y203473D01*
X590219Y203379D01*
X590271Y203278D01*
X590341Y203171D01*
X590427Y203058D01*
X590531Y202938D01*
X590652Y202811D01*
X589273Y202776D01*
X589116Y202926D01*
X588812Y203174D01*
X588665Y203273D01*
X588522Y203353D01*
X588382Y203416D01*
X588246Y203462D01*
X588113Y203490D01*
X587984Y203501D01*
X587859Y203495D01*
X590220Y203785D01*
X590185Y203717D01*
D02*
G37*
G36*
X572554Y201837D02*
X571739Y201292D01*
X571396Y202572D01*
X571502Y202526D01*
X571607Y202492D01*
X571710Y202472D01*
X571811Y202466D01*
X571911Y202473D01*
X572009Y202493D01*
X572105Y202527D01*
X572199Y202574D01*
X572292Y202635D01*
X572383Y202709D01*
X572554Y201837D01*
D02*
G37*
G36*
X589637Y201487D02*
X589597Y201456D01*
X589561Y201420D01*
X589527Y201380D01*
X589497Y201335D01*
X589469Y201285D01*
X589445Y201231D01*
X589423Y201171D01*
X589405Y201108D01*
X589389Y201039D01*
X589377Y200965D01*
X588417Y201974D01*
X588458Y201980D01*
X588505Y201993D01*
X588556Y202011D01*
X588613Y202036D01*
X588744Y202103D01*
X588895Y202194D01*
X589068Y202309D01*
X589637Y201487D01*
D02*
G37*
G36*
X591004Y202466D02*
X591146Y202344D01*
X591280Y202245D01*
X591406Y202168D01*
X591523Y202114D01*
X591632Y202081D01*
X591733Y202071D01*
X591825Y202082D01*
X591910Y202117D01*
X591985Y202173D01*
X590540Y200814D01*
X590600Y200886D01*
X590639Y200965D01*
X590655Y201053D01*
X590649Y201150D01*
X590621Y201255D01*
X590570Y201367D01*
X590497Y201489D01*
X590403Y201618D01*
X590286Y201756D01*
X590146Y201902D01*
X590854Y202609D01*
X591004Y202466D01*
D02*
G37*
G36*
X592482Y202133D02*
X592512Y202086D01*
X592562Y202044D01*
X592632Y202009D01*
X592722Y201978D01*
X592832Y201954D01*
X592962Y201934D01*
X593112Y201921D01*
X593274Y201916D01*
X593668Y201943D01*
X593778Y201962D01*
X593868Y201986D01*
X593938Y202013D01*
X593988Y202045D01*
X594018Y202081D01*
X594028Y202122D01*
Y200571D01*
X594018Y200635D01*
X593988Y200693D01*
X593938Y200744D01*
X593868Y200788D01*
X593778Y200825D01*
X593668Y200855D01*
X593538Y200879D01*
X593388Y200896D01*
X593247Y200904D01*
X592962Y200885D01*
X592832Y200865D01*
X592722Y200841D01*
X592632Y200810D01*
X592562Y200775D01*
X592512Y200733D01*
X592482Y200686D01*
X592472Y200634D01*
Y202185D01*
X592482Y202133D01*
D02*
G37*
G36*
X584133Y197559D02*
X584166Y197554D01*
X584204Y197545D01*
X584248Y197533D01*
X583133Y196866D01*
X583140Y196896D01*
X583154Y196940D01*
X583161Y196954D01*
X583168Y196965D01*
X583176Y196970D01*
X583183Y196970D01*
X583191Y196966D01*
X583199Y196957D01*
X583207Y196943D01*
X584054Y197501D01*
X584049Y197519D01*
X584049Y197534D01*
X584055Y197546D01*
X584066Y197554D01*
X584083Y197559D01*
X584105Y197561D01*
X584133Y197559D01*
D02*
G37*
G36*
X550606Y195425D02*
X550476Y195176D01*
X550368Y194940D01*
X550283Y194715D01*
X550220Y194502D01*
X550181Y194301D01*
X550164Y194111D01*
X550170Y193934D01*
X550199Y193768D01*
X550250Y193614D01*
X550325Y193471D01*
X549506Y193666D01*
X548806Y193440D01*
X548882Y193601D01*
X548929Y193767D01*
X548946Y193937D01*
X548934Y194111D01*
X548892Y194290D01*
X548821Y194474D01*
X548720Y194662D01*
X548590Y194854D01*
X548431Y195051D01*
X548242Y195253D01*
X549153Y195425D01*
X549477Y194758D01*
X549747Y195505D01*
X550606Y195425D01*
D02*
G37*
G36*
X587176Y196994D02*
X587565Y196562D01*
X587736Y196400D01*
X587892Y196274D01*
X588031Y196185D01*
X588154Y196131D01*
X588262Y196114D01*
X588354Y196133D01*
X588430Y196188D01*
X587063Y194718D01*
X587115Y194803D01*
X587134Y194914D01*
X587121Y195050D01*
X587076Y195211D01*
X586999Y195398D01*
X586889Y195609D01*
X586746Y195846D01*
X586365Y196396D01*
X586126Y196708D01*
X586957Y197264D01*
X587176Y196994D01*
D02*
G37*
G36*
X573397Y193688D02*
X573460Y193580D01*
X573543Y193483D01*
X573644Y193398D01*
X573763Y193324D01*
X573901Y193262D01*
X574057Y193211D01*
X574232Y193171D01*
X574425Y193143D01*
X574637Y193127D01*
X573972Y192210D01*
X572727Y192707D01*
X573351Y193808D01*
X573397Y193688D01*
D02*
G37*
G36*
X584374Y191997D02*
X584332Y192021D01*
X584258Y192042D01*
X584152Y192061D01*
X584013Y192078D01*
X583401Y192112D01*
X582497Y192124D01*
Y193124D01*
X582831Y193125D01*
X584332Y193226D01*
X584374Y193250D01*
Y191997D01*
D02*
G37*
G36*
X514543Y185692D02*
X514521Y185725D01*
X514457Y185809D01*
X514437Y185831D01*
X514418Y185850D01*
X514399Y185867D01*
X514380Y185881D01*
X514362Y185892D01*
X514345Y185900D01*
X514588Y186891D01*
X514601Y186887D01*
X514619Y186885D01*
X514642Y186887D01*
X514669Y186892D01*
X514701Y186901D01*
X514780Y186926D01*
X514878Y186964D01*
X514935Y186988D01*
X514543Y185692D01*
D02*
G37*
G36*
X517615Y181308D02*
X513746Y183604D01*
X514299Y184438D01*
X514661Y184226D01*
X515028Y184066D01*
X515401Y183958D01*
X515778Y183903D01*
X516161Y183901D01*
X516549Y183950D01*
X516943Y184052D01*
X517341Y184207D01*
X517745Y184414D01*
X518154Y184673D01*
X517615Y181308D01*
D02*
G37*
%LPC*%
G36*
X495005Y247212D02*
X494945Y247186D01*
X494880Y247198D01*
X494846Y247175D01*
X491278D01*
Y242825D01*
X492944D01*
X493058Y242791D01*
X493339Y242571D01*
X493461Y242438D01*
X493565Y242216D01*
X493714Y241829D01*
X493568Y241367D01*
X493349Y241277D01*
X492968Y241146D01*
X492605Y241045D01*
X492258Y240973D01*
X491928Y240931D01*
X491615Y240916D01*
X491318Y240927D01*
X491005Y240968D01*
X490887Y240937D01*
X490500Y240988D01*
X489727Y240886D01*
X489006Y240587D01*
X488387Y240113D01*
X487913Y239494D01*
X487614Y238773D01*
X487512Y238000D01*
X487614Y237227D01*
X487913Y236506D01*
X488387Y235887D01*
X489006Y235413D01*
X489727Y235114D01*
X490500Y235012D01*
X491273Y235114D01*
X491994Y235413D01*
X492613Y235887D01*
X492672Y235965D01*
X492743Y235994D01*
X492926Y236172D01*
X493132Y236320D01*
X493407Y236472D01*
X493752Y236623D01*
X494164Y236768D01*
X494628Y236901D01*
X496468Y237251D01*
X496619Y237270D01*
X497543Y236512D01*
X499255Y235596D01*
X499668Y235471D01*
X499745Y235407D01*
X500004Y235327D01*
X500428Y235171D01*
X500575Y235105D01*
X500689Y235043D01*
X500762Y234995D01*
X500772Y234986D01*
Y234558D01*
X501294D01*
X501384Y234520D01*
X501436Y234542D01*
X501491Y234529D01*
X501537Y234558D01*
X505319D01*
Y237923D01*
X501523D01*
X501512Y237930D01*
X501392Y237957D01*
X501384Y237960D01*
X501384Y237960D01*
X501383Y237960D01*
X501381Y237960D01*
X500391Y238182D01*
X500140Y238254D01*
X500120Y238252D01*
X499078Y238809D01*
X498004Y239690D01*
X498004Y239705D01*
X497889Y239807D01*
X497845Y239830D01*
X497843Y239995D01*
X498055Y240413D01*
X498266Y240487D01*
X498283Y240501D01*
X498305Y240502D01*
X498347Y240519D01*
X498606Y240553D01*
X500728D01*
Y242626D01*
X500766Y242716D01*
X500728Y242807D01*
Y243634D01*
X500766Y243725D01*
X500728Y243815D01*
Y245887D01*
X497560D01*
Y243815D01*
X497522Y243725D01*
X497536Y243690D01*
X497379Y243172D01*
X496762Y243003D01*
X496452Y243035D01*
X496185Y243297D01*
X496042Y243738D01*
X495957Y244062D01*
X495813Y244759D01*
X495762Y245094D01*
X495671Y246201D01*
X495665Y246573D01*
X495639Y246634D01*
X495651Y246699D01*
X495628Y246732D01*
Y247175D01*
X495100D01*
X495005Y247212D01*
D02*
G37*
G36*
X576486Y245462D02*
X570561D01*
Y239538D01*
X576486D01*
Y245462D01*
D02*
G37*
G36*
X583524Y245488D02*
X582750Y245386D01*
X582030Y245088D01*
X581411Y244613D01*
X580936Y243994D01*
X580638Y243273D01*
X580536Y242500D01*
X580638Y241727D01*
X580936Y241006D01*
X581411Y240387D01*
X582030Y239913D01*
X582750Y239614D01*
X583524Y239512D01*
X584297Y239614D01*
X585017Y239913D01*
X585636Y240387D01*
X586111Y241006D01*
X586410Y241727D01*
X586511Y242500D01*
X586410Y243273D01*
X586111Y243994D01*
X585636Y244613D01*
X585017Y245088D01*
X584297Y245386D01*
X583524Y245488D01*
D02*
G37*
G36*
X511205Y237923D02*
X510705Y237676D01*
X510309Y237755D01*
X509729Y237640D01*
X509238Y237311D01*
X508909Y236820D01*
X508794Y236240D01*
X508909Y235660D01*
X509238Y235169D01*
X509729Y234840D01*
X510309Y234725D01*
X510705Y234804D01*
X511205Y234558D01*
Y234558D01*
X515752D01*
Y237923D01*
X511205D01*
X511205Y237923D01*
D02*
G37*
G36*
X508910Y231515D02*
X508330Y231400D01*
X507839Y231071D01*
X507510Y230580D01*
X507493Y230493D01*
X507438Y230432D01*
X507408Y230347D01*
X507392Y230318D01*
X507361Y230282D01*
X507307Y230237D01*
X507289Y230224D01*
X506831Y230035D01*
X506772Y230018D01*
X506554Y229972D01*
X506323Y229937D01*
X505916Y229883D01*
X505916Y229883D01*
X505725Y229909D01*
X505724Y229909D01*
X505557Y229913D01*
X505433Y229924D01*
X505423Y229925D01*
X505327Y229941D01*
X505319Y229943D01*
Y230443D01*
X500772D01*
Y227077D01*
X505319D01*
Y227577D01*
X505327Y227579D01*
X505423Y227595D01*
X505916Y227614D01*
Y227614D01*
X507308Y227797D01*
X508061Y228109D01*
X508345Y227685D01*
X507452Y226793D01*
X507452Y226793D01*
X507452Y226792D01*
X507442Y226778D01*
X506627Y226152D01*
X505661Y225752D01*
X504812Y225640D01*
X504323Y225944D01*
Y225986D01*
X503801D01*
X503711Y226023D01*
X503670Y226007D01*
X503628Y226018D01*
X503572Y225986D01*
X501154D01*
Y223014D01*
X503572D01*
X503628Y222982D01*
X503670Y222993D01*
X503711Y222977D01*
X503801Y223014D01*
X504323D01*
Y223330D01*
X504491Y223347D01*
X504638Y223351D01*
X504699Y223377D01*
X505844Y223490D01*
X507017Y223846D01*
X508097Y224424D01*
X508669Y224892D01*
X509044Y225200D01*
X509045Y225201D01*
X509039Y225207D01*
X509700Y225869D01*
X510050Y226218D01*
X510424Y226522D01*
X511047Y227000D01*
X511054Y227003D01*
X511112Y227000D01*
X511334Y227077D01*
X511727D01*
X511817Y227040D01*
X511876Y227064D01*
X511938Y227051D01*
X511978Y227077D01*
X515752D01*
Y230443D01*
X511205D01*
Y229720D01*
X511171Y229654D01*
X510748Y229416D01*
X510736Y229421D01*
X510366Y229705D01*
X510366Y229705D01*
X510425Y230000D01*
X510310Y230580D01*
X509981Y231071D01*
X509490Y231400D01*
X508910Y231515D01*
D02*
G37*
G36*
X510254Y216622D02*
X510219Y216607D01*
X510182Y216618D01*
X510121Y216584D01*
X508641D01*
X508589Y216613D01*
X508555Y216603D01*
X508522Y216617D01*
X508442Y216584D01*
X507894D01*
Y216085D01*
X507863Y216066D01*
X507793Y216035D01*
X507693Y216002D01*
X507565Y215968D01*
X507394Y215935D01*
X507337Y215897D01*
X505819Y215437D01*
X504210Y214577D01*
X502800Y213419D01*
X502800Y213419D01*
X502463Y213049D01*
X500207Y210793D01*
X500198Y210802D01*
X499557Y209968D01*
X499155Y208996D01*
X499018Y207953D01*
X499030D01*
Y206547D01*
X499018D01*
X499155Y205504D01*
X499557Y204532D01*
X500198Y203698D01*
X500193Y203693D01*
X500556Y203414D01*
X500344Y202947D01*
X500000Y203015D01*
X499420Y202900D01*
X498929Y202571D01*
X498600Y202080D01*
X498485Y201500D01*
X498600Y200920D01*
X498929Y200429D01*
X498805Y199910D01*
X498584Y199580D01*
X498469Y199000D01*
X498584Y198420D01*
X498912Y197929D01*
X499404Y197600D01*
X499984Y197485D01*
X500563Y197600D01*
X501055Y197929D01*
X501334Y198347D01*
X504262D01*
X504303Y198355D01*
X505443D01*
X505869Y198440D01*
X506231Y198681D01*
X506472Y199042D01*
X506557Y199469D01*
X506472Y199895D01*
X506231Y200256D01*
Y200650D01*
X506472Y201011D01*
X506557Y201437D01*
X506472Y201863D01*
X506231Y202224D01*
Y202618D01*
X506472Y202979D01*
X506557Y203405D01*
X506472Y203832D01*
X506231Y204193D01*
Y204587D01*
X506472Y204948D01*
X506557Y205374D01*
X506472Y205800D01*
X506286Y206078D01*
X506392Y206389D01*
X506510Y206556D01*
X506623Y206557D01*
X506624Y206555D01*
X506986Y206314D01*
X507412Y206229D01*
X507838Y206314D01*
X508056Y206459D01*
X508396Y206520D01*
X508736Y206459D01*
X508954Y206314D01*
X509380Y206229D01*
X509806Y206314D01*
X510024Y206459D01*
X510364Y206520D01*
X510705Y206459D01*
X510923Y206314D01*
X511349Y206229D01*
X511775Y206314D01*
X512136Y206555D01*
X512530D01*
X512891Y206314D01*
X513317Y206229D01*
X513743Y206314D01*
X513961Y206459D01*
X514301Y206520D01*
X514642Y206459D01*
X514860Y206314D01*
X515286Y206229D01*
X515712Y206314D01*
X516073Y206555D01*
X516467D01*
X516828Y206314D01*
X517254Y206229D01*
X517680Y206314D01*
X517898Y206459D01*
X518238Y206520D01*
X518579Y206459D01*
X518797Y206314D01*
X519223Y206229D01*
X519649Y206314D01*
X520010Y206555D01*
X520252Y206916D01*
X520336Y207343D01*
Y209705D01*
X520252Y210131D01*
X520010Y210492D01*
X519649Y210734D01*
X519223Y210818D01*
X518797Y210734D01*
X518579Y210588D01*
X518238Y210527D01*
X517898Y210588D01*
X517680Y210734D01*
X517254Y210818D01*
X516828Y210734D01*
X516610Y210588D01*
X516270Y210527D01*
X515930Y210588D01*
X515712Y210734D01*
X515286Y210818D01*
X515284Y210819D01*
X515012Y210961D01*
X514834Y211142D01*
X514821Y211164D01*
X514803Y211232D01*
Y213315D01*
X514841Y213436D01*
X514868Y213489D01*
X514885Y213510D01*
X515303Y213679D01*
X515420Y213600D01*
X516000Y213485D01*
X516580Y213600D01*
X517071Y213929D01*
X517400Y214420D01*
X517515Y215000D01*
X517400Y215580D01*
X517071Y216071D01*
X516580Y216400D01*
X516000Y216515D01*
X515420Y216400D01*
X515303Y216321D01*
X515225Y216349D01*
X514803Y216561D01*
X514803Y216561D01*
X514803Y216561D01*
X514281D01*
X514191Y216598D01*
X514154Y216583D01*
X514115Y216594D01*
X514056Y216561D01*
X512578D01*
X512519Y216594D01*
X512480Y216583D01*
X512443Y216598D01*
X512353Y216561D01*
X511831D01*
Y216179D01*
X511829Y216178D01*
X511730Y216164D01*
X511600Y216153D01*
X511428Y216149D01*
X511365Y216122D01*
X511333D01*
X511270Y216149D01*
X511099Y216154D01*
X510971Y216164D01*
X510875Y216179D01*
X510866Y216182D01*
Y216584D01*
X510344D01*
X510254Y216622D01*
D02*
G37*
G36*
X523553Y206487D02*
X521191D01*
X520765Y206403D01*
X520404Y206161D01*
X520162Y205800D01*
X520078Y205374D01*
X520162Y204948D01*
X520404Y204587D01*
Y204193D01*
X520162Y203832D01*
X520078Y203405D01*
X520162Y202979D01*
X520404Y202618D01*
Y202224D01*
X520162Y201863D01*
X520078Y201437D01*
X520162Y201011D01*
X520404Y200650D01*
Y200256D01*
X520162Y199895D01*
X520078Y199469D01*
X520162Y199042D01*
X520404Y198681D01*
Y198287D01*
X520162Y197926D01*
X520078Y197500D01*
X520162Y197074D01*
X520404Y196713D01*
Y196319D01*
X520162Y195958D01*
X520078Y195531D01*
X520162Y195105D01*
X520404Y194744D01*
Y194350D01*
X520162Y193989D01*
X520078Y193563D01*
X520162Y193137D01*
X520404Y192776D01*
X520765Y192534D01*
X521191Y192449D01*
X523553D01*
X523980Y192534D01*
X524341Y192776D01*
X524582Y193137D01*
X524667Y193563D01*
X524582Y193989D01*
X524341Y194350D01*
Y194744D01*
X524582Y195105D01*
X524667Y195531D01*
X524582Y195958D01*
X524341Y196319D01*
Y196713D01*
X524582Y197074D01*
X524667Y197500D01*
X524582Y197926D01*
X524341Y198287D01*
Y198681D01*
X524582Y199042D01*
X524667Y199469D01*
X524582Y199895D01*
X524341Y200256D01*
Y200650D01*
X524582Y201011D01*
X524667Y201437D01*
X524582Y201863D01*
X524341Y202224D01*
Y202618D01*
X524582Y202979D01*
X524667Y203405D01*
X524582Y203832D01*
X524341Y204193D01*
Y204587D01*
X524582Y204948D01*
X524667Y205374D01*
X524582Y205800D01*
X524341Y206161D01*
X523980Y206403D01*
X523553Y206487D01*
D02*
G37*
G36*
X505443Y196645D02*
X503081D01*
X502655Y196560D01*
X502294Y196319D01*
X502052Y195958D01*
X501967Y195531D01*
X502052Y195105D01*
X502294Y194744D01*
Y194350D01*
X502052Y193989D01*
X501967Y193563D01*
X502052Y193137D01*
X502294Y192776D01*
X502655Y192534D01*
X503081Y192449D01*
X505443D01*
X505869Y192534D01*
X506231Y192776D01*
X506472Y193137D01*
X506557Y193563D01*
X506472Y193989D01*
X506231Y194350D01*
Y194744D01*
X506472Y195105D01*
X506557Y195531D01*
X506472Y195958D01*
X506231Y196319D01*
X505869Y196560D01*
X505443Y196645D01*
D02*
G37*
G36*
X566500Y186988D02*
X565727Y186886D01*
X565006Y186588D01*
X564387Y186113D01*
X563912Y185494D01*
X563614Y184773D01*
X563512Y184000D01*
X563614Y183227D01*
X563912Y182506D01*
X564387Y181887D01*
X565006Y181412D01*
X565727Y181114D01*
X566500Y181012D01*
X567273Y181114D01*
X567994Y181412D01*
X568613Y181887D01*
X569088Y182506D01*
X569386Y183227D01*
X569488Y184000D01*
X569386Y184773D01*
X569088Y185494D01*
X568613Y186113D01*
X567994Y186588D01*
X567273Y186886D01*
X566500Y186988D01*
D02*
G37*
G36*
X555366D02*
X554593Y186886D01*
X553872Y186588D01*
X553253Y186113D01*
X552778Y185494D01*
X552480Y184773D01*
X552378Y184000D01*
X552480Y183227D01*
X552778Y182506D01*
X553253Y181887D01*
X553872Y181412D01*
X554593Y181114D01*
X555366Y181012D01*
X556139Y181114D01*
X556860Y181412D01*
X557479Y181887D01*
X557953Y182506D01*
X558252Y183227D01*
X558354Y184000D01*
X558252Y184773D01*
X557953Y185494D01*
X557479Y186113D01*
X556860Y186588D01*
X556139Y186886D01*
X555366Y186988D01*
D02*
G37*
%LPD*%
G36*
X499896Y243931D02*
X499909Y243725D01*
X500116D01*
X500074Y243710D01*
X500036Y243665D01*
X500003Y243590D01*
X499974Y243485D01*
X499950Y243350D01*
X499939Y243261D01*
X499950Y243091D01*
X499974Y242956D01*
X500003Y242851D01*
X500036Y242776D01*
X500074Y242731D01*
X500116Y242716D01*
X499902D01*
X499894Y242225D01*
X498394D01*
X498392Y242510D01*
X498379Y242716D01*
X498172D01*
Y241165D01*
X498159Y241150D01*
X498119Y241128D01*
X498053Y241100D01*
X497842Y241027D01*
X496852Y240739D01*
X496716Y242317D01*
X498172Y242716D01*
X498214Y242731D01*
X498252Y242776D01*
X498285Y242851D01*
X498314Y242956D01*
X498338Y243091D01*
X498349Y243180D01*
X498338Y243350D01*
X498314Y243485D01*
X498285Y243590D01*
X498252Y243665D01*
X498214Y243710D01*
X498172Y243725D01*
X498386D01*
X498394Y244216D01*
X499894D01*
X499896Y243931D01*
D02*
G37*
G36*
X495022Y246169D02*
X495116Y245018D01*
X495173Y244645D01*
X495325Y243913D01*
X495419Y243555D01*
X495646Y242854D01*
X494320Y242063D01*
X494163Y242471D01*
X493865Y243107D01*
X493724Y243334D01*
X493588Y243502D01*
X493458Y243609D01*
X493333Y243656D01*
X493214Y243643D01*
X493100Y243570D01*
X492992Y243437D01*
X495016Y246563D01*
X495022Y246169D01*
D02*
G37*
G36*
X495625Y239976D02*
X495183Y239719D01*
X494626Y239341D01*
X495503Y239355D01*
X496198Y239403D01*
X496947Y239477D01*
X497114Y237986D01*
X496367Y237893D01*
X494478Y237533D01*
X493966Y237387D01*
X493513Y237228D01*
X493119Y237055D01*
X492784Y236870D01*
X492508Y236671D01*
X492290Y236459D01*
X492095Y238198D01*
X490920Y240324D01*
X491263Y240279D01*
X491618Y240266D01*
X491986Y240283D01*
X492365Y240333D01*
X492757Y240413D01*
X493161Y240525D01*
X493577Y240669D01*
X494006Y240844D01*
X494899Y241288D01*
X495625Y239976D01*
D02*
G37*
G36*
X500230Y237552D02*
X501370Y237297D01*
X501384Y237311D01*
Y235170D01*
X501370Y235256D01*
X501326Y235343D01*
X501254Y235429D01*
X501153Y235515D01*
X501022Y235601D01*
X500863Y235687D01*
X500675Y235773D01*
X500212Y235943D01*
X499937Y236028D01*
X499959Y237631D01*
X500230Y237552D01*
D02*
G37*
G36*
X511817Y236757D02*
X511908Y236752D01*
X512812Y236740D01*
Y235740D01*
X512478Y235739D01*
X511817Y235694D01*
Y235240D01*
X511807Y235335D01*
X511777Y235420D01*
X511727Y235495D01*
X511657Y235560D01*
X511567Y235615D01*
X511457Y235660D01*
X511428Y235668D01*
X510977Y235637D01*
X510935Y235613D01*
Y235737D01*
X510817Y235740D01*
Y236740D01*
X510935Y236743D01*
Y236867D01*
X510977Y236843D01*
X511051Y236821D01*
X511157Y236802D01*
X511296Y236786D01*
X511322Y236784D01*
X511327Y236785D01*
X511457Y236820D01*
X511567Y236865D01*
X511657Y236920D01*
X511727Y236985D01*
X511777Y237060D01*
X511807Y237145D01*
X511817Y237240D01*
Y236757D01*
D02*
G37*
G36*
X508644Y229155D02*
X507076Y228404D01*
X506388Y229290D01*
X506671Y229333D01*
X506927Y229387D01*
X507158Y229452D01*
X507363Y229528D01*
X507542Y229616D01*
X507696Y229714D01*
X507823Y229823D01*
X507925Y229943D01*
X508001Y230074D01*
X508051Y230216D01*
X508644Y229155D01*
D02*
G37*
G36*
X504705Y229665D02*
X504735Y229580D01*
X504786Y229505D01*
X504857Y229440D01*
X504948Y229385D01*
X505059Y229340D01*
X505191Y229305D01*
X505342Y229280D01*
X505514Y229265D01*
X505707Y229260D01*
Y228260D01*
X505514Y228255D01*
X505342Y228240D01*
X505191Y228215D01*
X505059Y228180D01*
X504948Y228135D01*
X504857Y228080D01*
X504786Y228015D01*
X504735Y227940D01*
X504705Y227855D01*
X504695Y227760D01*
Y229760D01*
X504705Y229665D01*
D02*
G37*
G36*
X511817Y227689D02*
X511808Y227738D01*
X511781Y227774D01*
X511735Y227798D01*
X511670Y227809D01*
X511587Y227808D01*
X511486Y227794D01*
X511367Y227767D01*
X511229Y227729D01*
X510898Y227613D01*
X510875Y228713D01*
X511054Y228786D01*
X511214Y228864D01*
X511355Y228944D01*
X511478Y229027D01*
X511582Y229114D01*
X511666Y229204D01*
X511732Y229297D01*
X511780Y229393D01*
X511808Y229492D01*
X511817Y229595D01*
Y227689D01*
D02*
G37*
G36*
X503720Y225303D02*
X503747Y225239D01*
X503793Y225183D01*
X503857Y225135D01*
X503939Y225094D01*
X504040Y225060D01*
X504158Y225034D01*
X504295Y225015D01*
X504451Y225004D01*
X504624Y225000D01*
Y224000D01*
X504451Y223996D01*
X504158Y223966D01*
X504040Y223940D01*
X503939Y223906D01*
X503857Y223865D01*
X503793Y223817D01*
X503747Y223761D01*
X503720Y223697D01*
X503711Y223626D01*
Y225374D01*
X503720Y225303D01*
D02*
G37*
G36*
X514201Y215863D02*
X514231Y215787D01*
X514281Y215720D01*
X514351Y215662D01*
X514441Y215612D01*
X514551Y215572D01*
X514622Y215555D01*
X515332Y215603D01*
X515374Y215627D01*
Y214373D01*
X515332Y214397D01*
X515258Y214419D01*
X515152Y214438D01*
X515013Y214454D01*
X514760Y214469D01*
X514681Y214455D01*
X514551Y214421D01*
X514441Y214376D01*
X514351Y214321D01*
X514281Y214257D01*
X514231Y214183D01*
X514201Y214098D01*
X514191Y214004D01*
Y214491D01*
X513497Y214500D01*
Y215500D01*
X513831Y215501D01*
X514191Y215526D01*
Y215949D01*
X514201Y215863D01*
D02*
G37*
G36*
X510264Y215882D02*
X510294Y215802D01*
X510344Y215731D01*
X510414Y215670D01*
X510504Y215618D01*
X510614Y215576D01*
X510744Y215543D01*
X510894Y215519D01*
X511064Y215505D01*
X511254Y215500D01*
Y214500D01*
X511064Y214495D01*
X510894Y214481D01*
X510744Y214458D01*
X510614Y214424D01*
X510504Y214382D01*
X510414Y214330D01*
X510344Y214269D01*
X510294Y214198D01*
X510264Y214118D01*
X510254Y214028D01*
Y215972D01*
X510264Y215882D01*
D02*
G37*
G36*
X508506Y214028D02*
X508497Y214104D01*
X508467Y214169D01*
X508418Y214222D01*
X508349Y214264D01*
X508261Y214294D01*
X508152Y214313D01*
X508025Y214320D01*
X507877Y214315D01*
X507710Y214299D01*
X507523Y214271D01*
X507519Y215298D01*
X507709Y215335D01*
X507878Y215379D01*
X508028Y215429D01*
X508157Y215486D01*
X508267Y215550D01*
X508357Y215620D01*
X508427Y215697D01*
X508477Y215781D01*
X508508Y215871D01*
X508518Y215967D01*
X508506Y214028D01*
D02*
G37*
G36*
X512443Y214004D02*
X512433Y214098D01*
X512403Y214183D01*
X512353Y214257D01*
X512283Y214321D01*
X512193Y214376D01*
X512083Y214421D01*
X511953Y214455D01*
X511803Y214480D01*
X511633Y214495D01*
X511443Y214500D01*
Y215500D01*
X511633Y215505D01*
X511803Y215518D01*
X511953Y215540D01*
X512083Y215572D01*
X512193Y215612D01*
X512283Y215662D01*
X512353Y215720D01*
X512403Y215787D01*
X512433Y215863D01*
X512443Y215949D01*
Y214004D01*
D02*
G37*
G36*
X510183Y211065D02*
X510119Y211035D01*
X510063Y210985D01*
X510015Y210915D01*
X509974Y210825D01*
X509940Y210715D01*
X509914Y210585D01*
X509895Y210435D01*
X509884Y210265D01*
X509880Y210075D01*
X508880D01*
X508877Y210265D01*
X508847Y210585D01*
X508820Y210715D01*
X508787Y210825D01*
X508746Y210915D01*
X508697Y210985D01*
X508641Y211035D01*
X508577Y211065D01*
X508506Y211075D01*
X510254D01*
X510183Y211065D01*
D02*
G37*
G36*
X514120Y211041D02*
X514056Y211011D01*
X514000Y210961D01*
X513952Y210891D01*
X513911Y210801D01*
X513877Y210691D01*
X513851Y210561D01*
X513832Y210411D01*
X513821Y210241D01*
X513817Y210051D01*
X512817D01*
X512814Y210241D01*
X512784Y210561D01*
X512757Y210691D01*
X512724Y210801D01*
X512683Y210891D01*
X512634Y210961D01*
X512578Y211011D01*
X512514Y211041D01*
X512443Y211051D01*
X514191D01*
X514120Y211041D01*
D02*
G37*
G36*
X503168Y208512D02*
X503242Y208491D01*
X503348Y208472D01*
X503487Y208455D01*
X504099Y208421D01*
X505003Y208409D01*
Y207409D01*
X504669Y207408D01*
X503168Y207307D01*
X503126Y207283D01*
Y208536D01*
X503168Y208512D01*
D02*
G37*
G36*
X506980Y207145D02*
X506968Y207243D01*
X506935Y207326D01*
X506882Y207392D01*
X506810Y207442D01*
X506716Y207476D01*
X506603Y207495D01*
X506470Y207497D01*
X506316Y207484D01*
X506142Y207455D01*
X505948Y207410D01*
X506001Y208411D01*
X506180Y208463D01*
X506341Y208521D01*
X506482Y208585D01*
X506604Y208654D01*
X506707Y208730D01*
X506791Y208811D01*
X506855Y208898D01*
X506901Y208990D01*
X506927Y209089D01*
X506934Y209193D01*
X506980Y207145D01*
D02*
G37*
G36*
X504541Y206640D02*
X504609Y206474D01*
X504681Y206329D01*
X504757Y206202D01*
X504836Y206095D01*
X504919Y206007D01*
X505005Y205939D01*
X505095Y205890D01*
X505188Y205861D01*
X505285Y205852D01*
X503184D01*
X503272Y205861D01*
X503344Y205889D01*
X503401Y205936D01*
X503442Y206001D01*
X503468Y206085D01*
X503478Y206188D01*
X503472Y206309D01*
X503451Y206450D01*
X503414Y206608D01*
X503362Y206786D01*
X504476Y206825D01*
X504541Y206640D01*
D02*
G37*
G36*
X502312Y204228D02*
X503205Y203920D01*
X503454Y203860D01*
X503678Y203821D01*
X503877Y203804D01*
X504052Y203809D01*
X504202Y203835D01*
X504327Y203883D01*
X502735Y203059D01*
X502751Y203025D01*
X502745Y203004D01*
X502716Y202994D01*
X502666Y202998D01*
X502594Y203013D01*
X502500Y203042D01*
X502246Y203135D01*
X501903Y203279D01*
X501965Y204374D01*
X502312Y204228D01*
D02*
G37*
G36*
X500690Y202079D02*
X500770Y202049D01*
X500882Y202023D01*
X501025Y202000D01*
X501405Y201965D01*
X502211Y201939D01*
X502542Y201937D01*
X502456Y200937D01*
X500611Y200858D01*
X500640Y202112D01*
X500690Y202079D01*
D02*
G37*
G36*
X500809Y198679D02*
X500716Y198811D01*
X500263Y199704D01*
X500241Y199847D01*
X500809Y198679D01*
D02*
G37*
G54D15*
X546547Y232000D02*
D03*
X549500D02*
D03*
X502739Y224500D02*
D03*
X499786D02*
D03*
X513430Y244500D02*
D03*
X510477D02*
D03*
X514254Y247732D02*
D03*
X517207D02*
D03*
X590976Y195326D02*
D03*
X588024D02*
D03*
X586453Y219409D02*
D03*
X583500D02*
D03*
G54D18*
X489165Y250732D02*
D03*
X495071D02*
D03*
X487547Y245000D02*
D03*
X493453D02*
D03*
G54D19*
X511156Y241232D02*
D03*
X514305D02*
D03*
X541776Y223232D02*
D03*
X544925D02*
D03*
X541776Y226701D02*
D03*
X544925D02*
D03*
X578788Y197484D02*
D03*
X575638D02*
D03*
X601925Y205941D02*
D03*
X605075D02*
D03*
G54D20*
X618000Y196143D02*
D03*
Y216143D02*
D03*
Y206143D02*
D03*
G54D21*
X499144Y241941D02*
D03*
Y244500D02*
D03*
Y247059D02*
D03*
Y249618D02*
D03*
X507412Y241941D02*
D03*
Y244500D02*
D03*
Y247059D02*
D03*
Y249618D02*
D03*
X551350Y226382D02*
D03*
Y223232D02*
D03*
X575000Y229984D02*
D03*
Y226835D02*
D03*
X605075Y202484D02*
D03*
Y199335D02*
D03*
X599094Y215335D02*
D03*
Y218484D02*
D03*
X592000Y215335D02*
D03*
Y218484D02*
D03*
X595000Y201346D02*
D03*
Y198197D02*
D03*
X591500Y201409D02*
D03*
Y198260D02*
D03*
X594500Y226835D02*
D03*
Y229984D02*
D03*
G54D31*
X555429Y237000D02*
D03*
X540665D02*
D03*
X545587D02*
D03*
X550508D02*
D03*
G54D57*
X583468Y197966D02*
X584000Y196683D01*
X591238Y201518D02*
X591500Y201409D01*
X590500Y202256D02*
X589728Y202102D01*
X589073Y201665D01*
X581378Y196508D02*
X581500Y197621D01*
X580000Y194000D02*
X580615Y194744D01*
X581080Y195590D01*
X581378Y196508D01*
X576677Y192624D02*
X577594Y192714D01*
X578475Y192981D01*
X579288Y193416D01*
X580000Y194000D01*
X572500Y193563D02*
X573164Y193053D01*
X573938Y192733D01*
X574768Y192624D01*
X566000Y213000D02*
X566816Y212374D01*
X567766Y211981D01*
X568785Y211846D01*
X538449Y251000D02*
X538551Y249964D01*
X538853Y248967D01*
X539344Y248049D01*
X540005Y247244D01*
X545587Y237715D02*
X545527Y238781D01*
X545348Y239834D01*
X545053Y240860D01*
X544644Y241847D01*
X544128Y242781D01*
X543510Y243653D01*
X542799Y244449D01*
X545587Y234319D02*
X545698Y233470D01*
X546026Y232679D01*
X546547Y232000D01*
X542799Y244449D02*
X542796Y244453D01*
X549500Y232000D02*
X550213Y232295D01*
X550508Y233008D01*
X558450Y228880D02*
X559000Y229430D01*
X551113Y244567D02*
X551056Y245586D01*
X550885Y246592D01*
X550603Y247572D01*
X550212Y248514D01*
X549719Y249407D01*
X549129Y250239D01*
X548449Y251000D01*
X513479Y228760D02*
X512545Y228686D01*
X511633Y228468D01*
X510768Y228109D01*
X509969Y227620D01*
X509257Y227011D01*
X508245Y225999D02*
X508246Y226000D01*
X504624Y224500D02*
X505623Y224598D01*
X506583Y224890D01*
X507469Y225363D01*
X508245Y225999D01*
X505916Y228760D02*
X507012Y228904D01*
X508033Y229327D01*
X508910Y230000D01*
X504262Y205466D02*
X504043Y206567D01*
X503419Y207500D01*
X505929Y207909D02*
X506731Y208069D01*
X507412Y208524D01*
X509380Y215000D02*
X508315Y214930D01*
X507268Y214722D01*
X506257Y214379D01*
X505300Y213907D01*
X504412Y213314D01*
X503610Y212610D01*
X501283Y199469D02*
X500152Y199000D01*
X500000Y201500D02*
X500152Y201437D01*
X513317Y188183D02*
X513581Y187198D01*
X514301Y186478D01*
X515286Y186214D01*
X514022Y184021D02*
X514806Y183565D01*
X515637Y183204D01*
X516504Y182943D01*
X517396Y182785D01*
X518301Y182732D01*
X512825Y185000D02*
X513399Y184481D01*
X514022Y184021D01*
X511349Y188564D02*
X511446Y187581D01*
X511732Y186635D01*
X512198Y185764D01*
X512825Y185000D01*
X555500Y236829D02*
X555429Y237000D01*
X558070Y235906D02*
X557297Y236500D01*
X556396Y236873D01*
X555429Y237000D01*
X558449Y251000D02*
X557738Y250189D01*
X557139Y249293D01*
X556662Y248326D01*
X556316Y247305D01*
X556105Y246248D01*
X556035Y245172D01*
X593000Y207815D02*
X592772Y207909D01*
X594761Y207086D02*
X593953Y207625D01*
X593000Y207815D01*
X595000Y201346D02*
X594848Y201409D01*
X579075Y197484D02*
X579531Y198587D01*
X585437Y200626D02*
X585518Y199601D01*
X585758Y198602D01*
X586151Y197653D01*
X586688Y196776D01*
X587355Y195995D01*
X509985Y247779D02*
X508778Y247280D01*
X514254Y247732D02*
X514140Y247779D01*
X507412Y241941D02*
X508197Y241417D01*
X509123Y241232D01*
X508246Y247059D02*
X508778Y247280D01*
X501000Y210000D02*
X500372Y209061D01*
X500152Y207953D01*
Y206547D02*
X500372Y205439D01*
X501000Y204500D01*
X501774Y203906D01*
X502675Y203533D01*
X503642Y203405D01*
X584000Y229909D02*
X583224Y230546D01*
X582338Y231020D01*
X581378Y231311D01*
X580379Y231409D01*
X589717Y209878D02*
X591000Y210409D01*
X590337Y225110D02*
X591258Y225183D01*
X592156Y225398D01*
X593010Y225752D01*
X593797Y226235D01*
X594500Y226835D01*
X588683Y224793D02*
X588026Y224044D01*
X587473Y223216D01*
X587032Y222323D01*
X586712Y221380D01*
X586518Y220403D01*
X586453Y219409D01*
X584000Y221909D02*
X584500Y223117D01*
X576898Y229984D02*
X577847Y230078D01*
X578760Y230355D01*
X579601Y230804D01*
X580339Y231409D01*
X599189Y215107D02*
X599094Y215335D01*
X592435Y211004D02*
X591658Y210849D01*
X591000Y210409D01*
X592000Y215335D02*
X591019Y214928D01*
X589382Y213291D02*
X588939Y212629D01*
X588784Y211846D01*
X584000Y221909D02*
X583500Y220702D01*
X586453Y219409D02*
X585902Y218691D01*
X585555Y217855D01*
X585437Y216957D01*
X584500Y228702D02*
X584000Y229909D01*
X583468Y197966D02*
Y200626D01*
X591500Y201409D02*
X594848D01*
X590500Y202256D02*
X591238Y201518D01*
X588784Y203972D02*
X590500Y202256D01*
X588500Y201092D02*
X589073Y201665D01*
X576677Y192624D02*
X585000D01*
X574768D02*
X576677D01*
X581500Y197621D02*
Y200626D01*
X568785Y211846D02*
X574217D01*
X545587Y237000D02*
Y237715D01*
Y234319D02*
Y237000D01*
X540005Y247244D02*
X542796Y244453D01*
X551113Y237000D02*
Y244567D01*
X550508Y233008D02*
Y237000D01*
X559000Y229430D02*
Y231524D01*
X510309Y236240D02*
X513479D01*
X508246Y226000D02*
X509257Y227011D01*
X508245Y225999D02*
X508246Y226000D01*
X502739Y224500D02*
X504624D01*
X503046Y228760D02*
X505916D01*
X502500Y207909D02*
X505929D01*
X509380Y215000D02*
X515286D01*
X504262Y205374D02*
Y205466D01*
X501283Y199469D02*
X504262D01*
X499984Y199000D02*
X500152D01*
Y201437D02*
X504262D01*
X513317Y188183D02*
Y190413D01*
X518301Y182732D02*
X519500D01*
X511349Y188564D02*
Y190413D01*
X556035Y236500D02*
Y245172D01*
X555500Y233000D02*
Y236829D01*
X558070Y235906D02*
X559000Y234976D01*
X594761Y207086D02*
X595905Y205941D01*
X588784Y207909D02*
X592772D01*
X579531Y198587D02*
Y200626D01*
X587355Y195995D02*
X588024Y195326D01*
X509985Y247779D02*
X511278D01*
X514140D01*
X509123Y241232D02*
X511156D01*
X507412Y244500D02*
X510477D01*
X507412Y247059D02*
X508246D01*
X501000Y210000D02*
X503610Y212610D01*
X500152Y206547D02*
Y207953D01*
X503642Y203405D02*
X504262D01*
X513317Y208524D02*
Y212024D01*
X509380Y208524D02*
Y212047D01*
X589382Y213291D02*
X591019Y214928D01*
X588784Y209878D02*
X589717D01*
X592000Y215335D02*
X599094D01*
X589000Y225110D02*
X590337D01*
X599189Y211004D02*
Y215107D01*
X575000Y229984D02*
X576898D01*
X592435Y211004D02*
X593000D01*
X596000D01*
X583500Y219409D02*
Y220702D01*
X583468Y219378D02*
X583500Y219409D01*
X583468Y215193D02*
Y219378D01*
X585437Y215193D02*
Y216957D01*
X584500Y223117D02*
Y228702D01*
X588683Y224793D02*
X589000Y225110D01*
X580339Y231409D02*
X580379D01*
G54D58*
X571065Y205941D02*
X570000Y205500D01*
X571000Y201780D02*
X571946Y201968D01*
X572748Y202504D01*
X562183Y207909D02*
X561152Y207774D01*
X560191Y207376D01*
X559366Y206743D01*
X555681Y207723D02*
X555069Y206742D01*
X554673Y205655D01*
X554510Y204510D01*
X560883Y209878D02*
X559923Y209815D01*
X558979Y209627D01*
X558068Y209318D01*
X557205Y208892D01*
X556404Y208358D01*
X555681Y207723D01*
X572880Y215193D02*
X571826Y215054D01*
X570844Y214647D01*
X570000Y214000D01*
X555563Y218944D02*
X555563Y218945D01*
X556000Y220000D01*
X579531Y217256D02*
X578713Y218075D01*
X546425Y204388D02*
X546575Y203637D01*
X547000Y203000D01*
X554510Y204510D02*
X554506Y204298D01*
X554000Y201157D02*
X554280Y202184D01*
X554449Y203235D01*
X554506Y204298D01*
X551577Y197227D02*
X552204Y197915D01*
X552765Y198659D01*
X553254Y199452D01*
X553667Y200288D01*
X554000Y201157D01*
X549575Y193000D02*
X549453Y193928D01*
X549094Y194793D01*
X548525Y195536D01*
X551148Y196797D02*
X550480Y195984D01*
X549984Y195055D01*
X549678Y194048D01*
X549575Y193000D01*
X547500Y228000D02*
X546322Y227766D01*
X545323Y227098D01*
X548000Y207414D02*
X548116Y206530D01*
X548457Y205707D01*
X549000Y205000D01*
X562324Y225500D02*
X561343Y225452D01*
X560373Y225308D01*
X559421Y225069D01*
X558497Y224739D01*
X557610Y224319D01*
X556768Y223815D01*
X555979Y223230D01*
X555252Y222571D01*
X547500Y228000D02*
X547555Y228133D01*
X551350Y223232D02*
X550295Y222795D01*
X550000Y222500D02*
X549575Y221474D01*
X544925Y223664D02*
X545231Y222926D01*
X546425Y220043D02*
X546286Y221098D01*
X545879Y222082D01*
X545231Y222926D01*
X544850Y201749D02*
X544926Y200790D01*
X545150Y199855D01*
X545518Y198966D01*
X546021Y198146D01*
X546646Y197414D01*
X571065Y205941D02*
X574217D01*
X572748Y202504D02*
X574217Y203972D01*
X562183Y207909D02*
X574217D01*
X560883Y209878D02*
X574217D01*
X572880Y215193D02*
X577563D01*
X579531D02*
Y217256D01*
X555563Y218944D02*
X555563Y218945D01*
X554693Y218075D02*
X555563Y218944D01*
X554693Y218075D02*
X578713D01*
X546425Y204388D02*
Y208232D01*
X551148Y196797D02*
X551577Y197227D01*
X548000Y207414D02*
Y208232D01*
X549000Y205000D02*
X549500Y204500D01*
X562324Y225500D02*
X565500D01*
X552724Y220043D02*
X555252Y222571D01*
X544925Y226701D02*
X545323Y227098D01*
X544925Y223664D02*
Y226701D01*
X547555Y228133D02*
Y228500D01*
X550000Y222500D02*
X550295Y222795D01*
X549575Y220043D02*
Y221474D01*
X548000Y220043D02*
Y223000D01*
X544850Y201749D02*
Y208232D01*
X546646Y197414D02*
X548525Y195536D01*
G54D59*
X497030Y238732D02*
X497742Y238096D01*
X498520Y237544D01*
X499355Y237083D01*
X500236Y236718D01*
X501153Y236453D01*
X502093Y236294D01*
X503046Y236240D01*
X495262Y240632D02*
X495186Y241598D01*
X494960Y242541D01*
X494589Y243436D01*
X494082Y244263D01*
X493453Y245000D01*
X498741Y241941D02*
X497781Y241846D01*
X496858Y241566D01*
X496008Y241112D01*
X495262Y240500D01*
X521000Y243125D02*
X521102Y242088D01*
X521405Y241091D01*
X521896Y240172D01*
X522557Y239367D01*
X518477Y243255D02*
X517597Y243931D01*
X516572Y244355D01*
X515472Y244500D01*
X513147Y250732D02*
X514150Y250932D01*
X515000Y251500D01*
X522557Y239367D02*
X523428Y238809D01*
X524352Y238345D01*
X525319Y237978D01*
X526320Y237713D01*
X527341Y237554D01*
X528374Y237500D01*
X521303Y240429D02*
X521908Y239872D01*
X522557Y239367D01*
X509651Y251406D02*
X510398Y250907D01*
X511278Y250732D01*
X499144Y249618D02*
X498356Y250223D01*
X497439Y250603D01*
X496454Y250732D01*
X499778Y252279D02*
X499309Y251577D01*
X499144Y250749D01*
X501185Y252862D02*
X500423Y252711D01*
X499778Y252279D01*
X508778D02*
X508132Y252711D01*
X507371Y252862D01*
X506428Y252414D02*
X506104Y252776D01*
X507412Y249618D02*
X507299Y250617D01*
X506965Y251565D01*
X506428Y252414D01*
X490500Y238000D02*
X495262Y240632D01*
X490500Y238000D02*
X497030Y238732D01*
X511278Y250732D02*
X513147D01*
X518477Y243255D02*
X521303Y240429D01*
X521000Y243125D02*
Y244000D01*
X513430Y244500D02*
X515472D01*
X528374Y237500D02*
X534000D01*
X529207Y236793D02*
X530500Y235500D01*
X495071Y250732D02*
X496454D01*
X499144Y249618D02*
Y250749D01*
X501185Y252862D02*
X506018D01*
X507371D01*
X498741Y241941D02*
X499144D01*
Y244500D01*
X508778Y252279D02*
X509651Y251406D01*
X506018Y252862D02*
X506104Y252776D01*
G54D60*
X583524Y242500D02*
D03*
X576500Y184000D02*
D03*
X555366D02*
D03*
X566500D02*
D03*
X490500Y228000D02*
D03*
Y238000D02*
D03*
X509500Y182732D02*
D03*
X519500D02*
D03*
G54D61*
X573524Y242500D02*
D03*
G54D62*
X523748Y251000D02*
D03*
X538449D02*
D03*
X548449D02*
D03*
X558449D02*
D03*
G54D63*
X584000Y196683D02*
D03*
X585000Y192624D02*
D03*
X588500Y201092D02*
D03*
X570000Y205500D02*
D03*
X571000Y201780D02*
D03*
X570000Y214000D02*
D03*
X566000Y213000D02*
D03*
X559366Y206743D02*
D03*
X510309Y236240D02*
D03*
X516000Y215000D02*
D03*
X508910Y230000D02*
D03*
X502500Y207909D02*
D03*
X551000Y214500D02*
D03*
X556000Y220000D02*
D03*
X549500Y204500D02*
D03*
X565500Y225500D02*
D03*
X558500Y229000D02*
D03*
X547555Y228500D02*
D03*
X548000Y223000D02*
D03*
X549500Y201000D02*
D03*
X547000Y203000D02*
D03*
X549575Y193000D02*
D03*
X493500Y217000D02*
D03*
X590000Y238500D02*
D03*
X572000Y189500D02*
D03*
X532500Y192624D02*
D03*
X524929Y218000D02*
D03*
X536500Y229000D02*
D03*
X525000Y244500D02*
D03*
X572500Y193563D02*
D03*
X499984Y199000D02*
D03*
X500000Y201500D02*
D03*
X515286Y186175D02*
D03*
X555500Y233000D02*
D03*
X507371Y238000D02*
D03*
G54D64*
X521000Y244000D02*
D03*
X515000Y251500D02*
D03*
X530500Y235500D02*
D03*
X534000Y237500D02*
D03*
G54D66*
X617513Y205941D02*
X618000Y206143D01*
X605075Y205941D02*
X617513D01*
X605075Y202484D02*
Y205941D01*
X599094D02*
X601925D01*
G54D67*
X559000Y234476D02*
D03*
Y231524D02*
D03*
X511278Y247779D02*
D03*
Y250732D02*
D03*
X509380Y215000D02*
D03*
Y212047D02*
D03*
X513317Y214976D02*
D03*
Y212024D02*
D03*
G54D68*
X530626Y248417D02*
D03*
X565469D02*
D03*
G54D69*
X548787Y214138D02*
D03*
G54D70*
X544850Y208232D02*
D03*
X546425D02*
D03*
X548000D02*
D03*
X549575D02*
D03*
X551150D02*
D03*
X552724D02*
D03*
Y220043D02*
D03*
X551150D02*
D03*
X549575D02*
D03*
X548000D02*
D03*
X546425D02*
D03*
X544850D02*
D03*
G54D71*
X554693Y210201D02*
D03*
Y211775D02*
D03*
Y213350D02*
D03*
Y214925D02*
D03*
Y216500D02*
D03*
Y218075D02*
D03*
X542882D02*
D03*
Y216500D02*
D03*
Y214925D02*
D03*
Y213350D02*
D03*
Y211775D02*
D03*
Y210201D02*
D03*
G54D72*
X503278Y245779D02*
D03*
G54D73*
X513479Y228760D02*
D03*
Y236240D02*
D03*
X503046D02*
D03*
Y232500D02*
D03*
Y228760D02*
D03*
G54D74*
X513317Y199469D02*
D03*
G54D75*
X507412Y190413D02*
D03*
X509380D02*
D03*
X511349D02*
D03*
X513317D02*
D03*
X515286D02*
D03*
X517254D02*
D03*
X519223D02*
D03*
Y208524D02*
D03*
X517254D02*
D03*
X515286D02*
D03*
X513317D02*
D03*
X511349D02*
D03*
X509380D02*
D03*
X507412D02*
D03*
G54D76*
X522372Y193563D02*
D03*
Y195531D02*
D03*
Y197500D02*
D03*
Y199469D02*
D03*
Y201437D02*
D03*
Y203405D02*
D03*
Y205374D02*
D03*
X504262D02*
D03*
Y203405D02*
D03*
Y201437D02*
D03*
Y199469D02*
D03*
Y197500D02*
D03*
Y195531D02*
D03*
Y193563D02*
D03*
G54D77*
X596000Y211004D02*
D03*
X599189D02*
D03*
X595905Y205941D02*
D03*
X599094D02*
D03*
G54D78*
X593000Y211004D02*
D03*
Y207815D02*
D03*
G54D79*
X589000Y225110D02*
D03*
Y231409D02*
D03*
X580339Y225110D02*
D03*
Y231409D02*
D03*
G54D80*
X574217Y203972D02*
D03*
Y205941D02*
D03*
Y207909D02*
D03*
Y209878D02*
D03*
Y211846D02*
D03*
X588784D02*
D03*
Y209878D02*
D03*
Y207909D02*
D03*
Y205941D02*
D03*
Y203972D02*
D03*
G54D81*
X577563Y215193D02*
D03*
X579531D02*
D03*
X581500D02*
D03*
X583468D02*
D03*
X585437D02*
D03*
Y200626D02*
D03*
X583468D02*
D03*
X581500D02*
D03*
X579531D02*
D03*
X577563D02*
D03*
G54D82*
X581500Y207909D02*
D03*
M02*
