G04*
G04 #@! TF.GenerationSoftware,Altium Limited,Altium Designer,20.0.14 (345)*
G04*
G04 Layer_Color=8421504*
%FSLAX25Y25*%
%MOIN*%
G70*
G01*
G75*
%ADD14R,0.03150X0.03150*%
%ADD15R,0.01968X0.01772*%
%ADD16O,0.00984X0.04724*%
%ADD17O,0.04724X0.00984*%
%ADD18R,0.03150X0.03150*%
%ADD19R,0.01575X0.01968*%
%ADD20R,0.16000X0.06000*%
%ADD21R,0.01968X0.01575*%
%ADD22R,0.04724X0.02362*%
%ADD23R,0.10236X0.07087*%
%ADD24R,0.03150X0.03150*%
%ADD25R,0.05118X0.06496*%
%ADD26R,0.07480X0.03937*%
%ADD27R,0.07480X0.07087*%
%ADD28R,0.06102X0.05610*%
%ADD29R,0.05433X0.01772*%
%ADD30R,0.07087X0.10236*%
%ADD31R,0.02362X0.04724*%
%ADD32R,0.03268X0.01457*%
%ADD33R,0.03268X0.02638*%
G54D14*
X519000Y236406D02*
D03*
Y230500D02*
D03*
Y217910D02*
D03*
Y212004D02*
D03*
G54D15*
X514476Y230000D02*
D03*
X511524D02*
D03*
Y218500D02*
D03*
X514476D02*
D03*
X589047Y224500D02*
D03*
X592000D02*
D03*
X589047Y221000D02*
D03*
X592000D02*
D03*
X589047Y217500D02*
D03*
X592000D02*
D03*
G54D16*
X537713Y240784D02*
D03*
X539681D02*
D03*
X541650D02*
D03*
X543618D02*
D03*
X545587D02*
D03*
X547555D02*
D03*
X549524D02*
D03*
X551492D02*
D03*
X553461D02*
D03*
X555429D02*
D03*
X557398D02*
D03*
X559366D02*
D03*
X561335D02*
D03*
X563303D02*
D03*
X565272D02*
D03*
X567240D02*
D03*
Y196689D02*
D03*
X565272D02*
D03*
X563303D02*
D03*
X561335D02*
D03*
X559366D02*
D03*
X557398D02*
D03*
X555429D02*
D03*
X553461D02*
D03*
X551492D02*
D03*
X549524D02*
D03*
X547555D02*
D03*
X545587D02*
D03*
X543618D02*
D03*
X541650D02*
D03*
X539681D02*
D03*
X537713D02*
D03*
G54D17*
X574524Y233500D02*
D03*
Y231532D02*
D03*
Y229563D02*
D03*
Y227594D02*
D03*
Y225626D02*
D03*
Y223657D02*
D03*
Y221689D02*
D03*
Y219721D02*
D03*
Y217752D02*
D03*
Y215784D02*
D03*
Y213815D02*
D03*
Y211846D02*
D03*
Y209878D02*
D03*
Y207909D02*
D03*
Y205941D02*
D03*
Y203972D02*
D03*
X530429D02*
D03*
Y205941D02*
D03*
Y207909D02*
D03*
Y209878D02*
D03*
Y211846D02*
D03*
Y213815D02*
D03*
Y215784D02*
D03*
Y217752D02*
D03*
Y219721D02*
D03*
Y221689D02*
D03*
Y223657D02*
D03*
Y225626D02*
D03*
Y227594D02*
D03*
Y229563D02*
D03*
Y231532D02*
D03*
Y233500D02*
D03*
G54D18*
X574571Y196689D02*
D03*
X580476D02*
D03*
X562571Y191500D02*
D03*
X568476D02*
D03*
X505809Y207500D02*
D03*
X511715D02*
D03*
X528071Y241500D02*
D03*
X533976D02*
D03*
G54D19*
X538449Y192500D02*
D03*
X541598D02*
D03*
X575449D02*
D03*
X578598D02*
D03*
X540024Y244500D02*
D03*
X536874D02*
D03*
G54D20*
X618000Y196143D02*
D03*
Y216143D02*
D03*
G54D21*
X525524Y222425D02*
D03*
Y225575D02*
D03*
X524929Y209425D02*
D03*
Y212575D02*
D03*
X579024Y235150D02*
D03*
Y232000D02*
D03*
G54D22*
X495262Y231039D02*
D03*
Y235961D02*
D03*
G54D23*
X483845Y221000D02*
D03*
Y246000D02*
D03*
G54D24*
X501262Y236453D02*
D03*
Y230547D02*
D03*
G54D25*
X484000Y212760D02*
D03*
Y186185D02*
D03*
G54D26*
Y193370D02*
D03*
G54D27*
Y204000D02*
D03*
G54D28*
X494138Y209266D02*
D03*
Y189679D02*
D03*
G54D29*
X494472Y194354D02*
D03*
Y196913D02*
D03*
Y199472D02*
D03*
Y202031D02*
D03*
Y204591D02*
D03*
G54D30*
X502000Y185232D02*
D03*
X527000D02*
D03*
G54D31*
X512039Y196649D02*
D03*
X516961D02*
D03*
G54D32*
X585386Y221000D02*
D03*
X580661Y221000D02*
D03*
G54D33*
X585386Y217961D02*
D03*
Y224039D02*
D03*
X580661Y217961D02*
D03*
Y224039D02*
D03*
M02*
