G04*
G04 #@! TF.GenerationSoftware,Altium Limited,Altium Designer,20.0.14 (345)*
G04*
G04 Layer_Color=16711935*
%FSLAX25Y25*%
%MOIN*%
G70*
G01*
G75*
%ADD35R,0.02769X0.02572*%
%ADD38R,0.03950X0.03950*%
%ADD39R,0.02375X0.02769*%
%ADD40R,0.16800X0.06800*%
%ADD41R,0.02769X0.02375*%
%ADD51R,0.03162X0.05524*%
%ADD54C,0.05524*%
%ADD55R,0.05524X0.05524*%
%ADD56O,0.04737X0.06706*%
%ADD82R,0.02572X0.02769*%
%ADD83R,0.08280X0.11824*%
%ADD84R,0.06863X0.07493*%
%ADD85O,0.01587X0.03162*%
%ADD86O,0.03162X0.01587*%
%ADD87R,0.05131X0.08280*%
%ADD88R,0.04147X0.02965*%
%ADD89R,0.13123X0.13123*%
%ADD90O,0.01784X0.04147*%
%ADD91O,0.04147X0.01784*%
%ADD92R,0.02729X0.02847*%
%ADD93R,0.02847X0.02729*%
%ADD94R,0.06312X0.05524*%
%ADD95O,0.03753X0.01784*%
%ADD96O,0.01784X0.03753*%
%ADD97R,0.11036X0.11036*%
G54D35*
X546547Y232000D02*
D03*
X549500D02*
D03*
X502739Y224500D02*
D03*
X499786D02*
D03*
X513430Y244500D02*
D03*
X510477D02*
D03*
X514254Y247732D02*
D03*
X517207D02*
D03*
X590976Y195326D02*
D03*
X588024D02*
D03*
X586453Y219409D02*
D03*
X583500D02*
D03*
G54D38*
X489165Y250732D02*
D03*
X495071D02*
D03*
X487547Y245000D02*
D03*
X493453D02*
D03*
G54D39*
X511156Y241232D02*
D03*
X514305D02*
D03*
X541776Y223232D02*
D03*
X544925D02*
D03*
X541776Y226701D02*
D03*
X544925D02*
D03*
X578788Y197484D02*
D03*
X575638D02*
D03*
X601925Y205941D02*
D03*
X605075D02*
D03*
G54D40*
X618000Y196143D02*
D03*
Y216143D02*
D03*
Y206143D02*
D03*
G54D41*
X499144Y241941D02*
D03*
Y244500D02*
D03*
Y247059D02*
D03*
Y249618D02*
D03*
X507412Y241941D02*
D03*
Y244500D02*
D03*
Y247059D02*
D03*
Y249618D02*
D03*
X551350Y226382D02*
D03*
Y223232D02*
D03*
X575000Y229984D02*
D03*
Y226835D02*
D03*
X605075Y202484D02*
D03*
Y199335D02*
D03*
X599094Y215335D02*
D03*
Y218484D02*
D03*
X592000Y215335D02*
D03*
Y218484D02*
D03*
X595000Y201346D02*
D03*
Y198197D02*
D03*
X591500Y201409D02*
D03*
Y198260D02*
D03*
X594500Y226835D02*
D03*
Y229984D02*
D03*
G54D51*
X555429Y237000D02*
D03*
X540665D02*
D03*
X545587D02*
D03*
X550508D02*
D03*
G54D54*
X583524Y242500D02*
D03*
X576500Y184000D02*
D03*
X555366D02*
D03*
X566500D02*
D03*
X490500Y228000D02*
D03*
Y238000D02*
D03*
X509500Y182732D02*
D03*
X519500D02*
D03*
G54D55*
X573524Y242500D02*
D03*
G54D56*
X523748Y251000D02*
D03*
X538449D02*
D03*
X548449D02*
D03*
X558449D02*
D03*
G54D82*
X559000Y234476D02*
D03*
Y231524D02*
D03*
X511278Y247779D02*
D03*
Y250732D02*
D03*
X509380Y215000D02*
D03*
Y212047D02*
D03*
X513317Y214976D02*
D03*
Y212024D02*
D03*
G54D83*
X530626Y248417D02*
D03*
X565469D02*
D03*
G54D84*
X548787Y214138D02*
D03*
G54D85*
X544850Y208232D02*
D03*
X546425D02*
D03*
X548000D02*
D03*
X549575D02*
D03*
X551150D02*
D03*
X552724D02*
D03*
Y220043D02*
D03*
X551150D02*
D03*
X549575D02*
D03*
X548000D02*
D03*
X546425D02*
D03*
X544850D02*
D03*
G54D86*
X554693Y210201D02*
D03*
Y211775D02*
D03*
Y213350D02*
D03*
Y214925D02*
D03*
Y216500D02*
D03*
Y218075D02*
D03*
X542882D02*
D03*
Y216500D02*
D03*
Y214925D02*
D03*
Y213350D02*
D03*
Y211775D02*
D03*
Y210201D02*
D03*
G54D87*
X503278Y245779D02*
D03*
G54D88*
X513479Y228760D02*
D03*
Y236240D02*
D03*
X503046D02*
D03*
Y232500D02*
D03*
Y228760D02*
D03*
G54D89*
X513317Y199469D02*
D03*
G54D90*
X507412Y190413D02*
D03*
X509380D02*
D03*
X511349D02*
D03*
X513317D02*
D03*
X515286D02*
D03*
X517254D02*
D03*
X519223D02*
D03*
Y208524D02*
D03*
X517254D02*
D03*
X515286D02*
D03*
X513317D02*
D03*
X511349D02*
D03*
X509380D02*
D03*
X507412D02*
D03*
G54D91*
X522372Y193563D02*
D03*
Y195531D02*
D03*
Y197500D02*
D03*
Y199469D02*
D03*
Y201437D02*
D03*
Y203405D02*
D03*
Y205374D02*
D03*
X504262D02*
D03*
Y203405D02*
D03*
Y201437D02*
D03*
Y199469D02*
D03*
Y197500D02*
D03*
Y195531D02*
D03*
Y193563D02*
D03*
G54D92*
X596000Y211004D02*
D03*
X599189D02*
D03*
X595905Y205941D02*
D03*
X599094D02*
D03*
G54D93*
X593000Y211004D02*
D03*
Y207815D02*
D03*
G54D94*
X589000Y225110D02*
D03*
Y231409D02*
D03*
X580339Y225110D02*
D03*
Y231409D02*
D03*
G54D95*
X574217Y203972D02*
D03*
Y205941D02*
D03*
Y207909D02*
D03*
Y209878D02*
D03*
Y211846D02*
D03*
X588784D02*
D03*
Y209878D02*
D03*
Y207909D02*
D03*
Y205941D02*
D03*
Y203972D02*
D03*
G54D96*
X577563Y215193D02*
D03*
X579531D02*
D03*
X581500D02*
D03*
X583468D02*
D03*
X585437D02*
D03*
Y200626D02*
D03*
X583468D02*
D03*
X581500D02*
D03*
X579531D02*
D03*
X577563D02*
D03*
G54D97*
X581500Y207909D02*
D03*
M02*
