G04*
G04 #@! TF.GenerationSoftware,Altium Limited,Altium Designer,20.0.14 (345)*
G04*
G04 Layer_Physical_Order=2*
G04 Layer_Color=36540*
%FSLAX25Y25*%
%MOIN*%
G70*
G01*
G75*
%ADD57C,0.01000*%
%ADD63C,0.01772*%
G36*
X549700Y200512D02*
X549811Y200525D01*
X550289Y200609D01*
X550299Y200617D01*
X549822Y201825D01*
X549862Y201809D01*
X549927Y201778D01*
X549951Y201763D01*
X549970Y201749D01*
X549983Y201736D01*
X549991Y201724D01*
X549994Y201712D01*
X549991Y201701D01*
X549983Y201690D01*
X549700Y200512D01*
D02*
G37*
G36*
X547500Y220497D02*
X547499Y220831D01*
X547397Y222332D01*
X547373Y222374D01*
X548627D01*
X548603Y222332D01*
X548581Y222258D01*
X548562Y222152D01*
X548546Y222013D01*
X548511Y221401D01*
X548500Y220497D01*
X547500D01*
D02*
G37*
G54D57*
X508910Y230000D02*
X508738Y229929D01*
X548000Y216036D02*
X548054Y215080D01*
X548214Y214136D01*
X548479Y213216D01*
X548845Y212332D01*
X549308Y211494D01*
X549862Y210714D01*
X550500Y210000D01*
X551000Y202000D02*
X551500Y203207D01*
Y207586D02*
X551384Y208470D01*
X551043Y209293D01*
X550500Y210000D01*
X549500Y201000D02*
X550354Y201354D01*
X548000Y216036D02*
Y223000D01*
X550353Y201354D02*
X551000Y202000D01*
X551500Y203207D02*
Y207586D01*
G54D63*
X508910Y230000D02*
D03*
X548000Y223000D02*
D03*
X549500Y201000D02*
D03*
M02*
