G04*
G04 #@! TF.GenerationSoftware,Altium Limited,Altium Designer,18.1.6 (161)*
G04*
G04 Layer_Color=16711935*
%FSLAX25Y25*%
%MOIN*%
G70*
G01*
G75*
%ADD101C,0.00394*%
G54D101*
X538303Y234878D02*
X538039Y235862D01*
X537319Y236583D01*
X536335Y236846D01*
X535350Y236583D01*
X534630Y235862D01*
X534366Y234878D01*
X534630Y233894D01*
X535350Y233173D01*
X536335Y232909D01*
X537319Y233173D01*
X538039Y233894D01*
X538303Y234878D01*
X548197Y211578D02*
X547933Y212563D01*
X547213Y213283D01*
X546228Y213547D01*
X545244Y213283D01*
X544524Y212563D01*
X544260Y211578D01*
X544524Y210594D01*
X545244Y209874D01*
X546228Y209610D01*
X547213Y209874D01*
X547933Y210594D01*
X548197Y211578D01*
X508987Y193169D02*
X508723Y194153D01*
X508002Y194874D01*
X507018Y195138D01*
X506034Y194874D01*
X505313Y194153D01*
X505050Y193169D01*
X505313Y192185D01*
X506034Y191464D01*
X507018Y191201D01*
X508002Y191464D01*
X508723Y192185D01*
X508987Y193169D01*
X579138Y203579D02*
X578874Y204563D01*
X578154Y205283D01*
X577169Y205547D01*
X576185Y205283D01*
X575464Y204563D01*
X575201Y203579D01*
X575464Y202594D01*
X576185Y201874D01*
X577169Y201610D01*
X578154Y201874D01*
X578874Y202594D01*
X579138Y203579D01*
X545957Y230917D02*
Y233083D01*
X550091Y230917D02*
Y233083D01*
X545957Y230917D02*
X550091D01*
X545957Y233083D02*
X550091D01*
X503329Y223417D02*
Y225583D01*
X499195Y223417D02*
Y225583D01*
X503329D01*
X499195Y223417D02*
X503329D01*
X515067Y228917D02*
Y231083D01*
X510933Y228917D02*
Y231083D01*
Y228917D02*
X515067D01*
X510933Y231083D02*
X515067D01*
X532791Y199051D02*
X572161D01*
X532791Y238421D02*
X572161D01*
Y199051D02*
Y238421D01*
X532791Y199051D02*
Y238421D01*
X574177Y198461D02*
X580870D01*
X574177Y194917D02*
X580870D01*
X574177D02*
Y198461D01*
X580870Y194917D02*
Y198461D01*
X562177Y193272D02*
X568870D01*
X562177Y189728D02*
X568870D01*
X562177D02*
Y193272D01*
X568870Y189728D02*
Y193272D01*
X542091Y191417D02*
Y193583D01*
X537957Y191417D02*
Y193583D01*
Y191417D02*
X542091D01*
X537957Y193583D02*
X542091D01*
X631118Y218938D02*
X656709D01*
X631118Y193347D02*
X656709D01*
Y218938D01*
X626000Y189804D02*
Y222481D01*
X610252Y193347D02*
Y218938D01*
X626000Y189804D02*
X631118D01*
X626000Y222481D02*
X631118D01*
Y189804D02*
Y222481D01*
X610252Y218938D02*
X626000D01*
X610252Y193347D02*
X626000D01*
X557917Y230933D02*
Y235067D01*
X560083Y230933D02*
Y235067D01*
X557917D02*
X560083D01*
X557917Y230933D02*
X560083D01*
X574957Y191417D02*
X579090D01*
X574957Y193583D02*
X579090D01*
Y191417D02*
Y193583D01*
X574957Y191417D02*
Y193583D01*
X536382Y243417D02*
Y245583D01*
X540516Y243417D02*
Y245583D01*
X536382D02*
X540516D01*
X536382Y243417D02*
X540516D01*
X526606Y221933D02*
Y226067D01*
X524441Y221933D02*
Y226067D01*
X526606D01*
X524441Y221933D02*
X526606D01*
X526012Y208933D02*
Y213067D01*
X523846Y208933D02*
Y213067D01*
X526012D01*
X523846Y208933D02*
X526012D01*
X542685Y220240D02*
X554890D01*
X542685Y208035D02*
X554890D01*
Y220240D01*
X542685Y208035D02*
Y220240D01*
X488771Y248961D02*
Y252504D01*
X495464Y248961D02*
Y252504D01*
X488771Y248961D02*
X495464D01*
X488771Y252504D02*
X495464D01*
X487153Y243228D02*
Y246772D01*
X493847Y243228D02*
Y246772D01*
X487153Y243228D02*
X493847D01*
X487153Y246772D02*
X493847D01*
X510664Y242315D02*
X514797D01*
X510664Y240150D02*
X514797D01*
Y242315D01*
X510664Y240150D02*
Y242315D01*
X509886Y245583D02*
X514020D01*
X509886Y243417D02*
X514020D01*
Y245583D01*
X509886Y243417D02*
Y245583D01*
X512360Y247189D02*
Y251323D01*
X510195Y247189D02*
Y251323D01*
Y247189D02*
X512360D01*
X510195Y251323D02*
X512360D01*
X513664Y246650D02*
X517798D01*
X513664Y248815D02*
X517798D01*
X513664Y246650D02*
Y248815D01*
X517798Y246650D02*
Y248815D01*
X545417Y222149D02*
Y224315D01*
X541284Y222149D02*
Y224315D01*
X545417D01*
X541284Y222149D02*
X545417D01*
Y225618D02*
Y227783D01*
X541284Y225618D02*
Y227783D01*
X545417D01*
X541284Y225618D02*
X545417D01*
X550268Y222740D02*
X552433D01*
X550268Y226874D02*
X552433D01*
Y222740D02*
Y226874D01*
X550268Y222740D02*
Y226874D01*
X510933Y219583D02*
X515067D01*
X510933Y217417D02*
X515067D01*
X510933D02*
Y219583D01*
X515067Y217417D02*
Y219583D01*
X504719Y238602D02*
X511805D01*
X504719Y226398D02*
X511805D01*
Y238602D01*
X504719Y226398D02*
Y238602D01*
X505416Y209272D02*
X512109D01*
X505416Y205728D02*
X512109D01*
X505416D02*
Y209272D01*
X512109Y205728D02*
Y209272D01*
X508297Y215591D02*
X510463D01*
X508297Y211457D02*
X510463D01*
X508297D02*
Y215591D01*
X510463Y211457D02*
Y215591D01*
X512234Y215567D02*
X514400D01*
X512234Y211433D02*
X514400D01*
X512234D02*
Y215567D01*
X514400Y211433D02*
Y215567D01*
X503475Y209311D02*
X523160D01*
X503475Y189626D02*
X523160D01*
Y209311D01*
X503475Y189626D02*
Y209311D01*
X503034Y230153D02*
Y236846D01*
X499490Y230153D02*
Y236846D01*
X503034D01*
X499490Y230153D02*
X503034D01*
X591567Y194244D02*
Y196409D01*
X587433Y194244D02*
Y196409D01*
X591567D01*
X587433Y194244D02*
X591567D01*
X575146Y196402D02*
X579280D01*
X575146Y198567D02*
X579280D01*
X575146Y196402D02*
Y198567D01*
X579280Y196402D02*
Y198567D01*
X576083Y226343D02*
Y230476D01*
X573917Y226343D02*
Y230476D01*
Y226343D02*
X576083D01*
X573917Y230476D02*
X576083D01*
X587043Y218327D02*
Y220492D01*
X582909Y218327D02*
Y220492D01*
X587043D01*
X582909Y218327D02*
X587043D01*
X606157Y198843D02*
Y202976D01*
X603992Y198843D02*
Y202976D01*
Y198843D02*
X606157D01*
X603992Y202976D02*
X606157D01*
X595528Y209921D02*
Y212087D01*
X599661Y209921D02*
Y212087D01*
X595528Y209921D02*
X599661D01*
X595528Y212087D02*
X599661D01*
X591917Y211476D02*
X594083D01*
X591917Y207343D02*
X594083D01*
X591917D02*
Y211476D01*
X594083Y207343D02*
Y211476D01*
X601433Y207024D02*
X605567D01*
X601433Y204858D02*
X605567D01*
Y207024D01*
X601433Y204858D02*
Y207024D01*
X595433Y204858D02*
Y207024D01*
X599567Y204858D02*
Y207024D01*
X595433Y204858D02*
X599567D01*
X595433Y207024D02*
X599567D01*
X598012Y214843D02*
Y218976D01*
X600177Y214843D02*
Y218976D01*
X598012D02*
X600177D01*
X598012Y214843D02*
X600177D01*
X590917D02*
Y218976D01*
X593083Y214843D02*
Y218976D01*
X590917D02*
X593083D01*
X590917Y214843D02*
X593083D01*
X596083Y197705D02*
Y201839D01*
X593917Y197705D02*
Y201839D01*
Y197705D02*
X596083D01*
X593917Y201839D02*
X596083D01*
X592583Y197768D02*
Y201902D01*
X590417Y197768D02*
Y201902D01*
Y197768D02*
X592583D01*
X590417Y201902D02*
X592583D01*
X593417Y226343D02*
Y230476D01*
X595583Y226343D02*
Y230476D01*
X593417D02*
X595583D01*
X593417Y226343D02*
X595583D01*
X591165Y223142D02*
Y233378D01*
X578173Y223142D02*
Y233378D01*
X591165D01*
X578173Y223142D02*
X591165D01*
X573626Y200035D02*
Y215784D01*
X589374Y200035D02*
Y215784D01*
X573626Y200035D02*
X589374D01*
X573626Y215784D02*
X589374D01*
X577941Y231508D02*
Y235642D01*
X580106Y231508D02*
Y235642D01*
X577941Y231508D02*
X580106D01*
X577941Y235642D02*
X580106D01*
X527677Y239728D02*
Y243272D01*
X534370Y239728D02*
Y243272D01*
X527677D02*
X534370D01*
X527677Y239728D02*
X534370D01*
X588457Y223417D02*
Y225583D01*
X592591Y223417D02*
Y225583D01*
X588457D02*
X592591D01*
X588457Y223417D02*
X592591D01*
X588457Y219917D02*
Y222083D01*
X592591Y219917D02*
Y222083D01*
X588457D02*
X592591D01*
X588457Y219917D02*
X592591D01*
X588457Y216417D02*
Y218583D01*
X592591Y216417D02*
Y218583D01*
X588457D02*
X592591D01*
X588457Y216417D02*
X592591D01*
M02*
