G04*
G04 #@! TF.GenerationSoftware,Altium Limited,Altium Designer,18.1.6 (161)*
G04*
G04 Layer_Color=32768*
%FSLAX25Y25*%
%MOIN*%
G70*
G01*
G75*
%ADD58C,0.00800*%
%ADD101C,0.00394*%
%ADD102C,0.00197*%
%ADD103C,0.00600*%
%ADD104C,0.00300*%
G54D58*
X572012Y199445D02*
X583035D01*
Y193933D02*
Y199445D01*
X572012Y193933D02*
Y199445D01*
Y193933D02*
X583035D01*
X560012Y194256D02*
X571035D01*
Y188744D02*
Y194256D01*
X560012Y188744D02*
Y194256D01*
Y188744D02*
X571035D01*
X543370Y190532D02*
Y194468D01*
X536677D02*
X543370D01*
X536677Y190532D02*
Y194468D01*
Y190532D02*
X543370D01*
X573677Y194468D02*
X580370D01*
Y190532D02*
Y194468D01*
X573677Y190532D02*
X580370D01*
X573677D02*
Y194468D01*
X535102Y242531D02*
Y246468D01*
Y242531D02*
X541795D01*
Y246468D01*
X535102D02*
X541795D01*
X523555Y220654D02*
Y227346D01*
X527492D01*
Y220654D02*
Y227346D01*
X523555Y220654D02*
X527492D01*
X522961Y207653D02*
Y214347D01*
X526898D01*
Y207653D02*
Y214347D01*
X522961Y207653D02*
X526898D01*
X486606Y247976D02*
X497630D01*
Y253488D01*
X486606Y247976D02*
Y253488D01*
X497630D01*
X484988Y242244D02*
X496012D01*
Y247756D01*
X484988Y242244D02*
Y247756D01*
X496012D01*
X509384Y239264D02*
X516077D01*
Y243201D01*
X509384D02*
X516077D01*
X509384Y239264D02*
Y243201D01*
X546697Y221264D02*
Y225201D01*
X540004Y221264D02*
X546697D01*
X540004D02*
Y225201D01*
X546697D01*
Y224732D02*
Y228669D01*
X540004Y224732D02*
X546697D01*
X540004D02*
Y228669D01*
X546697D01*
X549382Y221460D02*
X553319D01*
X549382D02*
Y228153D01*
X553319D01*
Y221460D02*
Y228153D01*
X503250Y210256D02*
X514274D01*
Y204744D02*
Y210256D01*
X503250Y204744D02*
Y210256D01*
Y204744D02*
X514274D01*
X504018Y227988D02*
Y239012D01*
X498506Y227988D02*
X504018D01*
X498506Y239012D02*
X504018D01*
X498506Y227988D02*
Y239012D01*
X573866Y199453D02*
X580559D01*
X573866Y195516D02*
Y199453D01*
Y195516D02*
X580559D01*
Y199453D01*
X573032Y225063D02*
Y231756D01*
Y225063D02*
X576968D01*
Y231756D01*
X573032D02*
X576968D01*
X603106Y197563D02*
Y204256D01*
Y197563D02*
X607043D01*
Y204256D01*
X603106D02*
X607043D01*
X600153Y203972D02*
X606847D01*
Y207909D01*
X600153D02*
X606847D01*
X600153Y203972D02*
Y207909D01*
X601063Y213563D02*
Y220256D01*
X597126D02*
X601063D01*
X597126Y213563D02*
Y220256D01*
Y213563D02*
X601063D01*
X593968D02*
Y220256D01*
X590031D02*
X593968D01*
X590031Y213563D02*
Y220256D01*
Y213563D02*
X593968D01*
X593032Y196425D02*
Y203118D01*
Y196425D02*
X596969D01*
Y203118D01*
X593032D02*
X596969D01*
X589532Y196488D02*
Y203181D01*
Y196488D02*
X593469D01*
Y203181D01*
X589532D02*
X593469D01*
X596468Y225063D02*
Y231756D01*
X592531D02*
X596468D01*
X592531Y225063D02*
Y231756D01*
Y225063D02*
X596468D01*
X580992Y230228D02*
Y236921D01*
X577055Y230228D02*
X580992D01*
X577055D02*
Y236921D01*
X580992D01*
X525512Y244256D02*
X536535D01*
Y238744D02*
Y244256D01*
X525512Y238744D02*
Y244256D01*
Y238744D02*
X536535D01*
G54D101*
X546941Y232000D02*
X549106D01*
X548024Y230917D02*
Y233083D01*
X500179Y224500D02*
X502345D01*
X501262Y223417D02*
Y225583D01*
X511917Y230000D02*
X514083D01*
X513000Y228917D02*
Y231083D01*
X552476Y216768D02*
Y220705D01*
X550508Y218736D02*
X554445D01*
X616032Y206143D02*
X619969D01*
X618000Y204174D02*
Y208111D01*
X557917Y233000D02*
X560083D01*
X559000Y231917D02*
Y234083D01*
X548787Y212169D02*
Y216106D01*
X546819Y214138D02*
X550756D01*
X511953Y243417D02*
Y245583D01*
X510871Y244500D02*
X513036D01*
X510195Y249256D02*
X512360D01*
X511278Y248173D02*
Y250339D01*
X515731Y246650D02*
Y248815D01*
X514648Y247732D02*
X516813D01*
X513000Y217417D02*
Y219583D01*
X511917Y218500D02*
X514083D01*
X508262Y230532D02*
Y234469D01*
X506294Y232500D02*
X510231D01*
X509380Y212441D02*
Y214606D01*
X508297Y213524D02*
X510463D01*
X513317Y212417D02*
Y214583D01*
X512234Y213500D02*
X514400D01*
X513317Y197500D02*
Y201437D01*
X511349Y199469D02*
X515286D01*
X588417Y195326D02*
X590583D01*
X589500Y194244D02*
Y196409D01*
X583894Y219409D02*
X586059D01*
X584976Y218327D02*
Y220492D01*
X596512Y211004D02*
X598677D01*
X597594Y209921D02*
Y212087D01*
X593000Y208327D02*
Y210492D01*
X591917Y209409D02*
X594083D01*
X596417Y205941D02*
X598583D01*
X597500Y204858D02*
Y207024D01*
X582701Y228260D02*
X586638D01*
X584669Y226291D02*
Y230228D01*
X579531Y207909D02*
X583468D01*
X581500Y205941D02*
Y209878D01*
X589441Y224500D02*
X591606D01*
X590524Y223417D02*
Y225583D01*
X589441Y221000D02*
X591606D01*
X590524Y219917D02*
Y222083D01*
X589441Y217500D02*
X591606D01*
X590524Y216417D02*
Y218583D01*
G54D102*
X545071Y230425D02*
Y233575D01*
X550976Y230425D02*
Y233575D01*
X545071Y230425D02*
X550976D01*
X545071Y233575D02*
X550976D01*
X504215Y222925D02*
Y226075D01*
X498309Y222925D02*
Y226075D01*
X504215D01*
X498309Y222925D02*
X504215D01*
X515953Y228425D02*
Y231575D01*
X510047Y228425D02*
Y231575D01*
Y228425D02*
X515953D01*
X510047Y231575D02*
X515953D01*
X527673Y193933D02*
X577280D01*
X527673Y243539D02*
X577280D01*
Y193933D02*
Y243539D01*
X527673Y193933D02*
Y243539D01*
X557425Y230047D02*
Y235953D01*
X560575Y230047D02*
Y235953D01*
X557425D02*
X560575D01*
X557425Y230047D02*
X560575D01*
X540520Y222405D02*
X557055D01*
X540520Y205870D02*
X557055D01*
Y222405D01*
X540520Y205870D02*
Y222405D01*
X509001Y246075D02*
X514906D01*
X509001Y242925D02*
X514906D01*
Y246075D01*
X509001Y242925D02*
Y246075D01*
X512853Y246303D02*
Y252209D01*
X509703Y246303D02*
Y252209D01*
Y246303D02*
X512853D01*
X509703Y252209D02*
X512853D01*
X512778Y246158D02*
X518683D01*
X512778Y249307D02*
X518683D01*
X512778Y246158D02*
Y249307D01*
X518683Y246158D02*
Y249307D01*
X510047Y220075D02*
X515953D01*
X510047Y216925D02*
X515953D01*
X510047D02*
Y220075D01*
X515953Y216925D02*
Y220075D01*
X500979Y238996D02*
X515546D01*
X500979Y226004D02*
X515546D01*
Y238996D01*
X500979Y226004D02*
Y238996D01*
X507805Y216476D02*
X510955D01*
X507805Y210571D02*
X510955D01*
X507805D02*
Y216476D01*
X510955Y210571D02*
Y216476D01*
X511742Y216453D02*
X514892D01*
X511742Y210547D02*
X514892D01*
X511742D02*
Y216453D01*
X514892Y210547D02*
Y216453D01*
X502195Y210591D02*
X524439D01*
X502195Y188347D02*
X524439D01*
Y210591D01*
X502195Y188347D02*
Y210591D01*
X592453Y193752D02*
Y196901D01*
X586547Y193752D02*
Y196901D01*
X592453D01*
X586547Y193752D02*
X592453D01*
X587929Y217835D02*
Y220984D01*
X582024Y217835D02*
Y220984D01*
X587929D01*
X582024Y217835D02*
X587929D01*
X594642Y209429D02*
Y212579D01*
X600547Y209429D02*
Y212579D01*
X594642Y209429D02*
X600547D01*
X594642Y212579D02*
X600547D01*
X591425Y212362D02*
X594575D01*
X591425Y206457D02*
X594575D01*
X591425D02*
Y212362D01*
X594575Y206457D02*
Y212362D01*
X594547Y204366D02*
Y207516D01*
X600453Y204366D02*
Y207516D01*
X594547Y204366D02*
X600453D01*
X594547Y207516D02*
X600453D01*
X594118Y220779D02*
Y235740D01*
X575220Y220779D02*
Y235740D01*
X594118D01*
X575220Y220779D02*
X594118D01*
X572346Y198756D02*
Y217063D01*
X590654Y198756D02*
Y217063D01*
X572346Y198756D02*
X590654D01*
X572346Y217063D02*
X590654D01*
X587571Y222925D02*
Y226075D01*
X593476Y222925D02*
Y226075D01*
X587571D02*
X593476D01*
X587571Y222925D02*
X593476D01*
X587571Y219425D02*
Y222575D01*
X593476Y219425D02*
Y222575D01*
X587571D02*
X593476D01*
X587571Y219425D02*
X593476D01*
X587571Y215925D02*
Y219075D01*
X593476Y215925D02*
Y219075D01*
X587571D02*
X593476D01*
X587571Y215925D02*
X593476D01*
G54D103*
X580582Y196181D02*
X580998Y195765D01*
X581832D01*
X582248Y196181D01*
Y197847D01*
X581832Y198264D01*
X580998D01*
X580582Y197847D01*
X579749Y196181D02*
X579332Y195765D01*
X578499D01*
X578083Y196181D01*
Y196598D01*
X578499Y197014D01*
X578916D01*
X578499D01*
X578083Y197431D01*
Y197847D01*
X578499Y198264D01*
X579332D01*
X579749Y197847D01*
X568582Y190992D02*
X568998Y190576D01*
X569832D01*
X570248Y190992D01*
Y192658D01*
X569832Y193075D01*
X568998D01*
X568582Y192658D01*
X566083Y193075D02*
X567749D01*
X566083Y191409D01*
Y190992D01*
X566499Y190576D01*
X567332D01*
X567749Y190992D01*
X489059Y250224D02*
X488643Y249808D01*
X487810D01*
X487393Y250224D01*
Y251891D01*
X487810Y252307D01*
X488643D01*
X489059Y251891D01*
X489892Y252307D02*
X490726D01*
X490309D01*
Y249808D01*
X489892Y250224D01*
X491975Y249808D02*
X493641D01*
Y250224D01*
X491975Y251891D01*
Y252307D01*
X487442Y244492D02*
X487025Y244076D01*
X486192D01*
X485776Y244492D01*
Y246158D01*
X486192Y246575D01*
X487025D01*
X487442Y246158D01*
X488275Y246575D02*
X489108D01*
X488691D01*
Y244076D01*
X488275Y244492D01*
X490357D02*
X490774Y244076D01*
X491607D01*
X492024Y244492D01*
Y244909D01*
X491607Y245325D01*
X492024Y245742D01*
Y246158D01*
X491607Y246575D01*
X490774D01*
X490357Y246158D01*
Y245742D01*
X490774Y245325D01*
X490357Y244909D01*
Y244492D01*
X490774Y245325D02*
X491607D01*
X511820Y206992D02*
X512237Y206576D01*
X513070D01*
X513486Y206992D01*
Y208658D01*
X513070Y209075D01*
X512237D01*
X511820Y208658D01*
X509321Y209075D02*
X510987D01*
X509321Y207409D01*
Y206992D01*
X509738Y206576D01*
X510571D01*
X510987Y206992D01*
X508488D02*
X508072Y206576D01*
X507238D01*
X506822Y206992D01*
Y208658D01*
X507238Y209075D01*
X508072D01*
X508488Y208658D01*
Y206992D01*
X500754Y230442D02*
X500338Y230025D01*
Y229192D01*
X500754Y228776D01*
X502420D01*
X502837Y229192D01*
Y230025D01*
X502420Y230442D01*
X502837Y232941D02*
Y231275D01*
X501171Y232941D01*
X500754D01*
X500338Y232524D01*
Y231691D01*
X500754Y231275D01*
X502837Y233774D02*
Y234607D01*
Y234191D01*
X500338D01*
X500754Y233774D01*
X527965Y242008D02*
X527549Y242424D01*
X526716D01*
X526299Y242008D01*
Y240342D01*
X526716Y239925D01*
X527549D01*
X527965Y240342D01*
X530048Y239925D02*
Y242424D01*
X528798Y241175D01*
X530465D01*
G54D104*
X541913Y192204D02*
X542130Y191988D01*
X542563D01*
X542779Y192204D01*
Y193071D01*
X542563Y193287D01*
X542130D01*
X541913Y193071D01*
X540614Y193287D02*
X541480D01*
X540614Y192421D01*
Y192204D01*
X540830Y191988D01*
X541263D01*
X541480Y192204D01*
X539314Y191988D02*
X539747Y192204D01*
X540180Y192638D01*
Y193071D01*
X539964Y193287D01*
X539531D01*
X539314Y193071D01*
Y192854D01*
X539531Y192638D01*
X540180D01*
X575134Y192796D02*
X574918Y193012D01*
X574484D01*
X574268Y192796D01*
Y191929D01*
X574484Y191713D01*
X574918D01*
X575134Y191929D01*
X575567Y193012D02*
X576434D01*
Y192796D01*
X575567Y191929D01*
Y191713D01*
X536559Y244796D02*
X536343Y245012D01*
X535910D01*
X535693Y244796D01*
Y243929D01*
X535910Y243713D01*
X536343D01*
X536559Y243929D01*
X537859Y245012D02*
X536993D01*
Y244362D01*
X537426Y244579D01*
X537642D01*
X537859Y244362D01*
Y243929D01*
X537642Y243713D01*
X537209D01*
X536993Y243929D01*
X525228Y222111D02*
X525011Y221894D01*
Y221461D01*
X525228Y221244D01*
X526094D01*
X526311Y221461D01*
Y221894D01*
X526094Y222111D01*
X526311Y222544D02*
Y222977D01*
Y222760D01*
X525011D01*
X525228Y222544D01*
X524634Y209110D02*
X524417Y208894D01*
Y208461D01*
X524634Y208244D01*
X525500D01*
X525716Y208461D01*
Y208894D01*
X525500Y209110D01*
X525716Y210410D02*
Y209544D01*
X524850Y210410D01*
X524634D01*
X524417Y210193D01*
Y209760D01*
X524634Y209544D01*
X524417Y211710D02*
Y210843D01*
X525067D01*
X524850Y211276D01*
Y211493D01*
X525067Y211710D01*
X525500D01*
X525716Y211493D01*
Y211060D01*
X525500Y210843D01*
X510841Y240937D02*
X510625Y240720D01*
X510191D01*
X509975Y240937D01*
Y241803D01*
X510191Y242020D01*
X510625D01*
X510841Y241803D01*
X511274Y242020D02*
X511707D01*
X511491D01*
Y240720D01*
X511274Y240937D01*
X512357Y241803D02*
X512574Y242020D01*
X513007D01*
X513224Y241803D01*
Y240937D01*
X513007Y240720D01*
X512574D01*
X512357Y240937D01*
Y241153D01*
X512574Y241370D01*
X513224D01*
X545240Y223528D02*
X545457Y223744D01*
X545890D01*
X546106Y223528D01*
Y222661D01*
X545890Y222445D01*
X545457D01*
X545240Y222661D01*
X543940Y222445D02*
X544807D01*
X543940Y223311D01*
Y223528D01*
X544157Y223744D01*
X544590D01*
X544807Y223528D01*
X542641Y222445D02*
X543507D01*
X542641Y223311D01*
Y223528D01*
X542857Y223744D01*
X543291D01*
X543507Y223528D01*
X545240Y226996D02*
X545457Y227213D01*
X545890D01*
X546106Y226996D01*
Y226130D01*
X545890Y225913D01*
X545457D01*
X545240Y226130D01*
X543940Y225913D02*
X544807D01*
X543940Y226780D01*
Y226996D01*
X544157Y227213D01*
X544590D01*
X544807Y226996D01*
X543507D02*
X543291Y227213D01*
X542857D01*
X542641Y226996D01*
Y226780D01*
X542857Y226563D01*
X543074D01*
X542857D01*
X542641Y226346D01*
Y226130D01*
X542857Y225913D01*
X543291D01*
X543507Y226130D01*
X551646Y222917D02*
X551863Y222701D01*
Y222268D01*
X551646Y222051D01*
X550780D01*
X550563Y222268D01*
Y222701D01*
X550780Y222917D01*
X550563Y224217D02*
Y223351D01*
X551429Y224217D01*
X551646D01*
X551863Y224000D01*
Y223567D01*
X551646Y223351D01*
X550563Y225300D02*
X551863D01*
X551213Y224650D01*
Y225517D01*
X579102Y197780D02*
X579319Y197996D01*
X579752D01*
X579969Y197780D01*
Y196913D01*
X579752Y196697D01*
X579319D01*
X579102Y196913D01*
X578669Y196697D02*
X578236D01*
X578452D01*
Y197996D01*
X578669Y197780D01*
X577586D02*
X577369Y197996D01*
X576936D01*
X576720Y197780D01*
Y196913D01*
X576936Y196697D01*
X577369D01*
X577586Y196913D01*
Y197780D01*
X574704Y230299D02*
X574488Y230516D01*
Y230949D01*
X574704Y231165D01*
X575571D01*
X575787Y230949D01*
Y230516D01*
X575571Y230299D01*
X575787Y229866D02*
Y229433D01*
Y229649D01*
X574488D01*
X574704Y229866D01*
X574488Y227916D02*
X574704Y228350D01*
X575138Y228783D01*
X575571D01*
X575787Y228566D01*
Y228133D01*
X575571Y227916D01*
X575354D01*
X575138Y228133D01*
Y228783D01*
X604779Y202799D02*
X604563Y203016D01*
Y203449D01*
X604779Y203665D01*
X605646D01*
X605862Y203449D01*
Y203016D01*
X605646Y202799D01*
Y202366D02*
X605862Y202149D01*
Y201716D01*
X605646Y201499D01*
X604779D01*
X604563Y201716D01*
Y202149D01*
X604779Y202366D01*
X604996D01*
X605212Y202149D01*
Y201499D01*
X601611Y205645D02*
X601394Y205429D01*
X600961D01*
X600744Y205645D01*
Y206512D01*
X600961Y206728D01*
X601394D01*
X601611Y206512D01*
X602044Y205645D02*
X602260Y205429D01*
X602694D01*
X602910Y205645D01*
Y205862D01*
X602694Y206079D01*
X602910Y206295D01*
Y206512D01*
X602694Y206728D01*
X602260D01*
X602044Y206512D01*
Y206295D01*
X602260Y206079D01*
X602044Y205862D01*
Y205645D01*
X602260Y206079D02*
X602694D01*
X599390Y215020D02*
X599607Y214803D01*
Y214370D01*
X599390Y214154D01*
X598524D01*
X598307Y214370D01*
Y214803D01*
X598524Y215020D01*
X598307Y215453D02*
Y215886D01*
Y215670D01*
X599607D01*
X599390Y215453D01*
X598307Y217186D02*
X599607D01*
X598957Y216536D01*
Y217403D01*
X592296Y215020D02*
X592512Y214803D01*
Y214370D01*
X592296Y214154D01*
X591429D01*
X591213Y214370D01*
Y214803D01*
X591429Y215020D01*
X591213Y215453D02*
Y215886D01*
Y215670D01*
X592512D01*
X592296Y215453D01*
Y216536D02*
X592512Y216753D01*
Y217186D01*
X592296Y217403D01*
X592079D01*
X591862Y217186D01*
Y216969D01*
Y217186D01*
X591646Y217403D01*
X591429D01*
X591213Y217186D01*
Y216753D01*
X591429Y216536D01*
X594704Y201661D02*
X594488Y201878D01*
Y202311D01*
X594704Y202528D01*
X595571D01*
X595787Y202311D01*
Y201878D01*
X595571Y201661D01*
X595787Y201228D02*
Y200795D01*
Y201011D01*
X594488D01*
X594704Y201228D01*
X595787Y199279D02*
Y200145D01*
X594921Y199279D01*
X594704D01*
X594488Y199495D01*
Y199928D01*
X594704Y200145D01*
X591204Y201724D02*
X590988Y201941D01*
Y202374D01*
X591204Y202591D01*
X592071D01*
X592287Y202374D01*
Y201941D01*
X592071Y201724D01*
X592287Y201291D02*
Y200858D01*
Y201074D01*
X590988D01*
X591204Y201291D01*
X592287Y200208D02*
Y199775D01*
Y199991D01*
X590988D01*
X591204Y200208D01*
X594796Y226520D02*
X595012Y226303D01*
Y225870D01*
X594796Y225654D01*
X593929D01*
X593713Y225870D01*
Y226303D01*
X593929Y226520D01*
X593713Y226953D02*
Y227386D01*
Y227170D01*
X595012D01*
X594796Y226953D01*
X595012Y228903D02*
Y228036D01*
X594362D01*
X594579Y228469D01*
Y228686D01*
X594362Y228903D01*
X593929D01*
X593713Y228686D01*
Y228253D01*
X593929Y228036D01*
X579319Y235464D02*
X579536Y235681D01*
Y236114D01*
X579319Y236331D01*
X578453D01*
X578236Y236114D01*
Y235681D01*
X578453Y235464D01*
X579536Y234165D02*
X579319Y234598D01*
X578886Y235031D01*
X578453D01*
X578236Y234815D01*
Y234381D01*
X578453Y234165D01*
X578669D01*
X578886Y234381D01*
Y235031D01*
M02*
