G04*
G04 #@! TF.GenerationSoftware,Altium Limited,Altium Designer,20.1.14 (287)*
G04*
G04 Layer_Color=16711935*
%FSLAX25Y25*%
%MOIN*%
G70*
G04*
G04 #@! TF.SameCoordinates,2AB0D3F0-F82E-4911-9630-DE43A68CCE8E*
G04*
G04*
G04 #@! TF.FilePolarity,Negative*
G04*
G01*
G75*
%ADD58R,0.02769X0.02572*%
%ADD65R,0.16800X0.06800*%
%ADD93O,0.07099X0.04343*%
%ADD94O,0.08674X0.04343*%
%ADD95C,0.05524*%
%ADD96R,0.05524X0.05524*%
%ADD119R,0.05918X0.06706*%
%ADD120R,0.11036X0.07887*%
%ADD121R,0.05524X0.03162*%
%ADD122R,0.07887X0.11036*%
%ADD123R,0.03162X0.05524*%
%ADD124R,0.08280X0.11824*%
G54D58*
X-78518Y-27384D02*
D03*
X-81471D02*
D03*
G54D65*
X-12048Y-10000D02*
D03*
Y10000D02*
D03*
G54D93*
X-202559Y42777D02*
D03*
Y-7616D02*
D03*
G54D94*
X-169095Y42777D02*
D03*
Y-7616D02*
D03*
G54D95*
X-166142Y1832D02*
D03*
Y9707D02*
D03*
Y17581D02*
D03*
Y25455D02*
D03*
Y33329D02*
D03*
X-172047Y21518D02*
D03*
Y31360D02*
D03*
Y13644D02*
D03*
Y3801D02*
D03*
X-105000Y-35000D02*
D03*
X-110000Y-42500D02*
D03*
X-115000Y-35000D02*
D03*
X-125000D02*
D03*
X-105512Y41339D02*
D03*
X-120000Y-42500D02*
D03*
X-93307Y41339D02*
D03*
X-47955Y-45680D02*
D03*
X-58104Y42126D02*
D03*
X-120810Y-17947D02*
D03*
G54D96*
X-110810D02*
D03*
G54D119*
X-177416Y-36851D02*
D03*
X-169936D02*
D03*
G54D120*
X-201000Y-39300D02*
D03*
Y-14300D02*
D03*
G54D121*
X-189583Y-29261D02*
D03*
Y-24339D02*
D03*
G54D122*
X-157964Y36525D02*
D03*
X-132964D02*
D03*
G54D123*
X-147924Y25108D02*
D03*
X-143003D02*
D03*
X-82753Y-32630D02*
D03*
X-67989D02*
D03*
X-72910D02*
D03*
X-77832D02*
D03*
G54D124*
X-57950Y-44047D02*
D03*
X-92792D02*
D03*
M02*
