G04*
G04 #@! TF.GenerationSoftware,Altium Limited,Altium Designer,20.0.14 (345)*
G04*
G04 Layer_Color=15269887*
%FSLAX25Y25*%
%MOIN*%
G70*
G01*
G75*
%ADD10C,0.02362*%
%ADD11C,0.00984*%
%ADD12C,0.00787*%
%ADD13C,0.00500*%
G36*
X611071Y249324D02*
X611121D01*
Y249274D01*
X611096D01*
Y249200D01*
X611071D01*
Y249126D01*
X611047D01*
Y249076D01*
X611022D01*
Y249002D01*
X610997D01*
Y248927D01*
X610972D01*
Y248877D01*
X610947D01*
Y248803D01*
X610922D01*
Y248728D01*
X610898D01*
Y248679D01*
X610873D01*
Y248604D01*
X610848D01*
Y248530D01*
X610823D01*
Y248480D01*
X610798D01*
Y248406D01*
X610774D01*
Y248331D01*
X610749D01*
Y248282D01*
X610724D01*
Y248207D01*
X610699D01*
Y248133D01*
X610674D01*
Y248083D01*
X610649D01*
Y248009D01*
X610625D01*
Y247934D01*
X610600D01*
Y247885D01*
X610575D01*
Y247810D01*
X610550D01*
Y247736D01*
X610525D01*
Y247686D01*
X610500D01*
Y247612D01*
X610476D01*
Y247537D01*
X610451D01*
Y247488D01*
X610426D01*
Y247413D01*
X610401D01*
Y247339D01*
X610376D01*
Y247289D01*
X610352D01*
Y247215D01*
X610327D01*
Y247140D01*
X610302D01*
Y247091D01*
X610277D01*
Y247016D01*
X610252D01*
Y246941D01*
X610227D01*
Y246892D01*
X610203D01*
Y246817D01*
X610178D01*
Y246768D01*
X610153D01*
Y246693D01*
X610128D01*
Y246644D01*
X610103D01*
Y246569D01*
X610079D01*
Y246520D01*
X610054D01*
Y246445D01*
X609954D01*
Y246470D01*
X609905D01*
Y246495D01*
X609855D01*
Y246520D01*
X609830D01*
Y246544D01*
X609781D01*
Y246569D01*
X609756D01*
Y246594D01*
X609731D01*
Y246619D01*
X609682D01*
Y246644D01*
X609657D01*
Y246669D01*
X609632D01*
Y246693D01*
X609582D01*
Y246718D01*
X609557D01*
Y246743D01*
X609533D01*
Y246768D01*
X609508D01*
Y246793D01*
X609458D01*
Y246817D01*
X609433D01*
Y246842D01*
X609409D01*
Y246867D01*
X609384D01*
Y246892D01*
X609334D01*
Y246917D01*
X609309D01*
Y246941D01*
X609284D01*
Y246966D01*
X609260D01*
Y246991D01*
X609235D01*
Y247016D01*
X609185D01*
Y247041D01*
X609160D01*
Y247066D01*
X609135D01*
Y247091D01*
X609111D01*
Y247115D01*
X609086D01*
Y247140D01*
X609036D01*
Y247165D01*
X609011D01*
Y247190D01*
X608987D01*
Y247215D01*
X608962D01*
Y247239D01*
X608912D01*
Y247264D01*
X608887D01*
Y247289D01*
X608862D01*
Y247314D01*
X608838D01*
Y247339D01*
X608813D01*
Y247363D01*
X608763D01*
Y247388D01*
X608515D01*
Y247363D01*
X607845D01*
Y247413D01*
X607870D01*
Y247488D01*
X607895D01*
Y247562D01*
X607919D01*
Y247637D01*
X607944D01*
Y247711D01*
X607969D01*
Y247785D01*
X607994D01*
Y247860D01*
X608019D01*
Y247934D01*
X608043D01*
Y248009D01*
X608068D01*
Y248083D01*
X608093D01*
Y248158D01*
X608118D01*
Y248232D01*
X608143D01*
Y248307D01*
X608168D01*
Y248381D01*
X608192D01*
Y248456D01*
X608217D01*
Y248530D01*
X608242D01*
Y248604D01*
X608267D01*
Y248679D01*
X608292D01*
Y248728D01*
X608316D01*
Y248803D01*
X608341D01*
Y248853D01*
X608366D01*
Y248927D01*
X608391D01*
Y248977D01*
X608416D01*
Y249026D01*
X608440D01*
Y249076D01*
X608465D01*
Y249126D01*
X608490D01*
Y249150D01*
X608515D01*
Y249200D01*
X608565D01*
Y249225D01*
X608614D01*
Y249250D01*
X608887D01*
Y249274D01*
X609260D01*
Y249299D01*
X609731D01*
Y249324D01*
X610302D01*
Y249349D01*
X611071D01*
Y249324D01*
D02*
G37*
G36*
X608440Y246644D02*
X608490D01*
Y246619D01*
X608540D01*
Y246594D01*
X608589D01*
Y246569D01*
X608614D01*
Y246544D01*
X608664D01*
Y246520D01*
X608689D01*
Y246495D01*
X608738D01*
Y246470D01*
X608763D01*
Y246445D01*
X608788D01*
Y246420D01*
X608838D01*
Y246395D01*
X608862D01*
Y246371D01*
X608912D01*
Y246346D01*
X608937D01*
Y246321D01*
X608962D01*
Y246296D01*
X608987D01*
Y246271D01*
X609036D01*
Y246247D01*
X609061D01*
Y246222D01*
X609086D01*
Y246197D01*
X609111D01*
Y246172D01*
X609160D01*
Y246147D01*
X609185D01*
Y246123D01*
X609210D01*
Y246098D01*
X609235D01*
Y246073D01*
X609284D01*
Y246048D01*
X609309D01*
Y246023D01*
X609334D01*
Y245998D01*
X609359D01*
Y245974D01*
X609384D01*
Y245949D01*
X609433D01*
Y245924D01*
X609458D01*
Y245899D01*
X609483D01*
Y245874D01*
X609508D01*
Y245849D01*
X609557D01*
Y245825D01*
X609582D01*
Y245800D01*
X609607D01*
Y245775D01*
X609632D01*
Y245750D01*
X609657D01*
Y245725D01*
X609706D01*
Y245701D01*
X609731D01*
Y245676D01*
X609756D01*
Y245577D01*
X609731D01*
Y245502D01*
X609706D01*
Y245428D01*
X609682D01*
Y245353D01*
X609657D01*
Y245279D01*
X609632D01*
Y245204D01*
X609607D01*
Y245155D01*
X609582D01*
Y245080D01*
X609557D01*
Y245006D01*
X609533D01*
Y244931D01*
X609508D01*
Y244857D01*
X609483D01*
Y244782D01*
X609458D01*
Y244708D01*
X609433D01*
Y244633D01*
X609409D01*
Y244559D01*
X609384D01*
Y244484D01*
X609359D01*
Y244410D01*
X609334D01*
Y244336D01*
X609309D01*
Y244261D01*
X609284D01*
Y244212D01*
X609260D01*
Y244137D01*
X609235D01*
Y244063D01*
X609210D01*
Y243988D01*
X609185D01*
Y243914D01*
X609160D01*
Y243839D01*
X609135D01*
Y243765D01*
X609111D01*
Y243690D01*
X609086D01*
Y243616D01*
X609061D01*
Y243541D01*
X609036D01*
Y243467D01*
X609011D01*
Y243392D01*
X608987D01*
Y243318D01*
X608962D01*
Y243268D01*
X608937D01*
Y243194D01*
X608912D01*
Y243119D01*
X608887D01*
Y243045D01*
X608862D01*
Y242970D01*
X608838D01*
Y242896D01*
X608813D01*
Y242822D01*
X608788D01*
Y242747D01*
X608763D01*
Y242698D01*
X608738D01*
Y242623D01*
X608713D01*
Y242549D01*
X608689D01*
Y242474D01*
X608664D01*
Y242425D01*
X608639D01*
Y242350D01*
X608614D01*
Y242300D01*
X608589D01*
Y242226D01*
X608565D01*
Y242176D01*
X608540D01*
Y242127D01*
X608515D01*
Y242077D01*
X608490D01*
Y242027D01*
X608465D01*
Y241978D01*
X608440D01*
Y241928D01*
X608416D01*
Y241903D01*
X608391D01*
Y241854D01*
X608366D01*
Y241829D01*
X608341D01*
Y241804D01*
X608292D01*
Y241779D01*
X608242D01*
Y241754D01*
X608192D01*
Y241779D01*
X608118D01*
Y241804D01*
X608068D01*
Y241829D01*
X608019D01*
Y241854D01*
X607994D01*
Y241879D01*
X607944D01*
Y241903D01*
X607919D01*
Y241928D01*
X607895D01*
Y241953D01*
X607845D01*
Y241978D01*
X607820D01*
Y242003D01*
X607795D01*
Y242027D01*
X607770D01*
Y242052D01*
X607721D01*
Y242077D01*
X607696D01*
Y242102D01*
X607671D01*
Y242127D01*
X607646D01*
Y242151D01*
X607597D01*
Y242176D01*
X607572D01*
Y242201D01*
X607547D01*
Y242226D01*
X607522D01*
Y242251D01*
X607473D01*
Y242276D01*
X607448D01*
Y242300D01*
X607423D01*
Y242325D01*
X607398D01*
Y242350D01*
X607373D01*
Y242375D01*
X607324D01*
Y242400D01*
X607299D01*
Y242425D01*
X607274D01*
Y242449D01*
X607249D01*
Y245030D01*
X607274D01*
Y245502D01*
X607299D01*
Y245725D01*
X607324D01*
Y245825D01*
X607348D01*
Y245874D01*
X607373D01*
Y245924D01*
X607398D01*
Y245949D01*
X607423D01*
Y245974D01*
X607448D01*
Y246023D01*
X607473D01*
Y246048D01*
X607497D01*
Y246073D01*
X607522D01*
Y246098D01*
X607547D01*
Y246123D01*
X607572D01*
Y246147D01*
X607597D01*
Y246172D01*
X607621D01*
Y246197D01*
X607646D01*
Y246222D01*
X607671D01*
Y246247D01*
X607696D01*
Y246271D01*
X607746D01*
Y246296D01*
X607770D01*
Y246321D01*
X607795D01*
Y246346D01*
X607820D01*
Y246371D01*
X607845D01*
Y246395D01*
X607895D01*
Y246420D01*
X607919D01*
Y246445D01*
X607944D01*
Y246470D01*
X607994D01*
Y246495D01*
X608019D01*
Y246520D01*
X608068D01*
Y246544D01*
X608093D01*
Y246569D01*
X608143D01*
Y246594D01*
X608192D01*
Y246619D01*
X608217D01*
Y246644D01*
X608292D01*
Y246669D01*
X608440D01*
Y246644D01*
D02*
G37*
G36*
X606778Y251682D02*
X606803D01*
Y251657D01*
X606827D01*
Y251632D01*
X606852D01*
Y251607D01*
X606877D01*
Y251583D01*
X606902D01*
Y251558D01*
X606927D01*
Y251533D01*
X606951D01*
Y251508D01*
X606976D01*
Y251459D01*
X607001D01*
Y251434D01*
X607026D01*
Y251409D01*
X607051D01*
Y251384D01*
X607076D01*
Y251359D01*
X607100D01*
Y251335D01*
X607125D01*
Y251310D01*
X607150D01*
Y251260D01*
X607175D01*
Y251235D01*
X607200D01*
Y251210D01*
X607224D01*
Y251186D01*
X607249D01*
Y251136D01*
X607274D01*
Y251111D01*
X607299D01*
Y251086D01*
X607324D01*
Y251062D01*
X607348D01*
Y251037D01*
X607373D01*
Y250987D01*
X607398D01*
Y250962D01*
X607423D01*
Y250937D01*
X607448D01*
Y250913D01*
X607473D01*
Y250863D01*
X607497D01*
Y250838D01*
X607522D01*
Y250813D01*
X607547D01*
Y250764D01*
X607572D01*
Y250739D01*
X607597D01*
Y250714D01*
X607621D01*
Y250689D01*
X607646D01*
Y250640D01*
X607671D01*
Y250615D01*
X607696D01*
Y250590D01*
X607721D01*
Y250565D01*
X607746D01*
Y250516D01*
X607770D01*
Y250491D01*
X607795D01*
Y250466D01*
X607820D01*
Y250441D01*
X607845D01*
Y250391D01*
X607870D01*
Y250367D01*
X607895D01*
Y250342D01*
X607919D01*
Y250292D01*
X607944D01*
Y250267D01*
X607969D01*
Y250242D01*
X607994D01*
Y250218D01*
X608019D01*
Y250168D01*
X608043D01*
Y250069D01*
X608019D01*
Y249994D01*
X607994D01*
Y249920D01*
X607969D01*
Y249845D01*
X607944D01*
Y249771D01*
X607919D01*
Y249696D01*
X607895D01*
Y249622D01*
X607870D01*
Y249548D01*
X607845D01*
Y249473D01*
X607820D01*
Y249399D01*
X607795D01*
Y249324D01*
X607770D01*
Y249250D01*
X607746D01*
Y249175D01*
X607721D01*
Y249101D01*
X607696D01*
Y249026D01*
X607671D01*
Y248952D01*
X607646D01*
Y248877D01*
X607621D01*
Y248803D01*
X607597D01*
Y248728D01*
X607572D01*
Y248654D01*
X607547D01*
Y248580D01*
X607522D01*
Y248505D01*
X607497D01*
Y248456D01*
X607473D01*
Y248381D01*
X607448D01*
Y248307D01*
X607423D01*
Y248232D01*
X607398D01*
Y248158D01*
X607373D01*
Y248083D01*
X607348D01*
Y248009D01*
X607324D01*
Y247934D01*
X607299D01*
Y247860D01*
X607274D01*
Y247785D01*
X607249D01*
Y247711D01*
X607224D01*
Y247637D01*
X607200D01*
Y247562D01*
X607175D01*
Y247488D01*
X607150D01*
Y247413D01*
X607125D01*
Y247339D01*
X607100D01*
Y247264D01*
X607076D01*
Y247190D01*
X607051D01*
Y247115D01*
X607026D01*
Y247041D01*
X607001D01*
Y246966D01*
X606976D01*
Y246892D01*
X606951D01*
Y246817D01*
X606927D01*
Y246743D01*
X606902D01*
Y246669D01*
X606877D01*
Y246594D01*
X606852D01*
Y246520D01*
X606827D01*
Y246470D01*
X606803D01*
Y246371D01*
X606778D01*
Y246321D01*
X606753D01*
Y246247D01*
X606728D01*
Y246172D01*
X606703D01*
Y246098D01*
X606678D01*
Y246023D01*
X606653D01*
Y245949D01*
X606629D01*
Y245874D01*
X606604D01*
Y245800D01*
X606579D01*
Y245725D01*
X606554D01*
Y245651D01*
X606530D01*
Y245577D01*
X606505D01*
Y245502D01*
X606480D01*
Y245428D01*
X606455D01*
Y245353D01*
X606430D01*
Y245279D01*
X606405D01*
Y245204D01*
X606381D01*
Y245130D01*
X606356D01*
Y245055D01*
X606331D01*
Y244981D01*
X606306D01*
Y244906D01*
X606281D01*
Y244832D01*
X606256D01*
Y244758D01*
X606232D01*
Y244683D01*
X606207D01*
Y244609D01*
X606182D01*
Y244534D01*
X606157D01*
Y244460D01*
X606132D01*
Y244385D01*
X606108D01*
Y244311D01*
X606083D01*
Y244236D01*
X606058D01*
Y244162D01*
X606033D01*
Y244087D01*
X606008D01*
Y244013D01*
X605983D01*
Y243963D01*
X605959D01*
Y243889D01*
X605934D01*
Y243814D01*
X605909D01*
Y243740D01*
X605884D01*
Y243666D01*
X605859D01*
Y243591D01*
X605834D01*
Y243516D01*
X605810D01*
Y243442D01*
X605785D01*
Y243368D01*
X605760D01*
Y243293D01*
X605735D01*
Y243219D01*
X605710D01*
Y243144D01*
X605686D01*
Y243070D01*
X605661D01*
Y242995D01*
X605636D01*
Y242921D01*
X605611D01*
Y242846D01*
X605586D01*
Y242772D01*
X605561D01*
Y242698D01*
X605537D01*
Y242623D01*
X605512D01*
Y242549D01*
X605487D01*
Y242474D01*
X605462D01*
Y242400D01*
X605437D01*
Y242325D01*
X605413D01*
Y242251D01*
X605388D01*
Y242176D01*
X605363D01*
Y242102D01*
X605338D01*
Y242027D01*
X605313D01*
Y241953D01*
X605289D01*
Y241879D01*
X605264D01*
Y241804D01*
X605239D01*
Y241754D01*
X605214D01*
Y241680D01*
X605189D01*
Y241605D01*
X605164D01*
Y241531D01*
X605140D01*
Y241457D01*
X605115D01*
Y241382D01*
X605090D01*
Y241308D01*
X605065D01*
Y241233D01*
X605040D01*
Y241159D01*
X605016D01*
Y241134D01*
X603104D01*
Y241109D01*
X601566D01*
Y241159D01*
X601541D01*
Y241208D01*
X601516D01*
Y241308D01*
X601491D01*
Y241382D01*
X601466D01*
Y241457D01*
X601442D01*
Y241531D01*
X601417D01*
Y241605D01*
X601392D01*
Y241680D01*
X601367D01*
Y241779D01*
X601342D01*
Y241854D01*
X601318D01*
Y241928D01*
X601293D01*
Y242003D01*
X601268D01*
Y242077D01*
X601243D01*
Y242176D01*
X601218D01*
Y242251D01*
X601193D01*
Y242325D01*
X601169D01*
Y242400D01*
X601144D01*
Y242474D01*
X601119D01*
Y242573D01*
X601094D01*
Y242648D01*
X601069D01*
Y242722D01*
X601044D01*
Y242797D01*
X601020D01*
Y242871D01*
X600995D01*
Y242946D01*
X600970D01*
Y243045D01*
X600945D01*
Y243119D01*
X600920D01*
Y243194D01*
X600896D01*
Y243268D01*
X600871D01*
Y243343D01*
X600846D01*
Y243442D01*
X600821D01*
Y243516D01*
X600796D01*
Y243591D01*
X600772D01*
Y243666D01*
X600747D01*
Y243740D01*
X600722D01*
Y243814D01*
X600697D01*
Y243914D01*
X600672D01*
Y243988D01*
X600647D01*
Y244063D01*
X600623D01*
Y244137D01*
X600598D01*
Y244212D01*
X600573D01*
Y244311D01*
X600548D01*
Y244385D01*
X600523D01*
Y244460D01*
X600498D01*
Y244534D01*
X600474D01*
Y244609D01*
X600449D01*
Y244708D01*
X600424D01*
Y244782D01*
X600399D01*
Y244857D01*
X600374D01*
Y244931D01*
X600350D01*
Y245006D01*
X600325D01*
Y245080D01*
X600300D01*
Y245179D01*
X600275D01*
Y245254D01*
X600250D01*
Y245328D01*
X600225D01*
Y245403D01*
X600201D01*
Y245477D01*
X600176D01*
Y245577D01*
X600151D01*
Y245651D01*
X600126D01*
Y245725D01*
X600101D01*
Y245800D01*
X600076D01*
Y245874D01*
X600052D01*
Y245974D01*
X600027D01*
Y246048D01*
X600002D01*
Y246123D01*
X599977D01*
Y246197D01*
X599952D01*
Y246271D01*
X599928D01*
Y246371D01*
X599903D01*
Y246445D01*
X599878D01*
Y246520D01*
X599853D01*
Y246594D01*
X599828D01*
Y246669D01*
X599803D01*
Y246743D01*
X599779D01*
Y246842D01*
X599754D01*
Y246917D01*
X599729D01*
Y246991D01*
X599704D01*
Y247066D01*
X599679D01*
Y247140D01*
X599655D01*
Y247239D01*
X599630D01*
Y247314D01*
X599605D01*
Y247388D01*
X599580D01*
Y247463D01*
X599555D01*
Y247537D01*
X599531D01*
Y247637D01*
X599506D01*
Y247711D01*
X599481D01*
Y247785D01*
X599456D01*
Y247860D01*
X599431D01*
Y247934D01*
X599406D01*
Y248034D01*
X599382D01*
Y248108D01*
X599357D01*
Y248183D01*
X599332D01*
Y248257D01*
X599307D01*
Y248331D01*
X599282D01*
Y248431D01*
X599258D01*
Y248505D01*
X599233D01*
Y248580D01*
X599208D01*
Y248654D01*
X599183D01*
Y248728D01*
X599158D01*
Y248803D01*
X599133D01*
Y248902D01*
X599109D01*
Y248977D01*
X599084D01*
Y249051D01*
X599059D01*
Y249126D01*
X599034D01*
Y249200D01*
X599009D01*
Y249299D01*
X598984D01*
Y249374D01*
X598960D01*
Y249448D01*
X598935D01*
Y249523D01*
X598910D01*
Y249597D01*
X598885D01*
Y249696D01*
X598860D01*
Y249771D01*
X598836D01*
Y249845D01*
X598811D01*
Y249920D01*
X598786D01*
Y250019D01*
X598761D01*
Y250069D01*
X598786D01*
Y250094D01*
X598860D01*
Y250118D01*
X598984D01*
Y250143D01*
X599109D01*
Y250168D01*
X599233D01*
Y250193D01*
X599357D01*
Y250218D01*
X599481D01*
Y250242D01*
X599605D01*
Y250267D01*
X599729D01*
Y250292D01*
X599853D01*
Y250317D01*
X599977D01*
Y250342D01*
X600101D01*
Y250367D01*
X600225D01*
Y250391D01*
X600325D01*
Y250416D01*
X600449D01*
Y250441D01*
X600573D01*
Y250466D01*
X600697D01*
Y250491D01*
X600821D01*
Y250516D01*
X600920D01*
Y250540D01*
X601044D01*
Y250565D01*
X601169D01*
Y250590D01*
X601293D01*
Y250615D01*
X601417D01*
Y250640D01*
X601541D01*
Y250664D01*
X601640D01*
Y250689D01*
X601764D01*
Y250714D01*
X601888D01*
Y250739D01*
X602012D01*
Y250764D01*
X602137D01*
Y250788D01*
X602261D01*
Y250813D01*
X602360D01*
Y250838D01*
X602484D01*
Y250863D01*
X602608D01*
Y250888D01*
X602732D01*
Y250913D01*
X602856D01*
Y250937D01*
X602980D01*
Y250962D01*
X603080D01*
Y250987D01*
X603204D01*
Y251012D01*
X603328D01*
Y251037D01*
X603452D01*
Y251062D01*
X603576D01*
Y251086D01*
X603700D01*
Y251111D01*
X603799D01*
Y251136D01*
X603924D01*
Y251161D01*
X604047D01*
Y251186D01*
X604172D01*
Y251210D01*
X604296D01*
Y251235D01*
X604420D01*
Y251260D01*
X604519D01*
Y251285D01*
X604643D01*
Y251310D01*
X604767D01*
Y251335D01*
X604891D01*
Y251359D01*
X605016D01*
Y251384D01*
X605140D01*
Y251409D01*
X605239D01*
Y251434D01*
X605363D01*
Y251459D01*
X605487D01*
Y251483D01*
X605611D01*
Y251508D01*
X605735D01*
Y251533D01*
X605859D01*
Y251558D01*
X605983D01*
Y251583D01*
X606108D01*
Y251607D01*
X606232D01*
Y251632D01*
X606356D01*
Y251657D01*
X606480D01*
Y251682D01*
X606604D01*
Y251707D01*
X606778D01*
Y251682D01*
D02*
G37*
G36*
X598116Y249721D02*
X598141D01*
Y249647D01*
X598166D01*
Y249572D01*
X598190D01*
Y249498D01*
X598215D01*
Y249423D01*
X598240D01*
Y249349D01*
X598265D01*
Y249274D01*
X598290D01*
Y249200D01*
X598314D01*
Y249101D01*
X598339D01*
Y249026D01*
X598364D01*
Y248952D01*
X598389D01*
Y248877D01*
X598414D01*
Y248803D01*
X598439D01*
Y248728D01*
X598463D01*
Y248654D01*
X598488D01*
Y248555D01*
X598513D01*
Y248480D01*
X598538D01*
Y248406D01*
X598563D01*
Y248331D01*
X598587D01*
Y248257D01*
X598612D01*
Y248183D01*
X598637D01*
Y248083D01*
X598662D01*
Y248009D01*
X598687D01*
Y247934D01*
X598711D01*
Y247860D01*
X598736D01*
Y247785D01*
X598761D01*
Y247686D01*
X598786D01*
Y247612D01*
X598811D01*
Y247537D01*
X598836D01*
Y247463D01*
X598860D01*
Y247388D01*
X598885D01*
Y247289D01*
X598910D01*
Y247215D01*
X598935D01*
Y247140D01*
X598960D01*
Y247066D01*
X598984D01*
Y246991D01*
X599009D01*
Y246917D01*
X599034D01*
Y246817D01*
X599059D01*
Y246743D01*
X599084D01*
Y246669D01*
X599109D01*
Y246594D01*
X599133D01*
Y246520D01*
X599158D01*
Y246420D01*
X599183D01*
Y246346D01*
X599208D01*
Y246271D01*
X599233D01*
Y246197D01*
X599258D01*
Y246123D01*
X599282D01*
Y246023D01*
X599307D01*
Y245949D01*
X599332D01*
Y245874D01*
X599357D01*
Y245800D01*
X599382D01*
Y245725D01*
X599406D01*
Y245651D01*
X599431D01*
Y245552D01*
X599456D01*
Y245477D01*
X599481D01*
Y245403D01*
X599506D01*
Y245328D01*
X599531D01*
Y245254D01*
X599555D01*
Y245155D01*
X599580D01*
Y245080D01*
X599605D01*
Y245006D01*
X599630D01*
Y244931D01*
X599655D01*
Y244832D01*
X599679D01*
Y244758D01*
X599704D01*
Y244683D01*
X599729D01*
Y244609D01*
X599754D01*
Y244534D01*
X599779D01*
Y244435D01*
X599803D01*
Y244360D01*
X599828D01*
Y244286D01*
X599853D01*
Y244212D01*
X599878D01*
Y244137D01*
X599903D01*
Y244038D01*
X599928D01*
Y243963D01*
X599952D01*
Y243889D01*
X599977D01*
Y243814D01*
X600002D01*
Y243740D01*
X600027D01*
Y243641D01*
X600052D01*
Y243566D01*
X600076D01*
Y243492D01*
X600101D01*
Y243417D01*
X600126D01*
Y243318D01*
X600151D01*
Y243244D01*
X600176D01*
Y243169D01*
X600201D01*
Y243095D01*
X600225D01*
Y243020D01*
X600250D01*
Y242921D01*
X600275D01*
Y242846D01*
X600300D01*
Y242772D01*
X600325D01*
Y242698D01*
X600350D01*
Y242623D01*
X600374D01*
Y242524D01*
X600399D01*
Y242449D01*
X600424D01*
Y242375D01*
X600449D01*
Y242300D01*
X600474D01*
Y242201D01*
X600498D01*
Y242127D01*
X600523D01*
Y242052D01*
X600548D01*
Y241978D01*
X600573D01*
Y241879D01*
X600598D01*
Y241804D01*
X600623D01*
Y241730D01*
X600647D01*
Y241655D01*
X600672D01*
Y241581D01*
X600697D01*
Y241481D01*
X600722D01*
Y241407D01*
X600747D01*
Y241333D01*
X600772D01*
Y241233D01*
X600796D01*
Y241159D01*
X600821D01*
Y241059D01*
X600747D01*
Y241035D01*
X600424D01*
Y241010D01*
X600052D01*
Y240985D01*
X599679D01*
Y240960D01*
X599307D01*
Y240935D01*
X598910D01*
Y240911D01*
X598513D01*
Y240886D01*
X598116D01*
Y240861D01*
X597744D01*
Y240836D01*
X597297D01*
Y240861D01*
X597197D01*
Y240886D01*
X597098D01*
Y240911D01*
X596999D01*
Y240935D01*
X596900D01*
Y240960D01*
X596825D01*
Y240985D01*
X596726D01*
Y241010D01*
X596627D01*
Y241035D01*
X596527D01*
Y241059D01*
X596428D01*
Y241084D01*
X596354D01*
Y241109D01*
X596254D01*
Y241134D01*
X596155D01*
Y241159D01*
X596056D01*
Y241184D01*
X595957D01*
Y241208D01*
X595882D01*
Y241233D01*
X595783D01*
Y241258D01*
X595684D01*
Y241283D01*
X595584D01*
Y241308D01*
X595485D01*
Y241333D01*
X595386D01*
Y241357D01*
X595311D01*
Y241382D01*
X595212D01*
Y241407D01*
X595113D01*
Y241432D01*
X595014D01*
Y241457D01*
X594914D01*
Y241481D01*
X594840D01*
Y241506D01*
X594740D01*
Y241531D01*
X594641D01*
Y241556D01*
X594542D01*
Y241581D01*
X594443D01*
Y241605D01*
X594368D01*
Y241630D01*
X594269D01*
Y241655D01*
X594170D01*
Y241680D01*
X594070D01*
Y241705D01*
X593971D01*
Y241730D01*
X593897D01*
Y241754D01*
X593797D01*
Y241779D01*
X593698D01*
Y241804D01*
X593599D01*
Y241829D01*
X593500D01*
Y241854D01*
X593400D01*
Y241879D01*
X593326D01*
Y241903D01*
X593226D01*
Y241928D01*
X593127D01*
Y241953D01*
X593028D01*
Y241978D01*
X592929D01*
Y242003D01*
X592854D01*
Y242027D01*
X592755D01*
Y242052D01*
X592656D01*
Y242077D01*
X592556D01*
Y242102D01*
X592457D01*
Y242127D01*
X592383D01*
Y242151D01*
X592283D01*
Y242176D01*
X592184D01*
Y242201D01*
X592085D01*
Y242226D01*
X591986D01*
Y242251D01*
X591911D01*
Y242276D01*
X591812D01*
Y242300D01*
X591713D01*
Y242325D01*
X591613D01*
Y242350D01*
X591514D01*
Y242375D01*
X591439D01*
Y242400D01*
X591340D01*
Y242425D01*
X591241D01*
Y242449D01*
X591142D01*
Y242474D01*
X591042D01*
Y242499D01*
X590968D01*
Y242524D01*
X590869D01*
Y242549D01*
X590769D01*
Y242573D01*
X590670D01*
Y242598D01*
X590571D01*
Y242623D01*
X590496D01*
Y242648D01*
X590397D01*
Y242673D01*
X590298D01*
Y242698D01*
X590199D01*
Y242722D01*
X590099D01*
Y242747D01*
X590025D01*
Y242772D01*
X589926D01*
Y242797D01*
X589826D01*
Y242822D01*
X589727D01*
Y242846D01*
X589628D01*
Y242871D01*
X589553D01*
Y242896D01*
X589454D01*
Y242921D01*
X589355D01*
Y242946D01*
X589255D01*
Y242970D01*
X589181D01*
Y242995D01*
X589082D01*
Y243020D01*
X588982D01*
Y243045D01*
X588883D01*
Y243070D01*
X588809D01*
Y243095D01*
X588709D01*
Y243119D01*
X588610D01*
Y243144D01*
X588536D01*
Y243169D01*
X588436D01*
Y243194D01*
X588387D01*
Y243219D01*
X588436D01*
Y243244D01*
X588461D01*
Y243268D01*
X588486D01*
Y243293D01*
X588536D01*
Y243318D01*
X588560D01*
Y243343D01*
X588610D01*
Y243368D01*
X588635D01*
Y243392D01*
X588685D01*
Y243417D01*
X588709D01*
Y243442D01*
X588759D01*
Y243467D01*
X588784D01*
Y243492D01*
X588834D01*
Y243516D01*
X588858D01*
Y243541D01*
X588908D01*
Y243566D01*
X588933D01*
Y243591D01*
X588958D01*
Y243616D01*
X589007D01*
Y243641D01*
X589032D01*
Y243666D01*
X589082D01*
Y243690D01*
X589107D01*
Y243715D01*
X589156D01*
Y243740D01*
X589181D01*
Y243765D01*
X589231D01*
Y243790D01*
X589255D01*
Y243814D01*
X589305D01*
Y243839D01*
X589330D01*
Y243864D01*
X589380D01*
Y243889D01*
X589404D01*
Y243914D01*
X589454D01*
Y243938D01*
X589479D01*
Y243963D01*
X589504D01*
Y243988D01*
X589553D01*
Y244013D01*
X589578D01*
Y244038D01*
X589628D01*
Y244063D01*
X589653D01*
Y244087D01*
X589702D01*
Y244112D01*
X589727D01*
Y244137D01*
X589777D01*
Y244162D01*
X589802D01*
Y244187D01*
X589851D01*
Y244212D01*
X589876D01*
Y244236D01*
X589926D01*
Y244261D01*
X589950D01*
Y244286D01*
X590000D01*
Y244311D01*
X590025D01*
Y244336D01*
X590074D01*
Y244360D01*
X590099D01*
Y244385D01*
X590149D01*
Y244410D01*
X590174D01*
Y244435D01*
X590223D01*
Y244460D01*
X590248D01*
Y244484D01*
X590273D01*
Y244509D01*
X590323D01*
Y244534D01*
X590347D01*
Y244559D01*
X590397D01*
Y244584D01*
X590422D01*
Y244609D01*
X590472D01*
Y244633D01*
X590496D01*
Y244658D01*
X590546D01*
Y244683D01*
X590571D01*
Y244708D01*
X590621D01*
Y244733D01*
X590645D01*
Y244758D01*
X590695D01*
Y244782D01*
X590720D01*
Y244807D01*
X590769D01*
Y244832D01*
X590794D01*
Y244857D01*
X590844D01*
Y244882D01*
X590869D01*
Y244906D01*
X590918D01*
Y244931D01*
X590943D01*
Y244956D01*
X590993D01*
Y244981D01*
X591018D01*
Y245006D01*
X591067D01*
Y245030D01*
X591092D01*
Y245055D01*
X591117D01*
Y245080D01*
X591166D01*
Y245105D01*
X591191D01*
Y245130D01*
X591241D01*
Y245155D01*
X591266D01*
Y245179D01*
X591315D01*
Y245204D01*
X591340D01*
Y245229D01*
X591390D01*
Y245254D01*
X591415D01*
Y245279D01*
X591464D01*
Y245304D01*
X591489D01*
Y245328D01*
X591539D01*
Y245353D01*
X591564D01*
Y245378D01*
X591613D01*
Y245403D01*
X591638D01*
Y245428D01*
X591688D01*
Y245452D01*
X591713D01*
Y245477D01*
X591762D01*
Y245502D01*
X591787D01*
Y245527D01*
X591837D01*
Y245552D01*
X591861D01*
Y245577D01*
X591911D01*
Y245601D01*
X591936D01*
Y245626D01*
X591986D01*
Y245651D01*
X592010D01*
Y245676D01*
X592035D01*
Y245701D01*
X592085D01*
Y245725D01*
X592110D01*
Y245750D01*
X592159D01*
Y245775D01*
X592184D01*
Y245800D01*
X592234D01*
Y245825D01*
X592259D01*
Y245849D01*
X592308D01*
Y245874D01*
X592333D01*
Y245899D01*
X592383D01*
Y245924D01*
X592407D01*
Y245949D01*
X592457D01*
Y245974D01*
X592482D01*
Y245998D01*
X592532D01*
Y246023D01*
X592556D01*
Y246048D01*
X592606D01*
Y246073D01*
X592631D01*
Y246098D01*
X592681D01*
Y246123D01*
X592705D01*
Y246147D01*
X592755D01*
Y246172D01*
X592780D01*
Y246197D01*
X592829D01*
Y246222D01*
X592854D01*
Y246247D01*
X592879D01*
Y246271D01*
X592929D01*
Y246296D01*
X592953D01*
Y246321D01*
X593003D01*
Y246346D01*
X593028D01*
Y246371D01*
X593078D01*
Y246395D01*
X593102D01*
Y246420D01*
X593152D01*
Y246445D01*
X593177D01*
Y246470D01*
X593226D01*
Y246495D01*
X593251D01*
Y246520D01*
X593301D01*
Y246544D01*
X593326D01*
Y246569D01*
X593375D01*
Y246594D01*
X593400D01*
Y246619D01*
X593450D01*
Y246644D01*
X593475D01*
Y246669D01*
X593524D01*
Y246693D01*
X593549D01*
Y246718D01*
X593599D01*
Y246743D01*
X593624D01*
Y246768D01*
X593673D01*
Y246793D01*
X593698D01*
Y246817D01*
X593748D01*
Y246842D01*
X593773D01*
Y246867D01*
X593822D01*
Y246892D01*
X593847D01*
Y246917D01*
X593897D01*
Y246941D01*
X593921D01*
Y246966D01*
X593971D01*
Y246991D01*
X593996D01*
Y247016D01*
X594045D01*
Y247041D01*
X594070D01*
Y247066D01*
X594095D01*
Y247091D01*
X594145D01*
Y247115D01*
X594170D01*
Y247140D01*
X594219D01*
Y247165D01*
X594244D01*
Y247190D01*
X594294D01*
Y247215D01*
X594318D01*
Y247239D01*
X594368D01*
Y247264D01*
X594393D01*
Y247289D01*
X594443D01*
Y247314D01*
X594467D01*
Y247339D01*
X594517D01*
Y247363D01*
X594542D01*
Y247388D01*
X594592D01*
Y247413D01*
X594616D01*
Y247438D01*
X594666D01*
Y247463D01*
X594691D01*
Y247488D01*
X594740D01*
Y247512D01*
X594765D01*
Y247537D01*
X594815D01*
Y247562D01*
X594840D01*
Y247587D01*
X594889D01*
Y247612D01*
X594914D01*
Y247637D01*
X594964D01*
Y247661D01*
X594989D01*
Y247686D01*
X595038D01*
Y247711D01*
X595063D01*
Y247736D01*
X595113D01*
Y247761D01*
X595138D01*
Y247785D01*
X595187D01*
Y247810D01*
X595212D01*
Y247835D01*
X595262D01*
Y247860D01*
X595287D01*
Y247885D01*
X595336D01*
Y247909D01*
X595361D01*
Y247934D01*
X595411D01*
Y247959D01*
X595435D01*
Y247984D01*
X595485D01*
Y248009D01*
X595510D01*
Y248034D01*
X595560D01*
Y248058D01*
X595584D01*
Y248083D01*
X595609D01*
Y248108D01*
X595659D01*
Y248133D01*
X595684D01*
Y248158D01*
X595733D01*
Y248183D01*
X595758D01*
Y248207D01*
X595808D01*
Y248232D01*
X595832D01*
Y248257D01*
X595882D01*
Y248282D01*
X595907D01*
Y248307D01*
X595957D01*
Y248331D01*
X595981D01*
Y248356D01*
X596031D01*
Y248381D01*
X596056D01*
Y248406D01*
X596105D01*
Y248431D01*
X596130D01*
Y248456D01*
X596180D01*
Y248480D01*
X596205D01*
Y248505D01*
X596254D01*
Y248530D01*
X596279D01*
Y248555D01*
X596329D01*
Y248580D01*
X596354D01*
Y248604D01*
X596403D01*
Y248629D01*
X596428D01*
Y248654D01*
X596478D01*
Y248679D01*
X596503D01*
Y248704D01*
X596552D01*
Y248728D01*
X596577D01*
Y248753D01*
X596627D01*
Y248778D01*
X596652D01*
Y248803D01*
X596701D01*
Y248828D01*
X596726D01*
Y248853D01*
X596776D01*
Y248877D01*
X596800D01*
Y248902D01*
X596850D01*
Y248927D01*
X596875D01*
Y248952D01*
X596924D01*
Y248977D01*
X596949D01*
Y249002D01*
X596999D01*
Y249026D01*
X597024D01*
Y249051D01*
X597073D01*
Y249076D01*
X597098D01*
Y249101D01*
X597148D01*
Y249126D01*
X597173D01*
Y249150D01*
X597222D01*
Y249175D01*
X597247D01*
Y249200D01*
X597297D01*
Y249225D01*
X597322D01*
Y249250D01*
X597371D01*
Y249274D01*
X597396D01*
Y249299D01*
X597446D01*
Y249324D01*
X597471D01*
Y249349D01*
X597520D01*
Y249374D01*
X597545D01*
Y249399D01*
X597595D01*
Y249423D01*
X597619D01*
Y249448D01*
X597669D01*
Y249473D01*
X597694D01*
Y249498D01*
X597744D01*
Y249523D01*
X597768D01*
Y249548D01*
X597818D01*
Y249572D01*
X597843D01*
Y249597D01*
X597893D01*
Y249622D01*
X597917D01*
Y249647D01*
X597967D01*
Y249672D01*
X597992D01*
Y249696D01*
X598041D01*
Y249721D01*
X598066D01*
Y249746D01*
X598116D01*
Y249721D01*
D02*
G37*
G36*
X606554Y242127D02*
X606579D01*
Y242102D01*
X606604D01*
Y242077D01*
X606629D01*
Y242052D01*
X606678D01*
Y242027D01*
X606703D01*
Y242003D01*
X606728D01*
Y241978D01*
X606753D01*
Y241953D01*
X606803D01*
Y241928D01*
X606827D01*
Y241903D01*
X606852D01*
Y241879D01*
X606877D01*
Y241854D01*
X606927D01*
Y241829D01*
X606951D01*
Y241804D01*
X606976D01*
Y241779D01*
X607001D01*
Y241754D01*
X607026D01*
Y241730D01*
X607076D01*
Y241705D01*
X607100D01*
Y241680D01*
X607125D01*
Y241655D01*
X607150D01*
Y241630D01*
X607200D01*
Y241605D01*
X607224D01*
Y241581D01*
X607249D01*
Y241556D01*
X607274D01*
Y241531D01*
X607324D01*
Y241506D01*
X607348D01*
Y241481D01*
X607373D01*
Y241457D01*
X607398D01*
Y241432D01*
X607448D01*
Y241407D01*
X607473D01*
Y241382D01*
X607497D01*
Y241357D01*
X607547D01*
Y241333D01*
X607572D01*
Y241308D01*
X607621D01*
Y241283D01*
X607646D01*
Y241258D01*
X607696D01*
Y241233D01*
X607721D01*
Y241208D01*
X607770D01*
Y241184D01*
X607795D01*
Y241159D01*
X607845D01*
Y241134D01*
X607895D01*
Y241109D01*
X607969D01*
Y241084D01*
X608168D01*
Y241059D01*
X608192D01*
Y241035D01*
X608217D01*
Y240960D01*
X608192D01*
Y240911D01*
X608168D01*
Y240886D01*
X608143D01*
Y240861D01*
X608093D01*
Y240836D01*
X607870D01*
Y240811D01*
X605686D01*
Y240836D01*
X605636D01*
Y240886D01*
X605661D01*
Y240960D01*
X605686D01*
Y241010D01*
X605710D01*
Y241084D01*
X605735D01*
Y241159D01*
X605760D01*
Y241233D01*
X605785D01*
Y241308D01*
X605810D01*
Y241382D01*
X605834D01*
Y241457D01*
X605859D01*
Y241531D01*
X605884D01*
Y241605D01*
X605909D01*
Y241680D01*
X605934D01*
Y241754D01*
X605959D01*
Y241829D01*
X605983D01*
Y241903D01*
X606008D01*
Y241953D01*
X606033D01*
Y242027D01*
X606058D01*
Y242102D01*
X606083D01*
Y242176D01*
X606108D01*
Y242251D01*
X606132D01*
Y242325D01*
X606157D01*
Y242400D01*
X606182D01*
Y242474D01*
X606207D01*
Y242549D01*
X606232D01*
Y242623D01*
X606256D01*
Y242698D01*
X606281D01*
Y242772D01*
X606306D01*
Y242822D01*
X606331D01*
Y242896D01*
X606356D01*
Y242970D01*
X606381D01*
Y243045D01*
X606405D01*
Y243119D01*
X606430D01*
Y243194D01*
X606455D01*
Y243268D01*
X606480D01*
Y243343D01*
X606505D01*
Y243417D01*
X606530D01*
Y243492D01*
X606554D01*
Y242127D01*
D02*
G37*
G36*
X612461Y250714D02*
X612610D01*
Y250689D01*
X612759D01*
Y250664D01*
X612883D01*
Y250640D01*
X613007D01*
Y250615D01*
X613131D01*
Y250590D01*
X613280D01*
Y250565D01*
X613404D01*
Y250540D01*
X613528D01*
Y250516D01*
X613653D01*
Y250491D01*
X613777D01*
Y250466D01*
X613901D01*
Y250441D01*
X614025D01*
Y250416D01*
X614149D01*
Y250391D01*
X614273D01*
Y250367D01*
X614397D01*
Y250342D01*
X614521D01*
Y250317D01*
X614645D01*
Y250292D01*
X614769D01*
Y250267D01*
X614869D01*
Y250242D01*
X614993D01*
Y250218D01*
X615117D01*
Y250193D01*
X615241D01*
Y250168D01*
X615365D01*
Y250143D01*
X615489D01*
Y250118D01*
X615613D01*
Y250094D01*
X615712D01*
Y250069D01*
X615837D01*
Y250044D01*
X615961D01*
Y250019D01*
X616085D01*
Y249994D01*
X616209D01*
Y249970D01*
X616333D01*
Y249945D01*
X616432D01*
Y249920D01*
X616556D01*
Y249895D01*
X616680D01*
Y249870D01*
X616805D01*
Y249845D01*
X616904D01*
Y249821D01*
X617028D01*
Y249796D01*
X617152D01*
Y249771D01*
X617276D01*
Y249746D01*
X617375D01*
Y249721D01*
X617499D01*
Y249696D01*
X617624D01*
Y249672D01*
X617723D01*
Y249647D01*
X617847D01*
Y249622D01*
X617971D01*
Y249597D01*
X618070D01*
Y249572D01*
X618194D01*
Y249548D01*
X618319D01*
Y249523D01*
X618418D01*
Y249498D01*
X618542D01*
Y249473D01*
X618666D01*
Y249448D01*
X618765D01*
Y249423D01*
X618889D01*
Y249399D01*
X618989D01*
Y249374D01*
X619113D01*
Y249349D01*
X619212D01*
Y249324D01*
X619336D01*
Y249299D01*
X619435D01*
Y249274D01*
X619535D01*
Y249250D01*
X619634D01*
Y249225D01*
X619708D01*
Y249200D01*
X619733D01*
Y248952D01*
X619708D01*
Y248803D01*
X619684D01*
Y248679D01*
X619659D01*
Y248555D01*
X619634D01*
Y248456D01*
X619609D01*
Y248356D01*
X619584D01*
Y248257D01*
X619559D01*
Y248158D01*
X619535D01*
Y248058D01*
X619510D01*
Y247984D01*
X619485D01*
Y247885D01*
X619460D01*
Y247810D01*
X619435D01*
Y247711D01*
X619411D01*
Y247637D01*
X619386D01*
Y247562D01*
X619361D01*
Y247488D01*
X619336D01*
Y247413D01*
X619311D01*
Y247339D01*
X619286D01*
Y247264D01*
X619262D01*
Y247190D01*
X619237D01*
Y247140D01*
X619212D01*
Y247066D01*
X619187D01*
Y247016D01*
X619162D01*
Y246941D01*
X619137D01*
Y246892D01*
X619113D01*
Y246842D01*
X619088D01*
Y246768D01*
X619063D01*
Y246718D01*
X619038D01*
Y246669D01*
X619013D01*
Y246619D01*
X618989D01*
Y246544D01*
X618964D01*
Y246495D01*
X618939D01*
Y246445D01*
X618914D01*
Y246395D01*
X618889D01*
Y246346D01*
X618864D01*
Y246296D01*
X618840D01*
Y246247D01*
X618815D01*
Y246197D01*
X618790D01*
Y246147D01*
X618765D01*
Y246098D01*
X618740D01*
Y246048D01*
X618716D01*
Y245998D01*
X618691D01*
Y245949D01*
X618666D01*
Y245899D01*
X618641D01*
Y245849D01*
X618616D01*
Y245800D01*
X618591D01*
Y245750D01*
X618567D01*
Y245701D01*
X618542D01*
Y245676D01*
X618517D01*
Y245626D01*
X618492D01*
Y245577D01*
X618467D01*
Y245527D01*
X618443D01*
Y245477D01*
X618418D01*
Y245452D01*
X618393D01*
Y245403D01*
X618368D01*
Y245353D01*
X618343D01*
Y245304D01*
X618319D01*
Y245279D01*
X618294D01*
Y245229D01*
X618269D01*
Y245179D01*
X618244D01*
Y245155D01*
X618219D01*
Y245105D01*
X618194D01*
Y245055D01*
X618170D01*
Y245030D01*
X618145D01*
Y244981D01*
X618120D01*
Y244931D01*
X618095D01*
Y244906D01*
X618070D01*
Y244857D01*
X618046D01*
Y244832D01*
X618021D01*
Y244782D01*
X617996D01*
Y244758D01*
X617971D01*
Y244708D01*
X617946D01*
Y244683D01*
X617921D01*
Y244633D01*
X617897D01*
Y244609D01*
X617872D01*
Y244559D01*
X617847D01*
Y244534D01*
X617822D01*
Y244509D01*
X617797D01*
Y244460D01*
X617772D01*
Y244435D01*
X617748D01*
Y244385D01*
X617723D01*
Y244360D01*
X617698D01*
Y244336D01*
X617673D01*
Y244286D01*
X617648D01*
Y244261D01*
X617624D01*
Y244236D01*
X617599D01*
Y244212D01*
X617574D01*
Y244162D01*
X617549D01*
Y244137D01*
X617524D01*
Y244112D01*
X617499D01*
Y244063D01*
X617475D01*
Y244038D01*
X617450D01*
Y244013D01*
X617425D01*
Y243988D01*
X617400D01*
Y243963D01*
X617375D01*
Y243914D01*
X617351D01*
Y243889D01*
X617326D01*
Y243864D01*
X617301D01*
Y243839D01*
X617276D01*
Y243790D01*
X617251D01*
Y243765D01*
X617227D01*
Y243740D01*
X617202D01*
Y243715D01*
X617177D01*
Y243690D01*
X617152D01*
Y243666D01*
X617127D01*
Y243641D01*
X617102D01*
Y243591D01*
X617077D01*
Y243566D01*
X617053D01*
Y243541D01*
X617028D01*
Y243516D01*
X617003D01*
Y243492D01*
X616978D01*
Y243467D01*
X616953D01*
Y243442D01*
X616929D01*
Y243417D01*
X616904D01*
Y243392D01*
X616879D01*
Y243343D01*
X616854D01*
Y243318D01*
X616829D01*
Y243293D01*
X616805D01*
Y243268D01*
X616780D01*
Y243244D01*
X616755D01*
Y243219D01*
X616730D01*
Y243194D01*
X616705D01*
Y243169D01*
X616680D01*
Y243144D01*
X616656D01*
Y243119D01*
X616631D01*
Y243095D01*
X616606D01*
Y243070D01*
X616581D01*
Y243045D01*
X616556D01*
Y243020D01*
X616532D01*
Y242995D01*
X616507D01*
Y242970D01*
X616482D01*
Y242946D01*
X616457D01*
Y242921D01*
X616432D01*
Y242896D01*
X616407D01*
Y242871D01*
X616383D01*
Y242846D01*
X616358D01*
Y242822D01*
X616333D01*
Y242797D01*
X616308D01*
Y242772D01*
X616283D01*
Y242747D01*
X616258D01*
Y242722D01*
X616234D01*
Y242698D01*
X616209D01*
Y242673D01*
X616184D01*
Y242648D01*
X616159D01*
Y242623D01*
X616134D01*
Y242598D01*
X616110D01*
Y242573D01*
X616085D01*
Y242549D01*
X616060D01*
Y242524D01*
X616035D01*
Y242499D01*
X616010D01*
Y242474D01*
X615961D01*
Y242449D01*
X615936D01*
Y242425D01*
X615911D01*
Y242400D01*
X615886D01*
Y242375D01*
X615861D01*
Y242350D01*
X615837D01*
Y242325D01*
X615812D01*
Y242300D01*
X615787D01*
Y242276D01*
X615762D01*
Y242251D01*
X615712D01*
Y242226D01*
X615688D01*
Y242201D01*
X615663D01*
Y242176D01*
X615638D01*
Y242151D01*
X615613D01*
Y242127D01*
X615588D01*
Y242102D01*
X615539D01*
Y242077D01*
X615514D01*
Y242052D01*
X615489D01*
Y242027D01*
X615464D01*
Y242003D01*
X615440D01*
Y241978D01*
X615415D01*
Y241953D01*
X615365D01*
Y241928D01*
X615340D01*
Y241903D01*
X615315D01*
Y241879D01*
X615291D01*
Y241854D01*
X615266D01*
Y241829D01*
X615216D01*
Y241804D01*
X615191D01*
Y241779D01*
X615167D01*
Y241754D01*
X615142D01*
Y241730D01*
X615092D01*
Y241705D01*
X615067D01*
Y241680D01*
X615042D01*
Y241655D01*
X615018D01*
Y241630D01*
X614968D01*
Y241605D01*
X614943D01*
Y241581D01*
X614918D01*
Y241556D01*
X614869D01*
Y241531D01*
X614844D01*
Y241506D01*
X614819D01*
Y241481D01*
X614769D01*
Y241457D01*
X614745D01*
Y241432D01*
X614720D01*
Y241407D01*
X614670D01*
Y241382D01*
X614645D01*
Y241357D01*
X614620D01*
Y241333D01*
X614571D01*
Y241308D01*
X614546D01*
Y241283D01*
X614521D01*
Y241258D01*
X614472D01*
Y241233D01*
X614447D01*
Y241208D01*
X614397D01*
Y241184D01*
X614372D01*
Y241159D01*
X614348D01*
Y241134D01*
X614298D01*
Y241109D01*
X614273D01*
Y241084D01*
X614223D01*
Y241059D01*
X614198D01*
Y241035D01*
X614149D01*
Y241010D01*
X614124D01*
Y240985D01*
X614074D01*
Y240960D01*
X614050D01*
Y240935D01*
X614000D01*
Y240911D01*
X613975D01*
Y240886D01*
X613926D01*
Y240861D01*
X613901D01*
Y240836D01*
X613851D01*
Y240811D01*
X613826D01*
Y240787D01*
X613777D01*
Y240762D01*
X613752D01*
Y240737D01*
X613702D01*
Y240712D01*
X613653D01*
Y240687D01*
X613628D01*
Y240662D01*
X613578D01*
Y240637D01*
X613553D01*
Y240613D01*
X613504D01*
Y240588D01*
X613454D01*
Y240563D01*
X613429D01*
Y240538D01*
X613379D01*
Y240513D01*
X613330D01*
Y240489D01*
X613280D01*
Y240464D01*
X613255D01*
Y240439D01*
X613206D01*
Y240414D01*
X613156D01*
Y240389D01*
X613106D01*
Y240365D01*
X613082D01*
Y240340D01*
X613032D01*
Y240315D01*
X612982D01*
Y240290D01*
X612958D01*
Y240265D01*
X612908D01*
Y240240D01*
X612883D01*
Y240216D01*
X612833D01*
Y240191D01*
X612809D01*
Y240166D01*
X612759D01*
Y240141D01*
X612734D01*
Y240116D01*
X612685D01*
Y240091D01*
X612660D01*
Y240067D01*
X612635D01*
Y240042D01*
X612585D01*
Y240017D01*
X612561D01*
Y239992D01*
X612536D01*
Y239967D01*
X612486D01*
Y239943D01*
X612461D01*
Y239918D01*
X612436D01*
Y239893D01*
X612387D01*
Y239868D01*
X612362D01*
Y239843D01*
X612337D01*
Y239819D01*
X612312D01*
Y239794D01*
X612288D01*
Y239769D01*
X612263D01*
Y239744D01*
X612238D01*
Y239719D01*
X612188D01*
Y239694D01*
X612163D01*
Y239670D01*
X612139D01*
Y239645D01*
X612114D01*
Y239620D01*
X612089D01*
Y239595D01*
X612039D01*
Y239570D01*
X612014D01*
Y239545D01*
X611990D01*
Y239521D01*
X611940D01*
Y239496D01*
X611841D01*
Y239521D01*
X611766D01*
Y239545D01*
X611717D01*
Y239570D01*
X611667D01*
Y239595D01*
X611617D01*
Y239620D01*
X611568D01*
Y239645D01*
X611518D01*
Y239670D01*
X611468D01*
Y239694D01*
X611419D01*
Y239719D01*
X611369D01*
Y239744D01*
X611319D01*
Y239769D01*
X611270D01*
Y239794D01*
X611220D01*
Y239819D01*
X611171D01*
Y239843D01*
X611121D01*
Y239868D01*
X611071D01*
Y239893D01*
X611022D01*
Y239918D01*
X610972D01*
Y239943D01*
X610922D01*
Y239967D01*
X610873D01*
Y239992D01*
X610823D01*
Y240017D01*
X610749D01*
Y240042D01*
X610699D01*
Y240067D01*
X610649D01*
Y240091D01*
X610575D01*
Y240116D01*
X610525D01*
Y240141D01*
X610476D01*
Y240166D01*
X610401D01*
Y240191D01*
X610352D01*
Y240216D01*
X610277D01*
Y240240D01*
X610227D01*
Y240265D01*
X610153D01*
Y240290D01*
X610079D01*
Y240315D01*
X610029D01*
Y240340D01*
X609954D01*
Y240365D01*
X609880D01*
Y240389D01*
X609806D01*
Y240414D01*
X609731D01*
Y240439D01*
X609657D01*
Y240464D01*
X609557D01*
Y240489D01*
X609483D01*
Y240513D01*
X609409D01*
Y240538D01*
X609334D01*
Y240563D01*
X609260D01*
Y240588D01*
X609185D01*
Y240613D01*
X609111D01*
Y240637D01*
X609061D01*
Y240662D01*
X609011D01*
Y240687D01*
X608962D01*
Y240712D01*
X608937D01*
Y240737D01*
X608912D01*
Y240787D01*
X608887D01*
Y240935D01*
X608912D01*
Y241010D01*
X608937D01*
Y241084D01*
X608962D01*
Y241159D01*
X608987D01*
Y241233D01*
X609011D01*
Y241308D01*
X609036D01*
Y241357D01*
X609061D01*
Y241432D01*
X609086D01*
Y241506D01*
X609111D01*
Y241581D01*
X609135D01*
Y241655D01*
X609160D01*
Y241730D01*
X609185D01*
Y241804D01*
X609210D01*
Y241879D01*
X609235D01*
Y241953D01*
X609260D01*
Y242027D01*
X609284D01*
Y242102D01*
X609309D01*
Y242176D01*
X609334D01*
Y242251D01*
X609359D01*
Y242325D01*
X609384D01*
Y242400D01*
X609409D01*
Y242474D01*
X609433D01*
Y242549D01*
X609458D01*
Y242623D01*
X609483D01*
Y242698D01*
X609508D01*
Y242772D01*
X609533D01*
Y242846D01*
X609557D01*
Y242921D01*
X609582D01*
Y242995D01*
X609607D01*
Y243070D01*
X609632D01*
Y243144D01*
X609657D01*
Y243219D01*
X609682D01*
Y243293D01*
X609706D01*
Y243368D01*
X609731D01*
Y243442D01*
X609756D01*
Y243516D01*
X609781D01*
Y243591D01*
X609806D01*
Y243666D01*
X609830D01*
Y243740D01*
X609855D01*
Y243814D01*
X609880D01*
Y243889D01*
X609905D01*
Y243963D01*
X609930D01*
Y244038D01*
X609954D01*
Y244112D01*
X609979D01*
Y244187D01*
X610004D01*
Y244261D01*
X610029D01*
Y244336D01*
X610054D01*
Y244410D01*
X610079D01*
Y244484D01*
X610103D01*
Y244559D01*
X610128D01*
Y244633D01*
X610153D01*
Y244708D01*
X610178D01*
Y244782D01*
X610203D01*
Y244857D01*
X610227D01*
Y244931D01*
X610252D01*
Y244981D01*
X610277D01*
Y245055D01*
X610302D01*
Y245130D01*
X610327D01*
Y245179D01*
X610352D01*
Y245254D01*
X610376D01*
Y245328D01*
X610401D01*
Y245403D01*
X610426D01*
Y245452D01*
X610451D01*
Y245527D01*
X610476D01*
Y245601D01*
X610500D01*
Y245651D01*
X610525D01*
Y245725D01*
X610550D01*
Y245800D01*
X610575D01*
Y245874D01*
X610600D01*
Y245949D01*
X610625D01*
Y245998D01*
X610649D01*
Y246073D01*
X610674D01*
Y246147D01*
X610699D01*
Y246222D01*
X610724D01*
Y246271D01*
X610749D01*
Y246346D01*
X610774D01*
Y246420D01*
X610798D01*
Y246495D01*
X610823D01*
Y246569D01*
X610848D01*
Y246619D01*
X610873D01*
Y246693D01*
X610898D01*
Y246768D01*
X610922D01*
Y246842D01*
X610947D01*
Y246892D01*
X610972D01*
Y246966D01*
X610997D01*
Y247041D01*
X611022D01*
Y247115D01*
X611047D01*
Y247165D01*
X611071D01*
Y247239D01*
X611096D01*
Y247314D01*
X611121D01*
Y247388D01*
X611146D01*
Y247438D01*
X611171D01*
Y247512D01*
X611195D01*
Y247587D01*
X611220D01*
Y247637D01*
X611245D01*
Y247711D01*
X611270D01*
Y247785D01*
X611295D01*
Y247835D01*
X611319D01*
Y247909D01*
X611344D01*
Y247984D01*
X611369D01*
Y248034D01*
X611394D01*
Y248108D01*
X611419D01*
Y248183D01*
X611444D01*
Y248232D01*
X611468D01*
Y248307D01*
X611493D01*
Y248381D01*
X611518D01*
Y248431D01*
X611543D01*
Y248505D01*
X611568D01*
Y248555D01*
X611592D01*
Y248629D01*
X611617D01*
Y248704D01*
X611642D01*
Y248753D01*
X611667D01*
Y248828D01*
X611692D01*
Y248902D01*
X611717D01*
Y248952D01*
X611741D01*
Y249026D01*
X611766D01*
Y249101D01*
X611791D01*
Y249150D01*
X611816D01*
Y249225D01*
X611841D01*
Y249274D01*
X611866D01*
Y249349D01*
X611890D01*
Y249423D01*
X611915D01*
Y249473D01*
X611940D01*
Y249548D01*
X611965D01*
Y249597D01*
X611990D01*
Y249672D01*
X612014D01*
Y249746D01*
X612039D01*
Y249796D01*
X612064D01*
Y249870D01*
X612089D01*
Y249920D01*
X612114D01*
Y249994D01*
X612139D01*
Y250044D01*
X612163D01*
Y250118D01*
X612188D01*
Y250168D01*
X612213D01*
Y250242D01*
X612238D01*
Y250292D01*
X612263D01*
Y250367D01*
X612288D01*
Y250416D01*
X612312D01*
Y250491D01*
X612337D01*
Y250540D01*
X612362D01*
Y250615D01*
X612387D01*
Y250664D01*
X612412D01*
Y250714D01*
X612436D01*
Y250739D01*
X612461D01*
Y250714D01*
D02*
G37*
G36*
X620627Y247463D02*
X620651D01*
Y247438D01*
X620676D01*
Y247413D01*
X620701D01*
Y247363D01*
X620726D01*
Y247339D01*
X620751D01*
Y247314D01*
X620776D01*
Y247264D01*
X620800D01*
Y247239D01*
X620825D01*
Y247215D01*
X620850D01*
Y247165D01*
X620875D01*
Y247140D01*
X620900D01*
Y247115D01*
X620925D01*
Y247066D01*
X620949D01*
Y247041D01*
X620974D01*
Y247016D01*
X620999D01*
Y246966D01*
X621024D01*
Y246941D01*
X621049D01*
Y246917D01*
X621073D01*
Y246867D01*
X621098D01*
Y246842D01*
X621123D01*
Y246793D01*
X621148D01*
Y246768D01*
X621173D01*
Y246718D01*
X621198D01*
Y246693D01*
X621222D01*
Y246644D01*
X621247D01*
Y246619D01*
X621272D01*
Y246569D01*
X621297D01*
Y246544D01*
X621322D01*
Y246495D01*
X621346D01*
Y246470D01*
X621371D01*
Y246420D01*
X621396D01*
Y246395D01*
X621421D01*
Y246346D01*
X621446D01*
Y246321D01*
X621470D01*
Y246271D01*
X621495D01*
Y246222D01*
X621520D01*
Y246197D01*
X621545D01*
Y246147D01*
X621570D01*
Y246098D01*
X621595D01*
Y246073D01*
X621619D01*
Y246023D01*
X621644D01*
Y245974D01*
X621669D01*
Y245949D01*
X621694D01*
Y245899D01*
X621719D01*
Y245849D01*
X621743D01*
Y245800D01*
X621768D01*
Y245750D01*
X621793D01*
Y245725D01*
X621818D01*
Y245676D01*
X621843D01*
Y245626D01*
X621868D01*
Y245577D01*
X621892D01*
Y245527D01*
X621917D01*
Y245477D01*
X621942D01*
Y245428D01*
X621967D01*
Y245378D01*
X621992D01*
Y245328D01*
X622016D01*
Y245279D01*
X622041D01*
Y245229D01*
X622066D01*
Y245179D01*
X622091D01*
Y245130D01*
X622116D01*
Y245080D01*
X622141D01*
Y245030D01*
X622165D01*
Y244981D01*
X622190D01*
Y244931D01*
X622215D01*
Y244882D01*
X622240D01*
Y244807D01*
X622265D01*
Y244758D01*
X622290D01*
Y244708D01*
X622314D01*
Y244658D01*
X622339D01*
Y244584D01*
X622364D01*
Y244534D01*
X622389D01*
Y244460D01*
X622414D01*
Y244410D01*
X622438D01*
Y244360D01*
X622463D01*
Y244286D01*
X622488D01*
Y244212D01*
X622513D01*
Y244162D01*
X622538D01*
Y244087D01*
X622563D01*
Y244038D01*
X622587D01*
Y243963D01*
X622612D01*
Y243889D01*
X622637D01*
Y243814D01*
X622662D01*
Y243740D01*
X622687D01*
Y243666D01*
X622711D01*
Y243616D01*
X622736D01*
Y243516D01*
X622761D01*
Y243442D01*
X622786D01*
Y243368D01*
X622811D01*
Y243293D01*
X622835D01*
Y243194D01*
X622860D01*
Y243119D01*
X622885D01*
Y243020D01*
X622910D01*
Y242921D01*
X622935D01*
Y242846D01*
X622960D01*
Y242747D01*
X622985D01*
Y242648D01*
X623009D01*
Y242524D01*
X623034D01*
Y242425D01*
X623059D01*
Y242325D01*
X623084D01*
Y242201D01*
X623108D01*
Y242077D01*
X623133D01*
Y241928D01*
X623158D01*
Y241779D01*
X623183D01*
Y241630D01*
X623208D01*
Y241457D01*
X623233D01*
Y241258D01*
X623257D01*
Y241010D01*
X623282D01*
Y240563D01*
X623307D01*
Y238875D01*
X623282D01*
Y238578D01*
X623257D01*
Y238478D01*
X622091D01*
Y238454D01*
X618691D01*
Y238478D01*
X614645D01*
Y238503D01*
X614695D01*
Y238528D01*
X614720D01*
Y238553D01*
X614769D01*
Y238578D01*
X614794D01*
Y238602D01*
X614844D01*
Y238627D01*
X614869D01*
Y238652D01*
X614918D01*
Y238677D01*
X614943D01*
Y238702D01*
X614993D01*
Y238726D01*
X615018D01*
Y238751D01*
X615067D01*
Y238776D01*
X615092D01*
Y238801D01*
X615142D01*
Y238826D01*
X615167D01*
Y238851D01*
X615191D01*
Y238875D01*
X615241D01*
Y238900D01*
X615266D01*
Y238925D01*
X615315D01*
Y238950D01*
X615340D01*
Y238975D01*
X615390D01*
Y239000D01*
X615415D01*
Y239024D01*
X615464D01*
Y239049D01*
X615489D01*
Y239074D01*
X615514D01*
Y239099D01*
X615564D01*
Y239124D01*
X615588D01*
Y239148D01*
X615613D01*
Y239173D01*
X615663D01*
Y239198D01*
X615688D01*
Y239223D01*
X615712D01*
Y239248D01*
X615762D01*
Y239272D01*
X615787D01*
Y239297D01*
X615812D01*
Y239322D01*
X615861D01*
Y239347D01*
X615886D01*
Y239372D01*
X615911D01*
Y239397D01*
X615961D01*
Y239421D01*
X615985D01*
Y239446D01*
X616010D01*
Y239471D01*
X616035D01*
Y239496D01*
X616085D01*
Y239521D01*
X616110D01*
Y239545D01*
X616134D01*
Y239570D01*
X616159D01*
Y239595D01*
X616209D01*
Y239620D01*
X616234D01*
Y239645D01*
X616258D01*
Y239670D01*
X616283D01*
Y239694D01*
X616308D01*
Y239719D01*
X616358D01*
Y239744D01*
X616383D01*
Y239769D01*
X616407D01*
Y239794D01*
X616432D01*
Y239819D01*
X616457D01*
Y239843D01*
X616482D01*
Y239868D01*
X616507D01*
Y239893D01*
X616556D01*
Y239918D01*
X616581D01*
Y239943D01*
X616606D01*
Y239967D01*
X616631D01*
Y239992D01*
X616656D01*
Y240017D01*
X616680D01*
Y240042D01*
X616705D01*
Y240067D01*
X616730D01*
Y240091D01*
X616755D01*
Y240116D01*
X616805D01*
Y240141D01*
X616829D01*
Y240166D01*
X616854D01*
Y240191D01*
X616879D01*
Y240216D01*
X616904D01*
Y240240D01*
X616929D01*
Y240265D01*
X616953D01*
Y240290D01*
X616978D01*
Y240315D01*
X617003D01*
Y240340D01*
X617028D01*
Y240365D01*
X617053D01*
Y240389D01*
X617077D01*
Y240414D01*
X617102D01*
Y240439D01*
X617127D01*
Y240464D01*
X617152D01*
Y240489D01*
X617177D01*
Y240513D01*
X617202D01*
Y240538D01*
X617227D01*
Y240563D01*
X617251D01*
Y240588D01*
X617276D01*
Y240613D01*
X617301D01*
Y240637D01*
X617326D01*
Y240662D01*
X617351D01*
Y240687D01*
X617375D01*
Y240712D01*
X617400D01*
Y240737D01*
X617425D01*
Y240762D01*
X617450D01*
Y240811D01*
X617475D01*
Y240836D01*
X617499D01*
Y240861D01*
X617524D01*
Y240886D01*
X617549D01*
Y240911D01*
X617574D01*
Y240935D01*
X617599D01*
Y240960D01*
X617624D01*
Y240985D01*
X617648D01*
Y241010D01*
X617673D01*
Y241059D01*
X617698D01*
Y241084D01*
X617723D01*
Y241109D01*
X617748D01*
Y241134D01*
X617772D01*
Y241159D01*
X617797D01*
Y241184D01*
X617822D01*
Y241233D01*
X617847D01*
Y241258D01*
X617872D01*
Y241283D01*
X617897D01*
Y241308D01*
X617921D01*
Y241333D01*
X617946D01*
Y241382D01*
X617971D01*
Y241407D01*
X617996D01*
Y241432D01*
X618021D01*
Y241457D01*
X618046D01*
Y241506D01*
X618070D01*
Y241531D01*
X618095D01*
Y241556D01*
X618120D01*
Y241581D01*
X618145D01*
Y241630D01*
X618170D01*
Y241655D01*
X618194D01*
Y241680D01*
X618219D01*
Y241730D01*
X618244D01*
Y241754D01*
X618269D01*
Y241779D01*
X618294D01*
Y241829D01*
X618319D01*
Y241854D01*
X618343D01*
Y241879D01*
X618368D01*
Y241928D01*
X618393D01*
Y241953D01*
X618418D01*
Y242003D01*
X618443D01*
Y242027D01*
X618467D01*
Y242052D01*
X618492D01*
Y242102D01*
X618517D01*
Y242127D01*
X618542D01*
Y242176D01*
X618567D01*
Y242201D01*
X618591D01*
Y242251D01*
X618616D01*
Y242276D01*
X618641D01*
Y242325D01*
X618666D01*
Y242350D01*
X618691D01*
Y242400D01*
X618716D01*
Y242425D01*
X618740D01*
Y242474D01*
X618765D01*
Y242499D01*
X618790D01*
Y242549D01*
X618815D01*
Y242598D01*
X618840D01*
Y242623D01*
X618864D01*
Y242673D01*
X618889D01*
Y242698D01*
X618914D01*
Y242747D01*
X618939D01*
Y242797D01*
X618964D01*
Y242846D01*
X618989D01*
Y242871D01*
X619013D01*
Y242921D01*
X619038D01*
Y242970D01*
X619063D01*
Y242995D01*
X619088D01*
Y243045D01*
X619113D01*
Y243095D01*
X619137D01*
Y243144D01*
X619162D01*
Y243194D01*
X619187D01*
Y243244D01*
X619212D01*
Y243268D01*
X619237D01*
Y243318D01*
X619262D01*
Y243368D01*
X619286D01*
Y243417D01*
X619311D01*
Y243467D01*
X619336D01*
Y243516D01*
X619361D01*
Y243566D01*
X619386D01*
Y243616D01*
X619411D01*
Y243666D01*
X619435D01*
Y243715D01*
X619460D01*
Y243765D01*
X619485D01*
Y243839D01*
X619510D01*
Y243889D01*
X619535D01*
Y243938D01*
X619559D01*
Y243988D01*
X619584D01*
Y244063D01*
X619609D01*
Y244112D01*
X619634D01*
Y244162D01*
X619659D01*
Y244236D01*
X619684D01*
Y244286D01*
X619708D01*
Y244336D01*
X619733D01*
Y244410D01*
X619758D01*
Y244460D01*
X619783D01*
Y244534D01*
X619808D01*
Y244609D01*
X619832D01*
Y244683D01*
X619857D01*
Y244733D01*
X619882D01*
Y244807D01*
X619907D01*
Y244882D01*
X619932D01*
Y244956D01*
X619956D01*
Y245030D01*
X619981D01*
Y245105D01*
X620006D01*
Y245179D01*
X620031D01*
Y245254D01*
X620056D01*
Y245353D01*
X620081D01*
Y245428D01*
X620106D01*
Y245527D01*
X620130D01*
Y245626D01*
X620155D01*
Y245701D01*
X620180D01*
Y245800D01*
X620205D01*
Y245924D01*
X620229D01*
Y246023D01*
X620254D01*
Y246123D01*
X620279D01*
Y246247D01*
X620304D01*
Y246371D01*
X620329D01*
Y246495D01*
X620354D01*
Y246619D01*
X620378D01*
Y246743D01*
X620403D01*
Y246842D01*
X620428D01*
Y246966D01*
X620453D01*
Y247066D01*
X620478D01*
Y247165D01*
X620503D01*
Y247239D01*
X620527D01*
Y247339D01*
X620552D01*
Y247388D01*
X620577D01*
Y247463D01*
X620602D01*
Y247512D01*
X620627D01*
Y247463D01*
D02*
G37*
G36*
X608490Y240091D02*
X608565D01*
Y240067D01*
X608639D01*
Y240042D01*
X608713D01*
Y240017D01*
X608788D01*
Y239992D01*
X608887D01*
Y239967D01*
X608962D01*
Y239943D01*
X609036D01*
Y239918D01*
X609111D01*
Y239893D01*
X609210D01*
Y239868D01*
X609284D01*
Y239843D01*
X609359D01*
Y239819D01*
X609433D01*
Y239794D01*
X609508D01*
Y239769D01*
X609582D01*
Y239744D01*
X609632D01*
Y239719D01*
X609706D01*
Y239694D01*
X609781D01*
Y239670D01*
X609855D01*
Y239645D01*
X609905D01*
Y239620D01*
X609979D01*
Y239595D01*
X610029D01*
Y239570D01*
X610103D01*
Y239545D01*
X610153D01*
Y239521D01*
X610227D01*
Y239496D01*
X610277D01*
Y239471D01*
X610327D01*
Y239446D01*
X610401D01*
Y239421D01*
X610451D01*
Y239397D01*
X610500D01*
Y239372D01*
X610550D01*
Y239347D01*
X610625D01*
Y239322D01*
X610674D01*
Y239297D01*
X610724D01*
Y239272D01*
X610774D01*
Y239248D01*
X610823D01*
Y239223D01*
X610873D01*
Y239198D01*
X610922D01*
Y239173D01*
X610972D01*
Y239148D01*
X611022D01*
Y239124D01*
X611071D01*
Y239099D01*
X611121D01*
Y239074D01*
X611146D01*
Y239049D01*
X611195D01*
Y239024D01*
X611245D01*
Y239000D01*
X611295D01*
Y238975D01*
X611344D01*
Y238950D01*
X611394D01*
Y238925D01*
X611444D01*
Y238900D01*
X611493D01*
Y238875D01*
X611543D01*
Y238851D01*
X611592D01*
Y238726D01*
X611568D01*
Y237461D01*
X611543D01*
Y236791D01*
X611518D01*
Y236766D01*
X611468D01*
Y236741D01*
X611419D01*
Y236716D01*
X611394D01*
Y236691D01*
X611344D01*
Y236666D01*
X611295D01*
Y236642D01*
X611245D01*
Y236617D01*
X611195D01*
Y236592D01*
X611146D01*
Y236567D01*
X611096D01*
Y236542D01*
X611047D01*
Y236518D01*
X610997D01*
Y236493D01*
X610947D01*
Y236468D01*
X610898D01*
Y236443D01*
X610873D01*
Y236418D01*
X610823D01*
Y236393D01*
X610774D01*
Y236369D01*
X610699D01*
Y236344D01*
X610649D01*
Y236319D01*
X610600D01*
Y236294D01*
X610550D01*
Y236269D01*
X610500D01*
Y236245D01*
X610426D01*
Y236220D01*
X610376D01*
Y236195D01*
X610327D01*
Y236170D01*
X610252D01*
Y236145D01*
X610203D01*
Y236121D01*
X610128D01*
Y236096D01*
X610079D01*
Y236071D01*
X610004D01*
Y236046D01*
X609954D01*
Y236021D01*
X609880D01*
Y235996D01*
X609830D01*
Y235971D01*
X609756D01*
Y235947D01*
X609682D01*
Y235922D01*
X609607D01*
Y235897D01*
X609557D01*
Y235872D01*
X609483D01*
Y235847D01*
X609409D01*
Y235823D01*
X609334D01*
Y235798D01*
X609260D01*
Y235773D01*
X609185D01*
Y235748D01*
X609086D01*
Y235723D01*
X609011D01*
Y235699D01*
X608937D01*
Y235674D01*
X608862D01*
Y235649D01*
X608788D01*
Y235624D01*
X608713D01*
Y235599D01*
X608614D01*
Y235574D01*
X608540D01*
Y235550D01*
X608465D01*
Y235525D01*
X608391D01*
Y235500D01*
X597570D01*
Y240116D01*
X608490D01*
Y240091D01*
D02*
G37*
G36*
X587915Y242598D02*
X588015D01*
Y242573D01*
X588089D01*
Y242549D01*
X588188D01*
Y242524D01*
X588263D01*
Y242499D01*
X588362D01*
Y242474D01*
X588461D01*
Y242449D01*
X588536D01*
Y242425D01*
X588635D01*
Y242400D01*
X588734D01*
Y242375D01*
X588834D01*
Y242350D01*
X588908D01*
Y242325D01*
X589007D01*
Y242300D01*
X589107D01*
Y242276D01*
X589206D01*
Y242251D01*
X589280D01*
Y242226D01*
X589380D01*
Y242201D01*
X589479D01*
Y242176D01*
X589578D01*
Y242151D01*
X589653D01*
Y242127D01*
X589752D01*
Y242102D01*
X589851D01*
Y242077D01*
X589950D01*
Y242052D01*
X590025D01*
Y242027D01*
X590124D01*
Y242003D01*
X590223D01*
Y241978D01*
X590323D01*
Y241953D01*
X590422D01*
Y241928D01*
X590496D01*
Y241903D01*
X590596D01*
Y241879D01*
X590695D01*
Y241854D01*
X590794D01*
Y241829D01*
X590869D01*
Y241804D01*
X590968D01*
Y241779D01*
X591067D01*
Y241754D01*
X591166D01*
Y241730D01*
X591266D01*
Y241705D01*
X591340D01*
Y241680D01*
X591439D01*
Y241655D01*
X591539D01*
Y241630D01*
X591638D01*
Y241605D01*
X591713D01*
Y241581D01*
X591812D01*
Y241556D01*
X591911D01*
Y241531D01*
X592010D01*
Y241506D01*
X592110D01*
Y241481D01*
X592184D01*
Y241457D01*
X592283D01*
Y241432D01*
X592383D01*
Y241407D01*
X592482D01*
Y241382D01*
X592581D01*
Y241357D01*
X592656D01*
Y241333D01*
X592755D01*
Y241308D01*
X592854D01*
Y241283D01*
X592953D01*
Y241258D01*
X593028D01*
Y241233D01*
X593127D01*
Y241208D01*
X593226D01*
Y241184D01*
X593326D01*
Y241159D01*
X593425D01*
Y241134D01*
X593500D01*
Y241109D01*
X593599D01*
Y241084D01*
X593698D01*
Y241059D01*
X593797D01*
Y241035D01*
X593897D01*
Y241010D01*
X593971D01*
Y240985D01*
X594070D01*
Y240960D01*
X594170D01*
Y240935D01*
X594269D01*
Y240911D01*
X594368D01*
Y240886D01*
X594443D01*
Y240861D01*
X594542D01*
Y240836D01*
X594641D01*
Y240811D01*
X594740D01*
Y240787D01*
X594815D01*
Y240762D01*
X594914D01*
Y240737D01*
X595014D01*
Y240712D01*
X595113D01*
Y240687D01*
X595212D01*
Y240662D01*
X595287D01*
Y240637D01*
X595386D01*
Y240613D01*
X595485D01*
Y240588D01*
X595584D01*
Y240563D01*
X595684D01*
Y240538D01*
X595758D01*
Y240513D01*
X595857D01*
Y240489D01*
X595957D01*
Y240464D01*
X596056D01*
Y240439D01*
X596155D01*
Y240414D01*
X596230D01*
Y240389D01*
X596329D01*
Y240365D01*
X596428D01*
Y240340D01*
X596527D01*
Y240315D01*
X596602D01*
Y240290D01*
X596701D01*
Y240265D01*
X596800D01*
Y240240D01*
X596900D01*
Y240216D01*
X596924D01*
Y237659D01*
X596949D01*
Y235922D01*
X596924D01*
Y235425D01*
X596900D01*
Y235401D01*
X596800D01*
Y235376D01*
X596726D01*
Y235351D01*
X596627D01*
Y235326D01*
X596527D01*
Y235301D01*
X596428D01*
Y235277D01*
X596329D01*
Y235252D01*
X596230D01*
Y235227D01*
X596130D01*
Y235202D01*
X596056D01*
Y235177D01*
X595957D01*
Y235153D01*
X595857D01*
Y235128D01*
X595758D01*
Y235103D01*
X595659D01*
Y235078D01*
X595560D01*
Y235053D01*
X595485D01*
Y235028D01*
X595386D01*
Y235004D01*
X595287D01*
Y234979D01*
X595187D01*
Y234954D01*
X595088D01*
Y234929D01*
X595014D01*
Y234904D01*
X594914D01*
Y234879D01*
X594815D01*
Y234855D01*
X594716D01*
Y234830D01*
X594616D01*
Y234805D01*
X594542D01*
Y234780D01*
X594443D01*
Y234755D01*
X594343D01*
Y234731D01*
X594244D01*
Y234706D01*
X594145D01*
Y234681D01*
X594070D01*
Y234656D01*
X593971D01*
Y234631D01*
X593872D01*
Y234607D01*
X593773D01*
Y234582D01*
X593673D01*
Y234557D01*
X593599D01*
Y234532D01*
X593500D01*
Y234507D01*
X593400D01*
Y234482D01*
X593301D01*
Y234458D01*
X593202D01*
Y234433D01*
X593127D01*
Y234408D01*
X593028D01*
Y234383D01*
X592929D01*
Y234358D01*
X592829D01*
Y234333D01*
X592755D01*
Y234309D01*
X592656D01*
Y234284D01*
X592556D01*
Y234259D01*
X592457D01*
Y234234D01*
X592358D01*
Y234209D01*
X592283D01*
Y234185D01*
X592184D01*
Y234160D01*
X592085D01*
Y234135D01*
X591986D01*
Y234110D01*
X591886D01*
Y234085D01*
X591812D01*
Y234061D01*
X591713D01*
Y234036D01*
X591613D01*
Y234011D01*
X591514D01*
Y233986D01*
X591415D01*
Y233961D01*
X591340D01*
Y233936D01*
X591241D01*
Y233912D01*
X591142D01*
Y233887D01*
X591042D01*
Y233862D01*
X590943D01*
Y233837D01*
X590869D01*
Y233812D01*
X590769D01*
Y233787D01*
X590670D01*
Y233763D01*
X590571D01*
Y233738D01*
X590472D01*
Y233713D01*
X590397D01*
Y233688D01*
X590298D01*
Y233663D01*
X590199D01*
Y233639D01*
X590099D01*
Y233614D01*
X590000D01*
Y233589D01*
X589926D01*
Y233564D01*
X589826D01*
Y233539D01*
X589727D01*
Y233514D01*
X589628D01*
Y233490D01*
X589529D01*
Y233465D01*
X589454D01*
Y233440D01*
X589355D01*
Y233415D01*
X589255D01*
Y233390D01*
X589156D01*
Y233366D01*
X589057D01*
Y233341D01*
X588982D01*
Y233316D01*
X588883D01*
Y233291D01*
X588784D01*
Y233266D01*
X588685D01*
Y233242D01*
X588585D01*
Y233217D01*
X588486D01*
Y233192D01*
X588412D01*
Y233167D01*
X588312D01*
Y233142D01*
X588213D01*
Y233117D01*
X588114D01*
Y233093D01*
X588015D01*
Y233068D01*
X587915D01*
Y234458D01*
X587890D01*
Y242623D01*
X587915D01*
Y242598D01*
D02*
G37*
G36*
X607795Y234780D02*
X608068D01*
Y234755D01*
X608143D01*
Y234731D01*
X608168D01*
Y234656D01*
X608143D01*
Y234631D01*
X608093D01*
Y234607D01*
X607994D01*
Y234582D01*
X607944D01*
Y234557D01*
X607895D01*
Y234532D01*
X607845D01*
Y234507D01*
X607820D01*
Y234482D01*
X607770D01*
Y234458D01*
X607746D01*
Y234433D01*
X607696D01*
Y234408D01*
X607671D01*
Y234383D01*
X607621D01*
Y234358D01*
X607597D01*
Y234333D01*
X607572D01*
Y234309D01*
X607522D01*
Y234284D01*
X607497D01*
Y234259D01*
X607473D01*
Y234234D01*
X607423D01*
Y234209D01*
X607398D01*
Y234185D01*
X607373D01*
Y234160D01*
X607348D01*
Y234135D01*
X607299D01*
Y234110D01*
X607274D01*
Y234085D01*
X607249D01*
Y234061D01*
X607224D01*
Y234036D01*
X607200D01*
Y234011D01*
X607150D01*
Y233986D01*
X607125D01*
Y233961D01*
X607100D01*
Y233936D01*
X607076D01*
Y233912D01*
X607051D01*
Y233887D01*
X607026D01*
Y233862D01*
X606976D01*
Y233837D01*
X606951D01*
Y233812D01*
X606927D01*
Y233787D01*
X606902D01*
Y233763D01*
X606877D01*
Y233738D01*
X606852D01*
Y233713D01*
X606803D01*
Y233688D01*
X606778D01*
Y233663D01*
X606753D01*
Y233639D01*
X606728D01*
Y233614D01*
X606703D01*
Y233589D01*
X606653D01*
Y233564D01*
X606629D01*
Y233539D01*
X606604D01*
Y233514D01*
X606579D01*
Y233490D01*
X606554D01*
Y232869D01*
X606530D01*
Y232249D01*
X606505D01*
Y232323D01*
X606480D01*
Y232398D01*
X606455D01*
Y232472D01*
X606430D01*
Y232546D01*
X606405D01*
Y232596D01*
X606381D01*
Y232671D01*
X606356D01*
Y232745D01*
X606331D01*
Y232820D01*
X606306D01*
Y232894D01*
X606281D01*
Y232968D01*
X606256D01*
Y233043D01*
X606232D01*
Y233117D01*
X606207D01*
Y233192D01*
X606182D01*
Y233266D01*
X606157D01*
Y233341D01*
X606132D01*
Y233415D01*
X606108D01*
Y233490D01*
X606083D01*
Y233564D01*
X606058D01*
Y233639D01*
X606033D01*
Y233713D01*
X606008D01*
Y233787D01*
X605983D01*
Y233862D01*
X605959D01*
Y233936D01*
X605934D01*
Y234011D01*
X605909D01*
Y234061D01*
X605884D01*
Y234135D01*
X605859D01*
Y234209D01*
X605834D01*
Y234284D01*
X605810D01*
Y234358D01*
X605785D01*
Y234433D01*
X605760D01*
Y234507D01*
X605735D01*
Y234582D01*
X605710D01*
Y234656D01*
X605686D01*
Y234731D01*
X605661D01*
Y234805D01*
X607795D01*
Y234780D01*
D02*
G37*
G36*
X619510Y245825D02*
X619485D01*
Y245725D01*
X619460D01*
Y245626D01*
X619435D01*
Y245527D01*
X619411D01*
Y245452D01*
X619386D01*
Y245378D01*
X619361D01*
Y245304D01*
X619336D01*
Y245229D01*
X619311D01*
Y245155D01*
X619286D01*
Y245080D01*
X619262D01*
Y245006D01*
X619237D01*
Y244956D01*
X619212D01*
Y244882D01*
X619187D01*
Y244807D01*
X619162D01*
Y244758D01*
X619137D01*
Y244683D01*
X619113D01*
Y244633D01*
X619088D01*
Y244584D01*
X619063D01*
Y244509D01*
X619038D01*
Y244460D01*
X619013D01*
Y244410D01*
X618989D01*
Y244336D01*
X618964D01*
Y244286D01*
X618939D01*
Y244236D01*
X618914D01*
Y244187D01*
X618889D01*
Y244137D01*
X618864D01*
Y244087D01*
X618840D01*
Y244038D01*
X618815D01*
Y243963D01*
X618790D01*
Y243914D01*
X618765D01*
Y243864D01*
X618740D01*
Y243814D01*
X618716D01*
Y243765D01*
X618691D01*
Y243715D01*
X618666D01*
Y243666D01*
X618641D01*
Y243641D01*
X618616D01*
Y243591D01*
X618591D01*
Y243541D01*
X618567D01*
Y243492D01*
X618542D01*
Y243442D01*
X618517D01*
Y243392D01*
X618492D01*
Y243343D01*
X618467D01*
Y243318D01*
X618443D01*
Y243268D01*
X618418D01*
Y243219D01*
X618393D01*
Y243169D01*
X618368D01*
Y243144D01*
X618343D01*
Y243095D01*
X618319D01*
Y243045D01*
X618294D01*
Y243020D01*
X618269D01*
Y242970D01*
X618244D01*
Y242921D01*
X618219D01*
Y242896D01*
X618194D01*
Y242846D01*
X618170D01*
Y242797D01*
X618145D01*
Y242772D01*
X618120D01*
Y242722D01*
X618095D01*
Y242698D01*
X618070D01*
Y242648D01*
X618046D01*
Y242623D01*
X618021D01*
Y242573D01*
X617996D01*
Y242549D01*
X617971D01*
Y242499D01*
X617946D01*
Y242474D01*
X617921D01*
Y242449D01*
X617897D01*
Y242400D01*
X617872D01*
Y242375D01*
X617847D01*
Y242325D01*
X617822D01*
Y242300D01*
X617797D01*
Y242276D01*
X617772D01*
Y242226D01*
X617748D01*
Y242201D01*
X617723D01*
Y242176D01*
X617698D01*
Y242151D01*
X617673D01*
Y242102D01*
X617648D01*
Y242077D01*
X617624D01*
Y242052D01*
X617599D01*
Y242003D01*
X617574D01*
Y241978D01*
X617549D01*
Y241953D01*
X617524D01*
Y241928D01*
X617499D01*
Y241903D01*
X617475D01*
Y241854D01*
X617450D01*
Y241829D01*
X617425D01*
Y241804D01*
X617400D01*
Y241779D01*
X617375D01*
Y241754D01*
X617351D01*
Y241705D01*
X617326D01*
Y241680D01*
X617301D01*
Y241655D01*
X617276D01*
Y241630D01*
X617251D01*
Y241605D01*
X617227D01*
Y241581D01*
X617202D01*
Y241531D01*
X617177D01*
Y241506D01*
X617152D01*
Y241481D01*
X617127D01*
Y241457D01*
X617102D01*
Y241432D01*
X617077D01*
Y241407D01*
X617053D01*
Y241382D01*
X617028D01*
Y241357D01*
X617003D01*
Y241333D01*
X616978D01*
Y241308D01*
X616953D01*
Y241283D01*
X616929D01*
Y241233D01*
X616904D01*
Y241208D01*
X616879D01*
Y241184D01*
X616854D01*
Y241159D01*
X616829D01*
Y241134D01*
X616805D01*
Y241109D01*
X616780D01*
Y241084D01*
X616755D01*
Y241059D01*
X616730D01*
Y241035D01*
X616705D01*
Y241010D01*
X616680D01*
Y240985D01*
X616656D01*
Y240960D01*
X616631D01*
Y240935D01*
X616606D01*
Y240911D01*
X616581D01*
Y240886D01*
X616556D01*
Y240861D01*
X616532D01*
Y240836D01*
X616507D01*
Y240811D01*
X616482D01*
Y240787D01*
X616432D01*
Y240762D01*
X616407D01*
Y240737D01*
X616383D01*
Y240712D01*
X616358D01*
Y240687D01*
X616333D01*
Y240662D01*
X616308D01*
Y240637D01*
X616283D01*
Y240613D01*
X616258D01*
Y240588D01*
X616234D01*
Y240563D01*
X616209D01*
Y240538D01*
X616184D01*
Y240513D01*
X616159D01*
Y240489D01*
X616110D01*
Y240464D01*
X616085D01*
Y240439D01*
X616060D01*
Y240414D01*
X616035D01*
Y240389D01*
X616010D01*
Y240365D01*
X615985D01*
Y240340D01*
X615936D01*
Y240315D01*
X615911D01*
Y240290D01*
X615886D01*
Y240265D01*
X615861D01*
Y240240D01*
X615837D01*
Y240216D01*
X615812D01*
Y240191D01*
X615762D01*
Y240166D01*
X615737D01*
Y240141D01*
X615712D01*
Y240116D01*
X615688D01*
Y240091D01*
X615638D01*
Y240067D01*
X615613D01*
Y240042D01*
X615588D01*
Y240017D01*
X615564D01*
Y239992D01*
X615514D01*
Y239967D01*
X615489D01*
Y239943D01*
X615464D01*
Y239918D01*
X615440D01*
Y239893D01*
X615390D01*
Y239868D01*
X615365D01*
Y239843D01*
X615340D01*
Y239819D01*
X615315D01*
Y239794D01*
X615266D01*
Y239769D01*
X615241D01*
Y239744D01*
X615216D01*
Y239719D01*
X615167D01*
Y239694D01*
X615142D01*
Y239670D01*
X615092D01*
Y239645D01*
X615067D01*
Y239620D01*
X615042D01*
Y239595D01*
X614993D01*
Y239570D01*
X614968D01*
Y239545D01*
X614943D01*
Y239521D01*
X614893D01*
Y239496D01*
X614869D01*
Y239471D01*
X614819D01*
Y239446D01*
X614794D01*
Y239421D01*
X614769D01*
Y239397D01*
X614720D01*
Y239372D01*
X614695D01*
Y239347D01*
X614645D01*
Y239322D01*
X614620D01*
Y239297D01*
X614596D01*
Y239272D01*
X614546D01*
Y239248D01*
X614521D01*
Y239223D01*
X614472D01*
Y239198D01*
X614447D01*
Y239173D01*
X614397D01*
Y239148D01*
X614372D01*
Y239124D01*
X614323D01*
Y239099D01*
X614298D01*
Y239074D01*
X614248D01*
Y239049D01*
X614223D01*
Y239024D01*
X614174D01*
Y239000D01*
X614149D01*
Y238975D01*
X614099D01*
Y238950D01*
X614050D01*
Y238925D01*
X614025D01*
Y238900D01*
X613975D01*
Y238875D01*
X613950D01*
Y238851D01*
X613901D01*
Y238826D01*
X613876D01*
Y238801D01*
X613826D01*
Y238776D01*
X613777D01*
Y238751D01*
X613752D01*
Y238726D01*
X613702D01*
Y238702D01*
X613677D01*
Y238677D01*
X613628D01*
Y238652D01*
X613578D01*
Y238627D01*
X613553D01*
Y238602D01*
X613504D01*
Y238578D01*
X613454D01*
Y238553D01*
X613429D01*
Y238528D01*
X613379D01*
Y238503D01*
X613330D01*
Y238478D01*
X613305D01*
Y238454D01*
X613255D01*
Y238429D01*
X613206D01*
Y238404D01*
X613181D01*
Y238379D01*
X613131D01*
Y238354D01*
X613106D01*
Y238329D01*
X613082D01*
Y238280D01*
X613057D01*
Y238180D01*
X613032D01*
Y238007D01*
X613007D01*
Y237461D01*
X613032D01*
Y237386D01*
X613057D01*
Y237361D01*
X613082D01*
Y237337D01*
X613106D01*
Y237312D01*
X613131D01*
Y237287D01*
X613181D01*
Y237262D01*
X613206D01*
Y237237D01*
X613255D01*
Y237212D01*
X613280D01*
Y237188D01*
X613330D01*
Y237163D01*
X613355D01*
Y237138D01*
X613404D01*
Y237113D01*
X613454D01*
Y237088D01*
X613479D01*
Y237064D01*
X613528D01*
Y237039D01*
X613553D01*
Y237014D01*
X613603D01*
Y236989D01*
X613628D01*
Y236964D01*
X613677D01*
Y236940D01*
X613702D01*
Y236915D01*
X613752D01*
Y236890D01*
X613801D01*
Y236865D01*
X613826D01*
Y236840D01*
X613876D01*
Y236815D01*
X613901D01*
Y236791D01*
X613950D01*
Y236766D01*
X613975D01*
Y236741D01*
X614025D01*
Y236716D01*
X614050D01*
Y236691D01*
X614099D01*
Y236666D01*
X614124D01*
Y236642D01*
X614174D01*
Y236617D01*
X614198D01*
Y236592D01*
X614248D01*
Y236567D01*
X614298D01*
Y236542D01*
X614323D01*
Y236518D01*
X614372D01*
Y236493D01*
X614397D01*
Y236468D01*
X614447D01*
Y236443D01*
X614472D01*
Y236418D01*
X614496D01*
Y236393D01*
X614546D01*
Y236369D01*
X614571D01*
Y236344D01*
X614620D01*
Y236319D01*
X614645D01*
Y236294D01*
X614695D01*
Y236269D01*
X614720D01*
Y236245D01*
X614769D01*
Y236220D01*
X614794D01*
Y236195D01*
X614844D01*
Y236170D01*
X614869D01*
Y236145D01*
X614893D01*
Y236121D01*
X614943D01*
Y236096D01*
X614968D01*
Y236071D01*
X615018D01*
Y236046D01*
X615042D01*
Y236021D01*
X615067D01*
Y235996D01*
X615117D01*
Y235971D01*
X615142D01*
Y235947D01*
X615191D01*
Y235922D01*
X615216D01*
Y235897D01*
X615241D01*
Y235872D01*
X615291D01*
Y235847D01*
X615315D01*
Y235823D01*
X615340D01*
Y235798D01*
X615390D01*
Y235773D01*
X615415D01*
Y235748D01*
X615440D01*
Y235723D01*
X615489D01*
Y235699D01*
X615514D01*
Y235674D01*
X615539D01*
Y235649D01*
X615588D01*
Y235624D01*
X615613D01*
Y235599D01*
X615638D01*
Y235574D01*
X615663D01*
Y235550D01*
X615712D01*
Y235525D01*
X615737D01*
Y235500D01*
X615762D01*
Y235475D01*
X615787D01*
Y235450D01*
X615812D01*
Y235425D01*
X615861D01*
Y235401D01*
X615886D01*
Y235376D01*
X615911D01*
Y235351D01*
X615936D01*
Y235326D01*
X615961D01*
Y235301D01*
X616010D01*
Y235277D01*
X616035D01*
Y235252D01*
X616060D01*
Y235227D01*
X616085D01*
Y235202D01*
X616110D01*
Y235177D01*
X616134D01*
Y235153D01*
X616159D01*
Y235128D01*
X616209D01*
Y235103D01*
X616234D01*
Y235078D01*
X616258D01*
Y235053D01*
X616283D01*
Y235028D01*
X616308D01*
Y235004D01*
X616333D01*
Y234979D01*
X616358D01*
Y234954D01*
X616383D01*
Y234929D01*
X616407D01*
Y234904D01*
X616432D01*
Y234879D01*
X616457D01*
Y234855D01*
X616482D01*
Y234830D01*
X616507D01*
Y234805D01*
X616532D01*
Y234780D01*
X616556D01*
Y234755D01*
X616581D01*
Y234731D01*
X616606D01*
Y234706D01*
X616631D01*
Y234681D01*
X616656D01*
Y234656D01*
X616680D01*
Y234631D01*
X616705D01*
Y234607D01*
X616730D01*
Y234582D01*
X616755D01*
Y234557D01*
X616780D01*
Y234532D01*
X616805D01*
Y234507D01*
X616829D01*
Y234482D01*
X616854D01*
Y234458D01*
X616879D01*
Y234433D01*
X616904D01*
Y234408D01*
X616929D01*
Y234383D01*
X616953D01*
Y234333D01*
X616978D01*
Y234309D01*
X617003D01*
Y234284D01*
X617028D01*
Y234259D01*
X617053D01*
Y234234D01*
X617077D01*
Y234209D01*
X617102D01*
Y234185D01*
X617127D01*
Y234160D01*
X617152D01*
Y234135D01*
X617177D01*
Y234085D01*
X617202D01*
Y234061D01*
X617227D01*
Y234036D01*
X617251D01*
Y234011D01*
X617276D01*
Y233986D01*
X617301D01*
Y233961D01*
X617326D01*
Y233936D01*
X617351D01*
Y233887D01*
X617375D01*
Y233862D01*
X617400D01*
Y233837D01*
X617425D01*
Y233812D01*
X617450D01*
Y233787D01*
X617475D01*
Y233738D01*
X617499D01*
Y233713D01*
X617524D01*
Y233688D01*
X617549D01*
Y233639D01*
X617574D01*
Y233614D01*
X617599D01*
Y233589D01*
X617624D01*
Y233564D01*
X617648D01*
Y233514D01*
X617673D01*
Y233490D01*
X617698D01*
Y233465D01*
X617723D01*
Y233415D01*
X617748D01*
Y233390D01*
X617772D01*
Y233366D01*
X617797D01*
Y233316D01*
X617822D01*
Y233291D01*
X617847D01*
Y233266D01*
X617872D01*
Y233217D01*
X617897D01*
Y233192D01*
X617921D01*
Y233142D01*
X617946D01*
Y233117D01*
X617971D01*
Y233093D01*
X617996D01*
Y233043D01*
X618021D01*
Y233018D01*
X618046D01*
Y232968D01*
X618070D01*
Y232944D01*
X618095D01*
Y232894D01*
X618120D01*
Y232869D01*
X618145D01*
Y232820D01*
X618170D01*
Y232795D01*
X618194D01*
Y232745D01*
X618219D01*
Y232720D01*
X618244D01*
Y232671D01*
X618269D01*
Y232621D01*
X618294D01*
Y232596D01*
X618319D01*
Y232546D01*
X618343D01*
Y232522D01*
X618368D01*
Y232472D01*
X618393D01*
Y232422D01*
X618418D01*
Y232373D01*
X618443D01*
Y232348D01*
X618467D01*
Y232298D01*
X618492D01*
Y232249D01*
X618517D01*
Y232224D01*
X618542D01*
Y232174D01*
X618567D01*
Y232125D01*
X618591D01*
Y232075D01*
X618616D01*
Y232025D01*
X618641D01*
Y231976D01*
X618666D01*
Y231951D01*
X618691D01*
Y231901D01*
X618716D01*
Y231852D01*
X618740D01*
Y231802D01*
X618765D01*
Y231752D01*
X618790D01*
Y231703D01*
X618815D01*
Y231653D01*
X618840D01*
Y231603D01*
X618864D01*
Y231554D01*
X618889D01*
Y231479D01*
X618914D01*
Y231430D01*
X618939D01*
Y231380D01*
X618964D01*
Y231330D01*
X618989D01*
Y231281D01*
X619013D01*
Y231206D01*
X619038D01*
Y231157D01*
X619063D01*
Y231107D01*
X619088D01*
Y231033D01*
X619113D01*
Y230983D01*
X619137D01*
Y230908D01*
X619162D01*
Y230834D01*
X619187D01*
Y230784D01*
X619212D01*
Y230710D01*
X619237D01*
Y230635D01*
X619262D01*
Y230561D01*
X619286D01*
Y230487D01*
X619311D01*
Y230412D01*
X619336D01*
Y230338D01*
X619361D01*
Y230263D01*
X619386D01*
Y230189D01*
X619411D01*
Y230089D01*
X619435D01*
Y230015D01*
X619460D01*
Y229916D01*
X619485D01*
Y229841D01*
X619510D01*
Y229742D01*
X619535D01*
Y229667D01*
X619510D01*
Y229717D01*
X619485D01*
Y229742D01*
X619460D01*
Y229792D01*
X619435D01*
Y229841D01*
X619411D01*
Y229866D01*
X619386D01*
Y229916D01*
X619361D01*
Y229965D01*
X619336D01*
Y230015D01*
X619311D01*
Y230065D01*
X619286D01*
Y230089D01*
X619262D01*
Y230139D01*
X619237D01*
Y230189D01*
X619212D01*
Y230238D01*
X619187D01*
Y230288D01*
X619162D01*
Y230313D01*
X619137D01*
Y230363D01*
X619113D01*
Y230412D01*
X619088D01*
Y230462D01*
X619063D01*
Y230487D01*
X619038D01*
Y230536D01*
X619013D01*
Y230586D01*
X618989D01*
Y230611D01*
X618964D01*
Y230660D01*
X618939D01*
Y230710D01*
X618914D01*
Y230735D01*
X618889D01*
Y230784D01*
X618864D01*
Y230809D01*
X618840D01*
Y230859D01*
X618815D01*
Y230908D01*
X618790D01*
Y230933D01*
X618765D01*
Y230983D01*
X618740D01*
Y231008D01*
X618716D01*
Y231057D01*
X618691D01*
Y231082D01*
X618666D01*
Y231132D01*
X618641D01*
Y231157D01*
X618616D01*
Y231206D01*
X618591D01*
Y231231D01*
X618567D01*
Y231281D01*
X618542D01*
Y231306D01*
X618517D01*
Y231355D01*
X618492D01*
Y231380D01*
X618467D01*
Y231430D01*
X618443D01*
Y231454D01*
X618418D01*
Y231479D01*
X618393D01*
Y231529D01*
X618368D01*
Y231554D01*
X618343D01*
Y231603D01*
X618319D01*
Y231628D01*
X618294D01*
Y231653D01*
X618269D01*
Y231703D01*
X618244D01*
Y231728D01*
X618219D01*
Y231752D01*
X618194D01*
Y231802D01*
X618170D01*
Y231827D01*
X618145D01*
Y231852D01*
X618120D01*
Y231901D01*
X618095D01*
Y231926D01*
X618070D01*
Y231951D01*
X618046D01*
Y232000D01*
X618021D01*
Y232025D01*
X617996D01*
Y232050D01*
X617971D01*
Y232075D01*
X617946D01*
Y232125D01*
X617921D01*
Y232149D01*
X617897D01*
Y232174D01*
X617872D01*
Y232199D01*
X617847D01*
Y232249D01*
X617822D01*
Y232274D01*
X617797D01*
Y232298D01*
X617772D01*
Y232323D01*
X617748D01*
Y232348D01*
X617723D01*
Y232398D01*
X617698D01*
Y232422D01*
X617673D01*
Y232447D01*
X617648D01*
Y232472D01*
X617624D01*
Y232497D01*
X617599D01*
Y232522D01*
X617574D01*
Y232571D01*
X617549D01*
Y232596D01*
X617524D01*
Y232621D01*
X617499D01*
Y232646D01*
X617475D01*
Y232671D01*
X617450D01*
Y232696D01*
X617425D01*
Y232720D01*
X617400D01*
Y232745D01*
X617375D01*
Y232770D01*
X617351D01*
Y232820D01*
X617326D01*
Y232844D01*
X617301D01*
Y232869D01*
X617276D01*
Y232894D01*
X617251D01*
Y232919D01*
X617227D01*
Y232944D01*
X617202D01*
Y232968D01*
X617177D01*
Y232993D01*
X617152D01*
Y233018D01*
X617127D01*
Y233043D01*
X617102D01*
Y233068D01*
X617077D01*
Y233093D01*
X617053D01*
Y233117D01*
X617028D01*
Y233142D01*
X617003D01*
Y233167D01*
X616978D01*
Y233192D01*
X616953D01*
Y233217D01*
X616929D01*
Y233242D01*
X616904D01*
Y233266D01*
X616879D01*
Y233291D01*
X616854D01*
Y233316D01*
X616829D01*
Y233341D01*
X616805D01*
Y233366D01*
X616780D01*
Y233390D01*
X616755D01*
Y233415D01*
X616730D01*
Y233440D01*
X616705D01*
Y233465D01*
X616680D01*
Y233490D01*
X616656D01*
Y233514D01*
X616631D01*
Y233539D01*
X616606D01*
Y233564D01*
X616581D01*
Y233589D01*
X616556D01*
Y233614D01*
X616532D01*
Y233639D01*
X616507D01*
Y233663D01*
X616482D01*
Y233688D01*
X616432D01*
Y233713D01*
X616407D01*
Y233738D01*
X616383D01*
Y233763D01*
X616358D01*
Y233787D01*
X616333D01*
Y233812D01*
X616308D01*
Y233837D01*
X616283D01*
Y233862D01*
X616258D01*
Y233887D01*
X616209D01*
Y233912D01*
X616184D01*
Y233936D01*
X616159D01*
Y233961D01*
X616134D01*
Y233986D01*
X616110D01*
Y234011D01*
X616085D01*
Y234036D01*
X616035D01*
Y234061D01*
X616010D01*
Y234085D01*
X615985D01*
Y234110D01*
X615961D01*
Y234135D01*
X615936D01*
Y234160D01*
X615911D01*
Y234185D01*
X615861D01*
Y234209D01*
X615837D01*
Y234234D01*
X615812D01*
Y234259D01*
X615787D01*
Y234284D01*
X615737D01*
Y234309D01*
X615712D01*
Y234333D01*
X615688D01*
Y234358D01*
X615663D01*
Y234383D01*
X615613D01*
Y234408D01*
X615588D01*
Y234433D01*
X615564D01*
Y234458D01*
X615539D01*
Y234482D01*
X615489D01*
Y234507D01*
X615464D01*
Y234532D01*
X615440D01*
Y234557D01*
X615390D01*
Y234582D01*
X615365D01*
Y234607D01*
X615340D01*
Y234631D01*
X615315D01*
Y234656D01*
X615266D01*
Y234681D01*
X615241D01*
Y234706D01*
X615216D01*
Y234731D01*
X615167D01*
Y234755D01*
X615142D01*
Y234780D01*
X615117D01*
Y234805D01*
X615067D01*
Y234830D01*
X615042D01*
Y234855D01*
X614993D01*
Y234879D01*
X614968D01*
Y234904D01*
X614943D01*
Y234929D01*
X614893D01*
Y234954D01*
X614869D01*
Y234979D01*
X614819D01*
Y235004D01*
X614794D01*
Y235028D01*
X614769D01*
Y235053D01*
X614720D01*
Y235078D01*
X614695D01*
Y235103D01*
X614645D01*
Y235128D01*
X614620D01*
Y235153D01*
X614571D01*
Y235177D01*
X614546D01*
Y235202D01*
X614496D01*
Y235227D01*
X614472D01*
Y235252D01*
X614422D01*
Y235277D01*
X614397D01*
Y235301D01*
X614348D01*
Y235326D01*
X614323D01*
Y235351D01*
X614273D01*
Y235376D01*
X614248D01*
Y235401D01*
X614198D01*
Y235425D01*
X614174D01*
Y235450D01*
X614124D01*
Y235475D01*
X614099D01*
Y235500D01*
X614050D01*
Y235525D01*
X614000D01*
Y235550D01*
X613975D01*
Y235574D01*
X613926D01*
Y235599D01*
X613901D01*
Y235624D01*
X613851D01*
Y235649D01*
X613826D01*
Y235674D01*
X613777D01*
Y235699D01*
X613727D01*
Y235723D01*
X613702D01*
Y235748D01*
X613653D01*
Y235773D01*
X613628D01*
Y235798D01*
X613578D01*
Y235823D01*
X613553D01*
Y235847D01*
X613504D01*
Y235872D01*
X613454D01*
Y235897D01*
X613429D01*
Y235922D01*
X613379D01*
Y235947D01*
X613355D01*
Y235971D01*
X613305D01*
Y235996D01*
X613280D01*
Y236021D01*
X613231D01*
Y236046D01*
X613206D01*
Y236071D01*
X613156D01*
Y236096D01*
X613131D01*
Y236121D01*
X613082D01*
Y236145D01*
X613057D01*
Y236170D01*
X613032D01*
Y236195D01*
X612982D01*
Y236220D01*
X612958D01*
Y236245D01*
X612908D01*
Y236269D01*
X612883D01*
Y236294D01*
X612833D01*
Y236319D01*
X612809D01*
Y236344D01*
X612784D01*
Y236369D01*
X612734D01*
Y236393D01*
X612709D01*
Y236418D01*
X612685D01*
Y236443D01*
X612660D01*
Y236468D01*
X612610D01*
Y236493D01*
X612585D01*
Y236518D01*
X612561D01*
Y236542D01*
X612536D01*
Y236567D01*
X612511D01*
Y236592D01*
X612461D01*
Y236617D01*
X612436D01*
Y236642D01*
X612412D01*
Y236666D01*
X612387D01*
Y236691D01*
X612362D01*
Y236716D01*
X612312D01*
Y236741D01*
X612288D01*
Y236766D01*
X612263D01*
Y238875D01*
X612312D01*
Y238900D01*
X612337D01*
Y238925D01*
X612362D01*
Y238950D01*
X612387D01*
Y238975D01*
X612412D01*
Y239000D01*
X612436D01*
Y239024D01*
X612486D01*
Y239049D01*
X612511D01*
Y239074D01*
X612536D01*
Y239099D01*
X612561D01*
Y239124D01*
X612585D01*
Y239148D01*
X612610D01*
Y239173D01*
X612660D01*
Y239198D01*
X612685D01*
Y239223D01*
X612709D01*
Y239248D01*
X612734D01*
Y239272D01*
X612784D01*
Y239297D01*
X612809D01*
Y239322D01*
X612833D01*
Y239347D01*
X612883D01*
Y239372D01*
X612908D01*
Y239397D01*
X612933D01*
Y239421D01*
X612982D01*
Y239446D01*
X613007D01*
Y239471D01*
X613057D01*
Y239496D01*
X613082D01*
Y239521D01*
X613106D01*
Y239545D01*
X613156D01*
Y239570D01*
X613181D01*
Y239595D01*
X613231D01*
Y239620D01*
X613255D01*
Y239645D01*
X613305D01*
Y239670D01*
X613330D01*
Y239694D01*
X613379D01*
Y239719D01*
X613404D01*
Y239744D01*
X613454D01*
Y239769D01*
X613479D01*
Y239794D01*
X613528D01*
Y239819D01*
X613553D01*
Y239843D01*
X613603D01*
Y239868D01*
X613653D01*
Y239893D01*
X613677D01*
Y239918D01*
X613727D01*
Y239943D01*
X613752D01*
Y239967D01*
X613801D01*
Y239992D01*
X613826D01*
Y240017D01*
X613876D01*
Y240042D01*
X613926D01*
Y240067D01*
X613950D01*
Y240091D01*
X614000D01*
Y240116D01*
X614025D01*
Y240141D01*
X614074D01*
Y240166D01*
X614124D01*
Y240191D01*
X614149D01*
Y240216D01*
X614198D01*
Y240240D01*
X614223D01*
Y240265D01*
X614273D01*
Y240290D01*
X614323D01*
Y240315D01*
X614348D01*
Y240340D01*
X614397D01*
Y240365D01*
X614422D01*
Y240389D01*
X614472D01*
Y240414D01*
X614496D01*
Y240439D01*
X614546D01*
Y240464D01*
X614571D01*
Y240489D01*
X614620D01*
Y240513D01*
X614645D01*
Y240538D01*
X614695D01*
Y240563D01*
X614720D01*
Y240588D01*
X614769D01*
Y240613D01*
X614794D01*
Y240637D01*
X614819D01*
Y240662D01*
X614869D01*
Y240687D01*
X614893D01*
Y240712D01*
X614943D01*
Y240737D01*
X614968D01*
Y240762D01*
X614993D01*
Y240787D01*
X615042D01*
Y240811D01*
X615067D01*
Y240836D01*
X615117D01*
Y240861D01*
X615142D01*
Y240886D01*
X615167D01*
Y240911D01*
X615216D01*
Y240935D01*
X615241D01*
Y240960D01*
X615266D01*
Y240985D01*
X615315D01*
Y241010D01*
X615340D01*
Y241035D01*
X615365D01*
Y241059D01*
X615415D01*
Y241084D01*
X615440D01*
Y241109D01*
X615464D01*
Y241134D01*
X615514D01*
Y241159D01*
X615539D01*
Y241184D01*
X615564D01*
Y241208D01*
X615588D01*
Y241233D01*
X615638D01*
Y241258D01*
X615663D01*
Y241283D01*
X615688D01*
Y241308D01*
X615737D01*
Y241333D01*
X615762D01*
Y241357D01*
X615787D01*
Y241382D01*
X615812D01*
Y241407D01*
X615837D01*
Y241432D01*
X615886D01*
Y241457D01*
X615911D01*
Y241481D01*
X615936D01*
Y241506D01*
X615961D01*
Y241531D01*
X615985D01*
Y241556D01*
X616035D01*
Y241581D01*
X616060D01*
Y241605D01*
X616085D01*
Y241630D01*
X616110D01*
Y241655D01*
X616134D01*
Y241680D01*
X616159D01*
Y241705D01*
X616209D01*
Y241730D01*
X616234D01*
Y241754D01*
X616258D01*
Y241779D01*
X616283D01*
Y241804D01*
X616308D01*
Y241829D01*
X616333D01*
Y241854D01*
X616358D01*
Y241879D01*
X616383D01*
Y241903D01*
X616432D01*
Y241928D01*
X616457D01*
Y241953D01*
X616482D01*
Y241978D01*
X616507D01*
Y242003D01*
X616532D01*
Y242027D01*
X616556D01*
Y242052D01*
X616581D01*
Y242077D01*
X616606D01*
Y242102D01*
X616631D01*
Y242127D01*
X616656D01*
Y242151D01*
X616680D01*
Y242176D01*
X616705D01*
Y242201D01*
X616730D01*
Y242226D01*
X616755D01*
Y242251D01*
X616780D01*
Y242276D01*
X616805D01*
Y242300D01*
X616854D01*
Y242325D01*
X616879D01*
Y242350D01*
X616904D01*
Y242375D01*
X616929D01*
Y242400D01*
X616953D01*
Y242425D01*
X616978D01*
Y242449D01*
X617003D01*
Y242499D01*
X617028D01*
Y242524D01*
X617053D01*
Y242549D01*
X617077D01*
Y242573D01*
X617102D01*
Y242598D01*
X617127D01*
Y242623D01*
X617152D01*
Y242648D01*
X617177D01*
Y242673D01*
X617202D01*
Y242698D01*
X617227D01*
Y242722D01*
X617251D01*
Y242747D01*
X617276D01*
Y242772D01*
X617301D01*
Y242797D01*
X617326D01*
Y242822D01*
X617351D01*
Y242846D01*
X617375D01*
Y242871D01*
X617400D01*
Y242921D01*
X617425D01*
Y242946D01*
X617450D01*
Y242970D01*
X617475D01*
Y242995D01*
X617499D01*
Y243020D01*
X617524D01*
Y243045D01*
X617549D01*
Y243070D01*
X617574D01*
Y243095D01*
X617599D01*
Y243144D01*
X617624D01*
Y243169D01*
X617648D01*
Y243194D01*
X617673D01*
Y243219D01*
X617698D01*
Y243244D01*
X617723D01*
Y243268D01*
X617748D01*
Y243318D01*
X617772D01*
Y243343D01*
X617797D01*
Y243368D01*
X617822D01*
Y243392D01*
X617847D01*
Y243442D01*
X617872D01*
Y243467D01*
X617897D01*
Y243492D01*
X617921D01*
Y243516D01*
X617946D01*
Y243541D01*
X617971D01*
Y243591D01*
X617996D01*
Y243616D01*
X618021D01*
Y243641D01*
X618046D01*
Y243690D01*
X618070D01*
Y243715D01*
X618095D01*
Y243740D01*
X618120D01*
Y243790D01*
X618145D01*
Y243814D01*
X618170D01*
Y243839D01*
X618194D01*
Y243864D01*
X618219D01*
Y243914D01*
X618244D01*
Y243938D01*
X618269D01*
Y243988D01*
X618294D01*
Y244013D01*
X618319D01*
Y244038D01*
X618343D01*
Y244087D01*
X618368D01*
Y244112D01*
X618393D01*
Y244162D01*
X618418D01*
Y244187D01*
X618443D01*
Y244212D01*
X618467D01*
Y244261D01*
X618492D01*
Y244286D01*
X618517D01*
Y244336D01*
X618542D01*
Y244360D01*
X618567D01*
Y244410D01*
X618591D01*
Y244435D01*
X618616D01*
Y244484D01*
X618641D01*
Y244509D01*
X618666D01*
Y244559D01*
X618691D01*
Y244584D01*
X618716D01*
Y244633D01*
X618740D01*
Y244658D01*
X618765D01*
Y244708D01*
X618790D01*
Y244758D01*
X618815D01*
Y244782D01*
X618840D01*
Y244832D01*
X618864D01*
Y244857D01*
X618889D01*
Y244906D01*
X618914D01*
Y244956D01*
X618939D01*
Y244981D01*
X618964D01*
Y245030D01*
X618989D01*
Y245080D01*
X619013D01*
Y245130D01*
X619038D01*
Y245155D01*
X619063D01*
Y245204D01*
X619088D01*
Y245254D01*
X619113D01*
Y245304D01*
X619137D01*
Y245328D01*
X619162D01*
Y245378D01*
X619187D01*
Y245428D01*
X619212D01*
Y245477D01*
X619237D01*
Y245527D01*
X619262D01*
Y245552D01*
X619286D01*
Y245601D01*
X619311D01*
Y245651D01*
X619336D01*
Y245701D01*
X619361D01*
Y245750D01*
X619386D01*
Y245775D01*
X619411D01*
Y245825D01*
X619435D01*
Y245874D01*
X619460D01*
Y245899D01*
X619485D01*
Y245949D01*
X619510D01*
Y245825D01*
D02*
G37*
G36*
X608267Y233887D02*
X608316D01*
Y233862D01*
X608341D01*
Y233837D01*
X608366D01*
Y233812D01*
X608391D01*
Y233787D01*
X608416D01*
Y233763D01*
X608440D01*
Y233713D01*
X608465D01*
Y233663D01*
X608490D01*
Y233614D01*
X608515D01*
Y233564D01*
X608540D01*
Y233514D01*
X608565D01*
Y233465D01*
X608589D01*
Y233390D01*
X608614D01*
Y233316D01*
X608639D01*
Y233266D01*
X608664D01*
Y233192D01*
X608689D01*
Y233117D01*
X608713D01*
Y233043D01*
X608738D01*
Y232993D01*
X608763D01*
Y232919D01*
X608788D01*
Y232844D01*
X608813D01*
Y232770D01*
X608838D01*
Y232696D01*
X608862D01*
Y232621D01*
X608887D01*
Y232546D01*
X608912D01*
Y232472D01*
X608937D01*
Y232398D01*
X608962D01*
Y232323D01*
X608987D01*
Y232249D01*
X609011D01*
Y232174D01*
X609036D01*
Y232100D01*
X609061D01*
Y232025D01*
X609086D01*
Y231951D01*
X609111D01*
Y231876D01*
X609135D01*
Y231802D01*
X609160D01*
Y231728D01*
X609185D01*
Y231653D01*
X609210D01*
Y231579D01*
X609235D01*
Y231504D01*
X609260D01*
Y231430D01*
X609284D01*
Y231355D01*
X609309D01*
Y231281D01*
X609334D01*
Y231206D01*
X609359D01*
Y231132D01*
X609384D01*
Y231057D01*
X609409D01*
Y230983D01*
X609433D01*
Y230908D01*
X609458D01*
Y230834D01*
X609483D01*
Y230760D01*
X609508D01*
Y230685D01*
X609533D01*
Y230611D01*
X609557D01*
Y230536D01*
X609582D01*
Y230437D01*
X609607D01*
Y230363D01*
X609632D01*
Y230288D01*
X609657D01*
Y230214D01*
X609682D01*
Y230139D01*
X609706D01*
Y230040D01*
X609731D01*
Y229990D01*
X609706D01*
Y229965D01*
X609682D01*
Y229941D01*
X609657D01*
Y229916D01*
X609632D01*
Y229891D01*
X609607D01*
Y229866D01*
X609582D01*
Y229841D01*
X609557D01*
Y229816D01*
X609533D01*
Y229792D01*
X609508D01*
Y229767D01*
X609483D01*
Y229742D01*
X609433D01*
Y229717D01*
X609409D01*
Y229692D01*
X609384D01*
Y229667D01*
X609359D01*
Y229643D01*
X609334D01*
Y229618D01*
X609309D01*
Y229593D01*
X609260D01*
Y229568D01*
X609235D01*
Y229543D01*
X609210D01*
Y229519D01*
X609185D01*
Y229494D01*
X609160D01*
Y229469D01*
X609111D01*
Y229444D01*
X609086D01*
Y229419D01*
X609061D01*
Y229395D01*
X609036D01*
Y229370D01*
X608987D01*
Y229345D01*
X608962D01*
Y229320D01*
X608937D01*
Y229295D01*
X608912D01*
Y229270D01*
X608862D01*
Y229246D01*
X608838D01*
Y229221D01*
X608813D01*
Y229196D01*
X608763D01*
Y229171D01*
X608738D01*
Y229146D01*
X608689D01*
Y229121D01*
X608664D01*
Y229097D01*
X608614D01*
Y229072D01*
X608565D01*
Y229047D01*
X608515D01*
Y229022D01*
X608416D01*
Y228997D01*
X608292D01*
Y229022D01*
X608217D01*
Y229047D01*
X608143D01*
Y229072D01*
X608093D01*
Y229097D01*
X608068D01*
Y229121D01*
X608019D01*
Y229146D01*
X607994D01*
Y229171D01*
X607969D01*
Y229196D01*
X607919D01*
Y229221D01*
X607895D01*
Y229246D01*
X607870D01*
Y229270D01*
X607845D01*
Y229295D01*
X607820D01*
Y229320D01*
X607795D01*
Y229345D01*
X607746D01*
Y229370D01*
X607721D01*
Y229395D01*
X607696D01*
Y229419D01*
X607671D01*
Y229444D01*
X607646D01*
Y229469D01*
X607621D01*
Y229494D01*
X607597D01*
Y229519D01*
X607572D01*
Y229543D01*
X607522D01*
Y229568D01*
X607497D01*
Y229593D01*
X607473D01*
Y229618D01*
X607448D01*
Y229643D01*
X607423D01*
Y229667D01*
X607398D01*
Y229692D01*
X607373D01*
Y229717D01*
X607348D01*
Y229742D01*
X607324D01*
Y229767D01*
X607274D01*
Y231256D01*
X607249D01*
Y233142D01*
X607224D01*
Y233167D01*
X607249D01*
Y233192D01*
X607299D01*
Y233217D01*
X607324D01*
Y233242D01*
X607348D01*
Y233266D01*
X607373D01*
Y233291D01*
X607398D01*
Y233316D01*
X607448D01*
Y233341D01*
X607473D01*
Y233366D01*
X607497D01*
Y233390D01*
X607522D01*
Y233415D01*
X607547D01*
Y233440D01*
X607597D01*
Y233465D01*
X607621D01*
Y233490D01*
X607646D01*
Y233514D01*
X607671D01*
Y233539D01*
X607696D01*
Y233564D01*
X607721D01*
Y233589D01*
X607770D01*
Y233614D01*
X607795D01*
Y233639D01*
X607820D01*
Y233663D01*
X607845D01*
Y233688D01*
X607870D01*
Y233713D01*
X607919D01*
Y233738D01*
X607944D01*
Y233763D01*
X607969D01*
Y233787D01*
X608019D01*
Y233812D01*
X608043D01*
Y233837D01*
X608093D01*
Y233862D01*
X608118D01*
Y233887D01*
X608192D01*
Y233912D01*
X608267D01*
Y233887D01*
D02*
G37*
G36*
X610029Y229221D02*
X610054D01*
Y229146D01*
X610079D01*
Y229097D01*
X610103D01*
Y229022D01*
X610128D01*
Y228948D01*
X610153D01*
Y228898D01*
X610178D01*
Y228824D01*
X610203D01*
Y228749D01*
X610227D01*
Y228700D01*
X610252D01*
Y228625D01*
X610277D01*
Y228551D01*
X610302D01*
Y228501D01*
X610327D01*
Y228427D01*
X610352D01*
Y228352D01*
X610376D01*
Y228278D01*
X610401D01*
Y228228D01*
X610426D01*
Y228154D01*
X610451D01*
Y228079D01*
X610476D01*
Y228029D01*
X610500D01*
Y227955D01*
X610525D01*
Y227881D01*
X610550D01*
Y227831D01*
X610575D01*
Y227757D01*
X610600D01*
Y227682D01*
X610625D01*
Y227607D01*
X610649D01*
Y227558D01*
X610674D01*
Y227484D01*
X610699D01*
Y227409D01*
X610724D01*
Y227359D01*
X610749D01*
Y227285D01*
X610774D01*
Y227210D01*
X610798D01*
Y227161D01*
X610823D01*
Y227086D01*
X610848D01*
Y227012D01*
X610873D01*
Y226962D01*
X610898D01*
Y226888D01*
X610922D01*
Y226813D01*
X610947D01*
Y226764D01*
X610972D01*
Y226689D01*
X610997D01*
Y226615D01*
X611022D01*
Y226540D01*
X611047D01*
Y226491D01*
X611071D01*
Y226416D01*
X611096D01*
Y226342D01*
X611121D01*
Y226292D01*
X611096D01*
Y226267D01*
X610625D01*
Y226292D01*
X610252D01*
Y226317D01*
X609880D01*
Y226342D01*
X609533D01*
Y226367D01*
X609160D01*
Y226391D01*
X608763D01*
Y226416D01*
X608440D01*
Y226491D01*
X608416D01*
Y226565D01*
X608391D01*
Y226640D01*
X608366D01*
Y226714D01*
X608341D01*
Y226788D01*
X608316D01*
Y226863D01*
X608292D01*
Y226937D01*
X608267D01*
Y227012D01*
X608242D01*
Y227086D01*
X608217D01*
Y227161D01*
X608192D01*
Y227235D01*
X608168D01*
Y227310D01*
X608143D01*
Y227384D01*
X608118D01*
Y227459D01*
X608093D01*
Y227558D01*
X608068D01*
Y227632D01*
X608043D01*
Y227707D01*
X608019D01*
Y227781D01*
X607994D01*
Y227856D01*
X607969D01*
Y227930D01*
X607944D01*
Y228005D01*
X607919D01*
Y228079D01*
X607895D01*
Y228154D01*
X607870D01*
Y228253D01*
X607845D01*
Y228327D01*
X608292D01*
Y228303D01*
X608838D01*
Y228327D01*
X608862D01*
Y228352D01*
X608887D01*
Y228377D01*
X608912D01*
Y228402D01*
X608937D01*
Y228427D01*
X608962D01*
Y228451D01*
X609011D01*
Y228476D01*
X609036D01*
Y228501D01*
X609061D01*
Y228526D01*
X609086D01*
Y228551D01*
X609111D01*
Y228575D01*
X609160D01*
Y228600D01*
X609185D01*
Y228625D01*
X609210D01*
Y228650D01*
X609235D01*
Y228675D01*
X609260D01*
Y228700D01*
X609309D01*
Y228724D01*
X609334D01*
Y228749D01*
X609359D01*
Y228774D01*
X609384D01*
Y228799D01*
X609409D01*
Y228824D01*
X609433D01*
Y228849D01*
X609483D01*
Y228873D01*
X609508D01*
Y228898D01*
X609533D01*
Y228923D01*
X609557D01*
Y228948D01*
X609582D01*
Y228973D01*
X609632D01*
Y228997D01*
X609657D01*
Y229022D01*
X609682D01*
Y229047D01*
X609706D01*
Y229072D01*
X609731D01*
Y229097D01*
X609781D01*
Y229121D01*
X609806D01*
Y229146D01*
X609830D01*
Y229171D01*
X609855D01*
Y229196D01*
X609880D01*
Y229221D01*
X609905D01*
Y229246D01*
X609954D01*
Y229270D01*
X609979D01*
Y229295D01*
X610029D01*
Y229221D01*
D02*
G37*
G36*
X623233Y237188D02*
X623257D01*
Y236989D01*
X623282D01*
Y236791D01*
X623307D01*
Y236269D01*
X623332D01*
Y236096D01*
X623307D01*
Y235277D01*
X623282D01*
Y234879D01*
X623257D01*
Y234557D01*
X623233D01*
Y234284D01*
X623208D01*
Y234036D01*
X623183D01*
Y233862D01*
X623158D01*
Y233688D01*
X623133D01*
Y233539D01*
X623108D01*
Y233415D01*
X623084D01*
Y233316D01*
X623059D01*
Y233192D01*
X623034D01*
Y233093D01*
X623009D01*
Y232993D01*
X622985D01*
Y232894D01*
X622960D01*
Y232795D01*
X622935D01*
Y232720D01*
X622910D01*
Y232621D01*
X622885D01*
Y232546D01*
X622860D01*
Y232447D01*
X622835D01*
Y232373D01*
X622811D01*
Y232298D01*
X622786D01*
Y232224D01*
X622761D01*
Y232149D01*
X622736D01*
Y232050D01*
X622711D01*
Y232000D01*
X622687D01*
Y231901D01*
X622662D01*
Y231852D01*
X622637D01*
Y231777D01*
X622612D01*
Y231703D01*
X622587D01*
Y231628D01*
X622563D01*
Y231579D01*
X622538D01*
Y231504D01*
X622513D01*
Y231430D01*
X622488D01*
Y231380D01*
X622463D01*
Y231306D01*
X622438D01*
Y231256D01*
X622414D01*
Y231182D01*
X622389D01*
Y231132D01*
X622364D01*
Y231057D01*
X622339D01*
Y231008D01*
X622314D01*
Y230933D01*
X622290D01*
Y230884D01*
X622265D01*
Y230834D01*
X622240D01*
Y230760D01*
X622215D01*
Y230710D01*
X622190D01*
Y230660D01*
X622165D01*
Y230611D01*
X622141D01*
Y230561D01*
X622116D01*
Y230511D01*
X622091D01*
Y230462D01*
X622066D01*
Y230412D01*
X622041D01*
Y230363D01*
X622016D01*
Y230313D01*
X621992D01*
Y230263D01*
X621967D01*
Y230214D01*
X621942D01*
Y230164D01*
X621917D01*
Y230114D01*
X621892D01*
Y230065D01*
X621868D01*
Y230040D01*
X621843D01*
Y229990D01*
X621818D01*
Y229941D01*
X621793D01*
Y229891D01*
X621768D01*
Y229866D01*
X621743D01*
Y229816D01*
X621719D01*
Y229767D01*
X621694D01*
Y229717D01*
X621669D01*
Y229692D01*
X621644D01*
Y229643D01*
X621619D01*
Y229593D01*
X621595D01*
Y229568D01*
X621570D01*
Y229519D01*
X621545D01*
Y229469D01*
X621520D01*
Y229444D01*
X621495D01*
Y229395D01*
X621470D01*
Y229370D01*
X621446D01*
Y229320D01*
X621421D01*
Y229270D01*
X621396D01*
Y229246D01*
X621371D01*
Y229196D01*
X621346D01*
Y229171D01*
X621322D01*
Y229121D01*
X621297D01*
Y229097D01*
X621272D01*
Y229047D01*
X621247D01*
Y228997D01*
X621222D01*
Y228973D01*
X621198D01*
Y228923D01*
X621173D01*
Y228898D01*
X621148D01*
Y228873D01*
X621123D01*
Y228824D01*
X621098D01*
Y228799D01*
X621073D01*
Y228749D01*
X621049D01*
Y228724D01*
X621024D01*
Y228675D01*
X620999D01*
Y228650D01*
X620974D01*
Y228600D01*
X620949D01*
Y228575D01*
X620925D01*
Y228551D01*
X620900D01*
Y228501D01*
X620875D01*
Y228476D01*
X620850D01*
Y228427D01*
X620825D01*
Y228402D01*
X620800D01*
Y228377D01*
X620776D01*
Y228352D01*
X620751D01*
Y228303D01*
X620726D01*
Y228278D01*
X620701D01*
Y228253D01*
X620676D01*
Y228228D01*
X620651D01*
Y228203D01*
X620602D01*
Y228228D01*
X620577D01*
Y228253D01*
X620552D01*
Y228327D01*
X620527D01*
Y228402D01*
X620503D01*
Y228501D01*
X620478D01*
Y228600D01*
X620453D01*
Y228700D01*
X620428D01*
Y228824D01*
X620403D01*
Y228948D01*
X620378D01*
Y229047D01*
X620354D01*
Y229171D01*
X620329D01*
Y229270D01*
X620304D01*
Y229395D01*
X620279D01*
Y229494D01*
X620254D01*
Y229593D01*
X620229D01*
Y229692D01*
X620205D01*
Y229792D01*
X620180D01*
Y229891D01*
X620155D01*
Y229990D01*
X620130D01*
Y230065D01*
X620106D01*
Y230164D01*
X620081D01*
Y230263D01*
X620056D01*
Y230338D01*
X620031D01*
Y230437D01*
X620006D01*
Y230511D01*
X619981D01*
Y230611D01*
X619956D01*
Y230685D01*
X619932D01*
Y230760D01*
X619907D01*
Y230834D01*
X619882D01*
Y230908D01*
X619857D01*
Y230983D01*
X619832D01*
Y231057D01*
X619808D01*
Y231132D01*
X619783D01*
Y231206D01*
X619758D01*
Y231256D01*
X619733D01*
Y231330D01*
X619708D01*
Y231405D01*
X619684D01*
Y231454D01*
X619659D01*
Y231529D01*
X619634D01*
Y231579D01*
X619609D01*
Y231628D01*
X619584D01*
Y231678D01*
X619559D01*
Y231752D01*
X619535D01*
Y231802D01*
X619510D01*
Y231852D01*
X619485D01*
Y231901D01*
X619460D01*
Y231951D01*
X619435D01*
Y232000D01*
X619411D01*
Y232050D01*
X619386D01*
Y232100D01*
X619361D01*
Y232174D01*
X619336D01*
Y232199D01*
X619311D01*
Y232249D01*
X619286D01*
Y232298D01*
X619262D01*
Y232348D01*
X619237D01*
Y232398D01*
X619212D01*
Y232447D01*
X619187D01*
Y232497D01*
X619162D01*
Y232546D01*
X619137D01*
Y232571D01*
X619113D01*
Y232621D01*
X619088D01*
Y232671D01*
X619063D01*
Y232720D01*
X619038D01*
Y232745D01*
X619013D01*
Y232795D01*
X618989D01*
Y232844D01*
X618964D01*
Y232869D01*
X618939D01*
Y232919D01*
X618914D01*
Y232968D01*
X618889D01*
Y232993D01*
X618864D01*
Y233043D01*
X618840D01*
Y233068D01*
X618815D01*
Y233117D01*
X618790D01*
Y233167D01*
X618765D01*
Y233192D01*
X618740D01*
Y233242D01*
X618716D01*
Y233266D01*
X618691D01*
Y233316D01*
X618666D01*
Y233341D01*
X618641D01*
Y233390D01*
X618616D01*
Y233415D01*
X618591D01*
Y233440D01*
X618567D01*
Y233490D01*
X618542D01*
Y233514D01*
X618517D01*
Y233564D01*
X618492D01*
Y233589D01*
X618467D01*
Y233639D01*
X618443D01*
Y233663D01*
X618418D01*
Y233688D01*
X618393D01*
Y233738D01*
X618368D01*
Y233763D01*
X618343D01*
Y233787D01*
X618319D01*
Y233837D01*
X618294D01*
Y233862D01*
X618269D01*
Y233887D01*
X618244D01*
Y233936D01*
X618219D01*
Y233961D01*
X618194D01*
Y233986D01*
X618170D01*
Y234011D01*
X618145D01*
Y234061D01*
X618120D01*
Y234085D01*
X618095D01*
Y234110D01*
X618070D01*
Y234135D01*
X618046D01*
Y234185D01*
X618021D01*
Y234209D01*
X617996D01*
Y234234D01*
X617971D01*
Y234259D01*
X617946D01*
Y234284D01*
X617921D01*
Y234333D01*
X617897D01*
Y234358D01*
X617872D01*
Y234383D01*
X617847D01*
Y234408D01*
X617822D01*
Y234433D01*
X617797D01*
Y234458D01*
X617772D01*
Y234507D01*
X617748D01*
Y234532D01*
X617723D01*
Y234557D01*
X617698D01*
Y234582D01*
X617673D01*
Y234607D01*
X617648D01*
Y234631D01*
X617624D01*
Y234656D01*
X617599D01*
Y234681D01*
X617574D01*
Y234706D01*
X617549D01*
Y234755D01*
X617524D01*
Y234780D01*
X617499D01*
Y234805D01*
X617475D01*
Y234830D01*
X617450D01*
Y234855D01*
X617425D01*
Y234879D01*
X617400D01*
Y234904D01*
X617375D01*
Y234929D01*
X617351D01*
Y234954D01*
X617326D01*
Y234979D01*
X617301D01*
Y235004D01*
X617276D01*
Y235028D01*
X617251D01*
Y235053D01*
X617227D01*
Y235078D01*
X617202D01*
Y235103D01*
X617177D01*
Y235128D01*
X617152D01*
Y235153D01*
X617127D01*
Y235177D01*
X617102D01*
Y235202D01*
X617077D01*
Y235227D01*
X617053D01*
Y235252D01*
X617028D01*
Y235277D01*
X617003D01*
Y235301D01*
X616978D01*
Y235326D01*
X616953D01*
Y235351D01*
X616929D01*
Y235376D01*
X616904D01*
Y235401D01*
X616879D01*
Y235425D01*
X616854D01*
Y235450D01*
X616829D01*
Y235475D01*
X616805D01*
Y235500D01*
X616780D01*
Y235525D01*
X616730D01*
Y235550D01*
X616705D01*
Y235574D01*
X616680D01*
Y235599D01*
X616656D01*
Y235624D01*
X616631D01*
Y235649D01*
X616606D01*
Y235674D01*
X616581D01*
Y235699D01*
X616556D01*
Y235723D01*
X616532D01*
Y235748D01*
X616507D01*
Y235773D01*
X616457D01*
Y235798D01*
X616432D01*
Y235823D01*
X616407D01*
Y235847D01*
X616383D01*
Y235872D01*
X616358D01*
Y235897D01*
X616333D01*
Y235922D01*
X616283D01*
Y235947D01*
X616258D01*
Y235971D01*
X616234D01*
Y235996D01*
X616209D01*
Y236021D01*
X616184D01*
Y236046D01*
X616134D01*
Y236071D01*
X616110D01*
Y236096D01*
X616085D01*
Y236121D01*
X616060D01*
Y236145D01*
X616035D01*
Y236170D01*
X615985D01*
Y236195D01*
X615961D01*
Y236220D01*
X615936D01*
Y236245D01*
X615911D01*
Y236269D01*
X615861D01*
Y236294D01*
X615837D01*
Y236319D01*
X615812D01*
Y236344D01*
X615787D01*
Y236369D01*
X615737D01*
Y236393D01*
X615712D01*
Y236418D01*
X615688D01*
Y236443D01*
X615638D01*
Y236468D01*
X615613D01*
Y236493D01*
X615588D01*
Y236518D01*
X615564D01*
Y236542D01*
X615514D01*
Y236567D01*
X615489D01*
Y236592D01*
X615464D01*
Y236617D01*
X615415D01*
Y236642D01*
X615390D01*
Y236666D01*
X615340D01*
Y236691D01*
X615315D01*
Y236716D01*
X615291D01*
Y236741D01*
X615241D01*
Y236766D01*
X615216D01*
Y236791D01*
X615191D01*
Y236815D01*
X615142D01*
Y236840D01*
X615117D01*
Y236865D01*
X615092D01*
Y236890D01*
X615042D01*
Y236915D01*
X615018D01*
Y236940D01*
X614968D01*
Y236964D01*
X614943D01*
Y236989D01*
X614918D01*
Y237014D01*
X614869D01*
Y237039D01*
X614844D01*
Y237064D01*
X614794D01*
Y237088D01*
X614769D01*
Y237113D01*
X614745D01*
Y237138D01*
X614695D01*
Y237163D01*
X614670D01*
Y237188D01*
X614620D01*
Y237212D01*
X614596D01*
Y237237D01*
X623233D01*
Y237188D01*
D02*
G37*
G36*
X597694Y234780D02*
X598141D01*
Y234755D01*
X598612D01*
Y234731D01*
X599034D01*
Y234706D01*
X599456D01*
Y234681D01*
X599828D01*
Y234656D01*
X600176D01*
Y234631D01*
X600449D01*
Y234607D01*
X600647D01*
Y234582D01*
X600747D01*
Y234557D01*
X600846D01*
Y234507D01*
X600821D01*
Y234433D01*
X600796D01*
Y234333D01*
X600772D01*
Y234259D01*
X600747D01*
Y234185D01*
X600722D01*
Y234110D01*
X600697D01*
Y234036D01*
X600672D01*
Y233961D01*
X600647D01*
Y233862D01*
X600623D01*
Y233787D01*
X600598D01*
Y233713D01*
X600573D01*
Y233639D01*
X600548D01*
Y233564D01*
X600523D01*
Y233465D01*
X600498D01*
Y233390D01*
X600474D01*
Y233316D01*
X600449D01*
Y233242D01*
X600424D01*
Y233167D01*
X600399D01*
Y233068D01*
X600374D01*
Y232993D01*
X600350D01*
Y232919D01*
X600325D01*
Y232844D01*
X600300D01*
Y232770D01*
X600275D01*
Y232671D01*
X600250D01*
Y232596D01*
X600225D01*
Y232522D01*
X600201D01*
Y232447D01*
X600176D01*
Y232373D01*
X600151D01*
Y232298D01*
X600126D01*
Y232199D01*
X600101D01*
Y232125D01*
X600076D01*
Y232050D01*
X600052D01*
Y231976D01*
X600027D01*
Y231901D01*
X600002D01*
Y231802D01*
X599977D01*
Y231728D01*
X599952D01*
Y231653D01*
X599928D01*
Y231579D01*
X599903D01*
Y231504D01*
X599878D01*
Y231405D01*
X599853D01*
Y231330D01*
X599828D01*
Y231256D01*
X599803D01*
Y231182D01*
X599779D01*
Y231107D01*
X599754D01*
Y231033D01*
X599729D01*
Y230933D01*
X599704D01*
Y230859D01*
X599679D01*
Y230784D01*
X599655D01*
Y230710D01*
X599630D01*
Y230635D01*
X599605D01*
Y230536D01*
X599580D01*
Y230462D01*
X599555D01*
Y230387D01*
X599531D01*
Y230313D01*
X599506D01*
Y230238D01*
X599481D01*
Y230139D01*
X599456D01*
Y230065D01*
X599431D01*
Y229990D01*
X599406D01*
Y229916D01*
X599382D01*
Y229841D01*
X599357D01*
Y229767D01*
X599332D01*
Y229667D01*
X599307D01*
Y229593D01*
X599282D01*
Y229519D01*
X599258D01*
Y229444D01*
X599233D01*
Y229370D01*
X599208D01*
Y229295D01*
X599183D01*
Y229196D01*
X599158D01*
Y229121D01*
X599133D01*
Y229047D01*
X599109D01*
Y228973D01*
X599084D01*
Y228898D01*
X599059D01*
Y228799D01*
X599034D01*
Y228724D01*
X599009D01*
Y228650D01*
X598984D01*
Y228575D01*
X598960D01*
Y228501D01*
X598935D01*
Y228427D01*
X598910D01*
Y228327D01*
X598885D01*
Y228253D01*
X598860D01*
Y228178D01*
X598836D01*
Y228104D01*
X598811D01*
Y228029D01*
X598786D01*
Y227955D01*
X598761D01*
Y227881D01*
X598736D01*
Y227781D01*
X598711D01*
Y227707D01*
X598687D01*
Y227632D01*
X598662D01*
Y227558D01*
X598637D01*
Y227484D01*
X598612D01*
Y227409D01*
X598587D01*
Y227334D01*
X598563D01*
Y227260D01*
X598538D01*
Y227161D01*
X598513D01*
Y227086D01*
X598488D01*
Y227012D01*
X598463D01*
Y226937D01*
X598439D01*
Y226863D01*
X598414D01*
Y226788D01*
X598389D01*
Y226714D01*
X598364D01*
Y226640D01*
X598339D01*
Y226540D01*
X598314D01*
Y226466D01*
X598290D01*
Y226391D01*
X598265D01*
Y226317D01*
X598240D01*
Y226242D01*
X598215D01*
Y226168D01*
X598190D01*
Y226094D01*
X598166D01*
Y226019D01*
X598141D01*
Y225945D01*
X598116D01*
Y225920D01*
X598091D01*
Y225945D01*
X598066D01*
Y225970D01*
X598017D01*
Y225994D01*
X597967D01*
Y226019D01*
X597942D01*
Y226044D01*
X597893D01*
Y226069D01*
X597868D01*
Y226094D01*
X597818D01*
Y226118D01*
X597793D01*
Y226143D01*
X597744D01*
Y226168D01*
X597719D01*
Y226193D01*
X597669D01*
Y226218D01*
X597644D01*
Y226242D01*
X597595D01*
Y226267D01*
X597570D01*
Y226292D01*
X597520D01*
Y226317D01*
X597495D01*
Y226342D01*
X597446D01*
Y226367D01*
X597396D01*
Y226391D01*
X597371D01*
Y226416D01*
X597322D01*
Y226441D01*
X597297D01*
Y226466D01*
X597247D01*
Y226491D01*
X597222D01*
Y226516D01*
X597173D01*
Y226540D01*
X597148D01*
Y226565D01*
X597098D01*
Y226590D01*
X597073D01*
Y226615D01*
X597024D01*
Y226640D01*
X596999D01*
Y226664D01*
X596949D01*
Y226689D01*
X596924D01*
Y226714D01*
X596875D01*
Y226739D01*
X596850D01*
Y226764D01*
X596800D01*
Y226788D01*
X596776D01*
Y226813D01*
X596726D01*
Y226838D01*
X596701D01*
Y226863D01*
X596652D01*
Y226888D01*
X596627D01*
Y226913D01*
X596577D01*
Y226937D01*
X596552D01*
Y226962D01*
X596503D01*
Y226987D01*
X596478D01*
Y227012D01*
X596428D01*
Y227037D01*
X596403D01*
Y227062D01*
X596354D01*
Y227086D01*
X596329D01*
Y227111D01*
X596279D01*
Y227136D01*
X596254D01*
Y227161D01*
X596205D01*
Y227186D01*
X596180D01*
Y227210D01*
X596130D01*
Y227235D01*
X596081D01*
Y227260D01*
X596056D01*
Y227285D01*
X596006D01*
Y227310D01*
X595981D01*
Y227334D01*
X595932D01*
Y227359D01*
X595907D01*
Y227384D01*
X595857D01*
Y227409D01*
X595832D01*
Y227434D01*
X595783D01*
Y227459D01*
X595758D01*
Y227484D01*
X595708D01*
Y227508D01*
X595684D01*
Y227533D01*
X595634D01*
Y227558D01*
X595609D01*
Y227583D01*
X595560D01*
Y227607D01*
X595535D01*
Y227632D01*
X595485D01*
Y227657D01*
X595460D01*
Y227682D01*
X595411D01*
Y227707D01*
X595386D01*
Y227732D01*
X595336D01*
Y227757D01*
X595311D01*
Y227781D01*
X595262D01*
Y227806D01*
X595237D01*
Y227831D01*
X595187D01*
Y227856D01*
X595162D01*
Y227881D01*
X595113D01*
Y227905D01*
X595088D01*
Y227930D01*
X595038D01*
Y227955D01*
X595014D01*
Y227980D01*
X594964D01*
Y228005D01*
X594939D01*
Y228029D01*
X594889D01*
Y228054D01*
X594865D01*
Y228079D01*
X594815D01*
Y228104D01*
X594790D01*
Y228129D01*
X594740D01*
Y228154D01*
X594716D01*
Y228178D01*
X594666D01*
Y228203D01*
X594641D01*
Y228228D01*
X594592D01*
Y228253D01*
X594567D01*
Y228278D01*
X594517D01*
Y228303D01*
X594492D01*
Y228327D01*
X594443D01*
Y228352D01*
X594418D01*
Y228377D01*
X594368D01*
Y228402D01*
X594343D01*
Y228427D01*
X594294D01*
Y228451D01*
X594269D01*
Y228476D01*
X594219D01*
Y228501D01*
X594194D01*
Y228526D01*
X594145D01*
Y228551D01*
X594120D01*
Y228575D01*
X594070D01*
Y228600D01*
X594045D01*
Y228625D01*
X593996D01*
Y228650D01*
X593971D01*
Y228675D01*
X593921D01*
Y228700D01*
X593897D01*
Y228724D01*
X593847D01*
Y228749D01*
X593822D01*
Y228774D01*
X593773D01*
Y228799D01*
X593748D01*
Y228824D01*
X593698D01*
Y228849D01*
X593673D01*
Y228873D01*
X593624D01*
Y228898D01*
X593599D01*
Y228923D01*
X593549D01*
Y228948D01*
X593524D01*
Y228973D01*
X593475D01*
Y228997D01*
X593450D01*
Y229022D01*
X593400D01*
Y229047D01*
X593375D01*
Y229072D01*
X593326D01*
Y229097D01*
X593301D01*
Y229121D01*
X593276D01*
Y229146D01*
X593226D01*
Y229171D01*
X593202D01*
Y229196D01*
X593152D01*
Y229221D01*
X593127D01*
Y229246D01*
X593078D01*
Y229270D01*
X593053D01*
Y229295D01*
X593003D01*
Y229320D01*
X592978D01*
Y229345D01*
X592929D01*
Y229370D01*
X592904D01*
Y229395D01*
X592854D01*
Y229419D01*
X592829D01*
Y229444D01*
X592780D01*
Y229469D01*
X592755D01*
Y229494D01*
X592705D01*
Y229519D01*
X592681D01*
Y229543D01*
X592631D01*
Y229568D01*
X592606D01*
Y229593D01*
X592556D01*
Y229618D01*
X592532D01*
Y229643D01*
X592482D01*
Y229667D01*
X592457D01*
Y229692D01*
X592407D01*
Y229717D01*
X592383D01*
Y229742D01*
X592333D01*
Y229767D01*
X592308D01*
Y229792D01*
X592259D01*
Y229816D01*
X592234D01*
Y229841D01*
X592184D01*
Y229866D01*
X592159D01*
Y229891D01*
X592110D01*
Y229916D01*
X592085D01*
Y229941D01*
X592035D01*
Y229965D01*
X592010D01*
Y229990D01*
X591961D01*
Y230015D01*
X591936D01*
Y230040D01*
X591886D01*
Y230065D01*
X591861D01*
Y230089D01*
X591812D01*
Y230114D01*
X591787D01*
Y230139D01*
X591737D01*
Y230164D01*
X591713D01*
Y230189D01*
X591663D01*
Y230214D01*
X591638D01*
Y230238D01*
X591588D01*
Y230263D01*
X591564D01*
Y230288D01*
X591514D01*
Y230313D01*
X591489D01*
Y230338D01*
X591439D01*
Y230363D01*
X591415D01*
Y230387D01*
X591390D01*
Y230412D01*
X591340D01*
Y230437D01*
X591315D01*
Y230462D01*
X591266D01*
Y230487D01*
X591241D01*
Y230511D01*
X591191D01*
Y230536D01*
X591166D01*
Y230561D01*
X591117D01*
Y230586D01*
X591092D01*
Y230611D01*
X591042D01*
Y230635D01*
X591018D01*
Y230660D01*
X590968D01*
Y230685D01*
X590943D01*
Y230710D01*
X590894D01*
Y230735D01*
X590869D01*
Y230760D01*
X590819D01*
Y230784D01*
X590794D01*
Y230809D01*
X590745D01*
Y230834D01*
X590720D01*
Y230859D01*
X590670D01*
Y230884D01*
X590645D01*
Y230908D01*
X590596D01*
Y230933D01*
X590571D01*
Y230958D01*
X590521D01*
Y230983D01*
X590496D01*
Y231008D01*
X590447D01*
Y231033D01*
X590422D01*
Y231057D01*
X590372D01*
Y231082D01*
X590347D01*
Y231107D01*
X590298D01*
Y231132D01*
X590273D01*
Y231157D01*
X590248D01*
Y231182D01*
X590199D01*
Y231206D01*
X590174D01*
Y231231D01*
X590124D01*
Y231256D01*
X590099D01*
Y231281D01*
X590050D01*
Y231306D01*
X590025D01*
Y231330D01*
X589975D01*
Y231355D01*
X589950D01*
Y231380D01*
X589901D01*
Y231405D01*
X589876D01*
Y231430D01*
X589826D01*
Y231454D01*
X589802D01*
Y231479D01*
X589752D01*
Y231504D01*
X589727D01*
Y231529D01*
X589677D01*
Y231554D01*
X589653D01*
Y231579D01*
X589603D01*
Y231603D01*
X589578D01*
Y231628D01*
X589553D01*
Y231653D01*
X589504D01*
Y231678D01*
X589479D01*
Y231703D01*
X589429D01*
Y231728D01*
X589404D01*
Y231752D01*
X589355D01*
Y231777D01*
X589330D01*
Y231802D01*
X589280D01*
Y231827D01*
X589255D01*
Y231852D01*
X589206D01*
Y231876D01*
X589181D01*
Y231901D01*
X589131D01*
Y231926D01*
X589107D01*
Y231951D01*
X589057D01*
Y231976D01*
X589032D01*
Y232000D01*
X588982D01*
Y232025D01*
X588958D01*
Y232050D01*
X588933D01*
Y232075D01*
X588883D01*
Y232100D01*
X588858D01*
Y232125D01*
X588809D01*
Y232149D01*
X588784D01*
Y232174D01*
X588734D01*
Y232199D01*
X588709D01*
Y232224D01*
X588660D01*
Y232249D01*
X588635D01*
Y232274D01*
X588610D01*
Y232298D01*
X588560D01*
Y232323D01*
X588536D01*
Y232348D01*
X588486D01*
Y232373D01*
X588461D01*
Y232398D01*
X588436D01*
Y232447D01*
X588461D01*
Y232472D01*
X588511D01*
Y232497D01*
X588610D01*
Y232522D01*
X588709D01*
Y232546D01*
X588784D01*
Y232571D01*
X588883D01*
Y232596D01*
X588982D01*
Y232621D01*
X589057D01*
Y232646D01*
X589156D01*
Y232671D01*
X589255D01*
Y232696D01*
X589355D01*
Y232720D01*
X589429D01*
Y232745D01*
X589529D01*
Y232770D01*
X589628D01*
Y232795D01*
X589702D01*
Y232820D01*
X589802D01*
Y232844D01*
X589901D01*
Y232869D01*
X590000D01*
Y232894D01*
X590099D01*
Y232919D01*
X590174D01*
Y232944D01*
X590273D01*
Y232968D01*
X590372D01*
Y232993D01*
X590472D01*
Y233018D01*
X590546D01*
Y233043D01*
X590645D01*
Y233068D01*
X590745D01*
Y233093D01*
X590844D01*
Y233117D01*
X590918D01*
Y233142D01*
X591018D01*
Y233167D01*
X591117D01*
Y233192D01*
X591216D01*
Y233217D01*
X591315D01*
Y233242D01*
X591390D01*
Y233266D01*
X591489D01*
Y233291D01*
X591588D01*
Y233316D01*
X591688D01*
Y233341D01*
X591762D01*
Y233366D01*
X591861D01*
Y233390D01*
X591961D01*
Y233415D01*
X592060D01*
Y233440D01*
X592159D01*
Y233465D01*
X592234D01*
Y233490D01*
X592333D01*
Y233514D01*
X592432D01*
Y233539D01*
X592532D01*
Y233564D01*
X592606D01*
Y233589D01*
X592705D01*
Y233614D01*
X592805D01*
Y233639D01*
X592904D01*
Y233663D01*
X592978D01*
Y233688D01*
X593078D01*
Y233713D01*
X593177D01*
Y233738D01*
X593276D01*
Y233763D01*
X593375D01*
Y233787D01*
X593450D01*
Y233812D01*
X593549D01*
Y233837D01*
X593648D01*
Y233862D01*
X593748D01*
Y233887D01*
X593847D01*
Y233912D01*
X593921D01*
Y233936D01*
X594021D01*
Y233961D01*
X594120D01*
Y233986D01*
X594219D01*
Y234011D01*
X594318D01*
Y234036D01*
X594393D01*
Y234061D01*
X594492D01*
Y234085D01*
X594592D01*
Y234110D01*
X594691D01*
Y234135D01*
X594765D01*
Y234160D01*
X594865D01*
Y234185D01*
X594964D01*
Y234209D01*
X595063D01*
Y234234D01*
X595162D01*
Y234259D01*
X595237D01*
Y234284D01*
X595336D01*
Y234309D01*
X595435D01*
Y234333D01*
X595535D01*
Y234358D01*
X595634D01*
Y234383D01*
X595708D01*
Y234408D01*
X595808D01*
Y234433D01*
X595907D01*
Y234458D01*
X596006D01*
Y234482D01*
X596081D01*
Y234507D01*
X596180D01*
Y234532D01*
X596279D01*
Y234557D01*
X596379D01*
Y234582D01*
X596478D01*
Y234607D01*
X596552D01*
Y234631D01*
X596652D01*
Y234656D01*
X596751D01*
Y234681D01*
X596850D01*
Y234706D01*
X596949D01*
Y234731D01*
X597024D01*
Y234755D01*
X597123D01*
Y234780D01*
X597222D01*
Y234805D01*
X597694D01*
Y234780D01*
D02*
G37*
G36*
X611915Y236170D02*
X611940D01*
Y236145D01*
X611990D01*
Y236121D01*
X612014D01*
Y236096D01*
X612039D01*
Y236071D01*
X612064D01*
Y236046D01*
X612089D01*
Y236021D01*
X612139D01*
Y235996D01*
X612163D01*
Y235971D01*
X612188D01*
Y235947D01*
X612213D01*
Y235922D01*
X612238D01*
Y235897D01*
X612263D01*
Y235872D01*
X612312D01*
Y235847D01*
X612337D01*
Y235823D01*
X612362D01*
Y235798D01*
X612387D01*
Y235773D01*
X612436D01*
Y235748D01*
X612461D01*
Y235723D01*
X612486D01*
Y235699D01*
X612511D01*
Y235674D01*
X612561D01*
Y235649D01*
X612585D01*
Y235624D01*
X612635D01*
Y235599D01*
X612660D01*
Y235574D01*
X612685D01*
Y235550D01*
X612734D01*
Y235525D01*
X612759D01*
Y235500D01*
X612809D01*
Y235475D01*
X612833D01*
Y235450D01*
X612883D01*
Y235425D01*
X612908D01*
Y235401D01*
X612958D01*
Y235376D01*
X612982D01*
Y235351D01*
X613032D01*
Y235326D01*
X613057D01*
Y235301D01*
X613106D01*
Y235277D01*
X613131D01*
Y235252D01*
X613181D01*
Y235227D01*
X613231D01*
Y235202D01*
X613255D01*
Y235177D01*
X613305D01*
Y235153D01*
X613355D01*
Y235128D01*
X613379D01*
Y235103D01*
X613429D01*
Y235078D01*
X613479D01*
Y235053D01*
X613504D01*
Y235028D01*
X613553D01*
Y235004D01*
X613603D01*
Y234979D01*
X613628D01*
Y234954D01*
X613677D01*
Y234929D01*
X613702D01*
Y234904D01*
X613752D01*
Y234879D01*
X613801D01*
Y234855D01*
X613826D01*
Y234830D01*
X613876D01*
Y234805D01*
X613901D01*
Y234780D01*
X613950D01*
Y234755D01*
X613975D01*
Y234731D01*
X614025D01*
Y234706D01*
X614074D01*
Y234681D01*
X614099D01*
Y234656D01*
X614149D01*
Y234631D01*
X614174D01*
Y234607D01*
X614223D01*
Y234582D01*
X614248D01*
Y234557D01*
X614298D01*
Y234532D01*
X614323D01*
Y234507D01*
X614348D01*
Y234482D01*
X614397D01*
Y234458D01*
X614422D01*
Y234433D01*
X614472D01*
Y234408D01*
X614496D01*
Y234383D01*
X614546D01*
Y234358D01*
X614571D01*
Y234333D01*
X614596D01*
Y234309D01*
X614645D01*
Y234284D01*
X614670D01*
Y234259D01*
X614695D01*
Y234234D01*
X614745D01*
Y234209D01*
X614769D01*
Y234185D01*
X614819D01*
Y234160D01*
X614844D01*
Y234135D01*
X614869D01*
Y234110D01*
X614918D01*
Y234085D01*
X614943D01*
Y234061D01*
X614968D01*
Y234036D01*
X614993D01*
Y234011D01*
X615042D01*
Y233986D01*
X615067D01*
Y233961D01*
X615092D01*
Y233936D01*
X615142D01*
Y233912D01*
X615167D01*
Y233887D01*
X615191D01*
Y233862D01*
X615216D01*
Y233837D01*
X615266D01*
Y233812D01*
X615291D01*
Y233787D01*
X615315D01*
Y233763D01*
X615340D01*
Y233738D01*
X615365D01*
Y233713D01*
X615415D01*
Y233688D01*
X615440D01*
Y233663D01*
X615464D01*
Y233639D01*
X615489D01*
Y233614D01*
X615514D01*
Y233589D01*
X615564D01*
Y233564D01*
X615588D01*
Y233539D01*
X615613D01*
Y233514D01*
X615638D01*
Y233490D01*
X615663D01*
Y233465D01*
X615688D01*
Y233440D01*
X615737D01*
Y233415D01*
X615762D01*
Y233390D01*
X615787D01*
Y233366D01*
X615812D01*
Y233341D01*
X615837D01*
Y233316D01*
X615861D01*
Y233291D01*
X615886D01*
Y233266D01*
X615911D01*
Y233242D01*
X615936D01*
Y233217D01*
X615985D01*
Y233192D01*
X616010D01*
Y233167D01*
X616035D01*
Y233142D01*
X616060D01*
Y233117D01*
X616085D01*
Y233093D01*
X616110D01*
Y233068D01*
X616134D01*
Y233043D01*
X616159D01*
Y233018D01*
X616184D01*
Y232993D01*
X616209D01*
Y232968D01*
X616234D01*
Y232944D01*
X616258D01*
Y232919D01*
X616283D01*
Y232894D01*
X616308D01*
Y232869D01*
X616333D01*
Y232844D01*
X616358D01*
Y232820D01*
X616383D01*
Y232795D01*
X616407D01*
Y232770D01*
X616432D01*
Y232745D01*
X616457D01*
Y232720D01*
X616482D01*
Y232696D01*
X616507D01*
Y232671D01*
X616532D01*
Y232646D01*
X616556D01*
Y232621D01*
X616581D01*
Y232596D01*
X616606D01*
Y232571D01*
X616631D01*
Y232546D01*
X616656D01*
Y232522D01*
X616680D01*
Y232497D01*
X616705D01*
Y232472D01*
X616730D01*
Y232447D01*
X616755D01*
Y232422D01*
X616780D01*
Y232398D01*
X616805D01*
Y232348D01*
X616829D01*
Y232323D01*
X616854D01*
Y232298D01*
X616879D01*
Y232274D01*
X616904D01*
Y232249D01*
X616929D01*
Y232224D01*
X616953D01*
Y232199D01*
X616978D01*
Y232174D01*
X617003D01*
Y232149D01*
X617028D01*
Y232100D01*
X617053D01*
Y232075D01*
X617077D01*
Y232050D01*
X617102D01*
Y232025D01*
X617127D01*
Y232000D01*
X617152D01*
Y231976D01*
X617177D01*
Y231926D01*
X617202D01*
Y231901D01*
X617227D01*
Y231876D01*
X617251D01*
Y231852D01*
X617276D01*
Y231827D01*
X617301D01*
Y231777D01*
X617326D01*
Y231752D01*
X617351D01*
Y231728D01*
X617375D01*
Y231703D01*
X617400D01*
Y231653D01*
X617425D01*
Y231628D01*
X617450D01*
Y231603D01*
X617475D01*
Y231579D01*
X617499D01*
Y231529D01*
X617524D01*
Y231504D01*
X617549D01*
Y231479D01*
X617574D01*
Y231430D01*
X617599D01*
Y231405D01*
X617624D01*
Y231380D01*
X617648D01*
Y231330D01*
X617673D01*
Y231306D01*
X617698D01*
Y231281D01*
X617723D01*
Y231231D01*
X617748D01*
Y231206D01*
X617772D01*
Y231157D01*
X617797D01*
Y231132D01*
X617822D01*
Y231107D01*
X617847D01*
Y231057D01*
X617872D01*
Y231033D01*
X617897D01*
Y230983D01*
X617921D01*
Y230958D01*
X617946D01*
Y230908D01*
X617971D01*
Y230884D01*
X617996D01*
Y230859D01*
X618021D01*
Y230809D01*
X618046D01*
Y230784D01*
X618070D01*
Y230735D01*
X618095D01*
Y230685D01*
X618120D01*
Y230660D01*
X618145D01*
Y230611D01*
X618170D01*
Y230586D01*
X618194D01*
Y230536D01*
X618219D01*
Y230511D01*
X618244D01*
Y230462D01*
X618269D01*
Y230412D01*
X618294D01*
Y230387D01*
X618319D01*
Y230338D01*
X618343D01*
Y230288D01*
X618368D01*
Y230263D01*
X618393D01*
Y230214D01*
X618418D01*
Y230164D01*
X618443D01*
Y230139D01*
X618467D01*
Y230089D01*
X618492D01*
Y230040D01*
X618517D01*
Y229990D01*
X618542D01*
Y229941D01*
X618567D01*
Y229916D01*
X618591D01*
Y229866D01*
X618616D01*
Y229816D01*
X618641D01*
Y229767D01*
X618666D01*
Y229717D01*
X618691D01*
Y229667D01*
X618716D01*
Y229618D01*
X618740D01*
Y229568D01*
X618765D01*
Y229519D01*
X618790D01*
Y229469D01*
X618815D01*
Y229419D01*
X618840D01*
Y229370D01*
X618864D01*
Y229320D01*
X618889D01*
Y229270D01*
X618914D01*
Y229221D01*
X618939D01*
Y229146D01*
X618964D01*
Y229097D01*
X618989D01*
Y229047D01*
X619013D01*
Y228997D01*
X619038D01*
Y228923D01*
X619063D01*
Y228873D01*
X619088D01*
Y228824D01*
X619113D01*
Y228749D01*
X619137D01*
Y228675D01*
X619162D01*
Y228625D01*
X619187D01*
Y228551D01*
X619212D01*
Y228501D01*
X619237D01*
Y228427D01*
X619262D01*
Y228352D01*
X619286D01*
Y228278D01*
X619311D01*
Y228228D01*
X619336D01*
Y228154D01*
X619361D01*
Y228079D01*
X619386D01*
Y228005D01*
X619411D01*
Y227905D01*
X619435D01*
Y227831D01*
X619460D01*
Y227757D01*
X619485D01*
Y227657D01*
X619510D01*
Y227558D01*
X619535D01*
Y227484D01*
X619559D01*
Y227384D01*
X619584D01*
Y227285D01*
X619609D01*
Y227186D01*
X619634D01*
Y227086D01*
X619659D01*
Y226987D01*
X619684D01*
Y226863D01*
X619708D01*
Y226764D01*
X619733D01*
Y226615D01*
X619758D01*
Y226441D01*
X619733D01*
Y226416D01*
X619634D01*
Y226391D01*
X619535D01*
Y226367D01*
X619411D01*
Y226342D01*
X619311D01*
Y226317D01*
X619187D01*
Y226292D01*
X619063D01*
Y226267D01*
X618964D01*
Y226242D01*
X618840D01*
Y226218D01*
X618740D01*
Y226193D01*
X618616D01*
Y226168D01*
X618492D01*
Y226143D01*
X618393D01*
Y226118D01*
X618269D01*
Y226094D01*
X618145D01*
Y226069D01*
X618021D01*
Y226044D01*
X617921D01*
Y226019D01*
X617797D01*
Y225994D01*
X617673D01*
Y225970D01*
X617574D01*
Y225945D01*
X617450D01*
Y225920D01*
X617326D01*
Y225895D01*
X617202D01*
Y225870D01*
X617102D01*
Y225845D01*
X616978D01*
Y225821D01*
X616854D01*
Y225796D01*
X616730D01*
Y225771D01*
X616631D01*
Y225746D01*
X616507D01*
Y225721D01*
X616383D01*
Y225696D01*
X616283D01*
Y225672D01*
X616159D01*
Y225647D01*
X616035D01*
Y225622D01*
X615911D01*
Y225597D01*
X615812D01*
Y225572D01*
X615688D01*
Y225548D01*
X615564D01*
Y225523D01*
X615464D01*
Y225498D01*
X615340D01*
Y225473D01*
X615216D01*
Y225448D01*
X615092D01*
Y225424D01*
X614993D01*
Y225399D01*
X614869D01*
Y225374D01*
X614745D01*
Y225349D01*
X614620D01*
Y225324D01*
X614521D01*
Y225299D01*
X614397D01*
Y225275D01*
X614273D01*
Y225250D01*
X614149D01*
Y225225D01*
X614050D01*
Y225200D01*
X613926D01*
Y225175D01*
X613801D01*
Y225150D01*
X613702D01*
Y225126D01*
X613578D01*
Y225101D01*
X613454D01*
Y225076D01*
X613355D01*
Y225051D01*
X613231D01*
Y225026D01*
X613106D01*
Y225002D01*
X613007D01*
Y224977D01*
X612883D01*
Y224952D01*
X612759D01*
Y224927D01*
X612660D01*
Y224902D01*
X612536D01*
Y224878D01*
X612511D01*
Y224902D01*
X612486D01*
Y224927D01*
X612461D01*
Y224952D01*
X612436D01*
Y225002D01*
X612412D01*
Y225051D01*
X612387D01*
Y225101D01*
X612362D01*
Y225150D01*
X612337D01*
Y225200D01*
X612312D01*
Y225250D01*
X612288D01*
Y225299D01*
X612263D01*
Y225374D01*
X612238D01*
Y225424D01*
X612213D01*
Y225473D01*
X612188D01*
Y225548D01*
X612163D01*
Y225597D01*
X612139D01*
Y225672D01*
X612114D01*
Y225721D01*
X612089D01*
Y225796D01*
X612064D01*
Y225845D01*
X612039D01*
Y225920D01*
X612014D01*
Y225970D01*
X611990D01*
Y226044D01*
X611965D01*
Y226094D01*
X611940D01*
Y226168D01*
X611915D01*
Y226242D01*
X611890D01*
Y226292D01*
X611866D01*
Y226367D01*
X611841D01*
Y226416D01*
X611816D01*
Y226491D01*
X611791D01*
Y226540D01*
X611766D01*
Y226615D01*
X611741D01*
Y226689D01*
X611717D01*
Y226739D01*
X611692D01*
Y226813D01*
X611667D01*
Y226863D01*
X611642D01*
Y226937D01*
X611617D01*
Y227012D01*
X611592D01*
Y227062D01*
X611568D01*
Y227136D01*
X611543D01*
Y227210D01*
X611518D01*
Y227260D01*
X611493D01*
Y227334D01*
X611468D01*
Y227409D01*
X611444D01*
Y227459D01*
X611419D01*
Y227533D01*
X611394D01*
Y227607D01*
X611369D01*
Y227657D01*
X611344D01*
Y227732D01*
X611319D01*
Y227806D01*
X611295D01*
Y227856D01*
X611270D01*
Y227930D01*
X611245D01*
Y228005D01*
X611220D01*
Y228054D01*
X611195D01*
Y228129D01*
X611171D01*
Y228203D01*
X611146D01*
Y228253D01*
X611121D01*
Y228327D01*
X611096D01*
Y228402D01*
X611071D01*
Y228451D01*
X611047D01*
Y228526D01*
X611022D01*
Y228600D01*
X610997D01*
Y228675D01*
X610972D01*
Y228724D01*
X610947D01*
Y228799D01*
X610922D01*
Y228873D01*
X610898D01*
Y228948D01*
X610873D01*
Y228997D01*
X610848D01*
Y229072D01*
X610823D01*
Y229146D01*
X610798D01*
Y229196D01*
X610774D01*
Y229270D01*
X610749D01*
Y229345D01*
X610724D01*
Y229419D01*
X610699D01*
Y229494D01*
X610674D01*
Y229543D01*
X610649D01*
Y229618D01*
X610625D01*
Y229692D01*
X610600D01*
Y229767D01*
X610575D01*
Y229816D01*
X610550D01*
Y229891D01*
X610525D01*
Y229965D01*
X610500D01*
Y230040D01*
X610476D01*
Y230114D01*
X610451D01*
Y230164D01*
X610426D01*
Y230238D01*
X610401D01*
Y230313D01*
X610376D01*
Y230387D01*
X610352D01*
Y230462D01*
X610327D01*
Y230536D01*
X610302D01*
Y230586D01*
X610277D01*
Y230660D01*
X610252D01*
Y230735D01*
X610227D01*
Y230809D01*
X610203D01*
Y230884D01*
X610178D01*
Y230958D01*
X610153D01*
Y231008D01*
X610128D01*
Y231082D01*
X610103D01*
Y231157D01*
X610079D01*
Y231231D01*
X610054D01*
Y231306D01*
X610029D01*
Y231380D01*
X610004D01*
Y231454D01*
X609979D01*
Y231529D01*
X609954D01*
Y231603D01*
X609930D01*
Y231653D01*
X609905D01*
Y231728D01*
X609880D01*
Y231802D01*
X609855D01*
Y231876D01*
X609830D01*
Y231951D01*
X609806D01*
Y232025D01*
X609781D01*
Y232100D01*
X609756D01*
Y232174D01*
X609731D01*
Y232249D01*
X609706D01*
Y232323D01*
X609682D01*
Y232398D01*
X609657D01*
Y232472D01*
X609632D01*
Y232546D01*
X609607D01*
Y232621D01*
X609582D01*
Y232696D01*
X609557D01*
Y232770D01*
X609533D01*
Y232844D01*
X609508D01*
Y232919D01*
X609483D01*
Y232993D01*
X609458D01*
Y233093D01*
X609433D01*
Y233167D01*
X609409D01*
Y233242D01*
X609384D01*
Y233316D01*
X609359D01*
Y233390D01*
X609334D01*
Y233465D01*
X609309D01*
Y233539D01*
X609284D01*
Y233614D01*
X609260D01*
Y233688D01*
X609235D01*
Y233763D01*
X609210D01*
Y233837D01*
X609185D01*
Y233936D01*
X609160D01*
Y234011D01*
X609135D01*
Y234085D01*
X609111D01*
Y234160D01*
X609086D01*
Y234234D01*
X609061D01*
Y234309D01*
X609036D01*
Y234358D01*
X609011D01*
Y234433D01*
X608987D01*
Y234507D01*
X608962D01*
Y234557D01*
X608937D01*
Y234631D01*
X608912D01*
Y234706D01*
X608887D01*
Y234755D01*
X608862D01*
Y234830D01*
X608838D01*
Y234904D01*
X608813D01*
Y234929D01*
X608838D01*
Y234954D01*
X608912D01*
Y234979D01*
X608987D01*
Y235004D01*
X609086D01*
Y235028D01*
X609160D01*
Y235053D01*
X609235D01*
Y235078D01*
X609309D01*
Y235103D01*
X609384D01*
Y235128D01*
X609483D01*
Y235153D01*
X609557D01*
Y235177D01*
X609632D01*
Y235202D01*
X609706D01*
Y235227D01*
X609781D01*
Y235252D01*
X609855D01*
Y235277D01*
X609930D01*
Y235301D01*
X610004D01*
Y235326D01*
X610079D01*
Y235351D01*
X610128D01*
Y235376D01*
X610203D01*
Y235401D01*
X610277D01*
Y235425D01*
X610327D01*
Y235450D01*
X610401D01*
Y235475D01*
X610451D01*
Y235500D01*
X610525D01*
Y235525D01*
X610575D01*
Y235550D01*
X610625D01*
Y235574D01*
X610699D01*
Y235599D01*
X610749D01*
Y235624D01*
X610798D01*
Y235649D01*
X610848D01*
Y235674D01*
X610922D01*
Y235699D01*
X610972D01*
Y235723D01*
X611022D01*
Y235748D01*
X611071D01*
Y235773D01*
X611121D01*
Y235798D01*
X611171D01*
Y235823D01*
X611220D01*
Y235847D01*
X611270D01*
Y235872D01*
X611319D01*
Y235897D01*
X611344D01*
Y235922D01*
X611394D01*
Y235947D01*
X611444D01*
Y235971D01*
X611493D01*
Y235996D01*
X611543D01*
Y236021D01*
X611592D01*
Y236046D01*
X611617D01*
Y236071D01*
X611667D01*
Y236096D01*
X611717D01*
Y236121D01*
X611766D01*
Y236145D01*
X611816D01*
Y236170D01*
X611866D01*
Y236195D01*
X611915D01*
Y236170D01*
D02*
G37*
G36*
X604991Y234557D02*
X605016D01*
Y234482D01*
X605040D01*
Y234408D01*
X605065D01*
Y234333D01*
X605090D01*
Y234259D01*
X605115D01*
Y234185D01*
X605140D01*
Y234110D01*
X605164D01*
Y234036D01*
X605189D01*
Y233961D01*
X605214D01*
Y233887D01*
X605239D01*
Y233837D01*
X605264D01*
Y233763D01*
X605289D01*
Y233688D01*
X605313D01*
Y233614D01*
X605338D01*
Y233539D01*
X605363D01*
Y233465D01*
X605388D01*
Y233390D01*
X605413D01*
Y233316D01*
X605437D01*
Y233242D01*
X605462D01*
Y233167D01*
X605487D01*
Y233093D01*
X605512D01*
Y233018D01*
X605537D01*
Y232944D01*
X605561D01*
Y232869D01*
X605586D01*
Y232795D01*
X605611D01*
Y232720D01*
X605636D01*
Y232646D01*
X605661D01*
Y232571D01*
X605686D01*
Y232497D01*
X605710D01*
Y232422D01*
X605735D01*
Y232348D01*
X605760D01*
Y232274D01*
X605785D01*
Y232224D01*
X605810D01*
Y232149D01*
X605834D01*
Y232075D01*
X605859D01*
Y232000D01*
X605884D01*
Y231926D01*
X605909D01*
Y231852D01*
X605934D01*
Y231777D01*
X605959D01*
Y231703D01*
X605983D01*
Y231628D01*
X606008D01*
Y231554D01*
X606033D01*
Y231479D01*
X606058D01*
Y231405D01*
X606083D01*
Y231330D01*
X606108D01*
Y231256D01*
X606132D01*
Y231182D01*
X606157D01*
Y231107D01*
X606182D01*
Y231033D01*
X606207D01*
Y230958D01*
X606232D01*
Y230884D01*
X606256D01*
Y230809D01*
X606281D01*
Y230735D01*
X606306D01*
Y230660D01*
X606331D01*
Y230586D01*
X606356D01*
Y230511D01*
X606381D01*
Y230437D01*
X606405D01*
Y230363D01*
X606430D01*
Y230288D01*
X606455D01*
Y230214D01*
X606480D01*
Y230139D01*
X606505D01*
Y230065D01*
X606530D01*
Y229990D01*
X606554D01*
Y229916D01*
X606579D01*
Y229841D01*
X606604D01*
Y229767D01*
X606629D01*
Y229692D01*
X606653D01*
Y229618D01*
X606678D01*
Y229543D01*
X606703D01*
Y229469D01*
X606728D01*
Y229395D01*
X606753D01*
Y229320D01*
X606778D01*
Y229246D01*
X606803D01*
Y229171D01*
X606827D01*
Y229097D01*
X606852D01*
Y229022D01*
X606877D01*
Y228948D01*
X606902D01*
Y228873D01*
X606927D01*
Y228799D01*
X606951D01*
Y228724D01*
X606976D01*
Y228650D01*
X607001D01*
Y228575D01*
X607026D01*
Y228501D01*
X607051D01*
Y228427D01*
X607076D01*
Y228352D01*
X607100D01*
Y228278D01*
X607125D01*
Y228203D01*
X607150D01*
Y228129D01*
X607175D01*
Y228054D01*
X607200D01*
Y227980D01*
X607224D01*
Y227905D01*
X607249D01*
Y227831D01*
X607274D01*
Y227757D01*
X607299D01*
Y227682D01*
X607324D01*
Y227607D01*
X607348D01*
Y227533D01*
X607373D01*
Y227459D01*
X607398D01*
Y227384D01*
X607423D01*
Y227310D01*
X607448D01*
Y227235D01*
X607473D01*
Y227161D01*
X607497D01*
Y227086D01*
X607522D01*
Y227012D01*
X607547D01*
Y226937D01*
X607572D01*
Y226863D01*
X607597D01*
Y226788D01*
X607621D01*
Y226714D01*
X607646D01*
Y226640D01*
X607671D01*
Y226565D01*
X607696D01*
Y226491D01*
X607721D01*
Y226416D01*
X607746D01*
Y226342D01*
X607770D01*
Y226267D01*
X607795D01*
Y226193D01*
X607820D01*
Y226118D01*
X607845D01*
Y226044D01*
X607870D01*
Y225970D01*
X607895D01*
Y225895D01*
X607919D01*
Y225821D01*
X607944D01*
Y225746D01*
X607969D01*
Y225647D01*
X607994D01*
Y225572D01*
X608019D01*
Y225473D01*
X607994D01*
Y225424D01*
X607969D01*
Y225399D01*
X607944D01*
Y225349D01*
X607919D01*
Y225324D01*
X607895D01*
Y225299D01*
X607870D01*
Y225250D01*
X607845D01*
Y225225D01*
X607820D01*
Y225200D01*
X607795D01*
Y225150D01*
X607770D01*
Y225126D01*
X607746D01*
Y225101D01*
X607721D01*
Y225051D01*
X607696D01*
Y225026D01*
X607671D01*
Y225002D01*
X607646D01*
Y224977D01*
X607621D01*
Y224927D01*
X607597D01*
Y224902D01*
X607572D01*
Y224878D01*
X607547D01*
Y224828D01*
X607522D01*
Y224803D01*
X607497D01*
Y224778D01*
X607473D01*
Y224753D01*
X607448D01*
Y224704D01*
X607423D01*
Y224679D01*
X607398D01*
Y224654D01*
X607373D01*
Y224629D01*
X607348D01*
Y224605D01*
X607324D01*
Y224555D01*
X607299D01*
Y224530D01*
X607274D01*
Y224505D01*
X607249D01*
Y224480D01*
X607224D01*
Y224431D01*
X607200D01*
Y224406D01*
X607175D01*
Y224381D01*
X607150D01*
Y224356D01*
X607125D01*
Y224331D01*
X607100D01*
Y224307D01*
X607076D01*
Y224257D01*
X607051D01*
Y224232D01*
X607026D01*
Y224207D01*
X607001D01*
Y224183D01*
X606976D01*
Y224158D01*
X606951D01*
Y224133D01*
X606927D01*
Y224108D01*
X606902D01*
Y224083D01*
X606877D01*
Y224058D01*
X606852D01*
Y224034D01*
X606827D01*
Y224009D01*
X606803D01*
Y223984D01*
X606778D01*
Y223959D01*
X606728D01*
Y223934D01*
X606554D01*
Y223959D01*
X606430D01*
Y223984D01*
X606306D01*
Y224009D01*
X606207D01*
Y224034D01*
X606083D01*
Y224058D01*
X605959D01*
Y224083D01*
X605834D01*
Y224108D01*
X605735D01*
Y224133D01*
X605611D01*
Y224158D01*
X605487D01*
Y224183D01*
X605388D01*
Y224207D01*
X605264D01*
Y224232D01*
X605140D01*
Y224257D01*
X605016D01*
Y224282D01*
X604891D01*
Y224307D01*
X604767D01*
Y224331D01*
X604668D01*
Y224356D01*
X604544D01*
Y224381D01*
X604420D01*
Y224406D01*
X604296D01*
Y224431D01*
X604172D01*
Y224455D01*
X604072D01*
Y224480D01*
X603948D01*
Y224505D01*
X603824D01*
Y224530D01*
X603700D01*
Y224555D01*
X603576D01*
Y224580D01*
X603452D01*
Y224605D01*
X603353D01*
Y224629D01*
X603229D01*
Y224654D01*
X603104D01*
Y224679D01*
X602980D01*
Y224704D01*
X602856D01*
Y224729D01*
X602732D01*
Y224753D01*
X602633D01*
Y224778D01*
X602509D01*
Y224803D01*
X602385D01*
Y224828D01*
X602261D01*
Y224853D01*
X602137D01*
Y224878D01*
X602037D01*
Y224902D01*
X601913D01*
Y224927D01*
X601789D01*
Y224952D01*
X601665D01*
Y224977D01*
X601541D01*
Y225002D01*
X601442D01*
Y225026D01*
X601318D01*
Y225051D01*
X601193D01*
Y225076D01*
X601069D01*
Y225101D01*
X600970D01*
Y225126D01*
X600846D01*
Y225150D01*
X600722D01*
Y225175D01*
X600598D01*
Y225200D01*
X600498D01*
Y225225D01*
X600374D01*
Y225250D01*
X600250D01*
Y225275D01*
X600151D01*
Y225299D01*
X600027D01*
Y225324D01*
X599903D01*
Y225349D01*
X599803D01*
Y225374D01*
X599679D01*
Y225399D01*
X599580D01*
Y225424D01*
X599456D01*
Y225448D01*
X599357D01*
Y225473D01*
X599233D01*
Y225498D01*
X599109D01*
Y225523D01*
X599009D01*
Y225548D01*
X598910D01*
Y225572D01*
X598811D01*
Y225721D01*
X598836D01*
Y225845D01*
X598860D01*
Y225945D01*
X598885D01*
Y226019D01*
X598910D01*
Y226094D01*
X598935D01*
Y226168D01*
X598960D01*
Y226267D01*
X598984D01*
Y226342D01*
X599009D01*
Y226416D01*
X599034D01*
Y226491D01*
X599059D01*
Y226565D01*
X599084D01*
Y226664D01*
X599109D01*
Y226739D01*
X599133D01*
Y226813D01*
X599158D01*
Y226888D01*
X599183D01*
Y226962D01*
X599208D01*
Y227062D01*
X599233D01*
Y227136D01*
X599258D01*
Y227210D01*
X599282D01*
Y227285D01*
X599307D01*
Y227359D01*
X599332D01*
Y227459D01*
X599357D01*
Y227533D01*
X599382D01*
Y227607D01*
X599406D01*
Y227682D01*
X599431D01*
Y227757D01*
X599456D01*
Y227856D01*
X599481D01*
Y227930D01*
X599506D01*
Y228005D01*
X599531D01*
Y228079D01*
X599555D01*
Y228154D01*
X599580D01*
Y228253D01*
X599605D01*
Y228327D01*
X599630D01*
Y228402D01*
X599655D01*
Y228476D01*
X599679D01*
Y228551D01*
X599704D01*
Y228650D01*
X599729D01*
Y228724D01*
X599754D01*
Y228799D01*
X599779D01*
Y228873D01*
X599803D01*
Y228948D01*
X599828D01*
Y229022D01*
X599853D01*
Y229121D01*
X599878D01*
Y229196D01*
X599903D01*
Y229270D01*
X599928D01*
Y229345D01*
X599952D01*
Y229444D01*
X599977D01*
Y229519D01*
X600002D01*
Y229593D01*
X600027D01*
Y229667D01*
X600052D01*
Y229742D01*
X600076D01*
Y229816D01*
X600101D01*
Y229916D01*
X600126D01*
Y229990D01*
X600151D01*
Y230065D01*
X600176D01*
Y230139D01*
X600201D01*
Y230214D01*
X600225D01*
Y230313D01*
X600250D01*
Y230387D01*
X600275D01*
Y230462D01*
X600300D01*
Y230536D01*
X600325D01*
Y230611D01*
X600350D01*
Y230710D01*
X600374D01*
Y230784D01*
X600399D01*
Y230859D01*
X600424D01*
Y230933D01*
X600449D01*
Y231008D01*
X600474D01*
Y231082D01*
X600498D01*
Y231182D01*
X600523D01*
Y231256D01*
X600548D01*
Y231330D01*
X600573D01*
Y231405D01*
X600598D01*
Y231479D01*
X600623D01*
Y231579D01*
X600647D01*
Y231653D01*
X600672D01*
Y231728D01*
X600697D01*
Y231802D01*
X600722D01*
Y231876D01*
X600747D01*
Y231976D01*
X600772D01*
Y232050D01*
X600796D01*
Y232125D01*
X600821D01*
Y232199D01*
X600846D01*
Y232274D01*
X600871D01*
Y232373D01*
X600896D01*
Y232447D01*
X600920D01*
Y232522D01*
X600945D01*
Y232596D01*
X600970D01*
Y232671D01*
X600995D01*
Y232745D01*
X601020D01*
Y232844D01*
X601044D01*
Y232919D01*
X601069D01*
Y232993D01*
X601094D01*
Y233068D01*
X601119D01*
Y233142D01*
X601144D01*
Y233242D01*
X601169D01*
Y233316D01*
X601193D01*
Y233390D01*
X601218D01*
Y233465D01*
X601243D01*
Y233539D01*
X601268D01*
Y233639D01*
X601293D01*
Y233713D01*
X601318D01*
Y233787D01*
X601342D01*
Y233862D01*
X601367D01*
Y233936D01*
X601392D01*
Y234011D01*
X601417D01*
Y234110D01*
X601442D01*
Y234185D01*
X601466D01*
Y234259D01*
X601491D01*
Y234333D01*
X601516D01*
Y234408D01*
X601541D01*
Y234507D01*
X601566D01*
Y234582D01*
X604991D01*
Y234557D01*
D02*
G37*
G54D10*
X539484Y232909D02*
X539040Y233833D01*
X538040Y234061D01*
X537239Y233422D01*
Y232397D01*
X538040Y231758D01*
X539040Y231986D01*
X539484Y232909D01*
G54D11*
X530921Y236157D02*
X530183Y236584D01*
Y235731D01*
X530921Y236157D01*
G54D12*
X534366Y200626D02*
X570587D01*
X534366Y236846D02*
X570587D01*
Y200626D02*
Y236846D01*
X534366Y200626D02*
Y236846D01*
X610252Y191568D02*
X625606D01*
X610252Y220717D02*
X625606D01*
X610252Y210717D02*
Y211568D01*
Y200717D02*
Y201568D01*
G54D13*
X577906Y215488D02*
X588142D01*
X577906D02*
Y226512D01*
X588142D01*
Y215488D02*
Y226512D01*
X581055Y212339D02*
Y214701D01*
X584598Y213520D01*
X581055Y212339D02*
X584598Y213520D01*
X577906D02*
X581055Y213520D01*
X584598Y213520D02*
X588142D01*
X582630Y213126D02*
Y213913D01*
X584598Y213520D01*
X582630Y213126D02*
X584598Y213520D01*
X581055Y213520D02*
X582630Y213126D01*
X581055Y213520D02*
X582630Y213913D01*
X580268Y213520D02*
X584598D01*
X581055Y212339D02*
X582827Y214110D01*
X581055Y214701D02*
X582827Y214110D01*
X581055Y214701D02*
X582827Y212929D01*
X582236Y212732D02*
X582827Y212929D01*
X581055Y214701D02*
X582236Y212732D01*
X581055Y214701D02*
X582236Y214307D01*
X581055Y212339D02*
X582236Y214307D01*
X506000Y215565D02*
Y213815D01*
X506583Y213232D01*
X508333D01*
Y215565D01*
X509499Y213232D02*
X511248D01*
X511832Y213815D01*
X511248Y214399D01*
X510082D01*
X509499Y214982D01*
X510082Y215565D01*
X511832D01*
X512998Y216731D02*
Y213232D01*
X514747D01*
X515330Y213815D01*
Y214399D01*
Y214982D01*
X514747Y215565D01*
X512998D01*
X514499Y251935D02*
X514000Y252434D01*
X513000D01*
X512500Y251935D01*
Y249935D01*
X513000Y249435D01*
X514000D01*
X514499Y249935D01*
Y250935D01*
X513500D01*
X515499Y249435D02*
Y252434D01*
X517498Y249435D01*
Y252434D01*
X518498D02*
Y249435D01*
X519998D01*
X520497Y249935D01*
Y251935D01*
X519998Y252434D01*
X518498D01*
X490000Y247933D02*
Y244434D01*
X491749D01*
X492333Y245018D01*
Y245601D01*
Y246184D01*
X491749Y246767D01*
X490000D01*
X494082D02*
X495248D01*
X495831Y246184D01*
Y244434D01*
X494082D01*
X493499Y245018D01*
X494082Y245601D01*
X495831D01*
X497581Y247350D02*
Y246767D01*
X496998D01*
X498164D01*
X497581D01*
Y245018D01*
X498164Y244434D01*
X500497Y247350D02*
Y246767D01*
X499914D01*
X501080D01*
X500497D01*
Y245018D01*
X501080Y244434D01*
X582524Y189231D02*
Y186899D01*
Y188065D01*
X583107Y188648D01*
X583690Y189231D01*
X584273D01*
X586606Y186899D02*
X587772D01*
X588355Y187482D01*
Y188648D01*
X587772Y189231D01*
X586606D01*
X586023Y188648D01*
Y187482D01*
X586606Y186899D01*
X589521Y190398D02*
Y186899D01*
X591271D01*
X591854Y187482D01*
Y188065D01*
Y188648D01*
X591271Y189231D01*
X589521D01*
X593603Y186899D02*
X594770D01*
X595353Y187482D01*
Y188648D01*
X594770Y189231D01*
X593603D01*
X593020Y188648D01*
Y187482D01*
X593603Y186899D01*
X597102Y189814D02*
Y189231D01*
X596519D01*
X597685D01*
X597102D01*
Y187482D01*
X597685Y186899D01*
X599435Y188648D02*
X601767D01*
X605266Y189231D02*
X603517D01*
X602934Y188648D01*
Y187482D01*
X603517Y186899D01*
X605266D01*
X607016D02*
X608182D01*
X608765Y187482D01*
Y188648D01*
X608182Y189231D01*
X607016D01*
X606433Y188648D01*
Y187482D01*
X607016Y186899D01*
X609931Y189231D02*
Y186899D01*
Y188065D01*
X610515Y188648D01*
X611098Y189231D01*
X611681D01*
X614013Y189814D02*
Y189231D01*
X613430D01*
X614597D01*
X614013D01*
Y187482D01*
X614597Y186899D01*
X618095D02*
X616929D01*
X616346Y187482D01*
Y188648D01*
X616929Y189231D01*
X618095D01*
X618679Y188648D01*
Y188065D01*
X616346D01*
X619845Y189231D02*
X622178Y186899D01*
X621011Y188065D01*
X622178Y189231D01*
X619845Y186899D01*
X582524Y183833D02*
X583690Y181500D01*
X584856Y183833D01*
X586023Y181500D02*
X587189D01*
X586606D01*
Y184999D01*
X586023Y184416D01*
X588938Y183249D02*
X591271D01*
X592437Y183833D02*
Y181500D01*
Y182666D01*
X593020Y183249D01*
X593603Y183833D01*
X594186D01*
X595936Y181500D02*
X597102D01*
X596519D01*
Y184999D01*
X595936Y184416D01*
X527500Y252084D02*
X528000Y252583D01*
X529000D01*
X529499Y252084D01*
Y251584D01*
X529000Y251084D01*
X528500D01*
X529000D01*
X529499Y250584D01*
Y250084D01*
X529000Y249584D01*
X528000D01*
X527500Y250084D01*
X530499Y249584D02*
Y250084D01*
X530999D01*
Y249584D01*
X530499D01*
X532998Y252084D02*
X533498Y252583D01*
X534498D01*
X534998Y252084D01*
Y251584D01*
X534498Y251084D01*
X533998D01*
X534498D01*
X534998Y250584D01*
Y250084D01*
X534498Y249584D01*
X533498D01*
X532998Y250084D01*
X564999Y252034D02*
X564500Y252534D01*
X563500D01*
X563000Y252034D01*
Y251534D01*
X563500Y251034D01*
X564500D01*
X564999Y250534D01*
Y250035D01*
X564500Y249535D01*
X563500D01*
X563000Y250035D01*
X565999Y252534D02*
Y249535D01*
X567498D01*
X567998Y250035D01*
Y252034D01*
X567498Y252534D01*
X565999D01*
X568998Y249535D02*
Y251534D01*
X569998Y252534D01*
X570997Y251534D01*
Y249535D01*
Y251034D01*
X568998D01*
X552074Y246934D02*
X551574Y247433D01*
X550575D01*
X550075Y246934D01*
Y246434D01*
X550575Y245934D01*
X551574D01*
X552074Y245434D01*
Y244934D01*
X551574Y244434D01*
X550575D01*
X550075Y244934D01*
X555073Y246934D02*
X554573Y247433D01*
X553574D01*
X553074Y246934D01*
Y244934D01*
X553574Y244434D01*
X554573D01*
X555073Y244934D01*
X556073Y247433D02*
Y244434D01*
X558072D01*
X508333Y235611D02*
X506583D01*
X506000Y235028D01*
Y233861D01*
X506583Y233278D01*
X508333D01*
X509499Y236777D02*
Y233278D01*
Y235028D01*
X510082Y235611D01*
X511248D01*
X511832Y235028D01*
Y233278D01*
X514164Y232112D02*
X514747D01*
X515330Y232695D01*
Y235611D01*
X513581D01*
X512998Y235028D01*
Y233861D01*
X513581Y233278D01*
X515330D01*
M02*
